<?xml version="1.0" encoding="UTF-8" standalone="no"?>
<!DOCTYPE svg PUBLIC "-//W3C//DTD SVG 1.1//EN"
 "http://www.w3.org/Graphics/SVG/1.1/DTD/svg11.dtd">
<!-- Generated by graphviz version 9.0.0 (20230911.1827)
 -->
<!-- Title: cluster0branching00 Pages: 1 -->
<svg width="889pt" height="358pt"
 viewBox="0.00 0.00 889.00 358.25" xmlns="http://www.w3.org/2000/svg" xmlns:xlink="http://www.w3.org/1999/xlink">
<g id="graph0" class="graph" transform="scale(1 1) rotate(0) translate(4 354.25)">
<title>cluster0branching00</title>
<polygon fill="white" stroke="none" points="-4,4 -4,-354.25 885,-354.25 885,4 -4,4"/>
<text text-anchor="middle" x="440.5" y="-7.95" font-family="DejaVu Sans Mono" font-size="14.00">branching00</text>
<g id="clust1" class="cluster">
<title>cluster_1</title>
<polygon fill="purple" stroke="purple" points="8,-118.5 8,-239.75 82,-239.75 82,-118.5 8,-118.5"/>
</g>
<g id="clust2" class="cluster">
<title>cluster_5</title>
<polygon fill="purple" stroke="purple" points="138,-33.25 138,-85.25 212,-85.25 212,-33.25 138,-33.25"/>
</g>
<g id="clust3" class="cluster">
<title>cluster_7</title>
<polygon fill="purple" stroke="purple" points="329,-33.25 329,-85.25 403,-85.25 403,-33.25 329,-33.25"/>
</g>
<g id="clust4" class="cluster">
<title>cluster_KEY</title>
<polygon fill="none" stroke="black" points="469,-118.5 469,-342.25 873,-342.25 873,-118.5 469,-118.5"/>
<text text-anchor="middle" x="671" y="-324.95" font-family="DejaVu Sans Mono" font-size="14.00">KEY</text>
</g>
<!-- 1 -->
<g id="node1" class="node">
<title>1</title>
<polygon fill="#fffb81" stroke="black" points="206.62,-309 17.38,-309 17.38,-273 206.62,-273 206.62,-309"/>
<text text-anchor="start" x="25.38" y="-286.32" font-family="DejaVu Sans Mono" font-size="14.00">x: int = int(input())</text>
</g>
<!-- 2 -->
<g id="node2" class="node">
<title>2</title>
<polygon fill="#e552ff" stroke="#e552ff" points="72,-231.75 30,-231.75 30,-235.75 18,-235.75 18,-195.75 72,-195.75 72,-231.75"/>
<polyline fill="none" stroke="#e552ff" points="18,-231.75 30,-231.75"/>
<text text-anchor="middle" x="45" y="-209.07" font-family="DejaVu Sans Mono" font-size="14.00">int</text>
</g>
<!-- 1&#45;&gt;2 -->
<g id="edge1" class="edge">
<title>1&#45;&gt;2</title>
<path fill="none" stroke="black" stroke-dasharray="5,2" d="M96.46,-272.55C88,-263.05 77.38,-251.12 67.98,-240.56"/>
<polygon fill="black" stroke="black" points="70.73,-238.38 61.46,-233.24 65.5,-243.03 70.73,-238.38"/>
<text text-anchor="middle" x="109.62" y="-251.7" font-family="DejaVu Sans Mono" font-size="14.00">calls</text>
</g>
<!-- 4 -->
<g id="node4" class="node">
<title>4</title>
<polygon fill="#ff6752" stroke="black" points="180,-231.75 90.47,-213.75 180,-195.75 269.53,-213.75 180,-231.75"/>
<text text-anchor="start" x="124.18" y="-209.07" font-family="DejaVu Sans Mono" font-size="14.00">if x &lt; 0:</text>
</g>
<!-- 1&#45;&gt;4 -->
<g id="edge7" class="edge">
<title>1&#45;&gt;4</title>
<path fill="none" stroke="black" d="M127.77,-272.55C137.18,-262.13 149.24,-248.79 159.4,-237.55"/>
<polygon fill="black" stroke="black" points="161.93,-239.97 166.03,-230.2 156.73,-235.28 161.93,-239.97"/>
</g>
<!-- 3 -->
<g id="node3" class="node">
<title>3</title>
<polygon fill="#e552ff" stroke="#e552ff" points="73.62,-162.5 28.38,-162.5 28.38,-166.5 16.37,-166.5 16.37,-126.5 73.62,-126.5 73.62,-162.5"/>
<polyline fill="none" stroke="#e552ff" points="16.37,-162.5 28.38,-162.5"/>
<text text-anchor="middle" x="45" y="-139.82" font-family="DejaVu Sans Mono" font-size="14.00">input</text>
</g>
<!-- 2&#45;&gt;3 -->
<g id="edge2" class="edge">
<title>2&#45;&gt;3</title>
<path fill="none" stroke="black" d="M45,-195.43C45,-189.05 45,-181.63 45,-174.5"/>
<polygon fill="black" stroke="black" points="48.5,-174.51 45,-164.51 41.5,-174.51 48.5,-174.51"/>
</g>
<!-- 5 -->
<g id="node5" class="node">
<title>5</title>
<polygon fill="#fffb81" stroke="black" points="253.12,-162.5 96.88,-162.5 96.88,-126.5 253.12,-126.5 253.12,-162.5"/>
<text text-anchor="start" x="104.88" y="-139.82" font-family="DejaVu Sans Mono" font-size="14.00">print(&#39;Negative&#39;)</text>
</g>
<!-- 4&#45;&gt;5 -->
<g id="edge4" class="edge">
<title>4&#45;&gt;5</title>
<path fill="none" stroke="green" d="M178.74,-195.78C178.25,-189.22 177.68,-181.53 177.13,-174.16"/>
<polygon fill="green" stroke="green" points="180.62,-173.92 176.39,-164.21 173.64,-174.44 180.62,-173.92"/>
<text text-anchor="middle" x="198.62" y="-174.45" font-family="DejaVu Sans Mono" font-size="14.00">x &lt; 0</text>
</g>
<!-- 7 -->
<g id="node7" class="node">
<title>7</title>
<polygon fill="#fffb81" stroke="black" points="460.62,-162.5 271.38,-162.5 271.38,-126.5 460.62,-126.5 460.62,-162.5"/>
<text text-anchor="start" x="279.38" y="-139.82" font-family="DejaVu Sans Mono" font-size="14.00">print(&#39;Non&#45;negative&#39;)</text>
</g>
<!-- 4&#45;&gt;7 -->
<g id="edge6" class="edge">
<title>4&#45;&gt;7</title>
<path fill="none" stroke="red" d="M210.71,-201.65C236.86,-192.19 275.15,-178.35 307.17,-166.77"/>
<polygon fill="red" stroke="red" points="308.12,-170.15 316.34,-163.46 305.74,-163.56 308.12,-170.15"/>
<text text-anchor="middle" x="328" y="-174.45" font-family="DejaVu Sans Mono" font-size="14.00">(x &gt;= 0)</text>
</g>
<!-- 9 -->
<g id="node6" class="node">
<title>9</title>
<polygon fill="#e552ff" stroke="#e552ff" points="203.62,-77.25 158.38,-77.25 158.38,-81.25 146.38,-81.25 146.38,-41.25 203.62,-41.25 203.62,-77.25"/>
<polyline fill="none" stroke="#e552ff" points="146.38,-77.25 158.38,-77.25"/>
<text text-anchor="middle" x="175" y="-54.58" font-family="DejaVu Sans Mono" font-size="14.00">print</text>
</g>
<!-- 5&#45;&gt;9 -->
<g id="edge3" class="edge">
<title>5&#45;&gt;9</title>
<path fill="none" stroke="black" stroke-dasharray="5,2" d="M175,-126.25C175,-115.42 175,-101.2 175,-88.73"/>
<polygon fill="black" stroke="black" points="178.5,-88.99 175,-78.99 171.5,-88.99 178.5,-88.99"/>
<text text-anchor="middle" x="195.62" y="-97.2" font-family="DejaVu Sans Mono" font-size="14.00">calls</text>
</g>
<!-- 8 -->
<g id="node8" class="node">
<title>8</title>
<polygon fill="#e552ff" stroke="#e552ff" points="394.62,-77.25 349.38,-77.25 349.38,-81.25 337.38,-81.25 337.38,-41.25 394.62,-41.25 394.62,-77.25"/>
<polyline fill="none" stroke="#e552ff" points="337.38,-77.25 349.38,-77.25"/>
<text text-anchor="middle" x="366" y="-54.58" font-family="DejaVu Sans Mono" font-size="14.00">print</text>
</g>
<!-- 7&#45;&gt;8 -->
<g id="edge5" class="edge">
<title>7&#45;&gt;8</title>
<path fill="none" stroke="black" stroke-dasharray="5,2" d="M366,-126.25C366,-115.42 366,-101.2 366,-88.73"/>
<polygon fill="black" stroke="black" points="369.5,-88.99 366,-78.99 362.5,-88.99 369.5,-88.99"/>
<text text-anchor="middle" x="386.62" y="-97.2" font-family="DejaVu Sans Mono" font-size="14.00">calls</text>
</g>
<!-- input -->
<g id="node9" class="node">
<title>input</title>
<polygon fill="#afeeee" stroke="black" points="864.88,-231.75 771.21,-231.75 747.12,-195.75 840.79,-195.75 864.88,-231.75"/>
<text text-anchor="middle" x="806" y="-209.07" font-family="DejaVu Sans Mono" font-size="14.00">input</text>
</g>
<!-- call -->
<g id="node14" class="node">
<title>call</title>
<polygon fill="#e552ff" stroke="black" points="833,-162.5 791,-162.5 791,-166.5 779,-166.5 779,-126.5 833,-126.5 833,-162.5"/>
<polyline fill="none" stroke="black" points="779,-162.5 791,-162.5"/>
<text text-anchor="middle" x="806" y="-139.82" font-family="DejaVu Sans Mono" font-size="14.00">call</text>
</g>
<!-- input&#45;&gt;call -->
<!-- default -->
<g id="node10" class="node">
<title>default</title>
<polygon fill="#fffb81" stroke="black" points="698.88,-162.5 625.12,-162.5 625.12,-126.5 698.88,-126.5 698.88,-162.5"/>
<text text-anchor="middle" x="662" y="-139.82" font-family="DejaVu Sans Mono" font-size="14.00">default</text>
</g>
<!-- if -->
<g id="node11" class="node">
<title>if</title>
<polygon fill="#ff6752" stroke="black" points="806,-309 773.76,-291 806,-273 838.24,-291 806,-309"/>
<text text-anchor="middle" x="806" y="-286.32" font-family="DejaVu Sans Mono" font-size="14.00">if</text>
</g>
<!-- if&#45;&gt;input -->
<!-- for -->
<g id="node12" class="node">
<title>for</title>
<polygon fill="#ffbe52" stroke="black" points="754.01,-291 737.5,-309 704.5,-309 687.99,-291 704.5,-273 737.5,-273 754.01,-291"/>
<text text-anchor="middle" x="721" y="-286.32" font-family="DejaVu Sans Mono" font-size="14.00">for</text>
</g>
<!-- return -->
<g id="node15" class="node">
<title>return</title>
<polygon fill="#98fb98" stroke="black" points="729.37,-231.75 622.2,-231.75 594.63,-195.75 701.8,-195.75 729.37,-231.75"/>
<text text-anchor="middle" x="662" y="-209.07" font-family="DejaVu Sans Mono" font-size="14.00">return</text>
</g>
<!-- for&#45;&gt;return -->
<!-- while -->
<g id="node13" class="node">
<title>while</title>
<polygon fill="#ffbe52" stroke="black" points="670.37,-291 647.19,-309 600.81,-309 577.63,-291 600.81,-273 647.19,-273 670.37,-291"/>
<text text-anchor="middle" x="624" y="-286.32" font-family="DejaVu Sans Mono" font-size="14.00">while</text>
</g>
<!-- return&#45;&gt;default -->
<!-- try -->
<g id="node16" class="node">
<title>try</title>
<polygon fill="orange" stroke="black" points="519,-309 478.57,-291 519,-273 559.43,-291 519,-309"/>
<polyline fill="none" stroke="black" points="489.54,-295.88 489.54,-286.12"/>
<polyline fill="none" stroke="black" points="508.04,-277.88 529.96,-277.88"/>
<polyline fill="none" stroke="black" points="548.46,-286.12 548.46,-295.88"/>
<polyline fill="none" stroke="black" points="529.96,-304.12 508.04,-304.12"/>
<text text-anchor="middle" x="519" y="-286.32" font-family="DejaVu Sans Mono" font-size="14.00">try</text>
</g>
<!-- raise -->
<g id="node17" class="node">
<title>raise</title>
<polygon fill="#98fb98" stroke="black" points="576.64,-219.31 527,-231.75 477.36,-219.31 477.41,-199.19 576.59,-199.19 576.64,-219.31"/>
<text text-anchor="middle" x="527" y="-209.07" font-family="DejaVu Sans Mono" font-size="14.00">raise</text>
</g>
<!-- try&#45;&gt;raise -->
</g>
</svg>
