<?xml version="1.0" encoding="UTF-8" standalone="no"?>
<!DOCTYPE svg PUBLIC "-//W3C//DTD SVG 1.1//EN"
 "http://www.w3.org/Graphics/SVG/1.1/DTD/svg11.dtd">
<!-- Generated by graphviz version 9.0.0 (20230911.1827)
 -->
<!-- Title: cluster0branching03 Pages: 1 -->
<svg width="1725pt" height="1308pt"
 viewBox="0.00 0.00 1724.64 1307.88" xmlns="http://www.w3.org/2000/svg" xmlns:xlink="http://www.w3.org/1999/xlink">
<g id="graph0" class="graph" transform="scale(1 1) rotate(0) translate(4 1303.88)">
<title>cluster0branching03</title>
<polygon fill="white" stroke="none" points="-4,4 -4,-1303.88 1720.64,-1303.88 1720.64,4 -4,4"/>
<text text-anchor="middle" x="858.32" y="-7.95" font-family="DejaVu Sans Mono" font-size="14.00">branching03</text>
<g id="clust1" class="cluster">
<title>cluster_1</title>
<polygon fill="purple" stroke="purple" points="643.64,-1056.25 643.64,-1177.5 861.64,-1177.5 861.64,-1056.25 643.64,-1056.25"/>
</g>
<g id="clust2" class="cluster">
<title>cluster_8</title>
<polygon fill="purple" stroke="purple" points="1156.64,-971 1156.64,-1023 1230.64,-1023 1230.64,-971 1156.64,-971"/>
</g>
<g id="clust3" class="cluster">
<title>cluster_9</title>
<polygon fill="purple" stroke="purple" points="696.64,-33.25 696.64,-85.25 770.64,-85.25 770.64,-33.25 696.64,-33.25"/>
</g>
<g id="clust4" class="cluster">
<title>cluster_11</title>
<polygon fill="purple" stroke="purple" points="1031.64,-885.75 1031.64,-937.75 1105.64,-937.75 1105.64,-885.75 1031.64,-885.75"/>
</g>
<g id="clust5" class="cluster">
<title>cluster_14</title>
<polygon fill="purple" stroke="purple" points="982.64,-800.5 982.64,-852.5 1056.64,-852.5 1056.64,-800.5 982.64,-800.5"/>
</g>
<g id="clust6" class="cluster">
<title>cluster_17</title>
<polygon fill="purple" stroke="purple" points="982.64,-715.25 982.64,-767.25 1056.64,-767.25 1056.64,-715.25 982.64,-715.25"/>
</g>
<g id="clust7" class="cluster">
<title>cluster_20</title>
<polygon fill="purple" stroke="purple" points="868.64,-630 868.64,-682 942.64,-682 942.64,-630 868.64,-630"/>
</g>
<g id="clust8" class="cluster">
<title>cluster_23</title>
<polygon fill="purple" stroke="purple" points="763.64,-544.75 763.64,-596.75 837.64,-596.75 837.64,-544.75 763.64,-544.75"/>
</g>
<g id="clust9" class="cluster">
<title>cluster_26</title>
<polygon fill="purple" stroke="purple" points="673.64,-459.5 673.64,-511.5 747.64,-511.5 747.64,-459.5 673.64,-459.5"/>
</g>
<g id="clust10" class="cluster">
<title>cluster_29</title>
<polygon fill="purple" stroke="purple" points="606.64,-374.25 606.64,-426.25 680.64,-426.25 680.64,-374.25 606.64,-374.25"/>
</g>
<g id="clust11" class="cluster">
<title>cluster_32</title>
<polygon fill="purple" stroke="purple" points="496.64,-289 496.64,-341 570.64,-341 570.64,-289 496.64,-289"/>
</g>
<g id="clust12" class="cluster">
<title>cluster_35</title>
<polygon fill="purple" stroke="purple" points="388.64,-203.75 388.64,-255.75 462.64,-255.75 462.64,-203.75 388.64,-203.75"/>
</g>
<g id="clust13" class="cluster">
<title>cluster_38</title>
<polygon fill="purple" stroke="purple" points="225.64,-118.5 225.64,-170.5 299.64,-170.5 299.64,-118.5 225.64,-118.5"/>
</g>
<g id="clust14" class="cluster">
<title>cluster_40</title>
<polygon fill="purple" stroke="purple" points="51.64,-118.5 51.64,-170.5 125.64,-170.5 125.64,-118.5 51.64,-118.5"/>
</g>
<g id="clust15" class="cluster">
<title>cluster_KEY</title>
<polygon fill="none" stroke="black" points="1304.64,-1056.25 1304.64,-1291.88 1708.64,-1291.88 1708.64,-1056.25 1304.64,-1056.25"/>
<text text-anchor="middle" x="1506.64" y="-1274.58" font-family="DejaVu Sans Mono" font-size="14.00">KEY</text>
</g>
<!-- 1 -->
<g id="node1" class="node">
<title>1</title>
<polygon fill="#fffb81" stroke="black" points="924.64,-1270.5 644.64,-1270.5 644.64,-1210.75 924.64,-1210.75 924.64,-1270.5"/>
<text text-anchor="start" x="652.64" y="-1253.2" font-family="DejaVu Sans Mono" font-size="14.00">print(&#39;Please enter the mon...&#39;)</text>
<text text-anchor="start" x="652.64" y="-1235.95" font-family="DejaVu Sans Mono" font-size="14.00">month: int = int(input())</text>
<text text-anchor="start" x="652.64" y="-1218.7" font-family="DejaVu Sans Mono" font-size="14.00">day: int = int(input())</text>
</g>
<!-- 2 -->
<g id="node2" class="node">
<title>2</title>
<polygon fill="#e552ff" stroke="#e552ff" points="853.26,-1169.5 808.01,-1169.5 808.01,-1173.5 796.01,-1173.5 796.01,-1133.5 853.26,-1133.5 853.26,-1169.5"/>
<polyline fill="none" stroke="#e552ff" points="796.01,-1169.5 808.01,-1169.5"/>
<text text-anchor="middle" x="824.64" y="-1146.83" font-family="DejaVu Sans Mono" font-size="14.00">print</text>
</g>
<!-- 1&#45;&gt;2 -->
<g id="edge1" class="edge">
<title>1&#45;&gt;2</title>
<path fill="none" stroke="black" stroke-dasharray="5,2" d="M797.96,-1210.61C802.45,-1200.83 807.45,-1189.94 811.89,-1180.26"/>
<polygon fill="black" stroke="black" points="815,-1181.88 815.99,-1171.34 808.64,-1178.96 815,-1181.88"/>
<text text-anchor="middle" x="829.26" y="-1189.45" font-family="DejaVu Sans Mono" font-size="14.00">calls</text>
</g>
<!-- 3 -->
<g id="node3" class="node">
<title>3</title>
<polygon fill="#e552ff" stroke="#e552ff" points="705.64,-1169.5 663.64,-1169.5 663.64,-1173.5 651.64,-1173.5 651.64,-1133.5 705.64,-1133.5 705.64,-1169.5"/>
<polyline fill="none" stroke="#e552ff" points="651.64,-1169.5 663.64,-1169.5"/>
<text text-anchor="middle" x="678.64" y="-1146.83" font-family="DejaVu Sans Mono" font-size="14.00">int</text>
</g>
<!-- 1&#45;&gt;3 -->
<g id="edge2" class="edge">
<title>1&#45;&gt;3</title>
<path fill="none" stroke="black" stroke-dasharray="5,2" d="M717.77,-1210.34C714.47,-1207.97 711.31,-1205.44 708.39,-1202.75 701.36,-1196.29 695.47,-1187.77 690.84,-1179.6"/>
<polygon fill="black" stroke="black" points="694.06,-1178.21 686.35,-1170.94 687.85,-1181.43 694.06,-1178.21"/>
<text text-anchor="middle" x="728.26" y="-1189.45" font-family="DejaVu Sans Mono" font-size="14.00">calls</text>
</g>
<!-- 5 -->
<g id="node4" class="node">
<title>5</title>
<polygon fill="#e552ff" stroke="#e552ff" points="777.64,-1169.5 735.64,-1169.5 735.64,-1173.5 723.64,-1173.5 723.64,-1133.5 777.64,-1133.5 777.64,-1169.5"/>
<polyline fill="none" stroke="#e552ff" points="723.64,-1169.5 735.64,-1169.5"/>
<text text-anchor="middle" x="750.64" y="-1146.83" font-family="DejaVu Sans Mono" font-size="14.00">int</text>
</g>
<!-- 1&#45;&gt;5 -->
<g id="edge3" class="edge">
<title>1&#45;&gt;5</title>
<path fill="none" stroke="black" stroke-dasharray="5,2" d="M762.16,-1210.54C760.74,-1207.98 759.45,-1205.37 758.39,-1202.75 755.63,-1195.96 753.85,-1188.29 752.69,-1181.03"/>
<polygon fill="black" stroke="black" points="756.19,-1180.78 751.51,-1171.28 749.24,-1181.63 756.19,-1180.78"/>
<text text-anchor="middle" x="778.26" y="-1189.45" font-family="DejaVu Sans Mono" font-size="14.00">calls</text>
</g>
<!-- 7 -->
<g id="node7" class="node">
<title>7</title>
<polygon fill="#ff6752" stroke="black" points="1001.64,-1169.5 871.18,-1151.5 1001.64,-1133.5 1132.09,-1151.5 1001.64,-1169.5"/>
<text text-anchor="start" x="916.65" y="-1146.83" font-family="DejaVu Sans Mono" font-size="14.00">if month == 1:</text>
</g>
<!-- 1&#45;&gt;7 -->
<g id="edge53" class="edge">
<title>1&#45;&gt;7</title>
<path fill="none" stroke="black" d="M857.5,-1210.37C891.13,-1196.87 929.89,-1181.31 958.74,-1169.72"/>
<polygon fill="black" stroke="black" points="959.91,-1173.03 967.88,-1166.05 957.3,-1166.53 959.91,-1173.03"/>
</g>
<!-- 4 -->
<g id="node5" class="node">
<title>4</title>
<polygon fill="#e552ff" stroke="#e552ff" points="709.26,-1100.25 664.01,-1100.25 664.01,-1104.25 652.01,-1104.25 652.01,-1064.25 709.26,-1064.25 709.26,-1100.25"/>
<polyline fill="none" stroke="#e552ff" points="652.01,-1100.25 664.01,-1100.25"/>
<text text-anchor="middle" x="680.64" y="-1077.58" font-family="DejaVu Sans Mono" font-size="14.00">input</text>
</g>
<!-- 3&#45;&gt;4 -->
<g id="edge4" class="edge">
<title>3&#45;&gt;4</title>
<path fill="none" stroke="black" d="M679.15,-1133.18C679.34,-1126.8 679.56,-1119.38 679.78,-1112.25"/>
<polygon fill="black" stroke="black" points="683.27,-1112.36 680.07,-1102.26 676.28,-1112.15 683.27,-1112.36"/>
</g>
<!-- 6 -->
<g id="node6" class="node">
<title>6</title>
<polygon fill="#e552ff" stroke="#e552ff" points="784.26,-1100.25 739.01,-1100.25 739.01,-1104.25 727.01,-1104.25 727.01,-1064.25 784.26,-1064.25 784.26,-1100.25"/>
<polyline fill="none" stroke="#e552ff" points="727.01,-1100.25 739.01,-1100.25"/>
<text text-anchor="middle" x="755.64" y="-1077.58" font-family="DejaVu Sans Mono" font-size="14.00">input</text>
</g>
<!-- 5&#45;&gt;6 -->
<g id="edge5" class="edge">
<title>5&#45;&gt;6</title>
<path fill="none" stroke="black" d="M751.93,-1133.18C752.41,-1126.72 752.96,-1119.2 753.5,-1111.99"/>
<polygon fill="black" stroke="black" points="756.97,-1112.48 754.23,-1102.25 749.99,-1111.97 756.97,-1112.48"/>
</g>
<!-- 8 -->
<g id="node8" class="node">
<title>8</title>
<polygon fill="#fffb81" stroke="black" points="1296.64,-1100.25 1148.64,-1100.25 1148.64,-1064.25 1296.64,-1064.25 1296.64,-1100.25"/>
<text text-anchor="start" x="1156.64" y="-1077.58" font-family="DejaVu Sans Mono" font-size="14.00">print(&#39;January&#39;)</text>
</g>
<!-- 7&#45;&gt;8 -->
<g id="edge9" class="edge">
<title>7&#45;&gt;8</title>
<path fill="none" stroke="green" d="M1049.9,-1139.73C1066.98,-1135.64 1086.26,-1130.7 1103.64,-1125.5 1124.28,-1119.32 1146.62,-1111.66 1166.3,-1104.56"/>
<polygon fill="green" stroke="green" points="1167.32,-1107.92 1175.52,-1101.21 1164.92,-1101.34 1167.32,-1107.92"/>
<text text-anchor="middle" x="1193.89" y="-1112.2" font-family="DejaVu Sans Mono" font-size="14.00">month == 1</text>
</g>
<!-- 10 -->
<g id="node12" class="node">
<title>10</title>
<polygon fill="#ff6752" stroke="black" points="1000.64,-1100.25 870.18,-1082.25 1000.64,-1064.25 1131.09,-1082.25 1000.64,-1100.25"/>
<text text-anchor="start" x="915.65" y="-1077.58" font-family="DejaVu Sans Mono" font-size="14.00">if month == 2:</text>
</g>
<!-- 7&#45;&gt;10 -->
<g id="edge52" class="edge">
<title>7&#45;&gt;10</title>
<path fill="none" stroke="red" d="M1001.38,-1133.18C1001.28,-1126.62 1001.17,-1118.97 1001.06,-1111.65"/>
<polygon fill="red" stroke="red" points="1004.56,-1111.74 1000.91,-1101.79 997.56,-1111.84 1004.56,-1111.74"/>
<text text-anchor="middle" x="1050.14" y="-1112.2" font-family="DejaVu Sans Mono" font-size="14.00">(month != 1)</text>
</g>
<!-- 52 -->
<g id="node9" class="node">
<title>52</title>
<polygon fill="#e552ff" stroke="#e552ff" points="1222.26,-1015 1177.01,-1015 1177.01,-1019 1165.01,-1019 1165.01,-979 1222.26,-979 1222.26,-1015"/>
<polyline fill="none" stroke="#e552ff" points="1165.01,-1015 1177.01,-1015"/>
<text text-anchor="middle" x="1193.64" y="-992.33" font-family="DejaVu Sans Mono" font-size="14.00">print</text>
</g>
<!-- 8&#45;&gt;52 -->
<g id="edge6" class="edge">
<title>8&#45;&gt;52</title>
<path fill="none" stroke="black" stroke-dasharray="5,2" d="M1204.7,-1063.78C1200.95,-1059.11 1197.5,-1053.81 1195.39,-1048.25 1192.82,-1041.48 1191.73,-1033.81 1191.44,-1026.55"/>
<polygon fill="black" stroke="black" points="1194.93,-1026.84 1191.53,-1016.8 1187.93,-1026.77 1194.93,-1026.84"/>
<text text-anchor="middle" x="1215.26" y="-1034.95" font-family="DejaVu Sans Mono" font-size="14.00">calls</text>
</g>
<!-- 9 -->
<g id="node10" class="node">
<title>9</title>
<polygon fill="#fffb81" stroke="black" points="782.89,-162.5 684.39,-162.5 684.39,-126.5 782.89,-126.5 782.89,-162.5"/>
<text text-anchor="start" x="692.39" y="-139.82" font-family="DejaVu Sans Mono" font-size="14.00">print(day)</text>
</g>
<!-- 8&#45;&gt;9 -->
<g id="edge8" class="edge">
<title>8&#45;&gt;9</title>
<path fill="none" stroke="black" d="M1232.12,-1063.95C1240.24,-1047.5 1250.64,-1021.79 1250.64,-998 1250.64,-998 1250.64,-998 1250.64,-228.75 1250.64,-183.03 931.49,-157.76 794.69,-149.03"/>
<polygon fill="black" stroke="black" points="794.92,-145.54 784.72,-148.41 794.48,-152.53 794.92,-145.54"/>
</g>
<!-- 53 -->
<g id="node11" class="node">
<title>53</title>
<polygon fill="#e552ff" stroke="#e552ff" points="762.26,-77.25 717.01,-77.25 717.01,-81.25 705.01,-81.25 705.01,-41.25 762.26,-41.25 762.26,-77.25"/>
<polyline fill="none" stroke="#e552ff" points="705.01,-77.25 717.01,-77.25"/>
<text text-anchor="middle" x="733.64" y="-54.58" font-family="DejaVu Sans Mono" font-size="14.00">print</text>
</g>
<!-- 9&#45;&gt;53 -->
<g id="edge7" class="edge">
<title>9&#45;&gt;53</title>
<path fill="none" stroke="black" stroke-dasharray="5,2" d="M733.64,-126.25C733.64,-115.42 733.64,-101.2 733.64,-88.73"/>
<polygon fill="black" stroke="black" points="737.14,-88.99 733.64,-78.99 730.14,-88.99 737.14,-88.99"/>
<text text-anchor="middle" x="754.26" y="-97.2" font-family="DejaVu Sans Mono" font-size="14.00">calls</text>
</g>
<!-- 11 -->
<g id="node13" class="node">
<title>11</title>
<polygon fill="#fffb81" stroke="black" points="1146.76,-1015 990.51,-1015 990.51,-979 1146.76,-979 1146.76,-1015"/>
<text text-anchor="start" x="998.51" y="-992.33" font-family="DejaVu Sans Mono" font-size="14.00">print(&#39;February&#39;)</text>
</g>
<!-- 10&#45;&gt;11 -->
<g id="edge12" class="edge">
<title>10&#45;&gt;11</title>
<path fill="none" stroke="green" d="M1013.43,-1065.59C1022.93,-1053.96 1036.11,-1037.82 1047.21,-1024.23"/>
<polygon fill="green" stroke="green" points="1049.92,-1026.44 1053.54,-1016.48 1044.5,-1022.02 1049.92,-1026.44"/>
<text text-anchor="middle" x="1081.89" y="-1034.95" font-family="DejaVu Sans Mono" font-size="14.00">month == 2</text>
</g>
<!-- 13 -->
<g id="node15" class="node">
<title>13</title>
<polygon fill="#ff6752" stroke="black" points="841.64,-1015 711.18,-997 841.64,-979 972.09,-997 841.64,-1015"/>
<text text-anchor="start" x="756.65" y="-992.33" font-family="DejaVu Sans Mono" font-size="14.00">if month == 3:</text>
</g>
<!-- 10&#45;&gt;13 -->
<g id="edge51" class="edge">
<title>10&#45;&gt;13</title>
<path fill="none" stroke="red" d="M968.39,-1068.38C954.7,-1062.63 938.69,-1055.51 924.64,-1048.25 907.08,-1039.18 888.19,-1027.87 872.87,-1018.28"/>
<polygon fill="red" stroke="red" points="874.97,-1015.46 864.65,-1013.07 871.23,-1021.38 874.97,-1015.46"/>
<text text-anchor="middle" x="974.14" y="-1034.95" font-family="DejaVu Sans Mono" font-size="14.00">(month != 2)</text>
</g>
<!-- 11&#45;&gt;9 -->
<g id="edge11" class="edge">
<title>11&#45;&gt;9</title>
<path fill="none" stroke="black" d="M1096.58,-978.79C1102.22,-974.24 1107.64,-968.93 1111.64,-963 1124.61,-943.79 1125.64,-935.93 1125.64,-912.75 1125.64,-912.75 1125.64,-912.75 1125.64,-228.75 1125.64,-161.89 904.68,-148.5 794.55,-145.98"/>
<polygon fill="black" stroke="black" points="794.87,-142.48 784.8,-145.78 794.73,-149.48 794.87,-142.48"/>
</g>
<!-- 51 -->
<g id="node14" class="node">
<title>51</title>
<polygon fill="#e552ff" stroke="#e552ff" points="1097.26,-929.75 1052.01,-929.75 1052.01,-933.75 1040.01,-933.75 1040.01,-893.75 1097.26,-893.75 1097.26,-929.75"/>
<polyline fill="none" stroke="#e552ff" points="1040.01,-929.75 1052.01,-929.75"/>
<text text-anchor="middle" x="1068.64" y="-907.08" font-family="DejaVu Sans Mono" font-size="14.00">print</text>
</g>
<!-- 11&#45;&gt;51 -->
<g id="edge10" class="edge">
<title>11&#45;&gt;51</title>
<path fill="none" stroke="black" stroke-dasharray="5,2" d="M1068.64,-978.75C1068.64,-967.92 1068.64,-953.7 1068.64,-941.23"/>
<polygon fill="black" stroke="black" points="1072.14,-941.49 1068.64,-931.49 1065.14,-941.49 1072.14,-941.49"/>
<text text-anchor="middle" x="1089.26" y="-949.7" font-family="DejaVu Sans Mono" font-size="14.00">calls</text>
</g>
<!-- 14 -->
<g id="node16" class="node">
<title>14</title>
<polygon fill="#fffb81" stroke="black" points="1022.39,-929.75 890.89,-929.75 890.89,-893.75 1022.39,-893.75 1022.39,-929.75"/>
<text text-anchor="start" x="898.89" y="-907.08" font-family="DejaVu Sans Mono" font-size="14.00">print(&#39;March&#39;)</text>
</g>
<!-- 13&#45;&gt;14 -->
<g id="edge15" class="edge">
<title>13&#45;&gt;14</title>
<path fill="none" stroke="green" d="M870.68,-982.59C881.42,-977.11 893.44,-970.34 903.64,-963 913.93,-955.59 924.27,-946.3 933.05,-937.73"/>
<polygon fill="green" stroke="green" points="935.29,-940.44 939.87,-930.89 930.33,-935.5 935.29,-940.44"/>
<text text-anchor="middle" x="964.89" y="-949.7" font-family="DejaVu Sans Mono" font-size="14.00">month == 3</text>
</g>
<!-- 16 -->
<g id="node18" class="node">
<title>16</title>
<polygon fill="#ff6752" stroke="black" points="742.64,-929.75 612.18,-911.75 742.64,-893.75 873.09,-911.75 742.64,-929.75"/>
<text text-anchor="start" x="657.65" y="-907.08" font-family="DejaVu Sans Mono" font-size="14.00">if month == 4:</text>
</g>
<!-- 13&#45;&gt;16 -->
<g id="edge50" class="edge">
<title>13&#45;&gt;16</title>
<path fill="none" stroke="red" d="M823.94,-981.12C808.69,-968.29 786.45,-949.6 769.09,-934.99"/>
<polygon fill="red" stroke="red" points="771.58,-932.52 761.68,-928.76 767.08,-937.87 771.58,-932.52"/>
<text text-anchor="middle" x="850.14" y="-949.7" font-family="DejaVu Sans Mono" font-size="14.00">(month != 3)</text>
</g>
<!-- 14&#45;&gt;9 -->
<g id="edge14" class="edge">
<title>14&#45;&gt;9</title>
<path fill="none" stroke="black" d="M1010.6,-893.29C1020.36,-888.96 1030.13,-883.8 1038.64,-877.75 1061.45,-861.52 1076.64,-855.5 1076.64,-827.5 1076.64,-827.5 1076.64,-827.5 1076.64,-228.75 1076.64,-171.35 892.97,-153.38 794.43,-147.87"/>
<polygon fill="black" stroke="black" points="794.83,-144.38 784.66,-147.35 794.46,-151.37 794.83,-144.38"/>
</g>
<!-- 50 -->
<g id="node17" class="node">
<title>50</title>
<polygon fill="#e552ff" stroke="#e552ff" points="1048.26,-844.5 1003.01,-844.5 1003.01,-848.5 991.01,-848.5 991.01,-808.5 1048.26,-808.5 1048.26,-844.5"/>
<polyline fill="none" stroke="#e552ff" points="991.01,-844.5 1003.01,-844.5"/>
<text text-anchor="middle" x="1019.64" y="-821.83" font-family="DejaVu Sans Mono" font-size="14.00">print</text>
</g>
<!-- 14&#45;&gt;50 -->
<g id="edge13" class="edge">
<title>14&#45;&gt;50</title>
<path fill="none" stroke="black" stroke-dasharray="5,2" d="M969.69,-893.5C978.39,-882 989.99,-866.68 999.82,-853.69"/>
<polygon fill="black" stroke="black" points="1002.44,-856.02 1005.69,-845.93 996.86,-851.8 1002.44,-856.02"/>
<text text-anchor="middle" x="1014.26" y="-864.45" font-family="DejaVu Sans Mono" font-size="14.00">calls</text>
</g>
<!-- 17 -->
<g id="node19" class="node">
<title>17</title>
<polygon fill="#fffb81" stroke="black" points="973.39,-844.5 841.89,-844.5 841.89,-808.5 973.39,-808.5 973.39,-844.5"/>
<text text-anchor="start" x="849.89" y="-821.83" font-family="DejaVu Sans Mono" font-size="14.00">print(&#39;April&#39;)</text>
</g>
<!-- 16&#45;&gt;17 -->
<g id="edge18" class="edge">
<title>16&#45;&gt;17</title>
<path fill="none" stroke="green" d="M777.5,-898.16C792.28,-892.45 809.54,-885.3 824.64,-877.75 840.55,-869.8 857.46,-859.85 871.84,-850.91"/>
<polygon fill="green" stroke="green" points="873.47,-854.02 880.07,-845.73 869.74,-848.1 873.47,-854.02"/>
<text text-anchor="middle" x="895.89" y="-864.45" font-family="DejaVu Sans Mono" font-size="14.00">month == 4</text>
</g>
<!-- 19 -->
<g id="node21" class="node">
<title>19</title>
<polygon fill="#ff6752" stroke="black" points="693.64,-844.5 563.18,-826.5 693.64,-808.5 824.09,-826.5 693.64,-844.5"/>
<text text-anchor="start" x="608.65" y="-821.83" font-family="DejaVu Sans Mono" font-size="14.00">if month == 5:</text>
</g>
<!-- 16&#45;&gt;19 -->
<g id="edge49" class="edge">
<title>16&#45;&gt;19</title>
<path fill="none" stroke="red" d="M733.19,-894.7C726.28,-882.95 716.75,-866.77 708.78,-853.23"/>
<polygon fill="red" stroke="red" points="711.91,-851.65 703.82,-844.81 705.88,-855.2 711.91,-851.65"/>
<text text-anchor="middle" x="771.14" y="-864.45" font-family="DejaVu Sans Mono" font-size="14.00">(month != 4)</text>
</g>
<!-- 17&#45;&gt;9 -->
<g id="edge17" class="edge">
<title>17&#45;&gt;9</title>
<path fill="none" stroke="black" d="M927.81,-808.17C943.5,-792.67 962.64,-768.41 962.64,-742.25 962.64,-742.25 962.64,-742.25 962.64,-228.75 962.64,-192.89 862.18,-168.01 794.33,-155.3"/>
<polygon fill="black" stroke="black" points="795.28,-151.91 784.82,-153.56 794.02,-158.8 795.28,-151.91"/>
</g>
<!-- 49 -->
<g id="node20" class="node">
<title>49</title>
<polygon fill="#e552ff" stroke="#e552ff" points="1048.26,-759.25 1003.01,-759.25 1003.01,-763.25 991.01,-763.25 991.01,-723.25 1048.26,-723.25 1048.26,-759.25"/>
<polyline fill="none" stroke="#e552ff" points="991.01,-759.25 1003.01,-759.25"/>
<text text-anchor="middle" x="1019.64" y="-736.58" font-family="DejaVu Sans Mono" font-size="14.00">print</text>
</g>
<!-- 17&#45;&gt;49 -->
<g id="edge16" class="edge">
<title>17&#45;&gt;49</title>
<path fill="none" stroke="black" stroke-dasharray="5,2" d="M951.22,-808.07C960.03,-803.62 968.95,-798.4 976.64,-792.5 985.47,-785.72 993.78,-776.87 1000.69,-768.49"/>
<polygon fill="black" stroke="black" points="1003.24,-770.92 1006.67,-760.89 997.74,-766.59 1003.24,-770.92"/>
<text text-anchor="middle" x="1014.26" y="-779.2" font-family="DejaVu Sans Mono" font-size="14.00">calls</text>
</g>
<!-- 20 -->
<g id="node22" class="node">
<title>20</title>
<polygon fill="#fffb81" stroke="black" points="920.14,-759.25 805.14,-759.25 805.14,-723.25 920.14,-723.25 920.14,-759.25"/>
<text text-anchor="start" x="813.14" y="-736.58" font-family="DejaVu Sans Mono" font-size="14.00">print(&#39;May&#39;)</text>
</g>
<!-- 19&#45;&gt;20 -->
<g id="edge21" class="edge">
<title>19&#45;&gt;20</title>
<path fill="none" stroke="green" d="M730.69,-813.18C746.38,-807.52 764.69,-800.33 780.64,-792.5 796.59,-784.67 813.45,-774.67 827.71,-765.65"/>
<polygon fill="green" stroke="green" points="829.33,-768.77 835.85,-760.42 825.55,-762.88 829.33,-768.77"/>
<text text-anchor="middle" x="851.89" y="-779.2" font-family="DejaVu Sans Mono" font-size="14.00">month == 5</text>
</g>
<!-- 22 -->
<g id="node24" class="node">
<title>22</title>
<polygon fill="#ff6752" stroke="black" points="656.64,-759.25 526.18,-741.25 656.64,-723.25 787.09,-741.25 656.64,-759.25"/>
<text text-anchor="start" x="571.65" y="-736.58" font-family="DejaVu Sans Mono" font-size="14.00">if month == 6:</text>
</g>
<!-- 19&#45;&gt;22 -->
<g id="edge48" class="edge">
<title>19&#45;&gt;22</title>
<path fill="none" stroke="red" d="M686.33,-809.05C681.26,-797.65 674.4,-782.21 668.55,-769.05"/>
<polygon fill="red" stroke="red" points="671.81,-767.76 664.55,-760.05 665.41,-770.61 671.81,-767.76"/>
<text text-anchor="middle" x="727.14" y="-779.2" font-family="DejaVu Sans Mono" font-size="14.00">(month != 5)</text>
</g>
<!-- 20&#45;&gt;9 -->
<g id="edge20" class="edge">
<title>20&#45;&gt;9</title>
<path fill="none" stroke="black" d="M861.95,-723.01C860.58,-687 857.64,-601.17 857.64,-529.12 857.64,-529.12 857.64,-529.12 857.64,-228.75 857.64,-194.97 825.53,-174.01 793.99,-161.57"/>
<polygon fill="black" stroke="black" points="795.37,-158.35 784.78,-158.2 792.96,-164.93 795.37,-158.35"/>
</g>
<!-- 48 -->
<g id="node23" class="node">
<title>48</title>
<polygon fill="#e552ff" stroke="#e552ff" points="934.26,-674 889.01,-674 889.01,-678 877.01,-678 877.01,-638 934.26,-638 934.26,-674"/>
<polyline fill="none" stroke="#e552ff" points="877.01,-674 889.01,-674"/>
<text text-anchor="middle" x="905.64" y="-651.33" font-family="DejaVu Sans Mono" font-size="14.00">print</text>
</g>
<!-- 20&#45;&gt;48 -->
<g id="edge19" class="edge">
<title>20&#45;&gt;48</title>
<path fill="none" stroke="black" stroke-dasharray="5,2" d="M871.55,-723C877.31,-711.84 884.94,-697.07 891.52,-684.33"/>
<polygon fill="black" stroke="black" points="894.57,-686.06 896.05,-675.57 888.35,-682.85 894.57,-686.06"/>
<text text-anchor="middle" x="908.26" y="-693.95" font-family="DejaVu Sans Mono" font-size="14.00">calls</text>
</g>
<!-- 23 -->
<g id="node25" class="node">
<title>23</title>
<polygon fill="#fffb81" stroke="black" points="808.26,-674 685.01,-674 685.01,-638 808.26,-638 808.26,-674"/>
<text text-anchor="start" x="693.01" y="-651.33" font-family="DejaVu Sans Mono" font-size="14.00">print(&#39;June&#39;)</text>
</g>
<!-- 22&#45;&gt;23 -->
<g id="edge24" class="edge">
<title>22&#45;&gt;23</title>
<path fill="none" stroke="green" d="M672.73,-725.37C685.78,-713.29 704.47,-696.01 719.78,-681.84"/>
<polygon fill="green" stroke="green" points="721.81,-684.73 726.77,-675.37 717.06,-679.59 721.81,-684.73"/>
<text text-anchor="middle" x="750.89" y="-693.95" font-family="DejaVu Sans Mono" font-size="14.00">month == 6</text>
</g>
<!-- 25 -->
<g id="node27" class="node">
<title>25</title>
<polygon fill="#ff6752" stroke="black" points="536.64,-674 406.18,-656 536.64,-638 667.09,-656 536.64,-674"/>
<text text-anchor="start" x="451.65" y="-651.33" font-family="DejaVu Sans Mono" font-size="14.00">if month == 7:</text>
</g>
<!-- 22&#45;&gt;25 -->
<g id="edge47" class="edge">
<title>22&#45;&gt;25</title>
<path fill="none" stroke="red" d="M625.19,-727.15C613.58,-721.71 600.6,-714.88 589.64,-707.25 578.48,-699.48 567.38,-689.41 558.24,-680.33"/>
<polygon fill="red" stroke="red" points="561,-678.14 551.51,-673.44 555.99,-683.04 561,-678.14"/>
<text text-anchor="middle" x="639.14" y="-693.95" font-family="DejaVu Sans Mono" font-size="14.00">(month != 6)</text>
</g>
<!-- 23&#45;&gt;9 -->
<g id="edge23" class="edge">
<title>23&#45;&gt;9</title>
<path fill="none" stroke="black" d="M748.81,-637.7C754.17,-594.3 767.64,-481.63 767.64,-443.88 767.64,-443.88 767.64,-443.88 767.64,-228.75 767.64,-208.9 759.25,-188.23 750.81,-172.45"/>
<polygon fill="black" stroke="black" points="754.08,-171.12 746.09,-164.17 747.99,-174.59 754.08,-171.12"/>
</g>
<!-- 47 -->
<g id="node26" class="node">
<title>47</title>
<polygon fill="#e552ff" stroke="#e552ff" points="829.26,-588.75 784.01,-588.75 784.01,-592.75 772.01,-592.75 772.01,-552.75 829.26,-552.75 829.26,-588.75"/>
<polyline fill="none" stroke="#e552ff" points="772.01,-588.75 784.01,-588.75"/>
<text text-anchor="middle" x="800.64" y="-566.08" font-family="DejaVu Sans Mono" font-size="14.00">print</text>
</g>
<!-- 23&#45;&gt;47 -->
<g id="edge22" class="edge">
<title>23&#45;&gt;47</title>
<path fill="none" stroke="black" stroke-dasharray="5,2" d="M757.83,-637.75C765.21,-626.36 775.03,-611.22 783.41,-598.31"/>
<polygon fill="black" stroke="black" points="786.13,-600.54 788.64,-590.25 780.26,-596.73 786.13,-600.54"/>
<text text-anchor="middle" x="798.26" y="-608.7" font-family="DejaVu Sans Mono" font-size="14.00">calls</text>
</g>
<!-- 26 -->
<g id="node28" class="node">
<title>26</title>
<polygon fill="#fffb81" stroke="black" points="715.26,-588.75 592.01,-588.75 592.01,-552.75 715.26,-552.75 715.26,-588.75"/>
<text text-anchor="start" x="600.01" y="-566.08" font-family="DejaVu Sans Mono" font-size="14.00">print(&#39;July&#39;)</text>
</g>
<!-- 25&#45;&gt;26 -->
<g id="edge27" class="edge">
<title>25&#45;&gt;26</title>
<path fill="none" stroke="green" d="M557.26,-640.59C565.48,-634.83 575.02,-628.12 583.64,-622 595.65,-613.48 608.77,-604.08 620.37,-595.74"/>
<polygon fill="green" stroke="green" points="622.41,-598.59 628.48,-589.91 618.32,-592.9 622.41,-598.59"/>
<text text-anchor="middle" x="648.89" y="-608.7" font-family="DejaVu Sans Mono" font-size="14.00">month == 7</text>
</g>
<!-- 28 -->
<g id="node30" class="node">
<title>28</title>
<polygon fill="#ff6752" stroke="black" points="443.64,-588.75 313.18,-570.75 443.64,-552.75 574.09,-570.75 443.64,-588.75"/>
<text text-anchor="start" x="358.65" y="-566.08" font-family="DejaVu Sans Mono" font-size="14.00">if month == 8:</text>
</g>
<!-- 25&#45;&gt;28 -->
<g id="edge46" class="edge">
<title>25&#45;&gt;28</title>
<path fill="none" stroke="red" d="M511.15,-641.08C502.32,-635.69 492.63,-629.1 484.64,-622 476.1,-614.43 467.9,-604.97 461.11,-596.32"/>
<polygon fill="red" stroke="red" points="464.07,-594.43 455.25,-588.57 458.49,-598.66 464.07,-594.43"/>
<text text-anchor="middle" x="534.14" y="-608.7" font-family="DejaVu Sans Mono" font-size="14.00">(month != 7)</text>
</g>
<!-- 26&#45;&gt;9 -->
<g id="edge26" class="edge">
<title>26&#45;&gt;9</title>
<path fill="none" stroke="black" d="M654.64,-552.63C656.25,-530.68 660.26,-491.62 669.64,-459.5 674.18,-443.94 679.41,-441.6 684.64,-426.25 694.59,-397.01 700.64,-389.51 700.64,-358.62 700.64,-358.62 700.64,-358.62 700.64,-228.75 700.64,-209.17 708.62,-188.71 716.74,-172.97"/>
<polygon fill="black" stroke="black" points="719.8,-174.67 721.55,-164.22 713.66,-171.3 719.8,-174.67"/>
</g>
<!-- 46 -->
<g id="node29" class="node">
<title>46</title>
<polygon fill="#e552ff" stroke="#e552ff" points="739.26,-503.5 694.01,-503.5 694.01,-507.5 682.01,-507.5 682.01,-467.5 739.26,-467.5 739.26,-503.5"/>
<polyline fill="none" stroke="#e552ff" points="682.01,-503.5 694.01,-503.5"/>
<text text-anchor="middle" x="710.64" y="-480.82" font-family="DejaVu Sans Mono" font-size="14.00">print</text>
</g>
<!-- 26&#45;&gt;46 -->
<g id="edge25" class="edge">
<title>26&#45;&gt;46</title>
<path fill="none" stroke="black" stroke-dasharray="5,2" d="M665.45,-552.5C673.24,-541.11 683.61,-525.97 692.45,-513.06"/>
<polygon fill="black" stroke="black" points="695.23,-515.2 697.99,-504.98 689.45,-511.25 695.23,-515.2"/>
<text text-anchor="middle" x="707.26" y="-523.45" font-family="DejaVu Sans Mono" font-size="14.00">calls</text>
</g>
<!-- 29 -->
<g id="node31" class="node">
<title>29</title>
<polygon fill="#fffb81" stroke="black" points="625.51,-503.5 485.76,-503.5 485.76,-467.5 625.51,-467.5 625.51,-503.5"/>
<text text-anchor="start" x="493.76" y="-480.82" font-family="DejaVu Sans Mono" font-size="14.00">print(&#39;August&#39;)</text>
</g>
<!-- 28&#45;&gt;29 -->
<g id="edge30" class="edge">
<title>28&#45;&gt;29</title>
<path fill="none" stroke="green" d="M463.4,-555.06C479.92,-542.78 503.8,-525.03 523.12,-510.67"/>
<polygon fill="green" stroke="green" points="525.04,-513.6 530.98,-504.83 520.86,-507.99 525.04,-513.6"/>
<text text-anchor="middle" x="551.89" y="-523.45" font-family="DejaVu Sans Mono" font-size="14.00">month == 8</text>
</g>
<!-- 31 -->
<g id="node33" class="node">
<title>31</title>
<polygon fill="#ff6752" stroke="black" points="337.64,-503.5 207.18,-485.5 337.64,-467.5 468.09,-485.5 337.64,-503.5"/>
<text text-anchor="start" x="252.65" y="-480.82" font-family="DejaVu Sans Mono" font-size="14.00">if month == 9:</text>
</g>
<!-- 28&#45;&gt;31 -->
<g id="edge45" class="edge">
<title>28&#45;&gt;31</title>
<path fill="none" stroke="red" d="M416.57,-556.07C406.76,-550.61 395.84,-543.91 386.64,-536.75 376.69,-529 366.77,-519.31 358.49,-510.5"/>
<polygon fill="red" stroke="red" points="361.17,-508.24 351.84,-503.22 356,-512.96 361.17,-508.24"/>
<text text-anchor="middle" x="436.14" y="-523.45" font-family="DejaVu Sans Mono" font-size="14.00">(month != 8)</text>
</g>
<!-- 29&#45;&gt;9 -->
<g id="edge29" class="edge">
<title>29&#45;&gt;9</title>
<path fill="none" stroke="black" d="M559.48,-467.18C571.18,-417.58 610.32,-272.49 686.64,-178.5 689.1,-175.47 691.91,-172.59 694.9,-169.89"/>
<polygon fill="black" stroke="black" points="696.94,-172.74 702.51,-163.73 692.54,-167.3 696.94,-172.74"/>
</g>
<!-- 45 -->
<g id="node32" class="node">
<title>45</title>
<polygon fill="#e552ff" stroke="#e552ff" points="672.26,-418.25 627.01,-418.25 627.01,-422.25 615.01,-422.25 615.01,-382.25 672.26,-382.25 672.26,-418.25"/>
<polyline fill="none" stroke="#e552ff" points="615.01,-418.25 627.01,-418.25"/>
<text text-anchor="middle" x="643.64" y="-395.57" font-family="DejaVu Sans Mono" font-size="14.00">print</text>
</g>
<!-- 29&#45;&gt;45 -->
<g id="edge28" class="edge">
<title>29&#45;&gt;45</title>
<path fill="none" stroke="black" stroke-dasharray="5,2" d="M581.2,-467.32C587.78,-462.49 594.67,-457.03 600.64,-451.5 608.59,-444.12 616.53,-435.35 623.38,-427.22"/>
<polygon fill="black" stroke="black" points="626,-429.53 629.64,-419.58 620.59,-425.1 626,-429.53"/>
<text text-anchor="middle" x="638.26" y="-438.2" font-family="DejaVu Sans Mono" font-size="14.00">calls</text>
</g>
<!-- 32 -->
<g id="node34" class="node">
<title>32</title>
<polygon fill="#fffb81" stroke="black" points="558.89,-418.25 394.39,-418.25 394.39,-382.25 558.89,-382.25 558.89,-418.25"/>
<text text-anchor="start" x="402.39" y="-395.57" font-family="DejaVu Sans Mono" font-size="14.00">print(&#39;September&#39;)</text>
</g>
<!-- 31&#45;&gt;32 -->
<g id="edge33" class="edge">
<title>31&#45;&gt;32</title>
<path fill="none" stroke="green" d="M364.48,-470.88C375.49,-465.12 388.3,-458.2 399.64,-451.5 413.66,-443.22 428.73,-433.56 441.79,-424.93"/>
<polygon fill="green" stroke="green" points="443.69,-427.87 450.07,-419.42 439.81,-422.05 443.69,-427.87"/>
<text text-anchor="middle" x="466.89" y="-438.2" font-family="DejaVu Sans Mono" font-size="14.00">month == 9</text>
</g>
<!-- 34 -->
<g id="node36" class="node">
<title>34</title>
<polygon fill="#ff6752" stroke="black" points="237.64,-418.25 99,-400.25 237.64,-382.25 376.28,-400.25 237.64,-418.25"/>
<text text-anchor="start" x="146.82" y="-395.57" font-family="DejaVu Sans Mono" font-size="14.00">if month == 10:</text>
</g>
<!-- 31&#45;&gt;34 -->
<g id="edge44" class="edge">
<title>31&#45;&gt;34</title>
<path fill="none" stroke="red" d="M319.76,-469.62C304.36,-456.79 281.9,-438.1 264.36,-423.49"/>
<polygon fill="red" stroke="red" points="266.79,-420.96 256.86,-417.25 262.31,-426.34 266.79,-420.96"/>
<text text-anchor="middle" x="346.14" y="-438.2" font-family="DejaVu Sans Mono" font-size="14.00">(month != 9)</text>
</g>
<!-- 32&#45;&gt;9 -->
<g id="edge32" class="edge">
<title>32&#45;&gt;9</title>
<path fill="none" stroke="black" d="M476.51,-382.11C476.91,-359.81 479.62,-320.04 492.64,-289 516.49,-232.11 524.5,-211.48 576.64,-178.5 605.25,-160.4 642.1,-152.05 672.9,-148.27"/>
<polygon fill="black" stroke="black" points="672.88,-151.79 682.44,-147.24 672.13,-144.83 672.88,-151.79"/>
</g>
<!-- 44 -->
<g id="node35" class="node">
<title>44</title>
<polygon fill="#e552ff" stroke="#e552ff" points="562.26,-333 517.01,-333 517.01,-337 505.01,-337 505.01,-297 562.26,-297 562.26,-333"/>
<polyline fill="none" stroke="#e552ff" points="505.01,-333 517.01,-333"/>
<text text-anchor="middle" x="533.64" y="-310.32" font-family="DejaVu Sans Mono" font-size="14.00">print</text>
</g>
<!-- 32&#45;&gt;44 -->
<g id="edge31" class="edge">
<title>32&#45;&gt;44</title>
<path fill="none" stroke="black" stroke-dasharray="5,2" d="M488.45,-382C496.24,-370.61 506.61,-355.47 515.45,-342.56"/>
<polygon fill="black" stroke="black" points="518.23,-344.7 520.99,-334.48 512.45,-340.75 518.23,-344.7"/>
<text text-anchor="middle" x="531.26" y="-352.95" font-family="DejaVu Sans Mono" font-size="14.00">calls</text>
</g>
<!-- 35 -->
<g id="node37" class="node">
<title>35</title>
<polygon fill="#fffb81" stroke="black" points="443.64,-333 295.64,-333 295.64,-297 443.64,-297 443.64,-333"/>
<text text-anchor="start" x="303.64" y="-310.32" font-family="DejaVu Sans Mono" font-size="14.00">print(&#39;October&#39;)</text>
</g>
<!-- 34&#45;&gt;35 -->
<g id="edge36" class="edge">
<title>34&#45;&gt;35</title>
<path fill="none" stroke="green" d="M270.35,-386.13C282.72,-380.64 296.68,-373.78 308.64,-366.25 320.4,-358.84 332.41,-349.43 342.62,-340.75"/>
<polygon fill="green" stroke="green" points="344.7,-343.59 349.95,-334.38 340.1,-338.3 344.7,-343.59"/>
<text text-anchor="middle" x="377.01" y="-352.95" font-family="DejaVu Sans Mono" font-size="14.00">month == 10</text>
</g>
<!-- 37 -->
<g id="node39" class="node">
<title>37</title>
<polygon fill="#ff6752" stroke="black" points="138.64,-333 0,-315 138.64,-297 277.28,-315 138.64,-333"/>
<text text-anchor="start" x="47.82" y="-310.32" font-family="DejaVu Sans Mono" font-size="14.00">if month == 11:</text>
</g>
<!-- 34&#45;&gt;37 -->
<g id="edge43" class="edge">
<title>34&#45;&gt;37</title>
<path fill="none" stroke="red" d="M219.94,-384.37C204.69,-371.54 182.45,-352.85 165.09,-338.24"/>
<polygon fill="red" stroke="red" points="167.58,-335.77 157.68,-332.01 163.08,-341.12 167.58,-335.77"/>
<text text-anchor="middle" x="251.26" y="-352.95" font-family="DejaVu Sans Mono" font-size="14.00">(month != 10)</text>
</g>
<!-- 35&#45;&gt;9 -->
<g id="edge35" class="edge">
<title>35&#45;&gt;9</title>
<path fill="none" stroke="black" d="M366.75,-296.81C363.78,-272.98 362.3,-229.89 384.64,-203.75 421,-161.19 582.49,-149.7 672.5,-146.62"/>
<polygon fill="black" stroke="black" points="672.51,-150.12 682.4,-146.31 672.29,-143.13 672.51,-150.12"/>
</g>
<!-- 43 -->
<g id="node38" class="node">
<title>43</title>
<polygon fill="#e552ff" stroke="#e552ff" points="454.26,-247.75 409.01,-247.75 409.01,-251.75 397.01,-251.75 397.01,-211.75 454.26,-211.75 454.26,-247.75"/>
<polyline fill="none" stroke="#e552ff" points="397.01,-247.75 409.01,-247.75"/>
<text text-anchor="middle" x="425.64" y="-225.07" font-family="DejaVu Sans Mono" font-size="14.00">print</text>
</g>
<!-- 35&#45;&gt;43 -->
<g id="edge34" class="edge">
<title>35&#45;&gt;43</title>
<path fill="none" stroke="black" stroke-dasharray="5,2" d="M381.24,-296.75C388.9,-285.36 399.09,-270.22 407.77,-257.31"/>
<polygon fill="black" stroke="black" points="410.53,-259.48 413.2,-249.23 404.72,-255.58 410.53,-259.48"/>
<text text-anchor="middle" x="424.26" y="-267.7" font-family="DejaVu Sans Mono" font-size="14.00">calls</text>
</g>
<!-- 38 -->
<g id="node40" class="node">
<title>38</title>
<polygon fill="#fffb81" stroke="black" points="340.76,-247.75 184.51,-247.75 184.51,-211.75 340.76,-211.75 340.76,-247.75"/>
<text text-anchor="start" x="192.51" y="-225.07" font-family="DejaVu Sans Mono" font-size="14.00">print(&#39;November&#39;)</text>
</g>
<!-- 37&#45;&gt;38 -->
<g id="edge39" class="edge">
<title>37&#45;&gt;38</title>
<path fill="none" stroke="green" d="M178.35,-301.76C191.84,-296.56 206.54,-289.66 218.64,-281 227.92,-274.36 236.56,-265.4 243.69,-256.88"/>
<polygon fill="green" stroke="green" points="246.37,-259.14 249.85,-249.13 240.89,-254.78 246.37,-259.14"/>
<text text-anchor="middle" x="283.01" y="-267.7" font-family="DejaVu Sans Mono" font-size="14.00">month == 11</text>
</g>
<!-- 40 -->
<g id="node42" class="node">
<title>40</title>
<polygon fill="#fffb81" stroke="black" points="166.76,-247.75 10.51,-247.75 10.51,-211.75 166.76,-211.75 166.76,-247.75"/>
<text text-anchor="start" x="18.51" y="-225.07" font-family="DejaVu Sans Mono" font-size="14.00">print(&#39;December&#39;)</text>
</g>
<!-- 37&#45;&gt;40 -->
<g id="edge42" class="edge">
<title>37&#45;&gt;40</title>
<path fill="none" stroke="red" d="M124.43,-298.53C119.94,-293.21 115.16,-287.05 111.39,-281 107.03,-274.01 103.03,-266.05 99.64,-258.55"/>
<polygon fill="red" stroke="red" points="102.9,-257.27 95.74,-249.47 96.47,-260.04 102.9,-257.27"/>
<text text-anchor="middle" x="165.26" y="-267.7" font-family="DejaVu Sans Mono" font-size="14.00">(month != 11)</text>
</g>
<!-- 38&#45;&gt;9 -->
<g id="edge38" class="edge">
<title>38&#45;&gt;9</title>
<path fill="none" stroke="black" d="M287.55,-211.44C305.38,-200 330.42,-185.82 354.64,-178.5 412.47,-161.03 581.16,-151.68 672.76,-147.76"/>
<polygon fill="black" stroke="black" points="672.72,-151.27 682.56,-147.35 672.43,-144.27 672.72,-151.27"/>
</g>
<!-- 42 -->
<g id="node41" class="node">
<title>42</title>
<polygon fill="#e552ff" stroke="#e552ff" points="291.26,-162.5 246.01,-162.5 246.01,-166.5 234.01,-166.5 234.01,-126.5 291.26,-126.5 291.26,-162.5"/>
<polyline fill="none" stroke="#e552ff" points="234.01,-162.5 246.01,-162.5"/>
<text text-anchor="middle" x="262.64" y="-139.82" font-family="DejaVu Sans Mono" font-size="14.00">print</text>
</g>
<!-- 38&#45;&gt;42 -->
<g id="edge37" class="edge">
<title>38&#45;&gt;42</title>
<path fill="none" stroke="black" stroke-dasharray="5,2" d="M262.64,-211.5C262.64,-200.67 262.64,-186.45 262.64,-173.98"/>
<polygon fill="black" stroke="black" points="266.14,-174.24 262.64,-164.24 259.14,-174.24 266.14,-174.24"/>
<text text-anchor="middle" x="283.26" y="-182.45" font-family="DejaVu Sans Mono" font-size="14.00">calls</text>
</g>
<!-- 40&#45;&gt;9 -->
<g id="edge41" class="edge">
<title>40&#45;&gt;9</title>
<path fill="none" stroke="black" d="M137.06,-211.37C170.71,-200.05 216.84,-186.04 258.64,-178.5 405.55,-152.01 581.55,-146.47 672.51,-145.51"/>
<polygon fill="black" stroke="black" points="672.48,-149.01 682.45,-145.42 672.42,-142.01 672.48,-149.01"/>
</g>
<!-- 41 -->
<g id="node43" class="node">
<title>41</title>
<polygon fill="#e552ff" stroke="#e552ff" points="117.26,-162.5 72.01,-162.5 72.01,-166.5 60.01,-166.5 60.01,-126.5 117.26,-126.5 117.26,-162.5"/>
<polyline fill="none" stroke="#e552ff" points="60.01,-162.5 72.01,-162.5"/>
<text text-anchor="middle" x="88.64" y="-139.82" font-family="DejaVu Sans Mono" font-size="14.00">print</text>
</g>
<!-- 40&#45;&gt;41 -->
<g id="edge40" class="edge">
<title>40&#45;&gt;41</title>
<path fill="none" stroke="black" stroke-dasharray="5,2" d="M88.64,-211.5C88.64,-200.67 88.64,-186.45 88.64,-173.98"/>
<polygon fill="black" stroke="black" points="92.14,-174.24 88.64,-164.24 85.14,-174.24 92.14,-174.24"/>
<text text-anchor="middle" x="109.26" y="-182.45" font-family="DejaVu Sans Mono" font-size="14.00">calls</text>
</g>
<!-- input -->
<g id="node44" class="node">
<title>input</title>
<polygon fill="#afeeee" stroke="black" points="1700.52,-1169.5 1606.85,-1169.5 1582.76,-1133.5 1676.42,-1133.5 1700.52,-1169.5"/>
<text text-anchor="middle" x="1641.64" y="-1146.83" font-family="DejaVu Sans Mono" font-size="14.00">input</text>
</g>
<!-- call -->
<g id="node49" class="node">
<title>call</title>
<polygon fill="#e552ff" stroke="black" points="1668.64,-1100.25 1626.64,-1100.25 1626.64,-1104.25 1614.64,-1104.25 1614.64,-1064.25 1668.64,-1064.25 1668.64,-1100.25"/>
<polyline fill="none" stroke="black" points="1614.64,-1100.25 1626.64,-1100.25"/>
<text text-anchor="middle" x="1641.64" y="-1077.58" font-family="DejaVu Sans Mono" font-size="14.00">call</text>
</g>
<!-- input&#45;&gt;call -->
<!-- default -->
<g id="node45" class="node">
<title>default</title>
<polygon fill="#fffb81" stroke="black" points="1534.51,-1100.25 1460.76,-1100.25 1460.76,-1064.25 1534.51,-1064.25 1534.51,-1100.25"/>
<text text-anchor="middle" x="1497.64" y="-1077.58" font-family="DejaVu Sans Mono" font-size="14.00">default</text>
</g>
<!-- if -->
<g id="node46" class="node">
<title>if</title>
<polygon fill="#ff6752" stroke="black" points="1641.64,-1258.62 1609.4,-1240.62 1641.64,-1222.62 1673.88,-1240.62 1641.64,-1258.62"/>
<text text-anchor="middle" x="1641.64" y="-1235.95" font-family="DejaVu Sans Mono" font-size="14.00">if</text>
</g>
<!-- if&#45;&gt;input -->
<!-- for -->
<g id="node47" class="node">
<title>for</title>
<polygon fill="#ffbe52" stroke="black" points="1589.65,-1240.62 1573.14,-1258.62 1540.13,-1258.62 1523.63,-1240.62 1540.13,-1222.62 1573.14,-1222.62 1589.65,-1240.62"/>
<text text-anchor="middle" x="1556.64" y="-1235.95" font-family="DejaVu Sans Mono" font-size="14.00">for</text>
</g>
<!-- return -->
<g id="node50" class="node">
<title>return</title>
<polygon fill="#98fb98" stroke="black" points="1565,-1169.5 1457.84,-1169.5 1430.27,-1133.5 1537.44,-1133.5 1565,-1169.5"/>
<text text-anchor="middle" x="1497.64" y="-1146.83" font-family="DejaVu Sans Mono" font-size="14.00">return</text>
</g>
<!-- for&#45;&gt;return -->
<!-- while -->
<g id="node48" class="node">
<title>while</title>
<polygon fill="#ffbe52" stroke="black" points="1506.01,-1240.62 1482.82,-1258.62 1436.45,-1258.62 1413.27,-1240.62 1436.45,-1222.62 1482.82,-1222.62 1506.01,-1240.62"/>
<text text-anchor="middle" x="1459.64" y="-1235.95" font-family="DejaVu Sans Mono" font-size="14.00">while</text>
</g>
<!-- return&#45;&gt;default -->
<!-- try -->
<g id="node51" class="node">
<title>try</title>
<polygon fill="orange" stroke="black" points="1354.64,-1258.62 1314.21,-1240.62 1354.64,-1222.62 1395.06,-1240.62 1354.64,-1258.62"/>
<polyline fill="none" stroke="black" points="1325.17,-1245.51 1325.17,-1235.74"/>
<polyline fill="none" stroke="black" points="1343.68,-1227.51 1365.6,-1227.51"/>
<polyline fill="none" stroke="black" points="1384.1,-1235.74 1384.1,-1245.51"/>
<polyline fill="none" stroke="black" points="1365.6,-1253.74 1343.68,-1253.74"/>
<text text-anchor="middle" x="1354.64" y="-1235.95" font-family="DejaVu Sans Mono" font-size="14.00">try</text>
</g>
<!-- raise -->
<g id="node52" class="node">
<title>raise</title>
<polygon fill="#98fb98" stroke="black" points="1412.28,-1157.06 1362.64,-1169.5 1313,-1157.06 1313.04,-1136.94 1412.23,-1136.94 1412.28,-1157.06"/>
<text text-anchor="middle" x="1362.64" y="-1146.83" font-family="DejaVu Sans Mono" font-size="14.00">raise</text>
</g>
<!-- try&#45;&gt;raise -->
</g>
</svg>
