<?xml version="1.0" encoding="UTF-8" standalone="no"?>
<!DOCTYPE svg PUBLIC "-//W3C//DTD SVG 1.1//EN"
 "http://www.w3.org/Graphics/SVG/1.1/DTD/svg11.dtd">
<!-- Generated by graphviz version 9.0.0 (20230911.1827)
 -->
<!-- Title: cluster0branching04 Pages: 1 -->
<svg width="3107pt" height="1275pt"
 viewBox="0.00 0.00 3107.12 1275.25" xmlns="http://www.w3.org/2000/svg" xmlns:xlink="http://www.w3.org/1999/xlink">
<g id="graph0" class="graph" transform="scale(1 1) rotate(0) translate(4 1271.25)">
<title>cluster0branching04</title>
<polygon fill="white" stroke="none" points="-4,4 -4,-1271.25 3103.12,-1271.25 3103.12,4 -4,4"/>
<text text-anchor="middle" x="1549.56" y="-7.95" font-family="DejaVu Sans Mono" font-size="14.00">branching04</text>
<g id="clust1" class="cluster">
<title>cluster_1</title>
<polygon fill="purple" stroke="purple" points="2135.12,-976.25 2135.12,-1028.25 2359.12,-1028.25 2359.12,-976.25 2135.12,-976.25"/>
</g>
<g id="clust2" class="cluster">
<title>cluster_6</title>
<polygon fill="purple" stroke="purple" points="1981.12,-815.25 1981.12,-867.25 2130.12,-867.25 2130.12,-815.25 1981.12,-815.25"/>
</g>
<g id="clust3" class="cluster">
<title>cluster_13</title>
<polygon fill="purple" stroke="purple" points="2399.12,-619.75 2399.12,-671.75 2473.12,-671.75 2473.12,-619.75 2399.12,-619.75"/>
</g>
<g id="clust4" class="cluster">
<title>cluster_15</title>
<polygon fill="purple" stroke="purple" points="1659.12,-619.75 1659.12,-671.75 1808.12,-671.75 1808.12,-619.75 1659.12,-619.75"/>
</g>
<g id="clust5" class="cluster">
<title>cluster_19</title>
<polygon fill="purple" stroke="purple" points="2051.12,-424.25 2051.12,-476.25 2125.12,-476.25 2125.12,-424.25 2051.12,-424.25"/>
</g>
<g id="clust6" class="cluster">
<title>cluster_21</title>
<polygon fill="purple" stroke="purple" points="1364.12,-424.25 1364.12,-476.25 1513.12,-476.25 1513.12,-424.25 1364.12,-424.25"/>
</g>
<g id="clust7" class="cluster">
<title>cluster_25</title>
<polygon fill="purple" stroke="purple" points="989.12,-228.75 989.12,-280.75 1138.12,-280.75 1138.12,-228.75 989.12,-228.75"/>
</g>
<g id="clust8" class="cluster">
<title>cluster_32</title>
<polygon fill="purple" stroke="purple" points="866.12,-33.25 866.12,-85.25 940.12,-85.25 940.12,-33.25 866.12,-33.25"/>
</g>
<g id="clust9" class="cluster">
<title>cluster_34</title>
<polygon fill="purple" stroke="purple" points="1927.12,-33.25 1927.12,-85.25 2001.12,-85.25 2001.12,-33.25 1927.12,-33.25"/>
</g>
<g id="clust10" class="cluster">
<title>cluster_27</title>
<polygon fill="purple" stroke="purple" points="1836.12,-228.75 1836.12,-280.75 1910.12,-280.75 1910.12,-228.75 1836.12,-228.75"/>
</g>
<g id="clust11" class="cluster">
<title>cluster_8</title>
<polygon fill="purple" stroke="purple" points="2487.12,-815.25 2487.12,-867.25 2561.12,-867.25 2561.12,-815.25 2487.12,-815.25"/>
</g>
<g id="clust12" class="cluster">
<title>cluster_KEY</title>
<polygon fill="none" stroke="black" points="2687.12,-976.25 2687.12,-1259.25 3091.12,-1259.25 3091.12,-976.25 2687.12,-976.25"/>
<text text-anchor="middle" x="2889.12" y="-1241.95" font-family="DejaVu Sans Mono" font-size="14.00">KEY</text>
</g>
<!-- 1 -->
<g id="node1" class="node">
<title>1</title>
<polygon fill="#fffb81" stroke="black" points="2448.88,-1173 2119.38,-1173 2119.38,-1061.5 2448.88,-1061.5 2448.88,-1173"/>
<text text-anchor="middle" x="2284.12" y="-1155.7" font-family="DejaVu Sans Mono" font-size="14.00">print(&quot;Help! My computer do...&#39;t work!</text>
<text text-anchor="start" x="2127.38" y="-1138.45" font-family="DejaVu Sans Mono" font-size="14.00">&quot;)</text>
<text text-anchor="start" x="2127.38" y="-1121.2" font-family="DejaVu Sans Mono" font-size="14.00">print(</text>
<text text-anchor="start" x="2127.38" y="-1103.95" font-family="DejaVu Sans Mono" font-size="14.00"> &#160;&#160;&#160;&#39;Does the computer ma...&#39;</text>
<text text-anchor="start" x="2127.38" y="-1086.7" font-family="DejaVu Sans Mono" font-size="14.00"> &#160;&#160;&#160;)</text>
<text text-anchor="start" x="2127.38" y="-1069.45" font-family="DejaVu Sans Mono" font-size="14.00">choice: str = input()</text>
</g>
<!-- 2 -->
<g id="node2" class="node">
<title>2</title>
<polygon fill="#e552ff" stroke="#e552ff" points="2200.75,-1020.25 2155.5,-1020.25 2155.5,-1024.25 2143.5,-1024.25 2143.5,-984.25 2200.75,-984.25 2200.75,-1020.25"/>
<polyline fill="none" stroke="#e552ff" points="2143.5,-1020.25 2155.5,-1020.25"/>
<text text-anchor="middle" x="2172.12" y="-997.58" font-family="DejaVu Sans Mono" font-size="14.00">print</text>
</g>
<!-- 1&#45;&gt;2 -->
<g id="edge1" class="edge">
<title>1&#45;&gt;2</title>
<path fill="none" stroke="black" stroke-dasharray="5,2" d="M2213.24,-1061.13C2210.7,-1058.61 2208.23,-1056.06 2205.88,-1053.5 2199.38,-1046.43 2193.21,-1038 2187.98,-1030.08"/>
<polygon fill="black" stroke="black" points="2191.01,-1028.32 2182.7,-1021.75 2185.1,-1032.07 2191.01,-1028.32"/>
<text text-anchor="middle" x="2225.75" y="-1040.2" font-family="DejaVu Sans Mono" font-size="14.00">calls</text>
</g>
<!-- 3 -->
<g id="node3" class="node">
<title>3</title>
<polygon fill="#e552ff" stroke="#e552ff" points="2275.75,-1020.25 2230.5,-1020.25 2230.5,-1024.25 2218.5,-1024.25 2218.5,-984.25 2275.75,-984.25 2275.75,-1020.25"/>
<polyline fill="none" stroke="#e552ff" points="2218.5,-1020.25 2230.5,-1020.25"/>
<text text-anchor="middle" x="2247.12" y="-997.58" font-family="DejaVu Sans Mono" font-size="14.00">print</text>
</g>
<!-- 1&#45;&gt;3 -->
<g id="edge2" class="edge">
<title>1&#45;&gt;3</title>
<path fill="none" stroke="black" stroke-dasharray="5,2" d="M2258.4,-1061.11C2257.49,-1058.56 2256.65,-1056.01 2255.88,-1053.5 2253.78,-1046.67 2252.13,-1039.15 2250.87,-1032.05"/>
<polygon fill="black" stroke="black" points="2254.33,-1031.54 2249.31,-1022.21 2247.41,-1032.63 2254.33,-1031.54"/>
<text text-anchor="middle" x="2275.75" y="-1040.2" font-family="DejaVu Sans Mono" font-size="14.00">calls</text>
</g>
<!-- 4 -->
<g id="node4" class="node">
<title>4</title>
<polygon fill="#e552ff" stroke="#e552ff" points="2350.75,-1020.25 2305.5,-1020.25 2305.5,-1024.25 2293.5,-1024.25 2293.5,-984.25 2350.75,-984.25 2350.75,-1020.25"/>
<polyline fill="none" stroke="#e552ff" points="2293.5,-1020.25 2305.5,-1020.25"/>
<text text-anchor="middle" x="2322.12" y="-997.58" font-family="DejaVu Sans Mono" font-size="14.00">input</text>
</g>
<!-- 1&#45;&gt;4 -->
<g id="edge3" class="edge">
<title>1&#45;&gt;4</title>
<path fill="none" stroke="black" stroke-dasharray="5,2" d="M2302.68,-1061.07C2306.15,-1050.75 2309.64,-1040.37 2312.69,-1031.31"/>
<polygon fill="black" stroke="black" points="2315.92,-1032.68 2315.79,-1022.08 2309.29,-1030.44 2315.92,-1032.68"/>
<text text-anchor="middle" x="2330.75" y="-1040.2" font-family="DejaVu Sans Mono" font-size="14.00">calls</text>
</g>
<!-- 5 -->
<g id="node6" class="node">
<title>5</title>
<polygon fill="#ff6752" stroke="black" points="2524.12,-1020.25 2369.12,-1002.25 2524.12,-984.25 2679.13,-1002.25 2524.12,-1020.25"/>
<text text-anchor="start" x="2421.64" y="-997.58" font-family="DejaVu Sans Mono" font-size="14.00">if choice == &#39;n&#39;:</text>
</g>
<!-- 1&#45;&gt;5 -->
<g id="edge37" class="edge">
<title>1&#45;&gt;5</title>
<path fill="none" stroke="black" d="M2401.31,-1061.07C2431.1,-1047.05 2461.12,-1032.91 2484.03,-1022.13"/>
<polygon fill="black" stroke="black" points="2485.42,-1025.34 2492.97,-1017.92 2482.43,-1019.01 2485.42,-1025.34"/>
</g>
<!-- 1_input -->
<g id="node5" class="node">
<title>1_input</title>
<polygon fill="#afeeee" stroke="black" points="2343.01,-1226 2249.34,-1226 2225.24,-1190 2318.91,-1190 2343.01,-1226"/>
<text text-anchor="middle" x="2284.12" y="-1203.33" font-family="DejaVu Sans Mono" font-size="14.00">input</text>
</g>
<!-- 1_input&#45;&gt;1 -->
<g id="edge4" class="edge">
<title>1_input&#45;&gt;1</title>
<path fill="none" stroke="black" d="M2284.12,-1189.89C2284.12,-1188.27 2284.12,-1186.57 2284.12,-1184.81"/>
<polygon fill="black" stroke="black" points="2287.63,-1184.85 2284.13,-1174.85 2280.63,-1184.85 2287.63,-1184.85"/>
</g>
<!-- 6 -->
<g id="node7" class="node">
<title>6</title>
<polygon fill="#fffb81" stroke="black" points="2233.12,-943 1953.12,-943 1953.12,-900.5 2233.12,-900.5 2233.12,-943"/>
<text text-anchor="start" x="1961.12" y="-925.7" font-family="DejaVu Sans Mono" font-size="14.00">print(&#39;Is it plugged in? (y...&#39;)</text>
<text text-anchor="start" x="1961.12" y="-908.45" font-family="DejaVu Sans Mono" font-size="14.00">choice = input()</text>
</g>
<!-- 5&#45;&gt;6 -->
<g id="edge34" class="edge">
<title>5&#45;&gt;6</title>
<path fill="none" stroke="green" d="M2465.55,-990.58C2402.22,-979.05 2299.4,-960.32 2217.83,-945.46"/>
<polygon fill="green" stroke="green" points="2218.93,-942.11 2208.46,-943.76 2217.67,-948.99 2218.93,-942.11"/>
<text text-anchor="middle" x="2387.75" y="-954.95" font-family="DejaVu Sans Mono" font-size="14.00">choice == &#39;n&#39;</text>
</g>
<!-- 8 -->
<g id="node37" class="node">
<title>8</title>
<polygon fill="#fffb81" stroke="black" points="2664.12,-939.75 2384.12,-939.75 2384.12,-903.75 2664.12,-903.75 2664.12,-939.75"/>
<text text-anchor="start" x="2392.12" y="-917.08" font-family="DejaVu Sans Mono" font-size="14.00">print(&#39;Please consult a ser...&#39;)</text>
</g>
<!-- 5&#45;&gt;8 -->
<g id="edge36" class="edge">
<title>5&#45;&gt;8</title>
<path fill="none" stroke="red" d="M2524.12,-983.83C2524.12,-974.27 2524.12,-962.19 2524.12,-951.3"/>
<polygon fill="red" stroke="red" points="2527.63,-951.64 2524.13,-941.64 2520.63,-951.64 2527.63,-951.64"/>
<text text-anchor="middle" x="2586" y="-954.95" font-family="DejaVu Sans Mono" font-size="14.00">(choice != &#39;n&#39;)</text>
</g>
<!-- 10 -->
<g id="node8" class="node">
<title>10</title>
<polygon fill="#e552ff" stroke="#e552ff" points="2046.75,-859.25 2001.5,-859.25 2001.5,-863.25 1989.5,-863.25 1989.5,-823.25 2046.75,-823.25 2046.75,-859.25"/>
<polyline fill="none" stroke="#e552ff" points="1989.5,-859.25 2001.5,-859.25"/>
<text text-anchor="middle" x="2018.12" y="-836.58" font-family="DejaVu Sans Mono" font-size="14.00">print</text>
</g>
<!-- 6&#45;&gt;10 -->
<g id="edge5" class="edge">
<title>6&#45;&gt;10</title>
<path fill="none" stroke="black" stroke-dasharray="5,2" d="M2056.37,-900.01C2053.35,-897.66 2050.46,-895.15 2047.88,-892.5 2041.37,-885.84 2035.71,-877.5 2031.12,-869.54"/>
<polygon fill="black" stroke="black" points="2034.24,-867.96 2026.44,-860.79 2028.07,-871.26 2034.24,-867.96"/>
<text text-anchor="middle" x="2067.75" y="-879.2" font-family="DejaVu Sans Mono" font-size="14.00">calls</text>
</g>
<!-- 11 -->
<g id="node9" class="node">
<title>11</title>
<polygon fill="#e552ff" stroke="#e552ff" points="2121.75,-859.25 2076.5,-859.25 2076.5,-863.25 2064.5,-863.25 2064.5,-823.25 2121.75,-823.25 2121.75,-859.25"/>
<polyline fill="none" stroke="#e552ff" points="2064.5,-859.25 2076.5,-859.25"/>
<text text-anchor="middle" x="2093.12" y="-836.58" font-family="DejaVu Sans Mono" font-size="14.00">input</text>
</g>
<!-- 6&#45;&gt;11 -->
<g id="edge6" class="edge">
<title>6&#45;&gt;11</title>
<path fill="none" stroke="black" stroke-dasharray="5,2" d="M2093.12,-900.13C2093.12,-891.15 2093.12,-880.48 2093.12,-870.76"/>
<polygon fill="black" stroke="black" points="2096.63,-871.07 2093.13,-861.07 2089.63,-871.07 2096.63,-871.07"/>
<text text-anchor="middle" x="2113.75" y="-879.2" font-family="DejaVu Sans Mono" font-size="14.00">calls</text>
</g>
<!-- 12 -->
<g id="node11" class="node">
<title>12</title>
<polygon fill="#ff6752" stroke="black" points="2295.12,-859.25 2140.12,-841.25 2295.12,-823.25 2450.13,-841.25 2295.12,-859.25"/>
<text text-anchor="start" x="2192.64" y="-836.58" font-family="DejaVu Sans Mono" font-size="14.00">if choice == &#39;n&#39;:</text>
</g>
<!-- 6&#45;&gt;12 -->
<g id="edge33" class="edge">
<title>6&#45;&gt;12</title>
<path fill="none" stroke="black" d="M2146.46,-900.02C2178.77,-887.47 2219.52,-871.63 2250.19,-859.71"/>
<polygon fill="black" stroke="black" points="2251.12,-863.11 2259.17,-856.22 2248.58,-856.58 2251.12,-863.11"/>
</g>
<!-- 6_input -->
<g id="node10" class="node">
<title>6_input</title>
<polygon fill="#afeeee" stroke="black" points="2125.01,-1020.25 2031.34,-1020.25 2007.24,-984.25 2100.91,-984.25 2125.01,-1020.25"/>
<text text-anchor="middle" x="2066.12" y="-997.58" font-family="DejaVu Sans Mono" font-size="14.00">input</text>
</g>
<!-- 6_input&#45;&gt;6 -->
<g id="edge7" class="edge">
<title>6_input&#45;&gt;6</title>
<path fill="none" stroke="black" d="M2072.12,-983.83C2075.13,-975.07 2078.87,-964.19 2082.36,-954.05"/>
<polygon fill="black" stroke="black" points="2085.57,-955.49 2085.51,-944.9 2078.95,-953.21 2085.57,-955.49"/>
</g>
<!-- 13 -->
<g id="node12" class="node">
<title>13</title>
<polygon fill="#fffb81" stroke="black" points="2856.62,-782 2015.62,-782 2015.62,-705 2856.62,-705 2856.62,-782"/>
<text text-anchor="start" x="2023.62" y="-764.7" font-family="DejaVu Sans Mono" font-size="14.00">print(</text>
<text text-anchor="start" x="2023.62" y="-747.45" font-family="DejaVu Sans Mono" font-size="14.00"> &#160;&#160;&#160;&quot;&quot;&quot;Plug it in. &#160;&#160;&#160;&#160;&#160;&#160;&#160;&#160;&#160;&#160;&#160;&#160;&#160;If the problem persists, &#160;&#160;&#160;&#160;&#160;&#160;&#160;&#160;&#160;&#160;&#160;&#160;&#160;please run this program again.</text>
<text text-anchor="start" x="2023.62" y="-730.2" font-family="DejaVu Sans Mono" font-size="14.00">&quot;&quot;&quot;</text>
<text text-anchor="start" x="2023.62" y="-712.95" font-family="DejaVu Sans Mono" font-size="14.00"> &#160;&#160;&#160;)</text>
</g>
<!-- 12&#45;&gt;13 -->
<g id="edge9" class="edge">
<title>12&#45;&gt;13</title>
<path fill="none" stroke="green" d="M2316.85,-825.5C2331.39,-815.63 2351.35,-802.07 2370.79,-788.87"/>
<polygon fill="green" stroke="green" points="2372.71,-791.8 2379.02,-783.28 2368.78,-786 2372.71,-791.8"/>
<text text-anchor="middle" x="2418.75" y="-793.95" font-family="DejaVu Sans Mono" font-size="14.00">choice == &#39;n&#39;</text>
</g>
<!-- 15 -->
<g id="node14" class="node">
<title>15</title>
<polygon fill="#fffb81" stroke="black" points="1997.75,-764.75 1544.5,-764.75 1544.5,-722.25 1997.75,-722.25 1997.75,-764.75"/>
<text text-anchor="start" x="1552.5" y="-747.45" font-family="DejaVu Sans Mono" font-size="14.00">print(&#39;Is the switch in the...&quot;on&quot; position? (y/n):&#39;)</text>
<text text-anchor="start" x="1552.5" y="-730.2" font-family="DejaVu Sans Mono" font-size="14.00">choice = input()</text>
</g>
<!-- 12&#45;&gt;15 -->
<g id="edge32" class="edge">
<title>12&#45;&gt;15</title>
<path fill="none" stroke="red" d="M2236.79,-829.59C2154.86,-814.62 2003.66,-786.99 1895.78,-767.28"/>
<polygon fill="red" stroke="red" points="1896.45,-763.84 1885.98,-765.49 1895.19,-770.73 1896.45,-763.84"/>
<text text-anchor="middle" x="2172" y="-793.95" font-family="DejaVu Sans Mono" font-size="14.00">(choice != &#39;n&#39;)</text>
</g>
<!-- 38 -->
<g id="node13" class="node">
<title>38</title>
<polygon fill="#e552ff" stroke="#e552ff" points="2464.75,-663.75 2419.5,-663.75 2419.5,-667.75 2407.5,-667.75 2407.5,-627.75 2464.75,-627.75 2464.75,-663.75"/>
<polyline fill="none" stroke="#e552ff" points="2407.5,-663.75 2419.5,-663.75"/>
<text text-anchor="middle" x="2436.12" y="-641.08" font-family="DejaVu Sans Mono" font-size="14.00">print</text>
</g>
<!-- 13&#45;&gt;38 -->
<g id="edge8" class="edge">
<title>13&#45;&gt;38</title>
<path fill="none" stroke="black" stroke-dasharray="5,2" d="M2436.12,-704.66C2436.12,-694.92 2436.12,-684.6 2436.12,-675.41"/>
<polygon fill="black" stroke="black" points="2439.63,-675.64 2436.13,-665.64 2432.63,-675.64 2439.63,-675.64"/>
<text text-anchor="middle" x="2456.75" y="-683.7" font-family="DejaVu Sans Mono" font-size="14.00">calls</text>
</g>
<!-- 16 -->
<g id="node15" class="node">
<title>16</title>
<polygon fill="#e552ff" stroke="#e552ff" points="1724.75,-663.75 1679.5,-663.75 1679.5,-667.75 1667.5,-667.75 1667.5,-627.75 1724.75,-627.75 1724.75,-663.75"/>
<polyline fill="none" stroke="#e552ff" points="1667.5,-663.75 1679.5,-663.75"/>
<text text-anchor="middle" x="1696.12" y="-641.08" font-family="DejaVu Sans Mono" font-size="14.00">print</text>
</g>
<!-- 15&#45;&gt;16 -->
<g id="edge10" class="edge">
<title>15&#45;&gt;16</title>
<path fill="none" stroke="black" stroke-dasharray="5,2" d="M1748.33,-721.77C1740.75,-714.33 1732.56,-705.63 1725.88,-697 1720.41,-689.94 1715.19,-681.8 1710.69,-674.15"/>
<polygon fill="black" stroke="black" points="1713.76,-672.47 1705.79,-665.49 1707.67,-675.92 1713.76,-672.47"/>
<text text-anchor="middle" x="1746.75" y="-683.7" font-family="DejaVu Sans Mono" font-size="14.00">calls</text>
</g>
<!-- 17 -->
<g id="node16" class="node">
<title>17</title>
<polygon fill="#e552ff" stroke="#e552ff" points="1799.75,-663.75 1754.5,-663.75 1754.5,-667.75 1742.5,-667.75 1742.5,-627.75 1799.75,-627.75 1799.75,-663.75"/>
<polyline fill="none" stroke="#e552ff" points="1742.5,-663.75 1754.5,-663.75"/>
<text text-anchor="middle" x="1771.12" y="-641.08" font-family="DejaVu Sans Mono" font-size="14.00">input</text>
</g>
<!-- 15&#45;&gt;17 -->
<g id="edge11" class="edge">
<title>15&#45;&gt;17</title>
<path fill="none" stroke="black" stroke-dasharray="5,2" d="M1771.12,-722.19C1771.12,-708.59 1771.12,-690.49 1771.12,-675.42"/>
<polygon fill="black" stroke="black" points="1774.63,-675.65 1771.13,-665.65 1767.63,-675.65 1774.63,-675.65"/>
<text text-anchor="middle" x="1791.75" y="-683.7" font-family="DejaVu Sans Mono" font-size="14.00">calls</text>
</g>
<!-- 18 -->
<g id="node18" class="node">
<title>18</title>
<polygon fill="#ff6752" stroke="black" points="1973.12,-663.75 1818.12,-645.75 1973.12,-627.75 2128.13,-645.75 1973.12,-663.75"/>
<text text-anchor="start" x="1870.64" y="-641.08" font-family="DejaVu Sans Mono" font-size="14.00">if choice == &#39;n&#39;:</text>
</g>
<!-- 15&#45;&gt;18 -->
<g id="edge31" class="edge">
<title>15&#45;&gt;18</title>
<path fill="none" stroke="black" d="M1814.46,-721.96C1849.76,-705.23 1899.19,-681.8 1933.46,-665.55"/>
<polygon fill="black" stroke="black" points="1934.67,-668.85 1942.21,-661.4 1931.67,-662.53 1934.67,-668.85"/>
</g>
<!-- 15_input -->
<g id="node17" class="node">
<title>15_input</title>
<polygon fill="#afeeee" stroke="black" points="1830.01,-859.25 1736.34,-859.25 1712.24,-823.25 1805.91,-823.25 1830.01,-859.25"/>
<text text-anchor="middle" x="1771.12" y="-836.58" font-family="DejaVu Sans Mono" font-size="14.00">input</text>
</g>
<!-- 15_input&#45;&gt;15 -->
<g id="edge12" class="edge">
<title>15_input&#45;&gt;15</title>
<path fill="none" stroke="black" d="M1771.12,-823.13C1771.12,-810.19 1771.12,-792.04 1771.12,-776.44"/>
<polygon fill="black" stroke="black" points="1774.63,-776.65 1771.13,-766.65 1767.63,-776.65 1774.63,-776.65"/>
</g>
<!-- 19 -->
<g id="node19" class="node">
<title>19</title>
<polygon fill="#fffb81" stroke="black" points="2541.62,-586.5 1634.62,-586.5 1634.62,-509.5 2541.62,-509.5 2541.62,-586.5"/>
<text text-anchor="start" x="1642.62" y="-569.2" font-family="DejaVu Sans Mono" font-size="14.00">print(</text>
<text text-anchor="start" x="1642.62" y="-551.95" font-family="DejaVu Sans Mono" font-size="14.00"> &#160;&#160;&#160;&quot;&quot;&quot;Turn it on. &#160;&#160;&#160;&#160;&#160;&#160;&#160;&#160;&#160;&#160;&#160;&#160;&#160;&#160;&#160;&#160;&#160;If the problem persists, &#160;&#160;&#160;&#160;&#160;&#160;&#160;&#160;&#160;&#160;&#160;&#160;&#160;&#160;&#160;&#160;&#160;please run this program again.</text>
<text text-anchor="start" x="1642.62" y="-534.7" font-family="DejaVu Sans Mono" font-size="14.00">&quot;&quot;&quot;</text>
<text text-anchor="start" x="1642.62" y="-517.45" font-family="DejaVu Sans Mono" font-size="14.00"> &#160;&#160;&#160;)</text>
</g>
<!-- 18&#45;&gt;19 -->
<g id="edge14" class="edge">
<title>18&#45;&gt;19</title>
<path fill="none" stroke="green" d="M1991.35,-629.58C2003,-619.88 2018.77,-606.75 2034.19,-593.9"/>
<polygon fill="green" stroke="green" points="2036.09,-596.88 2041.54,-587.79 2031.61,-591.5 2036.09,-596.88"/>
<text text-anchor="middle" x="2083.75" y="-598.45" font-family="DejaVu Sans Mono" font-size="14.00">choice == &#39;n&#39;</text>
</g>
<!-- 21 -->
<g id="node21" class="node">
<title>21</title>
<polygon fill="#fffb81" stroke="black" points="1616.12,-569.25 1336.12,-569.25 1336.12,-526.75 1616.12,-526.75 1616.12,-569.25"/>
<text text-anchor="start" x="1344.12" y="-551.95" font-family="DejaVu Sans Mono" font-size="14.00">print(&#39;Does the computer ha...&#39;)</text>
<text text-anchor="start" x="1344.12" y="-534.7" font-family="DejaVu Sans Mono" font-size="14.00">choice = input()</text>
</g>
<!-- 18&#45;&gt;21 -->
<g id="edge30" class="edge">
<title>18&#45;&gt;21</title>
<path fill="none" stroke="red" d="M1909.32,-634.7C1824.23,-621.2 1678.19,-597.6 1625.12,-586.5 1605.3,-582.35 1584.12,-577.37 1564.14,-572.4"/>
<polygon fill="red" stroke="red" points="1565.2,-569.06 1554.65,-570.02 1563.5,-575.85 1565.2,-569.06"/>
<text text-anchor="middle" x="1824" y="-598.45" font-family="DejaVu Sans Mono" font-size="14.00">(choice != &#39;n&#39;)</text>
</g>
<!-- 37 -->
<g id="node20" class="node">
<title>37</title>
<polygon fill="#e552ff" stroke="#e552ff" points="2116.75,-468.25 2071.5,-468.25 2071.5,-472.25 2059.5,-472.25 2059.5,-432.25 2116.75,-432.25 2116.75,-468.25"/>
<polyline fill="none" stroke="#e552ff" points="2059.5,-468.25 2071.5,-468.25"/>
<text text-anchor="middle" x="2088.12" y="-445.57" font-family="DejaVu Sans Mono" font-size="14.00">print</text>
</g>
<!-- 19&#45;&gt;37 -->
<g id="edge13" class="edge">
<title>19&#45;&gt;37</title>
<path fill="none" stroke="black" stroke-dasharray="5,2" d="M2088.12,-509.16C2088.12,-499.42 2088.12,-489.1 2088.12,-479.91"/>
<polygon fill="black" stroke="black" points="2091.63,-480.14 2088.13,-470.14 2084.63,-480.14 2091.63,-480.14"/>
<text text-anchor="middle" x="2108.75" y="-488.2" font-family="DejaVu Sans Mono" font-size="14.00">calls</text>
</g>
<!-- 22 -->
<g id="node22" class="node">
<title>22</title>
<polygon fill="#e552ff" stroke="#e552ff" points="1429.75,-468.25 1384.5,-468.25 1384.5,-472.25 1372.5,-472.25 1372.5,-432.25 1429.75,-432.25 1429.75,-468.25"/>
<polyline fill="none" stroke="#e552ff" points="1372.5,-468.25 1384.5,-468.25"/>
<text text-anchor="middle" x="1401.12" y="-445.57" font-family="DejaVu Sans Mono" font-size="14.00">print</text>
</g>
<!-- 21&#45;&gt;22 -->
<g id="edge15" class="edge">
<title>21&#45;&gt;22</title>
<path fill="none" stroke="black" stroke-dasharray="5,2" d="M1453.33,-526.27C1445.75,-518.83 1437.56,-510.13 1430.88,-501.5 1425.41,-494.44 1420.19,-486.3 1415.69,-478.65"/>
<polygon fill="black" stroke="black" points="1418.76,-476.97 1410.79,-469.99 1412.67,-480.42 1418.76,-476.97"/>
<text text-anchor="middle" x="1451.75" y="-488.2" font-family="DejaVu Sans Mono" font-size="14.00">calls</text>
</g>
<!-- 23 -->
<g id="node23" class="node">
<title>23</title>
<polygon fill="#e552ff" stroke="#e552ff" points="1504.75,-468.25 1459.5,-468.25 1459.5,-472.25 1447.5,-472.25 1447.5,-432.25 1504.75,-432.25 1504.75,-468.25"/>
<polyline fill="none" stroke="#e552ff" points="1447.5,-468.25 1459.5,-468.25"/>
<text text-anchor="middle" x="1476.12" y="-445.57" font-family="DejaVu Sans Mono" font-size="14.00">input</text>
</g>
<!-- 21&#45;&gt;23 -->
<g id="edge16" class="edge">
<title>21&#45;&gt;23</title>
<path fill="none" stroke="black" stroke-dasharray="5,2" d="M1476.12,-526.69C1476.12,-513.09 1476.12,-494.99 1476.12,-479.92"/>
<polygon fill="black" stroke="black" points="1479.63,-480.15 1476.13,-470.15 1472.63,-480.15 1479.63,-480.15"/>
<text text-anchor="middle" x="1496.75" y="-488.2" font-family="DejaVu Sans Mono" font-size="14.00">calls</text>
</g>
<!-- 24 -->
<g id="node25" class="node">
<title>24</title>
<polygon fill="#ff6752" stroke="black" points="1678.12,-468.25 1523.12,-450.25 1678.12,-432.25 1833.13,-450.25 1678.12,-468.25"/>
<text text-anchor="start" x="1575.64" y="-445.57" font-family="DejaVu Sans Mono" font-size="14.00">if choice == &#39;n&#39;:</text>
</g>
<!-- 21&#45;&gt;24 -->
<g id="edge29" class="edge">
<title>21&#45;&gt;24</title>
<path fill="none" stroke="black" d="M1519.46,-526.46C1554.76,-509.73 1604.19,-486.3 1638.46,-470.05"/>
<polygon fill="black" stroke="black" points="1639.67,-473.35 1647.21,-465.9 1636.67,-467.03 1639.67,-473.35"/>
</g>
<!-- 21_input -->
<g id="node24" class="node">
<title>21_input</title>
<polygon fill="#afeeee" stroke="black" points="1535.01,-663.75 1441.34,-663.75 1417.24,-627.75 1510.91,-627.75 1535.01,-663.75"/>
<text text-anchor="middle" x="1476.12" y="-641.08" font-family="DejaVu Sans Mono" font-size="14.00">input</text>
</g>
<!-- 21_input&#45;&gt;21 -->
<g id="edge17" class="edge">
<title>21_input&#45;&gt;21</title>
<path fill="none" stroke="black" d="M1476.12,-627.63C1476.12,-614.69 1476.12,-596.54 1476.12,-580.94"/>
<polygon fill="black" stroke="black" points="1479.63,-581.15 1476.13,-571.15 1472.63,-581.15 1479.63,-581.15"/>
</g>
<!-- 25 -->
<g id="node26" class="node">
<title>25</title>
<polygon fill="#fffb81" stroke="black" points="1241.12,-373.75 961.12,-373.75 961.12,-331.25 1241.12,-331.25 1241.12,-373.75"/>
<text text-anchor="start" x="969.12" y="-356.45" font-family="DejaVu Sans Mono" font-size="14.00">print(&#39;Is the outlet OK? (y...&#39;)</text>
<text text-anchor="start" x="969.12" y="-339.2" font-family="DejaVu Sans Mono" font-size="14.00">choice = input()</text>
</g>
<!-- 24&#45;&gt;25 -->
<g id="edge26" class="edge">
<title>24&#45;&gt;25</title>
<path fill="none" stroke="green" d="M1615.49,-439.08C1585.72,-434.35 1549.62,-428.8 1517.12,-424.25 1398.69,-407.68 1367.66,-413.02 1250.12,-391 1229.46,-387.13 1207.39,-382.08 1186.74,-376.96"/>
<polygon fill="green" stroke="green" points="1187.78,-373.61 1177.23,-374.56 1186.07,-380.4 1187.78,-373.61"/>
<text text-anchor="middle" x="1503.75" y="-402.95" font-family="DejaVu Sans Mono" font-size="14.00">choice == &#39;n&#39;</text>
</g>
<!-- 27 -->
<g id="node35" class="node">
<title>27</title>
<polygon fill="#fffb81" stroke="black" points="2487.5,-391 1258.75,-391 1258.75,-314 2487.5,-314 2487.5,-391"/>
<text text-anchor="start" x="1266.75" y="-373.7" font-family="DejaVu Sans Mono" font-size="14.00">print(</text>
<text text-anchor="start" x="1266.75" y="-356.45" font-family="DejaVu Sans Mono" font-size="14.00"> &#160;&#160;&#160;&quot;&quot;&quot;Check the fuse. Replace if necessary. &#160;&#160;&#160;&#160;&#160;&#160;&#160;&#160;&#160;&#160;&#160;&#160;&#160;&#160;&#160;&#160;&#160;&#160;&#160;&#160;&#160;If the problem persists, &#160;&#160;&#160;&#160;&#160;&#160;&#160;&#160;&#160;&#160;&#160;&#160;&#160;&#160;&#160;&#160;&#160;&#160;&#160;&#160;&#160;then please run this program again.</text>
<text text-anchor="start" x="1266.75" y="-339.2" font-family="DejaVu Sans Mono" font-size="14.00">&quot;&quot;&quot;</text>
<text text-anchor="start" x="1266.75" y="-321.95" font-family="DejaVu Sans Mono" font-size="14.00"> &#160;&#160;&#160;)</text>
</g>
<!-- 24&#45;&gt;27 -->
<g id="edge28" class="edge">
<title>24&#45;&gt;27</title>
<path fill="none" stroke="red" d="M1706.9,-435.12C1727.84,-424.84 1757.39,-410.33 1785.78,-396.39"/>
<polygon fill="red" stroke="red" points="1786.97,-399.7 1794.4,-392.15 1783.89,-393.42 1786.97,-399.7"/>
<text text-anchor="middle" x="1838" y="-402.95" font-family="DejaVu Sans Mono" font-size="14.00">(choice != &#39;n&#39;)</text>
</g>
<!-- 29 -->
<g id="node27" class="node">
<title>29</title>
<polygon fill="#e552ff" stroke="#e552ff" points="1054.75,-272.75 1009.5,-272.75 1009.5,-276.75 997.5,-276.75 997.5,-236.75 1054.75,-236.75 1054.75,-272.75"/>
<polyline fill="none" stroke="#e552ff" points="997.5,-272.75 1009.5,-272.75"/>
<text text-anchor="middle" x="1026.12" y="-250.07" font-family="DejaVu Sans Mono" font-size="14.00">print</text>
</g>
<!-- 25&#45;&gt;29 -->
<g id="edge18" class="edge">
<title>25&#45;&gt;29</title>
<path fill="none" stroke="black" stroke-dasharray="5,2" d="M1078.33,-330.77C1070.75,-323.33 1062.56,-314.63 1055.88,-306 1050.41,-298.94 1045.19,-290.8 1040.69,-283.15"/>
<polygon fill="black" stroke="black" points="1043.76,-281.47 1035.79,-274.49 1037.67,-284.92 1043.76,-281.47"/>
<text text-anchor="middle" x="1076.75" y="-292.7" font-family="DejaVu Sans Mono" font-size="14.00">calls</text>
</g>
<!-- 30 -->
<g id="node28" class="node">
<title>30</title>
<polygon fill="#e552ff" stroke="#e552ff" points="1129.75,-272.75 1084.5,-272.75 1084.5,-276.75 1072.5,-276.75 1072.5,-236.75 1129.75,-236.75 1129.75,-272.75"/>
<polyline fill="none" stroke="#e552ff" points="1072.5,-272.75 1084.5,-272.75"/>
<text text-anchor="middle" x="1101.12" y="-250.07" font-family="DejaVu Sans Mono" font-size="14.00">input</text>
</g>
<!-- 25&#45;&gt;30 -->
<g id="edge19" class="edge">
<title>25&#45;&gt;30</title>
<path fill="none" stroke="black" stroke-dasharray="5,2" d="M1101.12,-331.19C1101.12,-317.59 1101.12,-299.49 1101.12,-284.42"/>
<polygon fill="black" stroke="black" points="1104.63,-284.65 1101.13,-274.65 1097.63,-284.65 1104.63,-284.65"/>
<text text-anchor="middle" x="1121.75" y="-292.7" font-family="DejaVu Sans Mono" font-size="14.00">calls</text>
</g>
<!-- 31 -->
<g id="node30" class="node">
<title>31</title>
<polygon fill="#ff6752" stroke="black" points="1303.12,-272.75 1148.12,-254.75 1303.12,-236.75 1458.13,-254.75 1303.12,-272.75"/>
<text text-anchor="start" x="1200.64" y="-250.07" font-family="DejaVu Sans Mono" font-size="14.00">if choice == &#39;n&#39;:</text>
</g>
<!-- 25&#45;&gt;31 -->
<g id="edge25" class="edge">
<title>25&#45;&gt;31</title>
<path fill="none" stroke="black" d="M1144.46,-330.96C1179.76,-314.23 1229.19,-290.8 1263.46,-274.55"/>
<polygon fill="black" stroke="black" points="1264.67,-277.85 1272.21,-270.4 1261.67,-271.53 1264.67,-277.85"/>
</g>
<!-- 25_input -->
<g id="node29" class="node">
<title>25_input</title>
<polygon fill="#afeeee" stroke="black" points="1160.01,-468.25 1066.34,-468.25 1042.24,-432.25 1135.91,-432.25 1160.01,-468.25"/>
<text text-anchor="middle" x="1101.12" y="-445.57" font-family="DejaVu Sans Mono" font-size="14.00">input</text>
</g>
<!-- 25_input&#45;&gt;25 -->
<g id="edge20" class="edge">
<title>25_input&#45;&gt;25</title>
<path fill="none" stroke="black" d="M1101.12,-432.13C1101.12,-419.19 1101.12,-401.04 1101.12,-385.44"/>
<polygon fill="black" stroke="black" points="1104.63,-385.65 1101.13,-375.65 1097.63,-385.65 1104.63,-385.65"/>
</g>
<!-- 32 -->
<g id="node31" class="node">
<title>32</title>
<polygon fill="#fffb81" stroke="black" points="1806.25,-195.5 0,-195.5 0,-118.5 1806.25,-118.5 1806.25,-195.5"/>
<text text-anchor="start" x="8" y="-178.2" font-family="DejaVu Sans Mono" font-size="14.00">print(</text>
<text text-anchor="start" x="8" y="-160.95" font-family="DejaVu Sans Mono" font-size="14.00"> &#160;&#160;&#160;&quot;&quot;&quot;Check the outlet&#39;s circuit breaker or fuse. &#160;&#160;&#160;&#160;&#160;&#160;&#160;&#160;&#160;&#160;&#160;&#160;&#160;&#160;&#160;&#160;&#160;&#160;&#160;&#160;&#160;&#160;&#160;&#160;&#160;Move to a new outlet, if necessary. &#160;&#160;&#160;&#160;&#160;&#160;&#160;&#160;&#160;&#160;&#160;&#160;&#160;&#160;&#160;&#160;&#160;&#160;&#160;&#160;&#160;&#160;&#160;&#160;&#160;If the problem persists, &#160;&#160;&#160;&#160;&#160;&#160;&#160;&#160;&#160;&#160;&#160;&#160;&#160;&#160;&#160;&#160;&#160;&#160;&#160;&#160;&#160;&#160;&#160;&#160;&#160;please run this program again.</text>
<text text-anchor="start" x="8" y="-143.7" font-family="DejaVu Sans Mono" font-size="14.00">&quot;&quot;&quot;</text>
<text text-anchor="start" x="8" y="-126.45" font-family="DejaVu Sans Mono" font-size="14.00"> &#160;&#160;&#160;)</text>
</g>
<!-- 31&#45;&gt;32 -->
<g id="edge22" class="edge">
<title>31&#45;&gt;32</title>
<path fill="none" stroke="green" d="M1254.08,-242.01C1208.63,-231.13 1138.31,-214.3 1072.52,-198.55"/>
<polygon fill="green" stroke="green" points="1073.59,-195.21 1063.05,-196.28 1071.96,-202.01 1073.59,-195.21"/>
<text text-anchor="middle" x="1216.75" y="-207.45" font-family="DejaVu Sans Mono" font-size="14.00">choice == &#39;n&#39;</text>
</g>
<!-- 34 -->
<g id="node33" class="node">
<title>34</title>
<polygon fill="#fffb81" stroke="black" points="2104.12,-175 1824.12,-175 1824.12,-139 2104.12,-139 2104.12,-175"/>
<text text-anchor="start" x="1832.12" y="-152.32" font-family="DejaVu Sans Mono" font-size="14.00">print(&#39;Please consult a ser...&#39;)</text>
</g>
<!-- 31&#45;&gt;34 -->
<g id="edge24" class="edge">
<title>31&#45;&gt;34</title>
<path fill="none" stroke="red" d="M1395.23,-246.99C1498.15,-238.58 1669.45,-222 1815.12,-195.5 1840.27,-190.93 1867.47,-184.52 1891.66,-178.3"/>
<polygon fill="red" stroke="red" points="1892.29,-181.75 1901.08,-175.84 1890.52,-174.98 1892.29,-181.75"/>
<text text-anchor="middle" x="1822" y="-207.45" font-family="DejaVu Sans Mono" font-size="14.00">(choice != &#39;n&#39;)</text>
</g>
<!-- 36 -->
<g id="node32" class="node">
<title>36</title>
<polygon fill="#e552ff" stroke="#e552ff" points="931.75,-77.25 886.5,-77.25 886.5,-81.25 874.5,-81.25 874.5,-41.25 931.75,-41.25 931.75,-77.25"/>
<polyline fill="none" stroke="#e552ff" points="874.5,-77.25 886.5,-77.25"/>
<text text-anchor="middle" x="903.12" y="-54.58" font-family="DejaVu Sans Mono" font-size="14.00">print</text>
</g>
<!-- 32&#45;&gt;36 -->
<g id="edge21" class="edge">
<title>32&#45;&gt;36</title>
<path fill="none" stroke="black" stroke-dasharray="5,2" d="M903.12,-118.16C903.12,-108.42 903.12,-98.1 903.12,-88.91"/>
<polygon fill="black" stroke="black" points="906.63,-89.14 903.13,-79.14 899.63,-89.14 906.63,-89.14"/>
<text text-anchor="middle" x="923.75" y="-97.2" font-family="DejaVu Sans Mono" font-size="14.00">calls</text>
</g>
<!-- 35 -->
<g id="node34" class="node">
<title>35</title>
<polygon fill="#e552ff" stroke="#e552ff" points="1992.75,-77.25 1947.5,-77.25 1947.5,-81.25 1935.5,-81.25 1935.5,-41.25 1992.75,-41.25 1992.75,-77.25"/>
<polyline fill="none" stroke="#e552ff" points="1935.5,-77.25 1947.5,-77.25"/>
<text text-anchor="middle" x="1964.12" y="-54.58" font-family="DejaVu Sans Mono" font-size="14.00">print</text>
</g>
<!-- 34&#45;&gt;35 -->
<g id="edge23" class="edge">
<title>34&#45;&gt;35</title>
<path fill="none" stroke="black" stroke-dasharray="5,2" d="M1964.12,-138.88C1964.12,-124.94 1964.12,-104.97 1964.12,-88.65"/>
<polygon fill="black" stroke="black" points="1967.63,-89.06 1964.13,-79.06 1960.63,-89.06 1967.63,-89.06"/>
<text text-anchor="middle" x="1984.75" y="-97.2" font-family="DejaVu Sans Mono" font-size="14.00">calls</text>
</g>
<!-- 28 -->
<g id="node36" class="node">
<title>28</title>
<polygon fill="#e552ff" stroke="#e552ff" points="1901.75,-272.75 1856.5,-272.75 1856.5,-276.75 1844.5,-276.75 1844.5,-236.75 1901.75,-236.75 1901.75,-272.75"/>
<polyline fill="none" stroke="#e552ff" points="1844.5,-272.75 1856.5,-272.75"/>
<text text-anchor="middle" x="1873.12" y="-250.07" font-family="DejaVu Sans Mono" font-size="14.00">print</text>
</g>
<!-- 27&#45;&gt;28 -->
<g id="edge27" class="edge">
<title>27&#45;&gt;28</title>
<path fill="none" stroke="black" stroke-dasharray="5,2" d="M1873.12,-313.66C1873.12,-303.92 1873.12,-293.6 1873.12,-284.41"/>
<polygon fill="black" stroke="black" points="1876.63,-284.64 1873.13,-274.64 1869.63,-284.64 1876.63,-284.64"/>
<text text-anchor="middle" x="1893.75" y="-292.7" font-family="DejaVu Sans Mono" font-size="14.00">calls</text>
</g>
<!-- 9 -->
<g id="node38" class="node">
<title>9</title>
<polygon fill="#e552ff" stroke="#e552ff" points="2552.75,-859.25 2507.5,-859.25 2507.5,-863.25 2495.5,-863.25 2495.5,-823.25 2552.75,-823.25 2552.75,-859.25"/>
<polyline fill="none" stroke="#e552ff" points="2495.5,-859.25 2507.5,-859.25"/>
<text text-anchor="middle" x="2524.12" y="-836.58" font-family="DejaVu Sans Mono" font-size="14.00">print</text>
</g>
<!-- 8&#45;&gt;9 -->
<g id="edge35" class="edge">
<title>8&#45;&gt;9</title>
<path fill="none" stroke="black" stroke-dasharray="5,2" d="M2524.12,-903.33C2524.12,-893.77 2524.12,-881.69 2524.12,-870.8"/>
<polygon fill="black" stroke="black" points="2527.63,-871.14 2524.13,-861.14 2520.63,-871.14 2527.63,-871.14"/>
<text text-anchor="middle" x="2544.75" y="-879.2" font-family="DejaVu Sans Mono" font-size="14.00">calls</text>
</g>
<!-- input -->
<g id="node39" class="node">
<title>input</title>
<polygon fill="#afeeee" stroke="black" points="3083.01,-1135.25 2989.34,-1135.25 2965.24,-1099.25 3058.91,-1099.25 3083.01,-1135.25"/>
<text text-anchor="middle" x="3024.12" y="-1112.58" font-family="DejaVu Sans Mono" font-size="14.00">input</text>
</g>
<!-- call -->
<g id="node44" class="node">
<title>call</title>
<polygon fill="#e552ff" stroke="black" points="3051.12,-1020.25 3009.12,-1020.25 3009.12,-1024.25 2997.12,-1024.25 2997.12,-984.25 3051.12,-984.25 3051.12,-1020.25"/>
<polyline fill="none" stroke="black" points="2997.12,-1020.25 3009.12,-1020.25"/>
<text text-anchor="middle" x="3024.12" y="-997.58" font-family="DejaVu Sans Mono" font-size="14.00">call</text>
</g>
<!-- input&#45;&gt;call -->
<!-- default -->
<g id="node40" class="node">
<title>default</title>
<polygon fill="#fffb81" stroke="black" points="2917,-1020.25 2843.25,-1020.25 2843.25,-984.25 2917,-984.25 2917,-1020.25"/>
<text text-anchor="middle" x="2880.12" y="-997.58" font-family="DejaVu Sans Mono" font-size="14.00">default</text>
</g>
<!-- if -->
<g id="node41" class="node">
<title>if</title>
<polygon fill="#ff6752" stroke="black" points="3024.12,-1226 2991.88,-1208 3024.12,-1190 3056.37,-1208 3024.12,-1226"/>
<text text-anchor="middle" x="3024.12" y="-1203.33" font-family="DejaVu Sans Mono" font-size="14.00">if</text>
</g>
<!-- if&#45;&gt;input -->
<!-- for -->
<g id="node42" class="node">
<title>for</title>
<polygon fill="#ffbe52" stroke="black" points="2972.13,-1208 2955.63,-1226 2922.62,-1226 2906.12,-1208 2922.62,-1190 2955.63,-1190 2972.13,-1208"/>
<text text-anchor="middle" x="2939.12" y="-1203.33" font-family="DejaVu Sans Mono" font-size="14.00">for</text>
</g>
<!-- return -->
<g id="node45" class="node">
<title>return</title>
<polygon fill="#98fb98" stroke="black" points="2947.49,-1135.25 2840.33,-1135.25 2812.76,-1099.25 2919.92,-1099.25 2947.49,-1135.25"/>
<text text-anchor="middle" x="2880.12" y="-1112.58" font-family="DejaVu Sans Mono" font-size="14.00">return</text>
</g>
<!-- for&#45;&gt;return -->
<!-- while -->
<g id="node43" class="node">
<title>while</title>
<polygon fill="#ffbe52" stroke="black" points="2888.5,-1208 2865.31,-1226 2818.94,-1226 2795.75,-1208 2818.94,-1190 2865.31,-1190 2888.5,-1208"/>
<text text-anchor="middle" x="2842.12" y="-1203.33" font-family="DejaVu Sans Mono" font-size="14.00">while</text>
</g>
<!-- return&#45;&gt;default -->
<!-- try -->
<g id="node46" class="node">
<title>try</title>
<polygon fill="orange" stroke="black" points="2737.12,-1226 2696.7,-1208 2737.12,-1190 2777.55,-1208 2737.12,-1226"/>
<polyline fill="none" stroke="black" points="2707.66,-1212.88 2707.66,-1203.12"/>
<polyline fill="none" stroke="black" points="2726.16,-1194.88 2748.09,-1194.88"/>
<polyline fill="none" stroke="black" points="2766.59,-1203.12 2766.59,-1212.88"/>
<polyline fill="none" stroke="black" points="2748.09,-1221.12 2726.16,-1221.12"/>
<text text-anchor="middle" x="2737.12" y="-1203.33" font-family="DejaVu Sans Mono" font-size="14.00">try</text>
</g>
<!-- raise -->
<g id="node47" class="node">
<title>raise</title>
<polygon fill="#98fb98" stroke="black" points="2794.77,-1122.81 2745.12,-1135.25 2695.48,-1122.81 2695.53,-1102.69 2794.72,-1102.69 2794.77,-1122.81"/>
<text text-anchor="middle" x="2745.12" y="-1112.58" font-family="DejaVu Sans Mono" font-size="14.00">raise</text>
</g>
<!-- try&#45;&gt;raise -->
</g>
</svg>
