<?xml version="1.0" encoding="UTF-8" standalone="no"?>
<!DOCTYPE svg PUBLIC "-//W3C//DTD SVG 1.1//EN"
 "http://www.w3.org/Graphics/SVG/1.1/DTD/svg11.dtd">
<!-- Generated by graphviz version 9.0.0 (20230911.1827)
 -->
<!-- Title: cluster0branching&#45;caesar&#45;03 Pages: 1 -->
<svg width="1912pt" height="565pt"
 viewBox="0.00 0.00 1912.00 565.25" xmlns="http://www.w3.org/2000/svg" xmlns:xlink="http://www.w3.org/1999/xlink">
<g id="graph0" class="graph" transform="scale(1 1) rotate(0) translate(4 561.25)">
<title>cluster0branching&#45;caesar&#45;03</title>
<polygon fill="white" stroke="none" points="-4,4 -4,-561.25 1908,-561.25 1908,4 -4,4"/>
<text text-anchor="middle" x="952" y="-7.95" font-family="DejaVu Sans Mono" font-size="14.00">branching&#45;caesar&#45;03</text>
<g id="clust1" class="cluster">
<title>cluster_1</title>
<polygon fill="purple" stroke="purple" points="8,-187.75 8,-309 526,-309 526,-187.75 8,-187.75"/>
</g>
<g id="clust2" class="cluster">
<title>cluster_21</title>
<polygon fill="purple" stroke="purple" points="484,-33.25 484,-85.25 558,-85.25 558,-33.25 484,-33.25"/>
</g>
<g id="clust3" class="cluster">
<title>cluster_23</title>
<polygon fill="purple" stroke="purple" points="745,-33.25 745,-85.25 819,-85.25 819,-33.25 745,-33.25"/>
</g>
<g id="clust4" class="cluster">
<title>cluster_16</title>
<polygon fill="purple" stroke="purple" points="1010,-33.25 1010,-85.25 1084,-85.25 1084,-33.25 1010,-33.25"/>
</g>
<g id="clust5" class="cluster">
<title>cluster_18</title>
<polygon fill="purple" stroke="purple" points="1271,-33.25 1271,-85.25 1345,-85.25 1345,-33.25 1271,-33.25"/>
</g>
<g id="clust6" class="cluster">
<title>cluster_KEY</title>
<polygon fill="none" stroke="black" points="1492,-187.75 1492,-501 1896,-501 1896,-187.75 1492,-187.75"/>
<text text-anchor="middle" x="1694" y="-483.7" font-family="DejaVu Sans Mono" font-size="14.00">KEY</text>
</g>
<!-- 1 -->
<g id="node1" class="node">
<title>1</title>
<polygon fill="#fffb81" stroke="black" points="515.25,-557.25 86.75,-557.25 86.75,-342.25 515.25,-342.25 515.25,-557.25"/>
<text text-anchor="start" x="94.75" y="-539.95" font-family="DejaVu Sans Mono" font-size="14.00">print(&quot;&quot;&quot;</text>
<text text-anchor="start" x="94.75" y="-522.7" font-family="DejaVu Sans Mono" font-size="14.00">Enter your Caesar key in numeric form (1&#45;25): &quot;&quot;&quot;)</text>
<text text-anchor="start" x="94.75" y="-505.45" font-family="DejaVu Sans Mono" font-size="14.00">key: int = int(input())</text>
<text text-anchor="start" x="94.75" y="-488.2" font-family="DejaVu Sans Mono" font-size="14.00">print(&quot;&quot;&quot;</text>
<text text-anchor="start" x="94.75" y="-470.95" font-family="DejaVu Sans Mono" font-size="14.00">Enter 1 for encryption, and 0 for decryption: &quot;&quot;&quot;)</text>
<text text-anchor="start" x="94.75" y="-453.7" font-family="DejaVu Sans Mono" font-size="14.00">mode: int = int(input())</text>
<text text-anchor="start" x="94.75" y="-436.45" font-family="DejaVu Sans Mono" font-size="14.00">print(&quot;&quot;&quot;</text>
<text text-anchor="start" x="94.75" y="-419.2" font-family="DejaVu Sans Mono" font-size="14.00">Enter your single character, Caesar encoded: &quot;&quot;&quot;)</text>
<text text-anchor="start" x="94.75" y="-401.95" font-family="DejaVu Sans Mono" font-size="14.00">encoded_char: int = int(input())</text>
<text text-anchor="start" x="94.75" y="-384.7" font-family="DejaVu Sans Mono" font-size="14.00">print(&quot;&quot;&quot;</text>
<text text-anchor="start" x="94.75" y="-367.45" font-family="DejaVu Sans Mono" font-size="14.00">Your message translation is:</text>
<text text-anchor="start" x="94.75" y="-350.2" font-family="DejaVu Sans Mono" font-size="14.00">&quot;&quot;&quot;)</text>
</g>
<!-- 2 -->
<g id="node2" class="node">
<title>2</title>
<polygon fill="#e552ff" stroke="#e552ff" points="73.62,-301 28.38,-301 28.38,-305 16.37,-305 16.37,-265 73.62,-265 73.62,-301"/>
<polyline fill="none" stroke="#e552ff" points="16.37,-301 28.38,-301"/>
<text text-anchor="middle" x="45" y="-278.32" font-family="DejaVu Sans Mono" font-size="14.00">print</text>
</g>
<!-- 1&#45;&gt;2 -->
<g id="edge1" class="edge">
<title>1&#45;&gt;2</title>
<path fill="none" stroke="black" stroke-dasharray="5,2" d="M118.98,-341.9C115.19,-339.35 111.44,-336.8 107.75,-334.25 96.3,-326.33 84.24,-316.95 73.79,-308.45"/>
<polygon fill="black" stroke="black" points="76.19,-305.89 66.24,-302.23 71.73,-311.29 76.19,-305.89"/>
<text text-anchor="middle" x="128.62" y="-320.95" font-family="DejaVu Sans Mono" font-size="14.00">calls</text>
</g>
<!-- 3 -->
<g id="node3" class="node">
<title>3</title>
<polygon fill="#e552ff" stroke="#e552ff" points="146,-301 104,-301 104,-305 92,-305 92,-265 146,-265 146,-301"/>
<polyline fill="none" stroke="#e552ff" points="92,-301 104,-301"/>
<text text-anchor="middle" x="119" y="-278.32" font-family="DejaVu Sans Mono" font-size="14.00">int</text>
</g>
<!-- 1&#45;&gt;3 -->
<g id="edge2" class="edge">
<title>1&#45;&gt;3</title>
<path fill="none" stroke="black" stroke-dasharray="5,2" d="M178.17,-342.03C175.33,-339.42 172.52,-336.82 169.75,-334.25 161.26,-326.36 152.2,-317.52 144.12,-309.49"/>
<polygon fill="black" stroke="black" points="146.73,-307.16 137.19,-302.56 141.78,-312.1 146.73,-307.16"/>
<text text-anchor="middle" x="190.62" y="-320.95" font-family="DejaVu Sans Mono" font-size="14.00">calls</text>
</g>
<!-- 5 -->
<g id="node4" class="node">
<title>5</title>
<polygon fill="#e552ff" stroke="#e552ff" points="221.62,-301 176.38,-301 176.38,-305 164.38,-305 164.38,-265 221.62,-265 221.62,-301"/>
<polyline fill="none" stroke="#e552ff" points="164.38,-301 176.38,-301"/>
<text text-anchor="middle" x="193" y="-278.32" font-family="DejaVu Sans Mono" font-size="14.00">print</text>
</g>
<!-- 1&#45;&gt;5 -->
<g id="edge3" class="edge">
<title>1&#45;&gt;5</title>
<path fill="none" stroke="black" stroke-dasharray="5,2" d="M230.69,-341.8C229.03,-339.26 227.38,-336.74 225.75,-334.25 220.75,-326.62 215.34,-318.32 210.38,-310.71"/>
<polygon fill="black" stroke="black" points="213.42,-308.96 205.03,-302.49 207.55,-312.78 213.42,-308.96"/>
<text text-anchor="middle" x="246.62" y="-320.95" font-family="DejaVu Sans Mono" font-size="14.00">calls</text>
</g>
<!-- 6 -->
<g id="node5" class="node">
<title>6</title>
<polygon fill="#e552ff" stroke="#e552ff" points="294,-301 252,-301 252,-305 240,-305 240,-265 294,-265 294,-301"/>
<polyline fill="none" stroke="#e552ff" points="240,-301 252,-301"/>
<text text-anchor="middle" x="267" y="-278.32" font-family="DejaVu Sans Mono" font-size="14.00">int</text>
</g>
<!-- 1&#45;&gt;6 -->
<g id="edge4" class="edge">
<title>1&#45;&gt;6</title>
<path fill="none" stroke="black" stroke-dasharray="5,2" d="M276.23,-341.84C275.72,-339.29 275.23,-336.75 274.75,-334.25 273.41,-327.25 272.14,-319.67 271.04,-312.57"/>
<polygon fill="black" stroke="black" points="274.51,-312.13 269.57,-302.76 267.59,-313.17 274.51,-312.13"/>
<text text-anchor="middle" x="294.62" y="-320.95" font-family="DejaVu Sans Mono" font-size="14.00">calls</text>
</g>
<!-- 8 -->
<g id="node6" class="node">
<title>8</title>
<polygon fill="#e552ff" stroke="#e552ff" points="369.62,-301 324.38,-301 324.38,-305 312.38,-305 312.38,-265 369.62,-265 369.62,-301"/>
<polyline fill="none" stroke="#e552ff" points="312.38,-301 324.38,-301"/>
<text text-anchor="middle" x="341" y="-278.32" font-family="DejaVu Sans Mono" font-size="14.00">print</text>
</g>
<!-- 1&#45;&gt;8 -->
<g id="edge5" class="edge">
<title>1&#45;&gt;8</title>
<path fill="none" stroke="black" stroke-dasharray="5,2" d="M326.9,-342.08C329.52,-331.28 331.99,-321.09 334.12,-312.35"/>
<polygon fill="black" stroke="black" points="337.46,-313.43 336.42,-302.88 330.65,-311.78 337.46,-313.43"/>
<text text-anchor="middle" x="352.62" y="-320.95" font-family="DejaVu Sans Mono" font-size="14.00">calls</text>
</g>
<!-- 9 -->
<g id="node7" class="node">
<title>9</title>
<polygon fill="#e552ff" stroke="#e552ff" points="442,-301 400,-301 400,-305 388,-305 388,-265 442,-265 442,-301"/>
<polyline fill="none" stroke="#e552ff" points="388,-301 400,-301"/>
<text text-anchor="middle" x="415" y="-278.32" font-family="DejaVu Sans Mono" font-size="14.00">int</text>
</g>
<!-- 1&#45;&gt;9 -->
<g id="edge6" class="edge">
<title>1&#45;&gt;9</title>
<path fill="none" stroke="black" stroke-dasharray="5,2" d="M374.81,-342.08C382.71,-330.67 390.13,-319.94 396.4,-310.88"/>
<polygon fill="black" stroke="black" points="399.28,-312.87 402.09,-302.66 393.52,-308.89 399.28,-312.87"/>
<text text-anchor="middle" x="410.62" y="-320.95" font-family="DejaVu Sans Mono" font-size="14.00">calls</text>
</g>
<!-- 11 -->
<g id="node8" class="node">
<title>11</title>
<polygon fill="#e552ff" stroke="#e552ff" points="517.62,-301 472.38,-301 472.38,-305 460.38,-305 460.38,-265 517.62,-265 517.62,-301"/>
<polyline fill="none" stroke="#e552ff" points="460.38,-301 472.38,-301"/>
<text text-anchor="middle" x="489" y="-278.32" font-family="DejaVu Sans Mono" font-size="14.00">print</text>
</g>
<!-- 1&#45;&gt;11 -->
<g id="edge7" class="edge">
<title>1&#45;&gt;11</title>
<path fill="none" stroke="black" stroke-dasharray="5,2" d="M426.32,-341.95C429.25,-339.37 432.15,-336.8 435,-334.25 444.03,-326.2 453.75,-317.24 462.43,-309.15"/>
<polygon fill="black" stroke="black" points="464.68,-311.83 469.58,-302.44 459.89,-306.73 464.68,-311.83"/>
<text text-anchor="middle" x="473.62" y="-320.95" font-family="DejaVu Sans Mono" font-size="14.00">calls</text>
</g>
<!-- 12 -->
<g id="node12" class="node">
<title>12</title>
<polygon fill="#ff6752" stroke="black" points="771,-301 648.73,-283 771,-265 893.27,-283 771,-301"/>
<text text-anchor="start" x="691.85" y="-278.32" font-family="DejaVu Sans Mono" font-size="14.00">if mode == 1:</text>
</g>
<!-- 1&#45;&gt;12 -->
<g id="edge21" class="edge">
<title>1&#45;&gt;12</title>
<path fill="none" stroke="black" d="M515.71,-373.49C594.43,-345.89 676.2,-317.23 725.35,-300"/>
<polygon fill="black" stroke="black" points="726.22,-303.4 734.5,-296.79 723.91,-296.8 726.22,-303.4"/>
</g>
<!-- 4 -->
<g id="node9" class="node">
<title>4</title>
<polygon fill="#e552ff" stroke="#e552ff" points="147.62,-231.75 102.38,-231.75 102.38,-235.75 90.38,-235.75 90.38,-195.75 147.62,-195.75 147.62,-231.75"/>
<polyline fill="none" stroke="#e552ff" points="90.38,-231.75 102.38,-231.75"/>
<text text-anchor="middle" x="119" y="-209.07" font-family="DejaVu Sans Mono" font-size="14.00">input</text>
</g>
<!-- 3&#45;&gt;4 -->
<g id="edge8" class="edge">
<title>3&#45;&gt;4</title>
<path fill="none" stroke="black" d="M119,-264.68C119,-258.3 119,-250.88 119,-243.75"/>
<polygon fill="black" stroke="black" points="122.5,-243.76 119,-233.76 115.5,-243.76 122.5,-243.76"/>
</g>
<!-- 7 -->
<g id="node10" class="node">
<title>7</title>
<polygon fill="#e552ff" stroke="#e552ff" points="295.62,-231.75 250.38,-231.75 250.38,-235.75 238.38,-235.75 238.38,-195.75 295.62,-195.75 295.62,-231.75"/>
<polyline fill="none" stroke="#e552ff" points="238.38,-231.75 250.38,-231.75"/>
<text text-anchor="middle" x="267" y="-209.07" font-family="DejaVu Sans Mono" font-size="14.00">input</text>
</g>
<!-- 6&#45;&gt;7 -->
<g id="edge9" class="edge">
<title>6&#45;&gt;7</title>
<path fill="none" stroke="black" d="M267,-264.68C267,-258.3 267,-250.88 267,-243.75"/>
<polygon fill="black" stroke="black" points="270.5,-243.76 267,-233.76 263.5,-243.76 270.5,-243.76"/>
</g>
<!-- 10 -->
<g id="node11" class="node">
<title>10</title>
<polygon fill="#e552ff" stroke="#e552ff" points="443.62,-231.75 398.38,-231.75 398.38,-235.75 386.38,-235.75 386.38,-195.75 443.62,-195.75 443.62,-231.75"/>
<polyline fill="none" stroke="#e552ff" points="386.38,-231.75 398.38,-231.75"/>
<text text-anchor="middle" x="415" y="-209.07" font-family="DejaVu Sans Mono" font-size="14.00">input</text>
</g>
<!-- 9&#45;&gt;10 -->
<g id="edge10" class="edge">
<title>9&#45;&gt;10</title>
<path fill="none" stroke="black" d="M415,-264.68C415,-258.3 415,-250.88 415,-243.75"/>
<polygon fill="black" stroke="black" points="418.5,-243.76 415,-233.76 411.5,-243.76 418.5,-243.76"/>
</g>
<!-- 13 -->
<g id="node13" class="node">
<title>13</title>
<polygon fill="#ff6752" stroke="black" points="771,-231.75 534.15,-213.75 771,-195.75 1007.85,-213.75 771,-231.75"/>
<text text-anchor="start" x="610.18" y="-209.07" font-family="DejaVu Sans Mono" font-size="14.00">if encoded_char + key &lt; 26:</text>
</g>
<!-- 12&#45;&gt;13 -->
<g id="edge15" class="edge">
<title>12&#45;&gt;13</title>
<path fill="none" stroke="green" d="M771,-264.68C771,-258.3 771,-250.88 771,-243.75"/>
<polygon fill="green" stroke="green" points="774.5,-243.76 771,-233.76 767.5,-243.76 774.5,-243.76"/>
<text text-anchor="middle" x="808.12" y="-243.7" font-family="DejaVu Sans Mono" font-size="14.00">mode == 1</text>
</g>
<!-- 15 -->
<g id="node18" class="node">
<title>15</title>
<polygon fill="#ff6752" stroke="black" points="1255,-231.75 1026.33,-213.75 1255,-195.75 1483.67,-213.75 1255,-231.75"/>
<text text-anchor="start" x="1100.01" y="-209.07" font-family="DejaVu Sans Mono" font-size="14.00">if 0 &lt; encoded_char &#45; key:</text>
</g>
<!-- 12&#45;&gt;15 -->
<g id="edge20" class="edge">
<title>12&#45;&gt;15</title>
<path fill="none" stroke="red" d="M831.81,-273.55C915.33,-261.95 1066.24,-240.98 1163.45,-227.47"/>
<polygon fill="red" stroke="red" points="1163.81,-230.95 1173.24,-226.11 1162.85,-224.02 1163.81,-230.95"/>
<text text-anchor="middle" x="1115.38" y="-243.7" font-family="DejaVu Sans Mono" font-size="14.00">(mode != 1)</text>
</g>
<!-- 21 -->
<g id="node14" class="node">
<title>21</title>
<polygon fill="#fffb81" stroke="black" points="632.12,-154.5 409.88,-154.5 409.88,-118.5 632.12,-118.5 632.12,-154.5"/>
<text text-anchor="start" x="417.88" y="-131.82" font-family="DejaVu Sans Mono" font-size="14.00">print(encoded_char + key)</text>
</g>
<!-- 13&#45;&gt;21 -->
<g id="edge12" class="edge">
<title>13&#45;&gt;21</title>
<path fill="none" stroke="green" d="M667.74,-203.2C639.01,-198.31 608.29,-190.92 581.25,-179.75 570.27,-175.21 559.32,-168.4 549.82,-161.55"/>
<polygon fill="green" stroke="green" points="552.16,-158.93 542.07,-155.7 547.94,-164.52 552.16,-158.93"/>
<text text-anchor="middle" x="675.88" y="-166.45" font-family="DejaVu Sans Mono" font-size="14.00">encoded_char + key &lt; 26</text>
</g>
<!-- 23 -->
<g id="node16" class="node">
<title>23</title>
<polygon fill="#fffb81" stroke="black" points="913.75,-154.5 650.25,-154.5 650.25,-118.5 913.75,-118.5 913.75,-154.5"/>
<text text-anchor="start" x="658.25" y="-131.82" font-family="DejaVu Sans Mono" font-size="14.00">print(encoded_char + key &#45; 26)</text>
</g>
<!-- 13&#45;&gt;23 -->
<g id="edge14" class="edge">
<title>13&#45;&gt;23</title>
<path fill="none" stroke="red" d="M773.5,-195.67C774.78,-186.89 776.38,-175.94 777.85,-165.92"/>
<polygon fill="red" stroke="red" points="781.27,-166.67 779.26,-156.27 774.35,-165.65 781.27,-166.67"/>
<text text-anchor="middle" x="885.25" y="-166.45" font-family="DejaVu Sans Mono" font-size="14.00">(encoded_char + key &gt;= 26)</text>
</g>
<!-- 25 -->
<g id="node15" class="node">
<title>25</title>
<polygon fill="#e552ff" stroke="#e552ff" points="549.62,-77.25 504.38,-77.25 504.38,-81.25 492.38,-81.25 492.38,-41.25 549.62,-41.25 549.62,-77.25"/>
<polyline fill="none" stroke="#e552ff" points="492.38,-77.25 504.38,-77.25"/>
<text text-anchor="middle" x="521" y="-54.58" font-family="DejaVu Sans Mono" font-size="14.00">print</text>
</g>
<!-- 21&#45;&gt;25 -->
<g id="edge11" class="edge">
<title>21&#45;&gt;25</title>
<path fill="none" stroke="black" stroke-dasharray="5,2" d="M521,-118.05C521,-109.4 521,-98.75 521,-88.94"/>
<polygon fill="black" stroke="black" points="524.5,-89.12 521,-79.12 517.5,-89.12 524.5,-89.12"/>
<text text-anchor="middle" x="541.62" y="-97.2" font-family="DejaVu Sans Mono" font-size="14.00">calls</text>
</g>
<!-- 24 -->
<g id="node17" class="node">
<title>24</title>
<polygon fill="#e552ff" stroke="#e552ff" points="810.62,-77.25 765.38,-77.25 765.38,-81.25 753.38,-81.25 753.38,-41.25 810.62,-41.25 810.62,-77.25"/>
<polyline fill="none" stroke="#e552ff" points="753.38,-77.25 765.38,-77.25"/>
<text text-anchor="middle" x="782" y="-54.58" font-family="DejaVu Sans Mono" font-size="14.00">print</text>
</g>
<!-- 23&#45;&gt;24 -->
<g id="edge13" class="edge">
<title>23&#45;&gt;24</title>
<path fill="none" stroke="black" stroke-dasharray="5,2" d="M782,-118.05C782,-109.4 782,-98.75 782,-88.94"/>
<polygon fill="black" stroke="black" points="785.5,-89.12 782,-79.12 778.5,-89.12 785.5,-89.12"/>
<text text-anchor="middle" x="802.62" y="-97.2" font-family="DejaVu Sans Mono" font-size="14.00">calls</text>
</g>
<!-- 16 -->
<g id="node19" class="node">
<title>16</title>
<polygon fill="#fffb81" stroke="black" points="1158.12,-154.5 935.88,-154.5 935.88,-118.5 1158.12,-118.5 1158.12,-154.5"/>
<text text-anchor="start" x="943.88" y="-131.82" font-family="DejaVu Sans Mono" font-size="14.00">print(encoded_char &#45; key)</text>
</g>
<!-- 15&#45;&gt;16 -->
<g id="edge17" class="edge">
<title>15&#45;&gt;16</title>
<path fill="none" stroke="green" d="M1160.94,-202.68C1137.72,-197.79 1113.5,-190.53 1092.5,-179.75 1084.14,-175.46 1076.2,-169.19 1069.36,-162.79"/>
<polygon fill="green" stroke="green" points="1071.94,-160.42 1062.4,-155.82 1066.99,-165.37 1071.94,-160.42"/>
<text text-anchor="middle" x="1182.75" y="-166.45" font-family="DejaVu Sans Mono" font-size="14.00">0 &lt; encoded_char &#45; key</text>
</g>
<!-- 18 -->
<g id="node21" class="node">
<title>18</title>
<polygon fill="#fffb81" stroke="black" points="1439.75,-154.5 1176.25,-154.5 1176.25,-118.5 1439.75,-118.5 1439.75,-154.5"/>
<text text-anchor="start" x="1184.25" y="-131.82" font-family="DejaVu Sans Mono" font-size="14.00">print(encoded_char &#45; key + 26)</text>
</g>
<!-- 15&#45;&gt;18 -->
<g id="edge19" class="edge">
<title>15&#45;&gt;18</title>
<path fill="none" stroke="red" d="M1266.5,-196.42C1273.12,-187.02 1281.6,-174.98 1289.17,-164.23"/>
<polygon fill="red" stroke="red" points="1292.02,-166.27 1294.91,-156.08 1286.29,-162.24 1292.02,-166.27"/>
<text text-anchor="middle" x="1392.12" y="-166.45" font-family="DejaVu Sans Mono" font-size="14.00">(0 &gt;= encoded_char &#45; key)</text>
</g>
<!-- 20 -->
<g id="node20" class="node">
<title>20</title>
<polygon fill="#e552ff" stroke="#e552ff" points="1075.62,-77.25 1030.38,-77.25 1030.38,-81.25 1018.38,-81.25 1018.38,-41.25 1075.62,-41.25 1075.62,-77.25"/>
<polyline fill="none" stroke="#e552ff" points="1018.38,-77.25 1030.38,-77.25"/>
<text text-anchor="middle" x="1047" y="-54.58" font-family="DejaVu Sans Mono" font-size="14.00">print</text>
</g>
<!-- 16&#45;&gt;20 -->
<g id="edge16" class="edge">
<title>16&#45;&gt;20</title>
<path fill="none" stroke="black" stroke-dasharray="5,2" d="M1047,-118.05C1047,-109.4 1047,-98.75 1047,-88.94"/>
<polygon fill="black" stroke="black" points="1050.5,-89.12 1047,-79.12 1043.5,-89.12 1050.5,-89.12"/>
<text text-anchor="middle" x="1067.62" y="-97.2" font-family="DejaVu Sans Mono" font-size="14.00">calls</text>
</g>
<!-- 19 -->
<g id="node22" class="node">
<title>19</title>
<polygon fill="#e552ff" stroke="#e552ff" points="1336.62,-77.25 1291.38,-77.25 1291.38,-81.25 1279.38,-81.25 1279.38,-41.25 1336.62,-41.25 1336.62,-77.25"/>
<polyline fill="none" stroke="#e552ff" points="1279.38,-77.25 1291.38,-77.25"/>
<text text-anchor="middle" x="1308" y="-54.58" font-family="DejaVu Sans Mono" font-size="14.00">print</text>
</g>
<!-- 18&#45;&gt;19 -->
<g id="edge18" class="edge">
<title>18&#45;&gt;19</title>
<path fill="none" stroke="black" stroke-dasharray="5,2" d="M1308,-118.05C1308,-109.4 1308,-98.75 1308,-88.94"/>
<polygon fill="black" stroke="black" points="1311.5,-89.12 1308,-79.12 1304.5,-89.12 1311.5,-89.12"/>
<text text-anchor="middle" x="1328.62" y="-97.2" font-family="DejaVu Sans Mono" font-size="14.00">calls</text>
</g>
<!-- input -->
<g id="node23" class="node">
<title>input</title>
<polygon fill="#afeeee" stroke="black" points="1887.88,-301 1794.21,-301 1770.12,-265 1863.79,-265 1887.88,-301"/>
<text text-anchor="middle" x="1829" y="-278.32" font-family="DejaVu Sans Mono" font-size="14.00">input</text>
</g>
<!-- call -->
<g id="node28" class="node">
<title>call</title>
<polygon fill="#e552ff" stroke="black" points="1856,-231.75 1814,-231.75 1814,-235.75 1802,-235.75 1802,-195.75 1856,-195.75 1856,-231.75"/>
<polyline fill="none" stroke="black" points="1802,-231.75 1814,-231.75"/>
<text text-anchor="middle" x="1829" y="-209.07" font-family="DejaVu Sans Mono" font-size="14.00">call</text>
</g>
<!-- input&#45;&gt;call -->
<!-- default -->
<g id="node24" class="node">
<title>default</title>
<polygon fill="#fffb81" stroke="black" points="1721.88,-231.75 1648.12,-231.75 1648.12,-195.75 1721.88,-195.75 1721.88,-231.75"/>
<text text-anchor="middle" x="1685" y="-209.07" font-family="DejaVu Sans Mono" font-size="14.00">default</text>
</g>
<!-- if -->
<g id="node25" class="node">
<title>if</title>
<polygon fill="#ff6752" stroke="black" points="1829,-467.75 1796.76,-449.75 1829,-431.75 1861.24,-449.75 1829,-467.75"/>
<text text-anchor="middle" x="1829" y="-445.07" font-family="DejaVu Sans Mono" font-size="14.00">if</text>
</g>
<!-- if&#45;&gt;input -->
<!-- for -->
<g id="node26" class="node">
<title>for</title>
<polygon fill="#ffbe52" stroke="black" points="1777.01,-449.75 1760.5,-467.75 1727.5,-467.75 1710.99,-449.75 1727.5,-431.75 1760.5,-431.75 1777.01,-449.75"/>
<text text-anchor="middle" x="1744" y="-445.07" font-family="DejaVu Sans Mono" font-size="14.00">for</text>
</g>
<!-- return -->
<g id="node29" class="node">
<title>return</title>
<polygon fill="#98fb98" stroke="black" points="1752.37,-301 1645.2,-301 1617.63,-265 1724.8,-265 1752.37,-301"/>
<text text-anchor="middle" x="1685" y="-278.32" font-family="DejaVu Sans Mono" font-size="14.00">return</text>
</g>
<!-- for&#45;&gt;return -->
<!-- while -->
<g id="node27" class="node">
<title>while</title>
<polygon fill="#ffbe52" stroke="black" points="1693.37,-449.75 1670.19,-467.75 1623.81,-467.75 1600.63,-449.75 1623.81,-431.75 1670.19,-431.75 1693.37,-449.75"/>
<text text-anchor="middle" x="1647" y="-445.07" font-family="DejaVu Sans Mono" font-size="14.00">while</text>
</g>
<!-- return&#45;&gt;default -->
<!-- try -->
<g id="node30" class="node">
<title>try</title>
<polygon fill="orange" stroke="black" points="1542,-467.75 1501.57,-449.75 1542,-431.75 1582.43,-449.75 1542,-467.75"/>
<polyline fill="none" stroke="black" points="1512.54,-454.63 1512.54,-444.87"/>
<polyline fill="none" stroke="black" points="1531.04,-436.63 1552.96,-436.63"/>
<polyline fill="none" stroke="black" points="1571.46,-444.87 1571.46,-454.63"/>
<polyline fill="none" stroke="black" points="1552.96,-462.87 1531.04,-462.87"/>
<text text-anchor="middle" x="1542" y="-445.07" font-family="DejaVu Sans Mono" font-size="14.00">try</text>
</g>
<!-- raise -->
<g id="node31" class="node">
<title>raise</title>
<polygon fill="#98fb98" stroke="black" points="1599.64,-288.56 1550,-301 1500.36,-288.56 1500.41,-268.44 1599.59,-268.44 1599.64,-288.56"/>
<text text-anchor="middle" x="1550" y="-278.32" font-family="DejaVu Sans Mono" font-size="14.00">raise</text>
</g>
<!-- try&#45;&gt;raise -->
</g>
</svg>
