<?xml version="1.0" encoding="UTF-8" standalone="no"?>
<!DOCTYPE svg PUBLIC "-//W3C//DTD SVG 1.1//EN"
 "http://www.w3.org/Graphics/SVG/1.1/DTD/svg11.dtd">
<!-- Generated by graphviz version 9.0.0 (20230911.1827)
 -->
<!-- Title: cluster0branching02 Pages: 1 -->
<svg width="773pt" height="431pt"
 viewBox="0.00 0.00 772.75 431.12" xmlns="http://www.w3.org/2000/svg" xmlns:xlink="http://www.w3.org/1999/xlink">
<g id="graph0" class="graph" transform="scale(1 1) rotate(0) translate(4 427.12)">
<title>cluster0branching02</title>
<polygon fill="white" stroke="none" points="-4,4 -4,-427.12 768.75,-427.12 768.75,4 -4,4"/>
<text text-anchor="middle" x="382.38" y="-7.95" font-family="DejaVu Sans Mono" font-size="14.00">branching02</text>
<g id="clust1" class="cluster">
<title>cluster_3</title>
<polygon fill="purple" stroke="purple" points="28.75,-118.5 28.75,-170.5 102.75,-170.5 102.75,-118.5 28.75,-118.5"/>
</g>
<g id="clust2" class="cluster">
<title>cluster_6</title>
<polygon fill="purple" stroke="purple" points="174.75,-33.25 174.75,-85.25 248.75,-85.25 248.75,-33.25 174.75,-33.25"/>
</g>
<g id="clust3" class="cluster">
<title>cluster_8</title>
<polygon fill="purple" stroke="purple" points="307.75,-33.25 307.75,-85.25 381.75,-85.25 381.75,-33.25 307.75,-33.25"/>
</g>
<g id="clust4" class="cluster">
<title>cluster_KEY</title>
<polygon fill="none" stroke="black" points="352.75,-203.75 352.75,-415.12 756.75,-415.12 756.75,-203.75 352.75,-203.75"/>
<text text-anchor="middle" x="554.75" y="-397.82" font-family="DejaVu Sans Mono" font-size="14.00">KEY</text>
</g>
<!-- 1 -->
<g id="node1" class="node">
<title>1</title>
<polygon fill="#fffb81" stroke="black" points="221.5,-393.75 90,-393.75 90,-334 221.5,-334 221.5,-393.75"/>
<text text-anchor="start" x="98" y="-376.45" font-family="DejaVu Sans Mono" font-size="14.00">M: int = 5</text>
<text text-anchor="start" x="98" y="-359.2" font-family="DejaVu Sans Mono" font-size="14.00">N: int = 2</text>
<text text-anchor="start" x="98" y="-341.95" font-family="DejaVu Sans Mono" font-size="14.00">K: int = M % N</text>
</g>
<!-- 2 -->
<g id="node2" class="node">
<title>2</title>
<polygon fill="#ff6752" stroke="black" points="155.75,-317 58.03,-299 155.75,-281 253.47,-299 155.75,-317"/>
<text text-anchor="start" x="94.1" y="-294.32" font-family="DejaVu Sans Mono" font-size="14.00">if K == 1:</text>
</g>
<!-- 1&#45;&gt;2 -->
<g id="edge8" class="edge">
<title>1&#45;&gt;2</title>
<path fill="none" stroke="black" d="M155.75,-333.65C155.75,-331.97 155.75,-330.29 155.75,-328.61"/>
<polygon fill="black" stroke="black" points="159.25,-328.67 155.75,-318.67 152.25,-328.67 159.25,-328.67"/>
</g>
<!-- 3 -->
<g id="node3" class="node">
<title>3</title>
<polygon fill="#fffb81" stroke="black" points="131.5,-247.75 0,-247.75 0,-211.75 131.5,-211.75 131.5,-247.75"/>
<text text-anchor="start" x="8" y="-225.07" font-family="DejaVu Sans Mono" font-size="14.00">print(&#39;hello&#39;)</text>
</g>
<!-- 2&#45;&gt;3 -->
<g id="edge2" class="edge">
<title>2&#45;&gt;3</title>
<path fill="none" stroke="green" d="M137.1,-284.07C125.83,-275.65 111.16,-264.68 98.05,-254.89"/>
<polygon fill="green" stroke="green" points="100.17,-252.1 90.07,-248.92 95.98,-257.71 100.17,-252.1"/>
<text text-anchor="middle" x="145.5" y="-259.7" font-family="DejaVu Sans Mono" font-size="14.00">K == 1</text>
</g>
<!-- 5 -->
<g id="node5" class="node">
<title>5</title>
<polygon fill="#ff6752" stroke="black" points="246.75,-247.75 149.03,-229.75 246.75,-211.75 344.47,-229.75 246.75,-247.75"/>
<text text-anchor="start" x="185.1" y="-225.07" font-family="DejaVu Sans Mono" font-size="14.00">if K == 2:</text>
</g>
<!-- 2&#45;&gt;5 -->
<g id="edge7" class="edge">
<title>2&#45;&gt;5</title>
<path fill="none" stroke="red" d="M174.61,-284.07C187.42,-274.6 204.58,-261.91 218.95,-251.29"/>
<polygon fill="red" stroke="red" points="220.74,-254.32 226.7,-245.57 216.58,-248.69 220.74,-254.32"/>
<text text-anchor="middle" x="244.75" y="-259.7" font-family="DejaVu Sans Mono" font-size="14.00">(K != 1)</text>
</g>
<!-- 11 -->
<g id="node4" class="node">
<title>11</title>
<polygon fill="#e552ff" stroke="#e552ff" points="94.38,-162.5 49.12,-162.5 49.12,-166.5 37.12,-166.5 37.12,-126.5 94.38,-126.5 94.38,-162.5"/>
<polyline fill="none" stroke="#e552ff" points="37.12,-162.5 49.12,-162.5"/>
<text text-anchor="middle" x="65.75" y="-139.82" font-family="DejaVu Sans Mono" font-size="14.00">print</text>
</g>
<!-- 3&#45;&gt;11 -->
<g id="edge1" class="edge">
<title>3&#45;&gt;11</title>
<path fill="none" stroke="black" stroke-dasharray="5,2" d="M65.75,-211.5C65.75,-200.67 65.75,-186.45 65.75,-173.98"/>
<polygon fill="black" stroke="black" points="69.25,-174.24 65.75,-164.24 62.25,-174.24 69.25,-174.24"/>
<text text-anchor="middle" x="86.38" y="-182.45" font-family="DejaVu Sans Mono" font-size="14.00">calls</text>
</g>
<!-- 6 -->
<g id="node6" class="node">
<title>6</title>
<polygon fill="#fffb81" stroke="black" points="277.5,-162.5 146,-162.5 146,-126.5 277.5,-126.5 277.5,-162.5"/>
<text text-anchor="start" x="154" y="-139.82" font-family="DejaVu Sans Mono" font-size="14.00">print(&#39;world&#39;)</text>
</g>
<!-- 5&#45;&gt;6 -->
<g id="edge4" class="edge">
<title>5&#45;&gt;6</title>
<path fill="none" stroke="green" d="M240,-212.7C235.31,-201.55 228.95,-186.41 223.45,-173.32"/>
<polygon fill="green" stroke="green" points="226.77,-172.2 219.67,-164.33 220.32,-174.91 226.77,-172.2"/>
<text text-anchor="middle" x="256.5" y="-182.45" font-family="DejaVu Sans Mono" font-size="14.00">K == 2</text>
</g>
<!-- 8 -->
<g id="node8" class="node">
<title>8</title>
<polygon fill="#fffb81" stroke="black" points="394,-162.5 295.5,-162.5 295.5,-126.5 394,-126.5 394,-162.5"/>
<text text-anchor="start" x="303.5" y="-139.82" font-family="DejaVu Sans Mono" font-size="14.00">print(&#39;!&#39;)</text>
</g>
<!-- 5&#45;&gt;8 -->
<g id="edge6" class="edge">
<title>5&#45;&gt;8</title>
<path fill="none" stroke="red" d="M263.46,-214.63C270.37,-208.79 278.45,-201.95 285.75,-195.75 295.47,-187.5 306.07,-178.48 315.57,-170.38"/>
<polygon fill="red" stroke="red" points="317.79,-173.09 323.13,-163.94 313.25,-167.76 317.79,-173.09"/>
<text text-anchor="middle" x="337.75" y="-182.45" font-family="DejaVu Sans Mono" font-size="14.00">(K != 2)</text>
</g>
<!-- 10 -->
<g id="node7" class="node">
<title>10</title>
<polygon fill="#e552ff" stroke="#e552ff" points="240.38,-77.25 195.12,-77.25 195.12,-81.25 183.12,-81.25 183.12,-41.25 240.38,-41.25 240.38,-77.25"/>
<polyline fill="none" stroke="#e552ff" points="183.12,-77.25 195.12,-77.25"/>
<text text-anchor="middle" x="211.75" y="-54.58" font-family="DejaVu Sans Mono" font-size="14.00">print</text>
</g>
<!-- 6&#45;&gt;10 -->
<g id="edge3" class="edge">
<title>6&#45;&gt;10</title>
<path fill="none" stroke="black" stroke-dasharray="5,2" d="M211.75,-126.25C211.75,-115.42 211.75,-101.2 211.75,-88.73"/>
<polygon fill="black" stroke="black" points="215.25,-88.99 211.75,-78.99 208.25,-88.99 215.25,-88.99"/>
<text text-anchor="middle" x="232.38" y="-97.2" font-family="DejaVu Sans Mono" font-size="14.00">calls</text>
</g>
<!-- 9 -->
<g id="node9" class="node">
<title>9</title>
<polygon fill="#e552ff" stroke="#e552ff" points="373.38,-77.25 328.12,-77.25 328.12,-81.25 316.12,-81.25 316.12,-41.25 373.38,-41.25 373.38,-77.25"/>
<polyline fill="none" stroke="#e552ff" points="316.12,-77.25 328.12,-77.25"/>
<text text-anchor="middle" x="344.75" y="-54.58" font-family="DejaVu Sans Mono" font-size="14.00">print</text>
</g>
<!-- 8&#45;&gt;9 -->
<g id="edge5" class="edge">
<title>8&#45;&gt;9</title>
<path fill="none" stroke="black" stroke-dasharray="5,2" d="M344.75,-126.25C344.75,-115.42 344.75,-101.2 344.75,-88.73"/>
<polygon fill="black" stroke="black" points="348.25,-88.99 344.75,-78.99 341.25,-88.99 348.25,-88.99"/>
<text text-anchor="middle" x="365.38" y="-97.2" font-family="DejaVu Sans Mono" font-size="14.00">calls</text>
</g>
<!-- input -->
<g id="node10" class="node">
<title>input</title>
<polygon fill="#afeeee" stroke="black" points="748.63,-317 654.96,-317 630.87,-281 724.54,-281 748.63,-317"/>
<text text-anchor="middle" x="689.75" y="-294.32" font-family="DejaVu Sans Mono" font-size="14.00">input</text>
</g>
<!-- call -->
<g id="node15" class="node">
<title>call</title>
<polygon fill="#e552ff" stroke="black" points="716.75,-247.75 674.75,-247.75 674.75,-251.75 662.75,-251.75 662.75,-211.75 716.75,-211.75 716.75,-247.75"/>
<polyline fill="none" stroke="black" points="662.75,-247.75 674.75,-247.75"/>
<text text-anchor="middle" x="689.75" y="-225.07" font-family="DejaVu Sans Mono" font-size="14.00">call</text>
</g>
<!-- input&#45;&gt;call -->
<!-- default -->
<g id="node11" class="node">
<title>default</title>
<polygon fill="#fffb81" stroke="black" points="582.62,-247.75 508.88,-247.75 508.88,-211.75 582.62,-211.75 582.62,-247.75"/>
<text text-anchor="middle" x="545.75" y="-225.07" font-family="DejaVu Sans Mono" font-size="14.00">default</text>
</g>
<!-- if -->
<g id="node12" class="node">
<title>if</title>
<polygon fill="#ff6752" stroke="black" points="689.75,-381.88 657.51,-363.88 689.75,-345.88 721.99,-363.88 689.75,-381.88"/>
<text text-anchor="middle" x="689.75" y="-359.2" font-family="DejaVu Sans Mono" font-size="14.00">if</text>
</g>
<!-- if&#45;&gt;input -->
<!-- for -->
<g id="node13" class="node">
<title>for</title>
<polygon fill="#ffbe52" stroke="black" points="637.76,-363.88 621.25,-381.87 588.25,-381.87 571.74,-363.88 588.25,-345.88 621.25,-345.88 637.76,-363.88"/>
<text text-anchor="middle" x="604.75" y="-359.2" font-family="DejaVu Sans Mono" font-size="14.00">for</text>
</g>
<!-- return -->
<g id="node16" class="node">
<title>return</title>
<polygon fill="#98fb98" stroke="black" points="613.12,-317 505.95,-317 478.38,-281 585.55,-281 613.12,-317"/>
<text text-anchor="middle" x="545.75" y="-294.32" font-family="DejaVu Sans Mono" font-size="14.00">return</text>
</g>
<!-- for&#45;&gt;return -->
<!-- while -->
<g id="node14" class="node">
<title>while</title>
<polygon fill="#ffbe52" stroke="black" points="554.12,-363.88 530.94,-381.87 484.56,-381.87 461.38,-363.88 484.56,-345.88 530.94,-345.88 554.12,-363.88"/>
<text text-anchor="middle" x="507.75" y="-359.2" font-family="DejaVu Sans Mono" font-size="14.00">while</text>
</g>
<!-- return&#45;&gt;default -->
<!-- try -->
<g id="node17" class="node">
<title>try</title>
<polygon fill="orange" stroke="black" points="402.75,-381.88 362.32,-363.88 402.75,-345.88 443.18,-363.88 402.75,-381.88"/>
<polyline fill="none" stroke="black" points="373.29,-368.76 373.29,-358.99"/>
<polyline fill="none" stroke="black" points="391.79,-350.76 413.71,-350.76"/>
<polyline fill="none" stroke="black" points="432.21,-358.99 432.21,-368.76"/>
<polyline fill="none" stroke="black" points="413.71,-376.99 391.79,-376.99"/>
<text text-anchor="middle" x="402.75" y="-359.2" font-family="DejaVu Sans Mono" font-size="14.00">try</text>
</g>
<!-- raise -->
<g id="node18" class="node">
<title>raise</title>
<polygon fill="#98fb98" stroke="black" points="460.39,-304.56 410.75,-317 361.11,-304.56 361.16,-284.44 460.34,-284.44 460.39,-304.56"/>
<text text-anchor="middle" x="410.75" y="-294.32" font-family="DejaVu Sans Mono" font-size="14.00">raise</text>
</g>
<!-- try&#45;&gt;raise -->
</g>
</svg>
