<?xml version="1.0" encoding="UTF-8" standalone="no"?>
<!DOCTYPE svg PUBLIC "-//W3C//DTD SVG 1.1//EN"
 "http://www.w3.org/Graphics/SVG/1.1/DTD/svg11.dtd">
<!-- Generated by graphviz version 9.0.0 (20230911.1827)
 -->
<!-- Title: cluster0branching01 Pages: 1 -->
<svg width="973pt" height="695pt"
 viewBox="0.00 0.00 973.00 695.12" xmlns="http://www.w3.org/2000/svg" xmlns:xlink="http://www.w3.org/1999/xlink">
<g id="graph0" class="graph" transform="scale(1 1) rotate(0) translate(4 691.12)">
<title>cluster0branching01</title>
<polygon fill="white" stroke="none" points="-4,4 -4,-691.12 969,-691.12 969,4 -4,4"/>
<text text-anchor="middle" x="482.5" y="-7.95" font-family="DejaVu Sans Mono" font-size="14.00">branching01</text>
<g id="clust1" class="cluster">
<title>cluster_1</title>
<polygon fill="purple" stroke="purple" points="8,-443.5 8,-564.75 232,-564.75 232,-443.5 8,-443.5"/>
</g>
<g id="clust2" class="cluster">
<title>cluster_9</title>
<polygon fill="purple" stroke="purple" points="257,-358.25 257,-410.25 331,-410.25 331,-358.25 257,-358.25"/>
</g>
<g id="clust3" class="cluster">
<title>cluster_12</title>
<polygon fill="purple" stroke="purple" points="180,-203.75 180,-255.75 254,-255.75 254,-203.75 180,-203.75"/>
</g>
<g id="clust4" class="cluster">
<title>cluster_22</title>
<polygon fill="purple" stroke="purple" points="316,-33.25 316,-85.25 390,-85.25 390,-33.25 316,-33.25"/>
</g>
<g id="clust5" class="cluster">
<title>cluster_15</title>
<polygon fill="purple" stroke="purple" points="489,-118.5 489,-170.5 563,-170.5 563,-118.5 489,-118.5"/>
</g>
<g id="clust6" class="cluster">
<title>cluster_17</title>
<polygon fill="purple" stroke="purple" points="630,-118.5 630,-170.5 704,-170.5 704,-118.5 630,-118.5"/>
</g>
<g id="clust7" class="cluster">
<title>cluster_KEY</title>
<polygon fill="none" stroke="black" points="553,-443.5 553,-679.12 957,-679.12 957,-443.5 553,-443.5"/>
<text text-anchor="middle" x="755" y="-661.83" font-family="DejaVu Sans Mono" font-size="14.00">KEY</text>
</g>
<!-- 1 -->
<g id="node1" class="node">
<title>1</title>
<polygon fill="#fffb81" stroke="black" points="249.62,-657.75 60.38,-657.75 60.38,-598 249.62,-598 249.62,-657.75"/>
<text text-anchor="start" x="68.38" y="-640.45" font-family="DejaVu Sans Mono" font-size="14.00">x: int = int(input())</text>
<text text-anchor="start" x="68.38" y="-623.2" font-family="DejaVu Sans Mono" font-size="14.00">y: int = int(input())</text>
<text text-anchor="start" x="68.38" y="-605.95" font-family="DejaVu Sans Mono" font-size="14.00">z: int = int(input())</text>
</g>
<!-- 2 -->
<g id="node2" class="node">
<title>2</title>
<polygon fill="#e552ff" stroke="#e552ff" points="75,-556.75 33,-556.75 33,-560.75 21,-560.75 21,-520.75 75,-520.75 75,-556.75"/>
<polyline fill="none" stroke="#e552ff" points="21,-556.75 33,-556.75"/>
<text text-anchor="middle" x="48" y="-534.08" font-family="DejaVu Sans Mono" font-size="14.00">int</text>
</g>
<!-- 1&#45;&gt;2 -->
<g id="edge1" class="edge">
<title>1&#45;&gt;2</title>
<path fill="none" stroke="black" stroke-dasharray="5,2" d="M87.25,-597.64C83.91,-595.25 80.71,-592.71 77.75,-590 70.7,-583.55 64.81,-575.05 60.18,-566.87"/>
<polygon fill="black" stroke="black" points="63.4,-565.48 55.7,-558.21 57.19,-568.7 63.4,-565.48"/>
<text text-anchor="middle" x="97.62" y="-576.7" font-family="DejaVu Sans Mono" font-size="14.00">calls</text>
</g>
<!-- 4 -->
<g id="node3" class="node">
<title>4</title>
<polygon fill="#e552ff" stroke="#e552ff" points="148,-556.75 106,-556.75 106,-560.75 94,-560.75 94,-520.75 148,-520.75 148,-556.75"/>
<polyline fill="none" stroke="#e552ff" points="94,-556.75 106,-556.75"/>
<text text-anchor="middle" x="121" y="-534.08" font-family="DejaVu Sans Mono" font-size="14.00">int</text>
</g>
<!-- 1&#45;&gt;4 -->
<g id="edge2" class="edge">
<title>1&#45;&gt;4</title>
<path fill="none" stroke="black" stroke-dasharray="5,2" d="M131.6,-597.87C130.14,-595.29 128.83,-592.66 127.75,-590 125.01,-583.23 123.33,-575.57 122.32,-568.3"/>
<polygon fill="black" stroke="black" points="125.83,-568.15 121.35,-558.55 118.86,-568.85 125.83,-568.15"/>
<text text-anchor="middle" x="147.62" y="-576.7" font-family="DejaVu Sans Mono" font-size="14.00">calls</text>
</g>
<!-- 6 -->
<g id="node4" class="node">
<title>6</title>
<polygon fill="#e552ff" stroke="#e552ff" points="221,-556.75 179,-556.75 179,-560.75 167,-560.75 167,-520.75 221,-520.75 221,-556.75"/>
<polyline fill="none" stroke="#e552ff" points="167,-556.75 179,-556.75"/>
<text text-anchor="middle" x="194" y="-534.08" font-family="DejaVu Sans Mono" font-size="14.00">int</text>
</g>
<!-- 1&#45;&gt;6 -->
<g id="edge3" class="edge">
<title>1&#45;&gt;6</title>
<path fill="none" stroke="black" stroke-dasharray="5,2" d="M167.99,-597.86C172.37,-588.08 177.24,-577.19 181.57,-567.51"/>
<polygon fill="black" stroke="black" points="184.67,-569.15 185.57,-558.59 178.29,-566.29 184.67,-569.15"/>
<text text-anchor="middle" x="199.62" y="-576.7" font-family="DejaVu Sans Mono" font-size="14.00">calls</text>
</g>
<!-- 8 -->
<g id="node8" class="node">
<title>8</title>
<polygon fill="#ff6752" stroke="black" points="370,-556.75 239.55,-538.75 370,-520.75 500.45,-538.75 370,-556.75"/>
<text text-anchor="start" x="285.02" y="-534.08" font-family="DejaVu Sans Mono" font-size="14.00">if y &#45; z &lt; 10:</text>
</g>
<!-- 1&#45;&gt;8 -->
<g id="edge21" class="edge">
<title>1&#45;&gt;8</title>
<path fill="none" stroke="black" d="M227.19,-597.62C260.51,-584.12 298.91,-568.56 327.5,-556.97"/>
<polygon fill="black" stroke="black" points="328.59,-560.31 336.54,-553.31 325.96,-553.82 328.59,-560.31"/>
</g>
<!-- 3 -->
<g id="node5" class="node">
<title>3</title>
<polygon fill="#e552ff" stroke="#e552ff" points="73.62,-487.5 28.38,-487.5 28.38,-491.5 16.37,-491.5 16.37,-451.5 73.62,-451.5 73.62,-487.5"/>
<polyline fill="none" stroke="#e552ff" points="16.37,-487.5 28.38,-487.5"/>
<text text-anchor="middle" x="45" y="-464.82" font-family="DejaVu Sans Mono" font-size="14.00">input</text>
</g>
<!-- 2&#45;&gt;3 -->
<g id="edge4" class="edge">
<title>2&#45;&gt;3</title>
<path fill="none" stroke="black" d="M47.23,-520.43C46.94,-513.97 46.6,-506.45 46.28,-499.24"/>
<polygon fill="black" stroke="black" points="49.79,-499.34 45.85,-489.51 42.8,-499.65 49.79,-499.34"/>
</g>
<!-- 5 -->
<g id="node6" class="node">
<title>5</title>
<polygon fill="#e552ff" stroke="#e552ff" points="148.62,-487.5 103.38,-487.5 103.38,-491.5 91.38,-491.5 91.38,-451.5 148.62,-451.5 148.62,-487.5"/>
<polyline fill="none" stroke="#e552ff" points="91.38,-487.5 103.38,-487.5"/>
<text text-anchor="middle" x="120" y="-464.82" font-family="DejaVu Sans Mono" font-size="14.00">input</text>
</g>
<!-- 4&#45;&gt;5 -->
<g id="edge5" class="edge">
<title>4&#45;&gt;5</title>
<path fill="none" stroke="black" d="M120.74,-520.43C120.65,-514.05 120.54,-506.63 120.43,-499.5"/>
<polygon fill="black" stroke="black" points="123.93,-499.45 120.28,-489.51 116.93,-499.56 123.93,-499.45"/>
</g>
<!-- 7 -->
<g id="node7" class="node">
<title>7</title>
<polygon fill="#e552ff" stroke="#e552ff" points="223.62,-487.5 178.38,-487.5 178.38,-491.5 166.38,-491.5 166.38,-451.5 223.62,-451.5 223.62,-487.5"/>
<polyline fill="none" stroke="#e552ff" points="166.38,-487.5 178.38,-487.5"/>
<text text-anchor="middle" x="195" y="-464.82" font-family="DejaVu Sans Mono" font-size="14.00">input</text>
</g>
<!-- 6&#45;&gt;7 -->
<g id="edge6" class="edge">
<title>6&#45;&gt;7</title>
<path fill="none" stroke="black" d="M194.26,-520.43C194.35,-514.05 194.46,-506.63 194.57,-499.5"/>
<polygon fill="black" stroke="black" points="198.07,-499.56 194.72,-489.51 191.07,-499.45 198.07,-499.56"/>
</g>
<!-- 9 -->
<g id="node9" class="node">
<title>9</title>
<polygon fill="#fffb81" stroke="black" points="401.75,-487.5 270.25,-487.5 270.25,-451.5 401.75,-451.5 401.75,-487.5"/>
<text text-anchor="start" x="278.25" y="-464.82" font-family="DejaVu Sans Mono" font-size="14.00">print(&#39;Close&#39;)</text>
</g>
<!-- 8&#45;&gt;9 -->
<g id="edge19" class="edge">
<title>8&#45;&gt;9</title>
<path fill="none" stroke="green" d="M349.59,-523.21C346.43,-520.1 343.54,-516.58 341.5,-512.75 339.23,-508.49 337.76,-503.66 336.83,-498.82"/>
<polygon fill="green" stroke="green" points="340.35,-498.81 335.69,-489.3 333.4,-499.64 340.35,-498.81"/>
<text text-anchor="middle" x="382.25" y="-499.45" font-family="DejaVu Sans Mono" font-size="14.00">y &#45; z &lt; 10</text>
</g>
<!-- 10 -->
<g id="node11" class="node">
<title>10</title>
<polygon fill="#ff6752" stroke="black" points="438,-402.25 340.28,-384.25 438,-366.25 535.72,-384.25 438,-402.25"/>
<text text-anchor="start" x="376.35" y="-379.57" font-family="DejaVu Sans Mono" font-size="14.00">if x &lt; 10:</text>
</g>
<!-- 8&#45;&gt;10 -->
<g id="edge20" class="edge">
<title>8&#45;&gt;10</title>
<path fill="none" stroke="red" d="M409.05,-525.72C414.84,-522.37 420.14,-518.12 424,-512.75 435.06,-497.37 437.6,-446.13 438.06,-413.48"/>
<polygon fill="red" stroke="red" points="441.56,-413.94 438.14,-403.91 434.56,-413.88 441.56,-413.94"/>
<text text-anchor="middle" x="490.62" y="-464.82" font-family="DejaVu Sans Mono" font-size="14.00">(y &#45; z &gt;= 10)</text>
</g>
<!-- 11 -->
<g id="node10" class="node">
<title>11</title>
<polygon fill="#e552ff" stroke="#e552ff" points="322.62,-402.25 277.38,-402.25 277.38,-406.25 265.38,-406.25 265.38,-366.25 322.62,-366.25 322.62,-402.25"/>
<polyline fill="none" stroke="#e552ff" points="265.38,-402.25 277.38,-402.25"/>
<text text-anchor="middle" x="294" y="-379.57" font-family="DejaVu Sans Mono" font-size="14.00">print</text>
</g>
<!-- 9&#45;&gt;11 -->
<g id="edge7" class="edge">
<title>9&#45;&gt;11</title>
<path fill="none" stroke="black" stroke-dasharray="5,2" d="M327.3,-451.25C321.67,-440.09 314.21,-425.32 307.79,-412.58"/>
<polygon fill="black" stroke="black" points="311,-411.18 303.37,-403.83 304.75,-414.33 311,-411.18"/>
<text text-anchor="middle" x="338.62" y="-422.2" font-family="DejaVu Sans Mono" font-size="14.00">calls</text>
</g>
<!-- 9&#45;&gt;10 -->
<g id="edge18" class="edge">
<title>9&#45;&gt;10</title>
<path fill="none" stroke="black" d="M357.13,-451.25C372.99,-438.31 394.79,-420.52 411.76,-406.67"/>
<polygon fill="black" stroke="black" points="413.91,-409.43 419.45,-400.39 409.49,-404 413.91,-409.43"/>
</g>
<!-- 12 -->
<g id="node12" class="node">
<title>12</title>
<polygon fill="#fffb81" stroke="black" points="412.75,-325 281.25,-325 281.25,-289 412.75,-289 412.75,-325"/>
<text text-anchor="start" x="289.25" y="-302.32" font-family="DejaVu Sans Mono" font-size="14.00">print(&#39;Small&#39;)</text>
</g>
<!-- 10&#45;&gt;12 -->
<g id="edge12" class="edge">
<title>10&#45;&gt;12</title>
<path fill="none" stroke="green" d="M420.88,-369.1C408.43,-358.8 391.26,-344.6 376.61,-332.48"/>
<polygon fill="green" stroke="green" points="378.98,-329.9 369.04,-326.23 374.52,-335.3 378.98,-329.9"/>
<text text-anchor="middle" x="421.75" y="-336.95" font-family="DejaVu Sans Mono" font-size="14.00">x &lt; 10</text>
</g>
<!-- 14 -->
<g id="node17" class="node">
<title>14</title>
<polygon fill="#ff6752" stroke="black" points="528,-325 430.28,-307 528,-289 625.72,-307 528,-325"/>
<text text-anchor="start" x="466.35" y="-302.32" font-family="DejaVu Sans Mono" font-size="14.00">if x &lt; 20:</text>
</g>
<!-- 10&#45;&gt;14 -->
<g id="edge17" class="edge">
<title>10&#45;&gt;14</title>
<path fill="none" stroke="red" d="M454.93,-369.1C468.29,-357.92 487.16,-342.15 502.37,-329.43"/>
<polygon fill="red" stroke="red" points="504.25,-332.42 509.68,-323.32 499.76,-327.05 504.25,-332.42"/>
<text text-anchor="middle" x="533.12" y="-336.95" font-family="DejaVu Sans Mono" font-size="14.00">(x &gt;= 10)</text>
</g>
<!-- 20 -->
<g id="node13" class="node">
<title>20</title>
<polygon fill="#e552ff" stroke="#e552ff" points="245.62,-247.75 200.38,-247.75 200.38,-251.75 188.38,-251.75 188.38,-211.75 245.62,-211.75 245.62,-247.75"/>
<polyline fill="none" stroke="#e552ff" points="188.38,-247.75 200.38,-247.75"/>
<text text-anchor="middle" x="217" y="-225.07" font-family="DejaVu Sans Mono" font-size="14.00">print</text>
</g>
<!-- 12&#45;&gt;20 -->
<g id="edge8" class="edge">
<title>12&#45;&gt;20</title>
<path fill="none" stroke="black" stroke-dasharray="5,2" d="M312.97,-288.65C295.17,-279.31 273.15,-267.35 254,-255.75 253.13,-255.22 252.25,-254.68 251.37,-254.14"/>
<polygon fill="black" stroke="black" points="253.44,-251.31 243.13,-248.85 249.66,-257.2 253.44,-251.31"/>
<text text-anchor="middle" x="316.62" y="-267.7" font-family="DejaVu Sans Mono" font-size="14.00">calls</text>
</g>
<!-- 21 -->
<g id="node14" class="node">
<title>21</title>
<polygon fill="#ff6752" stroke="black" points="353,-247.75 263.47,-229.75 353,-211.75 442.53,-229.75 353,-247.75"/>
<text text-anchor="start" x="297.18" y="-225.07" font-family="DejaVu Sans Mono" font-size="14.00">if x &gt; 8:</text>
</g>
<!-- 12&#45;&gt;21 -->
<g id="edge11" class="edge">
<title>12&#45;&gt;21</title>
<path fill="none" stroke="black" d="M348.39,-288.55C349.09,-279.84 349.94,-269.09 350.73,-259.23"/>
<polygon fill="black" stroke="black" points="354.21,-259.6 351.52,-249.36 347.23,-259.05 354.21,-259.6"/>
</g>
<!-- 22 -->
<g id="node15" class="node">
<title>22</title>
<polygon fill="#fffb81" stroke="black" points="414.62,-162.5 291.38,-162.5 291.38,-126.5 414.62,-126.5 414.62,-162.5"/>
<text text-anchor="start" x="299.38" y="-139.82" font-family="DejaVu Sans Mono" font-size="14.00">print(&#39;nine&#39;)</text>
</g>
<!-- 21&#45;&gt;22 -->
<g id="edge10" class="edge">
<title>21&#45;&gt;22</title>
<path fill="none" stroke="green" d="M353,-211.5C353,-200.67 353,-186.45 353,-173.98"/>
<polygon fill="green" stroke="green" points="356.5,-174.24 353,-164.24 349.5,-174.24 356.5,-174.24"/>
<text text-anchor="middle" x="373.62" y="-182.45" font-family="DejaVu Sans Mono" font-size="14.00">x &gt; 8</text>
</g>
<!-- 24 -->
<g id="node16" class="node">
<title>24</title>
<polygon fill="#e552ff" stroke="#e552ff" points="381.62,-77.25 336.38,-77.25 336.38,-81.25 324.38,-81.25 324.38,-41.25 381.62,-41.25 381.62,-77.25"/>
<polyline fill="none" stroke="#e552ff" points="324.38,-77.25 336.38,-77.25"/>
<text text-anchor="middle" x="353" y="-54.58" font-family="DejaVu Sans Mono" font-size="14.00">print</text>
</g>
<!-- 22&#45;&gt;24 -->
<g id="edge9" class="edge">
<title>22&#45;&gt;24</title>
<path fill="none" stroke="black" stroke-dasharray="5,2" d="M353,-126.25C353,-115.42 353,-101.2 353,-88.73"/>
<polygon fill="black" stroke="black" points="356.5,-88.99 353,-78.99 349.5,-88.99 356.5,-88.99"/>
<text text-anchor="middle" x="373.62" y="-97.2" font-family="DejaVu Sans Mono" font-size="14.00">calls</text>
</g>
<!-- 15 -->
<g id="node18" class="node">
<title>15</title>
<polygon fill="#fffb81" stroke="black" points="583.5,-247.75 468.5,-247.75 468.5,-211.75 583.5,-211.75 583.5,-247.75"/>
<text text-anchor="start" x="476.5" y="-225.07" font-family="DejaVu Sans Mono" font-size="14.00">print(&#39;Med&#39;)</text>
</g>
<!-- 14&#45;&gt;15 -->
<g id="edge14" class="edge">
<title>14&#45;&gt;15</title>
<path fill="none" stroke="green" d="M527.55,-288.92C527.32,-280.23 527.03,-269.43 526.76,-259.5"/>
<polygon fill="green" stroke="green" points="530.26,-259.43 526.5,-249.53 523.27,-259.62 530.26,-259.43"/>
<text text-anchor="middle" x="551.75" y="-267.7" font-family="DejaVu Sans Mono" font-size="14.00">x &lt; 20</text>
</g>
<!-- 17 -->
<g id="node20" class="node">
<title>17</title>
<polygon fill="#fffb81" stroke="black" points="732.75,-247.75 601.25,-247.75 601.25,-211.75 732.75,-211.75 732.75,-247.75"/>
<text text-anchor="start" x="609.25" y="-225.07" font-family="DejaVu Sans Mono" font-size="14.00">print(&#39;Large&#39;)</text>
</g>
<!-- 14&#45;&gt;17 -->
<g id="edge16" class="edge">
<title>14&#45;&gt;17</title>
<path fill="none" stroke="red" d="M555.46,-293.61C563.74,-289.72 572.81,-285.31 581,-281 596.91,-272.62 614.09,-262.75 628.88,-253.99"/>
<polygon fill="red" stroke="red" points="630.6,-257.05 637.39,-248.91 627.01,-251.03 630.6,-257.05"/>
<text text-anchor="middle" x="649.12" y="-267.7" font-family="DejaVu Sans Mono" font-size="14.00">(x &gt;= 20)</text>
</g>
<!-- 19 -->
<g id="node19" class="node">
<title>19</title>
<polygon fill="#e552ff" stroke="#e552ff" points="554.62,-162.5 509.38,-162.5 509.38,-166.5 497.38,-166.5 497.38,-126.5 554.62,-126.5 554.62,-162.5"/>
<polyline fill="none" stroke="#e552ff" points="497.38,-162.5 509.38,-162.5"/>
<text text-anchor="middle" x="526" y="-139.82" font-family="DejaVu Sans Mono" font-size="14.00">print</text>
</g>
<!-- 15&#45;&gt;19 -->
<g id="edge13" class="edge">
<title>15&#45;&gt;19</title>
<path fill="none" stroke="black" stroke-dasharray="5,2" d="M526,-211.5C526,-200.67 526,-186.45 526,-173.98"/>
<polygon fill="black" stroke="black" points="529.5,-174.24 526,-164.24 522.5,-174.24 529.5,-174.24"/>
<text text-anchor="middle" x="546.62" y="-182.45" font-family="DejaVu Sans Mono" font-size="14.00">calls</text>
</g>
<!-- 18 -->
<g id="node21" class="node">
<title>18</title>
<polygon fill="#e552ff" stroke="#e552ff" points="695.62,-162.5 650.38,-162.5 650.38,-166.5 638.38,-166.5 638.38,-126.5 695.62,-126.5 695.62,-162.5"/>
<polyline fill="none" stroke="#e552ff" points="638.38,-162.5 650.38,-162.5"/>
<text text-anchor="middle" x="667" y="-139.82" font-family="DejaVu Sans Mono" font-size="14.00">print</text>
</g>
<!-- 17&#45;&gt;18 -->
<g id="edge15" class="edge">
<title>17&#45;&gt;18</title>
<path fill="none" stroke="black" stroke-dasharray="5,2" d="M667,-211.5C667,-200.67 667,-186.45 667,-173.98"/>
<polygon fill="black" stroke="black" points="670.5,-174.24 667,-164.24 663.5,-174.24 670.5,-174.24"/>
<text text-anchor="middle" x="687.62" y="-182.45" font-family="DejaVu Sans Mono" font-size="14.00">calls</text>
</g>
<!-- input -->
<g id="node22" class="node">
<title>input</title>
<polygon fill="#afeeee" stroke="black" points="948.88,-556.75 855.21,-556.75 831.12,-520.75 924.79,-520.75 948.88,-556.75"/>
<text text-anchor="middle" x="890" y="-534.08" font-family="DejaVu Sans Mono" font-size="14.00">input</text>
</g>
<!-- call -->
<g id="node27" class="node">
<title>call</title>
<polygon fill="#e552ff" stroke="black" points="917,-487.5 875,-487.5 875,-491.5 863,-491.5 863,-451.5 917,-451.5 917,-487.5"/>
<polyline fill="none" stroke="black" points="863,-487.5 875,-487.5"/>
<text text-anchor="middle" x="890" y="-464.82" font-family="DejaVu Sans Mono" font-size="14.00">call</text>
</g>
<!-- input&#45;&gt;call -->
<!-- default -->
<g id="node23" class="node">
<title>default</title>
<polygon fill="#fffb81" stroke="black" points="782.88,-487.5 709.12,-487.5 709.12,-451.5 782.88,-451.5 782.88,-487.5"/>
<text text-anchor="middle" x="746" y="-464.82" font-family="DejaVu Sans Mono" font-size="14.00">default</text>
</g>
<!-- if -->
<g id="node24" class="node">
<title>if</title>
<polygon fill="#ff6752" stroke="black" points="890,-645.88 857.76,-627.88 890,-609.88 922.24,-627.88 890,-645.88"/>
<text text-anchor="middle" x="890" y="-623.2" font-family="DejaVu Sans Mono" font-size="14.00">if</text>
</g>
<!-- if&#45;&gt;input -->
<!-- for -->
<g id="node25" class="node">
<title>for</title>
<polygon fill="#ffbe52" stroke="black" points="838.01,-627.88 821.5,-645.88 788.5,-645.88 771.99,-627.88 788.5,-609.88 821.5,-609.88 838.01,-627.88"/>
<text text-anchor="middle" x="805" y="-623.2" font-family="DejaVu Sans Mono" font-size="14.00">for</text>
</g>
<!-- return -->
<g id="node28" class="node">
<title>return</title>
<polygon fill="#98fb98" stroke="black" points="813.37,-556.75 706.2,-556.75 678.63,-520.75 785.8,-520.75 813.37,-556.75"/>
<text text-anchor="middle" x="746" y="-534.08" font-family="DejaVu Sans Mono" font-size="14.00">return</text>
</g>
<!-- for&#45;&gt;return -->
<!-- while -->
<g id="node26" class="node">
<title>while</title>
<polygon fill="#ffbe52" stroke="black" points="754.37,-627.88 731.19,-645.88 684.81,-645.88 661.63,-627.88 684.81,-609.88 731.19,-609.88 754.37,-627.88"/>
<text text-anchor="middle" x="708" y="-623.2" font-family="DejaVu Sans Mono" font-size="14.00">while</text>
</g>
<!-- return&#45;&gt;default -->
<!-- try -->
<g id="node29" class="node">
<title>try</title>
<polygon fill="orange" stroke="black" points="603,-645.88 562.57,-627.88 603,-609.88 643.43,-627.88 603,-645.88"/>
<polyline fill="none" stroke="black" points="573.54,-632.76 573.54,-622.99"/>
<polyline fill="none" stroke="black" points="592.04,-614.76 613.96,-614.76"/>
<polyline fill="none" stroke="black" points="632.46,-622.99 632.46,-632.76"/>
<polyline fill="none" stroke="black" points="613.96,-640.99 592.04,-640.99"/>
<text text-anchor="middle" x="603" y="-623.2" font-family="DejaVu Sans Mono" font-size="14.00">try</text>
</g>
<!-- raise -->
<g id="node30" class="node">
<title>raise</title>
<polygon fill="#98fb98" stroke="black" points="660.64,-544.31 611,-556.75 561.36,-544.31 561.41,-524.19 660.59,-524.19 660.64,-544.31"/>
<text text-anchor="middle" x="611" y="-534.08" font-family="DejaVu Sans Mono" font-size="14.00">raise</text>
</g>
<!-- try&#45;&gt;raise -->
</g>
</svg>
