<?xml version="1.0" encoding="UTF-8" standalone="no"?>
<!DOCTYPE svg PUBLIC "-//W3C//DTD SVG 1.1//EN"
 "http://www.w3.org/Graphics/SVG/1.1/DTD/svg11.dtd">
<!-- Generated by graphviz version 9.0.0 (20230911.1827)
 -->
<!-- Title: cluster0branching&#45;caesar&#45;01 Pages: 1 -->
<svg width="1540pt" height="496pt"
 viewBox="0.00 0.00 1540.00 496.00" xmlns="http://www.w3.org/2000/svg" xmlns:xlink="http://www.w3.org/1999/xlink">
<g id="graph0" class="graph" transform="scale(1 1) rotate(0) translate(4 492)">
<title>cluster0branching&#45;caesar&#45;01</title>
<polygon fill="white" stroke="none" points="-4,4 -4,-492 1536,-492 1536,4 -4,4"/>
<text text-anchor="middle" x="766" y="-7.95" font-family="DejaVu Sans Mono" font-size="14.00">branching&#45;caesar&#45;01</text>
<g id="clust1" class="cluster">
<title>cluster_1</title>
<polygon fill="purple" stroke="purple" points="8,-118.5 8,-239.75 526,-239.75 526,-118.5 8,-118.5"/>
</g>
<g id="clust2" class="cluster">
<title>cluster_13</title>
<polygon fill="purple" stroke="purple" points="637,-33.25 637,-85.25 711,-85.25 711,-33.25 637,-33.25"/>
</g>
<g id="clust3" class="cluster">
<title>cluster_15</title>
<polygon fill="purple" stroke="purple" points="935,-33.25 935,-85.25 1009,-85.25 1009,-33.25 935,-33.25"/>
</g>
<g id="clust4" class="cluster">
<title>cluster_KEY</title>
<polygon fill="none" stroke="black" points="1120,-118.5 1120,-431.75 1524,-431.75 1524,-118.5 1120,-118.5"/>
<text text-anchor="middle" x="1322" y="-414.45" font-family="DejaVu Sans Mono" font-size="14.00">KEY</text>
</g>
<!-- 1 -->
<g id="node1" class="node">
<title>1</title>
<polygon fill="#fffb81" stroke="black" points="515.25,-488 86.75,-488 86.75,-273 515.25,-273 515.25,-488"/>
<text text-anchor="start" x="94.75" y="-470.7" font-family="DejaVu Sans Mono" font-size="14.00">print(&quot;&quot;&quot;</text>
<text text-anchor="start" x="94.75" y="-453.45" font-family="DejaVu Sans Mono" font-size="14.00">Enter your Caesar key in numeric form (1&#45;25): &quot;&quot;&quot;)</text>
<text text-anchor="start" x="94.75" y="-436.2" font-family="DejaVu Sans Mono" font-size="14.00">key: int = int(input())</text>
<text text-anchor="start" x="94.75" y="-418.95" font-family="DejaVu Sans Mono" font-size="14.00">print(&quot;&quot;&quot;</text>
<text text-anchor="start" x="94.75" y="-401.7" font-family="DejaVu Sans Mono" font-size="14.00">Enter 1 for encryption, and 0 for decryption: &quot;&quot;&quot;)</text>
<text text-anchor="start" x="94.75" y="-384.45" font-family="DejaVu Sans Mono" font-size="14.00">mode: int = int(input())</text>
<text text-anchor="start" x="94.75" y="-367.2" font-family="DejaVu Sans Mono" font-size="14.00">print(&quot;&quot;&quot;</text>
<text text-anchor="start" x="94.75" y="-349.95" font-family="DejaVu Sans Mono" font-size="14.00">Enter your single character, Caesar encoded: &quot;&quot;&quot;)</text>
<text text-anchor="start" x="94.75" y="-332.7" font-family="DejaVu Sans Mono" font-size="14.00">encoded_char: int = int(input())</text>
<text text-anchor="start" x="94.75" y="-315.45" font-family="DejaVu Sans Mono" font-size="14.00">print(&quot;&quot;&quot;</text>
<text text-anchor="start" x="94.75" y="-298.2" font-family="DejaVu Sans Mono" font-size="14.00">Your message translation is:</text>
<text text-anchor="start" x="94.75" y="-280.95" font-family="DejaVu Sans Mono" font-size="14.00">&quot;&quot;&quot;)</text>
</g>
<!-- 2 -->
<g id="node2" class="node">
<title>2</title>
<polygon fill="#e552ff" stroke="#e552ff" points="73.62,-231.75 28.38,-231.75 28.38,-235.75 16.37,-235.75 16.37,-195.75 73.62,-195.75 73.62,-231.75"/>
<polyline fill="none" stroke="#e552ff" points="16.37,-231.75 28.38,-231.75"/>
<text text-anchor="middle" x="45" y="-209.07" font-family="DejaVu Sans Mono" font-size="14.00">print</text>
</g>
<!-- 1&#45;&gt;2 -->
<g id="edge1" class="edge">
<title>1&#45;&gt;2</title>
<path fill="none" stroke="black" stroke-dasharray="5,2" d="M117.03,-272.76C113.22,-270.18 109.45,-267.59 105.75,-265 94.68,-257.25 83.1,-248 73.07,-239.56"/>
<polygon fill="black" stroke="black" points="75.37,-236.92 65.49,-233.09 70.82,-242.24 75.37,-236.92"/>
<text text-anchor="middle" x="126.62" y="-251.7" font-family="DejaVu Sans Mono" font-size="14.00">calls</text>
</g>
<!-- 3 -->
<g id="node3" class="node">
<title>3</title>
<polygon fill="#e552ff" stroke="#e552ff" points="146,-231.75 104,-231.75 104,-235.75 92,-235.75 92,-195.75 146,-195.75 146,-231.75"/>
<polyline fill="none" stroke="#e552ff" points="92,-231.75 104,-231.75"/>
<text text-anchor="middle" x="119" y="-209.07" font-family="DejaVu Sans Mono" font-size="14.00">int</text>
</g>
<!-- 1&#45;&gt;3 -->
<g id="edge2" class="edge">
<title>1&#45;&gt;3</title>
<path fill="none" stroke="black" stroke-dasharray="5,2" d="M176.85,-272.52C174.11,-270 171.41,-267.49 168.75,-265 160.23,-257.03 151.19,-248.06 143.17,-239.92"/>
<polygon fill="black" stroke="black" points="145.82,-237.62 136.33,-232.91 140.81,-242.51 145.82,-237.62"/>
<text text-anchor="middle" x="188.62" y="-251.7" font-family="DejaVu Sans Mono" font-size="14.00">calls</text>
</g>
<!-- 5 -->
<g id="node4" class="node">
<title>5</title>
<polygon fill="#e552ff" stroke="#e552ff" points="221.62,-231.75 176.38,-231.75 176.38,-235.75 164.38,-235.75 164.38,-195.75 221.62,-195.75 221.62,-231.75"/>
<polyline fill="none" stroke="#e552ff" points="164.38,-231.75 176.38,-231.75"/>
<text text-anchor="middle" x="193" y="-209.07" font-family="DejaVu Sans Mono" font-size="14.00">print</text>
</g>
<!-- 1&#45;&gt;5 -->
<g id="edge3" class="edge">
<title>1&#45;&gt;5</title>
<path fill="none" stroke="black" stroke-dasharray="5,2" d="M230.69,-272.55C229.03,-270.01 227.38,-267.49 225.75,-265 220.75,-257.37 215.34,-249.07 210.38,-241.46"/>
<polygon fill="black" stroke="black" points="213.42,-239.71 205.03,-233.24 207.55,-243.53 213.42,-239.71"/>
<text text-anchor="middle" x="245.62" y="-251.7" font-family="DejaVu Sans Mono" font-size="14.00">calls</text>
</g>
<!-- 6 -->
<g id="node5" class="node">
<title>6</title>
<polygon fill="#e552ff" stroke="#e552ff" points="294,-231.75 252,-231.75 252,-235.75 240,-235.75 240,-195.75 294,-195.75 294,-231.75"/>
<polyline fill="none" stroke="#e552ff" points="240,-231.75 252,-231.75"/>
<text text-anchor="middle" x="267" y="-209.07" font-family="DejaVu Sans Mono" font-size="14.00">int</text>
</g>
<!-- 1&#45;&gt;6 -->
<g id="edge4" class="edge">
<title>1&#45;&gt;6</title>
<path fill="none" stroke="black" stroke-dasharray="5,2" d="M276.23,-272.59C275.72,-270.04 275.23,-267.5 274.75,-265 273.41,-258 272.14,-250.42 271.04,-243.32"/>
<polygon fill="black" stroke="black" points="274.51,-242.88 269.57,-233.51 267.59,-243.92 274.51,-242.88"/>
<text text-anchor="middle" x="294.62" y="-251.7" font-family="DejaVu Sans Mono" font-size="14.00">calls</text>
</g>
<!-- 8 -->
<g id="node6" class="node">
<title>8</title>
<polygon fill="#e552ff" stroke="#e552ff" points="369.62,-231.75 324.38,-231.75 324.38,-235.75 312.38,-235.75 312.38,-195.75 369.62,-195.75 369.62,-231.75"/>
<polyline fill="none" stroke="#e552ff" points="312.38,-231.75 324.38,-231.75"/>
<text text-anchor="middle" x="341" y="-209.07" font-family="DejaVu Sans Mono" font-size="14.00">print</text>
</g>
<!-- 1&#45;&gt;8 -->
<g id="edge5" class="edge">
<title>1&#45;&gt;8</title>
<path fill="none" stroke="black" stroke-dasharray="5,2" d="M326.9,-272.83C329.52,-262.03 331.99,-251.84 334.12,-243.1"/>
<polygon fill="black" stroke="black" points="337.46,-244.18 336.42,-233.63 330.65,-242.53 337.46,-244.18"/>
<text text-anchor="middle" x="352.62" y="-251.7" font-family="DejaVu Sans Mono" font-size="14.00">calls</text>
</g>
<!-- 9 -->
<g id="node7" class="node">
<title>9</title>
<polygon fill="#e552ff" stroke="#e552ff" points="442,-231.75 400,-231.75 400,-235.75 388,-235.75 388,-195.75 442,-195.75 442,-231.75"/>
<polyline fill="none" stroke="#e552ff" points="388,-231.75 400,-231.75"/>
<text text-anchor="middle" x="415" y="-209.07" font-family="DejaVu Sans Mono" font-size="14.00">int</text>
</g>
<!-- 1&#45;&gt;9 -->
<g id="edge6" class="edge">
<title>1&#45;&gt;9</title>
<path fill="none" stroke="black" stroke-dasharray="5,2" d="M374.81,-272.83C382.71,-261.42 390.13,-250.69 396.4,-241.63"/>
<polygon fill="black" stroke="black" points="399.28,-243.62 402.09,-233.41 393.52,-239.64 399.28,-243.62"/>
<text text-anchor="middle" x="410.62" y="-251.7" font-family="DejaVu Sans Mono" font-size="14.00">calls</text>
</g>
<!-- 11 -->
<g id="node8" class="node">
<title>11</title>
<polygon fill="#e552ff" stroke="#e552ff" points="517.62,-231.75 472.38,-231.75 472.38,-235.75 460.38,-235.75 460.38,-195.75 517.62,-195.75 517.62,-231.75"/>
<polyline fill="none" stroke="#e552ff" points="460.38,-231.75 472.38,-231.75"/>
<text text-anchor="middle" x="489" y="-209.07" font-family="DejaVu Sans Mono" font-size="14.00">print</text>
</g>
<!-- 1&#45;&gt;11 -->
<g id="edge7" class="edge">
<title>1&#45;&gt;11</title>
<path fill="none" stroke="black" stroke-dasharray="5,2" d="M426.32,-272.7C429.25,-270.12 432.15,-267.55 435,-265 444.03,-256.95 453.75,-247.99 462.43,-239.9"/>
<polygon fill="black" stroke="black" points="464.68,-242.58 469.58,-233.19 459.89,-237.48 464.68,-242.58"/>
<text text-anchor="middle" x="473.62" y="-251.7" font-family="DejaVu Sans Mono" font-size="14.00">calls</text>
</g>
<!-- 12 -->
<g id="node12" class="node">
<title>12</title>
<polygon fill="#ff6752" stroke="black" points="674,-231.75 551.73,-213.75 674,-195.75 796.27,-213.75 674,-231.75"/>
<text text-anchor="start" x="594.85" y="-209.07" font-family="DejaVu Sans Mono" font-size="14.00">if mode == 1:</text>
</g>
<!-- 1&#45;&gt;12 -->
<g id="edge15" class="edge">
<title>1&#45;&gt;12</title>
<path fill="none" stroke="black" d="M515.54,-284.74C561.04,-264.65 604.25,-245.56 634.02,-232.41"/>
<polygon fill="black" stroke="black" points="635.24,-235.69 642.98,-228.45 632.42,-229.29 635.24,-235.69"/>
</g>
<!-- 4 -->
<g id="node9" class="node">
<title>4</title>
<polygon fill="#e552ff" stroke="#e552ff" points="147.62,-162.5 102.38,-162.5 102.38,-166.5 90.38,-166.5 90.38,-126.5 147.62,-126.5 147.62,-162.5"/>
<polyline fill="none" stroke="#e552ff" points="90.38,-162.5 102.38,-162.5"/>
<text text-anchor="middle" x="119" y="-139.82" font-family="DejaVu Sans Mono" font-size="14.00">input</text>
</g>
<!-- 3&#45;&gt;4 -->
<g id="edge8" class="edge">
<title>3&#45;&gt;4</title>
<path fill="none" stroke="black" d="M119,-195.43C119,-189.05 119,-181.63 119,-174.5"/>
<polygon fill="black" stroke="black" points="122.5,-174.51 119,-164.51 115.5,-174.51 122.5,-174.51"/>
</g>
<!-- 7 -->
<g id="node10" class="node">
<title>7</title>
<polygon fill="#e552ff" stroke="#e552ff" points="295.62,-162.5 250.38,-162.5 250.38,-166.5 238.38,-166.5 238.38,-126.5 295.62,-126.5 295.62,-162.5"/>
<polyline fill="none" stroke="#e552ff" points="238.38,-162.5 250.38,-162.5"/>
<text text-anchor="middle" x="267" y="-139.82" font-family="DejaVu Sans Mono" font-size="14.00">input</text>
</g>
<!-- 6&#45;&gt;7 -->
<g id="edge9" class="edge">
<title>6&#45;&gt;7</title>
<path fill="none" stroke="black" d="M267,-195.43C267,-189.05 267,-181.63 267,-174.5"/>
<polygon fill="black" stroke="black" points="270.5,-174.51 267,-164.51 263.5,-174.51 270.5,-174.51"/>
</g>
<!-- 10 -->
<g id="node11" class="node">
<title>10</title>
<polygon fill="#e552ff" stroke="#e552ff" points="443.62,-162.5 398.38,-162.5 398.38,-166.5 386.38,-166.5 386.38,-126.5 443.62,-126.5 443.62,-162.5"/>
<polyline fill="none" stroke="#e552ff" points="386.38,-162.5 398.38,-162.5"/>
<text text-anchor="middle" x="415" y="-139.82" font-family="DejaVu Sans Mono" font-size="14.00">input</text>
</g>
<!-- 9&#45;&gt;10 -->
<g id="edge10" class="edge">
<title>9&#45;&gt;10</title>
<path fill="none" stroke="black" d="M415,-195.43C415,-189.05 415,-181.63 415,-174.5"/>
<polygon fill="black" stroke="black" points="418.5,-174.51 415,-164.51 411.5,-174.51 418.5,-174.51"/>
</g>
<!-- 13 -->
<g id="node13" class="node">
<title>13</title>
<polygon fill="#fffb81" stroke="black" points="814,-162.5 534,-162.5 534,-126.5 814,-126.5 814,-162.5"/>
<text text-anchor="start" x="542" y="-139.82" font-family="DejaVu Sans Mono" font-size="14.00">print((encoded_char + key) % 26)</text>
</g>
<!-- 12&#45;&gt;13 -->
<g id="edge12" class="edge">
<title>12&#45;&gt;13</title>
<path fill="none" stroke="green" d="M674,-195.43C674,-189.05 674,-181.63 674,-174.5"/>
<polygon fill="green" stroke="green" points="677.5,-174.51 674,-164.51 670.5,-174.51 677.5,-174.51"/>
<text text-anchor="middle" x="711.12" y="-174.45" font-family="DejaVu Sans Mono" font-size="14.00">mode == 1</text>
</g>
<!-- 15 -->
<g id="node15" class="node">
<title>15</title>
<polygon fill="#fffb81" stroke="black" points="1112,-162.5 832,-162.5 832,-126.5 1112,-126.5 1112,-162.5"/>
<text text-anchor="start" x="840" y="-139.82" font-family="DejaVu Sans Mono" font-size="14.00">print((encoded_char &#45; key) % 26)</text>
</g>
<!-- 12&#45;&gt;15 -->
<g id="edge14" class="edge">
<title>12&#45;&gt;15</title>
<path fill="none" stroke="red" d="M720.89,-202.17C764.35,-192.36 830.14,-177.51 883.47,-165.48"/>
<polygon fill="red" stroke="red" points="884.19,-168.9 893.18,-163.29 882.65,-162.08 884.19,-168.9"/>
<text text-anchor="middle" x="903.38" y="-174.45" font-family="DejaVu Sans Mono" font-size="14.00">(mode != 1)</text>
</g>
<!-- 17 -->
<g id="node14" class="node">
<title>17</title>
<polygon fill="#e552ff" stroke="#e552ff" points="702.62,-77.25 657.38,-77.25 657.38,-81.25 645.38,-81.25 645.38,-41.25 702.62,-41.25 702.62,-77.25"/>
<polyline fill="none" stroke="#e552ff" points="645.38,-77.25 657.38,-77.25"/>
<text text-anchor="middle" x="674" y="-54.58" font-family="DejaVu Sans Mono" font-size="14.00">print</text>
</g>
<!-- 13&#45;&gt;17 -->
<g id="edge11" class="edge">
<title>13&#45;&gt;17</title>
<path fill="none" stroke="black" stroke-dasharray="5,2" d="M674,-126.25C674,-115.42 674,-101.2 674,-88.73"/>
<polygon fill="black" stroke="black" points="677.5,-88.99 674,-78.99 670.5,-88.99 677.5,-88.99"/>
<text text-anchor="middle" x="694.62" y="-97.2" font-family="DejaVu Sans Mono" font-size="14.00">calls</text>
</g>
<!-- 16 -->
<g id="node16" class="node">
<title>16</title>
<polygon fill="#e552ff" stroke="#e552ff" points="1000.62,-77.25 955.38,-77.25 955.38,-81.25 943.38,-81.25 943.38,-41.25 1000.62,-41.25 1000.62,-77.25"/>
<polyline fill="none" stroke="#e552ff" points="943.38,-77.25 955.38,-77.25"/>
<text text-anchor="middle" x="972" y="-54.58" font-family="DejaVu Sans Mono" font-size="14.00">print</text>
</g>
<!-- 15&#45;&gt;16 -->
<g id="edge13" class="edge">
<title>15&#45;&gt;16</title>
<path fill="none" stroke="black" stroke-dasharray="5,2" d="M972,-126.25C972,-115.42 972,-101.2 972,-88.73"/>
<polygon fill="black" stroke="black" points="975.5,-88.99 972,-78.99 968.5,-88.99 975.5,-88.99"/>
<text text-anchor="middle" x="992.62" y="-97.2" font-family="DejaVu Sans Mono" font-size="14.00">calls</text>
</g>
<!-- input -->
<g id="node17" class="node">
<title>input</title>
<polygon fill="#afeeee" stroke="black" points="1515.88,-231.75 1422.21,-231.75 1398.12,-195.75 1491.79,-195.75 1515.88,-231.75"/>
<text text-anchor="middle" x="1457" y="-209.07" font-family="DejaVu Sans Mono" font-size="14.00">input</text>
</g>
<!-- call -->
<g id="node22" class="node">
<title>call</title>
<polygon fill="#e552ff" stroke="black" points="1484,-162.5 1442,-162.5 1442,-166.5 1430,-166.5 1430,-126.5 1484,-126.5 1484,-162.5"/>
<polyline fill="none" stroke="black" points="1430,-162.5 1442,-162.5"/>
<text text-anchor="middle" x="1457" y="-139.82" font-family="DejaVu Sans Mono" font-size="14.00">call</text>
</g>
<!-- input&#45;&gt;call -->
<!-- default -->
<g id="node18" class="node">
<title>default</title>
<polygon fill="#fffb81" stroke="black" points="1349.88,-162.5 1276.12,-162.5 1276.12,-126.5 1349.88,-126.5 1349.88,-162.5"/>
<text text-anchor="middle" x="1313" y="-139.82" font-family="DejaVu Sans Mono" font-size="14.00">default</text>
</g>
<!-- if -->
<g id="node19" class="node">
<title>if</title>
<polygon fill="#ff6752" stroke="black" points="1457,-398.5 1424.76,-380.5 1457,-362.5 1489.24,-380.5 1457,-398.5"/>
<text text-anchor="middle" x="1457" y="-375.82" font-family="DejaVu Sans Mono" font-size="14.00">if</text>
</g>
<!-- if&#45;&gt;input -->
<!-- for -->
<g id="node20" class="node">
<title>for</title>
<polygon fill="#ffbe52" stroke="black" points="1405.01,-380.5 1388.5,-398.5 1355.5,-398.5 1338.99,-380.5 1355.5,-362.5 1388.5,-362.5 1405.01,-380.5"/>
<text text-anchor="middle" x="1372" y="-375.82" font-family="DejaVu Sans Mono" font-size="14.00">for</text>
</g>
<!-- return -->
<g id="node23" class="node">
<title>return</title>
<polygon fill="#98fb98" stroke="black" points="1380.37,-231.75 1273.2,-231.75 1245.63,-195.75 1352.8,-195.75 1380.37,-231.75"/>
<text text-anchor="middle" x="1313" y="-209.07" font-family="DejaVu Sans Mono" font-size="14.00">return</text>
</g>
<!-- for&#45;&gt;return -->
<!-- while -->
<g id="node21" class="node">
<title>while</title>
<polygon fill="#ffbe52" stroke="black" points="1321.37,-380.5 1298.19,-398.5 1251.81,-398.5 1228.63,-380.5 1251.81,-362.5 1298.19,-362.5 1321.37,-380.5"/>
<text text-anchor="middle" x="1275" y="-375.82" font-family="DejaVu Sans Mono" font-size="14.00">while</text>
</g>
<!-- return&#45;&gt;default -->
<!-- try -->
<g id="node24" class="node">
<title>try</title>
<polygon fill="orange" stroke="black" points="1170,-398.5 1129.57,-380.5 1170,-362.5 1210.43,-380.5 1170,-398.5"/>
<polyline fill="none" stroke="black" points="1140.54,-385.38 1140.54,-375.62"/>
<polyline fill="none" stroke="black" points="1159.04,-367.38 1180.96,-367.38"/>
<polyline fill="none" stroke="black" points="1199.46,-375.62 1199.46,-385.38"/>
<polyline fill="none" stroke="black" points="1180.96,-393.62 1159.04,-393.62"/>
<text text-anchor="middle" x="1170" y="-375.82" font-family="DejaVu Sans Mono" font-size="14.00">try</text>
</g>
<!-- raise -->
<g id="node25" class="node">
<title>raise</title>
<polygon fill="#98fb98" stroke="black" points="1227.64,-219.31 1178,-231.75 1128.36,-219.31 1128.41,-199.19 1227.59,-199.19 1227.64,-219.31"/>
<text text-anchor="middle" x="1178" y="-209.07" font-family="DejaVu Sans Mono" font-size="14.00">raise</text>
</g>
<!-- try&#45;&gt;raise -->
</g>
</svg>
