<?xml version="1.0" encoding="UTF-8" standalone="no"?>
<!DOCTYPE svg PUBLIC "-//W3C//DTD SVG 1.1//EN"
 "http://www.w3.org/Graphics/SVG/1.1/DTD/svg11.dtd">
<!-- Generated by graphviz version 9.0.0 (20230911.1827)
 -->
<!-- Title: cluster0branching&#45;caesar&#45;02 Pages: 1 -->
<svg width="1029pt" height="412pt"
 viewBox="0.00 0.00 1029.00 411.75" xmlns="http://www.w3.org/2000/svg" xmlns:xlink="http://www.w3.org/1999/xlink">
<g id="graph0" class="graph" transform="scale(1 1) rotate(0) translate(4 407.75)">
<title>cluster0branching&#45;caesar&#45;02</title>
<polygon fill="white" stroke="none" points="-4,4 -4,-407.75 1025,-407.75 1025,4 -4,4"/>
<text text-anchor="middle" x="510.5" y="-7.95" font-family="DejaVu Sans Mono" font-size="14.00">branching&#45;caesar&#45;02</text>
<g id="clust1" class="cluster">
<title>cluster_1</title>
<polygon fill="purple" stroke="purple" points="8,-33.25 8,-138.25 601,-138.25 601,-33.25 8,-33.25"/>
</g>
<g id="clust2" class="cluster">
<title>cluster_KEY</title>
<polygon fill="none" stroke="black" points="609,-33.25 609,-338.88 1013,-338.88 1013,-33.25 609,-33.25"/>
<text text-anchor="middle" x="811" y="-321.57" font-family="DejaVu Sans Mono" font-size="14.00">KEY</text>
</g>
<!-- 1 -->
<g id="node1" class="node">
<title>1</title>
<polygon fill="#fffb81" stroke="black" points="519.38,-403.75 82.62,-403.75 82.62,-171.5 519.38,-171.5 519.38,-403.75"/>
<text text-anchor="start" x="90.62" y="-386.45" font-family="DejaVu Sans Mono" font-size="14.00">print(&quot;&quot;&quot;</text>
<text text-anchor="start" x="90.62" y="-369.2" font-family="DejaVu Sans Mono" font-size="14.00">Enter your Caesar key in numeric form (1&#45;25): &quot;&quot;&quot;)</text>
<text text-anchor="start" x="90.62" y="-351.95" font-family="DejaVu Sans Mono" font-size="14.00">key: int = int(input())</text>
<text text-anchor="start" x="90.62" y="-334.7" font-family="DejaVu Sans Mono" font-size="14.00">print(&quot;&quot;&quot;</text>
<text text-anchor="start" x="90.62" y="-317.45" font-family="DejaVu Sans Mono" font-size="14.00">Enter 1 for encryption, and &#45;1 for decryption: &quot;&quot;&quot;)</text>
<text text-anchor="start" x="90.62" y="-300.2" font-family="DejaVu Sans Mono" font-size="14.00">mode: int = int(input())</text>
<text text-anchor="start" x="90.62" y="-282.95" font-family="DejaVu Sans Mono" font-size="14.00">print(&quot;&quot;&quot;</text>
<text text-anchor="start" x="90.62" y="-265.7" font-family="DejaVu Sans Mono" font-size="14.00">Enter your single character, Caesar encoded: &quot;&quot;&quot;)</text>
<text text-anchor="start" x="90.62" y="-248.45" font-family="DejaVu Sans Mono" font-size="14.00">encoded_char: int = int(input())</text>
<text text-anchor="start" x="90.62" y="-231.2" font-family="DejaVu Sans Mono" font-size="14.00">print(&quot;&quot;&quot;</text>
<text text-anchor="start" x="90.62" y="-213.95" font-family="DejaVu Sans Mono" font-size="14.00">Your message translation is:</text>
<text text-anchor="start" x="90.62" y="-196.7" font-family="DejaVu Sans Mono" font-size="14.00">&quot;&quot;&quot;)</text>
<text text-anchor="start" x="90.62" y="-179.45" font-family="DejaVu Sans Mono" font-size="14.00">print((encoded_char + key * mode) % 26)</text>
</g>
<!-- 2 -->
<g id="node2" class="node">
<title>2</title>
<polygon fill="#e552ff" stroke="#e552ff" points="73.62,-130.25 28.38,-130.25 28.38,-134.25 16.37,-134.25 16.37,-94.25 73.62,-94.25 73.62,-130.25"/>
<polyline fill="none" stroke="#e552ff" points="16.37,-130.25 28.38,-130.25"/>
<text text-anchor="middle" x="45" y="-107.58" font-family="DejaVu Sans Mono" font-size="14.00">print</text>
</g>
<!-- 1&#45;&gt;2 -->
<g id="edge1" class="edge">
<title>1&#45;&gt;2</title>
<path fill="none" stroke="black" stroke-dasharray="5,2" d="M118.57,-171.16C114.92,-168.6 111.31,-166.05 107.75,-163.5 96.51,-155.46 84.58,-146.12 74.18,-137.69"/>
<polygon fill="black" stroke="black" points="76.61,-135.16 66.65,-131.53 72.17,-140.58 76.61,-135.16"/>
<text text-anchor="middle" x="128.62" y="-150.2" font-family="DejaVu Sans Mono" font-size="14.00">calls</text>
</g>
<!-- 3 -->
<g id="node3" class="node">
<title>3</title>
<polygon fill="#e552ff" stroke="#e552ff" points="146,-130.25 104,-130.25 104,-134.25 92,-134.25 92,-94.25 146,-94.25 146,-130.25"/>
<polyline fill="none" stroke="#e552ff" points="92,-130.25 104,-130.25"/>
<text text-anchor="middle" x="119" y="-107.58" font-family="DejaVu Sans Mono" font-size="14.00">int</text>
</g>
<!-- 1&#45;&gt;3 -->
<g id="edge2" class="edge">
<title>1&#45;&gt;3</title>
<path fill="none" stroke="black" stroke-dasharray="5,2" d="M176.61,-171.1C173.96,-168.55 171.34,-166.01 168.75,-163.5 160.51,-155.51 151.65,-146.65 143.72,-138.62"/>
<polygon fill="black" stroke="black" points="146.44,-136.39 136.93,-131.71 141.44,-141.3 146.44,-136.39"/>
<text text-anchor="middle" x="189.62" y="-150.2" font-family="DejaVu Sans Mono" font-size="14.00">calls</text>
</g>
<!-- 5 -->
<g id="node4" class="node">
<title>5</title>
<polygon fill="#e552ff" stroke="#e552ff" points="221.62,-130.25 176.38,-130.25 176.38,-134.25 164.38,-134.25 164.38,-94.25 221.62,-94.25 221.62,-130.25"/>
<polyline fill="none" stroke="#e552ff" points="164.38,-130.25 176.38,-130.25"/>
<text text-anchor="middle" x="193" y="-107.58" font-family="DejaVu Sans Mono" font-size="14.00">print</text>
</g>
<!-- 1&#45;&gt;5 -->
<g id="edge3" class="edge">
<title>1&#45;&gt;5</title>
<path fill="none" stroke="black" stroke-dasharray="5,2" d="M229.26,-171.46C222.15,-160.05 215.5,-149.37 209.89,-140.36"/>
<polygon fill="black" stroke="black" points="212.86,-138.52 204.61,-131.88 206.92,-142.22 212.86,-138.52"/>
<text text-anchor="middle" x="242.62" y="-150.2" font-family="DejaVu Sans Mono" font-size="14.00">calls</text>
</g>
<!-- 6 -->
<g id="node5" class="node">
<title>6</title>
<polygon fill="#e552ff" stroke="#e552ff" points="294,-130.25 252,-130.25 252,-134.25 240,-134.25 240,-94.25 294,-94.25 294,-130.25"/>
<polyline fill="none" stroke="#e552ff" points="240,-130.25 252,-130.25"/>
<text text-anchor="middle" x="267" y="-107.58" font-family="DejaVu Sans Mono" font-size="14.00">int</text>
</g>
<!-- 1&#45;&gt;6 -->
<g id="edge4" class="edge">
<title>1&#45;&gt;6</title>
<path fill="none" stroke="black" stroke-dasharray="5,2" d="M276.21,-171.32C275.71,-168.69 275.22,-166.08 274.75,-163.5 273.46,-156.49 272.22,-148.91 271.12,-141.81"/>
<polygon fill="black" stroke="black" points="274.59,-141.36 269.64,-132 267.67,-142.41 274.59,-141.36"/>
<text text-anchor="middle" x="295.62" y="-150.2" font-family="DejaVu Sans Mono" font-size="14.00">calls</text>
</g>
<!-- 8 -->
<g id="node6" class="node">
<title>8</title>
<polygon fill="#e552ff" stroke="#e552ff" points="369.62,-130.25 324.38,-130.25 324.38,-134.25 312.38,-134.25 312.38,-94.25 369.62,-94.25 369.62,-130.25"/>
<polyline fill="none" stroke="#e552ff" points="312.38,-130.25 324.38,-130.25"/>
<text text-anchor="middle" x="341" y="-107.58" font-family="DejaVu Sans Mono" font-size="14.00">print</text>
</g>
<!-- 1&#45;&gt;8 -->
<g id="edge5" class="edge">
<title>1&#45;&gt;8</title>
<path fill="none" stroke="black" stroke-dasharray="5,2" d="M327.57,-171.46C330.09,-160.54 332.45,-150.3 334.47,-141.54"/>
<polygon fill="black" stroke="black" points="337.82,-142.6 336.66,-132.07 331,-141.03 337.82,-142.6"/>
<text text-anchor="middle" x="354.62" y="-150.2" font-family="DejaVu Sans Mono" font-size="14.00">calls</text>
</g>
<!-- 9 -->
<g id="node7" class="node">
<title>9</title>
<polygon fill="#e552ff" stroke="#e552ff" points="442,-130.25 400,-130.25 400,-134.25 388,-134.25 388,-94.25 442,-94.25 442,-130.25"/>
<polyline fill="none" stroke="#e552ff" points="388,-130.25 400,-130.25"/>
<text text-anchor="middle" x="415" y="-107.58" font-family="DejaVu Sans Mono" font-size="14.00">int</text>
</g>
<!-- 1&#45;&gt;9 -->
<g id="edge6" class="edge">
<title>1&#45;&gt;9</title>
<path fill="none" stroke="black" stroke-dasharray="5,2" d="M376.72,-171.46C384.31,-159.92 391.4,-149.14 397.37,-140.06"/>
<polygon fill="black" stroke="black" points="400.19,-142.14 402.76,-131.86 394.34,-138.29 400.19,-142.14"/>
<text text-anchor="middle" x="414.62" y="-150.2" font-family="DejaVu Sans Mono" font-size="14.00">calls</text>
</g>
<!-- 11 -->
<g id="node8" class="node">
<title>11</title>
<polygon fill="#e552ff" stroke="#e552ff" points="517.62,-130.25 472.38,-130.25 472.38,-134.25 460.38,-134.25 460.38,-94.25 517.62,-94.25 517.62,-130.25"/>
<polyline fill="none" stroke="#e552ff" points="460.38,-130.25 472.38,-130.25"/>
<text text-anchor="middle" x="489" y="-107.58" font-family="DejaVu Sans Mono" font-size="14.00">print</text>
</g>
<!-- 1&#45;&gt;11 -->
<g id="edge7" class="edge">
<title>1&#45;&gt;11</title>
<path fill="none" stroke="black" stroke-dasharray="5,2" d="M430.85,-171.17C433.6,-168.6 436.32,-166.04 439,-163.5 447.36,-155.59 456.28,-146.75 464.24,-138.72"/>
<polygon fill="black" stroke="black" points="466.54,-141.37 471.06,-131.79 461.55,-136.46 466.54,-141.37"/>
<text text-anchor="middle" x="476.62" y="-150.2" font-family="DejaVu Sans Mono" font-size="14.00">calls</text>
</g>
<!-- 12 -->
<g id="node9" class="node">
<title>12</title>
<polygon fill="#e552ff" stroke="#e552ff" points="592.62,-130.25 547.38,-130.25 547.38,-134.25 535.38,-134.25 535.38,-94.25 592.62,-94.25 592.62,-130.25"/>
<polyline fill="none" stroke="#e552ff" points="535.38,-130.25 547.38,-130.25"/>
<text text-anchor="middle" x="564" y="-107.58" font-family="DejaVu Sans Mono" font-size="14.00">print</text>
</g>
<!-- 1&#45;&gt;12 -->
<g id="edge8" class="edge">
<title>1&#45;&gt;12</title>
<path fill="none" stroke="black" stroke-dasharray="5,2" d="M490.1,-171.07C493.78,-168.55 497.41,-166.02 501,-163.5 512.33,-155.54 524.32,-146.22 534.76,-137.78"/>
<polygon fill="black" stroke="black" points="536.79,-140.65 542.32,-131.61 532.36,-135.23 536.79,-140.65"/>
<text text-anchor="middle" x="544.62" y="-150.2" font-family="DejaVu Sans Mono" font-size="14.00">calls</text>
</g>
<!-- 4 -->
<g id="node10" class="node">
<title>4</title>
<polygon fill="#e552ff" stroke="#e552ff" points="147.62,-77.25 102.38,-77.25 102.38,-81.25 90.38,-81.25 90.38,-41.25 147.62,-41.25 147.62,-77.25"/>
<polyline fill="none" stroke="#e552ff" points="90.38,-77.25 102.38,-77.25"/>
<text text-anchor="middle" x="119" y="-54.58" font-family="DejaVu Sans Mono" font-size="14.00">input</text>
</g>
<!-- 3&#45;&gt;4 -->
<g id="edge9" class="edge">
<title>3&#45;&gt;4</title>
<path fill="none" stroke="black" d="M119,-93.98C119,-92.32 119,-90.61 119,-88.87"/>
<polygon fill="black" stroke="black" points="122.5,-89.01 119,-79.01 115.5,-89.01 122.5,-89.01"/>
</g>
<!-- 7 -->
<g id="node11" class="node">
<title>7</title>
<polygon fill="#e552ff" stroke="#e552ff" points="295.62,-77.25 250.38,-77.25 250.38,-81.25 238.38,-81.25 238.38,-41.25 295.62,-41.25 295.62,-77.25"/>
<polyline fill="none" stroke="#e552ff" points="238.38,-77.25 250.38,-77.25"/>
<text text-anchor="middle" x="267" y="-54.58" font-family="DejaVu Sans Mono" font-size="14.00">input</text>
</g>
<!-- 6&#45;&gt;7 -->
<g id="edge10" class="edge">
<title>6&#45;&gt;7</title>
<path fill="none" stroke="black" d="M267,-93.98C267,-92.32 267,-90.61 267,-88.87"/>
<polygon fill="black" stroke="black" points="270.5,-89.01 267,-79.01 263.5,-89.01 270.5,-89.01"/>
</g>
<!-- 10 -->
<g id="node12" class="node">
<title>10</title>
<polygon fill="#e552ff" stroke="#e552ff" points="443.62,-77.25 398.38,-77.25 398.38,-81.25 386.38,-81.25 386.38,-41.25 443.62,-41.25 443.62,-77.25"/>
<polyline fill="none" stroke="#e552ff" points="386.38,-77.25 398.38,-77.25"/>
<text text-anchor="middle" x="415" y="-54.58" font-family="DejaVu Sans Mono" font-size="14.00">input</text>
</g>
<!-- 9&#45;&gt;10 -->
<g id="edge11" class="edge">
<title>9&#45;&gt;10</title>
<path fill="none" stroke="black" d="M415,-93.98C415,-92.32 415,-90.61 415,-88.87"/>
<polygon fill="black" stroke="black" points="418.5,-89.01 415,-79.01 411.5,-89.01 418.5,-89.01"/>
</g>
<!-- input -->
<g id="node13" class="node">
<title>input</title>
<polygon fill="#afeeee" stroke="black" points="1004.88,-130.25 911.21,-130.25 887.12,-94.25 980.79,-94.25 1004.88,-130.25"/>
<text text-anchor="middle" x="946" y="-107.58" font-family="DejaVu Sans Mono" font-size="14.00">input</text>
</g>
<!-- call -->
<g id="node18" class="node">
<title>call</title>
<polygon fill="#e552ff" stroke="black" points="973,-77.25 931,-77.25 931,-81.25 919,-81.25 919,-41.25 973,-41.25 973,-77.25"/>
<polyline fill="none" stroke="black" points="919,-77.25 931,-77.25"/>
<text text-anchor="middle" x="946" y="-54.58" font-family="DejaVu Sans Mono" font-size="14.00">call</text>
</g>
<!-- input&#45;&gt;call -->
<!-- default -->
<g id="node14" class="node">
<title>default</title>
<polygon fill="#fffb81" stroke="black" points="838.88,-77.25 765.12,-77.25 765.12,-41.25 838.88,-41.25 838.88,-77.25"/>
<text text-anchor="middle" x="802" y="-54.58" font-family="DejaVu Sans Mono" font-size="14.00">default</text>
</g>
<!-- if -->
<g id="node15" class="node">
<title>if</title>
<polygon fill="#ff6752" stroke="black" points="946,-305.62 913.76,-287.62 946,-269.62 978.24,-287.62 946,-305.62"/>
<text text-anchor="middle" x="946" y="-282.95" font-family="DejaVu Sans Mono" font-size="14.00">if</text>
</g>
<!-- if&#45;&gt;input -->
<!-- for -->
<g id="node16" class="node">
<title>for</title>
<polygon fill="#ffbe52" stroke="black" points="894.01,-287.62 877.5,-305.62 844.5,-305.62 827.99,-287.62 844.5,-269.62 877.5,-269.62 894.01,-287.62"/>
<text text-anchor="middle" x="861" y="-282.95" font-family="DejaVu Sans Mono" font-size="14.00">for</text>
</g>
<!-- return -->
<g id="node19" class="node">
<title>return</title>
<polygon fill="#98fb98" stroke="black" points="869.37,-130.25 762.2,-130.25 734.63,-94.25 841.8,-94.25 869.37,-130.25"/>
<text text-anchor="middle" x="802" y="-107.58" font-family="DejaVu Sans Mono" font-size="14.00">return</text>
</g>
<!-- for&#45;&gt;return -->
<!-- while -->
<g id="node17" class="node">
<title>while</title>
<polygon fill="#ffbe52" stroke="black" points="810.37,-287.62 787.19,-305.62 740.81,-305.62 717.63,-287.62 740.81,-269.62 787.19,-269.62 810.37,-287.62"/>
<text text-anchor="middle" x="764" y="-282.95" font-family="DejaVu Sans Mono" font-size="14.00">while</text>
</g>
<!-- return&#45;&gt;default -->
<!-- try -->
<g id="node20" class="node">
<title>try</title>
<polygon fill="orange" stroke="black" points="659,-305.62 618.57,-287.62 659,-269.62 699.43,-287.62 659,-305.62"/>
<polyline fill="none" stroke="black" points="629.54,-292.51 629.54,-282.74"/>
<polyline fill="none" stroke="black" points="648.04,-274.51 669.96,-274.51"/>
<polyline fill="none" stroke="black" points="688.46,-282.74 688.46,-292.51"/>
<polyline fill="none" stroke="black" points="669.96,-300.74 648.04,-300.74"/>
<text text-anchor="middle" x="659" y="-282.95" font-family="DejaVu Sans Mono" font-size="14.00">try</text>
</g>
<!-- raise -->
<g id="node21" class="node">
<title>raise</title>
<polygon fill="#98fb98" stroke="black" points="716.64,-117.81 667,-130.25 617.36,-117.81 617.41,-97.69 716.59,-97.69 716.64,-117.81"/>
<text text-anchor="middle" x="667" y="-107.58" font-family="DejaVu Sans Mono" font-size="14.00">raise</text>
</g>
<!-- try&#45;&gt;raise -->
</g>
</svg>
