<?xml version="1.0" encoding="UTF-8" standalone="no"?>
<!DOCTYPE svg PUBLIC "-//W3C//DTD SVG 1.1//EN"
 "http://www.w3.org/Graphics/SVG/1.1/DTD/svg11.dtd">
<!-- Generated by graphviz version 9.0.0 (20230911.1827)
 -->
<!-- Title: cluster0caesarHacker Pages: 1 -->
<svg width="1179pt" height="733pt"
 viewBox="0.00 0.00 1179.25 732.50" xmlns="http://www.w3.org/2000/svg" xmlns:xlink="http://www.w3.org/1999/xlink">
<g id="graph0" class="graph" transform="scale(1 1) rotate(0) translate(4 728.5)">
<title>cluster0caesarHacker</title>
<polygon fill="white" stroke="none" points="-4,4 -4,-728.5 1175.25,-728.5 1175.25,4 -4,4"/>
<text text-anchor="middle" x="585.62" y="-7.95" font-family="DejaVu Sans Mono" font-size="14.00">caesarHacker</text>
<g id="clust1" class="cluster">
<title>cluster_2</title>
<polygon fill="purple" stroke="purple" points="267.25,-427.5 267.25,-540.5 341.25,-540.5 341.25,-427.5 267.25,-427.5"/>
</g>
<g id="clust2" class="cluster">
<title>cluster_10</title>
<polygon fill="purple" stroke="purple" points="720.25,-187.75 720.25,-239.75 852.25,-239.75 852.25,-187.75 720.25,-187.75"/>
</g>
<g id="clust3" class="cluster">
<title>cluster_15</title>
<polygon fill="purple" stroke="purple" points="585.25,-33.25 585.25,-85.25 655.25,-85.25 655.25,-33.25 585.25,-33.25"/>
</g>
<g id="clust4" class="cluster">
<title>cluster_9</title>
<polygon fill="purple" stroke="purple" points="851.25,-273 851.25,-325 925.25,-325 925.25,-273 851.25,-273"/>
</g>
<g id="clust5" class="cluster">
<title>cluster_KEY</title>
<polygon fill="none" stroke="black" points="759.25,-488.5 759.25,-716.5 1163.25,-716.5 1163.25,-488.5 759.25,-488.5"/>
<text text-anchor="middle" x="961.25" y="-699.2" font-family="DejaVu Sans Mono" font-size="14.00">KEY</text>
</g>
<!-- 1 -->
<g id="node1" class="node">
<title>1</title>
<polygon fill="#fffb81" stroke="black" points="661.62,-703.75 356.88,-703.75 356.88,-626.75 661.62,-626.75 661.62,-703.75"/>
<text text-anchor="start" x="364.88" y="-686.45" font-family="DejaVu Sans Mono" font-size="14.00">message = (</text>
<text text-anchor="start" x="364.88" y="-669.2" font-family="DejaVu Sans Mono" font-size="14.00"> &#160;&#160;&#160;&#39;NyyJu8zn1Jorv1t6Jun9...&#39;</text>
<text text-anchor="start" x="364.88" y="-651.95" font-family="DejaVu Sans Mono" font-size="14.00"> &#160;&#160;&#160;)</text>
<text text-anchor="start" x="364.88" y="-634.7" font-family="DejaVu Sans Mono" font-size="14.00">SYMBOLS = &#39;ABCDEFGHIJKLMNOPQRST...&#39;</text>
</g>
<!-- 2 -->
<g id="node2" class="node">
<title>2</title>
<polygon fill="#ffbe52" stroke="black" points="749.41,-591.75 629.33,-609.75 389.17,-609.75 269.09,-591.75 389.17,-573.75 629.33,-573.75 749.41,-591.75"/>
<text text-anchor="start" x="346.07" y="-587.08" font-family="DejaVu Sans Mono" font-size="14.00">for key in range(1, len(SYMBOLS)):</text>
</g>
<!-- 1&#45;&gt;2 -->
<g id="edge19" class="edge">
<title>1&#45;&gt;2</title>
<path fill="none" stroke="black" d="M509.25,-626.41C509.25,-624.7 509.25,-622.99 509.25,-621.31"/>
<polygon fill="black" stroke="black" points="512.75,-621.45 509.25,-611.45 505.75,-621.45 512.75,-621.45"/>
</g>
<!-- 3 -->
<g id="node3" class="node">
<title>3</title>
<polygon fill="#e552ff" stroke="#e552ff" points="332.88,-532.5 287.62,-532.5 287.62,-536.5 275.62,-536.5 275.62,-496.5 332.88,-496.5 332.88,-532.5"/>
<polyline fill="none" stroke="#e552ff" points="275.62,-532.5 287.62,-532.5"/>
<text text-anchor="middle" x="304.25" y="-509.82" font-family="DejaVu Sans Mono" font-size="14.00">range</text>
</g>
<!-- 2&#45;&gt;3 -->
<g id="edge1" class="edge">
<title>2&#45;&gt;3</title>
<path fill="none" stroke="black" stroke-dasharray="5,2" d="M461.7,-573.3C425.84,-560.13 377.24,-542.29 343.56,-529.93"/>
<polygon fill="black" stroke="black" points="345.2,-526.8 334.61,-526.64 342.79,-533.38 345.2,-526.8"/>
<text text-anchor="middle" x="457.88" y="-552.45" font-family="DejaVu Sans Mono" font-size="14.00">calls</text>
</g>
<!-- 5 -->
<g id="node5" class="node">
<title>5</title>
<polygon fill="#fffb81" stroke="black" points="579.12,-532.5 439.38,-532.5 439.38,-496.5 579.12,-496.5 579.12,-532.5"/>
<text text-anchor="start" x="447.38" y="-509.82" font-family="DejaVu Sans Mono" font-size="14.00">translated = &#39;&#39;</text>
</g>
<!-- 2&#45;&gt;5 -->
<g id="edge18" class="edge">
<title>2&#45;&gt;5</title>
<path fill="none" stroke="green" d="M509.25,-573.3C509.25,-564.65 509.25,-554 509.25,-544.19"/>
<polygon fill="green" stroke="green" points="512.75,-544.37 509.25,-534.37 505.75,-544.37 512.75,-544.37"/>
<text text-anchor="middle" x="600" y="-552.45" font-family="DejaVu Sans Mono" font-size="14.00">range(1, len(SYMBOLS))</text>
</g>
<!-- 4 -->
<g id="node4" class="node">
<title>4</title>
<polygon fill="#e552ff" stroke="#e552ff" points="331.25,-471.5 289.25,-471.5 289.25,-475.5 277.25,-475.5 277.25,-435.5 331.25,-435.5 331.25,-471.5"/>
<polyline fill="none" stroke="#e552ff" points="277.25,-471.5 289.25,-471.5"/>
<text text-anchor="middle" x="304.25" y="-448.82" font-family="DejaVu Sans Mono" font-size="14.00">len</text>
</g>
<!-- 3&#45;&gt;4 -->
<g id="edge2" class="edge">
<title>3&#45;&gt;4</title>
<path fill="none" stroke="black" d="M304.25,-496.12C304.25,-492.07 304.25,-487.66 304.25,-483.27"/>
<polygon fill="black" stroke="black" points="307.75,-483.48 304.25,-473.48 300.75,-483.48 307.75,-483.48"/>
</g>
<!-- 7 -->
<g id="node6" class="node">
<title>7</title>
<polygon fill="#ffbe52" stroke="black" points="669.22,-453.5 589.24,-471.5 429.26,-471.5 349.28,-453.5 429.26,-435.5 589.24,-435.5 669.22,-453.5"/>
<text text-anchor="start" x="403.22" y="-448.82" font-family="DejaVu Sans Mono" font-size="14.00">for symbol in message:</text>
</g>
<!-- 5&#45;&gt;7 -->
<g id="edge17" class="edge">
<title>5&#45;&gt;7</title>
<path fill="none" stroke="black" d="M509.25,-496.12C509.25,-492.07 509.25,-487.66 509.25,-483.27"/>
<polygon fill="black" stroke="black" points="512.75,-483.48 509.25,-473.48 505.75,-483.48 512.75,-483.48"/>
</g>
<!-- 8 -->
<g id="node7" class="node">
<title>8</title>
<polygon fill="#ff6752" stroke="black" points="509.25,-394.25 321.51,-376.25 509.25,-358.25 696.99,-376.25 509.25,-394.25"/>
<text text-anchor="start" x="383.43" y="-371.57" font-family="DejaVu Sans Mono" font-size="14.00">if symbol in SYMBOLS:</text>
</g>
<!-- 7&#45;&gt;8 -->
<g id="edge13" class="edge">
<title>7&#45;&gt;8</title>
<path fill="none" stroke="green" d="M509.25,-435.05C509.25,-426.4 509.25,-415.75 509.25,-405.94"/>
<polygon fill="green" stroke="green" points="512.75,-406.12 509.25,-396.12 505.75,-406.12 512.75,-406.12"/>
<text text-anchor="middle" x="538.12" y="-406.2" font-family="DejaVu Sans Mono" font-size="14.00">message</text>
</g>
<!-- 9 -->
<g id="node15" class="node">
<title>9</title>
<polygon fill="#fffb81" stroke="black" points="1061.25,-394.25 715.25,-394.25 715.25,-358.25 1061.25,-358.25 1061.25,-394.25"/>
<text text-anchor="start" x="723.25" y="-371.57" font-family="DejaVu Sans Mono" font-size="14.00">print(&#39;Key #%s: %s&#39; % (key, translated))</text>
</g>
<!-- 7&#45;&gt;9 -->
<g id="edge16" class="edge">
<title>7&#45;&gt;9</title>
<path fill="none" stroke="green" d="M571.47,-435.03C610.75,-424.47 662.69,-411.32 709.25,-402.25 719.54,-400.25 730.19,-398.34 740.93,-396.54"/>
<polygon fill="green" stroke="green" points="741.35,-400.02 750.65,-394.94 740.22,-393.11 741.35,-400.02"/>
</g>
<!-- 10 -->
<g id="node8" class="node">
<title>10</title>
<polygon fill="#fffb81" stroke="black" points="798.62,-320.25 493.88,-320.25 493.88,-277.75 798.62,-277.75 798.62,-320.25"/>
<text text-anchor="start" x="501.88" y="-302.95" font-family="DejaVu Sans Mono" font-size="14.00">symbolIndex = SYMBOLS.find(symbol)</text>
<text text-anchor="start" x="501.88" y="-285.7" font-family="DejaVu Sans Mono" font-size="14.00">translatedIndex = symbolIndex &#45; key</text>
</g>
<!-- 8&#45;&gt;10 -->
<g id="edge10" class="edge">
<title>8&#45;&gt;10</title>
<path fill="none" stroke="green" d="M536.51,-360.47C542.68,-357.12 549.19,-353.57 555.25,-350.25 569.51,-342.44 585.01,-333.9 599.11,-326.11"/>
<polygon fill="green" stroke="green" points="600.71,-329.23 607.77,-321.33 597.32,-323.1 600.71,-329.23"/>
<text text-anchor="middle" x="655.38" y="-336.95" font-family="DejaVu Sans Mono" font-size="14.00">symbol in SYMBOLS</text>
</g>
<!-- 12 -->
<g id="node14" class="node">
<title>12</title>
<polygon fill="#fffb81" stroke="black" points="476.25,-317 196.25,-317 196.25,-281 476.25,-281 476.25,-317"/>
<text text-anchor="start" x="204.25" y="-294.32" font-family="DejaVu Sans Mono" font-size="14.00">translated = translated + symbol</text>
</g>
<!-- 8&#45;&gt;12 -->
<g id="edge12" class="edge">
<title>8&#45;&gt;12</title>
<path fill="none" stroke="red" d="M418.05,-366.56C393.63,-362.76 371.28,-357.48 361.5,-350.25 353.88,-344.62 348.41,-336.04 344.55,-327.55"/>
<polygon fill="red" stroke="red" points="347.92,-326.55 341.04,-318.49 341.39,-329.08 347.92,-326.55"/>
<text text-anchor="middle" x="457.12" y="-336.95" font-family="DejaVu Sans Mono" font-size="14.00">(symbol not in SYMBOLS)</text>
</g>
<!-- 13 -->
<g id="node9" class="node">
<title>13</title>
<polygon fill="#e552ff" stroke="#e552ff" points="843.75,-231.75 740.75,-231.75 740.75,-235.75 728.75,-235.75 728.75,-195.75 843.75,-195.75 843.75,-231.75"/>
<polyline fill="none" stroke="#e552ff" points="728.75,-231.75 740.75,-231.75"/>
<text text-anchor="middle" x="786.25" y="-209.07" font-family="DejaVu Sans Mono" font-size="14.00">SYMBOLS.find</text>
</g>
<!-- 10&#45;&gt;13 -->
<g id="edge3" class="edge">
<title>10&#45;&gt;13</title>
<path fill="none" stroke="black" stroke-dasharray="5,2" d="M680.86,-277.42C701.04,-265.42 726.54,-250.25 747.41,-237.85"/>
<polygon fill="black" stroke="black" points="749.13,-240.9 755.93,-232.78 745.55,-234.88 749.13,-240.9"/>
<text text-anchor="middle" x="748.88" y="-251.7" font-family="DejaVu Sans Mono" font-size="14.00">calls</text>
</g>
<!-- 14 -->
<g id="node10" class="node">
<title>14</title>
<polygon fill="#ff6752" stroke="black" points="506.25,-231.75 302.14,-213.75 506.25,-195.75 710.36,-213.75 506.25,-231.75"/>
<text text-anchor="start" x="368.76" y="-209.07" font-family="DejaVu Sans Mono" font-size="14.00">if translatedIndex &lt; 0:</text>
</g>
<!-- 10&#45;&gt;14 -->
<g id="edge9" class="edge">
<title>10&#45;&gt;14</title>
<path fill="none" stroke="black" d="M611.64,-277.42C590.25,-264.7 562.88,-248.42 541.39,-235.65"/>
<polygon fill="black" stroke="black" points="543.36,-232.74 532.97,-230.64 539.78,-238.76 543.36,-232.74"/>
</g>
<!-- 15 -->
<g id="node11" class="node">
<title>15</title>
<polygon fill="#fffb81" stroke="black" points="826.25,-154.5 414.25,-154.5 414.25,-118.5 826.25,-118.5 826.25,-154.5"/>
<text text-anchor="start" x="422.25" y="-131.82" font-family="DejaVu Sans Mono" font-size="14.00">translatedIndex = translatedIndex + len(SYMBOLS)</text>
</g>
<!-- 14&#45;&gt;15 -->
<g id="edge7" class="edge">
<title>14&#45;&gt;15</title>
<path fill="none" stroke="green" d="M529.59,-197.34C545.31,-186.96 566.35,-173.08 584.21,-161.29"/>
<polygon fill="green" stroke="green" points="586.06,-164.26 592.48,-155.83 582.21,-158.42 586.06,-164.26"/>
<text text-anchor="middle" x="657.62" y="-166.45" font-family="DejaVu Sans Mono" font-size="14.00">translatedIndex &lt; 0</text>
</g>
<!-- 16 -->
<g id="node13" class="node">
<title>16</title>
<polygon fill="#fffb81" stroke="black" points="428.5,-77.25 0,-77.25 0,-41.25 428.5,-41.25 428.5,-77.25"/>
<text text-anchor="start" x="8" y="-54.58" font-family="DejaVu Sans Mono" font-size="14.00">translated = translated + SYMBOLS[translatedIndex]</text>
</g>
<!-- 14&#45;&gt;16 -->
<g id="edge8" class="edge">
<title>14&#45;&gt;16</title>
<path fill="none" stroke="red" d="M404.1,-204.3C333.37,-196.2 247.77,-181.13 223.75,-154.5 208,-137.04 206.88,-109.7 208.96,-88.95"/>
<polygon fill="red" stroke="red" points="212.42,-89.49 210.27,-79.12 205.48,-88.57 212.42,-89.49"/>
<text text-anchor="middle" x="315" y="-131.82" font-family="DejaVu Sans Mono" font-size="14.00">(translatedIndex &gt;= 0)</text>
</g>
<!-- 17 -->
<g id="node12" class="node">
<title>17</title>
<polygon fill="#e552ff" stroke="#e552ff" points="647.25,-77.25 605.25,-77.25 605.25,-81.25 593.25,-81.25 593.25,-41.25 647.25,-41.25 647.25,-77.25"/>
<polyline fill="none" stroke="#e552ff" points="593.25,-77.25 605.25,-77.25"/>
<text text-anchor="middle" x="620.25" y="-54.58" font-family="DejaVu Sans Mono" font-size="14.00">len</text>
</g>
<!-- 15&#45;&gt;17 -->
<g id="edge4" class="edge">
<title>15&#45;&gt;17</title>
<path fill="none" stroke="black" stroke-dasharray="5,2" d="M620.25,-118.05C620.25,-109.4 620.25,-98.75 620.25,-88.94"/>
<polygon fill="black" stroke="black" points="623.75,-89.12 620.25,-79.12 616.75,-89.12 623.75,-89.12"/>
<text text-anchor="middle" x="640.88" y="-97.2" font-family="DejaVu Sans Mono" font-size="14.00">calls</text>
</g>
<!-- 15&#45;&gt;16 -->
<g id="edge6" class="edge">
<title>15&#45;&gt;16</title>
<path fill="none" stroke="black" d="M526.08,-118.05C464.43,-106.62 383.76,-91.67 319.92,-79.83"/>
<polygon fill="black" stroke="black" points="320.57,-76.4 310.09,-78.01 319.29,-83.28 320.57,-76.4"/>
</g>
<!-- 16&#45;&gt;7 -->
<g id="edge5" class="edge">
<title>16&#45;&gt;7</title>
<path fill="none" stroke="black" d="M196.07,-77.61C183.21,-91.81 168.25,-113.14 168.25,-135.5 168.25,-377.25 168.25,-377.25 168.25,-377.25 168.25,-446.08 250.13,-404.26 317.25,-419.5 345.06,-425.81 375.37,-431.55 403.53,-436.4"/>
<polygon fill="black" stroke="black" points="402.68,-439.8 413.12,-438.03 403.85,-432.9 402.68,-439.8"/>
</g>
<!-- 12&#45;&gt;7 -->
<g id="edge11" class="edge">
<title>12&#45;&gt;7</title>
<path fill="none" stroke="black" d="M323.9,-317.34C311.1,-337.64 295.17,-371.39 312.25,-394.25 324.77,-411.01 367.17,-424.64 409.44,-434.49"/>
<polygon fill="black" stroke="black" points="408.46,-437.85 418.98,-436.64 410,-431.02 408.46,-437.85"/>
</g>
<!-- 9&#45;&gt;2 -->
<g id="edge15" class="edge">
<title>9&#45;&gt;2</title>
<path fill="none" stroke="black" d="M864.35,-394.75C836.66,-415.56 790.36,-452.1 755.25,-488.5 725.07,-519.79 732.93,-544.07 695.25,-565.75 689.03,-569.33 679.45,-572.41 667.85,-575.07"/>
<polygon fill="black" stroke="black" points="667.23,-571.62 658.15,-577.08 668.65,-578.48 667.23,-571.62"/>
</g>
<!-- 18 -->
<g id="node16" class="node">
<title>18</title>
<polygon fill="#e552ff" stroke="#e552ff" points="916.88,-317 871.62,-317 871.62,-321 859.62,-321 859.62,-281 916.88,-281 916.88,-317"/>
<polyline fill="none" stroke="#e552ff" points="859.62,-317 871.62,-317"/>
<text text-anchor="middle" x="888.25" y="-294.32" font-family="DejaVu Sans Mono" font-size="14.00">print</text>
</g>
<!-- 9&#45;&gt;18 -->
<g id="edge14" class="edge">
<title>9&#45;&gt;18</title>
<path fill="none" stroke="black" stroke-dasharray="5,2" d="M888.25,-357.8C888.25,-349.15 888.25,-338.5 888.25,-328.69"/>
<polygon fill="black" stroke="black" points="891.75,-328.87 888.25,-318.87 884.75,-328.87 891.75,-328.87"/>
<text text-anchor="middle" x="908.88" y="-336.95" font-family="DejaVu Sans Mono" font-size="14.00">calls</text>
</g>
<!-- input -->
<g id="node17" class="node">
<title>input</title>
<polygon fill="#afeeee" stroke="black" points="1155.13,-609.75 1061.46,-609.75 1037.37,-573.75 1131.04,-573.75 1155.13,-609.75"/>
<text text-anchor="middle" x="1096.25" y="-587.08" font-family="DejaVu Sans Mono" font-size="14.00">input</text>
</g>
<!-- call -->
<g id="node22" class="node">
<title>call</title>
<polygon fill="#e552ff" stroke="black" points="1123.25,-532.5 1081.25,-532.5 1081.25,-536.5 1069.25,-536.5 1069.25,-496.5 1123.25,-496.5 1123.25,-532.5"/>
<polyline fill="none" stroke="black" points="1069.25,-532.5 1081.25,-532.5"/>
<text text-anchor="middle" x="1096.25" y="-509.82" font-family="DejaVu Sans Mono" font-size="14.00">call</text>
</g>
<!-- input&#45;&gt;call -->
<!-- default -->
<g id="node18" class="node">
<title>default</title>
<polygon fill="#fffb81" stroke="black" points="989.12,-532.5 915.38,-532.5 915.38,-496.5 989.12,-496.5 989.12,-532.5"/>
<text text-anchor="middle" x="952.25" y="-509.82" font-family="DejaVu Sans Mono" font-size="14.00">default</text>
</g>
<!-- if -->
<g id="node19" class="node">
<title>if</title>
<polygon fill="#ff6752" stroke="black" points="1096.25,-683.25 1064.01,-665.25 1096.25,-647.25 1128.49,-665.25 1096.25,-683.25"/>
<text text-anchor="middle" x="1096.25" y="-660.58" font-family="DejaVu Sans Mono" font-size="14.00">if</text>
</g>
<!-- if&#45;&gt;input -->
<!-- for -->
<g id="node20" class="node">
<title>for</title>
<polygon fill="#ffbe52" stroke="black" points="1044.26,-665.25 1027.75,-683.25 994.75,-683.25 978.24,-665.25 994.75,-647.25 1027.75,-647.25 1044.26,-665.25"/>
<text text-anchor="middle" x="1011.25" y="-660.58" font-family="DejaVu Sans Mono" font-size="14.00">for</text>
</g>
<!-- return -->
<g id="node23" class="node">
<title>return</title>
<polygon fill="#98fb98" stroke="black" points="1019.62,-609.75 912.45,-609.75 884.88,-573.75 992.05,-573.75 1019.62,-609.75"/>
<text text-anchor="middle" x="952.25" y="-587.08" font-family="DejaVu Sans Mono" font-size="14.00">return</text>
</g>
<!-- for&#45;&gt;return -->
<!-- while -->
<g id="node21" class="node">
<title>while</title>
<polygon fill="#ffbe52" stroke="black" points="960.62,-665.25 937.44,-683.25 891.06,-683.25 867.88,-665.25 891.06,-647.25 937.44,-647.25 960.62,-665.25"/>
<text text-anchor="middle" x="914.25" y="-660.58" font-family="DejaVu Sans Mono" font-size="14.00">while</text>
</g>
<!-- return&#45;&gt;default -->
<!-- try -->
<g id="node24" class="node">
<title>try</title>
<polygon fill="orange" stroke="black" points="809.25,-683.25 768.82,-665.25 809.25,-647.25 849.68,-665.25 809.25,-683.25"/>
<polyline fill="none" stroke="black" points="779.79,-670.13 779.79,-660.37"/>
<polyline fill="none" stroke="black" points="798.29,-652.13 820.21,-652.13"/>
<polyline fill="none" stroke="black" points="838.71,-660.37 838.71,-670.13"/>
<polyline fill="none" stroke="black" points="820.21,-678.37 798.29,-678.37"/>
<text text-anchor="middle" x="809.25" y="-660.58" font-family="DejaVu Sans Mono" font-size="14.00">try</text>
</g>
<!-- raise -->
<g id="node25" class="node">
<title>raise</title>
<polygon fill="#98fb98" stroke="black" points="866.89,-597.31 817.25,-609.75 767.61,-597.31 767.66,-577.19 866.84,-577.19 866.89,-597.31"/>
<text text-anchor="middle" x="817.25" y="-587.08" font-family="DejaVu Sans Mono" font-size="14.00">raise</text>
</g>
<!-- try&#45;&gt;raise -->
</g>
</svg>
