<?xml version="1.0" encoding="UTF-8" standalone="no"?>
<!DOCTYPE svg PUBLIC "-//W3C//DTD SVG 1.1//EN"
 "http://www.w3.org/Graphics/SVG/1.1/DTD/svg11.dtd">
<!-- Generated by graphviz version 9.0.0 (20230911.1827)
 -->
<!-- Title: cluster0classy Pages: 1 -->
<svg width="3676pt" height="644pt"
 viewBox="0.00 0.00 3676.00 644.38" xmlns="http://www.w3.org/2000/svg" xmlns:xlink="http://www.w3.org/1999/xlink">
<g id="graph0" class="graph" transform="scale(1 1) rotate(0) translate(4 640.38)">
<title>cluster0classy</title>
<polygon fill="white" stroke="none" points="-4,4 -4,-640.38 3672,-640.38 3672,4 -4,4"/>
<text text-anchor="middle" x="1834" y="-7.95" font-family="DejaVu Sans Mono" font-size="14.00">classy</text>
<g id="clust1" class="cluster">
<title>cluster_27</title>
<polygon fill="purple" stroke="purple" points="100,-156.88 100,-208.88 198,-208.88 198,-156.88 100,-156.88"/>
</g>
<g id="clust2" class="cluster">
<title>cluster_28</title>
<polygon fill="purple" stroke="purple" points="8,-33.25 8,-85.25 655,-85.25 655,-33.25 8,-33.25"/>
</g>
<g id="clust3" class="cluster">
<title>cluster0Employee</title>
<polygon fill="none" stroke="black" points="407,-357.75 407,-628.38 3248,-628.38 3248,-357.75 407,-357.75"/>
<text text-anchor="middle" x="1827.5" y="-611.08" font-family="DejaVu Sans Mono" font-size="14.00">Employee</text>
</g>
<g id="clust4" class="cluster">
<title>cluster0__init__</title>
<polygon fill="none" stroke="black" points="3026,-365.75 3026,-595.12 3240,-595.12 3240,-365.75 3026,-365.75"/>
<text text-anchor="middle" x="3133" y="-577.83" font-family="DejaVu Sans Mono" font-size="14.00">__init__</text>
</g>
<g id="clust5" class="cluster">
<title>cluster_5</title>
<polygon fill="purple" stroke="purple" points="3096,-373.75 3096,-425.75 3170,-425.75 3170,-373.75 3096,-373.75"/>
</g>
<g id="clust6" class="cluster">
<title>cluster0displayCount</title>
<polygon fill="none" stroke="black" points="2606,-365.75 2606,-574.62 3018,-574.62 3018,-365.75 2606,-365.75"/>
<text text-anchor="middle" x="2812" y="-557.33" font-family="DejaVu Sans Mono" font-size="14.00">displayCount</text>
</g>
<g id="clust7" class="cluster">
<title>cluster_9</title>
<polygon fill="purple" stroke="purple" points="2775,-373.75 2775,-425.75 2849,-425.75 2849,-373.75 2775,-373.75"/>
</g>
<g id="clust8" class="cluster">
<title>cluster0displayEmployee</title>
<polygon fill="none" stroke="black" points="2120,-365.75 2120,-574.62 2598,-574.62 2598,-365.75 2120,-365.75"/>
<text text-anchor="middle" x="2359" y="-557.33" font-family="DejaVu Sans Mono" font-size="14.00">displayEmployee</text>
</g>
<g id="clust9" class="cluster">
<title>cluster_13</title>
<polygon fill="purple" stroke="purple" points="2322,-373.75 2322,-425.75 2396,-425.75 2396,-373.75 2322,-373.75"/>
</g>
<g id="clust10" class="cluster">
<title>cluster0__str__</title>
<polygon fill="none" stroke="black" points="1010,-497.38 1010,-574.62 2112,-574.62 2112,-497.38 1010,-497.38"/>
<text text-anchor="middle" x="1561" y="-557.33" font-family="DejaVu Sans Mono" font-size="14.00">__str__</text>
</g>
<g id="clust11" class="cluster">
<title>cluster0__del__</title>
<polygon fill="none" stroke="black" points="738,-365.75 738,-577.88 1002,-577.88 1002,-365.75 738,-365.75"/>
<text text-anchor="middle" x="870" y="-560.58" font-family="DejaVu Sans Mono" font-size="14.00">__del__</text>
</g>
<g id="clust12" class="cluster">
<title>cluster_21</title>
<polygon fill="purple" stroke="purple" points="797,-373.75 797,-425.75 943,-425.75 943,-373.75 797,-373.75"/>
</g>
<g id="clust13" class="cluster">
<title>cluster_KEY</title>
<polygon fill="none" stroke="black" points="3256,-280.5 3256,-574.62 3660,-574.62 3660,-280.5 3256,-280.5"/>
<text text-anchor="middle" x="3458" y="-557.33" font-family="DejaVu Sans Mono" font-size="14.00">KEY</text>
</g>
<!-- 1 -->
<g id="node1" class="node">
<title>1</title>
<polygon fill="#fffb81" stroke="black" points="383.25,-541.38 218.75,-541.38 218.75,-505.38 383.25,-505.38 383.25,-541.38"/>
<text text-anchor="start" x="226.75" y="-518.7" font-family="DejaVu Sans Mono" font-size="14.00">class Employee:...</text>
</g>
<!-- 26 -->
<g id="node2" class="node">
<title>26</title>
<polygon fill="#ff6752" stroke="black" points="301,-417.75 203.28,-399.75 301,-381.75 398.72,-399.75 301,-417.75"/>
<text text-anchor="start" x="239.35" y="-395.07" font-family="DejaVu Sans Mono" font-size="14.00">if 5 &lt; 10:</text>
</g>
<!-- 1&#45;&gt;26 -->
<g id="edge10" class="edge">
<title>1&#45;&gt;26</title>
<path fill="none" stroke="black" d="M301,-504.95C301,-485.26 301,-452.91 301,-429.47"/>
<polygon fill="black" stroke="black" points="304.5,-429.66 301,-419.66 297.5,-429.66 304.5,-429.66"/>
</g>
<!-- 27 -->
<g id="node3" class="node">
<title>27</title>
<polygon fill="#fffb81" stroke="black" points="370,-324.5 24,-324.5 24,-288.5 370,-288.5 370,-324.5"/>
<text text-anchor="start" x="32" y="-301.82" font-family="DejaVu Sans Mono" font-size="14.00">emp1 = Employee(name=&#39;Bob&#39;, salary=2000)</text>
</g>
<!-- 26&#45;&gt;27 -->
<g id="edge8" class="edge">
<title>26&#45;&gt;27</title>
<path fill="none" stroke="green" d="M284.75,-384.49C268.87,-370.56 244.37,-349.06 225.29,-332.32"/>
<polygon fill="green" stroke="green" points="227.65,-329.73 217.82,-325.77 223.03,-335 227.65,-329.73"/>
<text text-anchor="middle" x="267.75" y="-336.45" font-family="DejaVu Sans Mono" font-size="14.00">5 &lt; 10</text>
</g>
<!-- 28 -->
<g id="node5" class="node">
<title>28</title>
<polygon fill="#fffb81" stroke="black" points="603.75,-247.25 208.25,-247.25 208.25,-118.5 603.75,-118.5 603.75,-247.25"/>
<text text-anchor="start" x="216.25" y="-229.95" font-family="DejaVu Sans Mono" font-size="14.00">emp2 = Employee(&#39;Jed&#39;, 5000)</text>
<text text-anchor="start" x="216.25" y="-212.7" font-family="DejaVu Sans Mono" font-size="14.00">emp1.name</text>
<text text-anchor="start" x="216.25" y="-195.45" font-family="DejaVu Sans Mono" font-size="14.00">emp1.displayEmployee()</text>
<text text-anchor="start" x="216.25" y="-178.2" font-family="DejaVu Sans Mono" font-size="14.00">emp2.displayEmployee()</text>
<text text-anchor="start" x="216.25" y="-160.95" font-family="DejaVu Sans Mono" font-size="14.00">print(&#39;Total Employee %d&#39; % Employee.empCount)</text>
<text text-anchor="start" x="216.25" y="-143.7" font-family="DejaVu Sans Mono" font-size="14.00">emp1 = emp2</text>
<text text-anchor="start" x="216.25" y="-126.45" font-family="DejaVu Sans Mono" font-size="14.00">print(&#39;Total Employee %d&#39; % Employee.empCount)</text>
</g>
<!-- 26&#45;&gt;28 -->
<g id="edge9" class="edge">
<title>26&#45;&gt;28</title>
<path fill="none" stroke="red" d="M321.36,-385.07C339.45,-371.79 365.11,-349.93 379,-324.5 389.91,-304.53 396.47,-280.86 400.39,-258.69"/>
<polygon fill="red" stroke="red" points="403.8,-259.53 401.93,-249.1 396.89,-258.43 403.8,-259.53"/>
<text text-anchor="middle" x="432.12" y="-301.82" font-family="DejaVu Sans Mono" font-size="14.00">(5 &gt;= 10)</text>
</g>
<!-- 29 -->
<g id="node4" class="node">
<title>29</title>
<polygon fill="#e552ff" stroke="#e552ff" points="190,-200.88 120,-200.88 120,-204.88 108,-204.88 108,-164.88 190,-164.88 190,-200.88"/>
<polyline fill="none" stroke="#e552ff" points="108,-200.88 120,-200.88"/>
<text text-anchor="middle" x="149" y="-178.2" font-family="DejaVu Sans Mono" font-size="14.00">Employee</text>
</g>
<!-- 27&#45;&gt;29 -->
<g id="edge1" class="edge">
<title>27&#45;&gt;29</title>
<path fill="none" stroke="black" stroke-dasharray="5,2" d="M190.12,-288.07C182.28,-268.2 169.35,-235.44 160.08,-211.96"/>
<polygon fill="black" stroke="black" points="163.35,-210.69 156.42,-202.68 156.84,-213.26 163.35,-210.69"/>
<text text-anchor="middle" x="203.62" y="-259.2" font-family="DejaVu Sans Mono" font-size="14.00">calls</text>
</g>
<!-- 27&#45;&gt;28 -->
<g id="edge7" class="edge">
<title>27&#45;&gt;28</title>
<path fill="none" stroke="black" d="M226.94,-288.07C243.17,-278.63 264.39,-266.28 286.53,-253.4"/>
<polygon fill="black" stroke="black" points="288.22,-256.47 295.1,-248.41 284.7,-250.42 288.22,-256.47"/>
</g>
<!-- 30 -->
<g id="node6" class="node">
<title>30</title>
<polygon fill="#e552ff" stroke="#e552ff" points="98,-77.25 28,-77.25 28,-81.25 16,-81.25 16,-41.25 98,-41.25 98,-77.25"/>
<polyline fill="none" stroke="#e552ff" points="16,-77.25 28,-77.25"/>
<text text-anchor="middle" x="57" y="-54.58" font-family="DejaVu Sans Mono" font-size="14.00">Employee</text>
</g>
<!-- 28&#45;&gt;30 -->
<g id="edge2" class="edge">
<title>28&#45;&gt;30</title>
<path fill="none" stroke="black" stroke-dasharray="5,2" d="M208.07,-120.37C165.82,-106.67 127.7,-93.71 107,-85.25 104.82,-84.36 102.61,-83.42 100.39,-82.43"/>
<polygon fill="black" stroke="black" points="101.95,-79.3 91.4,-78.27 99.01,-85.65 101.95,-79.3"/>
<text text-anchor="middle" x="198.62" y="-97.2" font-family="DejaVu Sans Mono" font-size="14.00">calls</text>
</g>
<!-- 31 -->
<g id="node7" class="node">
<title>31</title>
<polygon fill="#e552ff" stroke="#e552ff" points="297.5,-77.25 128.5,-77.25 128.5,-81.25 116.5,-81.25 116.5,-41.25 297.5,-41.25 297.5,-77.25"/>
<polyline fill="none" stroke="#e552ff" points="116.5,-77.25 128.5,-77.25"/>
<text text-anchor="middle" x="207" y="-54.58" font-family="DejaVu Sans Mono" font-size="14.00">emp1.displayEmployee</text>
</g>
<!-- 28&#45;&gt;31 -->
<g id="edge3" class="edge">
<title>28&#45;&gt;31</title>
<path fill="none" stroke="black" stroke-dasharray="5,2" d="M301.55,-118.03C281.34,-105.69 261.41,-93.5 245.1,-83.53"/>
<polygon fill="black" stroke="black" points="247.08,-80.65 236.73,-78.42 243.43,-86.62 247.08,-80.65"/>
<text text-anchor="middle" x="308.62" y="-97.2" font-family="DejaVu Sans Mono" font-size="14.00">calls</text>
</g>
<!-- 32 -->
<g id="node8" class="node">
<title>32</title>
<polygon fill="#e552ff" stroke="#e552ff" points="496.5,-77.25 327.5,-77.25 327.5,-81.25 315.5,-81.25 315.5,-41.25 496.5,-41.25 496.5,-77.25"/>
<polyline fill="none" stroke="#e552ff" points="315.5,-77.25 327.5,-77.25"/>
<text text-anchor="middle" x="406" y="-54.58" font-family="DejaVu Sans Mono" font-size="14.00">emp2.displayEmployee</text>
</g>
<!-- 28&#45;&gt;32 -->
<g id="edge4" class="edge">
<title>28&#45;&gt;32</title>
<path fill="none" stroke="black" stroke-dasharray="5,2" d="M406,-118.21C406,-108.06 406,-98.01 406,-89.2"/>
<polygon fill="black" stroke="black" points="409.5,-89.21 406,-79.21 402.5,-89.21 409.5,-89.21"/>
<text text-anchor="middle" x="426.62" y="-97.2" font-family="DejaVu Sans Mono" font-size="14.00">calls</text>
</g>
<!-- 33 -->
<g id="node9" class="node">
<title>33</title>
<polygon fill="#e552ff" stroke="#e552ff" points="571.62,-77.25 526.38,-77.25 526.38,-81.25 514.38,-81.25 514.38,-41.25 571.62,-41.25 571.62,-77.25"/>
<polyline fill="none" stroke="#e552ff" points="514.38,-77.25 526.38,-77.25"/>
<text text-anchor="middle" x="543" y="-54.58" font-family="DejaVu Sans Mono" font-size="14.00">print</text>
</g>
<!-- 28&#45;&gt;33 -->
<g id="edge5" class="edge">
<title>28&#45;&gt;33</title>
<path fill="none" stroke="black" stroke-dasharray="5,2" d="M477.71,-118.21C490.99,-106.42 504.11,-94.77 515.07,-85.05"/>
<polygon fill="black" stroke="black" points="517.07,-87.95 522.22,-78.7 512.42,-82.72 517.07,-87.95"/>
<text text-anchor="middle" x="522.62" y="-97.2" font-family="DejaVu Sans Mono" font-size="14.00">calls</text>
</g>
<!-- 34 -->
<g id="node10" class="node">
<title>34</title>
<polygon fill="#e552ff" stroke="#e552ff" points="646.62,-77.25 601.38,-77.25 601.38,-81.25 589.38,-81.25 589.38,-41.25 646.62,-41.25 646.62,-77.25"/>
<polyline fill="none" stroke="#e552ff" points="589.38,-77.25 601.38,-77.25"/>
<text text-anchor="middle" x="618" y="-54.58" font-family="DejaVu Sans Mono" font-size="14.00">print</text>
</g>
<!-- 28&#45;&gt;34 -->
<g id="edge6" class="edge">
<title>28&#45;&gt;34</title>
<path fill="none" stroke="black" stroke-dasharray="5,2" d="M534.04,-118.12C538.44,-115.59 542.77,-113.05 547,-110.5 560.17,-102.57 574.09,-93 586.08,-84.35"/>
<polygon fill="black" stroke="black" points="588.01,-87.28 594.01,-78.55 583.88,-81.63 588.01,-87.28"/>
<text text-anchor="middle" x="593.62" y="-97.2" font-family="DejaVu Sans Mono" font-size="14.00">calls</text>
</g>
<!-- 3 -->
<g id="node11" class="node">
<title>3</title>
<polygon fill="#fffb81" stroke="black" points="728.5,-587.75 415.5,-587.75 415.5,-459 728.5,-459 728.5,-587.75"/>
<text text-anchor="start" x="423.5" y="-570.45" font-family="DejaVu Sans Mono" font-size="14.00">&quot;&quot;&quot;Common base class fo...&quot;&quot;&quot;</text>
<text text-anchor="start" x="423.5" y="-553.2" font-family="DejaVu Sans Mono" font-size="14.00">empCount = 0</text>
<text text-anchor="start" x="423.5" y="-535.95" font-family="DejaVu Sans Mono" font-size="14.00">def __init__(self, name, salary):...</text>
<text text-anchor="start" x="423.5" y="-518.7" font-family="DejaVu Sans Mono" font-size="14.00">def displayCount(self):...</text>
<text text-anchor="start" x="423.5" y="-501.45" font-family="DejaVu Sans Mono" font-size="14.00">def displayEmployee(self):...</text>
<text text-anchor="start" x="423.5" y="-484.2" font-family="DejaVu Sans Mono" font-size="14.00">def __str__(self):...</text>
<text text-anchor="start" x="423.5" y="-466.95" font-family="DejaVu Sans Mono" font-size="14.00">def __del__(self):...</text>
</g>
<!-- 5 -->
<g id="node12" class="node">
<title>5</title>
<polygon fill="#fffb81" stroke="black" points="3231.75,-561.88 3034.25,-561.88 3034.25,-484.88 3231.75,-484.88 3231.75,-561.88"/>
<text text-anchor="start" x="3042.25" y="-544.58" font-family="DejaVu Sans Mono" font-size="14.00">print(&#39;creating&#39;)</text>
<text text-anchor="start" x="3042.25" y="-527.33" font-family="DejaVu Sans Mono" font-size="14.00">self.name = name</text>
<text text-anchor="start" x="3042.25" y="-510.07" font-family="DejaVu Sans Mono" font-size="14.00">self.salary = salary</text>
<text text-anchor="start" x="3042.25" y="-492.82" font-family="DejaVu Sans Mono" font-size="14.00">Employee.empCount += 1</text>
</g>
<!-- 6 -->
<g id="node13" class="node">
<title>6</title>
<polygon fill="#e552ff" stroke="#e552ff" points="3161.62,-417.75 3116.38,-417.75 3116.38,-421.75 3104.38,-421.75 3104.38,-381.75 3161.62,-381.75 3161.62,-417.75"/>
<polyline fill="none" stroke="#e552ff" points="3104.38,-417.75 3116.38,-417.75"/>
<text text-anchor="middle" x="3133" y="-395.07" font-family="DejaVu Sans Mono" font-size="14.00">print</text>
</g>
<!-- 5&#45;&gt;6 -->
<g id="edge11" class="edge">
<title>5&#45;&gt;6</title>
<path fill="none" stroke="black" stroke-dasharray="5,2" d="M3133,-484.56C3133,-466.71 3133,-445.77 3133,-429.29"/>
<polygon fill="black" stroke="black" points="3136.5,-429.69 3133,-419.69 3129.5,-429.69 3136.5,-429.69"/>
<text text-anchor="middle" x="3153.62" y="-437.7" font-family="DejaVu Sans Mono" font-size="14.00">calls</text>
</g>
<!-- 9 -->
<g id="node14" class="node">
<title>9</title>
<polygon fill="#fffb81" stroke="black" points="3009.75,-541.38 2614.25,-541.38 2614.25,-505.38 3009.75,-505.38 3009.75,-541.38"/>
<text text-anchor="start" x="2622.25" y="-518.7" font-family="DejaVu Sans Mono" font-size="14.00">print(&#39;Total Employee %d&#39; % Employee.empCount)</text>
</g>
<!-- 10 -->
<g id="node15" class="node">
<title>10</title>
<polygon fill="#e552ff" stroke="#e552ff" points="2840.62,-417.75 2795.38,-417.75 2795.38,-421.75 2783.38,-421.75 2783.38,-381.75 2840.62,-381.75 2840.62,-417.75"/>
<polyline fill="none" stroke="#e552ff" points="2783.38,-417.75 2795.38,-417.75"/>
<text text-anchor="middle" x="2812" y="-395.07" font-family="DejaVu Sans Mono" font-size="14.00">print</text>
</g>
<!-- 9&#45;&gt;10 -->
<g id="edge12" class="edge">
<title>9&#45;&gt;10</title>
<path fill="none" stroke="black" stroke-dasharray="5,2" d="M2812,-504.95C2812,-485.26 2812,-452.91 2812,-429.47"/>
<polygon fill="black" stroke="black" points="2815.5,-429.66 2812,-419.66 2808.5,-429.66 2815.5,-429.66"/>
<text text-anchor="middle" x="2832.62" y="-437.7" font-family="DejaVu Sans Mono" font-size="14.00">calls</text>
</g>
<!-- 13 -->
<g id="node16" class="node">
<title>13</title>
<polygon fill="#fffb81" stroke="black" points="2589.75,-541.38 2128.25,-541.38 2128.25,-505.38 2589.75,-505.38 2589.75,-541.38"/>
<text text-anchor="start" x="2136.25" y="-518.7" font-family="DejaVu Sans Mono" font-size="14.00">print(&#39;Name : &#39;, self.name, &#39;, Salary: &#39;, self.salary)</text>
</g>
<!-- 14 -->
<g id="node17" class="node">
<title>14</title>
<polygon fill="#e552ff" stroke="#e552ff" points="2387.62,-417.75 2342.38,-417.75 2342.38,-421.75 2330.38,-421.75 2330.38,-381.75 2387.62,-381.75 2387.62,-417.75"/>
<polyline fill="none" stroke="#e552ff" points="2330.38,-417.75 2342.38,-417.75"/>
<text text-anchor="middle" x="2359" y="-395.07" font-family="DejaVu Sans Mono" font-size="14.00">print</text>
</g>
<!-- 13&#45;&gt;14 -->
<g id="edge13" class="edge">
<title>13&#45;&gt;14</title>
<path fill="none" stroke="black" stroke-dasharray="5,2" d="M2359,-504.95C2359,-485.26 2359,-452.91 2359,-429.47"/>
<polygon fill="black" stroke="black" points="2362.5,-429.66 2359,-419.66 2355.5,-429.66 2362.5,-429.66"/>
<text text-anchor="middle" x="2379.62" y="-437.7" font-family="DejaVu Sans Mono" font-size="14.00">calls</text>
</g>
<!-- 17 -->
<g id="node18" class="node">
<title>17</title>
<polygon fill="#98fb98" stroke="black" points="2103.54,-541.38 1240.48,-541.38 1018.46,-505.38 1881.52,-505.38 2103.54,-541.38"/>
<text text-anchor="start" x="1196" y="-518.7" font-family="DejaVu Sans Mono" font-size="14.00">return &#39;Name : &#39; + self.name + &#39;, Salary: &#39; + str(self.salary)</text>
</g>
<!-- 21 -->
<g id="node19" class="node">
<title>21</title>
<polygon fill="#fffb81" stroke="black" points="993.5,-544.62 746.5,-544.62 746.5,-502.12 993.5,-502.12 993.5,-544.62"/>
<text text-anchor="start" x="754.5" y="-527.33" font-family="DejaVu Sans Mono" font-size="14.00">print(&#39;takin out the trash&#39;)</text>
<text text-anchor="start" x="754.5" y="-510.07" font-family="DejaVu Sans Mono" font-size="14.00">type(self).empCount &#45;= 1</text>
</g>
<!-- 22 -->
<g id="node20" class="node">
<title>22</title>
<polygon fill="#e552ff" stroke="#e552ff" points="862.62,-417.75 817.38,-417.75 817.38,-421.75 805.38,-421.75 805.38,-381.75 862.62,-381.75 862.62,-417.75"/>
<polyline fill="none" stroke="#e552ff" points="805.38,-417.75 817.38,-417.75"/>
<text text-anchor="middle" x="834" y="-395.07" font-family="DejaVu Sans Mono" font-size="14.00">print</text>
</g>
<!-- 21&#45;&gt;22 -->
<g id="edge14" class="edge">
<title>21&#45;&gt;22</title>
<path fill="none" stroke="black" stroke-dasharray="5,2" d="M859.36,-501.7C852.66,-487.74 844.41,-468.7 839.75,-451 837.95,-444.15 836.71,-436.62 835.86,-429.52"/>
<polygon fill="black" stroke="black" points="839.35,-429.31 834.91,-419.69 832.39,-429.98 839.35,-429.31"/>
<text text-anchor="middle" x="859.62" y="-437.7" font-family="DejaVu Sans Mono" font-size="14.00">calls</text>
</g>
<!-- 23 -->
<g id="node21" class="node">
<title>23</title>
<polygon fill="#e552ff" stroke="#e552ff" points="935,-417.75 893,-417.75 893,-421.75 881,-421.75 881,-381.75 935,-381.75 935,-417.75"/>
<polyline fill="none" stroke="#e552ff" points="881,-417.75 893,-417.75"/>
<text text-anchor="middle" x="908" y="-395.07" font-family="DejaVu Sans Mono" font-size="14.00">type</text>
</g>
<!-- 21&#45;&gt;23 -->
<g id="edge15" class="edge">
<title>21&#45;&gt;23</title>
<path fill="none" stroke="black" stroke-dasharray="5,2" d="M876.45,-501.74C882.72,-481.66 892.3,-450.99 899.26,-428.72"/>
<polygon fill="black" stroke="black" points="902.54,-429.97 902.18,-419.38 895.86,-427.88 902.54,-429.97"/>
<text text-anchor="middle" x="916.62" y="-437.7" font-family="DejaVu Sans Mono" font-size="14.00">calls</text>
</g>
<!-- input -->
<g id="node22" class="node">
<title>input</title>
<polygon fill="#afeeee" stroke="black" points="3651.88,-417.75 3558.21,-417.75 3534.12,-381.75 3627.79,-381.75 3651.88,-417.75"/>
<text text-anchor="middle" x="3593" y="-395.07" font-family="DejaVu Sans Mono" font-size="14.00">input</text>
</g>
<!-- call -->
<g id="node27" class="node">
<title>call</title>
<polygon fill="#e552ff" stroke="black" points="3620,-324.5 3578,-324.5 3578,-328.5 3566,-328.5 3566,-288.5 3620,-288.5 3620,-324.5"/>
<polyline fill="none" stroke="black" points="3566,-324.5 3578,-324.5"/>
<text text-anchor="middle" x="3593" y="-301.82" font-family="DejaVu Sans Mono" font-size="14.00">call</text>
</g>
<!-- input&#45;&gt;call -->
<!-- default -->
<g id="node23" class="node">
<title>default</title>
<polygon fill="#fffb81" stroke="black" points="3485.88,-324.5 3412.12,-324.5 3412.12,-288.5 3485.88,-288.5 3485.88,-324.5"/>
<text text-anchor="middle" x="3449" y="-301.82" font-family="DejaVu Sans Mono" font-size="14.00">default</text>
</g>
<!-- if -->
<g id="node24" class="node">
<title>if</title>
<polygon fill="#ff6752" stroke="black" points="3593,-541.38 3560.76,-523.38 3593,-505.38 3625.24,-523.38 3593,-541.38"/>
<text text-anchor="middle" x="3593" y="-518.7" font-family="DejaVu Sans Mono" font-size="14.00">if</text>
</g>
<!-- if&#45;&gt;input -->
<!-- for -->
<g id="node25" class="node">
<title>for</title>
<polygon fill="#ffbe52" stroke="black" points="3541.01,-523.38 3524.5,-541.38 3491.5,-541.38 3474.99,-523.38 3491.5,-505.38 3524.5,-505.38 3541.01,-523.38"/>
<text text-anchor="middle" x="3508" y="-518.7" font-family="DejaVu Sans Mono" font-size="14.00">for</text>
</g>
<!-- return -->
<g id="node28" class="node">
<title>return</title>
<polygon fill="#98fb98" stroke="black" points="3516.37,-417.75 3409.2,-417.75 3381.63,-381.75 3488.8,-381.75 3516.37,-417.75"/>
<text text-anchor="middle" x="3449" y="-395.07" font-family="DejaVu Sans Mono" font-size="14.00">return</text>
</g>
<!-- for&#45;&gt;return -->
<!-- while -->
<g id="node26" class="node">
<title>while</title>
<polygon fill="#ffbe52" stroke="black" points="3457.37,-523.38 3434.19,-541.38 3387.81,-541.38 3364.63,-523.38 3387.81,-505.38 3434.19,-505.38 3457.37,-523.38"/>
<text text-anchor="middle" x="3411" y="-518.7" font-family="DejaVu Sans Mono" font-size="14.00">while</text>
</g>
<!-- return&#45;&gt;default -->
<!-- try -->
<g id="node29" class="node">
<title>try</title>
<polygon fill="orange" stroke="black" points="3306,-541.38 3265.57,-523.38 3306,-505.38 3346.43,-523.38 3306,-541.38"/>
<polyline fill="none" stroke="black" points="3276.54,-528.26 3276.54,-518.49"/>
<polyline fill="none" stroke="black" points="3295.04,-510.26 3316.96,-510.26"/>
<polyline fill="none" stroke="black" points="3335.46,-518.49 3335.46,-528.26"/>
<polyline fill="none" stroke="black" points="3316.96,-536.49 3295.04,-536.49"/>
<text text-anchor="middle" x="3306" y="-518.7" font-family="DejaVu Sans Mono" font-size="14.00">try</text>
</g>
<!-- raise -->
<g id="node30" class="node">
<title>raise</title>
<polygon fill="#98fb98" stroke="black" points="3363.64,-405.31 3314,-417.75 3264.36,-405.31 3264.41,-385.19 3363.59,-385.19 3363.64,-405.31"/>
<text text-anchor="middle" x="3314" y="-395.07" font-family="DejaVu Sans Mono" font-size="14.00">raise</text>
</g>
<!-- try&#45;&gt;raise -->
</g>
</svg>
