<?xml version="1.0" encoding="UTF-8" standalone="no"?>
<!DOCTYPE svg PUBLIC "-//W3C//DTD SVG 1.1//EN"
 "http://www.w3.org/Graphics/SVG/1.1/DTD/svg11.dtd">
<!-- Generated by graphviz version 9.0.0 (20230911.1827)
 -->
<!-- Title: cluster0containers&#45;03&#45;primes Pages: 1 -->
<svg width="1963pt" height="606pt"
 viewBox="0.00 0.00 1962.67 605.50" xmlns="http://www.w3.org/2000/svg" xmlns:xlink="http://www.w3.org/1999/xlink">
<g id="graph0" class="graph" transform="scale(1 1) rotate(0) translate(4 601.5)">
<title>cluster0containers&#45;03&#45;primes</title>
<polygon fill="white" stroke="none" points="-4,4 -4,-601.5 1958.67,-601.5 1958.67,4 -4,4"/>
<text text-anchor="middle" x="977.34" y="-7.95" font-family="DejaVu Sans Mono" font-size="14.00">containers&#45;03&#45;primes</text>
<g id="clust1" class="cluster">
<title>cluster_1</title>
<polygon fill="purple" stroke="purple" points="8,-366.25 8,-418.25 996,-418.25 996,-366.25 8,-366.25"/>
</g>
<g id="clust2" class="cluster">
<title>cluster_8</title>
<polygon fill="purple" stroke="purple" points="1008,-281 1008,-333 1106,-333 1106,-281 1008,-281"/>
</g>
<g id="clust3" class="cluster">
<title>cluster_10</title>
<polygon fill="purple" stroke="purple" points="1151,-195.75 1151,-247.75 1225,-247.75 1225,-195.75 1151,-195.75"/>
</g>
<g id="clust4" class="cluster">
<title>cluster_11</title>
<polygon fill="purple" stroke="purple" points="1244,-195.75 1244,-247.75 1318,-247.75 1318,-195.75 1244,-195.75"/>
</g>
<g id="clust5" class="cluster">
<title>cluster_14</title>
<polygon fill="purple" stroke="purple" points="1540,-33.25 1540,-162.5 1614,-162.5 1614,-33.25 1540,-33.25"/>
</g>
<g id="clust6" class="cluster">
<title>cluster_17</title>
<polygon fill="purple" stroke="purple" points="1789,-33.25 1789,-85.25 1863,-85.25 1863,-33.25 1789,-33.25"/>
</g>
<g id="clust7" class="cluster">
<title>cluster_KEY</title>
<polygon fill="none" stroke="black" points="1508,-281 1508,-575.75 1912,-575.75 1912,-281 1508,-281"/>
<text text-anchor="middle" x="1710" y="-558.45" font-family="DejaVu Sans Mono" font-size="14.00">KEY</text>
</g>
<!-- 1 -->
<g id="node1" class="node">
<title>1</title>
<polygon fill="#fffb81" stroke="black" points="766.38,-597.5 527.62,-597.5 527.62,-451.5 766.38,-451.5 766.38,-597.5"/>
<text text-anchor="start" x="535.62" y="-580.2" font-family="DejaVu Sans Mono" font-size="14.00">from typing import List</text>
<text text-anchor="start" x="535.62" y="-562.95" font-family="DejaVu Sans Mono" font-size="14.00">prime_array: List[int] = []</text>
<text text-anchor="start" x="535.62" y="-545.7" font-family="DejaVu Sans Mono" font-size="14.00">prime_array.append(2)</text>
<text text-anchor="start" x="535.62" y="-528.45" font-family="DejaVu Sans Mono" font-size="14.00">prime_array.append(3)</text>
<text text-anchor="start" x="535.62" y="-511.2" font-family="DejaVu Sans Mono" font-size="14.00">prime_array.append(5)</text>
<text text-anchor="start" x="535.62" y="-493.95" font-family="DejaVu Sans Mono" font-size="14.00">prime_array.append(7)</text>
<text text-anchor="start" x="535.62" y="-476.7" font-family="DejaVu Sans Mono" font-size="14.00">prime_array.append(11)</text>
<text text-anchor="start" x="535.62" y="-459.45" font-family="DejaVu Sans Mono" font-size="14.00">print(&#39;Low primes are: &#39;)</text>
</g>
<!-- 2 -->
<g id="node2" class="node">
<title>2</title>
<polygon fill="#e552ff" stroke="#e552ff" points="180.25,-410.25 27.75,-410.25 27.75,-414.25 15.75,-414.25 15.75,-374.25 180.25,-374.25 180.25,-410.25"/>
<polyline fill="none" stroke="#e552ff" points="15.75,-410.25 27.75,-410.25"/>
<text text-anchor="middle" x="98" y="-387.57" font-family="DejaVu Sans Mono" font-size="14.00">prime_array.append</text>
</g>
<!-- 1&#45;&gt;2 -->
<g id="edge1" class="edge">
<title>1&#45;&gt;2</title>
<path fill="none" stroke="black" stroke-dasharray="5,2" d="M527.38,-497.29C435,-476.73 304.11,-446.88 190,-418.25 184.08,-416.76 177.96,-415.19 171.81,-413.58"/>
<polygon fill="black" stroke="black" points="172.79,-410.22 162.23,-411.04 171,-416.98 172.79,-410.22"/>
<text text-anchor="middle" x="309.62" y="-430.2" font-family="DejaVu Sans Mono" font-size="14.00">calls</text>
</g>
<!-- 3 -->
<g id="node3" class="node">
<title>3</title>
<polygon fill="#e552ff" stroke="#e552ff" points="363.25,-410.25 210.75,-410.25 210.75,-414.25 198.75,-414.25 198.75,-374.25 363.25,-374.25 363.25,-410.25"/>
<polyline fill="none" stroke="#e552ff" points="198.75,-410.25 210.75,-410.25"/>
<text text-anchor="middle" x="281" y="-387.57" font-family="DejaVu Sans Mono" font-size="14.00">prime_array.append</text>
</g>
<!-- 1&#45;&gt;3 -->
<g id="edge2" class="edge">
<title>1&#45;&gt;3</title>
<path fill="none" stroke="black" stroke-dasharray="5,2" d="M527.16,-480.85C464.62,-458.59 390.86,-432.35 340.5,-414.42"/>
<polygon fill="black" stroke="black" points="341.82,-411.18 331.23,-411.13 339.48,-417.78 341.82,-411.18"/>
<text text-anchor="middle" x="440.62" y="-430.2" font-family="DejaVu Sans Mono" font-size="14.00">calls</text>
</g>
<!-- 4 -->
<g id="node4" class="node">
<title>4</title>
<polygon fill="#e552ff" stroke="#e552ff" points="546.25,-410.25 393.75,-410.25 393.75,-414.25 381.75,-414.25 381.75,-374.25 546.25,-374.25 546.25,-410.25"/>
<polyline fill="none" stroke="#e552ff" points="381.75,-410.25 393.75,-410.25"/>
<text text-anchor="middle" x="464" y="-387.57" font-family="DejaVu Sans Mono" font-size="14.00">prime_array.append</text>
</g>
<!-- 1&#45;&gt;4 -->
<g id="edge3" class="edge">
<title>1&#45;&gt;4</title>
<path fill="none" stroke="black" stroke-dasharray="5,2" d="M545.33,-451.14C528.09,-438.86 511.33,-426.94 497.55,-417.13"/>
<polygon fill="black" stroke="black" points="499.93,-414.53 489.75,-411.58 495.87,-420.23 499.93,-414.53"/>
<text text-anchor="middle" x="553.62" y="-430.2" font-family="DejaVu Sans Mono" font-size="14.00">calls</text>
</g>
<!-- 5 -->
<g id="node5" class="node">
<title>5</title>
<polygon fill="#e552ff" stroke="#e552ff" points="729.25,-410.25 576.75,-410.25 576.75,-414.25 564.75,-414.25 564.75,-374.25 729.25,-374.25 729.25,-410.25"/>
<polyline fill="none" stroke="#e552ff" points="564.75,-410.25 576.75,-410.25"/>
<text text-anchor="middle" x="647" y="-387.57" font-family="DejaVu Sans Mono" font-size="14.00">prime_array.append</text>
</g>
<!-- 1&#45;&gt;5 -->
<g id="edge4" class="edge">
<title>1&#45;&gt;5</title>
<path fill="none" stroke="black" stroke-dasharray="5,2" d="M647,-451.14C647,-440.79 647,-430.69 647,-421.9"/>
<polygon fill="black" stroke="black" points="650.5,-421.97 647,-411.97 643.5,-421.97 650.5,-421.97"/>
<text text-anchor="middle" x="667.62" y="-430.2" font-family="DejaVu Sans Mono" font-size="14.00">calls</text>
</g>
<!-- 6 -->
<g id="node6" class="node">
<title>6</title>
<polygon fill="#e552ff" stroke="#e552ff" points="912.25,-410.25 759.75,-410.25 759.75,-414.25 747.75,-414.25 747.75,-374.25 912.25,-374.25 912.25,-410.25"/>
<polyline fill="none" stroke="#e552ff" points="747.75,-410.25 759.75,-410.25"/>
<text text-anchor="middle" x="830" y="-387.57" font-family="DejaVu Sans Mono" font-size="14.00">prime_array.append</text>
</g>
<!-- 1&#45;&gt;6 -->
<g id="edge5" class="edge">
<title>1&#45;&gt;6</title>
<path fill="none" stroke="black" stroke-dasharray="5,2" d="M748.67,-451.14C765.91,-438.86 782.67,-426.94 796.45,-417.13"/>
<polygon fill="black" stroke="black" points="798.13,-420.23 804.25,-411.58 794.07,-414.53 798.13,-420.23"/>
<text text-anchor="middle" x="800.62" y="-430.2" font-family="DejaVu Sans Mono" font-size="14.00">calls</text>
</g>
<!-- 7 -->
<g id="node7" class="node">
<title>7</title>
<polygon fill="#e552ff" stroke="#e552ff" points="987.62,-410.25 942.38,-410.25 942.38,-414.25 930.38,-414.25 930.38,-374.25 987.62,-374.25 987.62,-410.25"/>
<polyline fill="none" stroke="#e552ff" points="930.38,-410.25 942.38,-410.25"/>
<text text-anchor="middle" x="959" y="-387.57" font-family="DejaVu Sans Mono" font-size="14.00">print</text>
</g>
<!-- 1&#45;&gt;7 -->
<g id="edge6" class="edge">
<title>1&#45;&gt;7</title>
<path fill="none" stroke="black" stroke-dasharray="5,2" d="M766.76,-483.85C815.62,-466.05 872.04,-443.39 921,-418.25 922.09,-417.69 923.19,-417.11 924.28,-416.51"/>
<polygon fill="black" stroke="black" points="925.97,-419.57 932.81,-411.48 922.42,-413.54 925.97,-419.57"/>
<text text-anchor="middle" x="919.62" y="-430.2" font-family="DejaVu Sans Mono" font-size="14.00">calls</text>
</g>
<!-- 8 -->
<g id="node8" class="node">
<title>8</title>
<polygon fill="#ffbe52" stroke="black" points="1498.85,-392.25 1375.42,-410.25 1128.58,-410.25 1005.15,-392.25 1128.58,-374.25 1375.42,-374.25 1498.85,-392.25"/>
<text text-anchor="start" x="1084.05" y="-387.57" font-family="DejaVu Sans Mono" font-size="14.00">for prime in reversed(prime_array):</text>
</g>
<!-- 1&#45;&gt;8 -->
<g id="edge19" class="edge">
<title>1&#45;&gt;8</title>
<path fill="none" stroke="black" d="M766.53,-497.77C881.99,-472.91 1054.41,-435.79 1159.69,-413.12"/>
<polygon fill="black" stroke="black" points="1160.4,-416.55 1169.44,-411.02 1158.93,-409.71 1160.4,-416.55"/>
</g>
<!-- 9 -->
<g id="node9" class="node">
<title>9</title>
<polygon fill="#e552ff" stroke="#e552ff" points="1098,-325 1028,-325 1028,-329 1016,-329 1016,-289 1098,-289 1098,-325"/>
<polyline fill="none" stroke="#e552ff" points="1016,-325 1028,-325"/>
<text text-anchor="middle" x="1057" y="-302.32" font-family="DejaVu Sans Mono" font-size="14.00">reversed</text>
</g>
<!-- 8&#45;&gt;9 -->
<g id="edge7" class="edge">
<title>8&#45;&gt;9</title>
<path fill="none" stroke="black" stroke-dasharray="5,2" d="M1111.8,-376.22C1091.93,-371.68 1075.58,-365.82 1067.75,-358.25 1061.89,-352.58 1058.84,-344.56 1057.35,-336.58"/>
<polygon fill="black" stroke="black" points="1060.84,-336.28 1056.28,-326.72 1053.88,-337.04 1060.84,-336.28"/>
<text text-anchor="middle" x="1087.62" y="-344.95" font-family="DejaVu Sans Mono" font-size="14.00">calls</text>
</g>
<!-- 10 -->
<g id="node10" class="node">
<title>10</title>
<polygon fill="#fffb81" stroke="black" points="1245.5,-325 1130.5,-325 1130.5,-289 1245.5,-289 1245.5,-325"/>
<text text-anchor="start" x="1138.5" y="-302.32" font-family="DejaVu Sans Mono" font-size="14.00">print(prime)</text>
</g>
<!-- 8&#45;&gt;10 -->
<g id="edge10" class="edge">
<title>8&#45;&gt;10</title>
<path fill="none" stroke="green" d="M1147.36,-373.8C1133.59,-369.54 1122.56,-364.39 1117.75,-358.25 1109.65,-347.91 1115.31,-338.77 1126.27,-331.21"/>
<polygon fill="green" stroke="green" points="1127.87,-334.33 1134.73,-326.26 1124.33,-328.29 1127.87,-334.33"/>
<text text-anchor="middle" x="1203.62" y="-344.95" font-family="DejaVu Sans Mono" font-size="14.00">reversed(prime_array)</text>
</g>
<!-- 11 -->
<g id="node12" class="node">
<title>11</title>
<polygon fill="#fffb81" stroke="black" points="1370.88,-325 1297.12,-325 1297.12,-289 1370.88,-289 1370.88,-325"/>
<text text-anchor="start" x="1305.12" y="-302.32" font-family="DejaVu Sans Mono" font-size="14.00">print()</text>
</g>
<!-- 8&#45;&gt;11 -->
<g id="edge18" class="edge">
<title>8&#45;&gt;11</title>
<path fill="none" stroke="green" d="M1290.31,-373.89C1297.44,-369.49 1304.4,-364.27 1310,-358.25 1315.98,-351.83 1320.73,-343.64 1324.38,-335.75"/>
<polygon fill="green" stroke="green" points="1327.51,-337.35 1328.1,-326.77 1321.04,-334.67 1327.51,-337.35"/>
</g>
<!-- 10&#45;&gt;8 -->
<g id="edge9" class="edge">
<title>10&#45;&gt;8</title>
<path fill="none" stroke="black" d="M1245.91,-312.4C1264.6,-316.9 1283.46,-325.36 1295,-341 1301.29,-349.52 1297.46,-358.43 1289.99,-366.33"/>
<polygon fill="black" stroke="black" points="1287.82,-363.58 1282.68,-372.85 1292.48,-368.81 1287.82,-363.58"/>
</g>
<!-- 12 -->
<g id="node11" class="node">
<title>12</title>
<polygon fill="#e552ff" stroke="#e552ff" points="1216.62,-239.75 1171.38,-239.75 1171.38,-243.75 1159.38,-243.75 1159.38,-203.75 1216.62,-203.75 1216.62,-239.75"/>
<polyline fill="none" stroke="#e552ff" points="1159.38,-239.75 1171.38,-239.75"/>
<text text-anchor="middle" x="1188" y="-217.07" font-family="DejaVu Sans Mono" font-size="14.00">print</text>
</g>
<!-- 10&#45;&gt;12 -->
<g id="edge8" class="edge">
<title>10&#45;&gt;12</title>
<path fill="none" stroke="black" stroke-dasharray="5,2" d="M1188,-288.75C1188,-277.92 1188,-263.7 1188,-251.23"/>
<polygon fill="black" stroke="black" points="1191.5,-251.49 1188,-241.49 1184.5,-251.49 1191.5,-251.49"/>
<text text-anchor="middle" x="1208.62" y="-259.7" font-family="DejaVu Sans Mono" font-size="14.00">calls</text>
</g>
<!-- 13 -->
<g id="node13" class="node">
<title>13</title>
<polygon fill="#e552ff" stroke="#e552ff" points="1309.62,-239.75 1264.38,-239.75 1264.38,-243.75 1252.38,-243.75 1252.38,-203.75 1309.62,-203.75 1309.62,-239.75"/>
<polyline fill="none" stroke="#e552ff" points="1252.38,-239.75 1264.38,-239.75"/>
<text text-anchor="middle" x="1281" y="-217.07" font-family="DejaVu Sans Mono" font-size="14.00">print</text>
</g>
<!-- 11&#45;&gt;13 -->
<g id="edge11" class="edge">
<title>11&#45;&gt;13</title>
<path fill="none" stroke="black" stroke-dasharray="5,2" d="M1313.19,-288.83C1308.31,-284.08 1303.46,-278.66 1299.75,-273 1295.29,-266.2 1291.69,-258.19 1288.88,-250.59"/>
<polygon fill="black" stroke="black" points="1292.29,-249.75 1285.81,-241.37 1285.65,-251.96 1292.29,-249.75"/>
<text text-anchor="middle" x="1319.62" y="-259.7" font-family="DejaVu Sans Mono" font-size="14.00">calls</text>
</g>
<!-- 14 -->
<g id="node14" class="node">
<title>14</title>
<polygon fill="#ffbe52" stroke="black" points="1954.67,-221.75 1797.84,-239.75 1484.16,-239.75 1327.33,-221.75 1484.16,-203.75 1797.84,-203.75 1954.67,-221.75"/>
<text text-anchor="start" x="1425.42" y="-217.07" font-family="DejaVu Sans Mono" font-size="14.00">for i in range(len(prime_array) &#45; 1, &#45;1, &#45;1):</text>
</g>
<!-- 11&#45;&gt;14 -->
<g id="edge17" class="edge">
<title>11&#45;&gt;14</title>
<path fill="none" stroke="black" d="M1371.34,-295.88C1419.43,-282.84 1504.14,-259.86 1565.82,-243.14"/>
<polygon fill="black" stroke="black" points="1566.47,-246.59 1575.2,-240.59 1564.64,-239.83 1566.47,-246.59"/>
</g>
<!-- 15 -->
<g id="node15" class="node">
<title>15</title>
<polygon fill="#e552ff" stroke="#e552ff" points="1605.62,-154.5 1560.38,-154.5 1560.38,-158.5 1548.38,-158.5 1548.38,-118.5 1605.62,-118.5 1605.62,-154.5"/>
<polyline fill="none" stroke="#e552ff" points="1548.38,-154.5 1560.38,-154.5"/>
<text text-anchor="middle" x="1577" y="-131.82" font-family="DejaVu Sans Mono" font-size="14.00">range</text>
</g>
<!-- 14&#45;&gt;15 -->
<g id="edge12" class="edge">
<title>14&#45;&gt;15</title>
<path fill="none" stroke="black" stroke-dasharray="5,2" d="M1593.09,-203.25C1587.01,-199.08 1581.58,-193.97 1577.75,-187.75 1573.78,-181.32 1572.42,-173.48 1572.34,-165.93"/>
<polygon fill="black" stroke="black" points="1575.83,-166.27 1573,-156.06 1568.84,-165.8 1575.83,-166.27"/>
<text text-anchor="middle" x="1597.62" y="-174.45" font-family="DejaVu Sans Mono" font-size="14.00">calls</text>
</g>
<!-- 17 -->
<g id="node17" class="node">
<title>17</title>
<polygon fill="#fffb81" stroke="black" points="1920.62,-154.5 1731.38,-154.5 1731.38,-118.5 1920.62,-118.5 1920.62,-154.5"/>
<text text-anchor="start" x="1739.38" y="-131.82" font-family="DejaVu Sans Mono" font-size="14.00">print(prime_array[i])</text>
</g>
<!-- 14&#45;&gt;17 -->
<g id="edge16" class="edge">
<title>14&#45;&gt;17</title>
<path fill="none" stroke="green" d="M1634.59,-203.5C1631.83,-192.81 1630.72,-179.47 1638.25,-170.5 1649.53,-157.06 1683.68,-149.09 1719.81,-144.37"/>
<polygon fill="green" stroke="green" points="1720.06,-147.87 1729.56,-143.19 1719.21,-140.92 1720.06,-147.87"/>
<text text-anchor="middle" x="1782.38" y="-174.45" font-family="DejaVu Sans Mono" font-size="14.00">range(len(prime_array) &#45; 1, &#45;1, &#45;1)</text>
</g>
<!-- 16 -->
<g id="node16" class="node">
<title>16</title>
<polygon fill="#e552ff" stroke="#e552ff" points="1604,-77.25 1562,-77.25 1562,-81.25 1550,-81.25 1550,-41.25 1604,-41.25 1604,-77.25"/>
<polyline fill="none" stroke="#e552ff" points="1550,-77.25 1562,-77.25"/>
<text text-anchor="middle" x="1577" y="-54.58" font-family="DejaVu Sans Mono" font-size="14.00">len</text>
</g>
<!-- 15&#45;&gt;16 -->
<g id="edge13" class="edge">
<title>15&#45;&gt;16</title>
<path fill="none" stroke="black" d="M1577,-118.05C1577,-109.4 1577,-98.75 1577,-88.94"/>
<polygon fill="black" stroke="black" points="1580.5,-89.12 1577,-79.12 1573.5,-89.12 1580.5,-89.12"/>
</g>
<!-- 17&#45;&gt;14 -->
<g id="edge15" class="edge">
<title>17&#45;&gt;14</title>
<path fill="none" stroke="black" d="M1912.92,-154.89C1932.38,-162.59 1943.92,-173.28 1931,-187.75 1923.99,-195.6 1890.99,-201.83 1849.61,-206.67"/>
<polygon fill="black" stroke="black" points="1849.38,-203.17 1839.83,-207.76 1850.16,-210.13 1849.38,-203.17"/>
</g>
<!-- 19 -->
<g id="node18" class="node">
<title>19</title>
<polygon fill="#e552ff" stroke="#e552ff" points="1854.62,-77.25 1809.38,-77.25 1809.38,-81.25 1797.38,-81.25 1797.38,-41.25 1854.62,-41.25 1854.62,-77.25"/>
<polyline fill="none" stroke="#e552ff" points="1797.38,-77.25 1809.38,-77.25"/>
<text text-anchor="middle" x="1826" y="-54.58" font-family="DejaVu Sans Mono" font-size="14.00">print</text>
</g>
<!-- 17&#45;&gt;19 -->
<g id="edge14" class="edge">
<title>17&#45;&gt;19</title>
<path fill="none" stroke="black" stroke-dasharray="5,2" d="M1826,-118.05C1826,-109.4 1826,-98.75 1826,-88.94"/>
<polygon fill="black" stroke="black" points="1829.5,-89.12 1826,-79.12 1822.5,-89.12 1829.5,-89.12"/>
<text text-anchor="middle" x="1846.62" y="-97.2" font-family="DejaVu Sans Mono" font-size="14.00">calls</text>
</g>
<!-- input -->
<g id="node19" class="node">
<title>input</title>
<polygon fill="#afeeee" stroke="black" points="1903.88,-410.25 1810.21,-410.25 1786.12,-374.25 1879.79,-374.25 1903.88,-410.25"/>
<text text-anchor="middle" x="1845" y="-387.57" font-family="DejaVu Sans Mono" font-size="14.00">input</text>
</g>
<!-- call -->
<g id="node24" class="node">
<title>call</title>
<polygon fill="#e552ff" stroke="black" points="1872,-325 1830,-325 1830,-329 1818,-329 1818,-289 1872,-289 1872,-325"/>
<polyline fill="none" stroke="black" points="1818,-325 1830,-325"/>
<text text-anchor="middle" x="1845" y="-302.32" font-family="DejaVu Sans Mono" font-size="14.00">call</text>
</g>
<!-- input&#45;&gt;call -->
<!-- default -->
<g id="node20" class="node">
<title>default</title>
<polygon fill="#fffb81" stroke="black" points="1737.88,-325 1664.12,-325 1664.12,-289 1737.88,-289 1737.88,-325"/>
<text text-anchor="middle" x="1701" y="-302.32" font-family="DejaVu Sans Mono" font-size="14.00">default</text>
</g>
<!-- if -->
<g id="node21" class="node">
<title>if</title>
<polygon fill="#ff6752" stroke="black" points="1845,-542.5 1812.76,-524.5 1845,-506.5 1877.24,-524.5 1845,-542.5"/>
<text text-anchor="middle" x="1845" y="-519.83" font-family="DejaVu Sans Mono" font-size="14.00">if</text>
</g>
<!-- if&#45;&gt;input -->
<!-- for -->
<g id="node22" class="node">
<title>for</title>
<polygon fill="#ffbe52" stroke="black" points="1793.01,-524.5 1776.5,-542.5 1743.5,-542.5 1726.99,-524.5 1743.5,-506.5 1776.5,-506.5 1793.01,-524.5"/>
<text text-anchor="middle" x="1760" y="-519.83" font-family="DejaVu Sans Mono" font-size="14.00">for</text>
</g>
<!-- return -->
<g id="node25" class="node">
<title>return</title>
<polygon fill="#98fb98" stroke="black" points="1768.37,-410.25 1661.2,-410.25 1633.63,-374.25 1740.8,-374.25 1768.37,-410.25"/>
<text text-anchor="middle" x="1701" y="-387.57" font-family="DejaVu Sans Mono" font-size="14.00">return</text>
</g>
<!-- for&#45;&gt;return -->
<!-- while -->
<g id="node23" class="node">
<title>while</title>
<polygon fill="#ffbe52" stroke="black" points="1709.37,-524.5 1686.19,-542.5 1639.81,-542.5 1616.63,-524.5 1639.81,-506.5 1686.19,-506.5 1709.37,-524.5"/>
<text text-anchor="middle" x="1663" y="-519.83" font-family="DejaVu Sans Mono" font-size="14.00">while</text>
</g>
<!-- return&#45;&gt;default -->
<!-- try -->
<g id="node26" class="node">
<title>try</title>
<polygon fill="orange" stroke="black" points="1558,-542.5 1517.57,-524.5 1558,-506.5 1598.43,-524.5 1558,-542.5"/>
<polyline fill="none" stroke="black" points="1528.54,-529.38 1528.54,-519.62"/>
<polyline fill="none" stroke="black" points="1547.04,-511.38 1568.96,-511.38"/>
<polyline fill="none" stroke="black" points="1587.46,-519.62 1587.46,-529.38"/>
<polyline fill="none" stroke="black" points="1568.96,-537.62 1547.04,-537.62"/>
<text text-anchor="middle" x="1558" y="-519.83" font-family="DejaVu Sans Mono" font-size="14.00">try</text>
</g>
<!-- raise -->
<g id="node27" class="node">
<title>raise</title>
<polygon fill="#98fb98" stroke="black" points="1615.64,-397.81 1566,-410.25 1516.36,-397.81 1516.41,-377.69 1615.59,-377.69 1615.64,-397.81"/>
<text text-anchor="middle" x="1566" y="-387.57" font-family="DejaVu Sans Mono" font-size="14.00">raise</text>
</g>
<!-- try&#45;&gt;raise -->
</g>
</svg>
