<?xml version="1.0" encoding="UTF-8" standalone="no"?>
<!DOCTYPE svg PUBLIC "-//W3C//DTD SVG 1.1//EN"
 "http://www.w3.org/Graphics/SVG/1.1/DTD/svg11.dtd">
<!-- Generated by graphviz version 9.0.0 (20230911.1827)
 -->
<!-- Title: cluster0containers&#45;09&#45;caesar&#45;for Pages: 1 -->
<svg width="1688pt" height="935pt"
 viewBox="0.00 0.00 1688.25 934.50" xmlns="http://www.w3.org/2000/svg" xmlns:xlink="http://www.w3.org/1999/xlink">
<g id="graph0" class="graph" transform="scale(1 1) rotate(0) translate(4 930.5)">
<title>cluster0containers&#45;09&#45;caesar&#45;for</title>
<polygon fill="white" stroke="none" points="-4,4 -4,-930.5 1684.25,-930.5 1684.25,4 -4,4"/>
<text text-anchor="middle" x="840.12" y="-7.95" font-family="DejaVu Sans Mono" font-size="14.00">containers&#45;09&#45;caesar&#45;for</text>
<g id="clust1" class="cluster">
<title>cluster_1</title>
<polygon fill="purple" stroke="purple" points="197.5,-451.5 197.5,-584 566.5,-584 566.5,-451.5 197.5,-451.5"/>
</g>
<g id="clust2" class="cluster">
<title>cluster_12</title>
<polygon fill="purple" stroke="purple" points="870.5,-203.75 870.5,-333 1242.5,-333 1242.5,-203.75 870.5,-203.75"/>
</g>
<g id="clust3" class="cluster">
<title>cluster_14</title>
<polygon fill="purple" stroke="purple" points="1268.5,-203.75 1268.5,-333 1640.5,-333 1640.5,-203.75 1268.5,-203.75"/>
</g>
<g id="clust4" class="cluster">
<title>cluster_11</title>
<polygon fill="purple" stroke="purple" points="196.5,-366.25 196.5,-418.25 270.5,-418.25 270.5,-366.25 196.5,-366.25"/>
</g>
<g id="clust5" class="cluster">
<title>cluster_23</title>
<polygon fill="purple" stroke="purple" points="71.5,-203.75 71.5,-255.75 145.5,-255.75 145.5,-203.75 71.5,-203.75"/>
</g>
<g id="clust6" class="cluster">
<title>cluster_26</title>
<polygon fill="purple" stroke="purple" points="113.5,-118.5 113.5,-170.5 219.5,-170.5 219.5,-118.5 113.5,-118.5"/>
</g>
<g id="clust7" class="cluster">
<title>cluster_28</title>
<polygon fill="purple" stroke="purple" points="349.5,-33.25 349.5,-85.25 513.5,-85.25 513.5,-33.25 349.5,-33.25"/>
</g>
<g id="clust8" class="cluster">
<title>cluster_29</title>
<polygon fill="purple" stroke="purple" points="775.5,-33.25 775.5,-85.25 849.5,-85.25 849.5,-33.25 775.5,-33.25"/>
</g>
<g id="clust9" class="cluster">
<title>cluster_KEY</title>
<polygon fill="none" stroke="black" points="1212.5,-532 1212.5,-918.5 1616.5,-918.5 1616.5,-532 1212.5,-532"/>
<text text-anchor="middle" x="1414.5" y="-901.2" font-family="DejaVu Sans Mono" font-size="14.00">KEY</text>
</g>
<!-- 1 -->
<g id="node1" class="node">
<title>1</title>
<polygon fill="#fffb81" stroke="black" points="630.75,-832.25 202.25,-832.25 202.25,-617.25 630.75,-617.25 630.75,-832.25"/>
<text text-anchor="start" x="210.25" y="-814.95" font-family="DejaVu Sans Mono" font-size="14.00">from typing import List</text>
<text text-anchor="start" x="210.25" y="-797.7" font-family="DejaVu Sans Mono" font-size="14.00">caesar_encoding: str = &#39;ABCDEFGHIJKLMNOPQRST...&#39;</text>
<text text-anchor="start" x="210.25" y="-780.45" font-family="DejaVu Sans Mono" font-size="14.00">print(&quot;&quot;&quot;</text>
<text text-anchor="start" x="210.25" y="-763.2" font-family="DejaVu Sans Mono" font-size="14.00">Enter your Caesar key in numeric form (1&#45;25): &quot;&quot;&quot;)</text>
<text text-anchor="start" x="210.25" y="-745.95" font-family="DejaVu Sans Mono" font-size="14.00">key: int = int(input())</text>
<text text-anchor="start" x="210.25" y="-728.7" font-family="DejaVu Sans Mono" font-size="14.00">print(&quot;&quot;&quot;</text>
<text text-anchor="start" x="210.25" y="-711.45" font-family="DejaVu Sans Mono" font-size="14.00">Enter 1 for encryption, and 0 for decryption: &quot;&quot;&quot;)</text>
<text text-anchor="start" x="210.25" y="-694.2" font-family="DejaVu Sans Mono" font-size="14.00">mode: int = int(input())</text>
<text text-anchor="start" x="210.25" y="-676.95" font-family="DejaVu Sans Mono" font-size="14.00">message: str = input(&quot;&quot;&quot;</text>
<text text-anchor="start" x="210.25" y="-659.7" font-family="DejaVu Sans Mono" font-size="14.00">Enter your message, in English:</text>
<text text-anchor="start" x="210.25" y="-642.45" font-family="DejaVu Sans Mono" font-size="14.00">&quot;&quot;&quot;)</text>
<text text-anchor="start" x="210.25" y="-625.2" font-family="DejaVu Sans Mono" font-size="14.00">translated: List[int] = []</text>
</g>
<!-- 2 -->
<g id="node2" class="node">
<title>2</title>
<polygon fill="#e552ff" stroke="#e552ff" points="558.12,-576 512.88,-576 512.88,-580 500.88,-580 500.88,-540 558.12,-540 558.12,-576"/>
<polyline fill="none" stroke="#e552ff" points="500.88,-576 512.88,-576"/>
<text text-anchor="middle" x="529.5" y="-553.33" font-family="DejaVu Sans Mono" font-size="14.00">print</text>
</g>
<!-- 1&#45;&gt;2 -->
<g id="edge1" class="edge">
<title>1&#45;&gt;2</title>
<path fill="none" stroke="black" stroke-dasharray="5,2" d="M489.66,-617.08C497.49,-605.67 504.85,-594.94 511.07,-585.88"/>
<polygon fill="black" stroke="black" points="513.93,-587.89 516.7,-577.66 508.16,-583.93 513.93,-587.89"/>
<text text-anchor="middle" x="525.12" y="-595.95" font-family="DejaVu Sans Mono" font-size="14.00">calls</text>
</g>
<!-- 3 -->
<g id="node3" class="node">
<title>3</title>
<polygon fill="#e552ff" stroke="#e552ff" points="259.5,-576 217.5,-576 217.5,-580 205.5,-580 205.5,-540 259.5,-540 259.5,-576"/>
<polyline fill="none" stroke="#e552ff" points="205.5,-576 217.5,-576"/>
<text text-anchor="middle" x="232.5" y="-553.33" font-family="DejaVu Sans Mono" font-size="14.00">int</text>
</g>
<!-- 1&#45;&gt;3 -->
<g id="edge2" class="edge">
<title>1&#45;&gt;3</title>
<path fill="none" stroke="black" stroke-dasharray="5,2" d="M290.45,-616.8C287.68,-614.27 284.94,-611.75 282.25,-609.25 273.7,-601.32 264.65,-592.35 256.64,-584.21"/>
<polygon fill="black" stroke="black" points="259.28,-581.91 249.79,-577.19 254.27,-586.79 259.28,-581.91"/>
<text text-anchor="middle" x="302.12" y="-595.95" font-family="DejaVu Sans Mono" font-size="14.00">calls</text>
</g>
<!-- 5 -->
<g id="node4" class="node">
<title>5</title>
<polygon fill="#e552ff" stroke="#e552ff" points="335.12,-576 289.88,-576 289.88,-580 277.88,-580 277.88,-540 335.12,-540 335.12,-576"/>
<polyline fill="none" stroke="#e552ff" points="277.88,-576 289.88,-576"/>
<text text-anchor="middle" x="306.5" y="-553.33" font-family="DejaVu Sans Mono" font-size="14.00">print</text>
</g>
<!-- 1&#45;&gt;5 -->
<g id="edge3" class="edge">
<title>1&#45;&gt;5</title>
<path fill="none" stroke="black" stroke-dasharray="5,2" d="M344.28,-616.82C342.59,-614.28 340.91,-611.75 339.25,-609.25 334.21,-601.65 328.78,-593.36 323.82,-585.75"/>
<polygon fill="black" stroke="black" points="326.86,-584 318.47,-577.52 320.99,-587.82 326.86,-584"/>
<text text-anchor="middle" x="359.12" y="-595.95" font-family="DejaVu Sans Mono" font-size="14.00">calls</text>
</g>
<!-- 6 -->
<g id="node5" class="node">
<title>6</title>
<polygon fill="#e552ff" stroke="#e552ff" points="407.5,-576 365.5,-576 365.5,-580 353.5,-580 353.5,-540 407.5,-540 407.5,-576"/>
<polyline fill="none" stroke="#e552ff" points="353.5,-576 365.5,-576"/>
<text text-anchor="middle" x="380.5" y="-553.33" font-family="DejaVu Sans Mono" font-size="14.00">int</text>
</g>
<!-- 1&#45;&gt;6 -->
<g id="edge4" class="edge">
<title>1&#45;&gt;6</title>
<path fill="none" stroke="black" stroke-dasharray="5,2" d="M389.81,-616.85C389.27,-614.3 388.75,-611.76 388.25,-609.25 386.85,-602.26 385.57,-594.69 384.46,-587.59"/>
<polygon fill="black" stroke="black" points="387.93,-587.15 383,-577.77 381.01,-588.18 387.93,-587.15"/>
<text text-anchor="middle" x="408.12" y="-595.95" font-family="DejaVu Sans Mono" font-size="14.00">calls</text>
</g>
<!-- 8 -->
<g id="node6" class="node">
<title>8</title>
<polygon fill="#e552ff" stroke="#e552ff" points="483.12,-576 437.88,-576 437.88,-580 425.88,-580 425.88,-540 483.12,-540 483.12,-576"/>
<polyline fill="none" stroke="#e552ff" points="425.88,-576 437.88,-576"/>
<text text-anchor="middle" x="454.5" y="-553.33" font-family="DejaVu Sans Mono" font-size="14.00">input</text>
</g>
<!-- 1&#45;&gt;8 -->
<g id="edge5" class="edge">
<title>1&#45;&gt;8</title>
<path fill="none" stroke="black" stroke-dasharray="5,2" d="M441.1,-617.08C443.59,-606.28 445.94,-596.09 447.96,-587.35"/>
<polygon fill="black" stroke="black" points="451.31,-588.42 450.14,-577.89 444.49,-586.85 451.31,-588.42"/>
<text text-anchor="middle" x="466.12" y="-595.95" font-family="DejaVu Sans Mono" font-size="14.00">calls</text>
</g>
<!-- 9 -->
<g id="node10" class="node">
<title>9</title>
<polygon fill="#ffbe52" stroke="black" points="1116.52,-558 1026.51,-576 846.49,-576 756.48,-558 846.49,-540 1026.51,-540 1116.52,-558"/>
<text text-anchor="start" x="816.18" y="-553.33" font-family="DejaVu Sans Mono" font-size="14.00">for character in message:</text>
</g>
<!-- 1&#45;&gt;9 -->
<g id="edge34" class="edge">
<title>1&#45;&gt;9</title>
<path fill="none" stroke="black" d="M631.01,-655.79C717.13,-628.5 810.13,-599.04 870.6,-579.88"/>
<polygon fill="black" stroke="black" points="871.58,-583.24 880.06,-576.88 869.47,-576.57 871.58,-583.24"/>
</g>
<!-- 4 -->
<g id="node7" class="node">
<title>4</title>
<polygon fill="#e552ff" stroke="#e552ff" points="263.12,-495.5 217.88,-495.5 217.88,-499.5 205.88,-499.5 205.88,-459.5 263.12,-459.5 263.12,-495.5"/>
<polyline fill="none" stroke="#e552ff" points="205.88,-495.5 217.88,-495.5"/>
<text text-anchor="middle" x="234.5" y="-472.82" font-family="DejaVu Sans Mono" font-size="14.00">input</text>
</g>
<!-- 3&#45;&gt;4 -->
<g id="edge6" class="edge">
<title>3&#45;&gt;4</title>
<path fill="none" stroke="black" d="M232.94,-539.58C233.19,-530.02 233.5,-517.94 233.77,-507.05"/>
<polygon fill="black" stroke="black" points="237.26,-507.47 234.02,-497.39 230.27,-507.29 237.26,-507.47"/>
</g>
<!-- 7 -->
<g id="node8" class="node">
<title>7</title>
<polygon fill="#e552ff" stroke="#e552ff" points="409.12,-495.5 363.88,-495.5 363.88,-499.5 351.88,-499.5 351.88,-459.5 409.12,-459.5 409.12,-495.5"/>
<polyline fill="none" stroke="#e552ff" points="351.88,-495.5 363.88,-495.5"/>
<text text-anchor="middle" x="380.5" y="-472.82" font-family="DejaVu Sans Mono" font-size="14.00">input</text>
</g>
<!-- 6&#45;&gt;7 -->
<g id="edge7" class="edge">
<title>6&#45;&gt;7</title>
<path fill="none" stroke="black" d="M380.5,-539.58C380.5,-530.02 380.5,-517.94 380.5,-507.05"/>
<polygon fill="black" stroke="black" points="384,-507.39 380.5,-497.39 377,-507.39 384,-507.39"/>
</g>
<!-- 1_input -->
<g id="node9" class="node">
<title>1_input</title>
<polygon fill="#afeeee" stroke="black" points="475.38,-885.25 381.71,-885.25 357.62,-849.25 451.29,-849.25 475.38,-885.25"/>
<text text-anchor="middle" x="416.5" y="-862.58" font-family="DejaVu Sans Mono" font-size="14.00">input</text>
</g>
<!-- 1_input&#45;&gt;1 -->
<g id="edge8" class="edge">
<title>1_input&#45;&gt;1</title>
<path fill="none" stroke="black" d="M416.5,-849.02C416.5,-847.38 416.5,-845.66 416.5,-843.85"/>
<polygon fill="black" stroke="black" points="420,-844.19 416.5,-834.19 413,-844.19 420,-844.19"/>
</g>
<!-- 10 -->
<g id="node11" class="node">
<title>10</title>
<polygon fill="#ff6752" stroke="black" points="1086.5,-495.5 964.23,-477.5 1086.5,-459.5 1208.77,-477.5 1086.5,-495.5"/>
<text text-anchor="start" x="1007.35" y="-472.82" font-family="DejaVu Sans Mono" font-size="14.00">if mode == 1:</text>
</g>
<!-- 9&#45;&gt;10 -->
<g id="edge19" class="edge">
<title>9&#45;&gt;10</title>
<path fill="none" stroke="green" d="M969.79,-539.58C993.81,-527.01 1026.19,-510.06 1050.75,-497.21"/>
<polygon fill="green" stroke="green" points="1052.17,-500.41 1059.41,-492.68 1048.93,-494.21 1052.17,-500.41"/>
<text text-anchor="middle" x="1057.38" y="-510.7" font-family="DejaVu Sans Mono" font-size="14.00">message</text>
</g>
<!-- 11 -->
<g id="node20" class="node">
<title>11</title>
<polygon fill="#fffb81" stroke="black" points="812.88,-498.75 574.12,-498.75 574.12,-456.25 812.88,-456.25 812.88,-498.75"/>
<text text-anchor="start" x="582.12" y="-481.45" font-family="DejaVu Sans Mono" font-size="14.00">print(&quot;&quot;&quot;</text>
<text text-anchor="start" x="582.12" y="-464.2" font-family="DejaVu Sans Mono" font-size="14.00">Your encrypted text is:&quot;&quot;&quot;)</text>
</g>
<!-- 9&#45;&gt;11 -->
<g id="edge33" class="edge">
<title>9&#45;&gt;11</title>
<path fill="none" stroke="green" d="M882.57,-539.58C848.97,-528.72 805.27,-514.61 768.34,-502.68"/>
<polygon fill="green" stroke="green" points="769.66,-499.42 759.06,-499.68 767.5,-506.08 769.66,-499.42"/>
</g>
<!-- 12 -->
<g id="node12" class="node">
<title>12</title>
<polygon fill="#fffb81" stroke="black" points="1200.25,-413.5 738.75,-413.5 738.75,-371 1200.25,-371 1200.25,-413.5"/>
<text text-anchor="start" x="746.75" y="-396.2" font-family="DejaVu Sans Mono" font-size="14.00">encoded_char = caesar_encoding.find(character.upper())</text>
<text text-anchor="start" x="746.75" y="-378.95" font-family="DejaVu Sans Mono" font-size="14.00">translated.append((encoded_char + key) % 26)</text>
</g>
<!-- 10&#45;&gt;12 -->
<g id="edge13" class="edge">
<title>10&#45;&gt;12</title>
<path fill="none" stroke="green" d="M1065.26,-462.19C1056.82,-456.44 1047.03,-449.71 1038.25,-443.5 1027.9,-436.18 1016.77,-428.13 1006.54,-420.65"/>
<polygon fill="green" stroke="green" points="1008.81,-417.97 998.67,-414.88 1004.67,-423.62 1008.81,-417.97"/>
<text text-anchor="middle" x="1074.62" y="-430.2" font-family="DejaVu Sans Mono" font-size="14.00">mode == 1</text>
</g>
<!-- 14 -->
<g id="node16" class="node">
<title>14</title>
<polygon fill="#fffb81" stroke="black" points="1680.25,-413.5 1218.75,-413.5 1218.75,-371 1680.25,-371 1680.25,-413.5"/>
<text text-anchor="start" x="1226.75" y="-396.2" font-family="DejaVu Sans Mono" font-size="14.00">encoded_char = caesar_encoding.find(character.upper())</text>
<text text-anchor="start" x="1226.75" y="-378.95" font-family="DejaVu Sans Mono" font-size="14.00">translated.append((encoded_char &#45; key) % 26)</text>
</g>
<!-- 10&#45;&gt;14 -->
<g id="edge18" class="edge">
<title>10&#45;&gt;14</title>
<path fill="none" stroke="red" d="M1102.66,-461.47C1116.27,-449.76 1136.81,-434.21 1157.75,-426.25 1162.79,-424.33 1196.38,-420.08 1239.1,-415.24"/>
<polygon fill="red" stroke="red" points="1239.4,-418.73 1248.95,-414.13 1238.62,-411.77 1239.4,-418.73"/>
<text text-anchor="middle" x="1202.88" y="-430.2" font-family="DejaVu Sans Mono" font-size="14.00">(mode != 1)</text>
</g>
<!-- 12&#45;&gt;9 -->
<g id="edge12" class="edge">
<title>12&#45;&gt;9</title>
<path fill="none" stroke="black" d="M964.22,-413.94C961.46,-425.04 958.13,-438.98 955.5,-451.5 950.04,-477.5 944.76,-507.32 941.16,-528.6"/>
<polygon fill="black" stroke="black" points="937.74,-527.83 939.54,-538.27 944.64,-528.99 937.74,-527.83"/>
</g>
<!-- 18 -->
<g id="node13" class="node">
<title>18</title>
<polygon fill="#e552ff" stroke="#e552ff" points="1060,-325 891,-325 891,-329 879,-329 879,-289 1060,-289 1060,-325"/>
<polyline fill="none" stroke="#e552ff" points="879,-325 891,-325"/>
<text text-anchor="middle" x="969.5" y="-302.32" font-family="DejaVu Sans Mono" font-size="14.00">caesar_encoding.find</text>
</g>
<!-- 12&#45;&gt;18 -->
<g id="edge9" class="edge">
<title>12&#45;&gt;18</title>
<path fill="none" stroke="black" stroke-dasharray="5,2" d="M969.5,-370.67C969.5,-360.42 969.5,-347.85 969.5,-336.67"/>
<polygon fill="black" stroke="black" points="973,-336.77 969.5,-326.77 966,-336.77 973,-336.77"/>
<text text-anchor="middle" x="990.12" y="-344.95" font-family="DejaVu Sans Mono" font-size="14.00">calls</text>
</g>
<!-- 20 -->
<g id="node14" class="node">
<title>20</title>
<polygon fill="#e552ff" stroke="#e552ff" points="1234.62,-325 1090.38,-325 1090.38,-329 1078.38,-329 1078.38,-289 1234.62,-289 1234.62,-325"/>
<polyline fill="none" stroke="#e552ff" points="1078.38,-325 1090.38,-325"/>
<text text-anchor="middle" x="1156.5" y="-302.32" font-family="DejaVu Sans Mono" font-size="14.00">translated.append</text>
</g>
<!-- 12&#45;&gt;20 -->
<g id="edge10" class="edge">
<title>12&#45;&gt;20</title>
<path fill="none" stroke="black" stroke-dasharray="5,2" d="M1015.72,-370.67C1043.44,-358.33 1078.68,-342.65 1106.97,-330.05"/>
<polygon fill="black" stroke="black" points="1108.34,-333.27 1116.05,-326.01 1105.49,-326.88 1108.34,-333.27"/>
<text text-anchor="middle" x="1100.12" y="-344.95" font-family="DejaVu Sans Mono" font-size="14.00">calls</text>
</g>
<!-- 19 -->
<g id="node15" class="node">
<title>19</title>
<polygon fill="#e552ff" stroke="#e552ff" points="1039.38,-247.75 911.62,-247.75 911.62,-251.75 899.62,-251.75 899.62,-211.75 1039.38,-211.75 1039.38,-247.75"/>
<polyline fill="none" stroke="#e552ff" points="899.62,-247.75 911.62,-247.75"/>
<text text-anchor="middle" x="969.5" y="-225.07" font-family="DejaVu Sans Mono" font-size="14.00">character.upper</text>
</g>
<!-- 18&#45;&gt;19 -->
<g id="edge11" class="edge">
<title>18&#45;&gt;19</title>
<path fill="none" stroke="black" d="M969.5,-288.55C969.5,-279.9 969.5,-269.25 969.5,-259.44"/>
<polygon fill="black" stroke="black" points="973,-259.62 969.5,-249.62 966,-259.62 973,-259.62"/>
</g>
<!-- 14&#45;&gt;9 -->
<g id="edge17" class="edge">
<title>14&#45;&gt;9</title>
<path fill="none" stroke="black" d="M1411.15,-413.9C1366,-437.45 1288.16,-475.68 1217.5,-498.75 1163.01,-516.54 1100.74,-530.11 1048.68,-539.65"/>
<polygon fill="black" stroke="black" points="1048.11,-536.2 1038.89,-541.42 1049.35,-543.09 1048.11,-536.2"/>
</g>
<!-- 15 -->
<g id="node17" class="node">
<title>15</title>
<polygon fill="#e552ff" stroke="#e552ff" points="1458,-325 1289,-325 1289,-329 1277,-329 1277,-289 1458,-289 1458,-325"/>
<polyline fill="none" stroke="#e552ff" points="1277,-325 1289,-325"/>
<text text-anchor="middle" x="1367.5" y="-302.32" font-family="DejaVu Sans Mono" font-size="14.00">caesar_encoding.find</text>
</g>
<!-- 14&#45;&gt;15 -->
<g id="edge14" class="edge">
<title>14&#45;&gt;15</title>
<path fill="none" stroke="black" stroke-dasharray="5,2" d="M1429.23,-370.67C1418.06,-359.33 1404.09,-345.15 1392.27,-333.15"/>
<polygon fill="black" stroke="black" points="1395.07,-331 1385.56,-326.33 1390.08,-335.91 1395.07,-331"/>
<text text-anchor="middle" x="1436.12" y="-344.95" font-family="DejaVu Sans Mono" font-size="14.00">calls</text>
</g>
<!-- 17 -->
<g id="node18" class="node">
<title>17</title>
<polygon fill="#e552ff" stroke="#e552ff" points="1632.62,-325 1488.38,-325 1488.38,-329 1476.38,-329 1476.38,-289 1632.62,-289 1632.62,-325"/>
<polyline fill="none" stroke="#e552ff" points="1476.38,-325 1488.38,-325"/>
<text text-anchor="middle" x="1554.5" y="-302.32" font-family="DejaVu Sans Mono" font-size="14.00">translated.append</text>
</g>
<!-- 14&#45;&gt;17 -->
<g id="edge15" class="edge">
<title>14&#45;&gt;17</title>
<path fill="none" stroke="black" stroke-dasharray="5,2" d="M1475.46,-370.67C1490.18,-359 1508.68,-344.33 1524.08,-332.12"/>
<polygon fill="black" stroke="black" points="1525.89,-335.15 1531.55,-326.19 1521.54,-329.66 1525.89,-335.15"/>
<text text-anchor="middle" x="1531.12" y="-344.95" font-family="DejaVu Sans Mono" font-size="14.00">calls</text>
</g>
<!-- 16 -->
<g id="node19" class="node">
<title>16</title>
<polygon fill="#e552ff" stroke="#e552ff" points="1437.38,-247.75 1309.62,-247.75 1309.62,-251.75 1297.62,-251.75 1297.62,-211.75 1437.38,-211.75 1437.38,-247.75"/>
<polyline fill="none" stroke="#e552ff" points="1297.62,-247.75 1309.62,-247.75"/>
<text text-anchor="middle" x="1367.5" y="-225.07" font-family="DejaVu Sans Mono" font-size="14.00">character.upper</text>
</g>
<!-- 15&#45;&gt;16 -->
<g id="edge16" class="edge">
<title>15&#45;&gt;16</title>
<path fill="none" stroke="black" d="M1367.5,-288.55C1367.5,-279.9 1367.5,-269.25 1367.5,-259.44"/>
<polygon fill="black" stroke="black" points="1371,-259.62 1367.5,-249.62 1364,-259.62 1371,-259.62"/>
</g>
<!-- 21 -->
<g id="node21" class="node">
<title>21</title>
<polygon fill="#e552ff" stroke="#e552ff" points="262.12,-410.25 216.88,-410.25 216.88,-414.25 204.88,-414.25 204.88,-374.25 262.12,-374.25 262.12,-410.25"/>
<polyline fill="none" stroke="#e552ff" points="204.88,-410.25 216.88,-410.25"/>
<text text-anchor="middle" x="233.5" y="-387.57" font-family="DejaVu Sans Mono" font-size="14.00">print</text>
</g>
<!-- 11&#45;&gt;21 -->
<g id="edge20" class="edge">
<title>11&#45;&gt;21</title>
<path fill="none" stroke="black" stroke-dasharray="5,2" d="M595.62,-455.78C587.14,-454.24 578.68,-452.78 570.5,-451.5 438.41,-430.77 397.27,-463.64 271.5,-418.25 269.71,-417.6 267.93,-416.86 266.15,-416.04"/>
<polygon fill="black" stroke="black" points="268.09,-413.11 257.63,-411.41 264.75,-419.26 268.09,-413.11"/>
<text text-anchor="middle" x="408.12" y="-430.2" font-family="DejaVu Sans Mono" font-size="14.00">calls</text>
</g>
<!-- 22 -->
<g id="node22" class="node">
<title>22</title>
<polygon fill="#ffbe52" stroke="black" points="720.62,-392.25 610.56,-410.25 390.44,-410.25 280.38,-392.25 390.44,-374.25 610.56,-374.25 720.62,-392.25"/>
<text text-anchor="start" x="351.61" y="-387.57" font-family="DejaVu Sans Mono" font-size="14.00">for encoded_char in translated:</text>
</g>
<!-- 11&#45;&gt;22 -->
<g id="edge32" class="edge">
<title>11&#45;&gt;22</title>
<path fill="none" stroke="black" d="M645.79,-455.92C617.06,-443.53 580.5,-427.76 551.24,-415.14"/>
<polygon fill="black" stroke="black" points="552.78,-411.99 542.21,-411.24 550,-418.41 552.78,-411.99"/>
</g>
<!-- 23 -->
<g id="node23" class="node">
<title>23</title>
<polygon fill="#fffb81" stroke="black" points="379,-325 0,-325 0,-289 379,-289 379,-325"/>
<text text-anchor="start" x="8" y="-302.32" font-family="DejaVu Sans Mono" font-size="14.00">print(caesar_encoding[encoded_char], end=&#39;&#39;)</text>
</g>
<!-- 22&#45;&gt;23 -->
<g id="edge23" class="edge">
<title>22&#45;&gt;23</title>
<path fill="none" stroke="green" d="M443.03,-373.81C409.45,-363.8 366.2,-351.24 327.5,-341 310.99,-336.63 293.31,-332.21 276.29,-328.08"/>
<polygon fill="green" stroke="green" points="277.24,-324.71 266.7,-325.77 275.6,-331.52 277.24,-324.71"/>
<text text-anchor="middle" x="430.75" y="-344.95" font-family="DejaVu Sans Mono" font-size="14.00">translated</text>
</g>
<!-- 24 -->
<g id="node25" class="node">
<title>24</title>
<polygon fill="#fffb81" stroke="black" points="619.62,-325 397.38,-325 397.38,-289 619.62,-289 619.62,-325"/>
<text text-anchor="start" x="405.38" y="-302.32" font-family="DejaVu Sans Mono" font-size="14.00">plaintext: List[int] = []</text>
</g>
<!-- 22&#45;&gt;24 -->
<g id="edge31" class="edge">
<title>22&#45;&gt;24</title>
<path fill="none" stroke="green" d="M502.16,-374C503.2,-363.17 504.57,-348.95 505.76,-336.48"/>
<polygon fill="green" stroke="green" points="509.23,-337.02 506.7,-326.73 502.26,-336.35 509.23,-337.02"/>
</g>
<!-- 23&#45;&gt;22 -->
<g id="edge22" class="edge">
<title>23&#45;&gt;22</title>
<path fill="none" stroke="black" d="M237.67,-325.5C267.35,-335.88 306.33,-348.82 341.5,-358.25 359.17,-362.99 378.1,-367.45 396.52,-371.46"/>
<polygon fill="black" stroke="black" points="395.6,-374.84 406.11,-373.52 397.07,-368 395.6,-374.84"/>
</g>
<!-- 25 -->
<g id="node24" class="node">
<title>25</title>
<polygon fill="#e552ff" stroke="#e552ff" points="137.12,-247.75 91.88,-247.75 91.88,-251.75 79.88,-251.75 79.88,-211.75 137.12,-211.75 137.12,-247.75"/>
<polyline fill="none" stroke="#e552ff" points="79.88,-247.75 91.88,-247.75"/>
<text text-anchor="middle" x="108.5" y="-225.07" font-family="DejaVu Sans Mono" font-size="14.00">print</text>
</g>
<!-- 23&#45;&gt;25 -->
<g id="edge21" class="edge">
<title>23&#45;&gt;25</title>
<path fill="none" stroke="black" stroke-dasharray="5,2" d="M170.71,-288.55C160.29,-278.86 147.13,-266.64 135.61,-255.93"/>
<polygon fill="black" stroke="black" points="138,-253.38 128.29,-249.14 133.24,-258.51 138,-253.38"/>
<text text-anchor="middle" x="181.12" y="-267.7" font-family="DejaVu Sans Mono" font-size="14.00">calls</text>
</g>
<!-- 26 -->
<g id="node26" class="node">
<title>26</title>
<polygon fill="#ffbe52" stroke="black" points="862.27,-229.75 685.38,-247.75 331.62,-247.75 154.73,-229.75 331.62,-211.75 685.38,-211.75 862.27,-229.75"/>
<text text-anchor="start" x="264.34" y="-225.07" font-family="DejaVu Sans Mono" font-size="14.00">for counter, encoded_char in enumerate(translated):</text>
</g>
<!-- 24&#45;&gt;26 -->
<g id="edge30" class="edge">
<title>24&#45;&gt;26</title>
<path fill="none" stroke="black" d="M508.5,-288.55C508.5,-279.9 508.5,-269.25 508.5,-259.44"/>
<polygon fill="black" stroke="black" points="512,-259.62 508.5,-249.62 505,-259.62 512,-259.62"/>
</g>
<!-- 27 -->
<g id="node27" class="node">
<title>27</title>
<polygon fill="#e552ff" stroke="#e552ff" points="211.62,-162.5 133.38,-162.5 133.38,-166.5 121.38,-166.5 121.38,-126.5 211.62,-126.5 211.62,-162.5"/>
<polyline fill="none" stroke="#e552ff" points="121.38,-162.5 133.38,-162.5"/>
<text text-anchor="middle" x="166.5" y="-139.82" font-family="DejaVu Sans Mono" font-size="14.00">enumerate</text>
</g>
<!-- 26&#45;&gt;27 -->
<g id="edge24" class="edge">
<title>26&#45;&gt;27</title>
<path fill="none" stroke="black" stroke-dasharray="5,2" d="M383.87,-211.26C332.42,-202.07 272.73,-188.82 220.5,-170.5 217.67,-169.51 214.79,-168.42 211.91,-167.27"/>
<polygon fill="black" stroke="black" points="213.5,-164.15 202.93,-163.49 210.79,-170.6 213.5,-164.15"/>
<text text-anchor="middle" x="326.12" y="-182.45" font-family="DejaVu Sans Mono" font-size="14.00">calls</text>
</g>
<!-- 28 -->
<g id="node28" class="node">
<title>28</title>
<polygon fill="#fffb81" stroke="black" points="633.38,-162.5 229.63,-162.5 229.63,-126.5 633.38,-126.5 633.38,-162.5"/>
<text text-anchor="start" x="237.62" y="-139.82" font-family="DejaVu Sans Mono" font-size="14.00">plaintext.append(caesar_encoding[encoded_char])</text>
</g>
<!-- 26&#45;&gt;28 -->
<g id="edge27" class="edge">
<title>26&#45;&gt;28</title>
<path fill="none" stroke="green" d="M401.99,-211.33C388.16,-207.07 377.1,-201.92 372.25,-195.75 364.63,-186.06 370,-176.88 380.06,-169.09"/>
<polygon fill="green" stroke="green" points="381.77,-172.16 388.17,-163.72 377.9,-166.32 381.77,-172.16"/>
<text text-anchor="middle" x="458.12" y="-182.45" font-family="DejaVu Sans Mono" font-size="14.00">enumerate(translated)</text>
</g>
<!-- 29 -->
<g id="node30" class="node">
<title>29</title>
<polygon fill="#fffb81" stroke="black" points="973.12,-162.5 651.88,-162.5 651.88,-126.5 973.12,-126.5 973.12,-162.5"/>
<text text-anchor="start" x="659.88" y="-139.82" font-family="DejaVu Sans Mono" font-size="14.00">plaintext_string = &#39;&#39;.join(plaintext)</text>
</g>
<!-- 26&#45;&gt;29 -->
<g id="edge29" class="edge">
<title>26&#45;&gt;29</title>
<path fill="none" stroke="green" d="M572.23,-211.3C620.57,-198.06 687.13,-179.83 737.94,-165.92"/>
<polygon fill="green" stroke="green" points="738.68,-169.35 747.4,-163.33 736.83,-162.59 738.68,-169.35"/>
</g>
<!-- 28&#45;&gt;26 -->
<g id="edge26" class="edge">
<title>28&#45;&gt;26</title>
<path fill="none" stroke="black" d="M520.44,-162.96C533.98,-167.34 544.97,-172.53 549.5,-178.5 555.83,-186.84 552.15,-195.75 544.9,-203.72"/>
<polygon fill="black" stroke="black" points="542.76,-200.93 537.8,-210.29 547.52,-206.07 542.76,-200.93"/>
</g>
<!-- 30 -->
<g id="node29" class="node">
<title>30</title>
<polygon fill="#e552ff" stroke="#e552ff" points="505.5,-77.25 369.5,-77.25 369.5,-81.25 357.5,-81.25 357.5,-41.25 505.5,-41.25 505.5,-77.25"/>
<polyline fill="none" stroke="#e552ff" points="357.5,-77.25 369.5,-77.25"/>
<text text-anchor="middle" x="431.5" y="-54.58" font-family="DejaVu Sans Mono" font-size="14.00">plaintext.append</text>
</g>
<!-- 28&#45;&gt;30 -->
<g id="edge25" class="edge">
<title>28&#45;&gt;30</title>
<path fill="none" stroke="black" stroke-dasharray="5,2" d="M431.5,-126.25C431.5,-115.42 431.5,-101.2 431.5,-88.73"/>
<polygon fill="black" stroke="black" points="435,-88.99 431.5,-78.99 428,-88.99 435,-88.99"/>
<text text-anchor="middle" x="452.12" y="-97.2" font-family="DejaVu Sans Mono" font-size="14.00">calls</text>
</g>
<!-- 31 -->
<g id="node31" class="node">
<title>31</title>
<polygon fill="#e552ff" stroke="#e552ff" points="841.12,-77.25 795.88,-77.25 795.88,-81.25 783.88,-81.25 783.88,-41.25 841.12,-41.25 841.12,-77.25"/>
<polyline fill="none" stroke="#e552ff" points="783.88,-77.25 795.88,-77.25"/>
<text text-anchor="middle" x="812.5" y="-54.58" font-family="DejaVu Sans Mono" font-size="14.00">.join</text>
</g>
<!-- 29&#45;&gt;31 -->
<g id="edge28" class="edge">
<title>29&#45;&gt;31</title>
<path fill="none" stroke="black" stroke-dasharray="5,2" d="M812.5,-126.25C812.5,-115.42 812.5,-101.2 812.5,-88.73"/>
<polygon fill="black" stroke="black" points="816,-88.99 812.5,-78.99 809,-88.99 816,-88.99"/>
<text text-anchor="middle" x="833.12" y="-97.2" font-family="DejaVu Sans Mono" font-size="14.00">calls</text>
</g>
<!-- input -->
<g id="node32" class="node">
<title>input</title>
<polygon fill="#afeeee" stroke="black" points="1608.38,-742.75 1514.71,-742.75 1490.62,-706.75 1584.29,-706.75 1608.38,-742.75"/>
<text text-anchor="middle" x="1549.5" y="-720.08" font-family="DejaVu Sans Mono" font-size="14.00">input</text>
</g>
<!-- call -->
<g id="node37" class="node">
<title>call</title>
<polygon fill="#e552ff" stroke="black" points="1576.5,-576 1534.5,-576 1534.5,-580 1522.5,-580 1522.5,-540 1576.5,-540 1576.5,-576"/>
<polyline fill="none" stroke="black" points="1522.5,-576 1534.5,-576"/>
<text text-anchor="middle" x="1549.5" y="-553.33" font-family="DejaVu Sans Mono" font-size="14.00">call</text>
</g>
<!-- input&#45;&gt;call -->
<!-- default -->
<g id="node33" class="node">
<title>default</title>
<polygon fill="#fffb81" stroke="black" points="1442.38,-576 1368.62,-576 1368.62,-540 1442.38,-540 1442.38,-576"/>
<text text-anchor="middle" x="1405.5" y="-553.33" font-family="DejaVu Sans Mono" font-size="14.00">default</text>
</g>
<!-- if -->
<g id="node34" class="node">
<title>if</title>
<polygon fill="#ff6752" stroke="black" points="1549.5,-885.25 1517.26,-867.25 1549.5,-849.25 1581.74,-867.25 1549.5,-885.25"/>
<text text-anchor="middle" x="1549.5" y="-862.58" font-family="DejaVu Sans Mono" font-size="14.00">if</text>
</g>
<!-- if&#45;&gt;input -->
<!-- for -->
<g id="node35" class="node">
<title>for</title>
<polygon fill="#ffbe52" stroke="black" points="1497.51,-867.25 1481,-885.25 1448,-885.25 1431.49,-867.25 1448,-849.25 1481,-849.25 1497.51,-867.25"/>
<text text-anchor="middle" x="1464.5" y="-862.58" font-family="DejaVu Sans Mono" font-size="14.00">for</text>
</g>
<!-- return -->
<g id="node38" class="node">
<title>return</title>
<polygon fill="#98fb98" stroke="black" points="1472.87,-742.75 1365.7,-742.75 1338.13,-706.75 1445.3,-706.75 1472.87,-742.75"/>
<text text-anchor="middle" x="1405.5" y="-720.08" font-family="DejaVu Sans Mono" font-size="14.00">return</text>
</g>
<!-- for&#45;&gt;return -->
<!-- while -->
<g id="node36" class="node">
<title>while</title>
<polygon fill="#ffbe52" stroke="black" points="1413.87,-867.25 1390.69,-885.25 1344.31,-885.25 1321.13,-867.25 1344.31,-849.25 1390.69,-849.25 1413.87,-867.25"/>
<text text-anchor="middle" x="1367.5" y="-862.58" font-family="DejaVu Sans Mono" font-size="14.00">while</text>
</g>
<!-- return&#45;&gt;default -->
<!-- try -->
<g id="node39" class="node">
<title>try</title>
<polygon fill="orange" stroke="black" points="1262.5,-885.25 1222.07,-867.25 1262.5,-849.25 1302.93,-867.25 1262.5,-885.25"/>
<polyline fill="none" stroke="black" points="1233.04,-872.13 1233.04,-862.37"/>
<polyline fill="none" stroke="black" points="1251.54,-854.13 1273.46,-854.13"/>
<polyline fill="none" stroke="black" points="1291.96,-862.37 1291.96,-872.13"/>
<polyline fill="none" stroke="black" points="1273.46,-880.37 1251.54,-880.37"/>
<text text-anchor="middle" x="1262.5" y="-862.58" font-family="DejaVu Sans Mono" font-size="14.00">try</text>
</g>
<!-- raise -->
<g id="node40" class="node">
<title>raise</title>
<polygon fill="#98fb98" stroke="black" points="1320.14,-730.31 1270.5,-742.75 1220.86,-730.31 1220.91,-710.19 1320.09,-710.19 1320.14,-730.31"/>
<text text-anchor="middle" x="1270.5" y="-720.08" font-family="DejaVu Sans Mono" font-size="14.00">raise</text>
</g>
<!-- try&#45;&gt;raise -->
</g>
</svg>
