<?xml version="1.0" encoding="UTF-8" standalone="no"?>
<!DOCTYPE svg PUBLIC "-//W3C//DTD SVG 1.1//EN"
 "http://www.w3.org/Graphics/SVG/1.1/DTD/svg11.dtd">
<!-- Generated by graphviz version 9.0.0 (20230911.1827)
 -->
<!-- Title: cluster0containers&#45;02&#45;off Pages: 1 -->
<svg width="1011pt" height="508pt"
 viewBox="0.00 0.00 1011.00 507.75" xmlns="http://www.w3.org/2000/svg" xmlns:xlink="http://www.w3.org/1999/xlink">
<g id="graph0" class="graph" transform="scale(1 1) rotate(0) translate(4 503.75)">
<title>cluster0containers&#45;02&#45;off</title>
<polygon fill="white" stroke="none" points="-4,4 -4,-503.75 1007,-503.75 1007,4 -4,4"/>
<text text-anchor="middle" x="501.5" y="-7.95" font-family="DejaVu Sans Mono" font-size="14.00">containers&#45;02&#45;off</text>
<g id="clust1" class="cluster">
<title>cluster_1</title>
<polygon fill="purple" stroke="purple" points="8,-334 8,-386 78,-386 78,-334 8,-334"/>
</g>
<g id="clust2" class="cluster">
<title>cluster_3</title>
<polygon fill="purple" stroke="purple" points="60,-187.75 60,-300.75 134,-300.75 134,-187.75 60,-187.75"/>
</g>
<g id="clust3" class="cluster">
<title>cluster_9</title>
<polygon fill="purple" stroke="purple" points="399,-33.25 399,-85.25 473,-85.25 473,-33.25 399,-33.25"/>
</g>
<g id="clust4" class="cluster">
<title>cluster_KEY</title>
<polygon fill="none" stroke="black" points="591,-248.75 591,-491.75 995,-491.75 995,-248.75 591,-248.75"/>
<text text-anchor="middle" x="793" y="-474.45" font-family="DejaVu Sans Mono" font-size="14.00">KEY</text>
</g>
<!-- 1 -->
<g id="node1" class="node">
<title>1</title>
<polygon fill="#fffb81" stroke="black" points="345.5,-461.75 32.5,-461.75 32.5,-419.25 345.5,-419.25 345.5,-461.75"/>
<text text-anchor="start" x="40.5" y="-444.45" font-family="DejaVu Sans Mono" font-size="14.00">from typing import List</text>
<text text-anchor="start" x="40.5" y="-427.2" font-family="DejaVu Sans Mono" font-size="14.00">user_nums: List[int] = list([0] * 5)</text>
</g>
<!-- 2 -->
<g id="node2" class="node">
<title>2</title>
<polygon fill="#e552ff" stroke="#e552ff" points="70,-378 28,-378 28,-382 16,-382 16,-342 70,-342 70,-378"/>
<polyline fill="none" stroke="#e552ff" points="16,-378 28,-378"/>
<text text-anchor="middle" x="43" y="-355.32" font-family="DejaVu Sans Mono" font-size="14.00">list</text>
</g>
<!-- 1&#45;&gt;2 -->
<g id="edge1" class="edge">
<title>1&#45;&gt;2</title>
<path fill="none" stroke="black" stroke-dasharray="5,2" d="M142.41,-418.79C122.51,-409.45 99.25,-397.86 79,-386 78.14,-385.5 77.27,-384.98 76.4,-384.45"/>
<polygon fill="black" stroke="black" points="78.65,-381.73 68.34,-379.28 74.87,-387.63 78.65,-381.73"/>
<text text-anchor="middle" x="146.62" y="-397.95" font-family="DejaVu Sans Mono" font-size="14.00">calls</text>
</g>
<!-- 3 -->
<g id="node3" class="node">
<title>3</title>
<polygon fill="#ffbe52" stroke="black" points="581.85,-360 458.42,-378 211.58,-378 88.15,-360 211.58,-342 458.42,-342 581.85,-360"/>
<text text-anchor="start" x="167.05" y="-355.32" font-family="DejaVu Sans Mono" font-size="14.00">for i in range(len(user_nums) + 1):</text>
</g>
<!-- 1&#45;&gt;3 -->
<g id="edge11" class="edge">
<title>1&#45;&gt;3</title>
<path fill="none" stroke="black" d="M227.36,-418.88C247.45,-408.07 272.1,-394.82 292.74,-383.72"/>
<polygon fill="black" stroke="black" points="294.34,-386.84 301.49,-379.02 291.02,-380.67 294.34,-386.84"/>
</g>
<!-- 4 -->
<g id="node4" class="node">
<title>4</title>
<polygon fill="#e552ff" stroke="#e552ff" points="125.62,-292.75 80.38,-292.75 80.38,-296.75 68.38,-296.75 68.38,-256.75 125.62,-256.75 125.62,-292.75"/>
<polyline fill="none" stroke="#e552ff" points="68.38,-292.75 80.38,-292.75"/>
<text text-anchor="middle" x="97" y="-270.07" font-family="DejaVu Sans Mono" font-size="14.00">range</text>
</g>
<!-- 3&#45;&gt;4 -->
<g id="edge2" class="edge">
<title>3&#45;&gt;4</title>
<path fill="none" stroke="black" stroke-dasharray="5,2" d="M172.38,-347.27C144.83,-342.44 121.61,-335.62 110.75,-326 104.49,-320.46 100.96,-312.36 99,-304.29"/>
<polygon fill="black" stroke="black" points="102.49,-303.94 97.41,-294.64 95.58,-305.08 102.49,-303.94"/>
<text text-anchor="middle" x="130.62" y="-312.7" font-family="DejaVu Sans Mono" font-size="14.00">calls</text>
</g>
<!-- 6 -->
<g id="node6" class="node">
<title>6</title>
<polygon fill="#fffb81" stroke="black" points="324.5,-292.75 143.5,-292.75 143.5,-256.75 324.5,-256.75 324.5,-292.75"/>
<text text-anchor="start" x="151.5" y="-270.07" font-family="DejaVu Sans Mono" font-size="14.00">user_nums[i] = i * 2</text>
</g>
<!-- 3&#45;&gt;6 -->
<g id="edge5" class="edge">
<title>3&#45;&gt;6</title>
<path fill="none" stroke="green" d="M197.36,-343.64C180.42,-339.17 166.89,-333.41 160.75,-326 152.05,-315.5 158.1,-306.25 169.76,-298.65"/>
<polygon fill="green" stroke="green" points="171.25,-301.82 178.29,-293.9 167.85,-295.71 171.25,-301.82"/>
<text text-anchor="middle" x="263.12" y="-312.7" font-family="DejaVu Sans Mono" font-size="14.00">range(len(user_nums) + 1)</text>
</g>
<!-- 7 -->
<g id="node7" class="node">
<title>7</title>
<polygon fill="#fffb81" stroke="black" points="531.62,-292.75 342.38,-292.75 342.38,-256.75 531.62,-256.75 531.62,-292.75"/>
<text text-anchor="start" x="350.38" y="-270.07" font-family="DejaVu Sans Mono" font-size="14.00">x: int = user_nums[3]</text>
</g>
<!-- 3&#45;&gt;7 -->
<g id="edge10" class="edge">
<title>3&#45;&gt;7</title>
<path fill="none" stroke="green" d="M364.04,-341.66C371.41,-336.87 379.17,-331.48 386,-326 395.45,-318.42 405.1,-309.32 413.43,-300.96"/>
<polygon fill="green" stroke="green" points="415.72,-303.62 420.2,-294.02 410.71,-298.74 415.72,-303.62"/>
</g>
<!-- 5 -->
<g id="node5" class="node">
<title>5</title>
<polygon fill="#e552ff" stroke="#e552ff" points="124,-231.75 82,-231.75 82,-235.75 70,-235.75 70,-195.75 124,-195.75 124,-231.75"/>
<polyline fill="none" stroke="#e552ff" points="70,-231.75 82,-231.75"/>
<text text-anchor="middle" x="97" y="-209.07" font-family="DejaVu Sans Mono" font-size="14.00">len</text>
</g>
<!-- 4&#45;&gt;5 -->
<g id="edge3" class="edge">
<title>4&#45;&gt;5</title>
<path fill="none" stroke="black" d="M97,-256.37C97,-252.32 97,-247.91 97,-243.52"/>
<polygon fill="black" stroke="black" points="100.5,-243.73 97,-233.73 93.5,-243.73 100.5,-243.73"/>
</g>
<!-- 6&#45;&gt;3 -->
<g id="edge4" class="edge">
<title>6&#45;&gt;3</title>
<path fill="none" stroke="black" d="M301.55,-293.19C312.06,-295.79 322.81,-298.39 333,-300.75 349.81,-304.64 360.13,-295.35 371,-308.75 377.37,-316.61 374.17,-325.49 367.59,-333.58"/>
<polygon fill="black" stroke="black" points="365.26,-330.94 360.81,-340.56 370.28,-335.82 365.26,-330.94"/>
</g>
<!-- 8 -->
<g id="node8" class="node">
<title>8</title>
<polygon fill="#ffbe52" stroke="black" points="596.97,-213.75 516.99,-231.75 357.01,-231.75 277.03,-213.75 357.01,-195.75 516.99,-195.75 596.97,-213.75"/>
<text text-anchor="start" x="330.97" y="-209.07" font-family="DejaVu Sans Mono" font-size="14.00">for inum in user_nums:</text>
</g>
<!-- 7&#45;&gt;8 -->
<g id="edge9" class="edge">
<title>7&#45;&gt;8</title>
<path fill="none" stroke="black" d="M437,-256.37C437,-252.32 437,-247.91 437,-243.52"/>
<polygon fill="black" stroke="black" points="440.5,-243.73 437,-233.73 433.5,-243.73 440.5,-243.73"/>
</g>
<!-- 9 -->
<g id="node9" class="node">
<title>9</title>
<polygon fill="#fffb81" stroke="black" points="489.38,-154.5 382.62,-154.5 382.62,-118.5 489.38,-118.5 489.38,-154.5"/>
<text text-anchor="start" x="390.62" y="-131.82" font-family="DejaVu Sans Mono" font-size="14.00">print(inum)</text>
</g>
<!-- 8&#45;&gt;9 -->
<g id="edge8" class="edge">
<title>8&#45;&gt;9</title>
<path fill="none" stroke="green" d="M402.36,-195.37C396.88,-191.04 391.97,-185.85 388.75,-179.75 386.12,-174.77 385.22,-171.34 389.01,-164.23"/>
<polygon fill="green" stroke="green" points="391.79,-166.38 394.29,-156.09 385.91,-162.58 391.79,-166.38"/>
<text text-anchor="middle" x="425.12" y="-166.45" font-family="DejaVu Sans Mono" font-size="14.00">user_nums</text>
</g>
<!-- 9&#45;&gt;8 -->
<g id="edge7" class="edge">
<title>9&#45;&gt;8</title>
<path fill="none" stroke="black" d="M461.87,-154.89C463.91,-157.22 465.69,-159.76 467,-162.5 470.82,-170.49 468.56,-178.87 463.92,-186.44"/>
<polygon fill="black" stroke="black" points="461.21,-184.22 457.95,-194.31 466.78,-188.45 461.21,-184.22"/>
</g>
<!-- 11 -->
<g id="node10" class="node">
<title>11</title>
<polygon fill="#e552ff" stroke="#e552ff" points="464.62,-77.25 419.38,-77.25 419.38,-81.25 407.38,-81.25 407.38,-41.25 464.62,-41.25 464.62,-77.25"/>
<polyline fill="none" stroke="#e552ff" points="407.38,-77.25 419.38,-77.25"/>
<text text-anchor="middle" x="436" y="-54.58" font-family="DejaVu Sans Mono" font-size="14.00">print</text>
</g>
<!-- 9&#45;&gt;11 -->
<g id="edge6" class="edge">
<title>9&#45;&gt;11</title>
<path fill="none" stroke="black" stroke-dasharray="5,2" d="M436,-118.05C436,-109.4 436,-98.75 436,-88.94"/>
<polygon fill="black" stroke="black" points="439.5,-89.12 436,-79.12 432.5,-89.12 439.5,-89.12"/>
<text text-anchor="middle" x="456.62" y="-97.2" font-family="DejaVu Sans Mono" font-size="14.00">calls</text>
</g>
<!-- input -->
<g id="node11" class="node">
<title>input</title>
<polygon fill="#afeeee" stroke="black" points="986.88,-378 893.21,-378 869.12,-342 962.79,-342 986.88,-378"/>
<text text-anchor="middle" x="928" y="-355.32" font-family="DejaVu Sans Mono" font-size="14.00">input</text>
</g>
<!-- call -->
<g id="node16" class="node">
<title>call</title>
<polygon fill="#e552ff" stroke="black" points="955,-292.75 913,-292.75 913,-296.75 901,-296.75 901,-256.75 955,-256.75 955,-292.75"/>
<polyline fill="none" stroke="black" points="901,-292.75 913,-292.75"/>
<text text-anchor="middle" x="928" y="-270.07" font-family="DejaVu Sans Mono" font-size="14.00">call</text>
</g>
<!-- input&#45;&gt;call -->
<!-- default -->
<g id="node12" class="node">
<title>default</title>
<polygon fill="#fffb81" stroke="black" points="820.88,-292.75 747.12,-292.75 747.12,-256.75 820.88,-256.75 820.88,-292.75"/>
<text text-anchor="middle" x="784" y="-270.07" font-family="DejaVu Sans Mono" font-size="14.00">default</text>
</g>
<!-- if -->
<g id="node13" class="node">
<title>if</title>
<polygon fill="#ff6752" stroke="black" points="928,-458.5 895.76,-440.5 928,-422.5 960.24,-440.5 928,-458.5"/>
<text text-anchor="middle" x="928" y="-435.82" font-family="DejaVu Sans Mono" font-size="14.00">if</text>
</g>
<!-- if&#45;&gt;input -->
<!-- for -->
<g id="node14" class="node">
<title>for</title>
<polygon fill="#ffbe52" stroke="black" points="876.01,-440.5 859.5,-458.5 826.5,-458.5 809.99,-440.5 826.5,-422.5 859.5,-422.5 876.01,-440.5"/>
<text text-anchor="middle" x="843" y="-435.82" font-family="DejaVu Sans Mono" font-size="14.00">for</text>
</g>
<!-- return -->
<g id="node17" class="node">
<title>return</title>
<polygon fill="#98fb98" stroke="black" points="851.37,-378 744.2,-378 716.63,-342 823.8,-342 851.37,-378"/>
<text text-anchor="middle" x="784" y="-355.32" font-family="DejaVu Sans Mono" font-size="14.00">return</text>
</g>
<!-- for&#45;&gt;return -->
<!-- while -->
<g id="node15" class="node">
<title>while</title>
<polygon fill="#ffbe52" stroke="black" points="792.37,-440.5 769.19,-458.5 722.81,-458.5 699.63,-440.5 722.81,-422.5 769.19,-422.5 792.37,-440.5"/>
<text text-anchor="middle" x="746" y="-435.82" font-family="DejaVu Sans Mono" font-size="14.00">while</text>
</g>
<!-- return&#45;&gt;default -->
<!-- try -->
<g id="node18" class="node">
<title>try</title>
<polygon fill="orange" stroke="black" points="641,-458.5 600.57,-440.5 641,-422.5 681.43,-440.5 641,-458.5"/>
<polyline fill="none" stroke="black" points="611.54,-445.38 611.54,-435.62"/>
<polyline fill="none" stroke="black" points="630.04,-427.38 651.96,-427.38"/>
<polyline fill="none" stroke="black" points="670.46,-435.62 670.46,-445.38"/>
<polyline fill="none" stroke="black" points="651.96,-453.62 630.04,-453.62"/>
<text text-anchor="middle" x="641" y="-435.82" font-family="DejaVu Sans Mono" font-size="14.00">try</text>
</g>
<!-- raise -->
<g id="node19" class="node">
<title>raise</title>
<polygon fill="#98fb98" stroke="black" points="698.64,-365.56 649,-378 599.36,-365.56 599.41,-345.44 698.59,-345.44 698.64,-365.56"/>
<text text-anchor="middle" x="649" y="-355.32" font-family="DejaVu Sans Mono" font-size="14.00">raise</text>
</g>
<!-- try&#45;&gt;raise -->
</g>
</svg>
