<?xml version="1.0" encoding="UTF-8" standalone="no"?>
<!DOCTYPE svg PUBLIC "-//W3C//DTD SVG 1.1//EN"
 "http://www.w3.org/Graphics/SVG/1.1/DTD/svg11.dtd">
<!-- Generated by graphviz version 9.0.0 (20230911.1827)
 -->
<!-- Title: cluster0containers&#45;05&#45;exp Pages: 1 -->
<svg width="1115pt" height="456pt"
 viewBox="0.00 0.00 1115.00 456.38" xmlns="http://www.w3.org/2000/svg" xmlns:xlink="http://www.w3.org/1999/xlink">
<g id="graph0" class="graph" transform="scale(1 1) rotate(0) translate(4 452.38)">
<title>cluster0containers&#45;05&#45;exp</title>
<polygon fill="white" stroke="none" points="-4,4 -4,-452.38 1111,-452.38 1111,4 -4,4"/>
<text text-anchor="middle" x="553.5" y="-7.95" font-family="DejaVu Sans Mono" font-size="14.00">containers&#45;05&#45;exp</text>
<g id="clust1" class="cluster">
<title>cluster_2</title>
<polygon fill="purple" stroke="purple" points="8,-203.75 8,-255.75 82,-255.75 82,-203.75 8,-203.75"/>
</g>
<g id="clust2" class="cluster">
<title>cluster_4</title>
<polygon fill="purple" stroke="purple" points="113,-118.5 113,-170.5 301,-170.5 301,-118.5 113,-118.5"/>
</g>
<g id="clust3" class="cluster">
<title>cluster_7</title>
<polygon fill="purple" stroke="purple" points="477,-33.25 477,-85.25 551,-85.25 551,-33.25 477,-33.25"/>
</g>
<g id="clust4" class="cluster">
<title>cluster_KEY</title>
<polygon fill="none" stroke="black" points="695,-203.75 695,-440.38 1099,-440.38 1099,-203.75 695,-203.75"/>
<text text-anchor="middle" x="897" y="-423.07" font-family="DejaVu Sans Mono" font-size="14.00">KEY</text>
</g>
<!-- 1 -->
<g id="node1" class="node">
<title>1</title>
<polygon fill="#fffb81" stroke="black" points="387.5,-436.25 140.5,-436.25 140.5,-342 387.5,-342 387.5,-436.25"/>
<text text-anchor="start" x="148.5" y="-418.95" font-family="DejaVu Sans Mono" font-size="14.00">from typing import List</text>
<text text-anchor="start" x="148.5" y="-401.7" font-family="DejaVu Sans Mono" font-size="14.00">base: int = 2</text>
<text text-anchor="start" x="148.5" y="-384.45" font-family="DejaVu Sans Mono" font-size="14.00">exponent: int = 16</text>
<text text-anchor="start" x="148.5" y="-367.2" font-family="DejaVu Sans Mono" font-size="14.00">total: int = 1</text>
<text text-anchor="start" x="148.5" y="-349.95" font-family="DejaVu Sans Mono" font-size="14.00">binary_array: List[int] = []</text>
</g>
<!-- 2 -->
<g id="node2" class="node">
<title>2</title>
<polygon fill="#ffbe52" stroke="black" points="504.16,-307 384.08,-325 143.92,-325 23.84,-307 143.92,-289 384.08,-289 504.16,-307"/>
<text text-anchor="start" x="100.82" y="-302.32" font-family="DejaVu Sans Mono" font-size="14.00">for counter in range(0, exponent):</text>
</g>
<!-- 1&#45;&gt;2 -->
<g id="edge9" class="edge">
<title>1&#45;&gt;2</title>
<path fill="none" stroke="black" d="M264,-341.52C264,-339.89 264,-338.28 264,-336.69"/>
<polygon fill="black" stroke="black" points="267.5,-336.74 264,-326.74 260.5,-336.74 267.5,-336.74"/>
</g>
<!-- 3 -->
<g id="node3" class="node">
<title>3</title>
<polygon fill="#e552ff" stroke="#e552ff" points="73.62,-247.75 28.38,-247.75 28.38,-251.75 16.37,-251.75 16.37,-211.75 73.62,-211.75 73.62,-247.75"/>
<polyline fill="none" stroke="#e552ff" points="16.37,-247.75 28.38,-247.75"/>
<text text-anchor="middle" x="45" y="-225.07" font-family="DejaVu Sans Mono" font-size="14.00">range</text>
</g>
<!-- 2&#45;&gt;3 -->
<g id="edge1" class="edge">
<title>2&#45;&gt;3</title>
<path fill="none" stroke="black" stroke-dasharray="5,2" d="M156.83,-288.52C148.26,-286.28 139.81,-283.78 131.75,-281 108.68,-273.04 104.05,-268.08 83,-255.75 82.11,-255.23 81.2,-254.69 80.3,-254.14"/>
<polygon fill="black" stroke="black" points="82.15,-251.18 71.81,-248.86 78.45,-257.12 82.15,-251.18"/>
<text text-anchor="middle" x="152.62" y="-267.7" font-family="DejaVu Sans Mono" font-size="14.00">calls</text>
</g>
<!-- 4 -->
<g id="node4" class="node">
<title>4</title>
<polygon fill="#fffb81" stroke="black" points="322.25,-251 91.75,-251 91.75,-208.5 322.25,-208.5 322.25,-251"/>
<text text-anchor="start" x="99.75" y="-233.7" font-family="DejaVu Sans Mono" font-size="14.00">total = total * base</text>
<text text-anchor="start" x="99.75" y="-216.45" font-family="DejaVu Sans Mono" font-size="14.00">binary_array.append(total)</text>
</g>
<!-- 2&#45;&gt;4 -->
<g id="edge4" class="edge">
<title>2&#45;&gt;4</title>
<path fill="none" stroke="green" d="M186.66,-288.57C184.02,-286.33 181.61,-283.82 179.5,-281 174.75,-274.65 175.63,-267.37 179.09,-260.37"/>
<polygon fill="green" stroke="green" points="181.78,-262.66 184.3,-252.37 175.91,-258.84 181.78,-262.66"/>
<text text-anchor="middle" x="254.25" y="-267.7" font-family="DejaVu Sans Mono" font-size="14.00">range(0, exponent)</text>
</g>
<!-- 5 -->
<g id="node6" class="node">
<title>5</title>
<polygon fill="#ffbe52" stroke="black" points="687.34,-229.75 600.67,-247.75 427.33,-247.75 340.66,-229.75 427.33,-211.75 600.67,-211.75 687.34,-229.75"/>
<text text-anchor="start" x="398.45" y="-225.07" font-family="DejaVu Sans Mono" font-size="14.00">for exp in binary_array:</text>
</g>
<!-- 2&#45;&gt;5 -->
<g id="edge8" class="edge">
<title>2&#45;&gt;5</title>
<path fill="none" stroke="green" d="M321.98,-288.55C358.77,-277.47 406.55,-263.09 445.24,-251.45"/>
<polygon fill="green" stroke="green" points="445.88,-254.91 454.45,-248.67 443.86,-248.21 445.88,-254.91"/>
</g>
<!-- 4&#45;&gt;2 -->
<g id="edge3" class="edge">
<title>4&#45;&gt;2</title>
<path fill="none" stroke="black" d="M311.84,-251.41C321.17,-255.02 328.44,-259.13 332,-263.75 335.51,-268.31 336.22,-272.19 331.53,-279.76"/>
<polygon fill="black" stroke="black" points="328.95,-277.36 325.84,-287.49 334.59,-281.51 328.95,-277.36"/>
</g>
<!-- 6 -->
<g id="node5" class="node">
<title>6</title>
<polygon fill="#e552ff" stroke="#e552ff" points="293.38,-162.5 132.62,-162.5 132.62,-166.5 120.62,-166.5 120.62,-126.5 293.38,-126.5 293.38,-162.5"/>
<polyline fill="none" stroke="#e552ff" points="120.62,-162.5 132.62,-162.5"/>
<text text-anchor="middle" x="207" y="-139.82" font-family="DejaVu Sans Mono" font-size="14.00">binary_array.append</text>
</g>
<!-- 4&#45;&gt;6 -->
<g id="edge2" class="edge">
<title>4&#45;&gt;6</title>
<path fill="none" stroke="black" stroke-dasharray="5,2" d="M207,-208.17C207,-197.92 207,-185.35 207,-174.17"/>
<polygon fill="black" stroke="black" points="210.5,-174.27 207,-164.27 203.5,-174.27 210.5,-174.27"/>
<text text-anchor="middle" x="227.62" y="-182.45" font-family="DejaVu Sans Mono" font-size="14.00">calls</text>
</g>
<!-- 7 -->
<g id="node7" class="node">
<title>7</title>
<polygon fill="#fffb81" stroke="black" points="563.25,-162.5 464.75,-162.5 464.75,-126.5 563.25,-126.5 563.25,-162.5"/>
<text text-anchor="start" x="472.75" y="-139.82" font-family="DejaVu Sans Mono" font-size="14.00">print(exp)</text>
</g>
<!-- 5&#45;&gt;7 -->
<g id="edge7" class="edge">
<title>5&#45;&gt;7</title>
<path fill="none" stroke="green" d="M469.02,-211.34C463.03,-207.13 457.69,-201.99 454,-195.75 448.07,-185.72 452.84,-176.77 461.82,-169.31"/>
<polygon fill="green" stroke="green" points="463.6,-172.33 469.81,-163.74 459.6,-166.58 463.6,-172.33"/>
<text text-anchor="middle" x="503.5" y="-182.45" font-family="DejaVu Sans Mono" font-size="14.00">binary_array</text>
</g>
<!-- 7&#45;&gt;5 -->
<g id="edge6" class="edge">
<title>7&#45;&gt;5</title>
<path fill="none" stroke="black" d="M544.07,-162.72C549.29,-167.15 554,-172.42 557,-178.5 560.39,-185.38 560.39,-188.87 557,-195.75 555.64,-198.5 553.93,-201.09 551.98,-203.51"/>
<polygon fill="black" stroke="black" points="549.66,-200.88 545.13,-210.45 554.64,-205.8 549.66,-200.88"/>
</g>
<!-- 9 -->
<g id="node8" class="node">
<title>9</title>
<polygon fill="#e552ff" stroke="#e552ff" points="542.62,-77.25 497.38,-77.25 497.38,-81.25 485.38,-81.25 485.38,-41.25 542.62,-41.25 542.62,-77.25"/>
<polyline fill="none" stroke="#e552ff" points="485.38,-77.25 497.38,-77.25"/>
<text text-anchor="middle" x="514" y="-54.58" font-family="DejaVu Sans Mono" font-size="14.00">print</text>
</g>
<!-- 7&#45;&gt;9 -->
<g id="edge5" class="edge">
<title>7&#45;&gt;9</title>
<path fill="none" stroke="black" stroke-dasharray="5,2" d="M514,-126.25C514,-115.42 514,-101.2 514,-88.73"/>
<polygon fill="black" stroke="black" points="517.5,-88.99 514,-78.99 510.5,-88.99 517.5,-88.99"/>
<text text-anchor="middle" x="534.62" y="-97.2" font-family="DejaVu Sans Mono" font-size="14.00">calls</text>
</g>
<!-- input -->
<g id="node9" class="node">
<title>input</title>
<polygon fill="#afeeee" stroke="black" points="1090.88,-325 997.21,-325 973.12,-289 1066.79,-289 1090.88,-325"/>
<text text-anchor="middle" x="1032" y="-302.32" font-family="DejaVu Sans Mono" font-size="14.00">input</text>
</g>
<!-- call -->
<g id="node14" class="node">
<title>call</title>
<polygon fill="#e552ff" stroke="black" points="1059,-247.75 1017,-247.75 1017,-251.75 1005,-251.75 1005,-211.75 1059,-211.75 1059,-247.75"/>
<polyline fill="none" stroke="black" points="1005,-247.75 1017,-247.75"/>
<text text-anchor="middle" x="1032" y="-225.07" font-family="DejaVu Sans Mono" font-size="14.00">call</text>
</g>
<!-- input&#45;&gt;call -->
<!-- default -->
<g id="node10" class="node">
<title>default</title>
<polygon fill="#fffb81" stroke="black" points="924.88,-247.75 851.12,-247.75 851.12,-211.75 924.88,-211.75 924.88,-247.75"/>
<text text-anchor="middle" x="888" y="-225.07" font-family="DejaVu Sans Mono" font-size="14.00">default</text>
</g>
<!-- if -->
<g id="node11" class="node">
<title>if</title>
<polygon fill="#ff6752" stroke="black" points="1032,-407.12 999.76,-389.12 1032,-371.12 1064.24,-389.12 1032,-407.12"/>
<text text-anchor="middle" x="1032" y="-384.45" font-family="DejaVu Sans Mono" font-size="14.00">if</text>
</g>
<!-- if&#45;&gt;input -->
<!-- for -->
<g id="node12" class="node">
<title>for</title>
<polygon fill="#ffbe52" stroke="black" points="980.01,-389.12 963.5,-407.12 930.5,-407.12 913.99,-389.12 930.5,-371.12 963.5,-371.12 980.01,-389.12"/>
<text text-anchor="middle" x="947" y="-384.45" font-family="DejaVu Sans Mono" font-size="14.00">for</text>
</g>
<!-- return -->
<g id="node15" class="node">
<title>return</title>
<polygon fill="#98fb98" stroke="black" points="955.37,-325 848.2,-325 820.63,-289 927.8,-289 955.37,-325"/>
<text text-anchor="middle" x="888" y="-302.32" font-family="DejaVu Sans Mono" font-size="14.00">return</text>
</g>
<!-- for&#45;&gt;return -->
<!-- while -->
<g id="node13" class="node">
<title>while</title>
<polygon fill="#ffbe52" stroke="black" points="896.37,-389.12 873.19,-407.12 826.81,-407.12 803.63,-389.12 826.81,-371.12 873.19,-371.12 896.37,-389.12"/>
<text text-anchor="middle" x="850" y="-384.45" font-family="DejaVu Sans Mono" font-size="14.00">while</text>
</g>
<!-- return&#45;&gt;default -->
<!-- try -->
<g id="node16" class="node">
<title>try</title>
<polygon fill="orange" stroke="black" points="745,-407.12 704.57,-389.12 745,-371.12 785.43,-389.12 745,-407.12"/>
<polyline fill="none" stroke="black" points="715.54,-394.01 715.54,-384.24"/>
<polyline fill="none" stroke="black" points="734.04,-376.01 755.96,-376.01"/>
<polyline fill="none" stroke="black" points="774.46,-384.24 774.46,-394.01"/>
<polyline fill="none" stroke="black" points="755.96,-402.24 734.04,-402.24"/>
<text text-anchor="middle" x="745" y="-384.45" font-family="DejaVu Sans Mono" font-size="14.00">try</text>
</g>
<!-- raise -->
<g id="node17" class="node">
<title>raise</title>
<polygon fill="#98fb98" stroke="black" points="802.64,-312.56 753,-325 703.36,-312.56 703.41,-292.44 802.59,-292.44 802.64,-312.56"/>
<text text-anchor="middle" x="753" y="-302.32" font-family="DejaVu Sans Mono" font-size="14.00">raise</text>
</g>
<!-- try&#45;&gt;raise -->
</g>
</svg>
