<?xml version="1.0" encoding="UTF-8" standalone="no"?>
<!DOCTYPE svg PUBLIC "-//W3C//DTD SVG 1.1//EN"
 "http://www.w3.org/Graphics/SVG/1.1/DTD/svg11.dtd">
<!-- Generated by graphviz version 9.0.0 (20230911.1827)
 -->
<!-- Title: cluster0containers&#45;04&#45;average Pages: 1 -->
<svg width="1134pt" height="326pt"
 viewBox="0.00 0.00 1134.00 325.50" xmlns="http://www.w3.org/2000/svg" xmlns:xlink="http://www.w3.org/1999/xlink">
<g id="graph0" class="graph" transform="scale(1 1) rotate(0) translate(4 321.5)">
<title>cluster0containers&#45;04&#45;average</title>
<polygon fill="white" stroke="none" points="-4,4 -4,-321.5 1130,-321.5 1130,4 -4,4"/>
<text text-anchor="middle" x="563" y="-7.95" font-family="DejaVu Sans Mono" font-size="14.00">containers&#45;04&#45;average</text>
<g id="clust1" class="cluster">
<title>cluster_1</title>
<polygon fill="purple" stroke="purple" points="8,-33.25 8,-138.25 706,-138.25 706,-33.25 8,-33.25"/>
</g>
<g id="clust2" class="cluster">
<title>cluster_KEY</title>
<polygon fill="none" stroke="black" points="714,-33.25 714,-295.75 1118,-295.75 1118,-33.25 714,-33.25"/>
<text text-anchor="middle" x="916" y="-278.45" font-family="DejaVu Sans Mono" font-size="14.00">KEY</text>
</g>
<!-- 1 -->
<g id="node1" class="node">
<title>1</title>
<polygon fill="#fffb81" stroke="black" points="679,-317.5 201,-317.5 201,-171.5 679,-171.5 679,-317.5"/>
<text text-anchor="start" x="209" y="-300.2" font-family="DejaVu Sans Mono" font-size="14.00">from typing import List</text>
<text text-anchor="start" x="209" y="-282.95" font-family="DejaVu Sans Mono" font-size="14.00">my_array: List[float] = []</text>
<text text-anchor="start" x="209" y="-265.7" font-family="DejaVu Sans Mono" font-size="14.00">my_array.append(2.1)</text>
<text text-anchor="start" x="209" y="-248.45" font-family="DejaVu Sans Mono" font-size="14.00">my_array.append(3.4)</text>
<text text-anchor="start" x="209" y="-231.2" font-family="DejaVu Sans Mono" font-size="14.00">my_array.append(5.3)</text>
<text text-anchor="start" x="209" y="-213.95" font-family="DejaVu Sans Mono" font-size="14.00">print(&#39;The average of these...&#39;)</text>
<text text-anchor="start" x="209" y="-196.7" font-family="DejaVu Sans Mono" font-size="14.00">print((my_array[0] + my_array[1] + my_array[0 + 2]) / 3)</text>
<text text-anchor="start" x="209" y="-179.45" font-family="DejaVu Sans Mono" font-size="14.00">print(sum(my_array) / len(my_array))</text>
</g>
<!-- 2 -->
<g id="node2" class="node">
<title>2</title>
<polygon fill="#e552ff" stroke="#e552ff" points="155.88,-130.25 28.12,-130.25 28.12,-134.25 16.12,-134.25 16.12,-94.25 155.88,-94.25 155.88,-130.25"/>
<polyline fill="none" stroke="#e552ff" points="16.12,-130.25 28.12,-130.25"/>
<text text-anchor="middle" x="86" y="-107.58" font-family="DejaVu Sans Mono" font-size="14.00">my_array.append</text>
</g>
<!-- 1&#45;&gt;2 -->
<g id="edge1" class="edge">
<title>1&#45;&gt;2</title>
<path fill="none" stroke="black" stroke-dasharray="5,2" d="M243.07,-171.04C206.87,-157.72 171.79,-144.82 144,-134.59"/>
<polygon fill="black" stroke="black" points="145.35,-131.36 134.76,-131.19 142.93,-137.93 145.35,-131.36"/>
<text text-anchor="middle" x="241.62" y="-150.2" font-family="DejaVu Sans Mono" font-size="14.00">calls</text>
</g>
<!-- 3 -->
<g id="node3" class="node">
<title>3</title>
<polygon fill="#e552ff" stroke="#e552ff" points="313.88,-130.25 186.12,-130.25 186.12,-134.25 174.12,-134.25 174.12,-94.25 313.88,-94.25 313.88,-130.25"/>
<polyline fill="none" stroke="#e552ff" points="174.12,-130.25 186.12,-130.25"/>
<text text-anchor="middle" x="244" y="-107.58" font-family="DejaVu Sans Mono" font-size="14.00">my_array.append</text>
</g>
<!-- 1&#45;&gt;3 -->
<g id="edge2" class="edge">
<title>1&#45;&gt;3</title>
<path fill="none" stroke="black" stroke-dasharray="5,2" d="M331.11,-171.14C312.46,-158.75 294.35,-146.71 279.51,-136.85"/>
<polygon fill="black" stroke="black" points="281.79,-134.16 271.52,-131.54 277.91,-139.99 281.79,-134.16"/>
<text text-anchor="middle" x="339.62" y="-150.2" font-family="DejaVu Sans Mono" font-size="14.00">calls</text>
</g>
<!-- 4 -->
<g id="node4" class="node">
<title>4</title>
<polygon fill="#e552ff" stroke="#e552ff" points="471.88,-130.25 344.12,-130.25 344.12,-134.25 332.12,-134.25 332.12,-94.25 471.88,-94.25 471.88,-130.25"/>
<polyline fill="none" stroke="#e552ff" points="332.12,-130.25 344.12,-130.25"/>
<text text-anchor="middle" x="402" y="-107.58" font-family="DejaVu Sans Mono" font-size="14.00">my_array.append</text>
</g>
<!-- 1&#45;&gt;4 -->
<g id="edge3" class="edge">
<title>1&#45;&gt;4</title>
<path fill="none" stroke="black" stroke-dasharray="5,2" d="M418.89,-171.14C415.8,-160.55 412.79,-150.23 410.18,-141.29"/>
<polygon fill="black" stroke="black" points="413.6,-140.52 407.44,-131.9 406.88,-142.48 413.6,-140.52"/>
<text text-anchor="middle" x="436.62" y="-150.2" font-family="DejaVu Sans Mono" font-size="14.00">calls</text>
</g>
<!-- 5 -->
<g id="node5" class="node">
<title>5</title>
<polygon fill="#e552ff" stroke="#e552ff" points="547.62,-130.25 502.38,-130.25 502.38,-134.25 490.38,-134.25 490.38,-94.25 547.62,-94.25 547.62,-130.25"/>
<polyline fill="none" stroke="#e552ff" points="490.38,-130.25 502.38,-130.25"/>
<text text-anchor="middle" x="519" y="-107.58" font-family="DejaVu Sans Mono" font-size="14.00">print</text>
</g>
<!-- 1&#45;&gt;5 -->
<g id="edge4" class="edge">
<title>1&#45;&gt;5</title>
<path fill="none" stroke="black" stroke-dasharray="5,2" d="M483.89,-171.14C490.6,-160.08 497.14,-149.3 502.72,-140.1"/>
<polygon fill="black" stroke="black" points="505.59,-142.11 507.78,-131.75 499.6,-138.48 505.59,-142.11"/>
<text text-anchor="middle" x="517.62" y="-150.2" font-family="DejaVu Sans Mono" font-size="14.00">calls</text>
</g>
<!-- 6 -->
<g id="node6" class="node">
<title>6</title>
<polygon fill="#e552ff" stroke="#e552ff" points="622.62,-130.25 577.38,-130.25 577.38,-134.25 565.38,-134.25 565.38,-94.25 622.62,-94.25 622.62,-130.25"/>
<polyline fill="none" stroke="#e552ff" points="565.38,-130.25 577.38,-130.25"/>
<text text-anchor="middle" x="594" y="-107.58" font-family="DejaVu Sans Mono" font-size="14.00">print</text>
</g>
<!-- 1&#45;&gt;6 -->
<g id="edge5" class="edge">
<title>1&#45;&gt;6</title>
<path fill="none" stroke="black" stroke-dasharray="5,2" d="M533.17,-171.08C536.16,-168.55 539.12,-166.01 542,-163.5 551.09,-155.58 560.67,-146.54 569.1,-138.32"/>
<polygon fill="black" stroke="black" points="571.34,-141.03 576.01,-131.52 566.43,-136.04 571.34,-141.03"/>
<text text-anchor="middle" x="579.62" y="-150.2" font-family="DejaVu Sans Mono" font-size="14.00">calls</text>
</g>
<!-- 7 -->
<g id="node7" class="node">
<title>7</title>
<polygon fill="#e552ff" stroke="#e552ff" points="697.62,-130.25 652.38,-130.25 652.38,-134.25 640.38,-134.25 640.38,-94.25 697.62,-94.25 697.62,-130.25"/>
<polyline fill="none" stroke="#e552ff" points="640.38,-130.25 652.38,-130.25"/>
<text text-anchor="middle" x="669" y="-107.58" font-family="DejaVu Sans Mono" font-size="14.00">print</text>
</g>
<!-- 1&#45;&gt;7 -->
<g id="edge6" class="edge">
<title>1&#45;&gt;7</title>
<path fill="none" stroke="black" stroke-dasharray="5,2" d="M591.23,-171.21C595.56,-168.66 599.83,-166.09 604,-163.5 616.3,-155.85 629.08,-146.37 640.01,-137.7"/>
<polygon fill="black" stroke="black" points="641.95,-140.63 647.53,-131.63 637.55,-135.19 641.95,-140.63"/>
<text text-anchor="middle" x="648.62" y="-150.2" font-family="DejaVu Sans Mono" font-size="14.00">calls</text>
</g>
<!-- 8 -->
<g id="node8" class="node">
<title>8</title>
<polygon fill="#e552ff" stroke="#e552ff" points="625,-77.25 583,-77.25 583,-81.25 571,-81.25 571,-41.25 625,-41.25 625,-77.25"/>
<polyline fill="none" stroke="#e552ff" points="571,-77.25 583,-77.25"/>
<text text-anchor="middle" x="598" y="-54.58" font-family="DejaVu Sans Mono" font-size="14.00">sum</text>
</g>
<!-- 7&#45;&gt;8 -->
<g id="edge7" class="edge">
<title>7&#45;&gt;8</title>
<path fill="none" stroke="black" d="M644.96,-93.98C640.57,-90.83 635.91,-87.48 631.3,-84.17"/>
<polygon fill="black" stroke="black" points="633.41,-81.37 623.24,-78.38 629.32,-87.06 633.41,-81.37"/>
</g>
<!-- 9 -->
<g id="node9" class="node">
<title>9</title>
<polygon fill="#e552ff" stroke="#e552ff" points="697,-77.25 655,-77.25 655,-81.25 643,-81.25 643,-41.25 697,-41.25 697,-77.25"/>
<polyline fill="none" stroke="#e552ff" points="643,-77.25 655,-77.25"/>
<text text-anchor="middle" x="670" y="-54.58" font-family="DejaVu Sans Mono" font-size="14.00">len</text>
</g>
<!-- 7&#45;&gt;9 -->
<g id="edge8" class="edge">
<title>7&#45;&gt;9</title>
<path fill="none" stroke="black" d="M669.34,-93.98C669.37,-92.32 669.4,-90.61 669.44,-88.87"/>
<polygon fill="black" stroke="black" points="672.94,-89.08 669.63,-79.01 665.94,-88.94 672.94,-89.08"/>
</g>
<!-- input -->
<g id="node10" class="node">
<title>input</title>
<polygon fill="#afeeee" stroke="black" points="1109.88,-130.25 1016.21,-130.25 992.12,-94.25 1085.79,-94.25 1109.88,-130.25"/>
<text text-anchor="middle" x="1051" y="-107.58" font-family="DejaVu Sans Mono" font-size="14.00">input</text>
</g>
<!-- call -->
<g id="node15" class="node">
<title>call</title>
<polygon fill="#e552ff" stroke="black" points="1078,-77.25 1036,-77.25 1036,-81.25 1024,-81.25 1024,-41.25 1078,-41.25 1078,-77.25"/>
<polyline fill="none" stroke="black" points="1024,-77.25 1036,-77.25"/>
<text text-anchor="middle" x="1051" y="-54.58" font-family="DejaVu Sans Mono" font-size="14.00">call</text>
</g>
<!-- input&#45;&gt;call -->
<!-- default -->
<g id="node11" class="node">
<title>default</title>
<polygon fill="#fffb81" stroke="black" points="943.88,-77.25 870.12,-77.25 870.12,-41.25 943.88,-41.25 943.88,-77.25"/>
<text text-anchor="middle" x="907" y="-54.58" font-family="DejaVu Sans Mono" font-size="14.00">default</text>
</g>
<!-- if -->
<g id="node12" class="node">
<title>if</title>
<polygon fill="#ff6752" stroke="black" points="1051,-262.5 1018.76,-244.5 1051,-226.5 1083.24,-244.5 1051,-262.5"/>
<text text-anchor="middle" x="1051" y="-239.82" font-family="DejaVu Sans Mono" font-size="14.00">if</text>
</g>
<!-- if&#45;&gt;input -->
<!-- for -->
<g id="node13" class="node">
<title>for</title>
<polygon fill="#ffbe52" stroke="black" points="999.01,-244.5 982.5,-262.5 949.5,-262.5 932.99,-244.5 949.5,-226.5 982.5,-226.5 999.01,-244.5"/>
<text text-anchor="middle" x="966" y="-239.82" font-family="DejaVu Sans Mono" font-size="14.00">for</text>
</g>
<!-- return -->
<g id="node16" class="node">
<title>return</title>
<polygon fill="#98fb98" stroke="black" points="974.37,-130.25 867.2,-130.25 839.63,-94.25 946.8,-94.25 974.37,-130.25"/>
<text text-anchor="middle" x="907" y="-107.58" font-family="DejaVu Sans Mono" font-size="14.00">return</text>
</g>
<!-- for&#45;&gt;return -->
<!-- while -->
<g id="node14" class="node">
<title>while</title>
<polygon fill="#ffbe52" stroke="black" points="915.37,-244.5 892.19,-262.5 845.81,-262.5 822.63,-244.5 845.81,-226.5 892.19,-226.5 915.37,-244.5"/>
<text text-anchor="middle" x="869" y="-239.82" font-family="DejaVu Sans Mono" font-size="14.00">while</text>
</g>
<!-- return&#45;&gt;default -->
<!-- try -->
<g id="node17" class="node">
<title>try</title>
<polygon fill="orange" stroke="black" points="764,-262.5 723.57,-244.5 764,-226.5 804.43,-244.5 764,-262.5"/>
<polyline fill="none" stroke="black" points="734.54,-249.38 734.54,-239.62"/>
<polyline fill="none" stroke="black" points="753.04,-231.38 774.96,-231.38"/>
<polyline fill="none" stroke="black" points="793.46,-239.62 793.46,-249.38"/>
<polyline fill="none" stroke="black" points="774.96,-257.62 753.04,-257.62"/>
<text text-anchor="middle" x="764" y="-239.82" font-family="DejaVu Sans Mono" font-size="14.00">try</text>
</g>
<!-- raise -->
<g id="node18" class="node">
<title>raise</title>
<polygon fill="#98fb98" stroke="black" points="821.64,-117.81 772,-130.25 722.36,-117.81 722.41,-97.69 821.59,-97.69 821.64,-117.81"/>
<text text-anchor="middle" x="772" y="-107.58" font-family="DejaVu Sans Mono" font-size="14.00">raise</text>
</g>
<!-- try&#45;&gt;raise -->
</g>
</svg>
