<?xml version="1.0" encoding="UTF-8" standalone="no"?>
<!DOCTYPE svg PUBLIC "-//W3C//DTD SVG 1.1//EN"
 "http://www.w3.org/Graphics/SVG/1.1/DTD/svg11.dtd">
<!-- Generated by graphviz version 9.0.0 (20230911.1827)
 -->
<!-- Title: cluster0containers&#45;01&#45;range Pages: 1 -->
<svg width="789pt" height="289pt"
 viewBox="0.00 0.00 789.02 289.00" xmlns="http://www.w3.org/2000/svg" xmlns:xlink="http://www.w3.org/1999/xlink">
<g id="graph0" class="graph" transform="scale(1 1) rotate(0) translate(4 285)">
<title>cluster0containers&#45;01&#45;range</title>
<polygon fill="white" stroke="none" points="-4,4 -4,-285 785.02,-285 785.02,4 -4,4"/>
<text text-anchor="middle" x="390.51" y="-7.95" font-family="DejaVu Sans Mono" font-size="14.00">containers&#45;01&#45;range</text>
<g id="clust1" class="cluster">
<title>cluster_1</title>
<polygon fill="purple" stroke="purple" points="79.02,-118.5 79.02,-170.5 153.02,-170.5 153.02,-118.5 79.02,-118.5"/>
</g>
<g id="clust2" class="cluster">
<title>cluster_3</title>
<polygon fill="purple" stroke="purple" points="216.02,-33.25 216.02,-85.25 290.02,-85.25 290.02,-33.25 216.02,-33.25"/>
</g>
<g id="clust3" class="cluster">
<title>cluster_KEY</title>
<polygon fill="none" stroke="black" points="369.02,-33.25 369.02,-273 773.02,-273 773.02,-33.25 369.02,-33.25"/>
<text text-anchor="middle" x="571.02" y="-255.7" font-family="DejaVu Sans Mono" font-size="14.00">KEY</text>
</g>
<!-- 1 -->
<g id="node1" class="node">
<title>1</title>
<polygon fill="#ffbe52" stroke="black" points="360.04,-221.75 270.03,-239.75 90.01,-239.75 0,-221.75 90.01,-203.75 270.03,-203.75 360.04,-221.75"/>
<text text-anchor="start" x="59.71" y="-217.07" font-family="DejaVu Sans Mono" font-size="14.00">for index in range(0, 5):</text>
</g>
<!-- 2 -->
<g id="node2" class="node">
<title>2</title>
<polygon fill="#e552ff" stroke="#e552ff" points="144.65,-162.5 99.4,-162.5 99.4,-166.5 87.4,-166.5 87.4,-126.5 144.65,-126.5 144.65,-162.5"/>
<polyline fill="none" stroke="#e552ff" points="87.4,-162.5 99.4,-162.5"/>
<text text-anchor="middle" x="116.02" y="-139.82" font-family="DejaVu Sans Mono" font-size="14.00">range</text>
</g>
<!-- 1&#45;&gt;2 -->
<g id="edge1" class="edge">
<title>1&#45;&gt;2</title>
<path fill="none" stroke="black" stroke-dasharray="5,2" d="M123.62,-203.28C121.04,-201.07 118.72,-198.57 116.77,-195.75 112.48,-189.53 111,-181.77 110.93,-174.22"/>
<polygon fill="black" stroke="black" points="114.42,-174.52 111.66,-164.29 107.44,-174 114.42,-174.52"/>
<text text-anchor="middle" x="137.65" y="-182.45" font-family="DejaVu Sans Mono" font-size="14.00">calls</text>
</g>
<!-- 3 -->
<g id="node3" class="node">
<title>3</title>
<polygon fill="#fffb81" stroke="black" points="310.52,-162.5 195.52,-162.5 195.52,-126.5 310.52,-126.5 310.52,-162.5"/>
<text text-anchor="start" x="203.52" y="-139.82" font-family="DejaVu Sans Mono" font-size="14.00">print(index)</text>
</g>
<!-- 1&#45;&gt;3 -->
<g id="edge4" class="edge">
<title>1&#45;&gt;3</title>
<path fill="none" stroke="green" d="M174.34,-203.48C172.73,-195.3 172.52,-185.76 177.27,-178.5 179.77,-174.69 182.8,-171.32 186.21,-168.34"/>
<polygon fill="green" stroke="green" points="188.1,-171.3 194.13,-162.59 183.99,-165.63 188.1,-171.3"/>
<text text-anchor="middle" x="223.4" y="-182.45" font-family="DejaVu Sans Mono" font-size="14.00">range(0, 5)</text>
</g>
<!-- 3&#45;&gt;1 -->
<g id="edge3" class="edge">
<title>3&#45;&gt;1</title>
<path fill="none" stroke="black" d="M267.34,-162.56C272.93,-170.97 277.46,-181.17 270.95,-194.11"/>
<polygon fill="black" stroke="black" points="268.13,-192.03 265.41,-202.27 273.92,-195.97 268.13,-192.03"/>
</g>
<!-- 5 -->
<g id="node4" class="node">
<title>5</title>
<polygon fill="#e552ff" stroke="#e552ff" points="281.65,-77.25 236.4,-77.25 236.4,-81.25 224.4,-81.25 224.4,-41.25 281.65,-41.25 281.65,-77.25"/>
<polyline fill="none" stroke="#e552ff" points="224.4,-77.25 236.4,-77.25"/>
<text text-anchor="middle" x="253.02" y="-54.58" font-family="DejaVu Sans Mono" font-size="14.00">print</text>
</g>
<!-- 3&#45;&gt;5 -->
<g id="edge2" class="edge">
<title>3&#45;&gt;5</title>
<path fill="none" stroke="black" stroke-dasharray="5,2" d="M253.02,-126.25C253.02,-115.42 253.02,-101.2 253.02,-88.73"/>
<polygon fill="black" stroke="black" points="256.52,-88.99 253.02,-78.99 249.52,-88.99 256.52,-88.99"/>
<text text-anchor="middle" x="273.65" y="-97.2" font-family="DejaVu Sans Mono" font-size="14.00">calls</text>
</g>
<!-- input -->
<g id="node5" class="node">
<title>input</title>
<polygon fill="#afeeee" stroke="black" points="764.9,-162.5 671.24,-162.5 647.14,-126.5 740.81,-126.5 764.9,-162.5"/>
<text text-anchor="middle" x="706.02" y="-139.82" font-family="DejaVu Sans Mono" font-size="14.00">input</text>
</g>
<!-- call -->
<g id="node10" class="node">
<title>call</title>
<polygon fill="#e552ff" stroke="black" points="733.02,-77.25 691.02,-77.25 691.02,-81.25 679.02,-81.25 679.02,-41.25 733.02,-41.25 733.02,-77.25"/>
<polyline fill="none" stroke="black" points="679.02,-77.25 691.02,-77.25"/>
<text text-anchor="middle" x="706.02" y="-54.58" font-family="DejaVu Sans Mono" font-size="14.00">call</text>
</g>
<!-- input&#45;&gt;call -->
<!-- default -->
<g id="node6" class="node">
<title>default</title>
<polygon fill="#fffb81" stroke="black" points="598.9,-77.25 525.15,-77.25 525.15,-41.25 598.9,-41.25 598.9,-77.25"/>
<text text-anchor="middle" x="562.02" y="-54.58" font-family="DejaVu Sans Mono" font-size="14.00">default</text>
</g>
<!-- if -->
<g id="node7" class="node">
<title>if</title>
<polygon fill="#ff6752" stroke="black" points="706.02,-239.75 673.78,-221.75 706.02,-203.75 738.26,-221.75 706.02,-239.75"/>
<text text-anchor="middle" x="706.02" y="-217.07" font-family="DejaVu Sans Mono" font-size="14.00">if</text>
</g>
<!-- if&#45;&gt;input -->
<!-- for -->
<g id="node8" class="node">
<title>for</title>
<polygon fill="#ffbe52" stroke="black" points="654.03,-221.75 637.53,-239.75 604.52,-239.75 588.01,-221.75 604.52,-203.75 637.53,-203.75 654.03,-221.75"/>
<text text-anchor="middle" x="621.02" y="-217.07" font-family="DejaVu Sans Mono" font-size="14.00">for</text>
</g>
<!-- return -->
<g id="node11" class="node">
<title>return</title>
<polygon fill="#98fb98" stroke="black" points="629.39,-162.5 522.22,-162.5 494.66,-126.5 601.82,-126.5 629.39,-162.5"/>
<text text-anchor="middle" x="562.02" y="-139.82" font-family="DejaVu Sans Mono" font-size="14.00">return</text>
</g>
<!-- for&#45;&gt;return -->
<!-- while -->
<g id="node9" class="node">
<title>while</title>
<polygon fill="#ffbe52" stroke="black" points="570.39,-221.75 547.21,-239.75 500.84,-239.75 477.65,-221.75 500.84,-203.75 547.21,-203.75 570.39,-221.75"/>
<text text-anchor="middle" x="524.02" y="-217.07" font-family="DejaVu Sans Mono" font-size="14.00">while</text>
</g>
<!-- return&#45;&gt;default -->
<!-- try -->
<g id="node12" class="node">
<title>try</title>
<polygon fill="orange" stroke="black" points="419.02,-239.75 378.6,-221.75 419.02,-203.75 459.45,-221.75 419.02,-239.75"/>
<polyline fill="none" stroke="black" points="389.56,-226.63 389.56,-216.87"/>
<polyline fill="none" stroke="black" points="408.06,-208.63 429.98,-208.63"/>
<polyline fill="none" stroke="black" points="448.49,-216.87 448.49,-226.63"/>
<polyline fill="none" stroke="black" points="429.98,-234.87 408.06,-234.87"/>
<text text-anchor="middle" x="419.02" y="-217.07" font-family="DejaVu Sans Mono" font-size="14.00">try</text>
</g>
<!-- raise -->
<g id="node13" class="node">
<title>raise</title>
<polygon fill="#98fb98" stroke="black" points="476.66,-150.06 427.02,-162.5 377.38,-150.06 377.43,-129.94 476.62,-129.94 476.66,-150.06"/>
<text text-anchor="middle" x="427.02" y="-139.82" font-family="DejaVu Sans Mono" font-size="14.00">raise</text>
</g>
<!-- try&#45;&gt;raise -->
</g>
</svg>
