<?xml version="1.0" encoding="UTF-8" standalone="no"?>
<!DOCTYPE svg PUBLIC "-//W3C//DTD SVG 1.1//EN"
 "http://www.w3.org/Graphics/SVG/1.1/DTD/svg11.dtd">
<!-- Generated by graphviz version 9.0.0 (20230911.1827)
 -->
<!-- Title: cluster0containers&#45;00&#45;search Pages: 1 -->
<svg width="1174pt" height="558pt"
 viewBox="0.00 0.00 1174.00 557.62" xmlns="http://www.w3.org/2000/svg" xmlns:xlink="http://www.w3.org/1999/xlink">
<g id="graph0" class="graph" transform="scale(1 1) rotate(0) translate(4 553.62)">
<title>cluster0containers&#45;00&#45;search</title>
<polygon fill="white" stroke="none" points="-4,4 -4,-553.62 1170,-553.62 1170,4 -4,4"/>
<text text-anchor="middle" x="583" y="-7.95" font-family="DejaVu Sans Mono" font-size="14.00">containers&#45;00&#45;search</text>
<g id="clust1" class="cluster">
<title>cluster_1</title>
<polygon fill="purple" stroke="purple" points="8,-276.88 8,-410 82,-410 82,-276.88 8,-276.88"/>
</g>
<g id="clust2" class="cluster">
<title>cluster_5</title>
<polygon fill="purple" stroke="purple" points="22,-118.5 22,-239.75 242,-239.75 242,-118.5 22,-118.5"/>
</g>
<g id="clust3" class="cluster">
<title>cluster_6</title>
<polygon fill="purple" stroke="purple" points="256,-118.5 256,-239.75 330,-239.75 330,-118.5 256,-118.5"/>
</g>
<g id="clust4" class="cluster">
<title>cluster_14</title>
<polygon fill="purple" stroke="purple" points="621,-33.25 621,-85.25 695,-85.25 695,-33.25 621,-33.25"/>
</g>
<g id="clust5" class="cluster">
<title>cluster_KEY</title>
<polygon fill="none" stroke="black" points="754,-276.88 754,-541.62 1158,-541.62 1158,-276.88 754,-276.88"/>
<text text-anchor="middle" x="956" y="-524.33" font-family="DejaVu Sans Mono" font-size="14.00">KEY</text>
</g>
<!-- 1 -->
<g id="node1" class="node">
<title>1</title>
<polygon fill="#fffb81" stroke="black" points="298.62,-537.5 43.38,-537.5 43.38,-443.25 298.62,-443.25 298.62,-537.5"/>
<text text-anchor="start" x="51.38" y="-520.2" font-family="DejaVu Sans Mono" font-size="14.00">from typing import List</text>
<text text-anchor="start" x="51.38" y="-502.95" font-family="DejaVu Sans Mono" font-size="14.00">key: int = 5</text>
<text text-anchor="start" x="51.38" y="-485.7" font-family="DejaVu Sans Mono" font-size="14.00">tempvalue: int = int(input())</text>
<text text-anchor="start" x="51.38" y="-468.45" font-family="DejaVu Sans Mono" font-size="14.00">numbers: List[int] = []</text>
<text text-anchor="start" x="51.38" y="-451.2" font-family="DejaVu Sans Mono" font-size="14.00">i: int = 0</text>
</g>
<!-- 2 -->
<g id="node2" class="node">
<title>2</title>
<polygon fill="#e552ff" stroke="#e552ff" points="73,-402 31,-402 31,-406 19,-406 19,-366 73,-366 73,-402"/>
<polyline fill="none" stroke="#e552ff" points="19,-402 31,-402"/>
<text text-anchor="middle" x="46" y="-379.32" font-family="DejaVu Sans Mono" font-size="14.00">int</text>
</g>
<!-- 1&#45;&gt;2 -->
<g id="edge1" class="edge">
<title>1&#45;&gt;2</title>
<path fill="none" stroke="black" stroke-dasharray="5,2" d="M115.45,-442.99C101.62,-431.45 87.34,-419.52 75.35,-409.51"/>
<polygon fill="black" stroke="black" points="77.76,-406.96 67.84,-403.24 73.27,-412.33 77.76,-406.96"/>
<text text-anchor="middle" x="125.62" y="-421.95" font-family="DejaVu Sans Mono" font-size="14.00">calls</text>
</g>
<!-- 4 -->
<g id="node4" class="node">
<title>4</title>
<polygon fill="#ffbe52" stroke="black" points="456.97,-384 376.99,-402 217.01,-402 137.03,-384 217.01,-366 376.99,-366 456.97,-384"/>
<text text-anchor="start" x="190.97" y="-379.32" font-family="DejaVu Sans Mono" font-size="14.00">while tempvalue != &#45;1:</text>
</g>
<!-- 1&#45;&gt;4 -->
<g id="edge16" class="edge">
<title>1&#45;&gt;4</title>
<path fill="none" stroke="black" d="M227,-442.99C240.93,-431.45 255.33,-419.52 267.41,-409.51"/>
<polygon fill="black" stroke="black" points="269.52,-412.31 274.99,-403.23 265.06,-406.92 269.52,-412.31"/>
</g>
<!-- 3 -->
<g id="node3" class="node">
<title>3</title>
<polygon fill="#e552ff" stroke="#e552ff" points="73.62,-320.88 28.38,-320.88 28.38,-324.88 16.37,-324.88 16.37,-284.88 73.62,-284.88 73.62,-320.88"/>
<polyline fill="none" stroke="#e552ff" points="16.37,-320.88 28.38,-320.88"/>
<text text-anchor="middle" x="45" y="-298.2" font-family="DejaVu Sans Mono" font-size="14.00">input</text>
</g>
<!-- 2&#45;&gt;3 -->
<g id="edge2" class="edge">
<title>2&#45;&gt;3</title>
<path fill="none" stroke="black" d="M45.78,-365.83C45.66,-356.15 45.5,-343.8 45.36,-332.68"/>
<polygon fill="black" stroke="black" points="48.87,-332.75 45.24,-322.8 41.87,-332.84 48.87,-332.75"/>
</g>
<!-- 5 -->
<g id="node5" class="node">
<title>5</title>
<polygon fill="#fffb81" stroke="black" points="314.12,-332.75 91.88,-332.75 91.88,-273 314.12,-273 314.12,-332.75"/>
<text text-anchor="start" x="99.88" y="-315.45" font-family="DejaVu Sans Mono" font-size="14.00">numbers.append(tempvalue)</text>
<text text-anchor="start" x="99.88" y="-298.2" font-family="DejaVu Sans Mono" font-size="14.00">tempvalue = int(input())</text>
<text text-anchor="start" x="99.88" y="-280.95" font-family="DejaVu Sans Mono" font-size="14.00">i = i + 1</text>
</g>
<!-- 4&#45;&gt;5 -->
<g id="edge7" class="edge">
<title>4&#45;&gt;5</title>
<path fill="none" stroke="green" d="M199.07,-369.6C188.98,-366.47 181.03,-362.66 177.25,-358 173.8,-353.75 172.85,-348.96 173.53,-344.04"/>
<polygon fill="green" stroke="green" points="176.82,-345.21 176.76,-334.62 170.2,-342.94 176.82,-345.21"/>
<text text-anchor="middle" x="239.88" y="-344.7" font-family="DejaVu Sans Mono" font-size="14.00">tempvalue != &#45;1</text>
</g>
<!-- 6 -->
<g id="node9" class="node">
<title>6</title>
<polygon fill="#ffbe52" stroke="black" points="745.75,-302.88 642.38,-320.87 435.62,-320.87 332.25,-302.88 435.62,-284.88 642.38,-284.88 745.75,-302.88"/>
<text text-anchor="start" x="399.63" y="-298.2" font-family="DejaVu Sans Mono" font-size="14.00">for i in range(len(numbers)):</text>
</g>
<!-- 4&#45;&gt;6 -->
<g id="edge15" class="edge">
<title>4&#45;&gt;6</title>
<path fill="none" stroke="red" d="M350.41,-365.54C387.18,-353.52 436.21,-337.48 475.06,-324.78"/>
<polygon fill="red" stroke="red" points="475.87,-328.2 484.29,-321.76 473.7,-321.54 475.87,-328.2"/>
<text text-anchor="middle" x="496.12" y="-344.7" font-family="DejaVu Sans Mono" font-size="14.00">(tempvalue == &#45;1)</text>
</g>
<!-- 5&#45;&gt;4 -->
<g id="edge6" class="edge">
<title>5&#45;&gt;4</title>
<path fill="none" stroke="black" d="M298.51,-333.04C300.88,-335.41 303.05,-337.98 305,-340.75 307.85,-344.81 308.68,-349.6 308.35,-354.47"/>
<polygon fill="black" stroke="black" points="304.94,-353.69 306.21,-364.21 311.78,-355.2 304.94,-353.69"/>
</g>
<!-- 7 -->
<g id="node6" class="node">
<title>7</title>
<polygon fill="#e552ff" stroke="#e552ff" points="161.75,-231.75 42.25,-231.75 42.25,-235.75 30.25,-235.75 30.25,-195.75 161.75,-195.75 161.75,-231.75"/>
<polyline fill="none" stroke="#e552ff" points="30.25,-231.75 42.25,-231.75"/>
<text text-anchor="middle" x="96" y="-209.07" font-family="DejaVu Sans Mono" font-size="14.00">numbers.append</text>
</g>
<!-- 5&#45;&gt;7 -->
<g id="edge3" class="edge">
<title>5&#45;&gt;7</title>
<path fill="none" stroke="black" stroke-dasharray="5,2" d="M167.07,-272.62C153.78,-261.8 138.87,-249.66 126.15,-239.3"/>
<polygon fill="black" stroke="black" points="128.46,-236.67 118.5,-233.07 124.04,-242.1 128.46,-236.67"/>
<text text-anchor="middle" x="176.62" y="-251.7" font-family="DejaVu Sans Mono" font-size="14.00">calls</text>
</g>
<!-- 8 -->
<g id="node7" class="node">
<title>8</title>
<polygon fill="#e552ff" stroke="#e552ff" points="234,-231.75 192,-231.75 192,-235.75 180,-235.75 180,-195.75 234,-195.75 234,-231.75"/>
<polyline fill="none" stroke="#e552ff" points="180,-231.75 192,-231.75"/>
<text text-anchor="middle" x="207" y="-209.07" font-family="DejaVu Sans Mono" font-size="14.00">int</text>
</g>
<!-- 5&#45;&gt;8 -->
<g id="edge4" class="edge">
<title>5&#45;&gt;8</title>
<path fill="none" stroke="black" stroke-dasharray="5,2" d="M204.33,-272.86C204.77,-263.4 205.25,-252.89 205.68,-243.45"/>
<polygon fill="black" stroke="black" points="209.17,-243.87 206.13,-233.72 202.17,-243.55 209.17,-243.87"/>
<text text-anchor="middle" x="226.62" y="-251.7" font-family="DejaVu Sans Mono" font-size="14.00">calls</text>
</g>
<!-- 9 -->
<g id="node8" class="node">
<title>9</title>
<polygon fill="#e552ff" stroke="#e552ff" points="233.62,-162.5 188.38,-162.5 188.38,-166.5 176.38,-166.5 176.38,-126.5 233.62,-126.5 233.62,-162.5"/>
<polyline fill="none" stroke="#e552ff" points="176.38,-162.5 188.38,-162.5"/>
<text text-anchor="middle" x="205" y="-139.82" font-family="DejaVu Sans Mono" font-size="14.00">input</text>
</g>
<!-- 8&#45;&gt;9 -->
<g id="edge5" class="edge">
<title>8&#45;&gt;9</title>
<path fill="none" stroke="black" d="M206.48,-195.43C206.3,-189.05 206.07,-181.63 205.86,-174.5"/>
<polygon fill="black" stroke="black" points="209.36,-174.4 205.57,-164.51 202.36,-174.61 209.36,-174.4"/>
</g>
<!-- 10 -->
<g id="node10" class="node">
<title>10</title>
<polygon fill="#e552ff" stroke="#e552ff" points="321.62,-231.75 276.38,-231.75 276.38,-235.75 264.38,-235.75 264.38,-195.75 321.62,-195.75 321.62,-231.75"/>
<polyline fill="none" stroke="#e552ff" points="264.38,-231.75 276.38,-231.75"/>
<text text-anchor="middle" x="293" y="-209.07" font-family="DejaVu Sans Mono" font-size="14.00">range</text>
</g>
<!-- 6&#45;&gt;10 -->
<g id="edge8" class="edge">
<title>6&#45;&gt;10</title>
<path fill="none" stroke="black" stroke-dasharray="5,2" d="M408.02,-289.26C370.61,-283.6 335.87,-275.72 320.75,-265 312.86,-259.41 306.97,-250.83 302.69,-242.34"/>
<polygon fill="black" stroke="black" points="305.92,-241.01 298.71,-233.25 299.51,-243.82 305.92,-241.01"/>
<text text-anchor="middle" x="341.62" y="-251.7" font-family="DejaVu Sans Mono" font-size="14.00">calls</text>
</g>
<!-- 12 -->
<g id="node12" class="node">
<title>12</title>
<polygon fill="#ff6752" stroke="black" points="527,-231.75 339.26,-213.75 527,-195.75 714.74,-213.75 527,-231.75"/>
<text text-anchor="start" x="401.18" y="-209.07" font-family="DejaVu Sans Mono" font-size="14.00">if numbers[i] == key:</text>
</g>
<!-- 6&#45;&gt;12 -->
<g id="edge14" class="edge">
<title>6&#45;&gt;12</title>
<path fill="none" stroke="green" d="M421.88,-286.76C398.98,-281.4 379.72,-274.3 372.25,-265 354.77,-243.23 373.86,-230.78 403.88,-223.7"/>
<polygon fill="green" stroke="green" points="404.35,-227.17 413.43,-221.72 402.93,-220.32 404.35,-227.17"/>
<text text-anchor="middle" x="451.38" y="-251.7" font-family="DejaVu Sans Mono" font-size="14.00">range(len(numbers))</text>
</g>
<!-- 11 -->
<g id="node11" class="node">
<title>11</title>
<polygon fill="#e552ff" stroke="#e552ff" points="320,-162.5 278,-162.5 278,-166.5 266,-166.5 266,-126.5 320,-126.5 320,-162.5"/>
<polyline fill="none" stroke="#e552ff" points="266,-162.5 278,-162.5"/>
<text text-anchor="middle" x="293" y="-139.82" font-family="DejaVu Sans Mono" font-size="14.00">len</text>
</g>
<!-- 10&#45;&gt;11 -->
<g id="edge9" class="edge">
<title>10&#45;&gt;11</title>
<path fill="none" stroke="black" d="M293,-195.43C293,-189.05 293,-181.63 293,-174.5"/>
<polygon fill="black" stroke="black" points="296.5,-174.51 293,-164.51 289.5,-174.51 296.5,-174.51"/>
</g>
<!-- 12&#45;&gt;6 -->
<g id="edge13" class="edge">
<title>12&#45;&gt;6</title>
<path fill="none" stroke="red" d="M530.34,-231.84C531.28,-236.95 532.24,-242.56 533,-247.75 534.21,-256.05 535.31,-265.09 536.22,-273.37"/>
<polygon fill="red" stroke="red" points="532.73,-273.69 537.25,-283.27 539.69,-272.96 532.73,-273.69"/>
<text text-anchor="middle" x="613.38" y="-251.7" font-family="DejaVu Sans Mono" font-size="14.00">(numbers[i] != key)</text>
</g>
<!-- 14 -->
<g id="node13" class="node">
<title>14</title>
<polygon fill="#fffb81" stroke="black" points="892.88,-162.5 423.12,-162.5 423.12,-126.5 892.88,-126.5 892.88,-162.5"/>
<text text-anchor="start" x="431.12" y="-139.82" font-family="DejaVu Sans Mono" font-size="14.00">print(&#39;Your key of&#39;, key, &#39;is at the following ...&#39;, i)</text>
</g>
<!-- 12&#45;&gt;14 -->
<g id="edge12" class="edge">
<title>12&#45;&gt;14</title>
<path fill="none" stroke="green" d="M546.78,-197.31C558.51,-188.64 573.95,-178.08 588.75,-170.5 590.71,-169.5 592.73,-168.51 594.77,-167.55"/>
<polygon fill="green" stroke="green" points="596.09,-170.8 603.83,-163.57 593.27,-164.39 596.09,-170.8"/>
<text text-anchor="middle" x="658.12" y="-174.45" font-family="DejaVu Sans Mono" font-size="14.00">numbers[i] == key</text>
</g>
<!-- 14&#45;&gt;6 -->
<g id="edge11" class="edge">
<title>14&#45;&gt;6</title>
<path fill="none" stroke="black" d="M721.9,-162.81C724.56,-165.07 726.96,-167.62 729,-170.5 746.83,-195.68 737.88,-212.19 724,-239.75 716.46,-254.72 710.85,-257.23 696,-265 683.35,-271.62 669.51,-277.07 655.45,-281.55"/>
<polygon fill="black" stroke="black" points="654.7,-278.12 646.13,-284.35 656.71,-284.82 654.7,-278.12"/>
</g>
<!-- 16 -->
<g id="node14" class="node">
<title>16</title>
<polygon fill="#e552ff" stroke="#e552ff" points="686.62,-77.25 641.38,-77.25 641.38,-81.25 629.38,-81.25 629.38,-41.25 686.62,-41.25 686.62,-77.25"/>
<polyline fill="none" stroke="#e552ff" points="629.38,-77.25 641.38,-77.25"/>
<text text-anchor="middle" x="658" y="-54.58" font-family="DejaVu Sans Mono" font-size="14.00">print</text>
</g>
<!-- 14&#45;&gt;16 -->
<g id="edge10" class="edge">
<title>14&#45;&gt;16</title>
<path fill="none" stroke="black" stroke-dasharray="5,2" d="M658,-126.25C658,-115.42 658,-101.2 658,-88.73"/>
<polygon fill="black" stroke="black" points="661.5,-88.99 658,-78.99 654.5,-88.99 661.5,-88.99"/>
<text text-anchor="middle" x="678.62" y="-97.2" font-family="DejaVu Sans Mono" font-size="14.00">calls</text>
</g>
<!-- input -->
<g id="node15" class="node">
<title>input</title>
<polygon fill="#afeeee" stroke="black" points="1149.88,-402 1056.21,-402 1032.12,-366 1125.79,-366 1149.88,-402"/>
<text text-anchor="middle" x="1091" y="-379.32" font-family="DejaVu Sans Mono" font-size="14.00">input</text>
</g>
<!-- call -->
<g id="node20" class="node">
<title>call</title>
<polygon fill="#e552ff" stroke="black" points="1118,-320.88 1076,-320.88 1076,-324.88 1064,-324.88 1064,-284.88 1118,-284.88 1118,-320.88"/>
<polyline fill="none" stroke="black" points="1064,-320.88 1076,-320.88"/>
<text text-anchor="middle" x="1091" y="-298.2" font-family="DejaVu Sans Mono" font-size="14.00">call</text>
</g>
<!-- input&#45;&gt;call -->
<!-- default -->
<g id="node16" class="node">
<title>default</title>
<polygon fill="#fffb81" stroke="black" points="983.88,-320.88 910.12,-320.88 910.12,-284.88 983.88,-284.88 983.88,-320.88"/>
<text text-anchor="middle" x="947" y="-298.2" font-family="DejaVu Sans Mono" font-size="14.00">default</text>
</g>
<!-- if -->
<g id="node17" class="node">
<title>if</title>
<polygon fill="#ff6752" stroke="black" points="1091,-508.38 1058.76,-490.38 1091,-472.38 1123.24,-490.38 1091,-508.38"/>
<text text-anchor="middle" x="1091" y="-485.7" font-family="DejaVu Sans Mono" font-size="14.00">if</text>
</g>
<!-- if&#45;&gt;input -->
<!-- for -->
<g id="node18" class="node">
<title>for</title>
<polygon fill="#ffbe52" stroke="black" points="1039.01,-490.38 1022.5,-508.37 989.5,-508.37 972.99,-490.38 989.5,-472.38 1022.5,-472.38 1039.01,-490.38"/>
<text text-anchor="middle" x="1006" y="-485.7" font-family="DejaVu Sans Mono" font-size="14.00">for</text>
</g>
<!-- return -->
<g id="node21" class="node">
<title>return</title>
<polygon fill="#98fb98" stroke="black" points="1014.37,-402 907.2,-402 879.63,-366 986.8,-366 1014.37,-402"/>
<text text-anchor="middle" x="947" y="-379.32" font-family="DejaVu Sans Mono" font-size="14.00">return</text>
</g>
<!-- for&#45;&gt;return -->
<!-- while -->
<g id="node19" class="node">
<title>while</title>
<polygon fill="#ffbe52" stroke="black" points="955.37,-490.38 932.19,-508.37 885.81,-508.37 862.63,-490.38 885.81,-472.38 932.19,-472.38 955.37,-490.38"/>
<text text-anchor="middle" x="909" y="-485.7" font-family="DejaVu Sans Mono" font-size="14.00">while</text>
</g>
<!-- return&#45;&gt;default -->
<!-- try -->
<g id="node22" class="node">
<title>try</title>
<polygon fill="orange" stroke="black" points="804,-508.38 763.57,-490.38 804,-472.38 844.43,-490.38 804,-508.38"/>
<polyline fill="none" stroke="black" points="774.54,-495.26 774.54,-485.49"/>
<polyline fill="none" stroke="black" points="793.04,-477.26 814.96,-477.26"/>
<polyline fill="none" stroke="black" points="833.46,-485.49 833.46,-495.26"/>
<polyline fill="none" stroke="black" points="814.96,-503.49 793.04,-503.49"/>
<text text-anchor="middle" x="804" y="-485.7" font-family="DejaVu Sans Mono" font-size="14.00">try</text>
</g>
<!-- raise -->
<g id="node23" class="node">
<title>raise</title>
<polygon fill="#98fb98" stroke="black" points="861.64,-389.56 812,-402 762.36,-389.56 762.41,-369.44 861.59,-369.44 861.64,-389.56"/>
<text text-anchor="middle" x="812" y="-379.32" font-family="DejaVu Sans Mono" font-size="14.00">raise</text>
</g>
<!-- try&#45;&gt;raise -->
</g>
</svg>
