<?xml version="1.0" encoding="UTF-8" standalone="no"?>
<!DOCTYPE svg PUBLIC "-//W3C//DTD SVG 1.1//EN"
 "http://www.w3.org/Graphics/SVG/1.1/DTD/svg11.dtd">
<!-- Generated by graphviz version 9.0.0 (20230911.1827)
 -->
<!-- Title: cluster0containers&#45;06&#45;trialdiv Pages: 1 -->
<svg width="1420pt" height="741pt"
 viewBox="0.00 0.00 1419.53 741.00" xmlns="http://www.w3.org/2000/svg" xmlns:xlink="http://www.w3.org/1999/xlink">
<g id="graph0" class="graph" transform="scale(1 1) rotate(0) translate(4 737)">
<title>cluster0containers&#45;06&#45;trialdiv</title>
<polygon fill="white" stroke="none" points="-4,4 -4,-737 1415.53,-737 1415.53,4 -4,4"/>
<text text-anchor="middle" x="705.77" y="-7.95" font-family="DejaVu Sans Mono" font-size="14.00">containers&#45;06&#45;trialdiv</text>
<g id="clust1" class="cluster">
<title>cluster_1</title>
<polygon fill="purple" stroke="purple" points="407.53,-477.5 407.53,-602 481.53,-602 481.53,-477.5 407.53,-477.5"/>
</g>
<g id="clust2" class="cluster">
<title>cluster_13</title>
<polygon fill="purple" stroke="purple" points="223.53,-33.25 223.53,-85.25 438.53,-85.25 438.53,-33.25 223.53,-33.25"/>
</g>
<g id="clust3" class="cluster">
<title>cluster_15</title>
<polygon fill="purple" stroke="purple" points="463.53,-33.25 463.53,-85.25 537.53,-85.25 537.53,-33.25 463.53,-33.25"/>
</g>
<g id="clust4" class="cluster">
<title>cluster_6</title>
<polygon fill="purple" stroke="purple" points="847.53,-392.25 847.53,-444.25 921.53,-444.25 921.53,-392.25 847.53,-392.25"/>
</g>
<g id="clust5" class="cluster">
<title>cluster_KEY</title>
<polygon fill="none" stroke="black" points="999.53,-477.5 999.53,-725 1403.53,-725 1403.53,-477.5 999.53,-477.5"/>
<text text-anchor="middle" x="1201.53" y="-707.7" font-family="DejaVu Sans Mono" font-size="14.00">KEY</text>
</g>
<!-- 1 -->
<g id="node1" class="node">
<title>1</title>
<polygon fill="#fffb81" stroke="black" points="808.28,-712.25 346.78,-712.25 346.78,-635.25 808.28,-635.25 808.28,-712.25"/>
<text text-anchor="start" x="354.78" y="-694.95" font-family="DejaVu Sans Mono" font-size="14.00">from typing import List</text>
<text text-anchor="start" x="354.78" y="-677.7" font-family="DejaVu Sans Mono" font-size="14.00">value: int = 2</text>
<text text-anchor="start" x="354.78" y="-660.45" font-family="DejaVu Sans Mono" font-size="14.00">max_value: int = int(input(&#39;Display primes up to...&#39;))</text>
<text text-anchor="start" x="354.78" y="-643.2" font-family="DejaVu Sans Mono" font-size="14.00">primes: List[int] = []</text>
</g>
<!-- 2 -->
<g id="node2" class="node">
<title>2</title>
<polygon fill="#e552ff" stroke="#e552ff" points="472.53,-594 430.53,-594 430.53,-598 418.53,-598 418.53,-558 472.53,-558 472.53,-594"/>
<polyline fill="none" stroke="#e552ff" points="418.53,-594 430.53,-594"/>
<text text-anchor="middle" x="445.53" y="-571.33" font-family="DejaVu Sans Mono" font-size="14.00">int</text>
</g>
<!-- 1&#45;&gt;2 -->
<g id="edge1" class="edge">
<title>1&#45;&gt;2</title>
<path fill="none" stroke="black" stroke-dasharray="5,2" d="M525.36,-634.91C509.67,-623.52 492.89,-611.35 478.78,-601.12"/>
<polygon fill="black" stroke="black" points="480.86,-598.3 470.71,-595.26 476.75,-603.97 480.86,-598.3"/>
<text text-anchor="middle" x="532.16" y="-613.95" font-family="DejaVu Sans Mono" font-size="14.00">calls</text>
</g>
<!-- 4 -->
<g id="node4" class="node">
<title>4</title>
<polygon fill="#ffbe52" stroke="black" points="890.56,-576 800.55,-594 620.52,-594 530.51,-576 620.52,-558 800.55,-558 890.56,-576"/>
<text text-anchor="start" x="590.22" y="-571.33" font-family="DejaVu Sans Mono" font-size="14.00">while value &lt;= max_value:</text>
</g>
<!-- 1&#45;&gt;4 -->
<g id="edge21" class="edge">
<title>1&#45;&gt;4</title>
<path fill="none" stroke="black" d="M630.1,-634.91C646.06,-623.42 663.15,-611.12 677.45,-600.82"/>
<polygon fill="black" stroke="black" points="679.1,-603.94 685.17,-595.26 675.01,-598.26 679.1,-603.94"/>
</g>
<!-- 3 -->
<g id="node3" class="node">
<title>3</title>
<polygon fill="#e552ff" stroke="#e552ff" points="473.16,-521.5 427.91,-521.5 427.91,-525.5 415.91,-525.5 415.91,-485.5 473.16,-485.5 473.16,-521.5"/>
<polyline fill="none" stroke="#e552ff" points="415.91,-521.5 427.91,-521.5"/>
<text text-anchor="middle" x="444.53" y="-498.82" font-family="DejaVu Sans Mono" font-size="14.00">input</text>
</g>
<!-- 2&#45;&gt;3 -->
<g id="edge2" class="edge">
<title>2&#45;&gt;3</title>
<path fill="none" stroke="black" d="M445.29,-557.57C445.18,-550.15 445.06,-541.29 444.94,-532.95"/>
<polygon fill="black" stroke="black" points="448.44,-533.19 444.8,-523.24 441.44,-533.29 448.44,-533.19"/>
</g>
<!-- 5 -->
<g id="node5" class="node">
<title>5</title>
<polygon fill="#fffb81" stroke="black" points="680.16,-524.75 490.91,-524.75 490.91,-482.25 680.16,-482.25 680.16,-524.75"/>
<text text-anchor="start" x="498.91" y="-507.45" font-family="DejaVu Sans Mono" font-size="14.00">is_prime: int = 1</text>
<text text-anchor="start" x="498.91" y="-490.2" font-family="DejaVu Sans Mono" font-size="14.00">trial_factor: int = 2</text>
</g>
<!-- 4&#45;&gt;5 -->
<g id="edge18" class="edge">
<title>4&#45;&gt;5</title>
<path fill="none" stroke="green" d="M605.93,-560.51C597.29,-557.6 590.53,-554.13 587.03,-550 583.73,-546.09 582,-541.25 581.26,-536.2"/>
<polygon fill="green" stroke="green" points="584.77,-536.51 581.03,-526.59 577.77,-536.67 584.77,-536.51"/>
<text text-anchor="middle" x="660.78" y="-536.7" font-family="DejaVu Sans Mono" font-size="14.00">value &lt;= max_value</text>
</g>
<!-- 6 -->
<g id="node17" class="node">
<title>6</title>
<polygon fill="#fffb81" stroke="black" points="991.53,-524.75 777.53,-524.75 777.53,-482.25 991.53,-482.25 991.53,-524.75"/>
<text text-anchor="middle" x="884.53" y="-507.45" font-family="DejaVu Sans Mono" font-size="14.00">print(&#39;</text>
<text text-anchor="start" x="785.53" y="-490.2" font-family="DejaVu Sans Mono" font-size="14.00">The primes are&#39;, primes)</text>
</g>
<!-- 4&#45;&gt;6 -->
<g id="edge20" class="edge">
<title>4&#45;&gt;6</title>
<path fill="none" stroke="red" d="M753.55,-557.57C774.4,-549.12 799.82,-538.82 822.71,-529.55"/>
<polygon fill="red" stroke="red" points="824,-532.8 831.96,-525.8 821.37,-526.32 824,-532.8"/>
<text text-anchor="middle" x="890.91" y="-536.7" font-family="DejaVu Sans Mono" font-size="14.00">(value &gt; max_value)</text>
</g>
<!-- 7 -->
<g id="node6" class="node">
<title>7</title>
<polygon fill="#ffbe52" stroke="black" points="458.92,-418.25 362.23,-436.25 168.84,-436.25 72.15,-418.25 168.84,-400.25 362.23,-400.25 458.92,-418.25"/>
<text text-anchor="start" x="135.69" y="-413.57" font-family="DejaVu Sans Mono" font-size="14.00">while trial_factor &lt; value:</text>
</g>
<!-- 5&#45;&gt;7 -->
<g id="edge17" class="edge">
<title>5&#45;&gt;7</title>
<path fill="none" stroke="black" d="M506.02,-481.81C456.46,-468.92 392.97,-452.4 343.67,-439.58"/>
<polygon fill="black" stroke="black" points="344.76,-436.25 334.2,-437.11 343,-443.02 344.76,-436.25"/>
</g>
<!-- 8 -->
<g id="node7" class="node">
<title>8</title>
<polygon fill="#ff6752" stroke="black" points="468.53,-359 215.32,-341 468.53,-323 721.75,-341 468.53,-359"/>
<text text-anchor="start" x="296.05" y="-336.32" font-family="DejaVu Sans Mono" font-size="14.00">if value % trial_factor == 0:</text>
</g>
<!-- 7&#45;&gt;8 -->
<g id="edge15" class="edge">
<title>7&#45;&gt;8</title>
<path fill="none" stroke="green" d="M312.62,-399.8C344.4,-388.02 386.28,-372.49 418.64,-360.5"/>
<polygon fill="green" stroke="green" points="419.63,-363.86 427.79,-357.1 417.2,-357.3 419.63,-363.86"/>
<text text-anchor="middle" x="480.03" y="-370.95" font-family="DejaVu Sans Mono" font-size="14.00">trial_factor &lt; value</text>
</g>
<!-- 9 -->
<g id="node9" class="node">
<title>9</title>
<polygon fill="#ff6752" stroke="black" points="435.53,-230.25 280.53,-212.25 435.53,-194.25 590.54,-212.25 435.53,-230.25"/>
<text text-anchor="start" x="333.05" y="-207.57" font-family="DejaVu Sans Mono" font-size="14.00">if is_prime == 1:</text>
</g>
<!-- 7&#45;&gt;9 -->
<g id="edge16" class="edge">
<title>7&#45;&gt;9</title>
<path fill="none" stroke="red" d="M138.55,-405.46C59.62,-391.72 -22,-361.99 5.78,-297.75 18.8,-267.67 29.63,-260.68 59.53,-247.25 100.96,-228.64 207.71,-220.22 296.92,-216.4"/>
<polygon fill="red" stroke="red" points="296.91,-219.91 306.76,-216 296.62,-212.91 296.91,-219.91"/>
<text text-anchor="middle" x="101.41" y="-301.7" font-family="DejaVu Sans Mono" font-size="14.00">(trial_factor &gt;= value)</text>
</g>
<!-- 10 -->
<g id="node8" class="node">
<title>10</title>
<polygon fill="#fffb81" stroke="black" points="518.03,-289.75 403.03,-289.75 403.03,-247.25 518.03,-247.25 518.03,-289.75"/>
<text text-anchor="start" x="411.03" y="-272.45" font-family="DejaVu Sans Mono" font-size="14.00">is_prime = 0</text>
<text text-anchor="start" x="411.03" y="-255.2" font-family="DejaVu Sans Mono" font-size="14.00">break</text>
</g>
<!-- 8&#45;&gt;10 -->
<g id="edge12" class="edge">
<title>8&#45;&gt;10</title>
<path fill="none" stroke="green" d="M466.6,-322.93C465.86,-316.46 465,-308.86 464.16,-301.46"/>
<polygon fill="green" stroke="green" points="467.66,-301.22 463.05,-291.68 460.7,-302.01 467.66,-301.22"/>
<text text-anchor="middle" x="568.66" y="-301.7" font-family="DejaVu Sans Mono" font-size="14.00">value % trial_factor == 0</text>
</g>
<!-- 11 -->
<g id="node16" class="node">
<title>11</title>
<polygon fill="#fffb81" stroke="black" points="340.41,-286.5 68.66,-286.5 68.66,-250.5 340.41,-250.5 340.41,-286.5"/>
<text text-anchor="start" x="76.66" y="-263.82" font-family="DejaVu Sans Mono" font-size="14.00">trial_factor = trial_factor + 1</text>
</g>
<!-- 8&#45;&gt;11 -->
<g id="edge14" class="edge">
<title>8&#45;&gt;11</title>
<path fill="none" stroke="red" d="M319.16,-333.13C284.29,-329.43 252.92,-323.74 237.78,-315 230.1,-310.56 223.68,-303.55 218.6,-296.35"/>
<polygon fill="red" stroke="red" points="221.59,-294.53 213.31,-287.92 215.66,-298.25 221.59,-294.53"/>
<text text-anchor="middle" x="349.91" y="-301.7" font-family="DejaVu Sans Mono" font-size="14.00">(value % trial_factor != 0)</text>
</g>
<!-- 10&#45;&gt;9 -->
<g id="edge11" class="edge">
<title>10&#45;&gt;9</title>
<path fill="none" stroke="black" d="M451.08,-246.99C450,-244.65 448.89,-242.24 447.79,-239.83"/>
<polygon fill="black" stroke="black" points="451.05,-238.56 443.69,-230.94 444.69,-241.49 451.05,-238.56"/>
</g>
<!-- 13 -->
<g id="node10" class="node">
<title>13</title>
<polygon fill="#fffb81" stroke="black" points="447.66,-161 225.41,-161 225.41,-118.5 447.66,-118.5 447.66,-161"/>
<text text-anchor="start" x="233.41" y="-143.7" font-family="DejaVu Sans Mono" font-size="14.00">primes.append(value)</text>
<text text-anchor="start" x="233.41" y="-126.45" font-family="DejaVu Sans Mono" font-size="14.00">print(value, &#39; is prime&#39;)</text>
</g>
<!-- 9&#45;&gt;13 -->
<g id="edge7" class="edge">
<title>9&#45;&gt;13</title>
<path fill="none" stroke="green" d="M414.54,-196.3C402.92,-188.02 388.12,-177.48 374.54,-167.81"/>
<polygon fill="green" stroke="green" points="376.79,-165.12 366.62,-162.17 372.73,-170.83 376.79,-165.12"/>
<text text-anchor="middle" x="452.16" y="-172.95" font-family="DejaVu Sans Mono" font-size="14.00">is_prime == 1</text>
</g>
<!-- 15 -->
<g id="node14" class="node">
<title>15</title>
<polygon fill="#fffb81" stroke="black" points="721.16,-157.75 465.91,-157.75 465.91,-121.75 721.16,-121.75 721.16,-157.75"/>
<text text-anchor="start" x="473.91" y="-135.07" font-family="DejaVu Sans Mono" font-size="14.00">print(value, &#39; is not prime&#39;)</text>
</g>
<!-- 9&#45;&gt;15 -->
<g id="edge10" class="edge">
<title>9&#45;&gt;15</title>
<path fill="none" stroke="red" d="M477.11,-198.59C487.81,-194.96 499.22,-190.75 509.53,-186.25 524.58,-179.69 540.55,-171.4 554.48,-163.7"/>
<polygon fill="red" stroke="red" points="555.89,-166.92 562.9,-158.97 552.46,-160.82 555.89,-166.92"/>
<text text-anchor="middle" x="604.41" y="-172.95" font-family="DejaVu Sans Mono" font-size="14.00">(is_prime != 1)</text>
</g>
<!-- 17 -->
<g id="node11" class="node">
<title>17</title>
<polygon fill="#e552ff" stroke="#e552ff" points="430.16,-77.25 318.91,-77.25 318.91,-81.25 306.91,-81.25 306.91,-41.25 430.16,-41.25 430.16,-77.25"/>
<polyline fill="none" stroke="#e552ff" points="306.91,-77.25 318.91,-77.25"/>
<text text-anchor="middle" x="368.53" y="-54.58" font-family="DejaVu Sans Mono" font-size="14.00">primes.append</text>
</g>
<!-- 13&#45;&gt;17 -->
<g id="edge3" class="edge">
<title>13&#45;&gt;17</title>
<path fill="none" stroke="black" stroke-dasharray="5,2" d="M344.94,-118.13C348.68,-108.95 353.14,-98.01 357.17,-88.12"/>
<polygon fill="black" stroke="black" points="360.38,-89.54 360.91,-78.95 353.89,-86.89 360.38,-89.54"/>
<text text-anchor="middle" x="375.16" y="-97.2" font-family="DejaVu Sans Mono" font-size="14.00">calls</text>
</g>
<!-- 18 -->
<g id="node12" class="node">
<title>18</title>
<polygon fill="#e552ff" stroke="#e552ff" points="289.16,-77.25 243.91,-77.25 243.91,-81.25 231.91,-81.25 231.91,-41.25 289.16,-41.25 289.16,-77.25"/>
<polyline fill="none" stroke="#e552ff" points="231.91,-77.25 243.91,-77.25"/>
<text text-anchor="middle" x="260.53" y="-54.58" font-family="DejaVu Sans Mono" font-size="14.00">print</text>
</g>
<!-- 13&#45;&gt;18 -->
<g id="edge4" class="edge">
<title>13&#45;&gt;18</title>
<path fill="none" stroke="black" stroke-dasharray="5,2" d="M312.26,-118.12C309.52,-115.6 306.81,-113.03 304.28,-110.5 296.69,-102.88 288.84,-94.17 281.92,-86.16"/>
<polygon fill="black" stroke="black" points="284.69,-84.02 275.55,-78.66 279.36,-88.55 284.69,-84.02"/>
<text text-anchor="middle" x="325.16" y="-97.2" font-family="DejaVu Sans Mono" font-size="14.00">calls</text>
</g>
<!-- 14 -->
<g id="node13" class="node">
<title>14</title>
<polygon fill="#fffb81" stroke="black" points="703.66,-77.25 547.41,-77.25 547.41,-41.25 703.66,-41.25 703.66,-77.25"/>
<text text-anchor="start" x="555.41" y="-54.58" font-family="DejaVu Sans Mono" font-size="14.00">value = value + 1</text>
</g>
<!-- 13&#45;&gt;14 -->
<g id="edge6" class="edge">
<title>13&#45;&gt;14</title>
<path fill="none" stroke="black" d="M418.51,-118.04C456.08,-108.37 501.15,-96.53 541.53,-85.25 546.58,-83.84 551.79,-82.36 557.03,-80.85"/>
<polygon fill="black" stroke="black" points="557.69,-84.3 566.32,-78.15 555.74,-77.58 557.69,-84.3"/>
</g>
<!-- 14&#45;&gt;4 -->
<g id="edge5" class="edge">
<title>14&#45;&gt;4</title>
<path fill="none" stroke="black" d="M694.42,-77.73C722.97,-89.5 749.53,-108.56 749.53,-138.75 749.53,-504.5 749.53,-504.5 749.53,-504.5 749.53,-522.85 747.21,-529.96 735.85,-548.3"/>
<polygon fill="black" stroke="black" points="733.17,-545.99 730.78,-556.32 739.08,-549.74 733.17,-545.99"/>
</g>
<!-- 15&#45;&gt;14 -->
<g id="edge9" class="edge">
<title>15&#45;&gt;14</title>
<path fill="none" stroke="black" d="M600.64,-121.33C604.61,-111.57 609.67,-99.18 614.18,-88.11"/>
<polygon fill="black" stroke="black" points="617.35,-89.61 617.88,-79.02 610.87,-86.96 617.35,-89.61"/>
</g>
<!-- 16 -->
<g id="node15" class="node">
<title>16</title>
<polygon fill="#e552ff" stroke="#e552ff" points="529.16,-77.25 483.91,-77.25 483.91,-81.25 471.91,-81.25 471.91,-41.25 529.16,-41.25 529.16,-77.25"/>
<polyline fill="none" stroke="#e552ff" points="471.91,-77.25 483.91,-77.25"/>
<text text-anchor="middle" x="500.53" y="-54.58" font-family="DejaVu Sans Mono" font-size="14.00">print</text>
</g>
<!-- 15&#45;&gt;16 -->
<g id="edge8" class="edge">
<title>15&#45;&gt;16</title>
<path fill="none" stroke="black" stroke-dasharray="5,2" d="M572.89,-121.33C560.25,-110.66 543.87,-96.83 529.89,-85.03"/>
<polygon fill="black" stroke="black" points="532.17,-82.37 522.27,-78.6 527.66,-87.72 532.17,-82.37"/>
<text text-anchor="middle" x="578.16" y="-97.2" font-family="DejaVu Sans Mono" font-size="14.00">calls</text>
</g>
<!-- 11&#45;&gt;7 -->
<g id="edge13" class="edge">
<title>11&#45;&gt;7</title>
<path fill="none" stroke="black" d="M201.21,-286.8C198.46,-305.45 196.44,-335.59 206.53,-359 212.06,-371.8 221.85,-383.26 231.89,-392.55"/>
<polygon fill="black" stroke="black" points="229.29,-394.94 239.14,-398.84 233.88,-389.65 229.29,-394.94"/>
</g>
<!-- 19 -->
<g id="node18" class="node">
<title>19</title>
<polygon fill="#e552ff" stroke="#e552ff" points="913.16,-436.25 867.91,-436.25 867.91,-440.25 855.91,-440.25 855.91,-400.25 913.16,-400.25 913.16,-436.25"/>
<polyline fill="none" stroke="#e552ff" points="855.91,-436.25 867.91,-436.25"/>
<text text-anchor="middle" x="884.53" y="-413.57" font-family="DejaVu Sans Mono" font-size="14.00">print</text>
</g>
<!-- 6&#45;&gt;19 -->
<g id="edge19" class="edge">
<title>6&#45;&gt;19</title>
<path fill="none" stroke="black" stroke-dasharray="5,2" d="M884.53,-481.92C884.53,-471.67 884.53,-459.1 884.53,-447.92"/>
<polygon fill="black" stroke="black" points="888.03,-448.02 884.53,-438.02 881.03,-448.02 888.03,-448.02"/>
<text text-anchor="middle" x="905.16" y="-456.2" font-family="DejaVu Sans Mono" font-size="14.00">calls</text>
</g>
<!-- input -->
<g id="node19" class="node">
<title>input</title>
<polygon fill="#afeeee" stroke="black" points="1395.42,-594 1301.75,-594 1277.65,-558 1371.32,-558 1395.42,-594"/>
<text text-anchor="middle" x="1336.53" y="-571.33" font-family="DejaVu Sans Mono" font-size="14.00">input</text>
</g>
<!-- call -->
<g id="node24" class="node">
<title>call</title>
<polygon fill="#e552ff" stroke="black" points="1363.53,-521.5 1321.53,-521.5 1321.53,-525.5 1309.53,-525.5 1309.53,-485.5 1363.53,-485.5 1363.53,-521.5"/>
<polyline fill="none" stroke="black" points="1309.53,-521.5 1321.53,-521.5"/>
<text text-anchor="middle" x="1336.53" y="-498.82" font-family="DejaVu Sans Mono" font-size="14.00">call</text>
</g>
<!-- input&#45;&gt;call -->
<!-- default -->
<g id="node20" class="node">
<title>default</title>
<polygon fill="#fffb81" stroke="black" points="1229.41,-521.5 1155.66,-521.5 1155.66,-485.5 1229.41,-485.5 1229.41,-521.5"/>
<text text-anchor="middle" x="1192.53" y="-498.82" font-family="DejaVu Sans Mono" font-size="14.00">default</text>
</g>
<!-- if -->
<g id="node21" class="node">
<title>if</title>
<polygon fill="#ff6752" stroke="black" points="1336.53,-691.75 1304.29,-673.75 1336.53,-655.75 1368.78,-673.75 1336.53,-691.75"/>
<text text-anchor="middle" x="1336.53" y="-669.08" font-family="DejaVu Sans Mono" font-size="14.00">if</text>
</g>
<!-- if&#45;&gt;input -->
<!-- for -->
<g id="node22" class="node">
<title>for</title>
<polygon fill="#ffbe52" stroke="black" points="1284.54,-673.75 1268.04,-691.75 1235.03,-691.75 1218.53,-673.75 1235.03,-655.75 1268.04,-655.75 1284.54,-673.75"/>
<text text-anchor="middle" x="1251.53" y="-669.08" font-family="DejaVu Sans Mono" font-size="14.00">for</text>
</g>
<!-- return -->
<g id="node25" class="node">
<title>return</title>
<polygon fill="#98fb98" stroke="black" points="1259.9,-594 1152.74,-594 1125.17,-558 1232.33,-558 1259.9,-594"/>
<text text-anchor="middle" x="1192.53" y="-571.33" font-family="DejaVu Sans Mono" font-size="14.00">return</text>
</g>
<!-- for&#45;&gt;return -->
<!-- while -->
<g id="node23" class="node">
<title>while</title>
<polygon fill="#ffbe52" stroke="black" points="1200.91,-673.75 1177.72,-691.75 1131.35,-691.75 1108.16,-673.75 1131.35,-655.75 1177.72,-655.75 1200.91,-673.75"/>
<text text-anchor="middle" x="1154.53" y="-669.08" font-family="DejaVu Sans Mono" font-size="14.00">while</text>
</g>
<!-- return&#45;&gt;default -->
<!-- try -->
<g id="node26" class="node">
<title>try</title>
<polygon fill="orange" stroke="black" points="1049.53,-691.75 1009.11,-673.75 1049.53,-655.75 1089.96,-673.75 1049.53,-691.75"/>
<polyline fill="none" stroke="black" points="1020.07,-678.63 1020.07,-668.87"/>
<polyline fill="none" stroke="black" points="1038.57,-660.63 1060.5,-660.63"/>
<polyline fill="none" stroke="black" points="1079,-668.87 1079,-678.63"/>
<polyline fill="none" stroke="black" points="1060.5,-686.87 1038.57,-686.87"/>
<text text-anchor="middle" x="1049.53" y="-669.08" font-family="DejaVu Sans Mono" font-size="14.00">try</text>
</g>
<!-- raise -->
<g id="node27" class="node">
<title>raise</title>
<polygon fill="#98fb98" stroke="black" points="1107.17,-581.56 1057.53,-594 1007.89,-581.56 1007.94,-561.44 1107.13,-561.44 1107.17,-581.56"/>
<text text-anchor="middle" x="1057.53" y="-571.33" font-family="DejaVu Sans Mono" font-size="14.00">raise</text>
</g>
<!-- try&#45;&gt;raise -->
</g>
</svg>
