<?xml version="1.0" encoding="UTF-8" standalone="no"?>
<!DOCTYPE svg PUBLIC "-//W3C//DTD SVG 1.1//EN"
 "http://www.w3.org/Graphics/SVG/1.1/DTD/svg11.dtd">
<!-- Generated by graphviz version 9.0.0 (20230911.1827)
 -->
<!-- Title: cluster0containers&#45;07&#45;outofrange Pages: 1 -->
<svg width="1297pt" height="447pt"
 viewBox="0.00 0.00 1296.62 447.38" xmlns="http://www.w3.org/2000/svg" xmlns:xlink="http://www.w3.org/1999/xlink">
<g id="graph0" class="graph" transform="scale(1 1) rotate(0) translate(4 443.38)">
<title>cluster0containers&#45;07&#45;outofrange</title>
<polygon fill="white" stroke="none" points="-4,4 -4,-443.38 1292.62,-443.38 1292.62,4 -4,4"/>
<text text-anchor="middle" x="644.31" y="-7.95" font-family="DejaVu Sans Mono" font-size="14.00">containers&#45;07&#45;outofrange</text>
<g id="clust1" class="cluster">
<title>cluster_1</title>
<polygon fill="purple" stroke="purple" points="86.62,-187.75 86.62,-317 228.62,-317 228.62,-187.75 86.62,-187.75"/>
</g>
<g id="clust2" class="cluster">
<title>cluster_5</title>
<polygon fill="purple" stroke="purple" points="266.62,-187.75 266.62,-239.75 340.62,-239.75 340.62,-187.75 266.62,-187.75"/>
</g>
<g id="clust3" class="cluster">
<title>cluster_9</title>
<polygon fill="purple" stroke="purple" points="670.62,-33.25 670.62,-85.25 744.62,-85.25 744.62,-33.25 670.62,-33.25"/>
</g>
<g id="clust4" class="cluster">
<title>cluster_KEY</title>
<polygon fill="none" stroke="black" points="876.62,-187.75 876.62,-431.38 1280.62,-431.38 1280.62,-187.75 876.62,-187.75"/>
<text text-anchor="middle" x="1078.62" y="-414.07" font-family="DejaVu Sans Mono" font-size="14.00">KEY</text>
</g>
<!-- 1 -->
<g id="node1" class="node">
<title>1</title>
<polygon fill="#fffb81" stroke="black" points="387.25,-410 0,-410 0,-350.25 387.25,-350.25 387.25,-410"/>
<text text-anchor="start" x="8" y="-392.7" font-family="DejaVu Sans Mono" font-size="14.00">from typing import List</text>
<text text-anchor="start" x="8" y="-375.45" font-family="DejaVu Sans Mono" font-size="14.00">user_nums: List[int] = list([0] * 5)</text>
<text text-anchor="start" x="8" y="-358.2" font-family="DejaVu Sans Mono" font-size="14.00">limit = int(input(&#39;How high do you want...&#39;))</text>
</g>
<!-- 2 -->
<g id="node2" class="node">
<title>2</title>
<polygon fill="#e552ff" stroke="#e552ff" points="148.62,-309 106.62,-309 106.62,-313 94.62,-313 94.62,-273 148.62,-273 148.62,-309"/>
<polyline fill="none" stroke="#e552ff" points="94.62,-309 106.62,-309"/>
<text text-anchor="middle" x="121.62" y="-286.32" font-family="DejaVu Sans Mono" font-size="14.00">list</text>
</g>
<!-- 1&#45;&gt;2 -->
<g id="edge1" class="edge">
<title>1&#45;&gt;2</title>
<path fill="none" stroke="black" stroke-dasharray="5,2" d="M155.49,-350.03C152.97,-347.52 150.56,-344.91 148.38,-342.25 142.77,-335.43 137.81,-327.24 133.74,-319.48"/>
<polygon fill="black" stroke="black" points="136.97,-318.12 129.42,-310.68 130.69,-321.2 136.97,-318.12"/>
<text text-anchor="middle" x="169.25" y="-328.95" font-family="DejaVu Sans Mono" font-size="14.00">calls</text>
</g>
<!-- 3 -->
<g id="node3" class="node">
<title>3</title>
<polygon fill="#e552ff" stroke="#e552ff" points="220.62,-309 178.62,-309 178.62,-313 166.62,-313 166.62,-273 220.62,-273 220.62,-309"/>
<polyline fill="none" stroke="#e552ff" points="166.62,-309 178.62,-309"/>
<text text-anchor="middle" x="193.62" y="-286.32" font-family="DejaVu Sans Mono" font-size="14.00">int</text>
</g>
<!-- 1&#45;&gt;3 -->
<g id="edge2" class="edge">
<title>1&#45;&gt;3</title>
<path fill="none" stroke="black" stroke-dasharray="5,2" d="M193.62,-350.11C193.62,-340.65 193.62,-330.14 193.62,-320.7"/>
<polygon fill="black" stroke="black" points="197.13,-320.97 193.63,-310.97 190.13,-320.97 197.13,-320.97"/>
<text text-anchor="middle" x="214.25" y="-328.95" font-family="DejaVu Sans Mono" font-size="14.00">calls</text>
</g>
<!-- 5 -->
<g id="node5" class="node">
<title>5</title>
<polygon fill="#ffbe52" stroke="black" points="558.6,-291 478.61,-309 318.64,-309 238.65,-291 318.64,-273 478.61,-273 558.6,-291"/>
<text text-anchor="start" x="292.6" y="-286.32" font-family="DejaVu Sans Mono" font-size="14.00">for i in range(limit):</text>
</g>
<!-- 1&#45;&gt;5 -->
<g id="edge11" class="edge">
<title>1&#45;&gt;5</title>
<path fill="none" stroke="black" d="M262.46,-349.87C290.04,-338.15 321.28,-324.87 346.87,-313.99"/>
<polygon fill="black" stroke="black" points="348.24,-317.22 356.08,-310.08 345.51,-310.77 348.24,-317.22"/>
</g>
<!-- 4 -->
<g id="node4" class="node">
<title>4</title>
<polygon fill="#e552ff" stroke="#e552ff" points="220.25,-231.75 175,-231.75 175,-235.75 163,-235.75 163,-195.75 220.25,-195.75 220.25,-231.75"/>
<polyline fill="none" stroke="#e552ff" points="163,-231.75 175,-231.75"/>
<text text-anchor="middle" x="191.62" y="-209.07" font-family="DejaVu Sans Mono" font-size="14.00">input</text>
</g>
<!-- 3&#45;&gt;4 -->
<g id="edge3" class="edge">
<title>3&#45;&gt;4</title>
<path fill="none" stroke="black" d="M193.16,-272.55C192.93,-263.9 192.65,-253.25 192.39,-243.44"/>
<polygon fill="black" stroke="black" points="195.89,-243.52 192.13,-233.62 188.89,-243.71 195.89,-243.52"/>
</g>
<!-- 6 -->
<g id="node6" class="node">
<title>6</title>
<polygon fill="#e552ff" stroke="#e552ff" points="332.25,-231.75 287,-231.75 287,-235.75 275,-235.75 275,-195.75 332.25,-195.75 332.25,-231.75"/>
<polyline fill="none" stroke="#e552ff" points="275,-231.75 287,-231.75"/>
<text text-anchor="middle" x="303.62" y="-209.07" font-family="DejaVu Sans Mono" font-size="14.00">range</text>
</g>
<!-- 5&#45;&gt;6 -->
<g id="edge4" class="edge">
<title>5&#45;&gt;6</title>
<path fill="none" stroke="black" stroke-dasharray="5,2" d="M350.7,-272.61C346.7,-270.32 342.86,-267.79 339.38,-265 331.33,-258.55 324.28,-249.84 318.61,-241.48"/>
<polygon fill="black" stroke="black" points="321.73,-239.86 313.43,-233.27 315.81,-243.6 321.73,-239.86"/>
<text text-anchor="middle" x="359.25" y="-251.7" font-family="DejaVu Sans Mono" font-size="14.00">calls</text>
</g>
<!-- 7 -->
<g id="node7" class="node">
<title>7</title>
<polygon fill="#fffb81" stroke="black" points="531.12,-231.75 350.12,-231.75 350.12,-195.75 531.12,-195.75 531.12,-231.75"/>
<text text-anchor="start" x="358.12" y="-209.07" font-family="DejaVu Sans Mono" font-size="14.00">user_nums[i] = i * 2</text>
</g>
<!-- 5&#45;&gt;7 -->
<g id="edge6" class="edge">
<title>5&#45;&gt;7</title>
<path fill="none" stroke="green" d="M388.52,-272.81C385.21,-264.83 383.36,-255.44 387.62,-247.75 389.23,-244.86 391.2,-242.2 393.43,-239.74"/>
<polygon fill="green" stroke="green" points="395.63,-242.46 400.73,-233.17 390.95,-237.26 395.63,-242.46"/>
<text text-anchor="middle" x="437.12" y="-251.7" font-family="DejaVu Sans Mono" font-size="14.00">range(limit)</text>
</g>
<!-- 8 -->
<g id="node8" class="node">
<title>8</title>
<polygon fill="#ffbe52" stroke="black" points="868.6,-213.75 788.61,-231.75 628.64,-231.75 548.65,-213.75 628.64,-195.75 788.61,-195.75 868.6,-213.75"/>
<text text-anchor="start" x="602.6" y="-209.07" font-family="DejaVu Sans Mono" font-size="14.00">for item in user_nums:</text>
</g>
<!-- 5&#45;&gt;8 -->
<g id="edge10" class="edge">
<title>5&#45;&gt;8</title>
<path fill="none" stroke="green" d="M474.06,-272.5C484.67,-270.01 495.42,-267.45 505.62,-265 546.11,-255.26 591.06,-244.16 628.35,-234.88"/>
<polygon fill="green" stroke="green" points="628.83,-238.37 637.69,-232.55 627.14,-231.57 628.83,-238.37"/>
</g>
<!-- 7&#45;&gt;5 -->
<g id="edge5" class="edge">
<title>7&#45;&gt;5</title>
<path fill="none" stroke="black" d="M475.22,-232.06C488.99,-241.3 499.67,-253.17 490.62,-265 490.55,-265.1 490.47,-265.2 490.4,-265.29"/>
<polygon fill="black" stroke="black" points="488,-262.74 483.47,-272.32 492.98,-267.66 488,-262.74"/>
</g>
<!-- 9 -->
<g id="node9" class="node">
<title>9</title>
<polygon fill="#fffb81" stroke="black" points="761,-154.5 654.25,-154.5 654.25,-118.5 761,-118.5 761,-154.5"/>
<text text-anchor="start" x="662.25" y="-131.82" font-family="DejaVu Sans Mono" font-size="14.00">print(item)</text>
</g>
<!-- 8&#45;&gt;9 -->
<g id="edge9" class="edge">
<title>8&#45;&gt;9</title>
<path fill="none" stroke="green" d="M673.99,-195.37C668.51,-191.04 663.6,-185.85 660.38,-179.75 657.75,-174.77 656.85,-171.34 660.64,-164.23"/>
<polygon fill="green" stroke="green" points="663.41,-166.38 665.91,-156.09 657.54,-162.58 663.41,-166.38"/>
<text text-anchor="middle" x="696.75" y="-166.45" font-family="DejaVu Sans Mono" font-size="14.00">user_nums</text>
</g>
<!-- 9&#45;&gt;8 -->
<g id="edge8" class="edge">
<title>9&#45;&gt;8</title>
<path fill="none" stroke="black" d="M733.49,-154.89C735.54,-157.22 737.31,-159.76 738.62,-162.5 742.45,-170.49 740.19,-178.87 735.54,-186.44"/>
<polygon fill="black" stroke="black" points="732.83,-184.22 729.58,-194.31 738.41,-188.45 732.83,-184.22"/>
</g>
<!-- 11 -->
<g id="node10" class="node">
<title>11</title>
<polygon fill="#e552ff" stroke="#e552ff" points="736.25,-77.25 691,-77.25 691,-81.25 679,-81.25 679,-41.25 736.25,-41.25 736.25,-77.25"/>
<polyline fill="none" stroke="#e552ff" points="679,-77.25 691,-77.25"/>
<text text-anchor="middle" x="707.62" y="-54.58" font-family="DejaVu Sans Mono" font-size="14.00">print</text>
</g>
<!-- 9&#45;&gt;11 -->
<g id="edge7" class="edge">
<title>9&#45;&gt;11</title>
<path fill="none" stroke="black" stroke-dasharray="5,2" d="M707.62,-118.05C707.62,-109.4 707.62,-98.75 707.62,-88.94"/>
<polygon fill="black" stroke="black" points="711.13,-89.12 707.63,-79.12 704.13,-89.12 711.13,-89.12"/>
<text text-anchor="middle" x="728.25" y="-97.2" font-family="DejaVu Sans Mono" font-size="14.00">calls</text>
</g>
<!-- input -->
<g id="node11" class="node">
<title>input</title>
<polygon fill="#afeeee" stroke="black" points="1272.51,-309 1178.84,-309 1154.74,-273 1248.41,-273 1272.51,-309"/>
<text text-anchor="middle" x="1213.62" y="-286.32" font-family="DejaVu Sans Mono" font-size="14.00">input</text>
</g>
<!-- call -->
<g id="node16" class="node">
<title>call</title>
<polygon fill="#e552ff" stroke="black" points="1240.62,-231.75 1198.62,-231.75 1198.62,-235.75 1186.62,-235.75 1186.62,-195.75 1240.62,-195.75 1240.62,-231.75"/>
<polyline fill="none" stroke="black" points="1186.62,-231.75 1198.62,-231.75"/>
<text text-anchor="middle" x="1213.62" y="-209.07" font-family="DejaVu Sans Mono" font-size="14.00">call</text>
</g>
<!-- input&#45;&gt;call -->
<!-- default -->
<g id="node12" class="node">
<title>default</title>
<polygon fill="#fffb81" stroke="black" points="1106.5,-231.75 1032.75,-231.75 1032.75,-195.75 1106.5,-195.75 1106.5,-231.75"/>
<text text-anchor="middle" x="1069.62" y="-209.07" font-family="DejaVu Sans Mono" font-size="14.00">default</text>
</g>
<!-- if -->
<g id="node13" class="node">
<title>if</title>
<polygon fill="#ff6752" stroke="black" points="1213.62,-398.12 1181.38,-380.12 1213.62,-362.12 1245.87,-380.12 1213.62,-398.12"/>
<text text-anchor="middle" x="1213.62" y="-375.45" font-family="DejaVu Sans Mono" font-size="14.00">if</text>
</g>
<!-- if&#45;&gt;input -->
<!-- for -->
<g id="node14" class="node">
<title>for</title>
<polygon fill="#ffbe52" stroke="black" points="1161.63,-380.12 1145.13,-398.12 1112.12,-398.12 1095.62,-380.12 1112.12,-362.12 1145.13,-362.12 1161.63,-380.12"/>
<text text-anchor="middle" x="1128.62" y="-375.45" font-family="DejaVu Sans Mono" font-size="14.00">for</text>
</g>
<!-- return -->
<g id="node17" class="node">
<title>return</title>
<polygon fill="#98fb98" stroke="black" points="1136.99,-309 1029.83,-309 1002.26,-273 1109.42,-273 1136.99,-309"/>
<text text-anchor="middle" x="1069.62" y="-286.32" font-family="DejaVu Sans Mono" font-size="14.00">return</text>
</g>
<!-- for&#45;&gt;return -->
<!-- while -->
<g id="node15" class="node">
<title>while</title>
<polygon fill="#ffbe52" stroke="black" points="1078,-380.12 1054.81,-398.12 1008.44,-398.12 985.25,-380.12 1008.44,-362.12 1054.81,-362.12 1078,-380.12"/>
<text text-anchor="middle" x="1031.62" y="-375.45" font-family="DejaVu Sans Mono" font-size="14.00">while</text>
</g>
<!-- return&#45;&gt;default -->
<!-- try -->
<g id="node18" class="node">
<title>try</title>
<polygon fill="orange" stroke="black" points="926.62,-398.12 886.2,-380.12 926.62,-362.12 967.05,-380.12 926.62,-398.12"/>
<polyline fill="none" stroke="black" points="897.16,-385.01 897.16,-375.24"/>
<polyline fill="none" stroke="black" points="915.66,-367.01 937.59,-367.01"/>
<polyline fill="none" stroke="black" points="956.09,-375.24 956.09,-385.01"/>
<polyline fill="none" stroke="black" points="937.59,-393.24 915.66,-393.24"/>
<text text-anchor="middle" x="926.62" y="-375.45" font-family="DejaVu Sans Mono" font-size="14.00">try</text>
</g>
<!-- raise -->
<g id="node19" class="node">
<title>raise</title>
<polygon fill="#98fb98" stroke="black" points="984.27,-296.56 934.62,-309 884.98,-296.56 885.03,-276.44 984.22,-276.44 984.27,-296.56"/>
<text text-anchor="middle" x="934.62" y="-286.32" font-family="DejaVu Sans Mono" font-size="14.00">raise</text>
</g>
<!-- try&#45;&gt;raise -->
</g>
</svg>
