<?xml version="1.0" encoding="UTF-8" standalone="no"?>
<!DOCTYPE svg PUBLIC "-//W3C//DTD SVG 1.1//EN"
 "http://www.w3.org/Graphics/SVG/1.1/DTD/svg11.dtd">
<!-- Generated by graphviz version 9.0.0 (20230911.1827)
 -->
<!-- Title: cluster0else_05 Pages: 1 -->
<svg width="894pt" height="374pt"
 viewBox="0.00 0.00 893.88 374.25" xmlns="http://www.w3.org/2000/svg" xmlns:xlink="http://www.w3.org/1999/xlink">
<g id="graph0" class="graph" transform="scale(1 1) rotate(0) translate(4 370.25)">
<title>cluster0else_05</title>
<polygon fill="white" stroke="none" points="-4,4 -4,-370.25 889.88,-370.25 889.88,4 -4,4"/>
<text text-anchor="middle" x="442.94" y="-7.95" font-family="DejaVu Sans Mono" font-size="14.00">else_05</text>
<g id="clust1" class="cluster">
<title>cluster0funcy</title>
<polygon fill="none" stroke="black" points="147.88,-33.25 147.88,-358.25 465.88,-358.25 465.88,-33.25 147.88,-33.25"/>
<text text-anchor="middle" x="306.88" y="-340.95" font-family="DejaVu Sans Mono" font-size="14.00">funcy</text>
</g>
<g id="clust2" class="cluster">
<title>cluster_3</title>
<polygon fill="purple" stroke="purple" points="155.88,-203.75 155.88,-255.75 229.88,-255.75 229.88,-203.75 155.88,-203.75"/>
</g>
<g id="clust3" class="cluster">
<title>cluster_7</title>
<polygon fill="purple" stroke="purple" points="155.88,-41.25 155.88,-93.25 229.88,-93.25 229.88,-41.25 155.88,-41.25"/>
</g>
<g id="clust4" class="cluster">
<title>cluster_8</title>
<polygon fill="purple" stroke="purple" points="383.88,-41.25 383.88,-93.25 457.88,-93.25 457.88,-41.25 383.88,-41.25"/>
</g>
<g id="clust5" class="cluster">
<title>cluster_KEY</title>
<polygon fill="none" stroke="black" points="473.88,-126.5 473.88,-358.25 877.88,-358.25 877.88,-126.5 473.88,-126.5"/>
<text text-anchor="middle" x="675.88" y="-340.95" font-family="DejaVu Sans Mono" font-size="14.00">KEY</text>
</g>
<!-- 1 -->
<g id="node1" class="node">
<title>1</title>
<polygon fill="#fffb81" stroke="black" points="139.75,-325 0,-325 0,-289 139.75,-289 139.75,-325"/>
<text text-anchor="start" x="8" y="-302.32" font-family="DejaVu Sans Mono" font-size="14.00">def funcy():...</text>
</g>
<!-- 3 -->
<g id="node2" class="node">
<title>3</title>
<polygon fill="#ffbe52" stroke="black" points="454.12,-307 387.5,-325 254.25,-325 187.63,-307 254.25,-289 387.5,-289 454.12,-307"/>
<text text-anchor="start" x="233.9" y="-302.32" font-family="DejaVu Sans Mono" font-size="14.00">for _ in range(2):</text>
</g>
<!-- 4 -->
<g id="node3" class="node">
<title>4</title>
<polygon fill="#e552ff" stroke="#e552ff" points="221.5,-247.75 176.25,-247.75 176.25,-251.75 164.25,-251.75 164.25,-211.75 221.5,-211.75 221.5,-247.75"/>
<polyline fill="none" stroke="#e552ff" points="164.25,-247.75 176.25,-247.75"/>
<text text-anchor="middle" x="192.88" y="-225.07" font-family="DejaVu Sans Mono" font-size="14.00">range</text>
</g>
<!-- 3&#45;&gt;4 -->
<g id="edge1" class="edge">
<title>3&#45;&gt;4</title>
<path fill="none" stroke="black" stroke-dasharray="5,2" d="M284.91,-288.71C266.81,-279.58 244.76,-267.78 225.88,-255.75 225.31,-255.39 224.74,-255.02 224.16,-254.64"/>
<polygon fill="black" stroke="black" points="226.34,-251.9 216.13,-249.06 222.35,-257.64 226.34,-251.9"/>
<text text-anchor="middle" x="289.5" y="-267.7" font-family="DejaVu Sans Mono" font-size="14.00">calls</text>
</g>
<!-- 5 -->
<g id="node4" class="node">
<title>5</title>
<polygon fill="#ff6752" stroke="black" points="320.88,-247.75 239.53,-229.75 320.87,-211.75 402.22,-229.75 320.88,-247.75"/>
<text text-anchor="start" x="270.89" y="-225.07" font-family="DejaVu Sans Mono" font-size="14.00">if True:</text>
</g>
<!-- 3&#45;&gt;5 -->
<g id="edge8" class="edge">
<title>3&#45;&gt;5</title>
<path fill="none" stroke="green" d="M320.88,-288.55C320.88,-279.9 320.88,-269.25 320.88,-259.44"/>
<polygon fill="green" stroke="green" points="324.38,-259.62 320.88,-249.62 317.38,-259.62 324.38,-259.62"/>
<text text-anchor="middle" x="353.88" y="-267.7" font-family="DejaVu Sans Mono" font-size="14.00">range(2)</text>
</g>
<!-- 7 -->
<g id="node5" class="node">
<title>7</title>
<polygon fill="#fffb81" stroke="black" points="283.5,-170.5 160.25,-170.5 160.25,-134.5 283.5,-134.5 283.5,-170.5"/>
<text text-anchor="start" x="168.25" y="-147.82" font-family="DejaVu Sans Mono" font-size="14.00">print(&#39;True&#39;)</text>
</g>
<!-- 5&#45;&gt;7 -->
<g id="edge4" class="edge">
<title>5&#45;&gt;7</title>
<path fill="none" stroke="green" d="M303.18,-215.3C289.38,-204.81 269.87,-189.98 253.42,-177.47"/>
<polygon fill="green" stroke="green" points="255.93,-174.99 245.85,-171.73 251.7,-180.56 255.93,-174.99"/>
<text text-anchor="middle" x="293.38" y="-182.45" font-family="DejaVu Sans Mono" font-size="14.00">True</text>
</g>
<!-- 8 -->
<g id="node8" class="node">
<title>8</title>
<polygon fill="#fffb81" stroke="black" points="458,-170.5 301.75,-170.5 301.75,-134.5 458,-134.5 458,-170.5"/>
<text text-anchor="start" x="309.75" y="-147.82" font-family="DejaVu Sans Mono" font-size="14.00">print(&#39;implicit&#39;)</text>
</g>
<!-- 5&#45;&gt;8 -->
<g id="edge7" class="edge">
<title>5&#45;&gt;8</title>
<path fill="none" stroke="red" d="M331.34,-214.01C337.5,-205.46 345.65,-194.37 357.51,-179.5"/>
<polygon fill="red" stroke="red" points="359.99,-182 363.54,-172.01 354.54,-177.61 359.99,-182"/>
<text text-anchor="middle" x="386.75" y="-182.45" font-family="DejaVu Sans Mono" font-size="14.00">(False)</text>
</g>
<!-- 9 -->
<g id="node6" class="node">
<title>9</title>
<polygon fill="#e552ff" stroke="#e552ff" points="221.5,-85.25 176.25,-85.25 176.25,-89.25 164.25,-89.25 164.25,-49.25 221.5,-49.25 221.5,-85.25"/>
<polyline fill="none" stroke="#e552ff" points="164.25,-85.25 176.25,-85.25"/>
<text text-anchor="middle" x="192.88" y="-62.58" font-family="DejaVu Sans Mono" font-size="14.00">print</text>
</g>
<!-- 7&#45;&gt;9 -->
<g id="edge2" class="edge">
<title>7&#45;&gt;9</title>
<path fill="none" stroke="black" stroke-dasharray="5,2" d="M215.87,-134.25C212.06,-123.31 207.04,-108.9 202.66,-96.34"/>
<polygon fill="black" stroke="black" points="205.97,-95.2 199.37,-86.91 199.36,-97.5 205.97,-95.2"/>
<text text-anchor="middle" x="230.5" y="-105.2" font-family="DejaVu Sans Mono" font-size="14.00">calls</text>
</g>
<!-- 10 -->
<g id="node7" class="node">
<title>10</title>
<polygon fill="#98fb98" stroke="black" points="374.24,-85.25 267.08,-85.25 239.51,-49.25 346.67,-49.25 374.24,-85.25"/>
<text text-anchor="start" x="268.56" y="-62.58" font-family="DejaVu Sans Mono" font-size="14.00">return</text>
</g>
<!-- 7&#45;&gt;10 -->
<g id="edge3" class="edge">
<title>7&#45;&gt;10</title>
<path fill="none" stroke="black" d="M239.49,-134.25C251.57,-122.42 267.79,-106.53 281.29,-93.31"/>
<polygon fill="black" stroke="black" points="283.51,-96.03 288.2,-86.54 278.61,-91.03 283.51,-96.03"/>
</g>
<!-- 8&#45;&gt;3 -->
<g id="edge6" class="edge">
<title>8&#45;&gt;3</title>
<path fill="none" stroke="black" d="M410.18,-170.77C412.43,-173.09 414.39,-175.67 415.88,-178.5 431.82,-208.99 423.53,-223.75 410.88,-255.75 405.61,-269.06 402.51,-272.66 390.88,-281 390.03,-281.61 389.16,-282.2 388.28,-282.79"/>
<polygon fill="black" stroke="black" points="386.59,-279.72 379.7,-287.76 390.11,-285.77 386.59,-279.72"/>
</g>
<!-- 12 -->
<g id="node9" class="node">
<title>12</title>
<polygon fill="#e552ff" stroke="#e552ff" points="449.5,-85.25 404.25,-85.25 404.25,-89.25 392.25,-89.25 392.25,-49.25 449.5,-49.25 449.5,-85.25"/>
<polyline fill="none" stroke="#e552ff" points="392.25,-85.25 404.25,-85.25"/>
<text text-anchor="middle" x="420.88" y="-62.58" font-family="DejaVu Sans Mono" font-size="14.00">print</text>
</g>
<!-- 8&#45;&gt;12 -->
<g id="edge5" class="edge">
<title>8&#45;&gt;12</title>
<path fill="none" stroke="black" stroke-dasharray="5,2" d="M388.37,-134.25C393.87,-123.09 401.14,-108.32 407.42,-95.58"/>
<polygon fill="black" stroke="black" points="410.44,-97.35 411.72,-86.84 404.16,-94.26 410.44,-97.35"/>
<text text-anchor="middle" x="424.5" y="-105.2" font-family="DejaVu Sans Mono" font-size="14.00">calls</text>
</g>
<!-- input -->
<g id="node10" class="node">
<title>input</title>
<polygon fill="#afeeee" stroke="black" points="869.76,-247.75 776.09,-247.75 751.99,-211.75 845.66,-211.75 869.76,-247.75"/>
<text text-anchor="middle" x="810.88" y="-225.07" font-family="DejaVu Sans Mono" font-size="14.00">input</text>
</g>
<!-- call -->
<g id="node15" class="node">
<title>call</title>
<polygon fill="#e552ff" stroke="black" points="837.88,-170.5 795.88,-170.5 795.88,-174.5 783.88,-174.5 783.88,-134.5 837.88,-134.5 837.88,-170.5"/>
<polyline fill="none" stroke="black" points="783.88,-170.5 795.88,-170.5"/>
<text text-anchor="middle" x="810.88" y="-147.82" font-family="DejaVu Sans Mono" font-size="14.00">call</text>
</g>
<!-- input&#45;&gt;call -->
<!-- default -->
<g id="node11" class="node">
<title>default</title>
<polygon fill="#fffb81" stroke="black" points="703.75,-170.5 630,-170.5 630,-134.5 703.75,-134.5 703.75,-170.5"/>
<text text-anchor="middle" x="666.88" y="-147.82" font-family="DejaVu Sans Mono" font-size="14.00">default</text>
</g>
<!-- if -->
<g id="node12" class="node">
<title>if</title>
<polygon fill="#ff6752" stroke="black" points="810.88,-325 778.63,-307 810.88,-289 843.12,-307 810.88,-325"/>
<text text-anchor="middle" x="810.88" y="-302.32" font-family="DejaVu Sans Mono" font-size="14.00">if</text>
</g>
<!-- if&#45;&gt;input -->
<!-- for -->
<g id="node13" class="node">
<title>for</title>
<polygon fill="#ffbe52" stroke="black" points="758.88,-307 742.38,-325 709.37,-325 692.87,-307 709.37,-289 742.38,-289 758.88,-307"/>
<text text-anchor="middle" x="725.88" y="-302.32" font-family="DejaVu Sans Mono" font-size="14.00">for</text>
</g>
<!-- return -->
<g id="node16" class="node">
<title>return</title>
<polygon fill="#98fb98" stroke="black" points="734.24,-247.75 627.08,-247.75 599.51,-211.75 706.67,-211.75 734.24,-247.75"/>
<text text-anchor="middle" x="666.88" y="-225.07" font-family="DejaVu Sans Mono" font-size="14.00">return</text>
</g>
<!-- for&#45;&gt;return -->
<!-- while -->
<g id="node14" class="node">
<title>while</title>
<polygon fill="#ffbe52" stroke="black" points="675.25,-307 652.06,-325 605.69,-325 582.5,-307 605.69,-289 652.06,-289 675.25,-307"/>
<text text-anchor="middle" x="628.88" y="-302.32" font-family="DejaVu Sans Mono" font-size="14.00">while</text>
</g>
<!-- return&#45;&gt;default -->
<!-- try -->
<g id="node17" class="node">
<title>try</title>
<polygon fill="orange" stroke="black" points="523.88,-325 483.45,-307 523.88,-289 564.3,-307 523.88,-325"/>
<polyline fill="none" stroke="black" points="494.41,-311.88 494.41,-302.12"/>
<polyline fill="none" stroke="black" points="512.91,-293.88 534.84,-293.88"/>
<polyline fill="none" stroke="black" points="553.34,-302.12 553.34,-311.88"/>
<polyline fill="none" stroke="black" points="534.84,-320.12 512.91,-320.12"/>
<text text-anchor="middle" x="523.88" y="-302.32" font-family="DejaVu Sans Mono" font-size="14.00">try</text>
</g>
<!-- raise -->
<g id="node18" class="node">
<title>raise</title>
<polygon fill="#98fb98" stroke="black" points="581.52,-235.31 531.88,-247.75 482.23,-235.31 482.28,-215.19 581.47,-215.19 581.52,-235.31"/>
<text text-anchor="middle" x="531.88" y="-225.07" font-family="DejaVu Sans Mono" font-size="14.00">raise</text>
</g>
<!-- try&#45;&gt;raise -->
</g>
</svg>
