<?xml version="1.0" encoding="UTF-8" standalone="no"?>
<!DOCTYPE svg PUBLIC "-//W3C//DTD SVG 1.1//EN"
 "http://www.w3.org/Graphics/SVG/1.1/DTD/svg11.dtd">
<!-- Generated by graphviz version 9.0.0 (20230911.1827)
 -->
<!-- Title: cluster0else_04 Pages: 1 -->
<svg width="734pt" height="452pt"
 viewBox="0.00 0.00 734.00 451.50" xmlns="http://www.w3.org/2000/svg" xmlns:xlink="http://www.w3.org/1999/xlink">
<g id="graph0" class="graph" transform="scale(1 1) rotate(0) translate(4 447.5)">
<title>cluster0else_04</title>
<polygon fill="white" stroke="none" points="-4,4 -4,-447.5 730,-447.5 730,4 -4,4"/>
<text text-anchor="middle" x="363" y="-7.95" font-family="DejaVu Sans Mono" font-size="14.00">else_04</text>
<g id="clust1" class="cluster">
<title>cluster_1</title>
<polygon fill="purple" stroke="purple" points="8,-281 8,-333 82,-333 82,-281 8,-281"/>
</g>
<g id="clust2" class="cluster">
<title>cluster_5</title>
<polygon fill="purple" stroke="purple" points="41,-118.5 41,-170.5 115,-170.5 115,-118.5 41,-118.5"/>
</g>
<g id="clust3" class="cluster">
<title>cluster_6</title>
<polygon fill="purple" stroke="purple" points="166,-33.25 166,-85.25 240,-85.25 240,-33.25 166,-33.25"/>
</g>
<g id="clust4" class="cluster">
<title>cluster_KEY</title>
<polygon fill="none" stroke="black" points="314,-203.75 314,-435.5 718,-435.5 718,-203.75 314,-203.75"/>
<text text-anchor="middle" x="516" y="-418.2" font-family="DejaVu Sans Mono" font-size="14.00">KEY</text>
</g>
<!-- 1 -->
<g id="node1" class="node">
<title>1</title>
<polygon fill="#ffbe52" stroke="black" points="306.24,-384.25 239.62,-402.25 106.38,-402.25 39.76,-384.25 106.38,-366.25 239.62,-366.25 306.24,-384.25"/>
<text text-anchor="start" x="86.03" y="-379.57" font-family="DejaVu Sans Mono" font-size="14.00">for _ in range(2):</text>
</g>
<!-- 2 -->
<g id="node2" class="node">
<title>2</title>
<polygon fill="#e552ff" stroke="#e552ff" points="73.62,-325 28.38,-325 28.38,-329 16.37,-329 16.37,-289 73.62,-289 73.62,-325"/>
<polyline fill="none" stroke="#e552ff" points="16.37,-325 28.38,-325"/>
<text text-anchor="middle" x="45" y="-302.32" font-family="DejaVu Sans Mono" font-size="14.00">range</text>
</g>
<!-- 1&#45;&gt;2 -->
<g id="edge1" class="edge">
<title>1&#45;&gt;2</title>
<path fill="none" stroke="black" stroke-dasharray="5,2" d="M140.58,-365.94C123.3,-356.51 101.79,-344.46 83,-333 82.14,-332.48 81.28,-331.95 80.41,-331.41"/>
<polygon fill="black" stroke="black" points="82.61,-328.66 72.29,-326.26 78.87,-334.57 82.61,-328.66"/>
<text text-anchor="middle" x="145.62" y="-344.95" font-family="DejaVu Sans Mono" font-size="14.00">calls</text>
</g>
<!-- 3 -->
<g id="node3" class="node">
<title>3</title>
<polygon fill="#ff6752" stroke="black" points="173,-325 91.65,-307 173,-289 254.35,-307 173,-325"/>
<text text-anchor="start" x="123.02" y="-302.32" font-family="DejaVu Sans Mono" font-size="14.00">if True:</text>
</g>
<!-- 1&#45;&gt;3 -->
<g id="edge8" class="edge">
<title>1&#45;&gt;3</title>
<path fill="none" stroke="green" d="M173,-365.8C173,-357.15 173,-346.5 173,-336.69"/>
<polygon fill="green" stroke="green" points="176.5,-336.87 173,-326.87 169.5,-336.87 176.5,-336.87"/>
<text text-anchor="middle" x="206" y="-344.95" font-family="DejaVu Sans Mono" font-size="14.00">range(2)</text>
</g>
<!-- 5 -->
<g id="node4" class="node">
<title>5</title>
<polygon fill="#fffb81" stroke="black" points="159.62,-247.75 36.38,-247.75 36.38,-211.75 159.62,-211.75 159.62,-247.75"/>
<text text-anchor="start" x="44.38" y="-225.07" font-family="DejaVu Sans Mono" font-size="14.00">print(&#39;True&#39;)</text>
</g>
<!-- 3&#45;&gt;5 -->
<g id="edge6" class="edge">
<title>3&#45;&gt;5</title>
<path fill="none" stroke="green" d="M158.89,-291.85C148.83,-281.75 135.01,-267.89 123.09,-255.92"/>
<polygon fill="green" stroke="green" points="125.81,-253.7 116.27,-249.08 120.85,-258.64 125.81,-253.7"/>
<text text-anchor="middle" x="156.5" y="-259.7" font-family="DejaVu Sans Mono" font-size="14.00">True</text>
</g>
<!-- 6 -->
<g id="node6" class="node">
<title>6</title>
<polygon fill="#fffb81" stroke="black" points="281.12,-162.5 124.88,-162.5 124.88,-126.5 281.12,-126.5 281.12,-162.5"/>
<text text-anchor="start" x="132.88" y="-139.82" font-family="DejaVu Sans Mono" font-size="14.00">print(&#39;implicit&#39;)</text>
</g>
<!-- 3&#45;&gt;6 -->
<g id="edge7" class="edge">
<title>3&#45;&gt;6</title>
<path fill="none" stroke="red" d="M176.1,-289.43C181.21,-262.06 191.48,-207.11 197.75,-173.59"/>
<polygon fill="red" stroke="red" points="201.11,-174.67 199.51,-164.2 194.23,-173.38 201.11,-174.67"/>
<text text-anchor="middle" x="220.88" y="-225.07" font-family="DejaVu Sans Mono" font-size="14.00">(False)</text>
</g>
<!-- 7 -->
<g id="node5" class="node">
<title>7</title>
<polygon fill="#e552ff" stroke="#e552ff" points="106.62,-162.5 61.38,-162.5 61.38,-166.5 49.38,-166.5 49.38,-126.5 106.62,-126.5 106.62,-162.5"/>
<polyline fill="none" stroke="#e552ff" points="49.38,-162.5 61.38,-162.5"/>
<text text-anchor="middle" x="78" y="-139.82" font-family="DejaVu Sans Mono" font-size="14.00">print</text>
</g>
<!-- 5&#45;&gt;7 -->
<g id="edge2" class="edge">
<title>5&#45;&gt;7</title>
<path fill="none" stroke="black" stroke-dasharray="5,2" d="M93.86,-211.5C91.23,-200.56 87.77,-186.15 84.75,-173.59"/>
<polygon fill="black" stroke="black" points="88.23,-173.1 82.49,-164.2 81.43,-174.74 88.23,-173.1"/>
<text text-anchor="middle" x="110.62" y="-182.45" font-family="DejaVu Sans Mono" font-size="14.00">calls</text>
</g>
<!-- 5&#45;&gt;6 -->
<g id="edge5" class="edge">
<title>5&#45;&gt;6</title>
<path fill="none" stroke="black" d="M120.01,-211.3C135.13,-199.31 155.42,-183.23 172.14,-169.96"/>
<polygon fill="black" stroke="black" points="174.17,-172.82 179.83,-163.87 169.82,-167.34 174.17,-172.82"/>
</g>
<!-- 6&#45;&gt;1 -->
<g id="edge4" class="edge">
<title>6&#45;&gt;1</title>
<path fill="none" stroke="black" d="M223.27,-162.83C234.27,-173.46 247.02,-188.02 254,-203.75 277.35,-256.39 281.93,-278.62 263,-333 259.08,-344.27 251.09,-353.08 241.42,-359.94"/>
<polygon fill="black" stroke="black" points="239.67,-356.91 233.01,-365.15 243.35,-362.87 239.67,-356.91"/>
</g>
<!-- 8 -->
<g id="node7" class="node">
<title>8</title>
<polygon fill="#e552ff" stroke="#e552ff" points="231.62,-77.25 186.38,-77.25 186.38,-81.25 174.38,-81.25 174.38,-41.25 231.62,-41.25 231.62,-77.25"/>
<polyline fill="none" stroke="#e552ff" points="174.38,-77.25 186.38,-77.25"/>
<text text-anchor="middle" x="203" y="-54.58" font-family="DejaVu Sans Mono" font-size="14.00">print</text>
</g>
<!-- 6&#45;&gt;8 -->
<g id="edge3" class="edge">
<title>6&#45;&gt;8</title>
<path fill="none" stroke="black" stroke-dasharray="5,2" d="M203,-126.25C203,-115.42 203,-101.2 203,-88.73"/>
<polygon fill="black" stroke="black" points="206.5,-88.99 203,-78.99 199.5,-88.99 206.5,-88.99"/>
<text text-anchor="middle" x="223.62" y="-97.2" font-family="DejaVu Sans Mono" font-size="14.00">calls</text>
</g>
<!-- input -->
<g id="node8" class="node">
<title>input</title>
<polygon fill="#afeeee" stroke="black" points="709.88,-325 616.21,-325 592.12,-289 685.79,-289 709.88,-325"/>
<text text-anchor="middle" x="651" y="-302.32" font-family="DejaVu Sans Mono" font-size="14.00">input</text>
</g>
<!-- call -->
<g id="node13" class="node">
<title>call</title>
<polygon fill="#e552ff" stroke="black" points="678,-247.75 636,-247.75 636,-251.75 624,-251.75 624,-211.75 678,-211.75 678,-247.75"/>
<polyline fill="none" stroke="black" points="624,-247.75 636,-247.75"/>
<text text-anchor="middle" x="651" y="-225.07" font-family="DejaVu Sans Mono" font-size="14.00">call</text>
</g>
<!-- input&#45;&gt;call -->
<!-- default -->
<g id="node9" class="node">
<title>default</title>
<polygon fill="#fffb81" stroke="black" points="543.88,-247.75 470.12,-247.75 470.12,-211.75 543.88,-211.75 543.88,-247.75"/>
<text text-anchor="middle" x="507" y="-225.07" font-family="DejaVu Sans Mono" font-size="14.00">default</text>
</g>
<!-- if -->
<g id="node10" class="node">
<title>if</title>
<polygon fill="#ff6752" stroke="black" points="651,-402.25 618.76,-384.25 651,-366.25 683.24,-384.25 651,-402.25"/>
<text text-anchor="middle" x="651" y="-379.57" font-family="DejaVu Sans Mono" font-size="14.00">if</text>
</g>
<!-- if&#45;&gt;input -->
<!-- for -->
<g id="node11" class="node">
<title>for</title>
<polygon fill="#ffbe52" stroke="black" points="601.01,-384.25 584.5,-402.25 551.5,-402.25 534.99,-384.25 551.5,-366.25 584.5,-366.25 601.01,-384.25"/>
<text text-anchor="middle" x="568" y="-379.57" font-family="DejaVu Sans Mono" font-size="14.00">for</text>
</g>
<!-- return -->
<g id="node14" class="node">
<title>return</title>
<polygon fill="#98fb98" stroke="black" points="574.37,-325 467.2,-325 439.63,-289 546.8,-289 574.37,-325"/>
<text text-anchor="middle" x="507" y="-302.32" font-family="DejaVu Sans Mono" font-size="14.00">return</text>
</g>
<!-- for&#45;&gt;return -->
<!-- while -->
<g id="node12" class="node">
<title>while</title>
<polygon fill="#ffbe52" stroke="black" points="517.37,-384.25 494.19,-402.25 447.81,-402.25 424.63,-384.25 447.81,-366.25 494.19,-366.25 517.37,-384.25"/>
<text text-anchor="middle" x="471" y="-379.57" font-family="DejaVu Sans Mono" font-size="14.00">while</text>
</g>
<!-- return&#45;&gt;default -->
<!-- try -->
<g id="node15" class="node">
<title>try</title>
<polygon fill="orange" stroke="black" points="366,-402.25 325.57,-384.25 366,-366.25 406.43,-384.25 366,-402.25"/>
<polyline fill="none" stroke="black" points="336.54,-389.13 336.54,-379.37"/>
<polyline fill="none" stroke="black" points="355.04,-371.13 376.96,-371.13"/>
<polyline fill="none" stroke="black" points="395.46,-379.37 395.46,-389.13"/>
<polyline fill="none" stroke="black" points="376.96,-397.37 355.04,-397.37"/>
<text text-anchor="middle" x="366" y="-379.57" font-family="DejaVu Sans Mono" font-size="14.00">try</text>
</g>
<!-- raise -->
<g id="node16" class="node">
<title>raise</title>
<polygon fill="#98fb98" stroke="black" points="421.64,-312.56 372,-325 322.36,-312.56 322.41,-292.44 421.59,-292.44 421.64,-312.56"/>
<text text-anchor="middle" x="372" y="-302.32" font-family="DejaVu Sans Mono" font-size="14.00">raise</text>
</g>
<!-- try&#45;&gt;raise -->
</g>
</svg>
