<?xml version="1.0" encoding="UTF-8" standalone="no"?>
<!DOCTYPE svg PUBLIC "-//W3C//DTD SVG 1.1//EN"
 "http://www.w3.org/Graphics/SVG/1.1/DTD/svg11.dtd">
<!-- Generated by graphviz version 9.0.0 (20230911.1827)
 -->
<!-- Title: cluster0else_01 Pages: 1 -->
<svg width="809pt" height="370pt"
 viewBox="0.00 0.00 809.00 369.50" xmlns="http://www.w3.org/2000/svg" xmlns:xlink="http://www.w3.org/1999/xlink">
<g id="graph0" class="graph" transform="scale(1 1) rotate(0) translate(4 365.5)">
<title>cluster0else_01</title>
<polygon fill="white" stroke="none" points="-4,4 -4,-365.5 805,-365.5 805,4 -4,4"/>
<text text-anchor="middle" x="400.5" y="-7.95" font-family="DejaVu Sans Mono" font-size="14.00">else_01</text>
<g id="clust1" class="cluster">
<title>cluster_1</title>
<polygon fill="purple" stroke="purple" points="8,-199 8,-251 82,-251 82,-199 8,-199"/>
</g>
<g id="clust2" class="cluster">
<title>cluster_5</title>
<polygon fill="purple" stroke="purple" points="91,-33.25 91,-85.25 165,-85.25 165,-33.25 91,-33.25"/>
</g>
<g id="clust3" class="cluster">
<title>cluster_6</title>
<polygon fill="purple" stroke="purple" points="266,-33.25 266,-85.25 340,-85.25 340,-33.25 266,-33.25"/>
</g>
<g id="clust4" class="cluster">
<title>cluster_KEY</title>
<polygon fill="none" stroke="black" points="389,-118.5 389,-353.5 793,-353.5 793,-118.5 389,-118.5"/>
<text text-anchor="middle" x="591" y="-336.2" font-family="DejaVu Sans Mono" font-size="14.00">KEY</text>
</g>
<!-- 1 -->
<g id="node1" class="node">
<title>1</title>
<polygon fill="#ffbe52" stroke="black" points="289.24,-302.25 222.62,-320.25 89.38,-320.25 22.76,-302.25 89.38,-284.25 222.62,-284.25 289.24,-302.25"/>
<text text-anchor="start" x="69.03" y="-297.57" font-family="DejaVu Sans Mono" font-size="14.00">for _ in range(2):</text>
</g>
<!-- 2 -->
<g id="node2" class="node">
<title>2</title>
<polygon fill="#e552ff" stroke="#e552ff" points="73.62,-243 28.38,-243 28.38,-247 16.37,-247 16.37,-207 73.62,-207 73.62,-243"/>
<polyline fill="none" stroke="#e552ff" points="16.37,-243 28.38,-243"/>
<text text-anchor="middle" x="45" y="-220.32" font-family="DejaVu Sans Mono" font-size="14.00">range</text>
</g>
<!-- 1&#45;&gt;2 -->
<g id="edge1" class="edge">
<title>1&#45;&gt;2</title>
<path fill="none" stroke="black" stroke-dasharray="5,2" d="M71.55,-288.56C60.08,-285.26 50.84,-281.2 46.75,-276.25 41.8,-270.26 40.08,-262.36 39.95,-254.61"/>
<polygon fill="black" stroke="black" points="43.43,-254.94 40.63,-244.72 36.45,-254.46 43.43,-254.94"/>
<text text-anchor="middle" x="67.62" y="-262.95" font-family="DejaVu Sans Mono" font-size="14.00">calls</text>
</g>
<!-- 3 -->
<g id="node3" class="node">
<title>3</title>
<polygon fill="#ff6752" stroke="black" points="211,-243 129.65,-225 211,-207 292.35,-225 211,-243"/>
<text text-anchor="start" x="161.02" y="-220.32" font-family="DejaVu Sans Mono" font-size="14.00">if True:</text>
</g>
<!-- 1&#45;&gt;3 -->
<g id="edge8" class="edge">
<title>1&#45;&gt;3</title>
<path fill="none" stroke="green" d="M168.76,-283.8C176.12,-273.72 185.48,-260.91 193.53,-249.91"/>
<polygon fill="green" stroke="green" points="196.2,-252.18 199.27,-242.04 190.55,-248.05 196.2,-252.18"/>
<text text-anchor="middle" x="220" y="-262.95" font-family="DejaVu Sans Mono" font-size="14.00">range(2)</text>
</g>
<!-- 5 -->
<g id="node4" class="node">
<title>5</title>
<polygon fill="#fffb81" stroke="black" points="189.62,-165.75 66.38,-165.75 66.38,-123.25 189.62,-123.25 189.62,-165.75"/>
<text text-anchor="start" x="74.38" y="-148.45" font-family="DejaVu Sans Mono" font-size="14.00">print(&#39;True&#39;)</text>
<text text-anchor="start" x="74.38" y="-131.2" font-family="DejaVu Sans Mono" font-size="14.00">continue</text>
</g>
<!-- 3&#45;&gt;5 -->
<g id="edge4" class="edge">
<title>3&#45;&gt;5</title>
<path fill="none" stroke="green" d="M194.99,-210.05C188.42,-204.23 180.78,-197.36 174,-191 168.28,-185.63 162.25,-179.8 156.52,-174.16"/>
<polygon fill="green" stroke="green" points="159.03,-171.72 149.46,-167.18 154.11,-176.7 159.03,-171.72"/>
<text text-anchor="middle" x="190.5" y="-177.7" font-family="DejaVu Sans Mono" font-size="14.00">True</text>
</g>
<!-- 6 -->
<g id="node6" class="node">
<title>6</title>
<polygon fill="#fffb81" stroke="black" points="381.12,-162.5 224.88,-162.5 224.88,-126.5 381.12,-126.5 381.12,-162.5"/>
<text text-anchor="start" x="232.88" y="-139.82" font-family="DejaVu Sans Mono" font-size="14.00">print(&#39;implicit&#39;)</text>
</g>
<!-- 3&#45;&gt;6 -->
<g id="edge7" class="edge">
<title>3&#45;&gt;6</title>
<path fill="none" stroke="red" d="M219.88,-208.46C226.61,-197.7 236.67,-183.6 248.25,-173.75 250.17,-172.12 252.2,-170.55 254.3,-169.04"/>
<polygon fill="red" stroke="red" points="256.12,-172.03 262.62,-163.67 252.32,-166.15 256.12,-172.03"/>
<text text-anchor="middle" x="277.88" y="-177.7" font-family="DejaVu Sans Mono" font-size="14.00">(False)</text>
</g>
<!-- 5&#45;&gt;1 -->
<g id="edge3" class="edge">
<title>5&#45;&gt;1</title>
<path fill="none" stroke="black" d="M122.35,-165.85C117.33,-187.49 112.04,-222.45 121,-251 123.69,-259.56 128.4,-267.93 133.52,-275.32"/>
<polygon fill="black" stroke="black" points="130.39,-276.97 139.19,-282.87 135.99,-272.77 130.39,-276.97"/>
</g>
<!-- 7 -->
<g id="node5" class="node">
<title>7</title>
<polygon fill="#e552ff" stroke="#e552ff" points="156.62,-77.25 111.38,-77.25 111.38,-81.25 99.38,-81.25 99.38,-41.25 156.62,-41.25 156.62,-77.25"/>
<polyline fill="none" stroke="#e552ff" points="99.38,-77.25 111.38,-77.25"/>
<text text-anchor="middle" x="128" y="-54.58" font-family="DejaVu Sans Mono" font-size="14.00">print</text>
</g>
<!-- 5&#45;&gt;7 -->
<g id="edge2" class="edge">
<title>5&#45;&gt;7</title>
<path fill="none" stroke="black" stroke-dasharray="5,2" d="M128,-122.92C128,-112.67 128,-100.1 128,-88.92"/>
<polygon fill="black" stroke="black" points="131.5,-89.02 128,-79.02 124.5,-89.02 131.5,-89.02"/>
<text text-anchor="middle" x="148.62" y="-97.2" font-family="DejaVu Sans Mono" font-size="14.00">calls</text>
</g>
<!-- 6&#45;&gt;1 -->
<g id="edge6" class="edge">
<title>6&#45;&gt;1</title>
<path fill="none" stroke="black" d="M307.78,-162.76C312.88,-185.03 318.11,-224.1 301,-251 290.6,-267.35 274.41,-278.47 256.55,-286"/>
<polygon fill="black" stroke="black" points="255.41,-282.69 247.3,-289.5 257.89,-289.24 255.41,-282.69"/>
</g>
<!-- 9 -->
<g id="node7" class="node">
<title>9</title>
<polygon fill="#e552ff" stroke="#e552ff" points="331.62,-77.25 286.38,-77.25 286.38,-81.25 274.38,-81.25 274.38,-41.25 331.62,-41.25 331.62,-77.25"/>
<polyline fill="none" stroke="#e552ff" points="274.38,-77.25 286.38,-77.25"/>
<text text-anchor="middle" x="303" y="-54.58" font-family="DejaVu Sans Mono" font-size="14.00">print</text>
</g>
<!-- 6&#45;&gt;9 -->
<g id="edge5" class="edge">
<title>6&#45;&gt;9</title>
<path fill="none" stroke="black" stroke-dasharray="5,2" d="M303,-126.25C303,-115.42 303,-101.2 303,-88.73"/>
<polygon fill="black" stroke="black" points="306.5,-88.99 303,-78.99 299.5,-88.99 306.5,-88.99"/>
<text text-anchor="middle" x="323.62" y="-97.2" font-family="DejaVu Sans Mono" font-size="14.00">calls</text>
</g>
<!-- input -->
<g id="node8" class="node">
<title>input</title>
<polygon fill="#afeeee" stroke="black" points="784.88,-243 691.21,-243 667.12,-207 760.79,-207 784.88,-243"/>
<text text-anchor="middle" x="726" y="-220.32" font-family="DejaVu Sans Mono" font-size="14.00">input</text>
</g>
<!-- call -->
<g id="node13" class="node">
<title>call</title>
<polygon fill="#e552ff" stroke="black" points="753,-162.5 711,-162.5 711,-166.5 699,-166.5 699,-126.5 753,-126.5 753,-162.5"/>
<polyline fill="none" stroke="black" points="699,-162.5 711,-162.5"/>
<text text-anchor="middle" x="726" y="-139.82" font-family="DejaVu Sans Mono" font-size="14.00">call</text>
</g>
<!-- input&#45;&gt;call -->
<!-- default -->
<g id="node9" class="node">
<title>default</title>
<polygon fill="#fffb81" stroke="black" points="618.88,-162.5 545.12,-162.5 545.12,-126.5 618.88,-126.5 618.88,-162.5"/>
<text text-anchor="middle" x="582" y="-139.82" font-family="DejaVu Sans Mono" font-size="14.00">default</text>
</g>
<!-- if -->
<g id="node10" class="node">
<title>if</title>
<polygon fill="#ff6752" stroke="black" points="726,-320.25 693.76,-302.25 726,-284.25 758.24,-302.25 726,-320.25"/>
<text text-anchor="middle" x="726" y="-297.57" font-family="DejaVu Sans Mono" font-size="14.00">if</text>
</g>
<!-- if&#45;&gt;input -->
<!-- for -->
<g id="node11" class="node">
<title>for</title>
<polygon fill="#ffbe52" stroke="black" points="674.01,-302.25 657.5,-320.25 624.5,-320.25 607.99,-302.25 624.5,-284.25 657.5,-284.25 674.01,-302.25"/>
<text text-anchor="middle" x="641" y="-297.57" font-family="DejaVu Sans Mono" font-size="14.00">for</text>
</g>
<!-- return -->
<g id="node14" class="node">
<title>return</title>
<polygon fill="#98fb98" stroke="black" points="649.37,-243 542.2,-243 514.63,-207 621.8,-207 649.37,-243"/>
<text text-anchor="middle" x="582" y="-220.32" font-family="DejaVu Sans Mono" font-size="14.00">return</text>
</g>
<!-- for&#45;&gt;return -->
<!-- while -->
<g id="node12" class="node">
<title>while</title>
<polygon fill="#ffbe52" stroke="black" points="590.37,-302.25 567.19,-320.25 520.81,-320.25 497.63,-302.25 520.81,-284.25 567.19,-284.25 590.37,-302.25"/>
<text text-anchor="middle" x="544" y="-297.57" font-family="DejaVu Sans Mono" font-size="14.00">while</text>
</g>
<!-- return&#45;&gt;default -->
<!-- try -->
<g id="node15" class="node">
<title>try</title>
<polygon fill="orange" stroke="black" points="439,-320.25 398.57,-302.25 439,-284.25 479.43,-302.25 439,-320.25"/>
<polyline fill="none" stroke="black" points="409.54,-307.13 409.54,-297.37"/>
<polyline fill="none" stroke="black" points="428.04,-289.13 449.96,-289.13"/>
<polyline fill="none" stroke="black" points="468.46,-297.37 468.46,-307.13"/>
<polyline fill="none" stroke="black" points="449.96,-315.37 428.04,-315.37"/>
<text text-anchor="middle" x="439" y="-297.57" font-family="DejaVu Sans Mono" font-size="14.00">try</text>
</g>
<!-- raise -->
<g id="node16" class="node">
<title>raise</title>
<polygon fill="#98fb98" stroke="black" points="496.64,-230.56 447,-243 397.36,-230.56 397.41,-210.44 496.59,-210.44 496.64,-230.56"/>
<text text-anchor="middle" x="447" y="-220.32" font-family="DejaVu Sans Mono" font-size="14.00">raise</text>
</g>
<!-- try&#45;&gt;raise -->
</g>
</svg>
