<?xml version="1.0" encoding="UTF-8" standalone="no"?>
<!DOCTYPE svg PUBLIC "-//W3C//DTD SVG 1.1//EN"
 "http://www.w3.org/Graphics/SVG/1.1/DTD/svg11.dtd">
<!-- Generated by graphviz version 9.0.0 (20230911.1827)
 -->
<!-- Title: cluster0else_02 Pages: 1 -->
<svg width="809pt" height="366pt"
 viewBox="0.00 0.00 809.00 366.25" xmlns="http://www.w3.org/2000/svg" xmlns:xlink="http://www.w3.org/1999/xlink">
<g id="graph0" class="graph" transform="scale(1 1) rotate(0) translate(4 362.25)">
<title>cluster0else_02</title>
<polygon fill="white" stroke="none" points="-4,4 -4,-362.25 805,-362.25 805,4 -4,4"/>
<text text-anchor="middle" x="400.5" y="-7.95" font-family="DejaVu Sans Mono" font-size="14.00">else_02</text>
<g id="clust1" class="cluster">
<title>cluster_1</title>
<polygon fill="purple" stroke="purple" points="8,-195.75 8,-247.75 82,-247.75 82,-195.75 8,-195.75"/>
</g>
<g id="clust2" class="cluster">
<title>cluster_5</title>
<polygon fill="purple" stroke="purple" points="91,-33.25 91,-85.25 165,-85.25 165,-33.25 91,-33.25"/>
</g>
<g id="clust3" class="cluster">
<title>cluster_7</title>
<polygon fill="purple" stroke="purple" points="266,-33.25 266,-85.25 340,-85.25 340,-33.25 266,-33.25"/>
</g>
<g id="clust4" class="cluster">
<title>cluster_KEY</title>
<polygon fill="none" stroke="black" points="389,-118.5 389,-350.25 793,-350.25 793,-118.5 389,-118.5"/>
<text text-anchor="middle" x="591" y="-332.95" font-family="DejaVu Sans Mono" font-size="14.00">KEY</text>
</g>
<!-- 1 -->
<g id="node1" class="node">
<title>1</title>
<polygon fill="#ffbe52" stroke="black" points="289.24,-299 222.62,-317 89.38,-317 22.76,-299 89.38,-281 222.62,-281 289.24,-299"/>
<text text-anchor="start" x="69.03" y="-294.32" font-family="DejaVu Sans Mono" font-size="14.00">for _ in range(2):</text>
</g>
<!-- 2 -->
<g id="node2" class="node">
<title>2</title>
<polygon fill="#e552ff" stroke="#e552ff" points="73.62,-239.75 28.38,-239.75 28.38,-243.75 16.37,-243.75 16.37,-203.75 73.62,-203.75 73.62,-239.75"/>
<polyline fill="none" stroke="#e552ff" points="16.37,-239.75 28.38,-239.75"/>
<text text-anchor="middle" x="45" y="-217.07" font-family="DejaVu Sans Mono" font-size="14.00">range</text>
</g>
<!-- 1&#45;&gt;2 -->
<g id="edge1" class="edge">
<title>1&#45;&gt;2</title>
<path fill="none" stroke="black" stroke-dasharray="5,2" d="M71.55,-285.31C60.08,-282.01 50.84,-277.95 46.75,-273 41.8,-267.01 40.08,-259.11 39.95,-251.36"/>
<polygon fill="black" stroke="black" points="43.43,-251.69 40.63,-241.47 36.45,-251.21 43.43,-251.69"/>
<text text-anchor="middle" x="67.62" y="-259.7" font-family="DejaVu Sans Mono" font-size="14.00">calls</text>
</g>
<!-- 3 -->
<g id="node3" class="node">
<title>3</title>
<polygon fill="#ff6752" stroke="black" points="211,-239.75 129.65,-221.75 211,-203.75 292.35,-221.75 211,-239.75"/>
<text text-anchor="start" x="161.02" y="-217.07" font-family="DejaVu Sans Mono" font-size="14.00">if True:</text>
</g>
<!-- 1&#45;&gt;3 -->
<g id="edge8" class="edge">
<title>1&#45;&gt;3</title>
<path fill="none" stroke="green" d="M168.76,-280.55C176.12,-270.47 185.48,-257.66 193.53,-246.66"/>
<polygon fill="green" stroke="green" points="196.2,-248.93 199.27,-238.79 190.55,-244.8 196.2,-248.93"/>
<text text-anchor="middle" x="220" y="-259.7" font-family="DejaVu Sans Mono" font-size="14.00">range(2)</text>
</g>
<!-- 5 -->
<g id="node4" class="node">
<title>5</title>
<polygon fill="#fffb81" stroke="black" points="189.62,-162.5 66.38,-162.5 66.38,-126.5 189.62,-126.5 189.62,-162.5"/>
<text text-anchor="start" x="74.38" y="-139.82" font-family="DejaVu Sans Mono" font-size="14.00">print(&#39;True&#39;)</text>
</g>
<!-- 3&#45;&gt;5 -->
<g id="edge4" class="edge">
<title>3&#45;&gt;5</title>
<path fill="none" stroke="green" d="M195.47,-206.99C188.84,-201.09 181.02,-194.1 174,-187.75 167.81,-182.15 161.18,-176.09 154.94,-170.36"/>
<polygon fill="green" stroke="green" points="157.59,-168.05 147.86,-163.85 152.85,-173.2 157.59,-168.05"/>
<text text-anchor="middle" x="190.5" y="-174.45" font-family="DejaVu Sans Mono" font-size="14.00">True</text>
</g>
<!-- 7 -->
<g id="node6" class="node">
<title>7</title>
<polygon fill="#fffb81" stroke="black" points="381.12,-162.5 224.88,-162.5 224.88,-126.5 381.12,-126.5 381.12,-162.5"/>
<text text-anchor="start" x="232.88" y="-139.82" font-family="DejaVu Sans Mono" font-size="14.00">print(&#39;implicit&#39;)</text>
</g>
<!-- 3&#45;&gt;7 -->
<g id="edge7" class="edge">
<title>3&#45;&gt;7</title>
<path fill="none" stroke="red" d="M219.45,-205.5C226.12,-194.6 236.27,-180.2 248.25,-170.5 248.78,-170.07 249.32,-169.64 249.87,-169.22"/>
<polygon fill="red" stroke="red" points="251.7,-172.21 258.08,-163.75 247.82,-166.39 251.7,-172.21"/>
<text text-anchor="middle" x="277.88" y="-174.45" font-family="DejaVu Sans Mono" font-size="14.00">(False)</text>
</g>
<!-- 5&#45;&gt;1 -->
<g id="edge3" class="edge">
<title>5&#45;&gt;1</title>
<path fill="none" stroke="black" d="M123,-162.96C117.93,-183.69 111.99,-219.06 121,-247.75 123.69,-256.31 128.4,-264.68 133.52,-272.07"/>
<polygon fill="black" stroke="black" points="130.39,-273.72 139.19,-279.62 135.99,-269.52 130.39,-273.72"/>
</g>
<!-- 9 -->
<g id="node5" class="node">
<title>9</title>
<polygon fill="#e552ff" stroke="#e552ff" points="156.62,-77.25 111.38,-77.25 111.38,-81.25 99.38,-81.25 99.38,-41.25 156.62,-41.25 156.62,-77.25"/>
<polyline fill="none" stroke="#e552ff" points="99.38,-77.25 111.38,-77.25"/>
<text text-anchor="middle" x="128" y="-54.58" font-family="DejaVu Sans Mono" font-size="14.00">print</text>
</g>
<!-- 5&#45;&gt;9 -->
<g id="edge2" class="edge">
<title>5&#45;&gt;9</title>
<path fill="none" stroke="black" stroke-dasharray="5,2" d="M128,-126.25C128,-115.42 128,-101.2 128,-88.73"/>
<polygon fill="black" stroke="black" points="131.5,-88.99 128,-78.99 124.5,-88.99 131.5,-88.99"/>
<text text-anchor="middle" x="148.62" y="-97.2" font-family="DejaVu Sans Mono" font-size="14.00">calls</text>
</g>
<!-- 7&#45;&gt;1 -->
<g id="edge6" class="edge">
<title>7&#45;&gt;1</title>
<path fill="none" stroke="black" d="M307.79,-162.98C312.66,-184.68 317.39,-221.98 301,-247.75 290.6,-264.1 274.41,-275.22 256.55,-282.75"/>
<polygon fill="black" stroke="black" points="255.41,-279.44 247.3,-286.25 257.89,-285.99 255.41,-279.44"/>
</g>
<!-- 8 -->
<g id="node7" class="node">
<title>8</title>
<polygon fill="#e552ff" stroke="#e552ff" points="331.62,-77.25 286.38,-77.25 286.38,-81.25 274.38,-81.25 274.38,-41.25 331.62,-41.25 331.62,-77.25"/>
<polyline fill="none" stroke="#e552ff" points="274.38,-77.25 286.38,-77.25"/>
<text text-anchor="middle" x="303" y="-54.58" font-family="DejaVu Sans Mono" font-size="14.00">print</text>
</g>
<!-- 7&#45;&gt;8 -->
<g id="edge5" class="edge">
<title>7&#45;&gt;8</title>
<path fill="none" stroke="black" stroke-dasharray="5,2" d="M303,-126.25C303,-115.42 303,-101.2 303,-88.73"/>
<polygon fill="black" stroke="black" points="306.5,-88.99 303,-78.99 299.5,-88.99 306.5,-88.99"/>
<text text-anchor="middle" x="323.62" y="-97.2" font-family="DejaVu Sans Mono" font-size="14.00">calls</text>
</g>
<!-- input -->
<g id="node8" class="node">
<title>input</title>
<polygon fill="#afeeee" stroke="black" points="784.88,-239.75 691.21,-239.75 667.12,-203.75 760.79,-203.75 784.88,-239.75"/>
<text text-anchor="middle" x="726" y="-217.07" font-family="DejaVu Sans Mono" font-size="14.00">input</text>
</g>
<!-- call -->
<g id="node13" class="node">
<title>call</title>
<polygon fill="#e552ff" stroke="black" points="753,-162.5 711,-162.5 711,-166.5 699,-166.5 699,-126.5 753,-126.5 753,-162.5"/>
<polyline fill="none" stroke="black" points="699,-162.5 711,-162.5"/>
<text text-anchor="middle" x="726" y="-139.82" font-family="DejaVu Sans Mono" font-size="14.00">call</text>
</g>
<!-- input&#45;&gt;call -->
<!-- default -->
<g id="node9" class="node">
<title>default</title>
<polygon fill="#fffb81" stroke="black" points="618.88,-162.5 545.12,-162.5 545.12,-126.5 618.88,-126.5 618.88,-162.5"/>
<text text-anchor="middle" x="582" y="-139.82" font-family="DejaVu Sans Mono" font-size="14.00">default</text>
</g>
<!-- if -->
<g id="node10" class="node">
<title>if</title>
<polygon fill="#ff6752" stroke="black" points="726,-317 693.76,-299 726,-281 758.24,-299 726,-317"/>
<text text-anchor="middle" x="726" y="-294.32" font-family="DejaVu Sans Mono" font-size="14.00">if</text>
</g>
<!-- if&#45;&gt;input -->
<!-- for -->
<g id="node11" class="node">
<title>for</title>
<polygon fill="#ffbe52" stroke="black" points="674.01,-299 657.5,-317 624.5,-317 607.99,-299 624.5,-281 657.5,-281 674.01,-299"/>
<text text-anchor="middle" x="641" y="-294.32" font-family="DejaVu Sans Mono" font-size="14.00">for</text>
</g>
<!-- return -->
<g id="node14" class="node">
<title>return</title>
<polygon fill="#98fb98" stroke="black" points="649.37,-239.75 542.2,-239.75 514.63,-203.75 621.8,-203.75 649.37,-239.75"/>
<text text-anchor="middle" x="582" y="-217.07" font-family="DejaVu Sans Mono" font-size="14.00">return</text>
</g>
<!-- for&#45;&gt;return -->
<!-- while -->
<g id="node12" class="node">
<title>while</title>
<polygon fill="#ffbe52" stroke="black" points="590.37,-299 567.19,-317 520.81,-317 497.63,-299 520.81,-281 567.19,-281 590.37,-299"/>
<text text-anchor="middle" x="544" y="-294.32" font-family="DejaVu Sans Mono" font-size="14.00">while</text>
</g>
<!-- return&#45;&gt;default -->
<!-- try -->
<g id="node15" class="node">
<title>try</title>
<polygon fill="orange" stroke="black" points="439,-317 398.57,-299 439,-281 479.43,-299 439,-317"/>
<polyline fill="none" stroke="black" points="409.54,-303.88 409.54,-294.12"/>
<polyline fill="none" stroke="black" points="428.04,-285.88 449.96,-285.88"/>
<polyline fill="none" stroke="black" points="468.46,-294.12 468.46,-303.88"/>
<polyline fill="none" stroke="black" points="449.96,-312.12 428.04,-312.12"/>
<text text-anchor="middle" x="439" y="-294.32" font-family="DejaVu Sans Mono" font-size="14.00">try</text>
</g>
<!-- raise -->
<g id="node16" class="node">
<title>raise</title>
<polygon fill="#98fb98" stroke="black" points="496.64,-227.31 447,-239.75 397.36,-227.31 397.41,-207.19 496.59,-207.19 496.64,-227.31"/>
<text text-anchor="middle" x="447" y="-217.07" font-family="DejaVu Sans Mono" font-size="14.00">raise</text>
</g>
<!-- try&#45;&gt;raise -->
</g>
</svg>
