<?xml version="1.0" encoding="UTF-8" standalone="no"?>
<!DOCTYPE svg PUBLIC "-//W3C//DTD SVG 1.1//EN"
 "http://www.w3.org/Graphics/SVG/1.1/DTD/svg11.dtd">
<!-- Generated by graphviz version 9.0.0 (20230911.1827)
 -->
<!-- Title: cluster0fib Pages: 1 -->
<svg width="994pt" height="378pt"
 viewBox="0.00 0.00 994.00 377.50" xmlns="http://www.w3.org/2000/svg" xmlns:xlink="http://www.w3.org/1999/xlink">
<g id="graph0" class="graph" transform="scale(1 1) rotate(0) translate(4 373.5)">
<title>cluster0fib</title>
<polygon fill="white" stroke="none" points="-4,4 -4,-373.5 990,-373.5 990,4 -4,4"/>
<text text-anchor="middle" x="493" y="-7.95" font-family="DejaVu Sans Mono" font-size="14.00">fib</text>
<g id="clust1" class="cluster">
<title>cluster_1</title>
<polygon fill="purple" stroke="purple" points="8,-203.75 8,-255.75 78,-255.75 78,-203.75 8,-203.75"/>
</g>
<g id="clust2" class="cluster">
<title>cluster_10</title>
<polygon fill="purple" stroke="purple" points="127,-118.5 127,-170.5 201,-170.5 201,-118.5 127,-118.5"/>
</g>
<g id="clust3" class="cluster">
<title>cluster_12</title>
<polygon fill="purple" stroke="purple" points="254,-33.25 254,-85.25 324,-85.25 324,-33.25 254,-33.25"/>
</g>
<g id="clust4" class="cluster">
<title>cluster1fib</title>
<polygon fill="none" stroke="black" points="378,-33.25 378,-361.5 566,-361.5 566,-33.25 378,-33.25"/>
<text text-anchor="middle" x="472" y="-344.2" font-family="DejaVu Sans Mono" font-size="14.00">fib</text>
</g>
<g id="clust5" class="cluster">
<title>cluster_KEY</title>
<polygon fill="none" stroke="black" points="574,-118.5 574,-361.5 978,-361.5 978,-118.5 574,-118.5"/>
<text text-anchor="middle" x="776" y="-344.2" font-family="DejaVu Sans Mono" font-size="14.00">KEY</text>
</g>
<!-- 1 -->
<g id="node1" class="node">
<title>1</title>
<polygon fill="#fffb81" stroke="black" points="204.88,-331.5 65.12,-331.5 65.12,-289 204.88,-289 204.88,-331.5"/>
<text text-anchor="start" x="73.12" y="-314.2" font-family="DejaVu Sans Mono" font-size="14.00">def fib():...</text>
<text text-anchor="start" x="73.12" y="-296.95" font-family="DejaVu Sans Mono" font-size="14.00">fib_gen = fib()</text>
</g>
<!-- 9 -->
<g id="node2" class="node">
<title>9</title>
<polygon fill="#e552ff" stroke="#e552ff" points="70,-247.75 28,-247.75 28,-251.75 16,-251.75 16,-211.75 70,-211.75 70,-247.75"/>
<polyline fill="none" stroke="#e552ff" points="16,-247.75 28,-247.75"/>
<text text-anchor="middle" x="43" y="-225.07" font-family="DejaVu Sans Mono" font-size="14.00">fib</text>
</g>
<!-- 1&#45;&gt;9 -->
<g id="edge1" class="edge">
<title>1&#45;&gt;9</title>
<path fill="none" stroke="black" stroke-dasharray="5,2" d="M110.83,-288.63C98.92,-278.46 84.47,-266.13 71.97,-255.47"/>
<polygon fill="black" stroke="black" points="74.31,-252.86 64.43,-249.04 69.77,-258.19 74.31,-252.86"/>
<text text-anchor="middle" x="120.62" y="-267.7" font-family="DejaVu Sans Mono" font-size="14.00">calls</text>
</g>
<!-- 10 -->
<g id="node3" class="node">
<title>10</title>
<polygon fill="#ffbe52" stroke="black" points="367.93,-229.75 297.96,-247.75 158.04,-247.75 88.07,-229.75 158.04,-211.75 297.96,-211.75 367.93,-229.75"/>
<text text-anchor="start" x="136.26" y="-225.07" font-family="DejaVu Sans Mono" font-size="14.00">for _ in range(10):</text>
</g>
<!-- 1&#45;&gt;10 -->
<g id="edge6" class="edge">
<title>1&#45;&gt;10</title>
<path fill="none" stroke="black" d="M159.43,-288.63C171.47,-278.46 186.08,-266.13 198.72,-255.47"/>
<polygon fill="black" stroke="black" points="200.96,-258.15 206.34,-249.03 196.44,-252.8 200.96,-258.15"/>
</g>
<!-- 11 -->
<g id="node4" class="node">
<title>11</title>
<polygon fill="#e552ff" stroke="#e552ff" points="192.62,-162.5 147.38,-162.5 147.38,-166.5 135.38,-166.5 135.38,-126.5 192.62,-126.5 192.62,-162.5"/>
<polyline fill="none" stroke="#e552ff" points="135.38,-162.5 147.38,-162.5"/>
<text text-anchor="middle" x="164" y="-139.82" font-family="DejaVu Sans Mono" font-size="14.00">range</text>
</g>
<!-- 10&#45;&gt;11 -->
<g id="edge2" class="edge">
<title>10&#45;&gt;11</title>
<path fill="none" stroke="black" stroke-dasharray="5,2" d="M190.91,-211.28C184.76,-206.96 179.01,-201.8 174.75,-195.75 170.25,-189.36 167.57,-181.45 165.99,-173.81"/>
<polygon fill="black" stroke="black" points="169.49,-173.55 164.57,-164.17 162.57,-174.57 169.49,-173.55"/>
<text text-anchor="middle" x="194.62" y="-182.45" font-family="DejaVu Sans Mono" font-size="14.00">calls</text>
</g>
<!-- 12 -->
<g id="node5" class="node">
<title>12</title>
<polygon fill="#fffb81" stroke="black" points="350.62,-162.5 227.38,-162.5 227.38,-126.5 350.62,-126.5 350.62,-162.5"/>
<text text-anchor="start" x="235.38" y="-139.82" font-family="DejaVu Sans Mono" font-size="14.00">next(fib_gen)</text>
</g>
<!-- 10&#45;&gt;12 -->
<g id="edge5" class="edge">
<title>10&#45;&gt;12</title>
<path fill="none" stroke="green" d="M222.11,-211.26C219.76,-201.01 218.83,-188.2 224.75,-178.5 226.68,-175.34 229.01,-172.47 231.64,-169.87"/>
<polygon fill="green" stroke="green" points="233.56,-172.82 239.09,-163.79 229.13,-167.4 233.56,-172.82"/>
<text text-anchor="middle" x="261.12" y="-182.45" font-family="DejaVu Sans Mono" font-size="14.00">range(10)</text>
</g>
<!-- 12&#45;&gt;10 -->
<g id="edge4" class="edge">
<title>12&#45;&gt;10</title>
<path fill="none" stroke="black" d="M300.51,-162.87C305.72,-173.09 309.43,-185.89 303,-195.75 300.94,-198.91 298.5,-201.76 295.79,-204.35"/>
<polygon fill="black" stroke="black" points="293.81,-201.45 288.11,-210.38 298.13,-206.96 293.81,-201.45"/>
</g>
<!-- 14 -->
<g id="node6" class="node">
<title>14</title>
<polygon fill="#e552ff" stroke="#e552ff" points="316,-77.25 274,-77.25 274,-81.25 262,-81.25 262,-41.25 316,-41.25 316,-77.25"/>
<polyline fill="none" stroke="#e552ff" points="262,-77.25 274,-77.25"/>
<text text-anchor="middle" x="289" y="-54.58" font-family="DejaVu Sans Mono" font-size="14.00">next</text>
</g>
<!-- 12&#45;&gt;14 -->
<g id="edge3" class="edge">
<title>12&#45;&gt;14</title>
<path fill="none" stroke="black" stroke-dasharray="5,2" d="M289,-126.25C289,-115.42 289,-101.2 289,-88.73"/>
<polygon fill="black" stroke="black" points="292.5,-88.99 289,-78.99 285.5,-88.99 292.5,-88.99"/>
<text text-anchor="middle" x="309.62" y="-97.2" font-family="DejaVu Sans Mono" font-size="14.00">calls</text>
</g>
<!-- 3 -->
<g id="node7" class="node">
<title>3</title>
<polygon fill="#fffb81" stroke="black" points="525.38,-328.25 418.62,-328.25 418.62,-292.25 525.38,-292.25 525.38,-328.25"/>
<text text-anchor="start" x="426.62" y="-305.57" font-family="DejaVu Sans Mono" font-size="14.00">a, b = 0, 1</text>
</g>
<!-- 4 -->
<g id="node8" class="node">
<title>4</title>
<polygon fill="#ffbe52" stroke="black" points="558.47,-229.75 515.23,-247.75 428.77,-247.75 385.53,-229.75 428.77,-211.75 515.23,-211.75 558.47,-229.75"/>
<text text-anchor="start" x="418.37" y="-225.07" font-family="DejaVu Sans Mono" font-size="14.00">while True:</text>
</g>
<!-- 3&#45;&gt;4 -->
<g id="edge10" class="edge">
<title>3&#45;&gt;4</title>
<path fill="none" stroke="black" d="M472,-291.83C472,-282.27 472,-270.19 472,-259.3"/>
<polygon fill="black" stroke="black" points="475.5,-259.64 472,-249.64 468.5,-259.64 475.5,-259.64"/>
</g>
<!-- 5 -->
<g id="node9" class="node">
<title>5</title>
<polygon fill="#fffb81" stroke="black" points="463.88,-162.5 390.12,-162.5 390.12,-126.5 463.88,-126.5 463.88,-162.5"/>
<text text-anchor="start" x="398.12" y="-139.82" font-family="DejaVu Sans Mono" font-size="14.00">yield a</text>
</g>
<!-- 4&#45;&gt;5 -->
<g id="edge9" class="edge">
<title>4&#45;&gt;5</title>
<path fill="none" stroke="green" d="M455.96,-211.41C452.02,-206.58 448.06,-201.16 445,-195.75 441.12,-188.89 437.83,-181.05 435.17,-173.63"/>
<polygon fill="green" stroke="green" points="438.56,-172.72 432.09,-164.32 431.91,-174.91 438.56,-172.72"/>
<text text-anchor="middle" x="461.5" y="-182.45" font-family="DejaVu Sans Mono" font-size="14.00">True</text>
</g>
<!-- 7 -->
<g id="node10" class="node">
<title>7</title>
<polygon fill="#fffb81" stroke="black" points="539.88,-77.25 400.12,-77.25 400.12,-41.25 539.88,-41.25 539.88,-77.25"/>
<text text-anchor="start" x="408.12" y="-54.58" font-family="DejaVu Sans Mono" font-size="14.00">a, b = b, a + b</text>
</g>
<!-- 5&#45;&gt;7 -->
<g id="edge8" class="edge">
<title>5&#45;&gt;7</title>
<path fill="none" stroke="black" d="M435.91,-126.25C441.68,-115.09 449.31,-100.32 455.89,-87.58"/>
<polygon fill="black" stroke="black" points="458.93,-89.31 460.41,-78.82 452.71,-86.1 458.93,-89.31"/>
</g>
<!-- 7&#45;&gt;4 -->
<g id="edge7" class="edge">
<title>7&#45;&gt;4</title>
<path fill="none" stroke="black" d="M472.64,-77.39C476.25,-103.12 481.83,-153.27 478,-195.75 477.87,-197.19 477.71,-198.65 477.53,-200.13"/>
<polygon fill="black" stroke="black" points="474.09,-199.44 476,-209.87 481.01,-200.53 474.09,-199.44"/>
</g>
<!-- input -->
<g id="node11" class="node">
<title>input</title>
<polygon fill="#afeeee" stroke="black" points="969.88,-247.75 876.21,-247.75 852.12,-211.75 945.79,-211.75 969.88,-247.75"/>
<text text-anchor="middle" x="911" y="-225.07" font-family="DejaVu Sans Mono" font-size="14.00">input</text>
</g>
<!-- call -->
<g id="node16" class="node">
<title>call</title>
<polygon fill="#e552ff" stroke="black" points="938,-162.5 896,-162.5 896,-166.5 884,-166.5 884,-126.5 938,-126.5 938,-162.5"/>
<polyline fill="none" stroke="black" points="884,-162.5 896,-162.5"/>
<text text-anchor="middle" x="911" y="-139.82" font-family="DejaVu Sans Mono" font-size="14.00">call</text>
</g>
<!-- input&#45;&gt;call -->
<!-- default -->
<g id="node12" class="node">
<title>default</title>
<polygon fill="#fffb81" stroke="black" points="803.88,-162.5 730.12,-162.5 730.12,-126.5 803.88,-126.5 803.88,-162.5"/>
<text text-anchor="middle" x="767" y="-139.82" font-family="DejaVu Sans Mono" font-size="14.00">default</text>
</g>
<!-- if -->
<g id="node13" class="node">
<title>if</title>
<polygon fill="#ff6752" stroke="black" points="911,-328.25 878.76,-310.25 911,-292.25 943.24,-310.25 911,-328.25"/>
<text text-anchor="middle" x="911" y="-305.57" font-family="DejaVu Sans Mono" font-size="14.00">if</text>
</g>
<!-- if&#45;&gt;input -->
<!-- for -->
<g id="node14" class="node">
<title>for</title>
<polygon fill="#ffbe52" stroke="black" points="859.01,-310.25 842.5,-328.25 809.5,-328.25 792.99,-310.25 809.5,-292.25 842.5,-292.25 859.01,-310.25"/>
<text text-anchor="middle" x="826" y="-305.57" font-family="DejaVu Sans Mono" font-size="14.00">for</text>
</g>
<!-- return -->
<g id="node17" class="node">
<title>return</title>
<polygon fill="#98fb98" stroke="black" points="834.37,-247.75 727.2,-247.75 699.63,-211.75 806.8,-211.75 834.37,-247.75"/>
<text text-anchor="middle" x="767" y="-225.07" font-family="DejaVu Sans Mono" font-size="14.00">return</text>
</g>
<!-- for&#45;&gt;return -->
<!-- while -->
<g id="node15" class="node">
<title>while</title>
<polygon fill="#ffbe52" stroke="black" points="775.37,-310.25 752.19,-328.25 705.81,-328.25 682.63,-310.25 705.81,-292.25 752.19,-292.25 775.37,-310.25"/>
<text text-anchor="middle" x="729" y="-305.57" font-family="DejaVu Sans Mono" font-size="14.00">while</text>
</g>
<!-- return&#45;&gt;default -->
<!-- try -->
<g id="node18" class="node">
<title>try</title>
<polygon fill="orange" stroke="black" points="624,-328.25 583.57,-310.25 624,-292.25 664.43,-310.25 624,-328.25"/>
<polyline fill="none" stroke="black" points="594.54,-315.13 594.54,-305.37"/>
<polyline fill="none" stroke="black" points="613.04,-297.13 634.96,-297.13"/>
<polyline fill="none" stroke="black" points="653.46,-305.37 653.46,-315.13"/>
<polyline fill="none" stroke="black" points="634.96,-323.37 613.04,-323.37"/>
<text text-anchor="middle" x="624" y="-305.57" font-family="DejaVu Sans Mono" font-size="14.00">try</text>
</g>
<!-- raise -->
<g id="node19" class="node">
<title>raise</title>
<polygon fill="#98fb98" stroke="black" points="681.64,-235.31 632,-247.75 582.36,-235.31 582.41,-215.19 681.59,-215.19 681.64,-235.31"/>
<text text-anchor="middle" x="632" y="-225.07" font-family="DejaVu Sans Mono" font-size="14.00">raise</text>
</g>
<!-- try&#45;&gt;raise -->
</g>
</svg>
