<?xml version="1.0" encoding="UTF-8" standalone="no"?>
<!DOCTYPE svg PUBLIC "-//W3C//DTD SVG 1.1//EN"
 "http://www.w3.org/Graphics/SVG/1.1/DTD/svg11.dtd">
<!-- Generated by graphviz version 9.0.0 (20230911.1827)
 -->
<!-- Title: cluster0functions&#45;15&#45;sqrt Pages: 1 -->
<svg width="1416pt" height="312pt"
 viewBox="0.00 0.00 1415.88 311.88" xmlns="http://www.w3.org/2000/svg" xmlns:xlink="http://www.w3.org/1999/xlink">
<g id="graph0" class="graph" transform="scale(1 1) rotate(0) translate(4 307.88)">
<title>cluster0functions&#45;15&#45;sqrt</title>
<polygon fill="white" stroke="none" points="-4,4 -4,-307.88 1411.88,-307.88 1411.88,4 -4,4"/>
<text text-anchor="middle" x="703.94" y="-7.95" font-family="DejaVu Sans Mono" font-size="14.00">functions&#45;15&#45;sqrt</text>
<g id="clust1" class="cluster">
<title>cluster_1</title>
<polygon fill="purple" stroke="purple" points="64.88,-36.5 64.88,-161 270.88,-161 270.88,-36.5 64.88,-36.5"/>
</g>
<g id="clust2" class="cluster">
<title>cluster0sqare_rt</title>
<polygon fill="none" stroke="black" points="345.88,-33.25 345.88,-295.88 987.88,-295.88 987.88,-33.25 345.88,-33.25"/>
<text text-anchor="middle" x="666.88" y="-278.57" font-family="DejaVu Sans Mono" font-size="14.00">sqare_rt</text>
</g>
<g id="clust3" class="cluster">
<title>cluster_KEY</title>
<polygon fill="none" stroke="black" points="995.88,-36.5 995.88,-292.62 1399.88,-292.62 1399.88,-36.5 995.88,-36.5"/>
<text text-anchor="middle" x="1197.88" y="-275.32" font-family="DejaVu Sans Mono" font-size="14.00">KEY</text>
</g>
<!-- 1 -->
<g id="node1" class="node">
<title>1</title>
<polygon fill="#fffb81" stroke="black" points="337.75,-288.5 0,-288.5 0,-194.25 337.75,-194.25 337.75,-288.5"/>
<text text-anchor="start" x="8" y="-271.2" font-family="DejaVu Sans Mono" font-size="14.00">import math</text>
<text text-anchor="start" x="8" y="-253.95" font-family="DejaVu Sans Mono" font-size="14.00">def sqare_rt(my_val: float) &#45;&gt;float:...</text>
<text text-anchor="start" x="8" y="-236.7" font-family="DejaVu Sans Mono" font-size="14.00">twenty: float = 20.0</text>
<text text-anchor="start" x="8" y="-219.45" font-family="DejaVu Sans Mono" font-size="14.00">print(sqare_rt(20.0))</text>
<text text-anchor="start" x="8" y="-202.2" font-family="DejaVu Sans Mono" font-size="14.00">print(math.sqrt(20.0))</text>
</g>
<!-- 9 -->
<g id="node2" class="node">
<title>9</title>
<polygon fill="#e552ff" stroke="#e552ff" points="153.5,-153 108.25,-153 108.25,-157 96.25,-157 96.25,-117 153.5,-117 153.5,-153"/>
<polyline fill="none" stroke="#e552ff" points="96.25,-153 108.25,-153"/>
<text text-anchor="middle" x="124.88" y="-130.32" font-family="DejaVu Sans Mono" font-size="14.00">print</text>
</g>
<!-- 1&#45;&gt;9 -->
<g id="edge1" class="edge">
<title>1&#45;&gt;9</title>
<path fill="none" stroke="black" stroke-dasharray="5,2" d="M146.88,-193.83C145.76,-191.28 144.67,-188.74 143.62,-186.25 140.65,-179.15 137.64,-171.39 134.93,-164.15"/>
<polygon fill="black" stroke="black" points="138.22,-162.94 131.48,-154.76 131.65,-165.36 138.22,-162.94"/>
<text text-anchor="middle" x="164.5" y="-172.95" font-family="DejaVu Sans Mono" font-size="14.00">calls</text>
</g>
<!-- 11 -->
<g id="node3" class="node">
<title>11</title>
<polygon fill="#e552ff" stroke="#e552ff" points="242.5,-153 197.25,-153 197.25,-157 185.25,-157 185.25,-117 242.5,-117 242.5,-153"/>
<polyline fill="none" stroke="#e552ff" points="185.25,-153 197.25,-153"/>
<text text-anchor="middle" x="213.88" y="-130.32" font-family="DejaVu Sans Mono" font-size="14.00">print</text>
</g>
<!-- 1&#45;&gt;11 -->
<g id="edge2" class="edge">
<title>1&#45;&gt;11</title>
<path fill="none" stroke="black" stroke-dasharray="5,2" d="M188.87,-193.99C193.31,-183.69 197.88,-173.09 201.88,-163.81"/>
<polygon fill="black" stroke="black" points="205.09,-165.22 205.83,-154.66 198.66,-162.45 205.09,-165.22"/>
<text text-anchor="middle" x="220.5" y="-172.95" font-family="DejaVu Sans Mono" font-size="14.00">calls</text>
</g>
<!-- 10 -->
<g id="node4" class="node">
<title>10</title>
<polygon fill="#e552ff" stroke="#e552ff" points="154.88,-80.5 84.88,-80.5 84.88,-84.5 72.88,-84.5 72.88,-44.5 154.88,-44.5 154.88,-80.5"/>
<polyline fill="none" stroke="#e552ff" points="72.88,-80.5 84.88,-80.5"/>
<text text-anchor="middle" x="113.88" y="-57.83" font-family="DejaVu Sans Mono" font-size="14.00">sqare_rt</text>
</g>
<!-- 9&#45;&gt;10 -->
<g id="edge3" class="edge">
<title>9&#45;&gt;10</title>
<path fill="none" stroke="black" d="M122.16,-116.57C121,-109.15 119.61,-100.29 118.31,-91.95"/>
<polygon fill="black" stroke="black" points="121.8,-91.56 116.8,-82.22 114.88,-92.64 121.8,-91.56"/>
</g>
<!-- 12 -->
<g id="node5" class="node">
<title>12</title>
<polygon fill="#e552ff" stroke="#e552ff" points="263,-80.5 184.75,-80.5 184.75,-84.5 172.75,-84.5 172.75,-44.5 263,-44.5 263,-80.5"/>
<polyline fill="none" stroke="#e552ff" points="172.75,-80.5 184.75,-80.5"/>
<text text-anchor="middle" x="217.88" y="-57.83" font-family="DejaVu Sans Mono" font-size="14.00">math.sqrt</text>
</g>
<!-- 11&#45;&gt;12 -->
<g id="edge4" class="edge">
<title>11&#45;&gt;12</title>
<path fill="none" stroke="black" d="M214.86,-116.57C215.29,-109.15 215.79,-100.29 216.26,-91.95"/>
<polygon fill="black" stroke="black" points="219.74,-92.42 216.81,-82.24 212.75,-92.02 219.74,-92.42"/>
</g>
<!-- 3 -->
<g id="node6" class="node">
<title>3</title>
<polygon fill="#fffb81" stroke="black" points="712,-262.62 555.75,-262.62 555.75,-220.12 712,-220.12 712,-262.62"/>
<text text-anchor="start" x="563.75" y="-245.32" font-family="DejaVu Sans Mono" font-size="14.00">diff: float = 1.0</text>
<text text-anchor="start" x="563.75" y="-228.07" font-family="DejaVu Sans Mono" font-size="14.00">root: float = 1.0</text>
</g>
<!-- 4 -->
<g id="node7" class="node">
<title>4</title>
<polygon fill="#ffbe52" stroke="black" points="900.77,-135 767.32,-153 500.43,-153 366.98,-135 500.43,-117 767.32,-117 900.77,-135"/>
<text text-anchor="start" x="451.64" y="-130.32" font-family="DejaVu Sans Mono" font-size="14.00">while diff &gt; 0.0001 or diff &lt; &#45;0.0001:</text>
</g>
<!-- 3&#45;&gt;4 -->
<g id="edge8" class="edge">
<title>3&#45;&gt;4</title>
<path fill="none" stroke="black" d="M633.88,-219.75C633.88,-204.09 633.88,-182.36 633.88,-164.95"/>
<polygon fill="black" stroke="black" points="637.38,-164.97 633.88,-154.97 630.38,-164.97 637.38,-164.97"/>
</g>
<!-- 5 -->
<g id="node8" class="node">
<title>5</title>
<polygon fill="#fffb81" stroke="black" points="658.25,-83.75 353.5,-83.75 353.5,-41.25 658.25,-41.25 658.25,-83.75"/>
<text text-anchor="start" x="361.5" y="-66.45" font-family="DejaVu Sans Mono" font-size="14.00">root = (root + my_val / root) / 2.0</text>
<text text-anchor="start" x="361.5" y="-49.2" font-family="DejaVu Sans Mono" font-size="14.00">diff = root * root &#45; my_val</text>
</g>
<!-- 4&#45;&gt;5 -->
<g id="edge6" class="edge">
<title>4&#45;&gt;5</title>
<path fill="none" stroke="green" d="M440.69,-124.62C404.23,-120.96 375.42,-115.91 369.12,-109 363.73,-103.07 361.82,-97.91 362.63,-93.42"/>
<polygon fill="green" stroke="green" points="365.39,-95.58 368.18,-85.36 359.63,-91.61 365.39,-95.58"/>
<text text-anchor="middle" x="496.75" y="-95.7" font-family="DejaVu Sans Mono" font-size="14.00">diff &gt; 0.0001 or diff &lt; &#45;0.0001</text>
</g>
<!-- 6 -->
<g id="node9" class="node">
<title>6</title>
<polygon fill="#98fb98" stroke="black" points="895.67,-80.5 721.01,-80.5 676.08,-44.5 850.74,-44.5 895.67,-80.5"/>
<text text-anchor="start" x="718.39" y="-57.83" font-family="DejaVu Sans Mono" font-size="14.00">return root</text>
</g>
<!-- 4&#45;&gt;6 -->
<g id="edge7" class="edge">
<title>4&#45;&gt;6</title>
<path fill="none" stroke="red" d="M644.7,-116.89C651.09,-108.13 659.91,-98.02 670.12,-91.75 679.71,-85.87 690.45,-81.21 701.41,-77.52"/>
<polygon fill="red" stroke="red" points="702.44,-80.86 710.97,-74.59 700.38,-74.17 702.44,-80.86"/>
<text text-anchor="middle" x="830.75" y="-95.7" font-family="DejaVu Sans Mono" font-size="14.00">(not (diff &gt; 0.0001 or diff &lt; &#45;0.0001))</text>
</g>
<!-- 5&#45;&gt;4 -->
<g id="edge5" class="edge">
<title>5&#45;&gt;4</title>
<path fill="none" stroke="black" d="M617.33,-84.13C622.39,-86.44 626.39,-88.98 628.88,-91.75 632.35,-95.63 634.3,-100.57 635.28,-105.71"/>
<polygon fill="black" stroke="black" points="631.77,-105.69 636.03,-115.39 638.75,-105.15 631.77,-105.69"/>
</g>
<!-- input -->
<g id="node10" class="node">
<title>input</title>
<polygon fill="#afeeee" stroke="black" points="1391.76,-153 1298.09,-153 1273.99,-117 1367.66,-117 1391.76,-153"/>
<text text-anchor="middle" x="1332.88" y="-130.32" font-family="DejaVu Sans Mono" font-size="14.00">input</text>
</g>
<!-- call -->
<g id="node15" class="node">
<title>call</title>
<polygon fill="#e552ff" stroke="black" points="1359.88,-80.5 1317.88,-80.5 1317.88,-84.5 1305.88,-84.5 1305.88,-44.5 1359.88,-44.5 1359.88,-80.5"/>
<polyline fill="none" stroke="black" points="1305.88,-80.5 1317.88,-80.5"/>
<text text-anchor="middle" x="1332.88" y="-57.83" font-family="DejaVu Sans Mono" font-size="14.00">call</text>
</g>
<!-- input&#45;&gt;call -->
<!-- default -->
<g id="node11" class="node">
<title>default</title>
<polygon fill="#fffb81" stroke="black" points="1225.75,-80.5 1152,-80.5 1152,-44.5 1225.75,-44.5 1225.75,-80.5"/>
<text text-anchor="middle" x="1188.88" y="-57.83" font-family="DejaVu Sans Mono" font-size="14.00">default</text>
</g>
<!-- if -->
<g id="node12" class="node">
<title>if</title>
<polygon fill="#ff6752" stroke="black" points="1332.88,-259.38 1300.63,-241.38 1332.88,-223.38 1365.12,-241.38 1332.88,-259.38"/>
<text text-anchor="middle" x="1332.88" y="-236.7" font-family="DejaVu Sans Mono" font-size="14.00">if</text>
</g>
<!-- if&#45;&gt;input -->
<!-- for -->
<g id="node13" class="node">
<title>for</title>
<polygon fill="#ffbe52" stroke="black" points="1280.88,-241.38 1264.38,-259.37 1231.37,-259.37 1214.87,-241.38 1231.37,-223.38 1264.38,-223.38 1280.88,-241.38"/>
<text text-anchor="middle" x="1247.88" y="-236.7" font-family="DejaVu Sans Mono" font-size="14.00">for</text>
</g>
<!-- return -->
<g id="node16" class="node">
<title>return</title>
<polygon fill="#98fb98" stroke="black" points="1256.24,-153 1149.08,-153 1121.51,-117 1228.67,-117 1256.24,-153"/>
<text text-anchor="middle" x="1188.88" y="-130.32" font-family="DejaVu Sans Mono" font-size="14.00">return</text>
</g>
<!-- for&#45;&gt;return -->
<!-- while -->
<g id="node14" class="node">
<title>while</title>
<polygon fill="#ffbe52" stroke="black" points="1197.25,-241.38 1174.06,-259.37 1127.69,-259.37 1104.5,-241.38 1127.69,-223.38 1174.06,-223.38 1197.25,-241.38"/>
<text text-anchor="middle" x="1150.88" y="-236.7" font-family="DejaVu Sans Mono" font-size="14.00">while</text>
</g>
<!-- return&#45;&gt;default -->
<!-- try -->
<g id="node17" class="node">
<title>try</title>
<polygon fill="orange" stroke="black" points="1045.88,-259.38 1005.45,-241.38 1045.88,-223.38 1086.3,-241.38 1045.88,-259.38"/>
<polyline fill="none" stroke="black" points="1016.41,-246.26 1016.41,-236.49"/>
<polyline fill="none" stroke="black" points="1034.91,-228.26 1056.84,-228.26"/>
<polyline fill="none" stroke="black" points="1075.34,-236.49 1075.34,-246.26"/>
<polyline fill="none" stroke="black" points="1056.84,-254.49 1034.91,-254.49"/>
<text text-anchor="middle" x="1045.88" y="-236.7" font-family="DejaVu Sans Mono" font-size="14.00">try</text>
</g>
<!-- raise -->
<g id="node18" class="node">
<title>raise</title>
<polygon fill="#98fb98" stroke="black" points="1103.52,-140.56 1053.88,-153 1004.23,-140.56 1004.28,-120.44 1103.47,-120.44 1103.52,-140.56"/>
<text text-anchor="middle" x="1053.88" y="-130.32" font-family="DejaVu Sans Mono" font-size="14.00">raise</text>
</g>
<!-- try&#45;&gt;raise -->
</g>
</svg>
