<?xml version="1.0" encoding="UTF-8" standalone="no"?>
<!DOCTYPE svg PUBLIC "-//W3C//DTD SVG 1.1//EN"
 "http://www.w3.org/Graphics/SVG/1.1/DTD/svg11.dtd">
<!-- Generated by graphviz version 9.0.0 (20230911.1827)
 -->
<!-- Title: cluster0havacookie Pages: 1 -->
<svg width="1073pt" height="566pt"
 viewBox="0.00 0.00 1073.00 565.75" xmlns="http://www.w3.org/2000/svg" xmlns:xlink="http://www.w3.org/1999/xlink">
<g id="graph0" class="graph" transform="scale(1 1) rotate(0) translate(4 561.75)">
<title>cluster0havacookie</title>
<polygon fill="white" stroke="none" points="-4,4 -4,-561.75 1069,-561.75 1069,4 -4,4"/>
<text text-anchor="middle" x="532.5" y="-7.95" font-family="DejaVu Sans Mono" font-size="14.00">havacookie</text>
<g id="clust1" class="cluster">
<title>cluster_1</title>
<polygon fill="purple" stroke="purple" points="268,-342.25 268,-394.25 342,-394.25 342,-342.25 268,-342.25"/>
</g>
<g id="clust2" class="cluster">
<title>cluster_4</title>
<polygon fill="purple" stroke="purple" points="8,-187.75 8,-239.75 82,-239.75 82,-187.75 8,-187.75"/>
</g>
<g id="clust3" class="cluster">
<title>cluster_10</title>
<polygon fill="purple" stroke="purple" points="120,-33.25 120,-85.25 194,-85.25 194,-33.25 120,-33.25"/>
</g>
<g id="clust4" class="cluster">
<title>cluster_12</title>
<polygon fill="purple" stroke="purple" points="319,-33.25 319,-85.25 393,-85.25 393,-33.25 319,-33.25"/>
</g>
<g id="clust5" class="cluster">
<title>cluster_6</title>
<polygon fill="purple" stroke="purple" points="467,-187.75 467,-239.75 541,-239.75 541,-187.75 467,-187.75"/>
</g>
<g id="clust6" class="cluster">
<title>cluster_KEY</title>
<polygon fill="none" stroke="black" points="653,-342.25 653,-549.75 1057,-549.75 1057,-342.25 653,-342.25"/>
<text text-anchor="middle" x="855" y="-532.45" font-family="DejaVu Sans Mono" font-size="14.00">KEY</text>
</g>
<!-- 1 -->
<g id="node1" class="node">
<title>1</title>
<polygon fill="#fffb81" stroke="black" points="574,-463.5 228,-463.5 228,-427.5 574,-427.5 574,-463.5"/>
<text text-anchor="start" x="236" y="-440.82" font-family="DejaVu Sans Mono" font-size="14.00">yesno = input(&#39;Do you like chocolat...&#39;)</text>
</g>
<!-- 2 -->
<g id="node2" class="node">
<title>2</title>
<polygon fill="#e552ff" stroke="#e552ff" points="333.62,-386.25 288.38,-386.25 288.38,-390.25 276.38,-390.25 276.38,-350.25 333.62,-350.25 333.62,-386.25"/>
<polyline fill="none" stroke="#e552ff" points="276.38,-386.25 288.38,-386.25"/>
<text text-anchor="middle" x="305" y="-363.57" font-family="DejaVu Sans Mono" font-size="14.00">input</text>
</g>
<!-- 1&#45;&gt;2 -->
<g id="edge1" class="edge">
<title>1&#45;&gt;2</title>
<path fill="none" stroke="black" stroke-dasharray="5,2" d="M378.73,-427.05C366.01,-417.07 349.87,-404.42 335.93,-393.49"/>
<polygon fill="black" stroke="black" points="338.37,-390.96 328.34,-387.54 334.05,-396.47 338.37,-390.96"/>
<text text-anchor="middle" x="387.62" y="-406.2" font-family="DejaVu Sans Mono" font-size="14.00">calls</text>
</g>
<!-- 3 -->
<g id="node4" class="node">
<title>3</title>
<polygon fill="#ff6752" stroke="black" points="498,-386.25 351.18,-368.25 498,-350.25 644.82,-368.25 498,-386.25"/>
<text text-anchor="start" x="401.35" y="-363.57" font-family="DejaVu Sans Mono" font-size="14.00">if yesno == &#39;y&#39;:</text>
</g>
<!-- 1&#45;&gt;3 -->
<g id="edge13" class="edge">
<title>1&#45;&gt;3</title>
<path fill="none" stroke="black" d="M423.5,-427.05C437.31,-416.33 455.11,-402.52 469.86,-391.08"/>
<polygon fill="black" stroke="black" points="471.62,-394.14 477.38,-385.25 467.33,-388.61 471.62,-394.14"/>
</g>
<!-- 1_input -->
<g id="node3" class="node">
<title>1_input</title>
<polygon fill="#afeeee" stroke="black" points="459.88,-516.5 366.21,-516.5 342.12,-480.5 435.79,-480.5 459.88,-516.5"/>
<text text-anchor="middle" x="401" y="-493.82" font-family="DejaVu Sans Mono" font-size="14.00">input</text>
</g>
<!-- 1_input&#45;&gt;1 -->
<g id="edge2" class="edge">
<title>1_input&#45;&gt;1</title>
<path fill="none" stroke="black" d="M401,-480.23C401,-478.57 401,-476.86 401,-475.12"/>
<polygon fill="black" stroke="black" points="404.5,-475.26 401,-465.26 397.5,-475.26 404.5,-475.26"/>
</g>
<!-- 4 -->
<g id="node5" class="node">
<title>4</title>
<polygon fill="#fffb81" stroke="black" points="379.38,-309 8.62,-309 8.62,-273 379.38,-273 379.38,-309"/>
<text text-anchor="start" x="16.62" y="-286.32" font-family="DejaVu Sans Mono" font-size="14.00">choctype = input(&#39;Do you like dark cho...&#39;)</text>
</g>
<!-- 3&#45;&gt;4 -->
<g id="edge10" class="edge">
<title>3&#45;&gt;4</title>
<path fill="none" stroke="green" d="M450.83,-355.57C404.08,-344 331.54,-326.05 275.46,-312.16"/>
<polygon fill="green" stroke="green" points="276.49,-308.81 265.94,-309.81 274.81,-315.61 276.49,-308.81"/>
<text text-anchor="middle" x="413.5" y="-320.95" font-family="DejaVu Sans Mono" font-size="14.00">yesno == &#39;y&#39;</text>
</g>
<!-- 6 -->
<g id="node13" class="node">
<title>6</title>
<polygon fill="#fffb81" stroke="black" points="611,-309 397,-309 397,-273 611,-273 611,-309"/>
<text text-anchor="start" x="405" y="-286.32" font-family="DejaVu Sans Mono" font-size="14.00">print(&quot;You&#39;re a smarty&quot;)</text>
</g>
<!-- 3&#45;&gt;6 -->
<g id="edge12" class="edge">
<title>3&#45;&gt;6</title>
<path fill="none" stroke="red" d="M499.36,-350.17C500.06,-341.39 500.94,-330.44 501.73,-320.42"/>
<polygon fill="red" stroke="red" points="505.2,-321.02 502.5,-310.78 498.22,-320.47 505.2,-321.02"/>
<text text-anchor="middle" x="558.75" y="-320.95" font-family="DejaVu Sans Mono" font-size="14.00">(yesno != &#39;y&#39;)</text>
</g>
<!-- 8 -->
<g id="node6" class="node">
<title>8</title>
<polygon fill="#e552ff" stroke="#e552ff" points="73.62,-231.75 28.38,-231.75 28.38,-235.75 16.37,-235.75 16.37,-195.75 73.62,-195.75 73.62,-231.75"/>
<polyline fill="none" stroke="#e552ff" points="16.37,-231.75 28.38,-231.75"/>
<text text-anchor="middle" x="45" y="-209.07" font-family="DejaVu Sans Mono" font-size="14.00">input</text>
</g>
<!-- 4&#45;&gt;8 -->
<g id="edge3" class="edge">
<title>4&#45;&gt;8</title>
<path fill="none" stroke="black" stroke-dasharray="5,2" d="M151.33,-272.55C130.37,-263.51 104.96,-251.84 83,-239.75 81.93,-239.16 80.85,-238.55 79.76,-237.92"/>
<polygon fill="black" stroke="black" points="81.66,-234.98 71.3,-232.78 78.02,-240.96 81.66,-234.98"/>
<text text-anchor="middle" x="154.62" y="-251.7" font-family="DejaVu Sans Mono" font-size="14.00">calls</text>
</g>
<!-- 9 -->
<g id="node8" class="node">
<title>9</title>
<polygon fill="#ff6752" stroke="black" points="263,-231.75 91.62,-213.75 263,-195.75 434.38,-213.75 263,-231.75"/>
<text text-anchor="start" x="148.85" y="-209.07" font-family="DejaVu Sans Mono" font-size="14.00">if choctype == &#39;y&#39;:</text>
</g>
<!-- 4&#45;&gt;9 -->
<g id="edge9" class="edge">
<title>4&#45;&gt;9</title>
<path fill="none" stroke="black" d="M210,-272.55C219.18,-262.54 230.83,-249.84 240.87,-238.89"/>
<polygon fill="black" stroke="black" points="243.29,-241.42 247.47,-231.69 238.13,-236.69 243.29,-241.42"/>
</g>
<!-- 4_input -->
<g id="node7" class="node">
<title>4_input</title>
<polygon fill="#afeeee" stroke="black" points="252.88,-386.25 159.21,-386.25 135.12,-350.25 228.79,-350.25 252.88,-386.25"/>
<text text-anchor="middle" x="194" y="-363.57" font-family="DejaVu Sans Mono" font-size="14.00">input</text>
</g>
<!-- 4_input&#45;&gt;4 -->
<g id="edge4" class="edge">
<title>4_input&#45;&gt;4</title>
<path fill="none" stroke="black" d="M194,-349.8C194,-341.15 194,-330.5 194,-320.69"/>
<polygon fill="black" stroke="black" points="197.5,-320.87 194,-310.87 190.5,-320.87 197.5,-320.87"/>
</g>
<!-- 10 -->
<g id="node9" class="node">
<title>10</title>
<polygon fill="#fffb81" stroke="black" points="264,-154.5 50,-154.5 50,-118.5 264,-118.5 264,-154.5"/>
<text text-anchor="start" x="58" y="-131.82" font-family="DejaVu Sans Mono" font-size="14.00">print(&quot;Here&#39;s a cookie&quot;)</text>
</g>
<!-- 9&#45;&gt;10 -->
<g id="edge6" class="edge">
<title>9&#45;&gt;10</title>
<path fill="none" stroke="green" d="M218.45,-199.96C206.16,-195 193.42,-188.38 183.25,-179.75 178.31,-175.56 174.01,-170.2 170.4,-164.71"/>
<polygon fill="green" stroke="green" points="173.51,-163.09 165.43,-156.23 167.47,-166.63 173.51,-163.09"/>
<text text-anchor="middle" x="244.88" y="-166.45" font-family="DejaVu Sans Mono" font-size="14.00">choctype == &#39;y&#39;</text>
</g>
<!-- 12 -->
<g id="node11" class="node">
<title>12</title>
<polygon fill="#fffb81" stroke="black" points="430,-154.5 282,-154.5 282,-118.5 430,-118.5 430,-154.5"/>
<text text-anchor="start" x="290" y="-131.82" font-family="DejaVu Sans Mono" font-size="14.00">print(&#39;Too bad&#39;)</text>
</g>
<!-- 9&#45;&gt;12 -->
<g id="edge8" class="edge">
<title>9&#45;&gt;12</title>
<path fill="none" stroke="red" d="M285.98,-197.99C294.08,-192.52 303.12,-186.09 311,-179.75 317.66,-174.39 324.53,-168.27 330.84,-162.38"/>
<polygon fill="red" stroke="red" points="333.1,-165.06 337.93,-155.63 328.28,-159.99 333.1,-165.06"/>
<text text-anchor="middle" x="400.12" y="-166.45" font-family="DejaVu Sans Mono" font-size="14.00">(choctype != &#39;y&#39;)</text>
</g>
<!-- 14 -->
<g id="node10" class="node">
<title>14</title>
<polygon fill="#e552ff" stroke="#e552ff" points="185.62,-77.25 140.38,-77.25 140.38,-81.25 128.38,-81.25 128.38,-41.25 185.62,-41.25 185.62,-77.25"/>
<polyline fill="none" stroke="#e552ff" points="128.38,-77.25 140.38,-77.25"/>
<text text-anchor="middle" x="157" y="-54.58" font-family="DejaVu Sans Mono" font-size="14.00">print</text>
</g>
<!-- 10&#45;&gt;14 -->
<g id="edge5" class="edge">
<title>10&#45;&gt;14</title>
<path fill="none" stroke="black" stroke-dasharray="5,2" d="M157,-118.05C157,-109.4 157,-98.75 157,-88.94"/>
<polygon fill="black" stroke="black" points="160.5,-89.12 157,-79.12 153.5,-89.12 160.5,-89.12"/>
<text text-anchor="middle" x="177.62" y="-97.2" font-family="DejaVu Sans Mono" font-size="14.00">calls</text>
</g>
<!-- 13 -->
<g id="node12" class="node">
<title>13</title>
<polygon fill="#e552ff" stroke="#e552ff" points="384.62,-77.25 339.38,-77.25 339.38,-81.25 327.38,-81.25 327.38,-41.25 384.62,-41.25 384.62,-77.25"/>
<polyline fill="none" stroke="#e552ff" points="327.38,-77.25 339.38,-77.25"/>
<text text-anchor="middle" x="356" y="-54.58" font-family="DejaVu Sans Mono" font-size="14.00">print</text>
</g>
<!-- 12&#45;&gt;13 -->
<g id="edge7" class="edge">
<title>12&#45;&gt;13</title>
<path fill="none" stroke="black" stroke-dasharray="5,2" d="M356,-118.05C356,-109.4 356,-98.75 356,-88.94"/>
<polygon fill="black" stroke="black" points="359.5,-89.12 356,-79.12 352.5,-89.12 359.5,-89.12"/>
<text text-anchor="middle" x="376.62" y="-97.2" font-family="DejaVu Sans Mono" font-size="14.00">calls</text>
</g>
<!-- 7 -->
<g id="node14" class="node">
<title>7</title>
<polygon fill="#e552ff" stroke="#e552ff" points="532.62,-231.75 487.38,-231.75 487.38,-235.75 475.38,-235.75 475.38,-195.75 532.62,-195.75 532.62,-231.75"/>
<polyline fill="none" stroke="#e552ff" points="475.38,-231.75 487.38,-231.75"/>
<text text-anchor="middle" x="504" y="-209.07" font-family="DejaVu Sans Mono" font-size="14.00">print</text>
</g>
<!-- 6&#45;&gt;7 -->
<g id="edge11" class="edge">
<title>6&#45;&gt;7</title>
<path fill="none" stroke="black" stroke-dasharray="5,2" d="M504,-272.55C504,-263.9 504,-253.25 504,-243.44"/>
<polygon fill="black" stroke="black" points="507.5,-243.62 504,-233.62 500.5,-243.62 507.5,-243.62"/>
<text text-anchor="middle" x="524.62" y="-251.7" font-family="DejaVu Sans Mono" font-size="14.00">calls</text>
</g>
<!-- input -->
<g id="node15" class="node">
<title>input</title>
<polygon fill="#afeeee" stroke="black" points="1048.88,-463.5 955.21,-463.5 931.12,-427.5 1024.79,-427.5 1048.88,-463.5"/>
<text text-anchor="middle" x="990" y="-440.82" font-family="DejaVu Sans Mono" font-size="14.00">input</text>
</g>
<!-- call -->
<g id="node20" class="node">
<title>call</title>
<polygon fill="#e552ff" stroke="black" points="1017,-386.25 975,-386.25 975,-390.25 963,-390.25 963,-350.25 1017,-350.25 1017,-386.25"/>
<polyline fill="none" stroke="black" points="963,-386.25 975,-386.25"/>
<text text-anchor="middle" x="990" y="-363.57" font-family="DejaVu Sans Mono" font-size="14.00">call</text>
</g>
<!-- input&#45;&gt;call -->
<!-- default -->
<g id="node16" class="node">
<title>default</title>
<polygon fill="#fffb81" stroke="black" points="882.88,-386.25 809.12,-386.25 809.12,-350.25 882.88,-350.25 882.88,-386.25"/>
<text text-anchor="middle" x="846" y="-363.57" font-family="DejaVu Sans Mono" font-size="14.00">default</text>
</g>
<!-- if -->
<g id="node17" class="node">
<title>if</title>
<polygon fill="#ff6752" stroke="black" points="990,-516.5 957.76,-498.5 990,-480.5 1022.24,-498.5 990,-516.5"/>
<text text-anchor="middle" x="990" y="-493.82" font-family="DejaVu Sans Mono" font-size="14.00">if</text>
</g>
<!-- if&#45;&gt;input -->
<!-- for -->
<g id="node18" class="node">
<title>for</title>
<polygon fill="#ffbe52" stroke="black" points="938.01,-498.5 921.5,-516.5 888.5,-516.5 871.99,-498.5 888.5,-480.5 921.5,-480.5 938.01,-498.5"/>
<text text-anchor="middle" x="905" y="-493.82" font-family="DejaVu Sans Mono" font-size="14.00">for</text>
</g>
<!-- return -->
<g id="node21" class="node">
<title>return</title>
<polygon fill="#98fb98" stroke="black" points="913.37,-463.5 806.2,-463.5 778.63,-427.5 885.8,-427.5 913.37,-463.5"/>
<text text-anchor="middle" x="846" y="-440.82" font-family="DejaVu Sans Mono" font-size="14.00">return</text>
</g>
<!-- for&#45;&gt;return -->
<!-- while -->
<g id="node19" class="node">
<title>while</title>
<polygon fill="#ffbe52" stroke="black" points="854.37,-498.5 831.19,-516.5 784.81,-516.5 761.63,-498.5 784.81,-480.5 831.19,-480.5 854.37,-498.5"/>
<text text-anchor="middle" x="808" y="-493.82" font-family="DejaVu Sans Mono" font-size="14.00">while</text>
</g>
<!-- return&#45;&gt;default -->
<!-- try -->
<g id="node22" class="node">
<title>try</title>
<polygon fill="orange" stroke="black" points="703,-516.5 662.57,-498.5 703,-480.5 743.43,-498.5 703,-516.5"/>
<polyline fill="none" stroke="black" points="673.54,-503.38 673.54,-493.62"/>
<polyline fill="none" stroke="black" points="692.04,-485.38 713.96,-485.38"/>
<polyline fill="none" stroke="black" points="732.46,-493.62 732.46,-503.38"/>
<polyline fill="none" stroke="black" points="713.96,-511.62 692.04,-511.62"/>
<text text-anchor="middle" x="703" y="-493.82" font-family="DejaVu Sans Mono" font-size="14.00">try</text>
</g>
<!-- raise -->
<g id="node23" class="node">
<title>raise</title>
<polygon fill="#98fb98" stroke="black" points="760.64,-451.06 711,-463.5 661.36,-451.06 661.41,-430.94 760.59,-430.94 760.64,-451.06"/>
<text text-anchor="middle" x="711" y="-440.82" font-family="DejaVu Sans Mono" font-size="14.00">raise</text>
</g>
<!-- try&#45;&gt;raise -->
</g>
</svg>
