<?xml version="1.0" encoding="UTF-8" standalone="no"?>
<!DOCTYPE svg PUBLIC "-//W3C//DTD SVG 1.1//EN"
 "http://www.w3.org/Graphics/SVG/1.1/DTD/svg11.dtd">
<!-- Generated by graphviz version 9.0.0 (20230911.1827)
 -->
<!-- Title: cluster0inline&#45;lambda&#45;01 Pages: 1 -->
<svg width="997pt" height="273pt"
 viewBox="0.00 0.00 997.38 272.75" xmlns="http://www.w3.org/2000/svg" xmlns:xlink="http://www.w3.org/1999/xlink">
<g id="graph0" class="graph" transform="scale(1 1) rotate(0) translate(4 268.75)">
<title>cluster0inline&#45;lambda&#45;01</title>
<polygon fill="white" stroke="none" points="-4,4 -4,-268.75 993.38,-268.75 993.38,4 -4,4"/>
<text text-anchor="middle" x="494.69" y="-7.95" font-family="DejaVu Sans Mono" font-size="14.00">inline&#45;lambda&#45;01</text>
<g id="clust1" class="cluster">
<title>cluster_1</title>
<polygon fill="purple" stroke="purple" points="84.38,-94.25 84.38,-146.25 154.38,-146.25 154.38,-94.25 84.38,-94.25"/>
</g>
<g id="clust2" class="cluster">
<title>cluster0add</title>
<polygon fill="none" stroke="black" points="249.38,-179.5 249.38,-256.75 569.38,-256.75 569.38,-179.5 249.38,-179.5"/>
<text text-anchor="middle" x="409.38" y="-239.45" font-family="DejaVu Sans Mono" font-size="14.00">add</text>
</g>
<g id="clust3" class="cluster">
<title>cluster_KEY</title>
<polygon fill="none" stroke="black" points="577.38,-33.25 577.38,-256.75 981.38,-256.75 981.38,-33.25 577.38,-33.25"/>
<text text-anchor="middle" x="779.38" y="-239.45" font-family="DejaVu Sans Mono" font-size="14.00">KEY</text>
</g>
<!-- 1 -->
<g id="node1" class="node">
<title>1</title>
<polygon fill="#fffb81" stroke="black" points="238.75,-226.75 0,-226.75 0,-184.25 238.75,-184.25 238.75,-226.75"/>
<text text-anchor="start" x="8" y="-209.45" font-family="DejaVu Sans Mono" font-size="14.00">def add(x, y):...</text>
<text text-anchor="start" x="8" y="-192.2" font-family="DejaVu Sans Mono" font-size="14.00">add(lambda : 2, lambda : 2)</text>
</g>
<!-- 6 -->
<g id="node2" class="node">
<title>6</title>
<polygon fill="#e552ff" stroke="#e552ff" points="146.38,-138.25 104.38,-138.25 104.38,-142.25 92.38,-142.25 92.38,-102.25 146.38,-102.25 146.38,-138.25"/>
<polyline fill="none" stroke="#e552ff" points="92.38,-138.25 104.38,-138.25"/>
<text text-anchor="middle" x="119.38" y="-115.58" font-family="DejaVu Sans Mono" font-size="14.00">add</text>
</g>
<!-- 1&#45;&gt;6 -->
<g id="edge1" class="edge">
<title>1&#45;&gt;6</title>
<path fill="none" stroke="black" stroke-dasharray="5,2" d="M119.38,-183.92C119.38,-173.67 119.38,-161.1 119.38,-149.92"/>
<polygon fill="black" stroke="black" points="122.88,-150.02 119.38,-140.02 115.88,-150.02 122.88,-150.02"/>
<text text-anchor="middle" x="140" y="-158.2" font-family="DejaVu Sans Mono" font-size="14.00">calls</text>
</g>
<!-- 3 -->
<g id="node3" class="node">
<title>3</title>
<polygon fill="#98fb98" stroke="black" points="561.59,-223.5 319.45,-223.5 257.16,-187.5 499.3,-187.5 561.59,-223.5"/>
<text text-anchor="start" x="312.72" y="-200.82" font-family="DejaVu Sans Mono" font-size="14.00">return x() + y()</text>
</g>
<!-- input -->
<g id="node4" class="node">
<title>input</title>
<polygon fill="#afeeee" stroke="black" points="973.26,-138.25 879.59,-138.25 855.49,-102.25 949.16,-102.25 973.26,-138.25"/>
<text text-anchor="middle" x="914.38" y="-115.58" font-family="DejaVu Sans Mono" font-size="14.00">input</text>
</g>
<!-- call -->
<g id="node9" class="node">
<title>call</title>
<polygon fill="#e552ff" stroke="black" points="941.38,-77.25 899.38,-77.25 899.38,-81.25 887.38,-81.25 887.38,-41.25 941.38,-41.25 941.38,-77.25"/>
<polyline fill="none" stroke="black" points="887.38,-77.25 899.38,-77.25"/>
<text text-anchor="middle" x="914.38" y="-54.58" font-family="DejaVu Sans Mono" font-size="14.00">call</text>
</g>
<!-- input&#45;&gt;call -->
<!-- default -->
<g id="node5" class="node">
<title>default</title>
<polygon fill="#fffb81" stroke="black" points="807.25,-77.25 733.5,-77.25 733.5,-41.25 807.25,-41.25 807.25,-77.25"/>
<text text-anchor="middle" x="770.38" y="-54.58" font-family="DejaVu Sans Mono" font-size="14.00">default</text>
</g>
<!-- if -->
<g id="node6" class="node">
<title>if</title>
<polygon fill="#ff6752" stroke="black" points="914.38,-223.5 882.13,-205.5 914.38,-187.5 946.62,-205.5 914.38,-223.5"/>
<text text-anchor="middle" x="914.38" y="-200.82" font-family="DejaVu Sans Mono" font-size="14.00">if</text>
</g>
<!-- if&#45;&gt;input -->
<!-- for -->
<g id="node7" class="node">
<title>for</title>
<polygon fill="#ffbe52" stroke="black" points="862.38,-205.5 845.88,-223.5 812.87,-223.5 796.37,-205.5 812.87,-187.5 845.88,-187.5 862.38,-205.5"/>
<text text-anchor="middle" x="829.38" y="-200.82" font-family="DejaVu Sans Mono" font-size="14.00">for</text>
</g>
<!-- return -->
<g id="node10" class="node">
<title>return</title>
<polygon fill="#98fb98" stroke="black" points="837.74,-138.25 730.58,-138.25 703.01,-102.25 810.17,-102.25 837.74,-138.25"/>
<text text-anchor="middle" x="770.38" y="-115.58" font-family="DejaVu Sans Mono" font-size="14.00">return</text>
</g>
<!-- for&#45;&gt;return -->
<!-- while -->
<g id="node8" class="node">
<title>while</title>
<polygon fill="#ffbe52" stroke="black" points="778.75,-205.5 755.56,-223.5 709.19,-223.5 686,-205.5 709.19,-187.5 755.56,-187.5 778.75,-205.5"/>
<text text-anchor="middle" x="732.38" y="-200.82" font-family="DejaVu Sans Mono" font-size="14.00">while</text>
</g>
<!-- return&#45;&gt;default -->
<!-- try -->
<g id="node11" class="node">
<title>try</title>
<polygon fill="orange" stroke="black" points="627.38,-223.5 586.95,-205.5 627.38,-187.5 667.8,-205.5 627.38,-223.5"/>
<polyline fill="none" stroke="black" points="597.91,-210.38 597.91,-200.62"/>
<polyline fill="none" stroke="black" points="616.41,-192.38 638.34,-192.38"/>
<polyline fill="none" stroke="black" points="656.84,-200.62 656.84,-210.38"/>
<polyline fill="none" stroke="black" points="638.34,-218.62 616.41,-218.62"/>
<text text-anchor="middle" x="627.38" y="-200.82" font-family="DejaVu Sans Mono" font-size="14.00">try</text>
</g>
<!-- raise -->
<g id="node12" class="node">
<title>raise</title>
<polygon fill="#98fb98" stroke="black" points="685.02,-125.81 635.38,-138.25 585.73,-125.81 585.78,-105.69 684.97,-105.69 685.02,-125.81"/>
<text text-anchor="middle" x="635.38" y="-115.58" font-family="DejaVu Sans Mono" font-size="14.00">raise</text>
</g>
<!-- try&#45;&gt;raise -->
</g>
</svg>
