<?xml version="1.0" encoding="UTF-8" standalone="no"?>
<!DOCTYPE svg PUBLIC "-//W3C//DTD SVG 1.1//EN"
 "http://www.w3.org/Graphics/SVG/1.1/DTD/svg11.dtd">
<!-- Generated by graphviz version 9.0.0 (20230911.1827)
 -->
<!-- Title: cluster0inline&#45;ternary&#45;01 Pages: 1 -->
<svg width="634pt" height="265pt"
 viewBox="0.00 0.00 633.88 264.75" xmlns="http://www.w3.org/2000/svg" xmlns:xlink="http://www.w3.org/1999/xlink">
<g id="graph0" class="graph" transform="scale(1 1) rotate(0) translate(4 260.75)">
<title>cluster0inline&#45;ternary&#45;01</title>
<polygon fill="white" stroke="none" points="-4,4 -4,-260.75 629.88,-260.75 629.88,4 -4,4"/>
<text text-anchor="middle" x="312.94" y="-7.95" font-family="DejaVu Sans Mono" font-size="14.00">inline&#45;ternary&#45;01</text>
<g id="clust1" class="cluster">
<title>cluster_1</title>
<polygon fill="purple" stroke="purple" points="67.88,-94.25 67.88,-146.25 137.88,-146.25 137.88,-94.25 67.88,-94.25"/>
</g>
<g id="clust2" class="cluster">
<title>cluster_KEY</title>
<polygon fill="none" stroke="black" points="213.88,-33.25 213.88,-248.75 617.88,-248.75 617.88,-33.25 213.88,-33.25"/>
<text text-anchor="middle" x="415.88" y="-231.45" font-family="DejaVu Sans Mono" font-size="14.00">KEY</text>
</g>
<!-- 1 -->
<g id="node1" class="node">
<title>1</title>
<polygon fill="#fffb81" stroke="black" points="205.75,-215.5 0,-215.5 0,-179.5 205.75,-179.5 205.75,-215.5"/>
<text text-anchor="start" x="8" y="-192.82" font-family="DejaVu Sans Mono" font-size="14.00">int(&#39;x&#39; if &#39;y&#39; else &#39;&#39;)</text>
</g>
<!-- 2 -->
<g id="node2" class="node">
<title>2</title>
<polygon fill="#e552ff" stroke="#e552ff" points="129.88,-138.25 87.88,-138.25 87.88,-142.25 75.88,-142.25 75.88,-102.25 129.88,-102.25 129.88,-138.25"/>
<polyline fill="none" stroke="#e552ff" points="75.88,-138.25 87.88,-138.25"/>
<text text-anchor="middle" x="102.88" y="-115.58" font-family="DejaVu Sans Mono" font-size="14.00">int</text>
</g>
<!-- 1&#45;&gt;2 -->
<g id="edge1" class="edge">
<title>1&#45;&gt;2</title>
<path fill="none" stroke="black" stroke-dasharray="5,2" d="M102.88,-179.05C102.88,-170.4 102.88,-159.75 102.88,-149.94"/>
<polygon fill="black" stroke="black" points="106.38,-150.12 102.88,-140.12 99.38,-150.12 106.38,-150.12"/>
<text text-anchor="middle" x="123.5" y="-158.2" font-family="DejaVu Sans Mono" font-size="14.00">calls</text>
</g>
<!-- input -->
<g id="node3" class="node">
<title>input</title>
<polygon fill="#afeeee" stroke="black" points="609.76,-138.25 516.09,-138.25 491.99,-102.25 585.66,-102.25 609.76,-138.25"/>
<text text-anchor="middle" x="550.88" y="-115.58" font-family="DejaVu Sans Mono" font-size="14.00">input</text>
</g>
<!-- call -->
<g id="node8" class="node">
<title>call</title>
<polygon fill="#e552ff" stroke="black" points="577.88,-77.25 535.88,-77.25 535.88,-81.25 523.88,-81.25 523.88,-41.25 577.88,-41.25 577.88,-77.25"/>
<polyline fill="none" stroke="black" points="523.88,-77.25 535.88,-77.25"/>
<text text-anchor="middle" x="550.88" y="-54.58" font-family="DejaVu Sans Mono" font-size="14.00">call</text>
</g>
<!-- input&#45;&gt;call -->
<!-- default -->
<g id="node4" class="node">
<title>default</title>
<polygon fill="#fffb81" stroke="black" points="443.75,-77.25 370,-77.25 370,-41.25 443.75,-41.25 443.75,-77.25"/>
<text text-anchor="middle" x="406.88" y="-54.58" font-family="DejaVu Sans Mono" font-size="14.00">default</text>
</g>
<!-- if -->
<g id="node5" class="node">
<title>if</title>
<polygon fill="#ff6752" stroke="black" points="550.88,-215.5 518.63,-197.5 550.88,-179.5 583.12,-197.5 550.88,-215.5"/>
<text text-anchor="middle" x="550.88" y="-192.82" font-family="DejaVu Sans Mono" font-size="14.00">if</text>
</g>
<!-- if&#45;&gt;input -->
<!-- for -->
<g id="node6" class="node">
<title>for</title>
<polygon fill="#ffbe52" stroke="black" points="499.88,-197.5 483.38,-215.5 450.37,-215.5 433.87,-197.5 450.37,-179.5 483.38,-179.5 499.88,-197.5"/>
<text text-anchor="middle" x="466.88" y="-192.82" font-family="DejaVu Sans Mono" font-size="14.00">for</text>
</g>
<!-- return -->
<g id="node9" class="node">
<title>return</title>
<polygon fill="#98fb98" stroke="black" points="474.24,-138.25 367.08,-138.25 339.51,-102.25 446.67,-102.25 474.24,-138.25"/>
<text text-anchor="middle" x="406.88" y="-115.58" font-family="DejaVu Sans Mono" font-size="14.00">return</text>
</g>
<!-- for&#45;&gt;return -->
<!-- while -->
<g id="node7" class="node">
<title>while</title>
<polygon fill="#ffbe52" stroke="black" points="416.25,-197.5 393.06,-215.5 346.69,-215.5 323.5,-197.5 346.69,-179.5 393.06,-179.5 416.25,-197.5"/>
<text text-anchor="middle" x="369.88" y="-192.82" font-family="DejaVu Sans Mono" font-size="14.00">while</text>
</g>
<!-- return&#45;&gt;default -->
<!-- try -->
<g id="node10" class="node">
<title>try</title>
<polygon fill="orange" stroke="black" points="264.88,-215.5 224.45,-197.5 264.88,-179.5 305.3,-197.5 264.88,-215.5"/>
<polyline fill="none" stroke="black" points="235.41,-202.38 235.41,-192.62"/>
<polyline fill="none" stroke="black" points="253.91,-184.38 275.84,-184.38"/>
<polyline fill="none" stroke="black" points="294.34,-192.62 294.34,-202.38"/>
<polyline fill="none" stroke="black" points="275.84,-210.62 253.91,-210.62"/>
<text text-anchor="middle" x="264.88" y="-192.82" font-family="DejaVu Sans Mono" font-size="14.00">try</text>
</g>
<!-- raise -->
<g id="node11" class="node">
<title>raise</title>
<polygon fill="#98fb98" stroke="black" points="321.52,-125.81 271.88,-138.25 222.23,-125.81 222.28,-105.69 321.47,-105.69 321.52,-125.81"/>
<text text-anchor="middle" x="271.88" y="-115.58" font-family="DejaVu Sans Mono" font-size="14.00">raise</text>
</g>
<!-- try&#45;&gt;raise -->
</g>
</svg>
