<?xml version="1.0" encoding="UTF-8" standalone="no"?>
<!DOCTYPE svg PUBLIC "-//W3C//DTD SVG 1.1//EN"
 "http://www.w3.org/Graphics/SVG/1.1/DTD/svg11.dtd">
<!-- Generated by graphviz version 9.0.0 (20230911.1827)
 -->
<!-- Title: cluster0inline&#45;func&#45;calls&#45;01 Pages: 1 -->
<svg width="592pt" height="318pt"
 viewBox="0.00 0.00 592.25 317.75" xmlns="http://www.w3.org/2000/svg" xmlns:xlink="http://www.w3.org/1999/xlink">
<g id="graph0" class="graph" transform="scale(1 1) rotate(0) translate(4 313.75)">
<title>cluster0inline&#45;func&#45;calls&#45;01</title>
<polygon fill="white" stroke="none" points="-4,4 -4,-313.75 588.25,-313.75 588.25,4 -4,4"/>
<text text-anchor="middle" x="292.12" y="-7.95" font-family="DejaVu Sans Mono" font-size="14.00">inline&#45;func&#45;calls&#45;01</text>
<g id="clust1" class="cluster">
<title>cluster_1</title>
<polygon fill="purple" stroke="purple" points="45.25,-33.25 45.25,-199.25 119.25,-199.25 119.25,-33.25 45.25,-33.25"/>
</g>
<g id="clust2" class="cluster">
<title>cluster_KEY</title>
<polygon fill="none" stroke="black" points="172.25,-94.25 172.25,-301.75 576.25,-301.75 576.25,-94.25 172.25,-94.25"/>
<text text-anchor="middle" x="374.25" y="-284.45" font-family="DejaVu Sans Mono" font-size="14.00">KEY</text>
</g>
<!-- 1 -->
<g id="node1" class="node">
<title>1</title>
<polygon fill="#fffb81" stroke="black" points="164.5,-268.5 0,-268.5 0,-232.5 164.5,-232.5 164.5,-268.5"/>
<text text-anchor="start" x="8" y="-245.82" font-family="DejaVu Sans Mono" font-size="14.00">int(input(str(0)))</text>
</g>
<!-- 2 -->
<g id="node2" class="node">
<title>2</title>
<polygon fill="#e552ff" stroke="#e552ff" points="109.25,-191.25 67.25,-191.25 67.25,-195.25 55.25,-195.25 55.25,-155.25 109.25,-155.25 109.25,-191.25"/>
<polyline fill="none" stroke="#e552ff" points="55.25,-191.25 67.25,-191.25"/>
<text text-anchor="middle" x="82.25" y="-168.57" font-family="DejaVu Sans Mono" font-size="14.00">int</text>
</g>
<!-- 1&#45;&gt;2 -->
<g id="edge1" class="edge">
<title>1&#45;&gt;2</title>
<path fill="none" stroke="black" stroke-dasharray="5,2" d="M82.25,-232.05C82.25,-223.4 82.25,-212.75 82.25,-202.94"/>
<polygon fill="black" stroke="black" points="85.75,-203.12 82.25,-193.12 78.75,-203.12 85.75,-203.12"/>
<text text-anchor="middle" x="102.88" y="-211.2" font-family="DejaVu Sans Mono" font-size="14.00">calls</text>
</g>
<!-- 3 -->
<g id="node3" class="node">
<title>3</title>
<polygon fill="#e552ff" stroke="#e552ff" points="110.88,-138.25 65.62,-138.25 65.62,-142.25 53.62,-142.25 53.62,-102.25 110.88,-102.25 110.88,-138.25"/>
<polyline fill="none" stroke="#e552ff" points="53.62,-138.25 65.62,-138.25"/>
<text text-anchor="middle" x="82.25" y="-115.58" font-family="DejaVu Sans Mono" font-size="14.00">input</text>
</g>
<!-- 2&#45;&gt;3 -->
<g id="edge2" class="edge">
<title>2&#45;&gt;3</title>
<path fill="none" stroke="black" d="M82.25,-154.98C82.25,-153.32 82.25,-151.61 82.25,-149.87"/>
<polygon fill="black" stroke="black" points="85.75,-150.01 82.25,-140.01 78.75,-150.01 85.75,-150.01"/>
</g>
<!-- 4 -->
<g id="node4" class="node">
<title>4</title>
<polygon fill="#e552ff" stroke="#e552ff" points="109.25,-77.25 67.25,-77.25 67.25,-81.25 55.25,-81.25 55.25,-41.25 109.25,-41.25 109.25,-77.25"/>
<polyline fill="none" stroke="#e552ff" points="55.25,-77.25 67.25,-77.25"/>
<text text-anchor="middle" x="82.25" y="-54.58" font-family="DejaVu Sans Mono" font-size="14.00">str</text>
</g>
<!-- 3&#45;&gt;4 -->
<g id="edge3" class="edge">
<title>3&#45;&gt;4</title>
<path fill="none" stroke="black" d="M82.25,-101.87C82.25,-97.82 82.25,-93.41 82.25,-89.02"/>
<polygon fill="black" stroke="black" points="85.75,-89.23 82.25,-79.23 78.75,-89.23 85.75,-89.23"/>
</g>
<!-- input -->
<g id="node5" class="node">
<title>input</title>
<polygon fill="#afeeee" stroke="black" points="568.13,-191.25 474.46,-191.25 450.37,-155.25 544.04,-155.25 568.13,-191.25"/>
<text text-anchor="middle" x="509.25" y="-168.57" font-family="DejaVu Sans Mono" font-size="14.00">input</text>
</g>
<!-- call -->
<g id="node10" class="node">
<title>call</title>
<polygon fill="#e552ff" stroke="black" points="536.25,-138.25 494.25,-138.25 494.25,-142.25 482.25,-142.25 482.25,-102.25 536.25,-102.25 536.25,-138.25"/>
<polyline fill="none" stroke="black" points="482.25,-138.25 494.25,-138.25"/>
<text text-anchor="middle" x="509.25" y="-115.58" font-family="DejaVu Sans Mono" font-size="14.00">call</text>
</g>
<!-- input&#45;&gt;call -->
<!-- default -->
<g id="node6" class="node">
<title>default</title>
<polygon fill="#fffb81" stroke="black" points="402.12,-138.25 328.38,-138.25 328.38,-102.25 402.12,-102.25 402.12,-138.25"/>
<text text-anchor="middle" x="365.25" y="-115.58" font-family="DejaVu Sans Mono" font-size="14.00">default</text>
</g>
<!-- if -->
<g id="node7" class="node">
<title>if</title>
<polygon fill="#ff6752" stroke="black" points="509.25,-268.5 477.01,-250.5 509.25,-232.5 541.49,-250.5 509.25,-268.5"/>
<text text-anchor="middle" x="509.25" y="-245.82" font-family="DejaVu Sans Mono" font-size="14.00">if</text>
</g>
<!-- if&#45;&gt;input -->
<!-- for -->
<g id="node8" class="node">
<title>for</title>
<polygon fill="#ffbe52" stroke="black" points="459.26,-250.5 442.75,-268.5 409.75,-268.5 393.24,-250.5 409.75,-232.5 442.75,-232.5 459.26,-250.5"/>
<text text-anchor="middle" x="426.25" y="-245.82" font-family="DejaVu Sans Mono" font-size="14.00">for</text>
</g>
<!-- return -->
<g id="node11" class="node">
<title>return</title>
<polygon fill="#98fb98" stroke="black" points="432.62,-191.25 325.45,-191.25 297.88,-155.25 405.05,-155.25 432.62,-191.25"/>
<text text-anchor="middle" x="365.25" y="-168.57" font-family="DejaVu Sans Mono" font-size="14.00">return</text>
</g>
<!-- for&#45;&gt;return -->
<!-- while -->
<g id="node9" class="node">
<title>while</title>
<polygon fill="#ffbe52" stroke="black" points="375.62,-250.5 352.44,-268.5 306.06,-268.5 282.88,-250.5 306.06,-232.5 352.44,-232.5 375.62,-250.5"/>
<text text-anchor="middle" x="329.25" y="-245.82" font-family="DejaVu Sans Mono" font-size="14.00">while</text>
</g>
<!-- return&#45;&gt;default -->
<!-- try -->
<g id="node12" class="node">
<title>try</title>
<polygon fill="orange" stroke="black" points="224.25,-268.5 183.82,-250.5 224.25,-232.5 264.68,-250.5 224.25,-268.5"/>
<polyline fill="none" stroke="black" points="194.79,-255.38 194.79,-245.62"/>
<polyline fill="none" stroke="black" points="213.29,-237.38 235.21,-237.38"/>
<polyline fill="none" stroke="black" points="253.71,-245.62 253.71,-255.38"/>
<polyline fill="none" stroke="black" points="235.21,-263.62 213.29,-263.62"/>
<text text-anchor="middle" x="224.25" y="-245.82" font-family="DejaVu Sans Mono" font-size="14.00">try</text>
</g>
<!-- raise -->
<g id="node13" class="node">
<title>raise</title>
<polygon fill="#98fb98" stroke="black" points="279.89,-178.81 230.25,-191.25 180.61,-178.81 180.66,-158.69 279.84,-158.69 279.89,-178.81"/>
<text text-anchor="middle" x="230.25" y="-168.57" font-family="DejaVu Sans Mono" font-size="14.00">raise</text>
</g>
<!-- try&#45;&gt;raise -->
</g>
</svg>
