<?xml version="1.0" encoding="UTF-8" standalone="no"?>
<!DOCTYPE svg PUBLIC "-//W3C//DTD SVG 1.1//EN"
 "http://www.w3.org/Graphics/SVG/1.1/DTD/svg11.dtd">
<!-- Generated by graphviz version 9.0.0 (20230911.1827)
 -->
<!-- Title: cluster0inline&#45;func&#45;calls&#45;03 Pages: 1 -->
<svg width="1004pt" height="379pt"
 viewBox="0.00 0.00 1003.50 378.75" xmlns="http://www.w3.org/2000/svg" xmlns:xlink="http://www.w3.org/1999/xlink">
<g id="graph0" class="graph" transform="scale(1 1) rotate(0) translate(4 374.75)">
<title>cluster0inline&#45;func&#45;calls&#45;03</title>
<polygon fill="white" stroke="none" points="-4,4 -4,-374.75 999.5,-374.75 999.5,4 -4,4"/>
<text text-anchor="middle" x="497.75" y="-7.95" font-family="DejaVu Sans Mono" font-size="14.00">inline&#45;func&#45;calls&#45;03</text>
<g id="clust1" class="cluster">
<title>cluster_1</title>
<polygon fill="purple" stroke="purple" points="82.5,-33.25 82.5,-252.25 231.5,-252.25 231.5,-33.25 82.5,-33.25"/>
</g>
<g id="clust2" class="cluster">
<title>cluster0add</title>
<polygon fill="none" stroke="black" points="323.5,-285.5 323.5,-362.75 575.5,-362.75 575.5,-285.5 323.5,-285.5"/>
<text text-anchor="middle" x="449.5" y="-345.45" font-family="DejaVu Sans Mono" font-size="14.00">add</text>
</g>
<g id="clust3" class="cluster">
<title>cluster_KEY</title>
<polygon fill="none" stroke="black" points="583.5,-147.25 583.5,-362.75 987.5,-362.75 987.5,-147.25 583.5,-147.25"/>
<text text-anchor="middle" x="785.5" y="-345.45" font-family="DejaVu Sans Mono" font-size="14.00">KEY</text>
</g>
<!-- 1 -->
<g id="node1" class="node">
<title>1</title>
<polygon fill="#fffb81" stroke="black" points="313,-332.75 0,-332.75 0,-290.25 313,-290.25 313,-332.75"/>
<text text-anchor="start" x="8" y="-315.45" font-family="DejaVu Sans Mono" font-size="14.00">def add(x, y):...</text>
<text text-anchor="start" x="8" y="-298.2" font-family="DejaVu Sans Mono" font-size="14.00">int(add(int(input()), int(input())))</text>
</g>
<!-- 6 -->
<g id="node2" class="node">
<title>6</title>
<polygon fill="#e552ff" stroke="#e552ff" points="183.5,-244.25 141.5,-244.25 141.5,-248.25 129.5,-248.25 129.5,-208.25 183.5,-208.25 183.5,-244.25"/>
<polyline fill="none" stroke="#e552ff" points="129.5,-244.25 141.5,-244.25"/>
<text text-anchor="middle" x="156.5" y="-221.57" font-family="DejaVu Sans Mono" font-size="14.00">int</text>
</g>
<!-- 1&#45;&gt;6 -->
<g id="edge1" class="edge">
<title>1&#45;&gt;6</title>
<path fill="none" stroke="black" stroke-dasharray="5,2" d="M156.5,-289.92C156.5,-279.67 156.5,-267.1 156.5,-255.92"/>
<polygon fill="black" stroke="black" points="160,-256.02 156.5,-246.02 153,-256.02 160,-256.02"/>
<text text-anchor="middle" x="177.12" y="-264.2" font-family="DejaVu Sans Mono" font-size="14.00">calls</text>
</g>
<!-- 7 -->
<g id="node3" class="node">
<title>7</title>
<polygon fill="#e552ff" stroke="#e552ff" points="183.5,-191.25 141.5,-191.25 141.5,-195.25 129.5,-195.25 129.5,-155.25 183.5,-155.25 183.5,-191.25"/>
<polyline fill="none" stroke="#e552ff" points="129.5,-191.25 141.5,-191.25"/>
<text text-anchor="middle" x="156.5" y="-168.57" font-family="DejaVu Sans Mono" font-size="14.00">add</text>
</g>
<!-- 6&#45;&gt;7 -->
<g id="edge2" class="edge">
<title>6&#45;&gt;7</title>
<path fill="none" stroke="black" d="M156.5,-207.98C156.5,-206.32 156.5,-204.61 156.5,-202.87"/>
<polygon fill="black" stroke="black" points="160,-203.01 156.5,-193.01 153,-203.01 160,-203.01"/>
</g>
<!-- 8 -->
<g id="node4" class="node">
<title>8</title>
<polygon fill="#e552ff" stroke="#e552ff" points="147.5,-130.25 105.5,-130.25 105.5,-134.25 93.5,-134.25 93.5,-94.25 147.5,-94.25 147.5,-130.25"/>
<polyline fill="none" stroke="#e552ff" points="93.5,-130.25 105.5,-130.25"/>
<text text-anchor="middle" x="120.5" y="-107.58" font-family="DejaVu Sans Mono" font-size="14.00">int</text>
</g>
<!-- 7&#45;&gt;8 -->
<g id="edge3" class="edge">
<title>7&#45;&gt;8</title>
<path fill="none" stroke="black" d="M145.89,-154.87C143.14,-150.35 140.1,-145.37 137.11,-140.47"/>
<polygon fill="black" stroke="black" points="140.14,-138.72 131.94,-132 134.16,-142.36 140.14,-138.72"/>
</g>
<!-- 10 -->
<g id="node6" class="node">
<title>10</title>
<polygon fill="#e552ff" stroke="#e552ff" points="220.5,-130.25 178.5,-130.25 178.5,-134.25 166.5,-134.25 166.5,-94.25 220.5,-94.25 220.5,-130.25"/>
<polyline fill="none" stroke="#e552ff" points="166.5,-130.25 178.5,-130.25"/>
<text text-anchor="middle" x="193.5" y="-107.58" font-family="DejaVu Sans Mono" font-size="14.00">int</text>
</g>
<!-- 7&#45;&gt;10 -->
<g id="edge5" class="edge">
<title>7&#45;&gt;10</title>
<path fill="none" stroke="black" d="M167.4,-154.87C170.31,-150.23 173.52,-145.1 176.67,-140.08"/>
<polygon fill="black" stroke="black" points="179.4,-142.33 181.74,-131.99 173.47,-138.61 179.4,-142.33"/>
</g>
<!-- 9 -->
<g id="node5" class="node">
<title>9</title>
<polygon fill="#e552ff" stroke="#e552ff" points="148.12,-77.25 102.88,-77.25 102.88,-81.25 90.88,-81.25 90.88,-41.25 148.12,-41.25 148.12,-77.25"/>
<polyline fill="none" stroke="#e552ff" points="90.88,-77.25 102.88,-77.25"/>
<text text-anchor="middle" x="119.5" y="-54.58" font-family="DejaVu Sans Mono" font-size="14.00">input</text>
</g>
<!-- 8&#45;&gt;9 -->
<g id="edge4" class="edge">
<title>8&#45;&gt;9</title>
<path fill="none" stroke="black" d="M120.16,-93.98C120.13,-92.32 120.1,-90.61 120.06,-88.87"/>
<polygon fill="black" stroke="black" points="123.56,-88.94 119.87,-79.01 116.56,-89.08 123.56,-88.94"/>
</g>
<!-- 11 -->
<g id="node7" class="node">
<title>11</title>
<polygon fill="#e552ff" stroke="#e552ff" points="223.12,-77.25 177.88,-77.25 177.88,-81.25 165.88,-81.25 165.88,-41.25 223.12,-41.25 223.12,-77.25"/>
<polyline fill="none" stroke="#e552ff" points="165.88,-77.25 177.88,-77.25"/>
<text text-anchor="middle" x="194.5" y="-54.58" font-family="DejaVu Sans Mono" font-size="14.00">input</text>
</g>
<!-- 10&#45;&gt;11 -->
<g id="edge6" class="edge">
<title>10&#45;&gt;11</title>
<path fill="none" stroke="black" d="M193.84,-93.98C193.87,-92.32 193.9,-90.61 193.94,-88.87"/>
<polygon fill="black" stroke="black" points="197.44,-89.08 194.13,-79.01 190.44,-88.94 197.44,-89.08"/>
</g>
<!-- 3 -->
<g id="node8" class="node">
<title>3</title>
<polygon fill="#98fb98" stroke="black" points="567.78,-329.5 379.62,-329.5 331.22,-293.5 519.38,-293.5 567.78,-329.5"/>
<text text-anchor="start" x="376.18" y="-306.82" font-family="DejaVu Sans Mono" font-size="14.00">return x + y</text>
</g>
<!-- input -->
<g id="node9" class="node">
<title>input</title>
<polygon fill="#afeeee" stroke="black" points="979.38,-244.25 885.71,-244.25 861.62,-208.25 955.29,-208.25 979.38,-244.25"/>
<text text-anchor="middle" x="920.5" y="-221.57" font-family="DejaVu Sans Mono" font-size="14.00">input</text>
</g>
<!-- call -->
<g id="node14" class="node">
<title>call</title>
<polygon fill="#e552ff" stroke="black" points="947.5,-191.25 905.5,-191.25 905.5,-195.25 893.5,-195.25 893.5,-155.25 947.5,-155.25 947.5,-191.25"/>
<polyline fill="none" stroke="black" points="893.5,-191.25 905.5,-191.25"/>
<text text-anchor="middle" x="920.5" y="-168.57" font-family="DejaVu Sans Mono" font-size="14.00">call</text>
</g>
<!-- input&#45;&gt;call -->
<!-- default -->
<g id="node10" class="node">
<title>default</title>
<polygon fill="#fffb81" stroke="black" points="813.38,-191.25 739.62,-191.25 739.62,-155.25 813.38,-155.25 813.38,-191.25"/>
<text text-anchor="middle" x="776.5" y="-168.57" font-family="DejaVu Sans Mono" font-size="14.00">default</text>
</g>
<!-- if -->
<g id="node11" class="node">
<title>if</title>
<polygon fill="#ff6752" stroke="black" points="920.5,-329.5 888.26,-311.5 920.5,-293.5 952.74,-311.5 920.5,-329.5"/>
<text text-anchor="middle" x="920.5" y="-306.82" font-family="DejaVu Sans Mono" font-size="14.00">if</text>
</g>
<!-- if&#45;&gt;input -->
<!-- for -->
<g id="node12" class="node">
<title>for</title>
<polygon fill="#ffbe52" stroke="black" points="868.51,-311.5 852,-329.5 819,-329.5 802.49,-311.5 819,-293.5 852,-293.5 868.51,-311.5"/>
<text text-anchor="middle" x="835.5" y="-306.82" font-family="DejaVu Sans Mono" font-size="14.00">for</text>
</g>
<!-- return -->
<g id="node15" class="node">
<title>return</title>
<polygon fill="#98fb98" stroke="black" points="843.87,-244.25 736.7,-244.25 709.13,-208.25 816.3,-208.25 843.87,-244.25"/>
<text text-anchor="middle" x="776.5" y="-221.57" font-family="DejaVu Sans Mono" font-size="14.00">return</text>
</g>
<!-- for&#45;&gt;return -->
<!-- while -->
<g id="node13" class="node">
<title>while</title>
<polygon fill="#ffbe52" stroke="black" points="784.87,-311.5 761.69,-329.5 715.31,-329.5 692.13,-311.5 715.31,-293.5 761.69,-293.5 784.87,-311.5"/>
<text text-anchor="middle" x="738.5" y="-306.82" font-family="DejaVu Sans Mono" font-size="14.00">while</text>
</g>
<!-- return&#45;&gt;default -->
<!-- try -->
<g id="node16" class="node">
<title>try</title>
<polygon fill="orange" stroke="black" points="633.5,-329.5 593.07,-311.5 633.5,-293.5 673.93,-311.5 633.5,-329.5"/>
<polyline fill="none" stroke="black" points="604.04,-316.38 604.04,-306.62"/>
<polyline fill="none" stroke="black" points="622.54,-298.38 644.46,-298.38"/>
<polyline fill="none" stroke="black" points="662.96,-306.62 662.96,-316.38"/>
<polyline fill="none" stroke="black" points="644.46,-324.62 622.54,-324.62"/>
<text text-anchor="middle" x="633.5" y="-306.82" font-family="DejaVu Sans Mono" font-size="14.00">try</text>
</g>
<!-- raise -->
<g id="node17" class="node">
<title>raise</title>
<polygon fill="#98fb98" stroke="black" points="691.14,-231.81 641.5,-244.25 591.86,-231.81 591.91,-211.69 691.09,-211.69 691.14,-231.81"/>
<text text-anchor="middle" x="641.5" y="-221.57" font-family="DejaVu Sans Mono" font-size="14.00">raise</text>
</g>
<!-- try&#45;&gt;raise -->
</g>
</svg>
