<?xml version="1.0" encoding="UTF-8" standalone="no"?>
<!DOCTYPE svg PUBLIC "-//W3C//DTD SVG 1.1//EN"
 "http://www.w3.org/Graphics/SVG/1.1/DTD/svg11.dtd">
<!-- Generated by graphviz version 9.0.0 (20230911.1827)
 -->
<!-- Title: cluster0inline&#45;func&#45;calls&#45;02 Pages: 1 -->
<svg width="606pt" height="321pt"
 viewBox="0.00 0.00 606.25 321.00" xmlns="http://www.w3.org/2000/svg" xmlns:xlink="http://www.w3.org/1999/xlink">
<g id="graph0" class="graph" transform="scale(1 1) rotate(0) translate(4 317)">
<title>cluster0inline&#45;func&#45;calls&#45;02</title>
<polygon fill="white" stroke="none" points="-4,4 -4,-317 602.25,-317 602.25,4 -4,4"/>
<text text-anchor="middle" x="299.12" y="-7.95" font-family="DejaVu Sans Mono" font-size="14.00">inline&#45;func&#45;calls&#45;02</text>
<g id="clust1" class="cluster">
<title>cluster_1</title>
<polygon fill="purple" stroke="purple" points="29.25,-33.25 29.25,-199.25 178.25,-199.25 178.25,-33.25 29.25,-33.25"/>
</g>
<g id="clust2" class="cluster">
<title>cluster_KEY</title>
<polygon fill="none" stroke="black" points="186.25,-94.25 186.25,-305 590.25,-305 590.25,-94.25 186.25,-94.25"/>
<text text-anchor="middle" x="388.25" y="-287.7" font-family="DejaVu Sans Mono" font-size="14.00">KEY</text>
</g>
<!-- 1 -->
<g id="node1" class="node">
<title>1</title>
<polygon fill="#fffb81" stroke="black" points="164.5,-275 0,-275 0,-232.5 164.5,-232.5 164.5,-275"/>
<text text-anchor="start" x="8" y="-257.7" font-family="DejaVu Sans Mono" font-size="14.00">int(input(str(0)))</text>
<text text-anchor="start" x="8" y="-240.45" font-family="DejaVu Sans Mono" font-size="14.00">int(input(str(1)))</text>
</g>
<!-- 2 -->
<g id="node2" class="node">
<title>2</title>
<polygon fill="#e552ff" stroke="#e552ff" points="94.25,-191.25 52.25,-191.25 52.25,-195.25 40.25,-195.25 40.25,-155.25 94.25,-155.25 94.25,-191.25"/>
<polyline fill="none" stroke="#e552ff" points="40.25,-191.25 52.25,-191.25"/>
<text text-anchor="middle" x="67.25" y="-168.57" font-family="DejaVu Sans Mono" font-size="14.00">int</text>
</g>
<!-- 1&#45;&gt;2 -->
<g id="edge1" class="edge">
<title>1&#45;&gt;2</title>
<path fill="none" stroke="black" stroke-dasharray="5,2" d="M74.13,-232.26C73.31,-229.67 72.57,-227.05 72,-224.5 70.45,-217.6 69.4,-210.05 68.7,-202.96"/>
<polygon fill="black" stroke="black" points="72.2,-202.83 67.93,-193.14 65.22,-203.38 72.2,-202.83"/>
<text text-anchor="middle" x="92.88" y="-211.2" font-family="DejaVu Sans Mono" font-size="14.00">calls</text>
</g>
<!-- 5 -->
<g id="node3" class="node">
<title>5</title>
<polygon fill="#e552ff" stroke="#e552ff" points="167.25,-191.25 125.25,-191.25 125.25,-195.25 113.25,-195.25 113.25,-155.25 167.25,-155.25 167.25,-191.25"/>
<polyline fill="none" stroke="#e552ff" points="113.25,-191.25 125.25,-191.25"/>
<text text-anchor="middle" x="140.25" y="-168.57" font-family="DejaVu Sans Mono" font-size="14.00">int</text>
</g>
<!-- 1&#45;&gt;5 -->
<g id="edge2" class="edge">
<title>1&#45;&gt;5</title>
<path fill="none" stroke="black" stroke-dasharray="5,2" d="M106.45,-232.24C108.87,-229.75 111.19,-227.14 113.25,-224.5 118.69,-217.52 123.63,-209.29 127.74,-201.53"/>
<polygon fill="black" stroke="black" points="130.79,-203.27 132.14,-192.76 124.53,-200.13 130.79,-203.27"/>
<text text-anchor="middle" x="145.88" y="-211.2" font-family="DejaVu Sans Mono" font-size="14.00">calls</text>
</g>
<!-- 3 -->
<g id="node4" class="node">
<title>3</title>
<polygon fill="#e552ff" stroke="#e552ff" points="94.88,-138.25 49.62,-138.25 49.62,-142.25 37.62,-142.25 37.62,-102.25 94.88,-102.25 94.88,-138.25"/>
<polyline fill="none" stroke="#e552ff" points="37.62,-138.25 49.62,-138.25"/>
<text text-anchor="middle" x="66.25" y="-115.58" font-family="DejaVu Sans Mono" font-size="14.00">input</text>
</g>
<!-- 2&#45;&gt;3 -->
<g id="edge3" class="edge">
<title>2&#45;&gt;3</title>
<path fill="none" stroke="black" d="M66.91,-154.98C66.88,-153.32 66.85,-151.61 66.81,-149.87"/>
<polygon fill="black" stroke="black" points="70.31,-149.94 66.62,-140.01 63.31,-150.08 70.31,-149.94"/>
</g>
<!-- 6 -->
<g id="node6" class="node">
<title>6</title>
<polygon fill="#e552ff" stroke="#e552ff" points="169.88,-138.25 124.62,-138.25 124.62,-142.25 112.62,-142.25 112.62,-102.25 169.88,-102.25 169.88,-138.25"/>
<polyline fill="none" stroke="#e552ff" points="112.62,-138.25 124.62,-138.25"/>
<text text-anchor="middle" x="141.25" y="-115.58" font-family="DejaVu Sans Mono" font-size="14.00">input</text>
</g>
<!-- 5&#45;&gt;6 -->
<g id="edge5" class="edge">
<title>5&#45;&gt;6</title>
<path fill="none" stroke="black" d="M140.59,-154.98C140.62,-153.32 140.65,-151.61 140.69,-149.87"/>
<polygon fill="black" stroke="black" points="144.19,-150.08 140.88,-140.01 137.19,-149.94 144.19,-150.08"/>
</g>
<!-- 4 -->
<g id="node5" class="node">
<title>4</title>
<polygon fill="#e552ff" stroke="#e552ff" points="93.25,-77.25 51.25,-77.25 51.25,-81.25 39.25,-81.25 39.25,-41.25 93.25,-41.25 93.25,-77.25"/>
<polyline fill="none" stroke="#e552ff" points="39.25,-77.25 51.25,-77.25"/>
<text text-anchor="middle" x="66.25" y="-54.58" font-family="DejaVu Sans Mono" font-size="14.00">str</text>
</g>
<!-- 3&#45;&gt;4 -->
<g id="edge4" class="edge">
<title>3&#45;&gt;4</title>
<path fill="none" stroke="black" d="M66.25,-101.87C66.25,-97.82 66.25,-93.41 66.25,-89.02"/>
<polygon fill="black" stroke="black" points="69.75,-89.23 66.25,-79.23 62.75,-89.23 69.75,-89.23"/>
</g>
<!-- 7 -->
<g id="node7" class="node">
<title>7</title>
<polygon fill="#e552ff" stroke="#e552ff" points="168.25,-77.25 126.25,-77.25 126.25,-81.25 114.25,-81.25 114.25,-41.25 168.25,-41.25 168.25,-77.25"/>
<polyline fill="none" stroke="#e552ff" points="114.25,-77.25 126.25,-77.25"/>
<text text-anchor="middle" x="141.25" y="-54.58" font-family="DejaVu Sans Mono" font-size="14.00">str</text>
</g>
<!-- 6&#45;&gt;7 -->
<g id="edge6" class="edge">
<title>6&#45;&gt;7</title>
<path fill="none" stroke="black" d="M141.25,-101.87C141.25,-97.82 141.25,-93.41 141.25,-89.02"/>
<polygon fill="black" stroke="black" points="144.75,-89.23 141.25,-79.23 137.75,-89.23 144.75,-89.23"/>
</g>
<!-- input -->
<g id="node8" class="node">
<title>input</title>
<polygon fill="#afeeee" stroke="black" points="582.13,-191.25 488.46,-191.25 464.37,-155.25 558.04,-155.25 582.13,-191.25"/>
<text text-anchor="middle" x="523.25" y="-168.57" font-family="DejaVu Sans Mono" font-size="14.00">input</text>
</g>
<!-- call -->
<g id="node13" class="node">
<title>call</title>
<polygon fill="#e552ff" stroke="black" points="550.25,-138.25 508.25,-138.25 508.25,-142.25 496.25,-142.25 496.25,-102.25 550.25,-102.25 550.25,-138.25"/>
<polyline fill="none" stroke="black" points="496.25,-138.25 508.25,-138.25"/>
<text text-anchor="middle" x="523.25" y="-115.58" font-family="DejaVu Sans Mono" font-size="14.00">call</text>
</g>
<!-- input&#45;&gt;call -->
<!-- default -->
<g id="node9" class="node">
<title>default</title>
<polygon fill="#fffb81" stroke="black" points="416.12,-138.25 342.38,-138.25 342.38,-102.25 416.12,-102.25 416.12,-138.25"/>
<text text-anchor="middle" x="379.25" y="-115.58" font-family="DejaVu Sans Mono" font-size="14.00">default</text>
</g>
<!-- if -->
<g id="node10" class="node">
<title>if</title>
<polygon fill="#ff6752" stroke="black" points="523.25,-271.75 491.01,-253.75 523.25,-235.75 555.49,-253.75 523.25,-271.75"/>
<text text-anchor="middle" x="523.25" y="-249.07" font-family="DejaVu Sans Mono" font-size="14.00">if</text>
</g>
<!-- if&#45;&gt;input -->
<!-- for -->
<g id="node11" class="node">
<title>for</title>
<polygon fill="#ffbe52" stroke="black" points="471.26,-253.75 454.75,-271.75 421.75,-271.75 405.24,-253.75 421.75,-235.75 454.75,-235.75 471.26,-253.75"/>
<text text-anchor="middle" x="438.25" y="-249.07" font-family="DejaVu Sans Mono" font-size="14.00">for</text>
</g>
<!-- return -->
<g id="node14" class="node">
<title>return</title>
<polygon fill="#98fb98" stroke="black" points="446.62,-191.25 339.45,-191.25 311.88,-155.25 419.05,-155.25 446.62,-191.25"/>
<text text-anchor="middle" x="379.25" y="-168.57" font-family="DejaVu Sans Mono" font-size="14.00">return</text>
</g>
<!-- for&#45;&gt;return -->
<!-- while -->
<g id="node12" class="node">
<title>while</title>
<polygon fill="#ffbe52" stroke="black" points="387.62,-253.75 364.44,-271.75 318.06,-271.75 294.88,-253.75 318.06,-235.75 364.44,-235.75 387.62,-253.75"/>
<text text-anchor="middle" x="341.25" y="-249.07" font-family="DejaVu Sans Mono" font-size="14.00">while</text>
</g>
<!-- return&#45;&gt;default -->
<!-- try -->
<g id="node15" class="node">
<title>try</title>
<polygon fill="orange" stroke="black" points="236.25,-271.75 195.82,-253.75 236.25,-235.75 276.68,-253.75 236.25,-271.75"/>
<polyline fill="none" stroke="black" points="206.79,-258.63 206.79,-248.87"/>
<polyline fill="none" stroke="black" points="225.29,-240.63 247.21,-240.63"/>
<polyline fill="none" stroke="black" points="265.71,-248.87 265.71,-258.63"/>
<polyline fill="none" stroke="black" points="247.21,-266.87 225.29,-266.87"/>
<text text-anchor="middle" x="236.25" y="-249.07" font-family="DejaVu Sans Mono" font-size="14.00">try</text>
</g>
<!-- raise -->
<g id="node16" class="node">
<title>raise</title>
<polygon fill="#98fb98" stroke="black" points="293.89,-178.81 244.25,-191.25 194.61,-178.81 194.66,-158.69 293.84,-158.69 293.89,-178.81"/>
<text text-anchor="middle" x="244.25" y="-168.57" font-family="DejaVu Sans Mono" font-size="14.00">raise</text>
</g>
<!-- try&#45;&gt;raise -->
</g>
</svg>
