<?xml version="1.0" encoding="UTF-8" standalone="no"?>
<!DOCTYPE svg PUBLIC "-//W3C//DTD SVG 1.1//EN"
 "http://www.w3.org/Graphics/SVG/1.1/DTD/svg11.dtd">
<!-- Generated by graphviz version 9.0.0 (20230911.1827)
 -->
<!-- Title: cluster0lambda Pages: 1 -->
<svg width="642pt" height="215pt"
 viewBox="0.00 0.00 642.00 214.50" xmlns="http://www.w3.org/2000/svg" xmlns:xlink="http://www.w3.org/1999/xlink">
<g id="graph0" class="graph" transform="scale(1 1) rotate(0) translate(4 210.5)">
<title>cluster0lambda</title>
<polygon fill="white" stroke="none" points="-4,4 -4,-210.5 638,-210.5 638,4 -4,4"/>
<text text-anchor="middle" x="317" y="-7.95" font-family="DejaVu Sans Mono" font-size="14.00">lambda</text>
<g id="clust1" class="cluster">
<title>cluster_KEY</title>
<polygon fill="none" stroke="black" points="222,-33.25 222,-198.5 626,-198.5 626,-33.25 222,-33.25"/>
<text text-anchor="middle" x="424" y="-181.2" font-family="DejaVu Sans Mono" font-size="14.00">KEY</text>
</g>
<!-- 1 -->
<g id="node1" class="node">
<title>1</title>
<polygon fill="#fffb81" stroke="black" points="214,-165.25 0,-165.25 0,-129.25 214,-129.25 214,-165.25"/>
<text text-anchor="start" x="8" y="-142.57" font-family="DejaVu Sans Mono" font-size="14.00">add = lambda x, y: x + y</text>
</g>
<!-- input -->
<g id="node2" class="node">
<title>input</title>
<polygon fill="#afeeee" stroke="black" points="617.88,-121.25 524.21,-121.25 500.12,-85.25 593.79,-85.25 617.88,-121.25"/>
<text text-anchor="middle" x="559" y="-98.58" font-family="DejaVu Sans Mono" font-size="14.00">input</text>
</g>
<!-- call -->
<g id="node7" class="node">
<title>call</title>
<polygon fill="#e552ff" stroke="black" points="586,-77.25 544,-77.25 544,-81.25 532,-81.25 532,-41.25 586,-41.25 586,-77.25"/>
<polyline fill="none" stroke="black" points="532,-77.25 544,-77.25"/>
<text text-anchor="middle" x="559" y="-54.58" font-family="DejaVu Sans Mono" font-size="14.00">call</text>
</g>
<!-- input&#45;&gt;call -->
<!-- default -->
<g id="node3" class="node">
<title>default</title>
<polygon fill="#fffb81" stroke="black" points="451.88,-77.25 378.12,-77.25 378.12,-41.25 451.88,-41.25 451.88,-77.25"/>
<text text-anchor="middle" x="415" y="-54.58" font-family="DejaVu Sans Mono" font-size="14.00">default</text>
</g>
<!-- if -->
<g id="node4" class="node">
<title>if</title>
<polygon fill="#ff6752" stroke="black" points="559,-165.25 526.76,-147.25 559,-129.25 591.24,-147.25 559,-165.25"/>
<text text-anchor="middle" x="559" y="-142.57" font-family="DejaVu Sans Mono" font-size="14.00">if</text>
</g>
<!-- if&#45;&gt;input -->
<!-- for -->
<g id="node5" class="node">
<title>for</title>
<polygon fill="#ffbe52" stroke="black" points="508.01,-147.25 491.5,-165.25 458.5,-165.25 441.99,-147.25 458.5,-129.25 491.5,-129.25 508.01,-147.25"/>
<text text-anchor="middle" x="475" y="-142.57" font-family="DejaVu Sans Mono" font-size="14.00">for</text>
</g>
<!-- return -->
<g id="node8" class="node">
<title>return</title>
<polygon fill="#98fb98" stroke="black" points="482.37,-121.25 375.2,-121.25 347.63,-85.25 454.8,-85.25 482.37,-121.25"/>
<text text-anchor="middle" x="415" y="-98.58" font-family="DejaVu Sans Mono" font-size="14.00">return</text>
</g>
<!-- for&#45;&gt;return -->
<!-- while -->
<g id="node6" class="node">
<title>while</title>
<polygon fill="#ffbe52" stroke="black" points="424.37,-147.25 401.19,-165.25 354.81,-165.25 331.63,-147.25 354.81,-129.25 401.19,-129.25 424.37,-147.25"/>
<text text-anchor="middle" x="378" y="-142.57" font-family="DejaVu Sans Mono" font-size="14.00">while</text>
</g>
<!-- return&#45;&gt;default -->
<!-- try -->
<g id="node9" class="node">
<title>try</title>
<polygon fill="orange" stroke="black" points="273,-165.25 232.57,-147.25 273,-129.25 313.43,-147.25 273,-165.25"/>
<polyline fill="none" stroke="black" points="243.54,-152.13 243.54,-142.37"/>
<polyline fill="none" stroke="black" points="262.04,-134.13 283.96,-134.13"/>
<polyline fill="none" stroke="black" points="302.46,-142.37 302.46,-152.13"/>
<polyline fill="none" stroke="black" points="283.96,-160.37 262.04,-160.37"/>
<text text-anchor="middle" x="273" y="-142.57" font-family="DejaVu Sans Mono" font-size="14.00">try</text>
</g>
<!-- raise -->
<g id="node10" class="node">
<title>raise</title>
<polygon fill="#98fb98" stroke="black" points="329.64,-108.81 280,-121.25 230.36,-108.81 230.41,-88.69 329.59,-88.69 329.64,-108.81"/>
<text text-anchor="middle" x="280" y="-98.58" font-family="DejaVu Sans Mono" font-size="14.00">raise</text>
</g>
<!-- try&#45;&gt;raise -->
</g>
</svg>
