<?xml version="1.0" encoding="UTF-8" standalone="no"?>
<!DOCTYPE svg PUBLIC "-//W3C//DTD SVG 1.1//EN"
 "http://www.w3.org/Graphics/SVG/1.1/DTD/svg11.dtd">
<!-- Generated by graphviz version 9.0.0 (20230911.1827)
 -->
<!-- Title: cluster0loops&#45;03&#45;range Pages: 1 -->
<svg width="815pt" height="289pt"
 viewBox="0.00 0.00 815.39 289.00" xmlns="http://www.w3.org/2000/svg" xmlns:xlink="http://www.w3.org/1999/xlink">
<g id="graph0" class="graph" transform="scale(1 1) rotate(0) translate(4 285)">
<title>cluster0loops&#45;03&#45;range</title>
<polygon fill="white" stroke="none" points="-4,4 -4,-285 811.39,-285 811.39,4 -4,4"/>
<text text-anchor="middle" x="403.69" y="-7.95" font-family="DejaVu Sans Mono" font-size="14.00">loops&#45;03&#45;range</text>
<g id="clust1" class="cluster">
<title>cluster_1</title>
<polygon fill="purple" stroke="purple" points="92.39,-118.5 92.39,-170.5 166.39,-170.5 166.39,-118.5 92.39,-118.5"/>
</g>
<g id="clust2" class="cluster">
<title>cluster_3</title>
<polygon fill="purple" stroke="purple" points="233.39,-33.25 233.39,-85.25 307.39,-85.25 307.39,-33.25 233.39,-33.25"/>
</g>
<g id="clust3" class="cluster">
<title>cluster_KEY</title>
<polygon fill="none" stroke="black" points="395.39,-33.25 395.39,-273 799.39,-273 799.39,-33.25 395.39,-33.25"/>
<text text-anchor="middle" x="597.39" y="-255.7" font-family="DejaVu Sans Mono" font-size="14.00">KEY</text>
</g>
<!-- 1 -->
<g id="node1" class="node">
<title>1</title>
<polygon fill="#ffbe52" stroke="black" points="386.77,-221.75 290.08,-239.75 96.69,-239.75 0,-221.75 96.69,-203.75 290.08,-203.75 386.77,-221.75"/>
<text text-anchor="start" x="63.54" y="-217.07" font-family="DejaVu Sans Mono" font-size="14.00">for counter in range(0, 5):</text>
</g>
<!-- 2 -->
<g id="node2" class="node">
<title>2</title>
<polygon fill="#e552ff" stroke="#e552ff" points="158.01,-162.5 112.76,-162.5 112.76,-166.5 100.76,-166.5 100.76,-126.5 158.01,-126.5 158.01,-162.5"/>
<polyline fill="none" stroke="#e552ff" points="100.76,-162.5 112.76,-162.5"/>
<text text-anchor="middle" x="129.39" y="-139.82" font-family="DejaVu Sans Mono" font-size="14.00">range</text>
</g>
<!-- 1&#45;&gt;2 -->
<g id="edge1" class="edge">
<title>1&#45;&gt;2</title>
<path fill="none" stroke="black" stroke-dasharray="5,2" d="M136.98,-203.28C134.4,-201.07 132.08,-198.57 130.14,-195.75 125.84,-189.53 124.37,-181.77 124.3,-174.22"/>
<polygon fill="black" stroke="black" points="127.78,-174.52 125.03,-164.29 120.8,-174 127.78,-174.52"/>
<text text-anchor="middle" x="151.01" y="-182.45" font-family="DejaVu Sans Mono" font-size="14.00">calls</text>
</g>
<!-- 3 -->
<g id="node3" class="node">
<title>3</title>
<polygon fill="#fffb81" stroke="black" points="336.14,-162.5 204.64,-162.5 204.64,-126.5 336.14,-126.5 336.14,-162.5"/>
<text text-anchor="start" x="212.64" y="-139.82" font-family="DejaVu Sans Mono" font-size="14.00">print(counter)</text>
</g>
<!-- 1&#45;&gt;3 -->
<g id="edge4" class="edge">
<title>1&#45;&gt;3</title>
<path fill="none" stroke="green" d="M187.65,-203.44C186.02,-195.25 185.82,-185.71 190.64,-178.5 192.76,-175.32 195.25,-172.45 198.02,-169.86"/>
<polygon fill="green" stroke="green" points="200.08,-172.69 205.84,-163.8 195.79,-167.15 200.08,-172.69"/>
<text text-anchor="middle" x="236.76" y="-182.45" font-family="DejaVu Sans Mono" font-size="14.00">range(0, 5)</text>
</g>
<!-- 3&#45;&gt;1 -->
<g id="edge3" class="edge">
<title>3&#45;&gt;1</title>
<path fill="none" stroke="black" d="M282.67,-162.73C287.38,-171.19 291.05,-181.4 284.34,-194.22"/>
<polygon fill="black" stroke="black" points="281.58,-192.06 278.78,-202.28 287.34,-196.03 281.58,-192.06"/>
</g>
<!-- 5 -->
<g id="node4" class="node">
<title>5</title>
<polygon fill="#e552ff" stroke="#e552ff" points="299.01,-77.25 253.76,-77.25 253.76,-81.25 241.76,-81.25 241.76,-41.25 299.01,-41.25 299.01,-77.25"/>
<polyline fill="none" stroke="#e552ff" points="241.76,-77.25 253.76,-77.25"/>
<text text-anchor="middle" x="270.39" y="-54.58" font-family="DejaVu Sans Mono" font-size="14.00">print</text>
</g>
<!-- 3&#45;&gt;5 -->
<g id="edge2" class="edge">
<title>3&#45;&gt;5</title>
<path fill="none" stroke="black" stroke-dasharray="5,2" d="M270.39,-126.25C270.39,-115.42 270.39,-101.2 270.39,-88.73"/>
<polygon fill="black" stroke="black" points="273.89,-88.99 270.39,-78.99 266.89,-88.99 273.89,-88.99"/>
<text text-anchor="middle" x="291.01" y="-97.2" font-family="DejaVu Sans Mono" font-size="14.00">calls</text>
</g>
<!-- input -->
<g id="node5" class="node">
<title>input</title>
<polygon fill="#afeeee" stroke="black" points="791.27,-162.5 697.6,-162.5 673.51,-126.5 767.17,-126.5 791.27,-162.5"/>
<text text-anchor="middle" x="732.39" y="-139.82" font-family="DejaVu Sans Mono" font-size="14.00">input</text>
</g>
<!-- call -->
<g id="node10" class="node">
<title>call</title>
<polygon fill="#e552ff" stroke="black" points="759.39,-77.25 717.39,-77.25 717.39,-81.25 705.39,-81.25 705.39,-41.25 759.39,-41.25 759.39,-77.25"/>
<polyline fill="none" stroke="black" points="705.39,-77.25 717.39,-77.25"/>
<text text-anchor="middle" x="732.39" y="-54.58" font-family="DejaVu Sans Mono" font-size="14.00">call</text>
</g>
<!-- input&#45;&gt;call -->
<!-- default -->
<g id="node6" class="node">
<title>default</title>
<polygon fill="#fffb81" stroke="black" points="625.26,-77.25 551.51,-77.25 551.51,-41.25 625.26,-41.25 625.26,-77.25"/>
<text text-anchor="middle" x="588.39" y="-54.58" font-family="DejaVu Sans Mono" font-size="14.00">default</text>
</g>
<!-- if -->
<g id="node7" class="node">
<title>if</title>
<polygon fill="#ff6752" stroke="black" points="732.39,-239.75 700.15,-221.75 732.39,-203.75 764.63,-221.75 732.39,-239.75"/>
<text text-anchor="middle" x="732.39" y="-217.07" font-family="DejaVu Sans Mono" font-size="14.00">if</text>
</g>
<!-- if&#45;&gt;input -->
<!-- for -->
<g id="node8" class="node">
<title>for</title>
<polygon fill="#ffbe52" stroke="black" points="681.39,-221.75 664.89,-239.75 631.88,-239.75 615.38,-221.75 631.88,-203.75 664.89,-203.75 681.39,-221.75"/>
<text text-anchor="middle" x="648.39" y="-217.07" font-family="DejaVu Sans Mono" font-size="14.00">for</text>
</g>
<!-- return -->
<g id="node11" class="node">
<title>return</title>
<polygon fill="#98fb98" stroke="black" points="655.75,-162.5 548.59,-162.5 521.02,-126.5 628.19,-126.5 655.75,-162.5"/>
<text text-anchor="middle" x="588.39" y="-139.82" font-family="DejaVu Sans Mono" font-size="14.00">return</text>
</g>
<!-- for&#45;&gt;return -->
<!-- while -->
<g id="node9" class="node">
<title>while</title>
<polygon fill="#ffbe52" stroke="black" points="597.76,-221.75 574.57,-239.75 528.2,-239.75 505.01,-221.75 528.2,-203.75 574.57,-203.75 597.76,-221.75"/>
<text text-anchor="middle" x="551.39" y="-217.07" font-family="DejaVu Sans Mono" font-size="14.00">while</text>
</g>
<!-- return&#45;&gt;default -->
<!-- try -->
<g id="node12" class="node">
<title>try</title>
<polygon fill="orange" stroke="black" points="446.39,-239.75 405.96,-221.75 446.39,-203.75 486.81,-221.75 446.39,-239.75"/>
<polyline fill="none" stroke="black" points="416.92,-226.63 416.92,-216.87"/>
<polyline fill="none" stroke="black" points="435.42,-208.63 457.35,-208.63"/>
<polyline fill="none" stroke="black" points="475.85,-216.87 475.85,-226.63"/>
<polyline fill="none" stroke="black" points="457.35,-234.87 435.42,-234.87"/>
<text text-anchor="middle" x="446.39" y="-217.07" font-family="DejaVu Sans Mono" font-size="14.00">try</text>
</g>
<!-- raise -->
<g id="node13" class="node">
<title>raise</title>
<polygon fill="#98fb98" stroke="black" points="503.03,-150.06 453.39,-162.5 403.75,-150.06 403.79,-129.94 502.98,-129.94 503.03,-150.06"/>
<text text-anchor="middle" x="453.39" y="-139.82" font-family="DejaVu Sans Mono" font-size="14.00">raise</text>
</g>
<!-- try&#45;&gt;raise -->
</g>
</svg>
