<?xml version="1.0" encoding="UTF-8" standalone="no"?>
<!DOCTYPE svg PUBLIC "-//W3C//DTD SVG 1.1//EN"
 "http://www.w3.org/Graphics/SVG/1.1/DTD/svg11.dtd">
<!-- Generated by graphviz version 9.0.0 (20230911.1827)
 -->
<!-- Title: cluster0loops&#45;00&#45;while_pos Pages: 1 -->
<svg width="826pt" height="415pt"
 viewBox="0.00 0.00 826.00 414.50" xmlns="http://www.w3.org/2000/svg" xmlns:xlink="http://www.w3.org/1999/xlink">
<g id="graph0" class="graph" transform="scale(1 1) rotate(0) translate(4 410.5)">
<title>cluster0loops&#45;00&#45;while_pos</title>
<polygon fill="white" stroke="none" points="-4,4 -4,-410.5 822,-410.5 822,4 -4,4"/>
<text text-anchor="middle" x="409" y="-7.95" font-family="DejaVu Sans Mono" font-size="14.00">loops&#45;00&#45;while_pos</text>
<g id="clust1" class="cluster">
<title>cluster_1</title>
<polygon fill="purple" stroke="purple" points="8,-171.5 8,-296 82,-296 82,-171.5 8,-171.5"/>
</g>
<g id="clust2" class="cluster">
<title>cluster_5</title>
<polygon fill="purple" stroke="purple" points="148,-33.25 148,-138.25 294,-138.25 294,-33.25 148,-33.25"/>
</g>
<g id="clust3" class="cluster">
<title>cluster_KEY</title>
<polygon fill="none" stroke="black" points="406,-171.5 406,-398.5 810,-398.5 810,-171.5 406,-171.5"/>
<text text-anchor="middle" x="608" y="-381.2" font-family="DejaVu Sans Mono" font-size="14.00">KEY</text>
</g>
<!-- 1 -->
<g id="node1" class="node">
<title>1</title>
<polygon fill="#fffb81" stroke="black" points="275.75,-365.25 12.25,-365.25 12.25,-329.25 275.75,-329.25 275.75,-365.25"/>
<text text-anchor="start" x="20.25" y="-342.57" font-family="DejaVu Sans Mono" font-size="14.00">user_input: int = int(input())</text>
</g>
<!-- 2 -->
<g id="node2" class="node">
<title>2</title>
<polygon fill="#e552ff" stroke="#e552ff" points="72,-288 30,-288 30,-292 18,-292 18,-252 72,-252 72,-288"/>
<polyline fill="none" stroke="#e552ff" points="18,-288 30,-288"/>
<text text-anchor="middle" x="45" y="-265.32" font-family="DejaVu Sans Mono" font-size="14.00">int</text>
</g>
<!-- 1&#45;&gt;2 -->
<g id="edge1" class="edge">
<title>1&#45;&gt;2</title>
<path fill="none" stroke="black" stroke-dasharray="5,2" d="M121.04,-328.8C107.92,-318.82 91.27,-306.17 76.89,-295.24"/>
<polygon fill="black" stroke="black" points="79.12,-292.54 69.04,-289.27 74.89,-298.11 79.12,-292.54"/>
<text text-anchor="middle" x="130.62" y="-307.95" font-family="DejaVu Sans Mono" font-size="14.00">calls</text>
</g>
<!-- 4 -->
<g id="node4" class="node">
<title>4</title>
<polygon fill="#ffbe52" stroke="black" points="396.29,-270 319.65,-288 166.35,-288 89.71,-270 166.35,-252 319.65,-252 396.29,-270"/>
<text text-anchor="start" x="141.74" y="-265.32" font-family="DejaVu Sans Mono" font-size="14.00">while 0 &lt; user_input:</text>
</g>
<!-- 1&#45;&gt;4 -->
<g id="edge8" class="edge">
<title>1&#45;&gt;4</title>
<path fill="none" stroke="black" d="M166.96,-328.8C180.08,-318.82 196.73,-306.17 211.11,-295.24"/>
<polygon fill="black" stroke="black" points="213.11,-298.11 218.96,-289.27 208.88,-292.54 213.11,-298.11"/>
</g>
<!-- 3 -->
<g id="node3" class="node">
<title>3</title>
<polygon fill="#e552ff" stroke="#e552ff" points="73.62,-215.5 28.38,-215.5 28.38,-219.5 16.37,-219.5 16.37,-179.5 73.62,-179.5 73.62,-215.5"/>
<polyline fill="none" stroke="#e552ff" points="16.37,-215.5 28.38,-215.5"/>
<text text-anchor="middle" x="45" y="-192.82" font-family="DejaVu Sans Mono" font-size="14.00">input</text>
</g>
<!-- 2&#45;&gt;3 -->
<g id="edge2" class="edge">
<title>2&#45;&gt;3</title>
<path fill="none" stroke="black" d="M45,-251.57C45,-244.23 45,-235.49 45,-227.24"/>
<polygon fill="black" stroke="black" points="48.5,-227.24 45,-217.24 41.5,-227.24 48.5,-227.24"/>
</g>
<!-- 5 -->
<g id="node5" class="node">
<title>5</title>
<polygon fill="#fffb81" stroke="black" points="334.12,-218.75 111.88,-218.75 111.88,-176.25 334.12,-176.25 334.12,-218.75"/>
<text text-anchor="start" x="119.88" y="-201.45" font-family="DejaVu Sans Mono" font-size="14.00">print(user_input)</text>
<text text-anchor="start" x="119.88" y="-184.2" font-family="DejaVu Sans Mono" font-size="14.00">user_input = int(input())</text>
</g>
<!-- 4&#45;&gt;5 -->
<g id="edge7" class="edge">
<title>4&#45;&gt;5</title>
<path fill="none" stroke="green" d="M171.75,-251.72C169.06,-249.45 166.61,-246.89 164.5,-244 161.18,-239.45 160.54,-235.78 164.59,-228.5"/>
<polygon fill="green" stroke="green" points="167.47,-230.5 170.09,-220.24 161.64,-226.63 167.47,-230.5"/>
<text text-anchor="middle" x="222.75" y="-230.7" font-family="DejaVu Sans Mono" font-size="14.00">0 &lt; user_input</text>
</g>
<!-- 5&#45;&gt;4 -->
<g id="edge6" class="edge">
<title>5&#45;&gt;4</title>
<path fill="none" stroke="black" d="M277.53,-219.02C279.99,-221.33 282.18,-223.9 284,-226.75 287.03,-231.49 287.63,-234.97 283.81,-242.24"/>
<polygon fill="black" stroke="black" points="280.94,-240.23 278.62,-250.57 286.88,-243.93 280.94,-240.23"/>
</g>
<!-- 7 -->
<g id="node6" class="node">
<title>7</title>
<polygon fill="#e552ff" stroke="#e552ff" points="213.62,-130.25 168.38,-130.25 168.38,-134.25 156.38,-134.25 156.38,-94.25 213.62,-94.25 213.62,-130.25"/>
<polyline fill="none" stroke="#e552ff" points="156.38,-130.25 168.38,-130.25"/>
<text text-anchor="middle" x="185" y="-107.58" font-family="DejaVu Sans Mono" font-size="14.00">print</text>
</g>
<!-- 5&#45;&gt;7 -->
<g id="edge3" class="edge">
<title>5&#45;&gt;7</title>
<path fill="none" stroke="black" stroke-dasharray="5,2" d="M200,-175.97C196.78,-172.13 193.86,-167.91 191.75,-163.5 188.55,-156.81 186.73,-149.07 185.72,-141.71"/>
<polygon fill="black" stroke="black" points="189.21,-141.44 184.84,-131.79 182.24,-142.06 189.21,-141.44"/>
<text text-anchor="middle" x="212.62" y="-150.2" font-family="DejaVu Sans Mono" font-size="14.00">calls</text>
</g>
<!-- 8 -->
<g id="node7" class="node">
<title>8</title>
<polygon fill="#e552ff" stroke="#e552ff" points="286,-130.25 244,-130.25 244,-134.25 232,-134.25 232,-94.25 286,-94.25 286,-130.25"/>
<polyline fill="none" stroke="#e552ff" points="232,-130.25 244,-130.25"/>
<text text-anchor="middle" x="259" y="-107.58" font-family="DejaVu Sans Mono" font-size="14.00">int</text>
</g>
<!-- 5&#45;&gt;8 -->
<g id="edge4" class="edge">
<title>5&#45;&gt;8</title>
<path fill="none" stroke="black" stroke-dasharray="5,2" d="M231.9,-175.92C236.47,-165.34 242.12,-152.3 247.06,-140.85"/>
<polygon fill="black" stroke="black" points="250.18,-142.46 250.94,-131.89 243.76,-139.68 250.18,-142.46"/>
<text text-anchor="middle" x="264.62" y="-150.2" font-family="DejaVu Sans Mono" font-size="14.00">calls</text>
</g>
<!-- 9 -->
<g id="node8" class="node">
<title>9</title>
<polygon fill="#e552ff" stroke="#e552ff" points="285.62,-77.25 240.38,-77.25 240.38,-81.25 228.38,-81.25 228.38,-41.25 285.62,-41.25 285.62,-77.25"/>
<polyline fill="none" stroke="#e552ff" points="228.38,-77.25 240.38,-77.25"/>
<text text-anchor="middle" x="257" y="-54.58" font-family="DejaVu Sans Mono" font-size="14.00">input</text>
</g>
<!-- 8&#45;&gt;9 -->
<g id="edge5" class="edge">
<title>8&#45;&gt;9</title>
<path fill="none" stroke="black" d="M258.32,-93.98C258.26,-92.32 258.19,-90.61 258.12,-88.87"/>
<polygon fill="black" stroke="black" points="261.62,-88.87 257.74,-79.01 254.63,-89.14 261.62,-88.87"/>
</g>
<!-- input -->
<g id="node9" class="node">
<title>input</title>
<polygon fill="#afeeee" stroke="black" points="801.88,-288 708.21,-288 684.12,-252 777.79,-252 801.88,-288"/>
<text text-anchor="middle" x="743" y="-265.32" font-family="DejaVu Sans Mono" font-size="14.00">input</text>
</g>
<!-- call -->
<g id="node14" class="node">
<title>call</title>
<polygon fill="#e552ff" stroke="black" points="770,-215.5 728,-215.5 728,-219.5 716,-219.5 716,-179.5 770,-179.5 770,-215.5"/>
<polyline fill="none" stroke="black" points="716,-215.5 728,-215.5"/>
<text text-anchor="middle" x="743" y="-192.82" font-family="DejaVu Sans Mono" font-size="14.00">call</text>
</g>
<!-- input&#45;&gt;call -->
<!-- default -->
<g id="node10" class="node">
<title>default</title>
<polygon fill="#fffb81" stroke="black" points="635.88,-215.5 562.12,-215.5 562.12,-179.5 635.88,-179.5 635.88,-215.5"/>
<text text-anchor="middle" x="599" y="-192.82" font-family="DejaVu Sans Mono" font-size="14.00">default</text>
</g>
<!-- if -->
<g id="node11" class="node">
<title>if</title>
<polygon fill="#ff6752" stroke="black" points="743,-365.25 710.76,-347.25 743,-329.25 775.24,-347.25 743,-365.25"/>
<text text-anchor="middle" x="743" y="-342.57" font-family="DejaVu Sans Mono" font-size="14.00">if</text>
</g>
<!-- if&#45;&gt;input -->
<!-- for -->
<g id="node12" class="node">
<title>for</title>
<polygon fill="#ffbe52" stroke="black" points="691.01,-347.25 674.5,-365.25 641.5,-365.25 624.99,-347.25 641.5,-329.25 674.5,-329.25 691.01,-347.25"/>
<text text-anchor="middle" x="658" y="-342.57" font-family="DejaVu Sans Mono" font-size="14.00">for</text>
</g>
<!-- return -->
<g id="node15" class="node">
<title>return</title>
<polygon fill="#98fb98" stroke="black" points="666.37,-288 559.2,-288 531.63,-252 638.8,-252 666.37,-288"/>
<text text-anchor="middle" x="599" y="-265.32" font-family="DejaVu Sans Mono" font-size="14.00">return</text>
</g>
<!-- for&#45;&gt;return -->
<!-- while -->
<g id="node13" class="node">
<title>while</title>
<polygon fill="#ffbe52" stroke="black" points="607.37,-347.25 584.19,-365.25 537.81,-365.25 514.63,-347.25 537.81,-329.25 584.19,-329.25 607.37,-347.25"/>
<text text-anchor="middle" x="561" y="-342.57" font-family="DejaVu Sans Mono" font-size="14.00">while</text>
</g>
<!-- return&#45;&gt;default -->
<!-- try -->
<g id="node16" class="node">
<title>try</title>
<polygon fill="orange" stroke="black" points="456,-365.25 415.57,-347.25 456,-329.25 496.43,-347.25 456,-365.25"/>
<polyline fill="none" stroke="black" points="426.54,-352.13 426.54,-342.37"/>
<polyline fill="none" stroke="black" points="445.04,-334.13 466.96,-334.13"/>
<polyline fill="none" stroke="black" points="485.46,-342.37 485.46,-352.13"/>
<polyline fill="none" stroke="black" points="466.96,-360.37 445.04,-360.37"/>
<text text-anchor="middle" x="456" y="-342.57" font-family="DejaVu Sans Mono" font-size="14.00">try</text>
</g>
<!-- raise -->
<g id="node17" class="node">
<title>raise</title>
<polygon fill="#98fb98" stroke="black" points="513.64,-275.56 464,-288 414.36,-275.56 414.41,-255.44 513.59,-255.44 513.64,-275.56"/>
<text text-anchor="middle" x="464" y="-265.32" font-family="DejaVu Sans Mono" font-size="14.00">raise</text>
</g>
<!-- try&#45;&gt;raise -->
</g>
</svg>
