<?xml version="1.0" encoding="UTF-8" standalone="no"?>
<!DOCTYPE svg PUBLIC "-//W3C//DTD SVG 1.1//EN"
 "http://www.w3.org/Graphics/SVG/1.1/DTD/svg11.dtd">
<!-- Generated by graphviz version 9.0.0 (20230911.1827)
 -->
<!-- Title: cluster0loops&#45;10&#45;caesar&#45;while Pages: 1 -->
<svg width="1618pt" height="812pt"
 viewBox="0.00 0.00 1618.00 812.25" xmlns="http://www.w3.org/2000/svg" xmlns:xlink="http://www.w3.org/1999/xlink">
<g id="graph0" class="graph" transform="scale(1 1) rotate(0) translate(4 808.25)">
<title>cluster0loops&#45;10&#45;caesar&#45;while</title>
<polygon fill="white" stroke="none" points="-4,4 -4,-808.25 1614,-808.25 1614,4 -4,4"/>
<text text-anchor="middle" x="805" y="-7.95" font-family="DejaVu Sans Mono" font-size="14.00">loops&#45;10&#45;caesar&#45;while</text>
<g id="clust1" class="cluster">
<title>cluster_1</title>
<polygon fill="purple" stroke="purple" points="8,-422.88 8,-556 598,-556 598,-422.88 8,-422.88"/>
</g>
<g id="clust2" class="cluster">
<title>cluster_15</title>
<polygon fill="purple" stroke="purple" points="529,-333.75 529,-385.75 603,-385.75 603,-333.75 529,-333.75"/>
</g>
<g id="clust3" class="cluster">
<title>cluster_19</title>
<polygon fill="purple" stroke="purple" points="378,-175.38 378,-227.38 452,-227.38 452,-175.38 378,-175.38"/>
</g>
<g id="clust4" class="cluster">
<title>cluster_20</title>
<polygon fill="purple" stroke="purple" points="645,-33.25 645,-138.25 791,-138.25 791,-33.25 645,-33.25"/>
</g>
<g id="clust5" class="cluster">
<title>cluster_21</title>
<polygon fill="purple" stroke="purple" points="982,-175.38 982,-227.38 1056,-227.38 1056,-175.38 982,-175.38"/>
</g>
<g id="clust6" class="cluster">
<title>cluster_16</title>
<polygon fill="purple" stroke="purple" points="1025,-333.75 1025,-385.75 1099,-385.75 1099,-333.75 1025,-333.75"/>
</g>
<g id="clust7" class="cluster">
<title>cluster_KEY</title>
<polygon fill="none" stroke="black" points="1198,-422.88 1198,-748 1602,-748 1602,-422.88 1198,-422.88"/>
<text text-anchor="middle" x="1400" y="-730.7" font-family="DejaVu Sans Mono" font-size="14.00">KEY</text>
</g>
<!-- 1 -->
<g id="node1" class="node">
<title>1</title>
<polygon fill="#fffb81" stroke="black" points="594.5,-804.25 83.5,-804.25 83.5,-589.25 594.5,-589.25 594.5,-804.25"/>
<text text-anchor="start" x="91.5" y="-786.95" font-family="DejaVu Sans Mono" font-size="14.00">print(&quot;&quot;&quot;</text>
<text text-anchor="start" x="91.5" y="-769.7" font-family="DejaVu Sans Mono" font-size="14.00">Enter your Caesar key in numeric form (1&#45;25): &quot;&quot;&quot;)</text>
<text text-anchor="start" x="91.5" y="-752.45" font-family="DejaVu Sans Mono" font-size="14.00">key: int = int(input())</text>
<text text-anchor="start" x="91.5" y="-735.2" font-family="DejaVu Sans Mono" font-size="14.00">print(&quot;&quot;&quot;</text>
<text text-anchor="start" x="91.5" y="-717.95" font-family="DejaVu Sans Mono" font-size="14.00">Enter 1 for encryption, and 0 for decryption: &quot;&quot;&quot;)</text>
<text text-anchor="start" x="91.5" y="-700.7" font-family="DejaVu Sans Mono" font-size="14.00">mode: int = int(input())</text>
<text text-anchor="start" x="91.5" y="-683.45" font-family="DejaVu Sans Mono" font-size="14.00">print(&quot;&quot;&quot;</text>
<text text-anchor="start" x="91.5" y="-666.2" font-family="DejaVu Sans Mono" font-size="14.00">Type in the first letter of your message, and hit enter:&quot;&quot;&quot;)</text>
<text text-anchor="start" x="91.5" y="-648.95" font-family="DejaVu Sans Mono" font-size="14.00">character: int = int(input())</text>
<text text-anchor="start" x="91.5" y="-631.7" font-family="DejaVu Sans Mono" font-size="14.00">print(&quot;&quot;&quot;</text>
<text text-anchor="start" x="91.5" y="-614.45" font-family="DejaVu Sans Mono" font-size="14.00">Now type in your next character to decrypt, &#45;1 for done&quot;&quot;&quot;)</text>
<text text-anchor="start" x="91.5" y="-597.2" font-family="DejaVu Sans Mono" font-size="14.00">character = int(input())</text>
</g>
<!-- 2 -->
<g id="node2" class="node">
<title>2</title>
<polygon fill="#e552ff" stroke="#e552ff" points="589.62,-548 544.38,-548 544.38,-552 532.38,-552 532.38,-512 589.62,-512 589.62,-548"/>
<polyline fill="none" stroke="#e552ff" points="532.38,-548 544.38,-548"/>
<text text-anchor="middle" x="561" y="-525.33" font-family="DejaVu Sans Mono" font-size="14.00">print</text>
</g>
<!-- 1&#45;&gt;2 -->
<g id="edge1" class="edge">
<title>1&#45;&gt;2</title>
<path fill="none" stroke="black" stroke-dasharray="5,2" d="M491.04,-588.85C494.4,-586.31 497.73,-583.77 501,-581.25 511.47,-573.19 522.64,-564 532.47,-555.71"/>
<polygon fill="black" stroke="black" points="534.56,-558.52 539.91,-549.38 530.03,-553.19 534.56,-558.52"/>
<text text-anchor="middle" x="541.62" y="-567.95" font-family="DejaVu Sans Mono" font-size="14.00">calls</text>
</g>
<!-- 3 -->
<g id="node3" class="node">
<title>3</title>
<polygon fill="#e552ff" stroke="#e552ff" points="70,-548 28,-548 28,-552 16,-552 16,-512 70,-512 70,-548"/>
<polyline fill="none" stroke="#e552ff" points="16,-548 28,-548"/>
<text text-anchor="middle" x="43" y="-525.33" font-family="DejaVu Sans Mono" font-size="14.00">int</text>
</g>
<!-- 1&#45;&gt;3 -->
<g id="edge2" class="edge">
<title>1&#45;&gt;3</title>
<path fill="none" stroke="black" stroke-dasharray="5,2" d="M123.39,-588.89C119.12,-586.35 114.9,-583.81 110.75,-581.25 98.08,-573.46 84.8,-563.94 73.39,-555.29"/>
<polygon fill="black" stroke="black" points="75.55,-552.54 65.5,-549.21 71.28,-558.08 75.55,-552.54"/>
<text text-anchor="middle" x="131.62" y="-567.95" font-family="DejaVu Sans Mono" font-size="14.00">calls</text>
</g>
<!-- 5 -->
<g id="node4" class="node">
<title>5</title>
<polygon fill="#e552ff" stroke="#e552ff" points="145.62,-548 100.38,-548 100.38,-552 88.38,-552 88.38,-512 145.62,-512 145.62,-548"/>
<polyline fill="none" stroke="#e552ff" points="88.38,-548 100.38,-548"/>
<text text-anchor="middle" x="117" y="-525.33" font-family="DejaVu Sans Mono" font-size="14.00">print</text>
</g>
<!-- 1&#45;&gt;5 -->
<g id="edge3" class="edge">
<title>1&#45;&gt;5</title>
<path fill="none" stroke="black" stroke-dasharray="5,2" d="M184.76,-588.97C181.38,-586.39 178.04,-583.82 174.75,-581.25 164.59,-573.32 153.83,-564.19 144.4,-555.9"/>
<polygon fill="black" stroke="black" points="146.75,-553.31 136.95,-549.28 142.1,-558.54 146.75,-553.31"/>
<text text-anchor="middle" x="194.62" y="-567.95" font-family="DejaVu Sans Mono" font-size="14.00">calls</text>
</g>
<!-- 6 -->
<g id="node5" class="node">
<title>6</title>
<polygon fill="#e552ff" stroke="#e552ff" points="218,-548 176,-548 176,-552 164,-552 164,-512 218,-512 218,-548"/>
<polyline fill="none" stroke="#e552ff" points="164,-548 176,-548"/>
<text text-anchor="middle" x="191" y="-525.33" font-family="DejaVu Sans Mono" font-size="14.00">int</text>
</g>
<!-- 1&#45;&gt;6 -->
<g id="edge4" class="edge">
<title>1&#45;&gt;6</title>
<path fill="none" stroke="black" stroke-dasharray="5,2" d="M241.54,-588.85C239.25,-586.3 236.98,-583.76 234.75,-581.25 227.71,-573.34 220.11,-564.66 213.25,-556.78"/>
<polygon fill="black" stroke="black" points="216.08,-554.7 206.88,-549.44 210.79,-559.28 216.08,-554.7"/>
<text text-anchor="middle" x="254.62" y="-567.95" font-family="DejaVu Sans Mono" font-size="14.00">calls</text>
</g>
<!-- 8 -->
<g id="node6" class="node">
<title>8</title>
<polygon fill="#e552ff" stroke="#e552ff" points="293.62,-548 248.38,-548 248.38,-552 236.38,-552 236.38,-512 293.62,-512 293.62,-548"/>
<polyline fill="none" stroke="#e552ff" points="236.38,-548 248.38,-548"/>
<text text-anchor="middle" x="265" y="-525.33" font-family="DejaVu Sans Mono" font-size="14.00">print</text>
</g>
<!-- 1&#45;&gt;8 -->
<g id="edge5" class="edge">
<title>1&#45;&gt;8</title>
<path fill="none" stroke="black" stroke-dasharray="5,2" d="M291.09,-589.08C286.13,-578.04 281.45,-567.63 277.47,-558.76"/>
<polygon fill="black" stroke="black" points="280.73,-557.48 273.44,-549.79 274.35,-560.35 280.73,-557.48"/>
<text text-anchor="middle" x="306.62" y="-567.95" font-family="DejaVu Sans Mono" font-size="14.00">calls</text>
</g>
<!-- 9 -->
<g id="node7" class="node">
<title>9</title>
<polygon fill="#e552ff" stroke="#e552ff" points="366,-548 324,-548 324,-552 312,-552 312,-512 366,-512 366,-548"/>
<polyline fill="none" stroke="#e552ff" points="312,-548 324,-548"/>
<text text-anchor="middle" x="339" y="-525.33" font-family="DejaVu Sans Mono" font-size="14.00">int</text>
</g>
<!-- 1&#45;&gt;9 -->
<g id="edge6" class="edge">
<title>1&#45;&gt;9</title>
<path fill="none" stroke="black" stroke-dasharray="5,2" d="M339,-589.08C339,-578.4 339,-568.32 339,-559.65"/>
<polygon fill="black" stroke="black" points="342.5,-559.93 339,-549.93 335.5,-559.93 342.5,-559.93"/>
<text text-anchor="middle" x="359.62" y="-567.95" font-family="DejaVu Sans Mono" font-size="14.00">calls</text>
</g>
<!-- 11 -->
<g id="node8" class="node">
<title>11</title>
<polygon fill="#e552ff" stroke="#e552ff" points="441.62,-548 396.38,-548 396.38,-552 384.38,-552 384.38,-512 441.62,-512 441.62,-548"/>
<polyline fill="none" stroke="#e552ff" points="384.38,-548 396.38,-548"/>
<text text-anchor="middle" x="413" y="-525.33" font-family="DejaVu Sans Mono" font-size="14.00">print</text>
</g>
<!-- 1&#45;&gt;11 -->
<g id="edge7" class="edge">
<title>1&#45;&gt;11</title>
<path fill="none" stroke="black" stroke-dasharray="5,2" d="M386.91,-589.08C391.87,-578.04 396.55,-567.63 400.53,-558.76"/>
<polygon fill="black" stroke="black" points="403.65,-560.35 404.56,-549.79 397.27,-557.48 403.65,-560.35"/>
<text text-anchor="middle" x="417.62" y="-567.95" font-family="DejaVu Sans Mono" font-size="14.00">calls</text>
</g>
<!-- 12 -->
<g id="node9" class="node">
<title>12</title>
<polygon fill="#e552ff" stroke="#e552ff" points="514,-548 472,-548 472,-552 460,-552 460,-512 514,-512 514,-548"/>
<polyline fill="none" stroke="#e552ff" points="460,-548 472,-548"/>
<text text-anchor="middle" x="487" y="-525.33" font-family="DejaVu Sans Mono" font-size="14.00">int</text>
</g>
<!-- 1&#45;&gt;12 -->
<g id="edge8" class="edge">
<title>1&#45;&gt;12</title>
<path fill="none" stroke="black" stroke-dasharray="5,2" d="M435.23,-588.79C437.51,-586.25 439.77,-583.74 442,-581.25 449.16,-573.27 456.96,-564.57 464.01,-556.69"/>
<polygon fill="black" stroke="black" points="466.53,-559.13 470.59,-549.35 461.31,-554.46 466.53,-559.13"/>
<text text-anchor="middle" x="476.62" y="-567.95" font-family="DejaVu Sans Mono" font-size="14.00">calls</text>
</g>
<!-- 14 -->
<g id="node14" class="node">
<title>14</title>
<polygon fill="#ffbe52" stroke="black" points="996.97,-530 916.99,-548 757.01,-548 677.03,-530 757.01,-512 916.99,-512 996.97,-530"/>
<text text-anchor="start" x="730.97" y="-525.33" font-family="DejaVu Sans Mono" font-size="14.00">while character != &#45;1:</text>
</g>
<!-- 1&#45;&gt;14 -->
<g id="edge28" class="edge">
<title>1&#45;&gt;14</title>
<path fill="none" stroke="black" d="M594.93,-611.08C661.41,-589.09 727.23,-567.31 773.42,-552.03"/>
<polygon fill="black" stroke="black" points="774.31,-555.43 782.7,-548.96 772.11,-548.78 774.31,-555.43"/>
</g>
<!-- 4 -->
<g id="node10" class="node">
<title>4</title>
<polygon fill="#e552ff" stroke="#e552ff" points="73.62,-466.88 28.38,-466.88 28.38,-470.88 16.37,-470.88 16.37,-430.88 73.62,-430.88 73.62,-466.88"/>
<polyline fill="none" stroke="#e552ff" points="16.37,-466.88 28.38,-466.88"/>
<text text-anchor="middle" x="45" y="-444.2" font-family="DejaVu Sans Mono" font-size="14.00">input</text>
</g>
<!-- 3&#45;&gt;4 -->
<g id="edge9" class="edge">
<title>3&#45;&gt;4</title>
<path fill="none" stroke="black" d="M43.43,-511.83C43.68,-502.15 43.99,-489.8 44.27,-478.68"/>
<polygon fill="black" stroke="black" points="47.77,-478.88 44.52,-468.8 40.77,-478.71 47.77,-478.88"/>
</g>
<!-- 7 -->
<g id="node11" class="node">
<title>7</title>
<polygon fill="#e552ff" stroke="#e552ff" points="219.62,-466.88 174.38,-466.88 174.38,-470.88 162.38,-470.88 162.38,-430.88 219.62,-430.88 219.62,-466.88"/>
<polyline fill="none" stroke="#e552ff" points="162.38,-466.88 174.38,-466.88"/>
<text text-anchor="middle" x="191" y="-444.2" font-family="DejaVu Sans Mono" font-size="14.00">input</text>
</g>
<!-- 6&#45;&gt;7 -->
<g id="edge10" class="edge">
<title>6&#45;&gt;7</title>
<path fill="none" stroke="black" d="M191,-511.83C191,-502.15 191,-489.8 191,-478.68"/>
<polygon fill="black" stroke="black" points="194.5,-478.8 191,-468.8 187.5,-478.8 194.5,-478.8"/>
</g>
<!-- 10 -->
<g id="node12" class="node">
<title>10</title>
<polygon fill="#e552ff" stroke="#e552ff" points="367.62,-466.88 322.38,-466.88 322.38,-470.88 310.38,-470.88 310.38,-430.88 367.62,-430.88 367.62,-466.88"/>
<polyline fill="none" stroke="#e552ff" points="310.38,-466.88 322.38,-466.88"/>
<text text-anchor="middle" x="339" y="-444.2" font-family="DejaVu Sans Mono" font-size="14.00">input</text>
</g>
<!-- 9&#45;&gt;10 -->
<g id="edge11" class="edge">
<title>9&#45;&gt;10</title>
<path fill="none" stroke="black" d="M339,-511.83C339,-502.15 339,-489.8 339,-478.68"/>
<polygon fill="black" stroke="black" points="342.5,-478.8 339,-468.8 335.5,-478.8 342.5,-478.8"/>
</g>
<!-- 13 -->
<g id="node13" class="node">
<title>13</title>
<polygon fill="#e552ff" stroke="#e552ff" points="515.62,-466.88 470.38,-466.88 470.38,-470.88 458.38,-470.88 458.38,-430.88 515.62,-430.88 515.62,-466.88"/>
<polyline fill="none" stroke="#e552ff" points="458.38,-466.88 470.38,-466.88"/>
<text text-anchor="middle" x="487" y="-444.2" font-family="DejaVu Sans Mono" font-size="14.00">input</text>
</g>
<!-- 12&#45;&gt;13 -->
<g id="edge12" class="edge">
<title>12&#45;&gt;13</title>
<path fill="none" stroke="black" d="M487,-511.83C487,-502.15 487,-489.8 487,-478.68"/>
<polygon fill="black" stroke="black" points="490.5,-478.8 487,-468.8 483.5,-478.8 490.5,-478.8"/>
</g>
<!-- 15 -->
<g id="node15" class="node">
<title>15</title>
<polygon fill="#fffb81" stroke="black" points="877.88,-466.88 606.12,-466.88 606.12,-430.88 877.88,-430.88 877.88,-466.88"/>
<text text-anchor="start" x="614.12" y="-444.2" font-family="DejaVu Sans Mono" font-size="14.00">print(&#39;tYour letter transl...&#39;)</text>
</g>
<!-- 14&#45;&gt;15 -->
<g id="edge25" class="edge">
<title>14&#45;&gt;15</title>
<path fill="none" stroke="green" d="M778.47,-511.53C774.81,-509.31 771.36,-506.81 768.25,-504 760.5,-497.01 754.8,-487.23 750.74,-477.91"/>
<polygon fill="green" stroke="green" points="754.08,-476.86 747.23,-468.78 747.55,-479.37 754.08,-476.86"/>
<text text-anchor="middle" x="829.88" y="-490.7" font-family="DejaVu Sans Mono" font-size="14.00">character != &#45;1</text>
</g>
<!-- 16 -->
<g id="node26" class="node">
<title>16</title>
<polygon fill="#fffb81" stroke="black" points="1189.62,-478.75 934.38,-478.75 934.38,-419 1189.62,-419 1189.62,-478.75"/>
<text text-anchor="start" x="942.38" y="-461.45" font-family="DejaVu Sans Mono" font-size="14.00">print(&quot;&quot;&quot;</text>
<text text-anchor="start" x="942.38" y="-444.2" font-family="DejaVu Sans Mono" font-size="14.00">end of Caesar encoded message</text>
<text text-anchor="start" x="942.38" y="-426.95" font-family="DejaVu Sans Mono" font-size="14.00">&quot;&quot;&quot;)</text>
</g>
<!-- 14&#45;&gt;16 -->
<g id="edge27" class="edge">
<title>14&#45;&gt;16</title>
<path fill="none" stroke="red" d="M896.56,-511.62C904.47,-509.15 912.45,-506.57 920,-504 938.77,-497.6 958.76,-490.3 977.64,-483.17"/>
<polygon fill="red" stroke="red" points="978.78,-486.48 986.88,-479.65 976.29,-479.94 978.78,-486.48"/>
<text text-anchor="middle" x="1037.12" y="-490.7" font-family="DejaVu Sans Mono" font-size="14.00">(character == &#45;1)</text>
</g>
<!-- 17 -->
<g id="node16" class="node">
<title>17</title>
<polygon fill="#e552ff" stroke="#e552ff" points="594.62,-377.75 549.38,-377.75 549.38,-381.75 537.38,-381.75 537.38,-341.75 594.62,-341.75 594.62,-377.75"/>
<polyline fill="none" stroke="#e552ff" points="537.38,-377.75 549.38,-377.75"/>
<text text-anchor="middle" x="566" y="-355.07" font-family="DejaVu Sans Mono" font-size="14.00">print</text>
</g>
<!-- 15&#45;&gt;17 -->
<g id="edge13" class="edge">
<title>15&#45;&gt;17</title>
<path fill="none" stroke="black" stroke-dasharray="5,2" d="M698.56,-430.42C670.95,-418.81 634.74,-402.64 604,-385.75 602.93,-385.16 601.85,-384.55 600.76,-383.93"/>
<polygon fill="black" stroke="black" points="602.66,-380.98 592.29,-378.78 599.02,-386.97 602.66,-380.98"/>
<text text-anchor="middle" x="672.62" y="-397.7" font-family="DejaVu Sans Mono" font-size="14.00">calls</text>
</g>
<!-- 18 -->
<g id="node17" class="node">
<title>18</title>
<polygon fill="#ff6752" stroke="black" points="735,-377.75 612.73,-359.75 735,-341.75 857.27,-359.75 735,-377.75"/>
<text text-anchor="start" x="655.85" y="-355.07" font-family="DejaVu Sans Mono" font-size="14.00">if mode == 1:</text>
</g>
<!-- 15&#45;&gt;18 -->
<g id="edge24" class="edge">
<title>15&#45;&gt;18</title>
<path fill="none" stroke="black" d="M740.62,-430.66C739.67,-418.85 738.39,-402.89 737.29,-389.21"/>
<polygon fill="black" stroke="black" points="740.79,-389.12 736.5,-379.44 733.81,-389.68 740.79,-389.12"/>
</g>
<!-- 19 -->
<g id="node18" class="node">
<title>19</title>
<polygon fill="#fffb81" stroke="black" points="563.25,-300.5 266.75,-300.5 266.75,-264.5 563.25,-264.5 563.25,-300.5"/>
<text text-anchor="start" x="274.75" y="-277.82" font-family="DejaVu Sans Mono" font-size="14.00">print(&#39;t&#39;, (character + key) % 26)</text>
</g>
<!-- 18&#45;&gt;19 -->
<g id="edge20" class="edge">
<title>18&#45;&gt;19</title>
<path fill="none" stroke="green" d="M689.49,-348.05C640.43,-336.51 561.22,-317.89 500.47,-303.6"/>
<polygon fill="green" stroke="green" points="501.36,-300.21 490.83,-301.33 499.76,-307.03 501.36,-300.21"/>
<text text-anchor="middle" x="631.12" y="-312.45" font-family="DejaVu Sans Mono" font-size="14.00">mode == 1</text>
</g>
<!-- 21 -->
<g id="node24" class="node">
<title>21</title>
<polygon fill="#fffb81" stroke="black" points="878.25,-300.5 581.75,-300.5 581.75,-264.5 878.25,-264.5 878.25,-300.5"/>
<text text-anchor="start" x="589.75" y="-277.82" font-family="DejaVu Sans Mono" font-size="14.00">print(&#39;t&#39;, (character &#45; key) % 26)</text>
</g>
<!-- 18&#45;&gt;21 -->
<g id="edge23" class="edge">
<title>18&#45;&gt;21</title>
<path fill="none" stroke="red" d="M733.87,-341.67C733.29,-332.98 732.57,-322.18 731.91,-312.25"/>
<polygon fill="red" stroke="red" points="735.4,-312.02 731.25,-302.28 728.42,-312.49 735.4,-312.02"/>
<text text-anchor="middle" x="777.38" y="-312.45" font-family="DejaVu Sans Mono" font-size="14.00">(mode != 1)</text>
</g>
<!-- 23 -->
<g id="node19" class="node">
<title>23</title>
<polygon fill="#e552ff" stroke="#e552ff" points="443.62,-219.38 398.38,-219.38 398.38,-223.38 386.38,-223.38 386.38,-183.38 443.62,-183.38 443.62,-219.38"/>
<polyline fill="none" stroke="#e552ff" points="386.38,-219.38 398.38,-219.38"/>
<text text-anchor="middle" x="415" y="-196.7" font-family="DejaVu Sans Mono" font-size="14.00">print</text>
</g>
<!-- 19&#45;&gt;23 -->
<g id="edge14" class="edge">
<title>19&#45;&gt;23</title>
<path fill="none" stroke="black" stroke-dasharray="5,2" d="M415,-264.33C415,-254.65 415,-242.3 415,-231.18"/>
<polygon fill="black" stroke="black" points="418.5,-231.3 415,-221.3 411.5,-231.3 418.5,-231.3"/>
<text text-anchor="middle" x="435.62" y="-243.2" font-family="DejaVu Sans Mono" font-size="14.00">calls</text>
</g>
<!-- 20 -->
<g id="node20" class="node">
<title>20</title>
<polygon fill="#fffb81" stroke="black" points="972.38,-231.25 469.62,-231.25 469.62,-171.5 972.38,-171.5 972.38,-231.25"/>
<text text-anchor="start" x="477.62" y="-213.95" font-family="DejaVu Sans Mono" font-size="14.00">print(&quot;&quot;&quot;</text>
<text text-anchor="start" x="477.62" y="-196.7" font-family="DejaVu Sans Mono" font-size="14.00">Now type in your next character to decrypt, &#45;1 for done&quot;&quot;&quot;)</text>
<text text-anchor="start" x="477.62" y="-179.45" font-family="DejaVu Sans Mono" font-size="14.00">character = int(input())</text>
</g>
<!-- 19&#45;&gt;20 -->
<g id="edge19" class="edge">
<title>19&#45;&gt;20</title>
<path fill="none" stroke="black" d="M482.53,-264.04C516.07,-255.36 557.69,-244.6 596.71,-234.51"/>
<polygon fill="black" stroke="black" points="597.37,-237.96 606.18,-232.07 595.62,-231.18 597.37,-237.96"/>
</g>
<!-- 20&#45;&gt;14 -->
<g id="edge18" class="edge">
<title>20&#45;&gt;14</title>
<path fill="none" stroke="black" d="M879.66,-231.66C884.8,-234.03 889.01,-236.56 892,-239.25 906.72,-252.47 906,-261.72 906,-281.5 906,-449.88 906,-449.88 906,-449.88 906,-471.81 907.54,-482.37 891.35,-502.84"/>
<polygon fill="black" stroke="black" points="888.72,-500.52 884.9,-510.41 894.05,-505.06 888.72,-500.52"/>
</g>
<!-- 24 -->
<g id="node21" class="node">
<title>24</title>
<polygon fill="#e552ff" stroke="#e552ff" points="710.62,-130.25 665.38,-130.25 665.38,-134.25 653.38,-134.25 653.38,-94.25 710.62,-94.25 710.62,-130.25"/>
<polyline fill="none" stroke="#e552ff" points="653.38,-130.25 665.38,-130.25"/>
<text text-anchor="middle" x="682" y="-107.58" font-family="DejaVu Sans Mono" font-size="14.00">print</text>
</g>
<!-- 20&#45;&gt;24 -->
<g id="edge15" class="edge">
<title>20&#45;&gt;24</title>
<path fill="none" stroke="black" stroke-dasharray="5,2" d="M694.86,-171.05C693.32,-168.59 691.92,-166.06 690.75,-163.5 687.69,-156.82 685.69,-149.19 684.39,-141.92"/>
<polygon fill="black" stroke="black" points="687.88,-141.57 683.04,-132.15 680.94,-142.53 687.88,-141.57"/>
<text text-anchor="middle" x="710.62" y="-150.2" font-family="DejaVu Sans Mono" font-size="14.00">calls</text>
</g>
<!-- 25 -->
<g id="node22" class="node">
<title>25</title>
<polygon fill="#e552ff" stroke="#e552ff" points="783,-130.25 741,-130.25 741,-134.25 729,-134.25 729,-94.25 783,-94.25 783,-130.25"/>
<polyline fill="none" stroke="#e552ff" points="729,-130.25 741,-130.25"/>
<text text-anchor="middle" x="756" y="-107.58" font-family="DejaVu Sans Mono" font-size="14.00">int</text>
</g>
<!-- 20&#45;&gt;25 -->
<g id="edge16" class="edge">
<title>20&#45;&gt;25</title>
<path fill="none" stroke="black" stroke-dasharray="5,2" d="M732.65,-171.36C736.54,-161.69 740.86,-150.93 744.72,-141.32"/>
<polygon fill="black" stroke="black" points="747.94,-142.7 748.42,-132.12 741.45,-140.09 747.94,-142.7"/>
<text text-anchor="middle" x="762.62" y="-150.2" font-family="DejaVu Sans Mono" font-size="14.00">calls</text>
</g>
<!-- 26 -->
<g id="node23" class="node">
<title>26</title>
<polygon fill="#e552ff" stroke="#e552ff" points="782.62,-77.25 737.38,-77.25 737.38,-81.25 725.38,-81.25 725.38,-41.25 782.62,-41.25 782.62,-77.25"/>
<polyline fill="none" stroke="#e552ff" points="725.38,-77.25 737.38,-77.25"/>
<text text-anchor="middle" x="754" y="-54.58" font-family="DejaVu Sans Mono" font-size="14.00">input</text>
</g>
<!-- 25&#45;&gt;26 -->
<g id="edge17" class="edge">
<title>25&#45;&gt;26</title>
<path fill="none" stroke="black" d="M755.32,-93.98C755.26,-92.32 755.19,-90.61 755.12,-88.87"/>
<polygon fill="black" stroke="black" points="758.62,-88.87 754.74,-79.01 751.63,-89.14 758.62,-88.87"/>
</g>
<!-- 21&#45;&gt;20 -->
<g id="edge22" class="edge">
<title>21&#45;&gt;20</title>
<path fill="none" stroke="black" d="M728.05,-264.33C727.33,-257.99 726.48,-250.51 725.62,-242.98"/>
<polygon fill="black" stroke="black" points="729.11,-242.69 724.5,-233.15 722.15,-243.49 729.11,-242.69"/>
</g>
<!-- 22 -->
<g id="node25" class="node">
<title>22</title>
<polygon fill="#e552ff" stroke="#e552ff" points="1047.62,-219.38 1002.38,-219.38 1002.38,-223.38 990.38,-223.38 990.38,-183.38 1047.62,-183.38 1047.62,-219.38"/>
<polyline fill="none" stroke="#e552ff" points="990.38,-219.38 1002.38,-219.38"/>
<text text-anchor="middle" x="1019" y="-196.7" font-family="DejaVu Sans Mono" font-size="14.00">print</text>
</g>
<!-- 21&#45;&gt;22 -->
<g id="edge21" class="edge">
<title>21&#45;&gt;22</title>
<path fill="none" stroke="black" stroke-dasharray="5,2" d="M874.86,-264.04C910.55,-256.64 947.98,-246.14 981,-231.25 984.15,-229.83 987.27,-228.11 990.31,-226.22"/>
<polygon fill="black" stroke="black" points="992.11,-229.23 998.33,-220.65 988.12,-223.48 992.11,-229.23"/>
<text text-anchor="middle" x="975.62" y="-243.2" font-family="DejaVu Sans Mono" font-size="14.00">calls</text>
</g>
<!-- 27 -->
<g id="node27" class="node">
<title>27</title>
<polygon fill="#e552ff" stroke="#e552ff" points="1090.62,-377.75 1045.38,-377.75 1045.38,-381.75 1033.38,-381.75 1033.38,-341.75 1090.62,-341.75 1090.62,-377.75"/>
<polyline fill="none" stroke="#e552ff" points="1033.38,-377.75 1045.38,-377.75"/>
<text text-anchor="middle" x="1062" y="-355.07" font-family="DejaVu Sans Mono" font-size="14.00">print</text>
</g>
<!-- 16&#45;&gt;27 -->
<g id="edge26" class="edge">
<title>16&#45;&gt;27</title>
<path fill="none" stroke="black" stroke-dasharray="5,2" d="M1062,-418.86C1062,-409.4 1062,-398.89 1062,-389.45"/>
<polygon fill="black" stroke="black" points="1065.5,-389.72 1062,-379.72 1058.5,-389.72 1065.5,-389.72"/>
<text text-anchor="middle" x="1082.62" y="-397.7" font-family="DejaVu Sans Mono" font-size="14.00">calls</text>
</g>
<!-- input -->
<g id="node28" class="node">
<title>input</title>
<polygon fill="#afeeee" stroke="black" points="1593.88,-548 1500.21,-548 1476.12,-512 1569.79,-512 1593.88,-548"/>
<text text-anchor="middle" x="1535" y="-525.33" font-family="DejaVu Sans Mono" font-size="14.00">input</text>
</g>
<!-- call -->
<g id="node33" class="node">
<title>call</title>
<polygon fill="#e552ff" stroke="black" points="1562,-466.88 1520,-466.88 1520,-470.88 1508,-470.88 1508,-430.88 1562,-430.88 1562,-466.88"/>
<polyline fill="none" stroke="black" points="1508,-466.88 1520,-466.88"/>
<text text-anchor="middle" x="1535" y="-444.2" font-family="DejaVu Sans Mono" font-size="14.00">call</text>
</g>
<!-- input&#45;&gt;call -->
<!-- default -->
<g id="node29" class="node">
<title>default</title>
<polygon fill="#fffb81" stroke="black" points="1427.88,-466.88 1354.12,-466.88 1354.12,-430.88 1427.88,-430.88 1427.88,-466.88"/>
<text text-anchor="middle" x="1391" y="-444.2" font-family="DejaVu Sans Mono" font-size="14.00">default</text>
</g>
<!-- if -->
<g id="node30" class="node">
<title>if</title>
<polygon fill="#ff6752" stroke="black" points="1535,-714.75 1502.76,-696.75 1535,-678.75 1567.24,-696.75 1535,-714.75"/>
<text text-anchor="middle" x="1535" y="-692.08" font-family="DejaVu Sans Mono" font-size="14.00">if</text>
</g>
<!-- if&#45;&gt;input -->
<!-- for -->
<g id="node31" class="node">
<title>for</title>
<polygon fill="#ffbe52" stroke="black" points="1483.01,-696.75 1466.5,-714.75 1433.5,-714.75 1416.99,-696.75 1433.5,-678.75 1466.5,-678.75 1483.01,-696.75"/>
<text text-anchor="middle" x="1450" y="-692.08" font-family="DejaVu Sans Mono" font-size="14.00">for</text>
</g>
<!-- return -->
<g id="node34" class="node">
<title>return</title>
<polygon fill="#98fb98" stroke="black" points="1458.37,-548 1351.2,-548 1323.63,-512 1430.8,-512 1458.37,-548"/>
<text text-anchor="middle" x="1391" y="-525.33" font-family="DejaVu Sans Mono" font-size="14.00">return</text>
</g>
<!-- for&#45;&gt;return -->
<!-- while -->
<g id="node32" class="node">
<title>while</title>
<polygon fill="#ffbe52" stroke="black" points="1399.37,-696.75 1376.19,-714.75 1329.81,-714.75 1306.63,-696.75 1329.81,-678.75 1376.19,-678.75 1399.37,-696.75"/>
<text text-anchor="middle" x="1353" y="-692.08" font-family="DejaVu Sans Mono" font-size="14.00">while</text>
</g>
<!-- return&#45;&gt;default -->
<!-- try -->
<g id="node35" class="node">
<title>try</title>
<polygon fill="orange" stroke="black" points="1248,-714.75 1207.57,-696.75 1248,-678.75 1288.43,-696.75 1248,-714.75"/>
<polyline fill="none" stroke="black" points="1218.54,-701.63 1218.54,-691.87"/>
<polyline fill="none" stroke="black" points="1237.04,-683.63 1258.96,-683.63"/>
<polyline fill="none" stroke="black" points="1277.46,-691.87 1277.46,-701.63"/>
<polyline fill="none" stroke="black" points="1258.96,-709.87 1237.04,-709.87"/>
<text text-anchor="middle" x="1248" y="-692.08" font-family="DejaVu Sans Mono" font-size="14.00">try</text>
</g>
<!-- raise -->
<g id="node36" class="node">
<title>raise</title>
<polygon fill="#98fb98" stroke="black" points="1305.64,-535.56 1256,-548 1206.36,-535.56 1206.41,-515.44 1305.59,-515.44 1305.64,-535.56"/>
<text text-anchor="middle" x="1256" y="-525.33" font-family="DejaVu Sans Mono" font-size="14.00">raise</text>
</g>
<!-- try&#45;&gt;raise -->
</g>
</svg>
