<?xml version="1.0" encoding="UTF-8" standalone="no"?>
<!DOCTYPE svg PUBLIC "-//W3C//DTD SVG 1.1//EN"
 "http://www.w3.org/Graphics/SVG/1.1/DTD/svg11.dtd">
<!-- Generated by graphviz version 9.0.0 (20230911.1827)
 -->
<!-- Title: cluster0loops&#45;02&#45;for&#45;each Pages: 1 -->
<svg width="868pt" height="273pt"
 viewBox="0.00 0.00 868.12 273.00" xmlns="http://www.w3.org/2000/svg" xmlns:xlink="http://www.w3.org/1999/xlink">
<g id="graph0" class="graph" transform="scale(1 1) rotate(0) translate(4 269)">
<title>cluster0loops&#45;02&#45;for&#45;each</title>
<polygon fill="white" stroke="none" points="-4,4 -4,-269 864.12,-269 864.12,4 -4,4"/>
<text text-anchor="middle" x="430.06" y="-7.95" font-family="DejaVu Sans Mono" font-size="14.00">loops&#45;02&#45;for&#45;each</text>
<g id="clust1" class="cluster">
<title>cluster_2</title>
<polygon fill="purple" stroke="purple" points="183.12,-33.25 183.12,-85.25 257.12,-85.25 257.12,-33.25 183.12,-33.25"/>
</g>
<g id="clust2" class="cluster">
<title>cluster_KEY</title>
<polygon fill="none" stroke="black" points="448.12,-33.25 448.12,-257 852.12,-257 852.12,-33.25 448.12,-33.25"/>
<text text-anchor="middle" x="650.12" y="-239.7" font-family="DejaVu Sans Mono" font-size="14.00">KEY</text>
</g>
<!-- 1 -->
<g id="node1" class="node">
<title>1</title>
<polygon fill="#ffbe52" stroke="black" points="440.23,-205.75 330.18,-223.75 110.06,-223.75 0,-205.75 110.06,-187.75 330.18,-187.75 440.23,-205.75"/>
<text text-anchor="start" x="71.22" y="-201.07" font-family="DejaVu Sans Mono" font-size="14.00">for counter in [0, 1, 2, 3, 4]:</text>
</g>
<!-- 2 -->
<g id="node2" class="node">
<title>2</title>
<polygon fill="#fffb81" stroke="black" points="285.87,-154.5 154.37,-154.5 154.37,-118.5 285.87,-118.5 285.87,-154.5"/>
<text text-anchor="start" x="162.37" y="-131.82" font-family="DejaVu Sans Mono" font-size="14.00">print(counter)</text>
</g>
<!-- 1&#45;&gt;2 -->
<g id="edge3" class="edge">
<title>1&#45;&gt;2</title>
<path fill="none" stroke="green" d="M155.55,-187.5C152.86,-185.22 150.43,-182.65 148.37,-179.75 145.04,-175.06 144.2,-171.22 148.9,-163.69"/>
<polygon fill="green" stroke="green" points="151.48,-166.08 154.64,-155.97 145.86,-161.9 151.48,-166.08"/>
<text text-anchor="middle" x="210.99" y="-166.45" font-family="DejaVu Sans Mono" font-size="14.00">[0, 1, 2, 3, 4]</text>
</g>
<!-- 2&#45;&gt;1 -->
<g id="edge2" class="edge">
<title>2&#45;&gt;1</title>
<path fill="none" stroke="black" d="M269.45,-154.86C272,-157.11 274.26,-159.64 276.12,-162.5 279.18,-167.22 280,-170.84 275.92,-178.01"/>
<polygon fill="black" stroke="black" points="273.1,-175.92 270.31,-186.14 278.87,-179.9 273.1,-175.92"/>
</g>
<!-- 4 -->
<g id="node3" class="node">
<title>4</title>
<polygon fill="#e552ff" stroke="#e552ff" points="248.74,-77.25 203.49,-77.25 203.49,-81.25 191.49,-81.25 191.49,-41.25 248.74,-41.25 248.74,-77.25"/>
<polyline fill="none" stroke="#e552ff" points="191.49,-77.25 203.49,-77.25"/>
<text text-anchor="middle" x="220.12" y="-54.58" font-family="DejaVu Sans Mono" font-size="14.00">print</text>
</g>
<!-- 2&#45;&gt;4 -->
<g id="edge1" class="edge">
<title>2&#45;&gt;4</title>
<path fill="none" stroke="black" stroke-dasharray="5,2" d="M220.12,-118.05C220.12,-109.4 220.12,-98.75 220.12,-88.94"/>
<polygon fill="black" stroke="black" points="223.62,-89.12 220.12,-79.12 216.62,-89.12 223.62,-89.12"/>
<text text-anchor="middle" x="240.74" y="-97.2" font-family="DejaVu Sans Mono" font-size="14.00">calls</text>
</g>
<!-- input -->
<g id="node4" class="node">
<title>input</title>
<polygon fill="#afeeee" stroke="black" points="844,-154.5 750.33,-154.5 726.24,-118.5 819.9,-118.5 844,-154.5"/>
<text text-anchor="middle" x="785.12" y="-131.82" font-family="DejaVu Sans Mono" font-size="14.00">input</text>
</g>
<!-- call -->
<g id="node9" class="node">
<title>call</title>
<polygon fill="#e552ff" stroke="black" points="812.12,-77.25 770.12,-77.25 770.12,-81.25 758.12,-81.25 758.12,-41.25 812.12,-41.25 812.12,-77.25"/>
<polyline fill="none" stroke="black" points="758.12,-77.25 770.12,-77.25"/>
<text text-anchor="middle" x="785.12" y="-54.58" font-family="DejaVu Sans Mono" font-size="14.00">call</text>
</g>
<!-- input&#45;&gt;call -->
<!-- default -->
<g id="node5" class="node">
<title>default</title>
<polygon fill="#fffb81" stroke="black" points="677.99,-77.25 604.24,-77.25 604.24,-41.25 677.99,-41.25 677.99,-77.25"/>
<text text-anchor="middle" x="641.12" y="-54.58" font-family="DejaVu Sans Mono" font-size="14.00">default</text>
</g>
<!-- if -->
<g id="node6" class="node">
<title>if</title>
<polygon fill="#ff6752" stroke="black" points="785.12,-223.75 752.88,-205.75 785.12,-187.75 817.36,-205.75 785.12,-223.75"/>
<text text-anchor="middle" x="785.12" y="-201.07" font-family="DejaVu Sans Mono" font-size="14.00">if</text>
</g>
<!-- if&#45;&gt;input -->
<!-- for -->
<g id="node7" class="node">
<title>for</title>
<polygon fill="#ffbe52" stroke="black" points="735.12,-205.75 718.62,-223.75 685.61,-223.75 669.11,-205.75 685.61,-187.75 718.62,-187.75 735.12,-205.75"/>
<text text-anchor="middle" x="702.12" y="-201.07" font-family="DejaVu Sans Mono" font-size="14.00">for</text>
</g>
<!-- return -->
<g id="node10" class="node">
<title>return</title>
<polygon fill="#98fb98" stroke="black" points="708.48,-154.5 601.32,-154.5 573.75,-118.5 680.92,-118.5 708.48,-154.5"/>
<text text-anchor="middle" x="641.12" y="-131.82" font-family="DejaVu Sans Mono" font-size="14.00">return</text>
</g>
<!-- for&#45;&gt;return -->
<!-- while -->
<g id="node8" class="node">
<title>while</title>
<polygon fill="#ffbe52" stroke="black" points="651.49,-205.75 628.3,-223.75 581.93,-223.75 558.74,-205.75 581.93,-187.75 628.3,-187.75 651.49,-205.75"/>
<text text-anchor="middle" x="605.12" y="-201.07" font-family="DejaVu Sans Mono" font-size="14.00">while</text>
</g>
<!-- return&#45;&gt;default -->
<!-- try -->
<g id="node11" class="node">
<title>try</title>
<polygon fill="orange" stroke="black" points="500.12,-223.75 459.69,-205.75 500.12,-187.75 540.54,-205.75 500.12,-223.75"/>
<polyline fill="none" stroke="black" points="470.65,-210.63 470.65,-200.87"/>
<polyline fill="none" stroke="black" points="489.15,-192.63 511.08,-192.63"/>
<polyline fill="none" stroke="black" points="529.58,-200.87 529.58,-210.63"/>
<polyline fill="none" stroke="black" points="511.08,-218.87 489.15,-218.87"/>
<text text-anchor="middle" x="500.12" y="-201.07" font-family="DejaVu Sans Mono" font-size="14.00">try</text>
</g>
<!-- raise -->
<g id="node12" class="node">
<title>raise</title>
<polygon fill="#98fb98" stroke="black" points="555.76,-142.06 506.12,-154.5 456.48,-142.06 456.52,-121.94 555.71,-121.94 555.76,-142.06"/>
<text text-anchor="middle" x="506.12" y="-131.82" font-family="DejaVu Sans Mono" font-size="14.00">raise</text>
</g>
<!-- try&#45;&gt;raise -->
</g>
</svg>
