<?xml version="1.0" encoding="UTF-8" standalone="no"?>
<!DOCTYPE svg PUBLIC "-//W3C//DTD SVG 1.1//EN"
 "http://www.w3.org/Graphics/SVG/1.1/DTD/svg11.dtd">
<!-- Generated by graphviz version 9.0.0 (20230911.1827)
 -->
<!-- Title: cluster0loops&#45;04&#45;exponents Pages: 1 -->
<svg width="1328pt" height="395pt"
 viewBox="0.00 0.00 1328.00 394.50" xmlns="http://www.w3.org/2000/svg" xmlns:xlink="http://www.w3.org/1999/xlink">
<g id="graph0" class="graph" transform="scale(1 1) rotate(0) translate(4 390.5)">
<title>cluster0loops&#45;04&#45;exponents</title>
<polygon fill="white" stroke="none" points="-4,4 -4,-390.5 1324,-390.5 1324,4 -4,4"/>
<text text-anchor="middle" x="660" y="-7.95" font-family="DejaVu Sans Mono" font-size="14.00">loops&#45;04&#45;exponents</text>
<g id="clust1" class="cluster">
<title>cluster_1</title>
<polygon fill="purple" stroke="purple" points="8,-122.38 8,-255.5 226,-255.5 226,-122.38 8,-122.38"/>
</g>
<g id="clust2" class="cluster">
<title>cluster_7</title>
<polygon fill="purple" stroke="purple" points="304,-122.38 304,-174.38 378,-174.38 378,-122.38 304,-122.38"/>
</g>
<g id="clust3" class="cluster">
<title>cluster_10</title>
<polygon fill="purple" stroke="purple" points="631,-33.25 631,-85.25 855,-85.25 855,-33.25 631,-33.25"/>
</g>
<g id="clust4" class="cluster">
<title>cluster_KEY</title>
<polygon fill="none" stroke="black" points="908,-122.38 908,-378.5 1312,-378.5 1312,-122.38 908,-122.38"/>
<text text-anchor="middle" x="1110" y="-361.2" font-family="DejaVu Sans Mono" font-size="14.00">KEY</text>
</g>
<!-- 1 -->
<g id="node1" class="node">
<title>1</title>
<polygon fill="#fffb81" stroke="black" points="293,-365.75 13,-365.75 13,-288.75 293,-288.75 293,-365.75"/>
<text text-anchor="start" x="21" y="-348.45" font-family="DejaVu Sans Mono" font-size="14.00">print(&#39;Enter base, hit ente...&#39;)</text>
<text text-anchor="start" x="21" y="-331.2" font-family="DejaVu Sans Mono" font-size="14.00">base: int = int(input())</text>
<text text-anchor="start" x="21" y="-313.95" font-family="DejaVu Sans Mono" font-size="14.00">exponent: int = int(input())</text>
<text text-anchor="start" x="21" y="-296.7" font-family="DejaVu Sans Mono" font-size="14.00">total: int = 1</text>
</g>
<!-- 2 -->
<g id="node2" class="node">
<title>2</title>
<polygon fill="#e552ff" stroke="#e552ff" points="73.62,-247.5 28.38,-247.5 28.38,-251.5 16.37,-251.5 16.37,-211.5 73.62,-211.5 73.62,-247.5"/>
<polyline fill="none" stroke="#e552ff" points="16.37,-247.5 28.38,-247.5"/>
<text text-anchor="middle" x="45" y="-224.82" font-family="DejaVu Sans Mono" font-size="14.00">print</text>
</g>
<!-- 1&#45;&gt;2 -->
<g id="edge1" class="edge">
<title>1&#45;&gt;2</title>
<path fill="none" stroke="black" stroke-dasharray="5,2" d="M85.53,-288.54C82.46,-286.04 79.51,-283.44 76.75,-280.75 69.89,-274.06 63.83,-265.62 58.9,-257.57"/>
<polygon fill="black" stroke="black" points="62.03,-256 54.02,-249.07 55.96,-259.48 62.03,-256"/>
<text text-anchor="middle" x="97.62" y="-267.45" font-family="DejaVu Sans Mono" font-size="14.00">calls</text>
</g>
<!-- 3 -->
<g id="node3" class="node">
<title>3</title>
<polygon fill="#e552ff" stroke="#e552ff" points="146,-247.5 104,-247.5 104,-251.5 92,-251.5 92,-211.5 146,-211.5 146,-247.5"/>
<polyline fill="none" stroke="#e552ff" points="92,-247.5 104,-247.5"/>
<text text-anchor="middle" x="119" y="-224.82" font-family="DejaVu Sans Mono" font-size="14.00">int</text>
</g>
<!-- 1&#45;&gt;3 -->
<g id="edge2" class="edge">
<title>1&#45;&gt;3</title>
<path fill="none" stroke="black" stroke-dasharray="5,2" d="M128.8,-288.31C127.66,-285.8 126.63,-283.27 125.75,-280.75 123.34,-273.85 121.78,-266.15 120.78,-258.88"/>
<polygon fill="black" stroke="black" points="124.28,-258.73 119.74,-249.15 117.32,-259.47 124.28,-258.73"/>
<text text-anchor="middle" x="146.62" y="-267.45" font-family="DejaVu Sans Mono" font-size="14.00">calls</text>
</g>
<!-- 5 -->
<g id="node4" class="node">
<title>5</title>
<polygon fill="#e552ff" stroke="#e552ff" points="218,-247.5 176,-247.5 176,-251.5 164,-251.5 164,-211.5 218,-211.5 218,-247.5"/>
<polyline fill="none" stroke="#e552ff" points="164,-247.5 176,-247.5"/>
<text text-anchor="middle" x="191" y="-224.82" font-family="DejaVu Sans Mono" font-size="14.00">int</text>
</g>
<!-- 1&#45;&gt;5 -->
<g id="edge3" class="edge">
<title>1&#45;&gt;5</title>
<path fill="none" stroke="black" stroke-dasharray="5,2" d="M168.02,-288.41C171.97,-278.45 176.16,-267.88 179.87,-258.54"/>
<polygon fill="black" stroke="black" points="183.11,-259.87 183.55,-249.28 176.6,-257.28 183.11,-259.87"/>
<text text-anchor="middle" x="198.62" y="-267.45" font-family="DejaVu Sans Mono" font-size="14.00">calls</text>
</g>
<!-- 7 -->
<g id="node7" class="node">
<title>7</title>
<polygon fill="#ffbe52" stroke="black" points="716.16,-229.5 596.08,-247.5 355.92,-247.5 235.84,-229.5 355.92,-211.5 596.08,-211.5 716.16,-229.5"/>
<text text-anchor="start" x="312.82" y="-224.82" font-family="DejaVu Sans Mono" font-size="14.00">for counter in range(0, exponent):</text>
</g>
<!-- 1&#45;&gt;7 -->
<g id="edge13" class="edge">
<title>1&#45;&gt;7</title>
<path fill="none" stroke="black" d="M281.12,-288.27C323.74,-275.64 369.6,-262.04 406.12,-251.21"/>
<polygon fill="black" stroke="black" points="407.1,-254.58 415.69,-248.38 405.11,-247.86 407.1,-254.58"/>
</g>
<!-- 4 -->
<g id="node5" class="node">
<title>4</title>
<polygon fill="#e552ff" stroke="#e552ff" points="142.62,-166.38 97.38,-166.38 97.38,-170.38 85.38,-170.38 85.38,-130.38 142.62,-130.38 142.62,-166.38"/>
<polyline fill="none" stroke="#e552ff" points="85.38,-166.38 97.38,-166.38"/>
<text text-anchor="middle" x="114" y="-143.7" font-family="DejaVu Sans Mono" font-size="14.00">input</text>
</g>
<!-- 3&#45;&gt;4 -->
<g id="edge4" class="edge">
<title>3&#45;&gt;4</title>
<path fill="none" stroke="black" d="M117.92,-211.33C117.3,-201.65 116.52,-189.3 115.82,-178.18"/>
<polygon fill="black" stroke="black" points="119.32,-178.05 115.2,-168.29 112.33,-178.5 119.32,-178.05"/>
</g>
<!-- 6 -->
<g id="node6" class="node">
<title>6</title>
<polygon fill="#e552ff" stroke="#e552ff" points="217.62,-166.38 172.38,-166.38 172.38,-170.38 160.38,-170.38 160.38,-130.38 217.62,-130.38 217.62,-166.38"/>
<polyline fill="none" stroke="#e552ff" points="160.38,-166.38 172.38,-166.38"/>
<text text-anchor="middle" x="189" y="-143.7" font-family="DejaVu Sans Mono" font-size="14.00">input</text>
</g>
<!-- 5&#45;&gt;6 -->
<g id="edge5" class="edge">
<title>5&#45;&gt;6</title>
<path fill="none" stroke="black" d="M190.57,-211.33C190.32,-201.65 190.01,-189.3 189.73,-178.18"/>
<polygon fill="black" stroke="black" points="193.23,-178.21 189.48,-168.3 186.23,-178.38 193.23,-178.21"/>
</g>
<!-- 8 -->
<g id="node8" class="node">
<title>8</title>
<polygon fill="#e552ff" stroke="#e552ff" points="369.62,-166.38 324.38,-166.38 324.38,-170.38 312.38,-170.38 312.38,-130.38 369.62,-130.38 369.62,-166.38"/>
<polyline fill="none" stroke="#e552ff" points="312.38,-166.38 324.38,-166.38"/>
<text text-anchor="middle" x="341" y="-143.7" font-family="DejaVu Sans Mono" font-size="14.00">range</text>
</g>
<!-- 7&#45;&gt;8 -->
<g id="edge6" class="edge">
<title>7&#45;&gt;8</title>
<path fill="none" stroke="black" stroke-dasharray="5,2" d="M423.04,-211.1C417.76,-208.78 412.58,-206.24 407.75,-203.5 393.48,-195.4 379.15,-184.27 367.45,-174.21"/>
<polygon fill="black" stroke="black" points="370,-171.8 360.19,-167.8 365.37,-177.04 370,-171.8"/>
<text text-anchor="middle" x="427.62" y="-190.2" font-family="DejaVu Sans Mono" font-size="14.00">calls</text>
</g>
<!-- 9 -->
<g id="node9" class="node">
<title>9</title>
<polygon fill="#fffb81" stroke="black" points="568.5,-166.38 387.5,-166.38 387.5,-130.38 568.5,-130.38 568.5,-166.38"/>
<text text-anchor="start" x="395.5" y="-143.7" font-family="DejaVu Sans Mono" font-size="14.00">total = total * base</text>
</g>
<!-- 7&#45;&gt;9 -->
<g id="edge8" class="edge">
<title>7&#45;&gt;9</title>
<path fill="none" stroke="green" d="M459.38,-211.12C457.8,-208.71 456.44,-206.14 455.5,-203.5 452.92,-196.28 453.43,-193.63 455.5,-186.25 456.39,-183.07 457.65,-179.89 459.11,-176.81"/>
<polygon fill="green" stroke="green" points="462.12,-178.59 463.93,-168.15 456,-175.19 462.12,-178.59"/>
<text text-anchor="middle" x="529.25" y="-190.2" font-family="DejaVu Sans Mono" font-size="14.00">range(0, exponent)</text>
</g>
<!-- 10 -->
<g id="node10" class="node">
<title>10</title>
<polygon fill="#fffb81" stroke="black" points="899.5,-178.25 586.5,-178.25 586.5,-118.5 899.5,-118.5 899.5,-178.25"/>
<text text-anchor="start" x="594.5" y="-160.95" font-family="DejaVu Sans Mono" font-size="14.00">print(&#39;Base &#39;, base)</text>
<text text-anchor="start" x="594.5" y="-143.7" font-family="DejaVu Sans Mono" font-size="14.00">print(&#39; to the power of &#39;, exponent)</text>
<text text-anchor="start" x="594.5" y="-126.45" font-family="DejaVu Sans Mono" font-size="14.00">print(&#39; is &#39;, total)</text>
</g>
<!-- 7&#45;&gt;10 -->
<g id="edge12" class="edge">
<title>7&#45;&gt;10</title>
<path fill="none" stroke="green" d="M594.56,-211.05C604.25,-208.8 613.84,-206.29 623,-203.5 640.47,-198.17 658.73,-190.89 675.58,-183.41"/>
<polygon fill="green" stroke="green" points="676.83,-186.68 684.49,-179.36 673.93,-180.31 676.83,-186.68"/>
</g>
<!-- 9&#45;&gt;7 -->
<g id="edge7" class="edge">
<title>9&#45;&gt;7</title>
<path fill="none" stroke="black" d="M537.7,-166.83C550.95,-170.64 564.94,-174.62 578,-178.25 591.3,-181.94 599.59,-175.31 608,-186.25 612.67,-192.33 612.89,-197.6 608,-203.5 607.55,-204.04 607.06,-204.57 606.51,-205.08"/>
<polygon fill="black" stroke="black" points="604.73,-202.07 598.14,-210.37 608.46,-207.99 604.73,-202.07"/>
</g>
<!-- 11 -->
<g id="node11" class="node">
<title>11</title>
<polygon fill="#e552ff" stroke="#e552ff" points="696.62,-77.25 651.38,-77.25 651.38,-81.25 639.38,-81.25 639.38,-41.25 696.62,-41.25 696.62,-77.25"/>
<polyline fill="none" stroke="#e552ff" points="639.38,-77.25 651.38,-77.25"/>
<text text-anchor="middle" x="668" y="-54.58" font-family="DejaVu Sans Mono" font-size="14.00">print</text>
</g>
<!-- 10&#45;&gt;11 -->
<g id="edge9" class="edge">
<title>10&#45;&gt;11</title>
<path fill="none" stroke="black" stroke-dasharray="5,2" d="M705,-118.17C702.45,-115.68 700,-113.11 697.75,-110.5 691.77,-103.56 686.31,-95.25 681.74,-87.41"/>
<polygon fill="black" stroke="black" points="684.91,-85.91 677.01,-78.85 678.78,-89.3 684.91,-85.91"/>
<text text-anchor="middle" x="717.62" y="-97.2" font-family="DejaVu Sans Mono" font-size="14.00">calls</text>
</g>
<!-- 12 -->
<g id="node12" class="node">
<title>12</title>
<polygon fill="#e552ff" stroke="#e552ff" points="771.62,-77.25 726.38,-77.25 726.38,-81.25 714.38,-81.25 714.38,-41.25 771.62,-41.25 771.62,-77.25"/>
<polyline fill="none" stroke="#e552ff" points="714.38,-77.25 726.38,-77.25"/>
<text text-anchor="middle" x="743" y="-54.58" font-family="DejaVu Sans Mono" font-size="14.00">print</text>
</g>
<!-- 10&#45;&gt;12 -->
<g id="edge10" class="edge">
<title>10&#45;&gt;12</title>
<path fill="none" stroke="black" stroke-dasharray="5,2" d="M743,-118.36C743,-108.9 743,-98.39 743,-88.95"/>
<polygon fill="black" stroke="black" points="746.5,-89.22 743,-79.22 739.5,-89.22 746.5,-89.22"/>
<text text-anchor="middle" x="763.62" y="-97.2" font-family="DejaVu Sans Mono" font-size="14.00">calls</text>
</g>
<!-- 13 -->
<g id="node13" class="node">
<title>13</title>
<polygon fill="#e552ff" stroke="#e552ff" points="846.62,-77.25 801.38,-77.25 801.38,-81.25 789.38,-81.25 789.38,-41.25 846.62,-41.25 846.62,-77.25"/>
<polyline fill="none" stroke="#e552ff" points="789.38,-77.25 801.38,-77.25"/>
<text text-anchor="middle" x="818" y="-54.58" font-family="DejaVu Sans Mono" font-size="14.00">print</text>
</g>
<!-- 10&#45;&gt;13 -->
<g id="edge11" class="edge">
<title>10&#45;&gt;13</title>
<path fill="none" stroke="black" stroke-dasharray="5,2" d="M780.77,-118.15C783.32,-115.66 785.76,-113.1 788,-110.5 794,-103.54 799.5,-95.23 804.11,-87.4"/>
<polygon fill="black" stroke="black" points="807.07,-89.27 808.88,-78.84 800.95,-85.86 807.07,-89.27"/>
<text text-anchor="middle" x="820.62" y="-97.2" font-family="DejaVu Sans Mono" font-size="14.00">calls</text>
</g>
<!-- input -->
<g id="node14" class="node">
<title>input</title>
<polygon fill="#afeeee" stroke="black" points="1303.88,-247.5 1210.21,-247.5 1186.12,-211.5 1279.79,-211.5 1303.88,-247.5"/>
<text text-anchor="middle" x="1245" y="-224.82" font-family="DejaVu Sans Mono" font-size="14.00">input</text>
</g>
<!-- call -->
<g id="node19" class="node">
<title>call</title>
<polygon fill="#e552ff" stroke="black" points="1272,-166.38 1230,-166.38 1230,-170.38 1218,-170.38 1218,-130.38 1272,-130.38 1272,-166.38"/>
<polyline fill="none" stroke="black" points="1218,-166.38 1230,-166.38"/>
<text text-anchor="middle" x="1245" y="-143.7" font-family="DejaVu Sans Mono" font-size="14.00">call</text>
</g>
<!-- input&#45;&gt;call -->
<!-- default -->
<g id="node15" class="node">
<title>default</title>
<polygon fill="#fffb81" stroke="black" points="1137.88,-166.38 1064.12,-166.38 1064.12,-130.38 1137.88,-130.38 1137.88,-166.38"/>
<text text-anchor="middle" x="1101" y="-143.7" font-family="DejaVu Sans Mono" font-size="14.00">default</text>
</g>
<!-- if -->
<g id="node16" class="node">
<title>if</title>
<polygon fill="#ff6752" stroke="black" points="1245,-345.25 1212.76,-327.25 1245,-309.25 1277.24,-327.25 1245,-345.25"/>
<text text-anchor="middle" x="1245" y="-322.57" font-family="DejaVu Sans Mono" font-size="14.00">if</text>
</g>
<!-- if&#45;&gt;input -->
<!-- for -->
<g id="node17" class="node">
<title>for</title>
<polygon fill="#ffbe52" stroke="black" points="1193.01,-327.25 1176.5,-345.25 1143.5,-345.25 1126.99,-327.25 1143.5,-309.25 1176.5,-309.25 1193.01,-327.25"/>
<text text-anchor="middle" x="1160" y="-322.57" font-family="DejaVu Sans Mono" font-size="14.00">for</text>
</g>
<!-- return -->
<g id="node20" class="node">
<title>return</title>
<polygon fill="#98fb98" stroke="black" points="1168.37,-247.5 1061.2,-247.5 1033.63,-211.5 1140.8,-211.5 1168.37,-247.5"/>
<text text-anchor="middle" x="1101" y="-224.82" font-family="DejaVu Sans Mono" font-size="14.00">return</text>
</g>
<!-- for&#45;&gt;return -->
<!-- while -->
<g id="node18" class="node">
<title>while</title>
<polygon fill="#ffbe52" stroke="black" points="1109.37,-327.25 1086.19,-345.25 1039.81,-345.25 1016.63,-327.25 1039.81,-309.25 1086.19,-309.25 1109.37,-327.25"/>
<text text-anchor="middle" x="1063" y="-322.57" font-family="DejaVu Sans Mono" font-size="14.00">while</text>
</g>
<!-- return&#45;&gt;default -->
<!-- try -->
<g id="node21" class="node">
<title>try</title>
<polygon fill="orange" stroke="black" points="958,-345.25 917.57,-327.25 958,-309.25 998.43,-327.25 958,-345.25"/>
<polyline fill="none" stroke="black" points="928.54,-332.13 928.54,-322.37"/>
<polyline fill="none" stroke="black" points="947.04,-314.13 968.96,-314.13"/>
<polyline fill="none" stroke="black" points="987.46,-322.37 987.46,-332.13"/>
<polyline fill="none" stroke="black" points="968.96,-340.37 947.04,-340.37"/>
<text text-anchor="middle" x="958" y="-322.57" font-family="DejaVu Sans Mono" font-size="14.00">try</text>
</g>
<!-- raise -->
<g id="node22" class="node">
<title>raise</title>
<polygon fill="#98fb98" stroke="black" points="1015.64,-235.06 966,-247.5 916.36,-235.06 916.41,-214.94 1015.59,-214.94 1015.64,-235.06"/>
<text text-anchor="middle" x="966" y="-224.82" font-family="DejaVu Sans Mono" font-size="14.00">raise</text>
</g>
<!-- try&#45;&gt;raise -->
</g>
</svg>
