<?xml version="1.0" encoding="UTF-8" standalone="no"?>
<!DOCTYPE svg PUBLIC "-//W3C//DTD SVG 1.1//EN"
 "http://www.w3.org/Graphics/SVG/1.1/DTD/svg11.dtd">
<!-- Generated by graphviz version 9.0.0 (20230911.1827)
 -->
<!-- Title: cluster0loops&#45;07&#45;binary&#45;up Pages: 1 -->
<svg width="643pt" height="337pt"
 viewBox="0.00 0.00 642.51 337.25" xmlns="http://www.w3.org/2000/svg" xmlns:xlink="http://www.w3.org/1999/xlink">
<g id="graph0" class="graph" transform="scale(1 1) rotate(0) translate(4 333.25)">
<title>cluster0loops&#45;07&#45;binary&#45;up</title>
<polygon fill="white" stroke="none" points="-4,4 -4,-333.25 638.51,-333.25 638.51,4 -4,4"/>
<text text-anchor="middle" x="317.26" y="-7.95" font-family="DejaVu Sans Mono" font-size="14.00">loops&#45;07&#45;binary&#45;up</text>
<g id="clust1" class="cluster">
<title>cluster_3</title>
<polygon fill="purple" stroke="purple" points="69.51,-33.25 69.51,-85.25 143.51,-85.25 143.51,-33.25 69.51,-33.25"/>
</g>
<g id="clust2" class="cluster">
<title>cluster_KEY</title>
<polygon fill="none" stroke="black" points="222.51,-118.5 222.51,-321.25 626.51,-321.25 626.51,-118.5 222.51,-118.5"/>
<text text-anchor="middle" x="424.51" y="-303.95" font-family="DejaVu Sans Mono" font-size="14.00">KEY</text>
</g>
<!-- 1 -->
<g id="node1" class="node">
<title>1</title>
<polygon fill="#fffb81" stroke="black" points="155.76,-288 57.26,-288 57.26,-252 155.76,-252 155.76,-288"/>
<text text-anchor="start" x="65.26" y="-265.32" font-family="DejaVu Sans Mono" font-size="14.00">x: int = 0</text>
</g>
<!-- 2 -->
<g id="node2" class="node">
<title>2</title>
<polygon fill="#ffbe52" stroke="black" points="213.03,-217 159.77,-235 53.26,-235 0,-217 53.26,-199 159.77,-199 213.03,-217"/>
<text text-anchor="start" x="38.59" y="-212.32" font-family="DejaVu Sans Mono" font-size="14.00">while x &lt; 256:</text>
</g>
<!-- 1&#45;&gt;2 -->
<g id="edge4" class="edge">
<title>1&#45;&gt;2</title>
<path fill="none" stroke="black" d="M106.51,-251.73C106.51,-250.07 106.51,-248.36 106.51,-246.62"/>
<polygon fill="black" stroke="black" points="110.01,-246.76 106.51,-236.76 103.01,-246.76 110.01,-246.76"/>
</g>
<!-- 3 -->
<g id="node3" class="node">
<title>3</title>
<polygon fill="#fffb81" stroke="black" points="147.51,-165.75 65.51,-165.75 65.51,-123.25 147.51,-123.25 147.51,-165.75"/>
<text text-anchor="start" x="73.51" y="-148.45" font-family="DejaVu Sans Mono" font-size="14.00">x *= 2</text>
<text text-anchor="start" x="73.51" y="-131.2" font-family="DejaVu Sans Mono" font-size="14.00">print(x)</text>
</g>
<!-- 2&#45;&gt;3 -->
<g id="edge3" class="edge">
<title>2&#45;&gt;3</title>
<path fill="none" stroke="green" d="M73.58,-198.65C71.3,-196.36 69.3,-193.81 67.76,-191 65.13,-186.16 64.49,-182.9 67.64,-176"/>
<polygon fill="green" stroke="green" points="70.7,-177.71 72.46,-167.26 64.57,-174.33 70.7,-177.71"/>
<text text-anchor="middle" x="96.39" y="-177.7" font-family="DejaVu Sans Mono" font-size="14.00">x &lt; 256</text>
</g>
<!-- 3&#45;&gt;2 -->
<g id="edge2" class="edge">
<title>3&#45;&gt;2</title>
<path fill="none" stroke="black" d="M125.79,-166.14C127.29,-168.57 128.58,-171.13 129.51,-173.75 131.32,-178.83 131.96,-181.76 129.77,-188.16"/>
<polygon fill="black" stroke="black" points="126.65,-186.57 125.95,-197.14 133.09,-189.31 126.65,-186.57"/>
</g>
<!-- 5 -->
<g id="node4" class="node">
<title>5</title>
<polygon fill="#e552ff" stroke="#e552ff" points="135.14,-77.25 89.89,-77.25 89.89,-81.25 77.89,-81.25 77.89,-41.25 135.14,-41.25 135.14,-77.25"/>
<polyline fill="none" stroke="#e552ff" points="77.89,-77.25 89.89,-77.25"/>
<text text-anchor="middle" x="106.51" y="-54.58" font-family="DejaVu Sans Mono" font-size="14.00">print</text>
</g>
<!-- 3&#45;&gt;5 -->
<g id="edge1" class="edge">
<title>3&#45;&gt;5</title>
<path fill="none" stroke="black" stroke-dasharray="5,2" d="M106.51,-122.92C106.51,-112.67 106.51,-100.1 106.51,-88.92"/>
<polygon fill="black" stroke="black" points="110.01,-89.02 106.51,-79.02 103.01,-89.02 110.01,-89.02"/>
<text text-anchor="middle" x="127.14" y="-97.2" font-family="DejaVu Sans Mono" font-size="14.00">calls</text>
</g>
<!-- input -->
<g id="node5" class="node">
<title>input</title>
<polygon fill="#afeeee" stroke="black" points="618.4,-235 524.73,-235 500.63,-199 594.3,-199 618.4,-235"/>
<text text-anchor="middle" x="559.51" y="-212.32" font-family="DejaVu Sans Mono" font-size="14.00">input</text>
</g>
<!-- call -->
<g id="node10" class="node">
<title>call</title>
<polygon fill="#e552ff" stroke="black" points="586.51,-162.5 544.51,-162.5 544.51,-166.5 532.51,-166.5 532.51,-126.5 586.51,-126.5 586.51,-162.5"/>
<polyline fill="none" stroke="black" points="532.51,-162.5 544.51,-162.5"/>
<text text-anchor="middle" x="559.51" y="-139.82" font-family="DejaVu Sans Mono" font-size="14.00">call</text>
</g>
<!-- input&#45;&gt;call -->
<!-- default -->
<g id="node6" class="node">
<title>default</title>
<polygon fill="#fffb81" stroke="black" points="452.39,-162.5 378.64,-162.5 378.64,-126.5 452.39,-126.5 452.39,-162.5"/>
<text text-anchor="middle" x="415.51" y="-139.82" font-family="DejaVu Sans Mono" font-size="14.00">default</text>
</g>
<!-- if -->
<g id="node7" class="node">
<title>if</title>
<polygon fill="#ff6752" stroke="black" points="559.51,-288 527.27,-270 559.51,-252 591.76,-270 559.51,-288"/>
<text text-anchor="middle" x="559.51" y="-265.32" font-family="DejaVu Sans Mono" font-size="14.00">if</text>
</g>
<!-- if&#45;&gt;input -->
<!-- for -->
<g id="node8" class="node">
<title>for</title>
<polygon fill="#ffbe52" stroke="black" points="507.52,-270 491.02,-288 458.01,-288 441.51,-270 458.01,-252 491.02,-252 507.52,-270"/>
<text text-anchor="middle" x="474.51" y="-265.32" font-family="DejaVu Sans Mono" font-size="14.00">for</text>
</g>
<!-- return -->
<g id="node11" class="node">
<title>return</title>
<polygon fill="#98fb98" stroke="black" points="482.88,-235 375.72,-235 348.15,-199 455.31,-199 482.88,-235"/>
<text text-anchor="middle" x="415.51" y="-212.32" font-family="DejaVu Sans Mono" font-size="14.00">return</text>
</g>
<!-- for&#45;&gt;return -->
<!-- while -->
<g id="node9" class="node">
<title>while</title>
<polygon fill="#ffbe52" stroke="black" points="423.89,-270 400.7,-288 354.33,-288 331.14,-270 354.33,-252 400.7,-252 423.89,-270"/>
<text text-anchor="middle" x="377.51" y="-265.32" font-family="DejaVu Sans Mono" font-size="14.00">while</text>
</g>
<!-- return&#45;&gt;default -->
<!-- try -->
<g id="node12" class="node">
<title>try</title>
<polygon fill="orange" stroke="black" points="272.51,-288 232.09,-270 272.51,-252 312.94,-270 272.51,-288"/>
<polyline fill="none" stroke="black" points="243.05,-274.88 243.05,-265.12"/>
<polyline fill="none" stroke="black" points="261.55,-256.88 283.48,-256.88"/>
<polyline fill="none" stroke="black" points="301.98,-265.12 301.98,-274.88"/>
<polyline fill="none" stroke="black" points="283.48,-283.12 261.55,-283.12"/>
<text text-anchor="middle" x="272.51" y="-265.32" font-family="DejaVu Sans Mono" font-size="14.00">try</text>
</g>
<!-- raise -->
<g id="node13" class="node">
<title>raise</title>
<polygon fill="#98fb98" stroke="black" points="330.16,-222.56 280.51,-235 230.87,-222.56 230.92,-202.44 330.11,-202.44 330.16,-222.56"/>
<text text-anchor="middle" x="280.51" y="-212.32" font-family="DejaVu Sans Mono" font-size="14.00">raise</text>
</g>
<!-- try&#45;&gt;raise -->
</g>
</svg>
