<?xml version="1.0" encoding="UTF-8" standalone="no"?>
<!DOCTYPE svg PUBLIC "-//W3C//DTD SVG 1.1//EN"
 "http://www.w3.org/Graphics/SVG/1.1/DTD/svg11.dtd">
<!-- Generated by graphviz version 9.0.0 (20230911.1827)
 -->
<!-- Title: cluster0loops&#45;06&#45;binary&#45;down Pages: 1 -->
<svg width="629pt" height="337pt"
 viewBox="0.00 0.00 628.83 337.25" xmlns="http://www.w3.org/2000/svg" xmlns:xlink="http://www.w3.org/1999/xlink">
<g id="graph0" class="graph" transform="scale(1 1) rotate(0) translate(4 333.25)">
<title>cluster0loops&#45;06&#45;binary&#45;down</title>
<polygon fill="white" stroke="none" points="-4,4 -4,-333.25 624.83,-333.25 624.83,4 -4,4"/>
<text text-anchor="middle" x="310.42" y="-7.95" font-family="DejaVu Sans Mono" font-size="14.00">loops&#45;06&#45;binary&#45;down</text>
<g id="clust1" class="cluster">
<title>cluster_3</title>
<polygon fill="purple" stroke="purple" points="62.83,-33.25 62.83,-85.25 136.83,-85.25 136.83,-33.25 62.83,-33.25"/>
</g>
<g id="clust2" class="cluster">
<title>cluster_KEY</title>
<polygon fill="none" stroke="black" points="208.83,-118.5 208.83,-321.25 612.83,-321.25 612.83,-118.5 208.83,-118.5"/>
<text text-anchor="middle" x="410.83" y="-303.95" font-family="DejaVu Sans Mono" font-size="14.00">KEY</text>
</g>
<!-- 1 -->
<g id="node1" class="node">
<title>1</title>
<polygon fill="#fffb81" stroke="black" points="157.33,-288 42.33,-288 42.33,-252 157.33,-252 157.33,-288"/>
<text text-anchor="start" x="50.33" y="-265.32" font-family="DejaVu Sans Mono" font-size="14.00">x: int = 256</text>
</g>
<!-- 2 -->
<g id="node2" class="node">
<title>2</title>
<polygon fill="#ffbe52" stroke="black" points="199.66,-217 149.75,-235 49.92,-235 0,-217 49.92,-199 149.75,-199 199.66,-217"/>
<text text-anchor="start" x="36.67" y="-212.32" font-family="DejaVu Sans Mono" font-size="14.00">while x != 0:</text>
</g>
<!-- 1&#45;&gt;2 -->
<g id="edge4" class="edge">
<title>1&#45;&gt;2</title>
<path fill="none" stroke="black" d="M99.83,-251.73C99.83,-250.07 99.83,-248.36 99.83,-246.62"/>
<polygon fill="black" stroke="black" points="103.33,-246.76 99.83,-236.76 96.33,-246.76 103.33,-246.76"/>
</g>
<!-- 3 -->
<g id="node3" class="node">
<title>3</title>
<polygon fill="#fffb81" stroke="black" points="140.83,-165.75 58.83,-165.75 58.83,-123.25 140.83,-123.25 140.83,-165.75"/>
<text text-anchor="start" x="66.83" y="-148.45" font-family="DejaVu Sans Mono" font-size="14.00">x //= 2</text>
<text text-anchor="start" x="66.83" y="-131.2" font-family="DejaVu Sans Mono" font-size="14.00">print(x)</text>
</g>
<!-- 2&#45;&gt;3 -->
<g id="edge3" class="edge">
<title>2&#45;&gt;3</title>
<path fill="none" stroke="green" d="M70.77,-198.6C68.62,-196.3 66.74,-193.77 65.33,-191 62.83,-186.09 62.23,-182.91 65.2,-176.02"/>
<polygon fill="green" stroke="green" points="68.24,-177.75 69.73,-167.26 62.03,-174.54 68.24,-177.75"/>
<text text-anchor="middle" x="89.58" y="-177.7" font-family="DejaVu Sans Mono" font-size="14.00">x != 0</text>
</g>
<!-- 3&#45;&gt;2 -->
<g id="edge2" class="edge">
<title>3&#45;&gt;2</title>
<path fill="none" stroke="black" d="M115.61,-166.09C116.92,-168.57 118.04,-171.15 118.83,-173.75 120.37,-178.79 120.95,-181.62 119.2,-187.7"/>
<polygon fill="black" stroke="black" points="115.92,-186.49 115.77,-197.08 122.49,-188.89 115.92,-186.49"/>
</g>
<!-- 5 -->
<g id="node4" class="node">
<title>5</title>
<polygon fill="#e552ff" stroke="#e552ff" points="128.46,-77.25 83.21,-77.25 83.21,-81.25 71.21,-81.25 71.21,-41.25 128.46,-41.25 128.46,-77.25"/>
<polyline fill="none" stroke="#e552ff" points="71.21,-77.25 83.21,-77.25"/>
<text text-anchor="middle" x="99.83" y="-54.58" font-family="DejaVu Sans Mono" font-size="14.00">print</text>
</g>
<!-- 3&#45;&gt;5 -->
<g id="edge1" class="edge">
<title>3&#45;&gt;5</title>
<path fill="none" stroke="black" stroke-dasharray="5,2" d="M99.83,-122.92C99.83,-112.67 99.83,-100.1 99.83,-88.92"/>
<polygon fill="black" stroke="black" points="103.33,-89.02 99.83,-79.02 96.33,-89.02 103.33,-89.02"/>
<text text-anchor="middle" x="120.46" y="-97.2" font-family="DejaVu Sans Mono" font-size="14.00">calls</text>
</g>
<!-- input -->
<g id="node5" class="node">
<title>input</title>
<polygon fill="#afeeee" stroke="black" points="604.71,-235 511.05,-235 486.95,-199 580.62,-199 604.71,-235"/>
<text text-anchor="middle" x="545.83" y="-212.32" font-family="DejaVu Sans Mono" font-size="14.00">input</text>
</g>
<!-- call -->
<g id="node10" class="node">
<title>call</title>
<polygon fill="#e552ff" stroke="black" points="572.83,-162.5 530.83,-162.5 530.83,-166.5 518.83,-166.5 518.83,-126.5 572.83,-126.5 572.83,-162.5"/>
<polyline fill="none" stroke="black" points="518.83,-162.5 530.83,-162.5"/>
<text text-anchor="middle" x="545.83" y="-139.82" font-family="DejaVu Sans Mono" font-size="14.00">call</text>
</g>
<!-- input&#45;&gt;call -->
<!-- default -->
<g id="node6" class="node">
<title>default</title>
<polygon fill="#fffb81" stroke="black" points="438.71,-162.5 364.96,-162.5 364.96,-126.5 438.71,-126.5 438.71,-162.5"/>
<text text-anchor="middle" x="401.83" y="-139.82" font-family="DejaVu Sans Mono" font-size="14.00">default</text>
</g>
<!-- if -->
<g id="node7" class="node">
<title>if</title>
<polygon fill="#ff6752" stroke="black" points="545.83,-288 513.59,-270 545.83,-252 578.07,-270 545.83,-288"/>
<text text-anchor="middle" x="545.83" y="-265.32" font-family="DejaVu Sans Mono" font-size="14.00">if</text>
</g>
<!-- if&#45;&gt;input -->
<!-- for -->
<g id="node8" class="node">
<title>for</title>
<polygon fill="#ffbe52" stroke="black" points="493.84,-270 477.34,-288 444.33,-288 427.82,-270 444.33,-252 477.34,-252 493.84,-270"/>
<text text-anchor="middle" x="460.83" y="-265.32" font-family="DejaVu Sans Mono" font-size="14.00">for</text>
</g>
<!-- return -->
<g id="node11" class="node">
<title>return</title>
<polygon fill="#98fb98" stroke="black" points="469.2,-235 362.03,-235 334.47,-199 441.63,-199 469.2,-235"/>
<text text-anchor="middle" x="401.83" y="-212.32" font-family="DejaVu Sans Mono" font-size="14.00">return</text>
</g>
<!-- for&#45;&gt;return -->
<!-- while -->
<g id="node9" class="node">
<title>while</title>
<polygon fill="#ffbe52" stroke="black" points="410.2,-270 387.02,-288 340.65,-288 317.46,-270 340.65,-252 387.02,-252 410.2,-270"/>
<text text-anchor="middle" x="363.83" y="-265.32" font-family="DejaVu Sans Mono" font-size="14.00">while</text>
</g>
<!-- return&#45;&gt;default -->
<!-- try -->
<g id="node12" class="node">
<title>try</title>
<polygon fill="orange" stroke="black" points="258.83,-288 218.41,-270 258.83,-252 299.26,-270 258.83,-288"/>
<polyline fill="none" stroke="black" points="229.37,-274.88 229.37,-265.12"/>
<polyline fill="none" stroke="black" points="247.87,-256.88 269.79,-256.88"/>
<polyline fill="none" stroke="black" points="288.3,-265.12 288.3,-274.88"/>
<polyline fill="none" stroke="black" points="269.79,-283.12 247.87,-283.12"/>
<text text-anchor="middle" x="258.83" y="-265.32" font-family="DejaVu Sans Mono" font-size="14.00">try</text>
</g>
<!-- raise -->
<g id="node13" class="node">
<title>raise</title>
<polygon fill="#98fb98" stroke="black" points="316.47,-222.56 266.83,-235 217.19,-222.56 217.24,-202.44 316.43,-202.44 316.47,-222.56"/>
<text text-anchor="middle" x="266.83" y="-212.32" font-family="DejaVu Sans Mono" font-size="14.00">raise</text>
</g>
<!-- try&#45;&gt;raise -->
</g>
</svg>
