<?xml version="1.0" encoding="UTF-8" standalone="no"?>
<!DOCTYPE svg PUBLIC "-//W3C//DTD SVG 1.1//EN"
 "http://www.w3.org/Graphics/SVG/1.1/DTD/svg11.dtd">
<!-- Generated by graphviz version 9.0.0 (20230911.1827)
 -->
<!-- Title: cluster0loops&#45;08&#45;caesar&#45;keygen Pages: 1 -->
<svg width="1030pt" height="326pt"
 viewBox="0.00 0.00 1029.88 325.50" xmlns="http://www.w3.org/2000/svg" xmlns:xlink="http://www.w3.org/1999/xlink">
<g id="graph0" class="graph" transform="scale(1 1) rotate(0) translate(4 321.5)">
<title>cluster0loops&#45;08&#45;caesar&#45;keygen</title>
<polygon fill="white" stroke="none" points="-4,4 -4,-321.5 1025.88,-321.5 1025.88,4 -4,4"/>
<text text-anchor="middle" x="510.94" y="-7.95" font-family="DejaVu Sans Mono" font-size="14.00">loops&#45;08&#45;caesar&#45;keygen</text>
<g id="clust1" class="cluster">
<title>cluster_1</title>
<polygon fill="purple" stroke="purple" points="188.88,-33.25 188.88,-138.25 412.88,-138.25 412.88,-33.25 188.88,-33.25"/>
</g>
<g id="clust2" class="cluster">
<title>cluster_KEY</title>
<polygon fill="none" stroke="black" points="609.88,-33.25 609.88,-295.75 1013.88,-295.75 1013.88,-33.25 609.88,-33.25"/>
<text text-anchor="middle" x="811.88" y="-278.45" font-family="DejaVu Sans Mono" font-size="14.00">KEY</text>
</g>
<!-- 1 -->
<g id="node1" class="node">
<title>1</title>
<polygon fill="#fffb81" stroke="black" points="601.75,-317.5 0,-317.5 0,-171.5 601.75,-171.5 601.75,-317.5"/>
<text text-anchor="start" x="8" y="-300.2" font-family="DejaVu Sans Mono" font-size="14.00">import random</text>
<text text-anchor="start" x="8" y="-282.95" font-family="DejaVu Sans Mono" font-size="14.00">print(&#39;Your Caesar key is: ...&#39;)</text>
<text text-anchor="start" x="8" y="-265.7" font-family="DejaVu Sans Mono" font-size="14.00">print(random.randint(1, 25))</text>
<text text-anchor="start" x="8" y="-248.45" font-family="DejaVu Sans Mono" font-size="14.00">print(</text>
<text text-anchor="start" x="8" y="-231.2" font-family="DejaVu Sans Mono" font-size="14.00"> &#160;&#160;&#160;&quot;&quot;&quot;</text>
<text text-anchor="start" x="8" y="-213.95" font-family="DejaVu Sans Mono" font-size="14.00"> Share this with your communication partner, and don&#39;t tell anyone else</text>
<text text-anchor="start" x="8" y="-196.7" font-family="DejaVu Sans Mono" font-size="14.00">&quot;&quot;&quot;</text>
<text text-anchor="start" x="8" y="-179.45" font-family="DejaVu Sans Mono" font-size="14.00"> &#160;&#160;&#160;)</text>
</g>
<!-- 2 -->
<g id="node2" class="node">
<title>2</title>
<polygon fill="#e552ff" stroke="#e552ff" points="254.5,-130.25 209.25,-130.25 209.25,-134.25 197.25,-134.25 197.25,-94.25 254.5,-94.25 254.5,-130.25"/>
<polyline fill="none" stroke="#e552ff" points="197.25,-130.25 209.25,-130.25"/>
<text text-anchor="middle" x="225.88" y="-107.58" font-family="DejaVu Sans Mono" font-size="14.00">print</text>
</g>
<!-- 1&#45;&gt;2 -->
<g id="edge1" class="edge">
<title>1&#45;&gt;2</title>
<path fill="none" stroke="black" stroke-dasharray="5,2" d="M259.21,-171.14C252.91,-160.2 246.77,-149.53 241.51,-140.4"/>
<polygon fill="black" stroke="black" points="244.56,-138.68 236.54,-131.76 238.49,-142.18 244.56,-138.68"/>
<text text-anchor="middle" x="275.5" y="-150.2" font-family="DejaVu Sans Mono" font-size="14.00">calls</text>
</g>
<!-- 3 -->
<g id="node3" class="node">
<title>3</title>
<polygon fill="#e552ff" stroke="#e552ff" points="329.5,-130.25 284.25,-130.25 284.25,-134.25 272.25,-134.25 272.25,-94.25 329.5,-94.25 329.5,-130.25"/>
<polyline fill="none" stroke="#e552ff" points="272.25,-130.25 284.25,-130.25"/>
<text text-anchor="middle" x="300.88" y="-107.58" font-family="DejaVu Sans Mono" font-size="14.00">print</text>
</g>
<!-- 1&#45;&gt;3 -->
<g id="edge2" class="edge">
<title>1&#45;&gt;3</title>
<path fill="none" stroke="black" stroke-dasharray="5,2" d="M300.88,-171.14C300.88,-160.79 300.88,-150.69 300.88,-141.9"/>
<polygon fill="black" stroke="black" points="304.38,-141.97 300.88,-131.97 297.38,-141.97 304.38,-141.97"/>
<text text-anchor="middle" x="321.5" y="-150.2" font-family="DejaVu Sans Mono" font-size="14.00">calls</text>
</g>
<!-- 5 -->
<g id="node4" class="node">
<title>5</title>
<polygon fill="#e552ff" stroke="#e552ff" points="404.5,-130.25 359.25,-130.25 359.25,-134.25 347.25,-134.25 347.25,-94.25 404.5,-94.25 404.5,-130.25"/>
<polyline fill="none" stroke="#e552ff" points="347.25,-130.25 359.25,-130.25"/>
<text text-anchor="middle" x="375.88" y="-107.58" font-family="DejaVu Sans Mono" font-size="14.00">print</text>
</g>
<!-- 1&#45;&gt;5 -->
<g id="edge3" class="edge">
<title>1&#45;&gt;5</title>
<path fill="none" stroke="black" stroke-dasharray="5,2" d="M342.54,-171.14C348.84,-160.2 354.98,-149.53 360.24,-140.4"/>
<polygon fill="black" stroke="black" points="363.26,-142.18 365.21,-131.76 357.19,-138.68 363.26,-142.18"/>
<text text-anchor="middle" x="375.5" y="-150.2" font-family="DejaVu Sans Mono" font-size="14.00">calls</text>
</g>
<!-- 4 -->
<g id="node5" class="node">
<title>4</title>
<polygon fill="#e552ff" stroke="#e552ff" points="366.62,-77.25 247.12,-77.25 247.12,-81.25 235.12,-81.25 235.12,-41.25 366.62,-41.25 366.62,-77.25"/>
<polyline fill="none" stroke="#e552ff" points="235.12,-77.25 247.12,-77.25"/>
<text text-anchor="middle" x="300.88" y="-54.58" font-family="DejaVu Sans Mono" font-size="14.00">random.randint</text>
</g>
<!-- 3&#45;&gt;4 -->
<g id="edge4" class="edge">
<title>3&#45;&gt;4</title>
<path fill="none" stroke="black" d="M300.88,-93.98C300.88,-92.32 300.88,-90.61 300.88,-88.87"/>
<polygon fill="black" stroke="black" points="304.38,-89.01 300.88,-79.01 297.38,-89.01 304.38,-89.01"/>
</g>
<!-- input -->
<g id="node6" class="node">
<title>input</title>
<polygon fill="#afeeee" stroke="black" points="1005.76,-130.25 912.09,-130.25 887.99,-94.25 981.66,-94.25 1005.76,-130.25"/>
<text text-anchor="middle" x="946.88" y="-107.58" font-family="DejaVu Sans Mono" font-size="14.00">input</text>
</g>
<!-- call -->
<g id="node11" class="node">
<title>call</title>
<polygon fill="#e552ff" stroke="black" points="973.88,-77.25 931.88,-77.25 931.88,-81.25 919.88,-81.25 919.88,-41.25 973.88,-41.25 973.88,-77.25"/>
<polyline fill="none" stroke="black" points="919.88,-77.25 931.88,-77.25"/>
<text text-anchor="middle" x="946.88" y="-54.58" font-family="DejaVu Sans Mono" font-size="14.00">call</text>
</g>
<!-- input&#45;&gt;call -->
<!-- default -->
<g id="node7" class="node">
<title>default</title>
<polygon fill="#fffb81" stroke="black" points="839.75,-77.25 766,-77.25 766,-41.25 839.75,-41.25 839.75,-77.25"/>
<text text-anchor="middle" x="802.88" y="-54.58" font-family="DejaVu Sans Mono" font-size="14.00">default</text>
</g>
<!-- if -->
<g id="node8" class="node">
<title>if</title>
<polygon fill="#ff6752" stroke="black" points="946.88,-262.5 914.63,-244.5 946.88,-226.5 979.12,-244.5 946.88,-262.5"/>
<text text-anchor="middle" x="946.88" y="-239.82" font-family="DejaVu Sans Mono" font-size="14.00">if</text>
</g>
<!-- if&#45;&gt;input -->
<!-- for -->
<g id="node9" class="node">
<title>for</title>
<polygon fill="#ffbe52" stroke="black" points="895.88,-244.5 879.38,-262.5 846.37,-262.5 829.87,-244.5 846.37,-226.5 879.38,-226.5 895.88,-244.5"/>
<text text-anchor="middle" x="862.88" y="-239.82" font-family="DejaVu Sans Mono" font-size="14.00">for</text>
</g>
<!-- return -->
<g id="node12" class="node">
<title>return</title>
<polygon fill="#98fb98" stroke="black" points="870.24,-130.25 763.08,-130.25 735.51,-94.25 842.67,-94.25 870.24,-130.25"/>
<text text-anchor="middle" x="802.88" y="-107.58" font-family="DejaVu Sans Mono" font-size="14.00">return</text>
</g>
<!-- for&#45;&gt;return -->
<!-- while -->
<g id="node10" class="node">
<title>while</title>
<polygon fill="#ffbe52" stroke="black" points="812.25,-244.5 789.06,-262.5 742.69,-262.5 719.5,-244.5 742.69,-226.5 789.06,-226.5 812.25,-244.5"/>
<text text-anchor="middle" x="765.88" y="-239.82" font-family="DejaVu Sans Mono" font-size="14.00">while</text>
</g>
<!-- return&#45;&gt;default -->
<!-- try -->
<g id="node13" class="node">
<title>try</title>
<polygon fill="orange" stroke="black" points="660.88,-262.5 620.45,-244.5 660.88,-226.5 701.3,-244.5 660.88,-262.5"/>
<polyline fill="none" stroke="black" points="631.41,-249.38 631.41,-239.62"/>
<polyline fill="none" stroke="black" points="649.91,-231.38 671.84,-231.38"/>
<polyline fill="none" stroke="black" points="690.34,-239.62 690.34,-249.38"/>
<polyline fill="none" stroke="black" points="671.84,-257.62 649.91,-257.62"/>
<text text-anchor="middle" x="660.88" y="-239.82" font-family="DejaVu Sans Mono" font-size="14.00">try</text>
</g>
<!-- raise -->
<g id="node14" class="node">
<title>raise</title>
<polygon fill="#98fb98" stroke="black" points="717.52,-117.81 667.88,-130.25 618.23,-117.81 618.28,-97.69 717.47,-97.69 717.52,-117.81"/>
<text text-anchor="middle" x="667.88" y="-107.58" font-family="DejaVu Sans Mono" font-size="14.00">raise</text>
</g>
<!-- try&#45;&gt;raise -->
</g>
</svg>
