<?xml version="1.0" encoding="UTF-8" standalone="no"?>
<!DOCTYPE svg PUBLIC "-//W3C//DTD SVG 1.1//EN"
 "http://www.w3.org/Graphics/SVG/1.1/DTD/svg11.dtd">
<!-- Generated by graphviz version 9.0.0 (20230911.1827)
 -->
<!-- Title: cluster0loops&#45;05&#45;trial&#45;division Pages: 1 -->
<svg width="1393pt" height="556pt"
 viewBox="0.00 0.00 1392.97 556.25" xmlns="http://www.w3.org/2000/svg" xmlns:xlink="http://www.w3.org/1999/xlink">
<g id="graph0" class="graph" transform="scale(1 1) rotate(0) translate(4 552.25)">
<title>cluster0loops&#45;05&#45;trial&#45;division</title>
<polygon fill="white" stroke="none" points="-4,4 -4,-552.25 1388.97,-552.25 1388.97,4 -4,4"/>
<text text-anchor="middle" x="692.48" y="-7.95" font-family="DejaVu Sans Mono" font-size="14.00">loops&#45;05&#45;trial&#45;division</text>
<g id="clust1" class="cluster">
<title>cluster_1</title>
<polygon fill="purple" stroke="purple" points="81.75,-310 81.75,-434.5 155.75,-434.5 155.75,-310 81.75,-310"/>
</g>
<g id="clust2" class="cluster">
<title>cluster_12</title>
<polygon fill="purple" stroke="purple" points="337.75,-33.25 337.75,-85.25 411.75,-85.25 411.75,-33.25 337.75,-33.25"/>
</g>
<g id="clust3" class="cluster">
<title>cluster_14</title>
<polygon fill="purple" stroke="purple" points="657.75,-33.25 657.75,-85.25 731.75,-85.25 731.75,-33.25 657.75,-33.25"/>
</g>
<g id="clust4" class="cluster">
<title>cluster_KEY</title>
<polygon fill="none" stroke="black" points="636.75,-310 636.75,-540.25 1040.75,-540.25 1040.75,-310 636.75,-310"/>
<text text-anchor="middle" x="838.75" y="-522.95" font-family="DejaVu Sans Mono" font-size="14.00">KEY</text>
</g>
<!-- 1 -->
<g id="node1" class="node">
<title>1</title>
<polygon fill="#fffb81" stroke="black" points="461.5,-510.25 0,-510.25 0,-467.75 461.5,-467.75 461.5,-510.25"/>
<text text-anchor="start" x="8" y="-492.95" font-family="DejaVu Sans Mono" font-size="14.00">value: int = 2</text>
<text text-anchor="start" x="8" y="-475.7" font-family="DejaVu Sans Mono" font-size="14.00">max_value: int = int(input(&#39;Display primes up to...&#39;))</text>
</g>
<!-- 2 -->
<g id="node2" class="node">
<title>2</title>
<polygon fill="#e552ff" stroke="#e552ff" points="145.75,-426.5 103.75,-426.5 103.75,-430.5 91.75,-430.5 91.75,-390.5 145.75,-390.5 145.75,-426.5"/>
<polyline fill="none" stroke="#e552ff" points="91.75,-426.5 103.75,-426.5"/>
<text text-anchor="middle" x="118.75" y="-403.82" font-family="DejaVu Sans Mono" font-size="14.00">int</text>
</g>
<!-- 1&#45;&gt;2 -->
<g id="edge1" class="edge">
<title>1&#45;&gt;2</title>
<path fill="none" stroke="black" stroke-dasharray="5,2" d="M201.32,-467.38C186.4,-456.92 168.2,-444.16 152.69,-433.29"/>
<polygon fill="black" stroke="black" points="154.87,-430.55 144.68,-427.67 150.86,-436.28 154.87,-430.55"/>
<text text-anchor="middle" x="209.38" y="-446.45" font-family="DejaVu Sans Mono" font-size="14.00">calls</text>
</g>
<!-- 4 -->
<g id="node4" class="node">
<title>4</title>
<polygon fill="#ffbe52" stroke="black" points="523.77,-408.5 433.76,-426.5 253.74,-426.5 163.73,-408.5 253.74,-390.5 433.76,-390.5 523.77,-408.5"/>
<text text-anchor="start" x="223.43" y="-403.82" font-family="DejaVu Sans Mono" font-size="14.00">while value &lt;= max_value:</text>
</g>
<!-- 1&#45;&gt;4 -->
<g id="edge18" class="edge">
<title>1&#45;&gt;4</title>
<path fill="none" stroke="black" d="M260.44,-467.38C275.49,-456.92 293.85,-444.16 309.5,-433.29"/>
<polygon fill="black" stroke="black" points="311.38,-436.25 317.6,-427.67 307.39,-430.5 311.38,-436.25"/>
</g>
<!-- 3 -->
<g id="node3" class="node">
<title>3</title>
<polygon fill="#e552ff" stroke="#e552ff" points="147.38,-354 102.12,-354 102.12,-358 90.12,-358 90.12,-318 147.38,-318 147.38,-354"/>
<polyline fill="none" stroke="#e552ff" points="90.12,-354 102.12,-354"/>
<text text-anchor="middle" x="118.75" y="-331.32" font-family="DejaVu Sans Mono" font-size="14.00">input</text>
</g>
<!-- 2&#45;&gt;3 -->
<g id="edge2" class="edge">
<title>2&#45;&gt;3</title>
<path fill="none" stroke="black" d="M118.75,-390.07C118.75,-382.73 118.75,-373.99 118.75,-365.74"/>
<polygon fill="black" stroke="black" points="122.25,-365.74 118.75,-355.74 115.25,-365.74 122.25,-365.74"/>
</g>
<!-- 5 -->
<g id="node5" class="node">
<title>5</title>
<polygon fill="#fffb81" stroke="black" points="628.38,-357.25 439.12,-357.25 439.12,-314.75 628.38,-314.75 628.38,-357.25"/>
<text text-anchor="start" x="447.12" y="-339.95" font-family="DejaVu Sans Mono" font-size="14.00">is_prime: int = 1</text>
<text text-anchor="start" x="447.12" y="-322.7" font-family="DejaVu Sans Mono" font-size="14.00">trial_factor: int = 2</text>
</g>
<!-- 4&#45;&gt;5 -->
<g id="edge17" class="edge">
<title>4&#45;&gt;5</title>
<path fill="none" stroke="green" d="M390.72,-390.07C413.79,-381.51 442,-371.04 467.25,-361.67"/>
<polygon fill="green" stroke="green" points="468.29,-365.02 476.45,-358.26 465.86,-358.46 468.29,-365.02"/>
<text text-anchor="middle" x="530" y="-369.2" font-family="DejaVu Sans Mono" font-size="14.00">value &lt;= max_value</text>
</g>
<!-- 7 -->
<g id="node6" class="node">
<title>7</title>
<polygon fill="#ffbe52" stroke="black" points="941.14,-275 844.44,-293 651.06,-293 554.36,-275 651.06,-257 844.44,-257 941.14,-275"/>
<text text-anchor="start" x="617.91" y="-270.32" font-family="DejaVu Sans Mono" font-size="14.00">while trial_factor &lt; value:</text>
</g>
<!-- 5&#45;&gt;7 -->
<g id="edge16" class="edge">
<title>5&#45;&gt;7</title>
<path fill="none" stroke="black" d="M608.9,-314.28C629.83,-308.51 652.54,-302.25 673.42,-296.49"/>
<polygon fill="black" stroke="black" points="674.31,-299.88 683.02,-293.85 672.45,-293.13 674.31,-299.88"/>
</g>
<!-- 8 -->
<g id="node7" class="node">
<title>8</title>
<polygon fill="#ff6752" stroke="black" points="1131.75,-223.75 878.53,-205.75 1131.75,-187.75 1384.97,-205.75 1131.75,-223.75"/>
<text text-anchor="start" x="959.26" y="-201.07" font-family="DejaVu Sans Mono" font-size="14.00">if value % trial_factor == 0:</text>
</g>
<!-- 7&#45;&gt;8 -->
<g id="edge7" class="edge">
<title>7&#45;&gt;8</title>
<path fill="none" stroke="green" d="M845.64,-256.86C908.69,-245.82 989.71,-231.62 1049.44,-221.17"/>
<polygon fill="green" stroke="green" points="1049.97,-224.63 1059.22,-219.45 1048.76,-217.73 1049.97,-224.63"/>
<text text-anchor="middle" x="1067.25" y="-235.7" font-family="DejaVu Sans Mono" font-size="14.00">trial_factor &lt; value</text>
</g>
<!-- 9 -->
<g id="node10" class="node">
<title>9</title>
<polygon fill="#ff6752" stroke="black" points="645.75,-223.75 490.74,-205.75 645.75,-187.75 800.76,-205.75 645.75,-223.75"/>
<text text-anchor="start" x="543.26" y="-201.07" font-family="DejaVu Sans Mono" font-size="14.00">if is_prime == 1:</text>
</g>
<!-- 7&#45;&gt;9 -->
<g id="edge15" class="edge">
<title>7&#45;&gt;9</title>
<path fill="none" stroke="red" d="M658.44,-256.63C653.28,-254.35 649.26,-251.81 647,-249 643.75,-244.97 642.2,-239.95 641.65,-234.8"/>
<polygon fill="red" stroke="red" points="645.15,-235.19 641.78,-225.14 638.15,-235.1 645.15,-235.19"/>
<text text-anchor="middle" x="741.62" y="-235.7" font-family="DejaVu Sans Mono" font-size="14.00">(trial_factor &gt;= value)</text>
</g>
<!-- 10 -->
<g id="node8" class="node">
<title>10</title>
<polygon fill="#fffb81" stroke="black" points="994.25,-154.5 879.25,-154.5 879.25,-118.5 994.25,-118.5 994.25,-154.5"/>
<text text-anchor="start" x="887.25" y="-131.82" font-family="DejaVu Sans Mono" font-size="14.00">is_prime = 0</text>
</g>
<!-- 8&#45;&gt;10 -->
<g id="edge5" class="edge">
<title>8&#45;&gt;10</title>
<path fill="none" stroke="green" d="M1005.93,-196.23C966.13,-192.25 930.75,-186.8 924.5,-179.75 920.89,-175.68 920.24,-170.6 921.18,-165.39"/>
<polygon fill="green" stroke="green" points="924.39,-166.82 924.4,-156.22 917.78,-164.5 924.39,-166.82"/>
<text text-anchor="middle" x="1026.88" y="-166.45" font-family="DejaVu Sans Mono" font-size="14.00">value % trial_factor == 0</text>
</g>
<!-- 11 -->
<g id="node9" class="node">
<title>11</title>
<polygon fill="#fffb81" stroke="black" points="1072.62,-77.25 800.88,-77.25 800.88,-41.25 1072.62,-41.25 1072.62,-77.25"/>
<text text-anchor="start" x="808.88" y="-54.58" font-family="DejaVu Sans Mono" font-size="14.00">trial_factor = trial_factor + 1</text>
</g>
<!-- 8&#45;&gt;11 -->
<g id="edge6" class="edge">
<title>8&#45;&gt;11</title>
<path fill="none" stroke="red" d="M1135.17,-187.57C1135.88,-179.41 1135.31,-169.86 1130.75,-162.5 1105.76,-122.16 1059.11,-96.86 1017.82,-81.52"/>
<polygon fill="red" stroke="red" points="1019.2,-78.3 1008.6,-78.25 1016.85,-84.89 1019.2,-78.3"/>
<text text-anchor="middle" x="1236.12" y="-131.82" font-family="DejaVu Sans Mono" font-size="14.00">(value % trial_factor != 0)</text>
</g>
<!-- 10&#45;&gt;11 -->
<g id="edge4" class="edge">
<title>10&#45;&gt;11</title>
<path fill="none" stroke="black" d="M936.75,-118.05C936.75,-109.4 936.75,-98.75 936.75,-88.94"/>
<polygon fill="black" stroke="black" points="940.25,-89.12 936.75,-79.12 933.25,-89.12 940.25,-89.12"/>
</g>
<!-- 11&#45;&gt;7 -->
<g id="edge3" class="edge">
<title>11&#45;&gt;7</title>
<path fill="none" stroke="black" d="M910.45,-77.61C896.73,-87.96 880.76,-102.23 870.75,-118.5 839.36,-169.56 878.73,-206.22 836.75,-249 836.57,-249.18 836.4,-249.36 836.22,-249.53"/>
<polygon fill="black" stroke="black" points="834.2,-246.66 828.68,-255.71 838.63,-252.08 834.2,-246.66"/>
</g>
<!-- 12 -->
<g id="node11" class="node">
<title>12</title>
<polygon fill="#fffb81" stroke="black" points="548.88,-154.5 326.62,-154.5 326.62,-118.5 548.88,-118.5 548.88,-154.5"/>
<text text-anchor="start" x="334.62" y="-131.82" font-family="DejaVu Sans Mono" font-size="14.00">print(value, &#39; is prime&#39;)</text>
</g>
<!-- 9&#45;&gt;12 -->
<g id="edge11" class="edge">
<title>9&#45;&gt;12</title>
<path fill="none" stroke="green" d="M598.07,-192.86C583.37,-188.96 567.2,-184.42 552.5,-179.75 532.88,-173.52 511.66,-165.95 492.86,-158.95"/>
<polygon fill="green" stroke="green" points="494.12,-155.68 483.53,-155.43 491.66,-162.23 494.12,-155.68"/>
<text text-anchor="middle" x="605.38" y="-166.45" font-family="DejaVu Sans Mono" font-size="14.00">is_prime == 1</text>
</g>
<!-- 14 -->
<g id="node14" class="node">
<title>14</title>
<polygon fill="#fffb81" stroke="black" points="822.38,-154.5 567.12,-154.5 567.12,-118.5 822.38,-118.5 822.38,-154.5"/>
<text text-anchor="start" x="575.12" y="-131.82" font-family="DejaVu Sans Mono" font-size="14.00">print(value, &#39; is not prime&#39;)</text>
</g>
<!-- 9&#45;&gt;14 -->
<g id="edge14" class="edge">
<title>9&#45;&gt;14</title>
<path fill="none" stroke="red" d="M657.36,-188.81C662.79,-181.36 669.4,-172.29 675.54,-163.86"/>
<polygon fill="red" stroke="red" points="678.24,-166.1 681.3,-155.96 672.58,-161.98 678.24,-166.1"/>
<text text-anchor="middle" x="737.62" y="-166.45" font-family="DejaVu Sans Mono" font-size="14.00">(is_prime != 1)</text>
</g>
<!-- 16 -->
<g id="node12" class="node">
<title>16</title>
<polygon fill="#e552ff" stroke="#e552ff" points="403.38,-77.25 358.12,-77.25 358.12,-81.25 346.12,-81.25 346.12,-41.25 403.38,-41.25 403.38,-77.25"/>
<polyline fill="none" stroke="#e552ff" points="346.12,-77.25 358.12,-77.25"/>
<text text-anchor="middle" x="374.75" y="-54.58" font-family="DejaVu Sans Mono" font-size="14.00">print</text>
</g>
<!-- 12&#45;&gt;16 -->
<g id="edge8" class="edge">
<title>12&#45;&gt;16</title>
<path fill="none" stroke="black" stroke-dasharray="5,2" d="M420.53,-118.25C418.12,-115.7 415.72,-113.06 413.5,-110.5 406.94,-102.92 400.15,-94.38 394.11,-86.52"/>
<polygon fill="black" stroke="black" points="396.94,-84.45 388.12,-78.59 391.36,-88.67 396.94,-84.45"/>
<text text-anchor="middle" x="433.38" y="-97.2" font-family="DejaVu Sans Mono" font-size="14.00">calls</text>
</g>
<!-- 13 -->
<g id="node13" class="node">
<title>13</title>
<polygon fill="#fffb81" stroke="black" points="577.88,-77.25 421.62,-77.25 421.62,-41.25 577.88,-41.25 577.88,-77.25"/>
<text text-anchor="start" x="429.62" y="-54.58" font-family="DejaVu Sans Mono" font-size="14.00">value = value + 1</text>
</g>
<!-- 12&#45;&gt;13 -->
<g id="edge10" class="edge">
<title>12&#45;&gt;13</title>
<path fill="none" stroke="black" d="M452.13,-118.05C459.88,-108.64 469.59,-96.86 478.22,-86.38"/>
<polygon fill="black" stroke="black" points="480.83,-88.72 484.49,-78.78 475.43,-84.27 480.83,-88.72"/>
</g>
<!-- 13&#45;&gt;4 -->
<g id="edge9" class="edge">
<title>13&#45;&gt;4</title>
<path fill="none" stroke="black" d="M440.89,-77.74C392.02,-92.48 328.79,-112.16 317.75,-118.5 307.92,-124.14 298.75,-124.17 298.75,-135.5 298.75,-337 298.75,-337 298.75,-337 298.75,-353.59 307.72,-369.42 317.64,-381.86"/>
<polygon fill="black" stroke="black" points="314.75,-383.86 323.94,-389.13 320.04,-379.28 314.75,-383.86"/>
</g>
<!-- 14&#45;&gt;13 -->
<g id="edge13" class="edge">
<title>14&#45;&gt;13</title>
<path fill="none" stroke="black" d="M649.52,-118.05C621.57,-107.26 585.47,-93.33 555.72,-81.85"/>
<polygon fill="black" stroke="black" points="557.07,-78.62 546.48,-78.28 554.55,-85.15 557.07,-78.62"/>
</g>
<!-- 15 -->
<g id="node15" class="node">
<title>15</title>
<polygon fill="#e552ff" stroke="#e552ff" points="723.38,-77.25 678.12,-77.25 678.12,-81.25 666.12,-81.25 666.12,-41.25 723.38,-41.25 723.38,-77.25"/>
<polyline fill="none" stroke="#e552ff" points="666.12,-77.25 678.12,-77.25"/>
<text text-anchor="middle" x="694.75" y="-54.58" font-family="DejaVu Sans Mono" font-size="14.00">print</text>
</g>
<!-- 14&#45;&gt;15 -->
<g id="edge12" class="edge">
<title>14&#45;&gt;15</title>
<path fill="none" stroke="black" stroke-dasharray="5,2" d="M694.75,-118.05C694.75,-109.4 694.75,-98.75 694.75,-88.94"/>
<polygon fill="black" stroke="black" points="698.25,-89.12 694.75,-79.12 691.25,-89.12 698.25,-89.12"/>
<text text-anchor="middle" x="715.38" y="-97.2" font-family="DejaVu Sans Mono" font-size="14.00">calls</text>
</g>
<!-- input -->
<g id="node16" class="node">
<title>input</title>
<polygon fill="#afeeee" stroke="black" points="1032.63,-426.5 938.96,-426.5 914.87,-390.5 1008.54,-390.5 1032.63,-426.5"/>
<text text-anchor="middle" x="973.75" y="-403.82" font-family="DejaVu Sans Mono" font-size="14.00">input</text>
</g>
<!-- call -->
<g id="node21" class="node">
<title>call</title>
<polygon fill="#e552ff" stroke="black" points="1000.75,-354 958.75,-354 958.75,-358 946.75,-358 946.75,-318 1000.75,-318 1000.75,-354"/>
<polyline fill="none" stroke="black" points="946.75,-354 958.75,-354"/>
<text text-anchor="middle" x="973.75" y="-331.32" font-family="DejaVu Sans Mono" font-size="14.00">call</text>
</g>
<!-- input&#45;&gt;call -->
<!-- default -->
<g id="node17" class="node">
<title>default</title>
<polygon fill="#fffb81" stroke="black" points="866.62,-354 792.88,-354 792.88,-318 866.62,-318 866.62,-354"/>
<text text-anchor="middle" x="829.75" y="-331.32" font-family="DejaVu Sans Mono" font-size="14.00">default</text>
</g>
<!-- if -->
<g id="node18" class="node">
<title>if</title>
<polygon fill="#ff6752" stroke="black" points="973.75,-507 941.51,-489 973.75,-471 1005.99,-489 973.75,-507"/>
<text text-anchor="middle" x="973.75" y="-484.32" font-family="DejaVu Sans Mono" font-size="14.00">if</text>
</g>
<!-- if&#45;&gt;input -->
<!-- for -->
<g id="node19" class="node">
<title>for</title>
<polygon fill="#ffbe52" stroke="black" points="921.76,-489 905.25,-507 872.25,-507 855.74,-489 872.25,-471 905.25,-471 921.76,-489"/>
<text text-anchor="middle" x="888.75" y="-484.32" font-family="DejaVu Sans Mono" font-size="14.00">for</text>
</g>
<!-- return -->
<g id="node22" class="node">
<title>return</title>
<polygon fill="#98fb98" stroke="black" points="897.12,-426.5 789.95,-426.5 762.38,-390.5 869.55,-390.5 897.12,-426.5"/>
<text text-anchor="middle" x="829.75" y="-403.82" font-family="DejaVu Sans Mono" font-size="14.00">return</text>
</g>
<!-- for&#45;&gt;return -->
<!-- while -->
<g id="node20" class="node">
<title>while</title>
<polygon fill="#ffbe52" stroke="black" points="838.12,-489 814.94,-507 768.56,-507 745.38,-489 768.56,-471 814.94,-471 838.12,-489"/>
<text text-anchor="middle" x="791.75" y="-484.32" font-family="DejaVu Sans Mono" font-size="14.00">while</text>
</g>
<!-- return&#45;&gt;default -->
<!-- try -->
<g id="node23" class="node">
<title>try</title>
<polygon fill="orange" stroke="black" points="686.75,-507 646.32,-489 686.75,-471 727.18,-489 686.75,-507"/>
<polyline fill="none" stroke="black" points="657.29,-493.88 657.29,-484.12"/>
<polyline fill="none" stroke="black" points="675.79,-475.88 697.71,-475.88"/>
<polyline fill="none" stroke="black" points="716.21,-484.12 716.21,-493.88"/>
<polyline fill="none" stroke="black" points="697.71,-502.12 675.79,-502.12"/>
<text text-anchor="middle" x="686.75" y="-484.32" font-family="DejaVu Sans Mono" font-size="14.00">try</text>
</g>
<!-- raise -->
<g id="node24" class="node">
<title>raise</title>
<polygon fill="#98fb98" stroke="black" points="744.39,-414.06 694.75,-426.5 645.11,-414.06 645.16,-393.94 744.34,-393.94 744.39,-414.06"/>
<text text-anchor="middle" x="694.75" y="-403.82" font-family="DejaVu Sans Mono" font-size="14.00">raise</text>
</g>
<!-- try&#45;&gt;raise -->
</g>
</svg>
