<?xml version="1.0" encoding="UTF-8" standalone="no"?>
<!DOCTYPE svg PUBLIC "-//W3C//DTD SVG 1.1//EN"
 "http://www.w3.org/Graphics/SVG/1.1/DTD/svg11.dtd">
<!-- Generated by graphviz version 9.0.0 (20230911.1827)
 -->
<!-- Title: cluster0loops&#45;01&#45;squared Pages: 1 -->
<svg width="826pt" height="427pt"
 viewBox="0.00 0.00 826.00 427.00" xmlns="http://www.w3.org/2000/svg" xmlns:xlink="http://www.w3.org/1999/xlink">
<g id="graph0" class="graph" transform="scale(1 1) rotate(0) translate(4 423)">
<title>cluster0loops&#45;01&#45;squared</title>
<polygon fill="white" stroke="none" points="-4,4 -4,-423 822,-423 822,4 -4,4"/>
<text text-anchor="middle" x="409" y="-7.95" font-family="DejaVu Sans Mono" font-size="14.00">loops&#45;01&#45;squared</text>
<g id="clust1" class="cluster">
<title>cluster_1</title>
<polygon fill="purple" stroke="purple" points="8,-175.38 8,-308.5 82,-308.5 82,-175.38 8,-175.38"/>
</g>
<g id="clust2" class="cluster">
<title>cluster_5</title>
<polygon fill="purple" stroke="purple" points="170,-33.25 170,-138.25 316,-138.25 316,-33.25 170,-33.25"/>
</g>
<g id="clust3" class="cluster">
<title>cluster_KEY</title>
<polygon fill="none" stroke="black" points="406,-175.38 406,-411 810,-411 810,-175.38 406,-175.38"/>
<text text-anchor="middle" x="608" y="-393.7" font-family="DejaVu Sans Mono" font-size="14.00">KEY</text>
</g>
<!-- 1 -->
<g id="node1" class="node">
<title>1</title>
<polygon fill="#fffb81" stroke="black" points="275.75,-377.75 12.25,-377.75 12.25,-341.75 275.75,-341.75 275.75,-377.75"/>
<text text-anchor="start" x="20.25" y="-355.07" font-family="DejaVu Sans Mono" font-size="14.00">user_input: int = int(input())</text>
</g>
<!-- 2 -->
<g id="node2" class="node">
<title>2</title>
<polygon fill="#e552ff" stroke="#e552ff" points="72,-300.5 30,-300.5 30,-304.5 18,-304.5 18,-264.5 72,-264.5 72,-300.5"/>
<polyline fill="none" stroke="#e552ff" points="18,-300.5 30,-300.5"/>
<text text-anchor="middle" x="45" y="-277.82" font-family="DejaVu Sans Mono" font-size="14.00">int</text>
</g>
<!-- 1&#45;&gt;2 -->
<g id="edge1" class="edge">
<title>1&#45;&gt;2</title>
<path fill="none" stroke="black" stroke-dasharray="5,2" d="M121.04,-341.3C107.92,-331.32 91.27,-318.67 76.89,-307.74"/>
<polygon fill="black" stroke="black" points="79.12,-305.04 69.04,-301.77 74.89,-310.61 79.12,-305.04"/>
<text text-anchor="middle" x="130.62" y="-320.45" font-family="DejaVu Sans Mono" font-size="14.00">calls</text>
</g>
<!-- 4 -->
<g id="node4" class="node">
<title>4</title>
<polygon fill="#ffbe52" stroke="black" points="396.29,-282.5 319.65,-300.5 166.35,-300.5 89.71,-282.5 166.35,-264.5 319.65,-264.5 396.29,-282.5"/>
<text text-anchor="start" x="141.74" y="-277.82" font-family="DejaVu Sans Mono" font-size="14.00">while 0 &lt; user_input:</text>
</g>
<!-- 1&#45;&gt;4 -->
<g id="edge8" class="edge">
<title>1&#45;&gt;4</title>
<path fill="none" stroke="black" d="M166.96,-341.3C180.08,-331.32 196.73,-318.67 211.11,-307.74"/>
<polygon fill="black" stroke="black" points="213.11,-310.61 218.96,-301.77 208.88,-305.04 213.11,-310.61"/>
</g>
<!-- 3 -->
<g id="node3" class="node">
<title>3</title>
<polygon fill="#e552ff" stroke="#e552ff" points="73.62,-219.38 28.38,-219.38 28.38,-223.38 16.37,-223.38 16.37,-183.38 73.62,-183.38 73.62,-219.38"/>
<polyline fill="none" stroke="#e552ff" points="16.37,-219.38 28.38,-219.38"/>
<text text-anchor="middle" x="45" y="-196.7" font-family="DejaVu Sans Mono" font-size="14.00">input</text>
</g>
<!-- 2&#45;&gt;3 -->
<g id="edge2" class="edge">
<title>2&#45;&gt;3</title>
<path fill="none" stroke="black" d="M45,-264.33C45,-254.65 45,-242.3 45,-231.18"/>
<polygon fill="black" stroke="black" points="48.5,-231.3 45,-221.3 41.5,-231.3 48.5,-231.3"/>
</g>
<!-- 5 -->
<g id="node5" class="node">
<title>5</title>
<polygon fill="#fffb81" stroke="black" points="397.38,-231.25 92.62,-231.25 92.62,-171.5 397.38,-171.5 397.38,-231.25"/>
<text text-anchor="start" x="100.62" y="-213.95" font-family="DejaVu Sans Mono" font-size="14.00">x_squared = user_input * user_input</text>
<text text-anchor="start" x="100.62" y="-196.7" font-family="DejaVu Sans Mono" font-size="14.00">print(x_squared)</text>
<text text-anchor="start" x="100.62" y="-179.45" font-family="DejaVu Sans Mono" font-size="14.00">user_input = int(input())</text>
</g>
<!-- 4&#45;&gt;5 -->
<g id="edge7" class="edge">
<title>4&#45;&gt;5</title>
<path fill="none" stroke="green" d="M182.5,-264.17C179.87,-261.91 177.5,-259.37 175.5,-256.5 172.28,-251.88 171.66,-248.29 175.34,-241.12"/>
<polygon fill="green" stroke="green" points="178.07,-243.36 180.31,-233.01 172.1,-239.7 178.07,-243.36"/>
<text text-anchor="middle" x="233.75" y="-243.2" font-family="DejaVu Sans Mono" font-size="14.00">0 &lt; user_input</text>
</g>
<!-- 5&#45;&gt;4 -->
<g id="edge6" class="edge">
<title>5&#45;&gt;4</title>
<path fill="none" stroke="black" d="M291.13,-231.66C296.19,-237.63 299.03,-244.15 294.29,-254.52"/>
<polygon fill="black" stroke="black" points="291.39,-252.55 289.19,-262.92 297.37,-256.19 291.39,-252.55"/>
</g>
<!-- 7 -->
<g id="node6" class="node">
<title>7</title>
<polygon fill="#e552ff" stroke="#e552ff" points="235.62,-130.25 190.38,-130.25 190.38,-134.25 178.38,-134.25 178.38,-94.25 235.62,-94.25 235.62,-130.25"/>
<polyline fill="none" stroke="#e552ff" points="178.38,-130.25 190.38,-130.25"/>
<text text-anchor="middle" x="207" y="-107.58" font-family="DejaVu Sans Mono" font-size="14.00">print</text>
</g>
<!-- 5&#45;&gt;7 -->
<g id="edge3" class="edge">
<title>5&#45;&gt;7</title>
<path fill="none" stroke="black" stroke-dasharray="5,2" d="M218.8,-171.08C217.27,-168.61 215.9,-166.07 214.75,-163.5 211.76,-156.81 209.9,-149.18 208.74,-141.91"/>
<polygon fill="black" stroke="black" points="212.24,-141.67 207.6,-132.14 205.28,-142.48 212.24,-141.67"/>
<text text-anchor="middle" x="235.62" y="-150.2" font-family="DejaVu Sans Mono" font-size="14.00">calls</text>
</g>
<!-- 8 -->
<g id="node7" class="node">
<title>8</title>
<polygon fill="#e552ff" stroke="#e552ff" points="308,-130.25 266,-130.25 266,-134.25 254,-134.25 254,-94.25 308,-94.25 308,-130.25"/>
<polyline fill="none" stroke="#e552ff" points="254,-130.25 266,-130.25"/>
<text text-anchor="middle" x="281" y="-107.58" font-family="DejaVu Sans Mono" font-size="14.00">int</text>
</g>
<!-- 5&#45;&gt;8 -->
<g id="edge4" class="edge">
<title>5&#45;&gt;8</title>
<path fill="none" stroke="black" stroke-dasharray="5,2" d="M256.99,-171.36C260.99,-161.69 265.43,-150.93 269.4,-141.32"/>
<polygon fill="black" stroke="black" points="272.62,-142.69 273.21,-132.11 266.15,-140.02 272.62,-142.69"/>
<text text-anchor="middle" x="287.62" y="-150.2" font-family="DejaVu Sans Mono" font-size="14.00">calls</text>
</g>
<!-- 9 -->
<g id="node8" class="node">
<title>9</title>
<polygon fill="#e552ff" stroke="#e552ff" points="307.62,-77.25 262.38,-77.25 262.38,-81.25 250.38,-81.25 250.38,-41.25 307.62,-41.25 307.62,-77.25"/>
<polyline fill="none" stroke="#e552ff" points="250.38,-77.25 262.38,-77.25"/>
<text text-anchor="middle" x="279" y="-54.58" font-family="DejaVu Sans Mono" font-size="14.00">input</text>
</g>
<!-- 8&#45;&gt;9 -->
<g id="edge5" class="edge">
<title>8&#45;&gt;9</title>
<path fill="none" stroke="black" d="M280.32,-93.98C280.26,-92.32 280.19,-90.61 280.12,-88.87"/>
<polygon fill="black" stroke="black" points="283.62,-88.87 279.74,-79.01 276.63,-89.14 283.62,-88.87"/>
</g>
<!-- input -->
<g id="node9" class="node">
<title>input</title>
<polygon fill="#afeeee" stroke="black" points="801.88,-300.5 708.21,-300.5 684.12,-264.5 777.79,-264.5 801.88,-300.5"/>
<text text-anchor="middle" x="743" y="-277.82" font-family="DejaVu Sans Mono" font-size="14.00">input</text>
</g>
<!-- call -->
<g id="node14" class="node">
<title>call</title>
<polygon fill="#e552ff" stroke="black" points="770,-219.38 728,-219.38 728,-223.38 716,-223.38 716,-183.38 770,-183.38 770,-219.38"/>
<polyline fill="none" stroke="black" points="716,-219.38 728,-219.38"/>
<text text-anchor="middle" x="743" y="-196.7" font-family="DejaVu Sans Mono" font-size="14.00">call</text>
</g>
<!-- input&#45;&gt;call -->
<!-- default -->
<g id="node10" class="node">
<title>default</title>
<polygon fill="#fffb81" stroke="black" points="635.88,-219.38 562.12,-219.38 562.12,-183.38 635.88,-183.38 635.88,-219.38"/>
<text text-anchor="middle" x="599" y="-196.7" font-family="DejaVu Sans Mono" font-size="14.00">default</text>
</g>
<!-- if -->
<g id="node11" class="node">
<title>if</title>
<polygon fill="#ff6752" stroke="black" points="743,-377.75 710.76,-359.75 743,-341.75 775.24,-359.75 743,-377.75"/>
<text text-anchor="middle" x="743" y="-355.07" font-family="DejaVu Sans Mono" font-size="14.00">if</text>
</g>
<!-- if&#45;&gt;input -->
<!-- for -->
<g id="node12" class="node">
<title>for</title>
<polygon fill="#ffbe52" stroke="black" points="691.01,-359.75 674.5,-377.75 641.5,-377.75 624.99,-359.75 641.5,-341.75 674.5,-341.75 691.01,-359.75"/>
<text text-anchor="middle" x="658" y="-355.07" font-family="DejaVu Sans Mono" font-size="14.00">for</text>
</g>
<!-- return -->
<g id="node15" class="node">
<title>return</title>
<polygon fill="#98fb98" stroke="black" points="666.37,-300.5 559.2,-300.5 531.63,-264.5 638.8,-264.5 666.37,-300.5"/>
<text text-anchor="middle" x="599" y="-277.82" font-family="DejaVu Sans Mono" font-size="14.00">return</text>
</g>
<!-- for&#45;&gt;return -->
<!-- while -->
<g id="node13" class="node">
<title>while</title>
<polygon fill="#ffbe52" stroke="black" points="607.37,-359.75 584.19,-377.75 537.81,-377.75 514.63,-359.75 537.81,-341.75 584.19,-341.75 607.37,-359.75"/>
<text text-anchor="middle" x="561" y="-355.07" font-family="DejaVu Sans Mono" font-size="14.00">while</text>
</g>
<!-- return&#45;&gt;default -->
<!-- try -->
<g id="node16" class="node">
<title>try</title>
<polygon fill="orange" stroke="black" points="456,-377.75 415.57,-359.75 456,-341.75 496.43,-359.75 456,-377.75"/>
<polyline fill="none" stroke="black" points="426.54,-364.63 426.54,-354.87"/>
<polyline fill="none" stroke="black" points="445.04,-346.63 466.96,-346.63"/>
<polyline fill="none" stroke="black" points="485.46,-354.87 485.46,-364.63"/>
<polyline fill="none" stroke="black" points="466.96,-372.87 445.04,-372.87"/>
<text text-anchor="middle" x="456" y="-355.07" font-family="DejaVu Sans Mono" font-size="14.00">try</text>
</g>
<!-- raise -->
<g id="node17" class="node">
<title>raise</title>
<polygon fill="#98fb98" stroke="black" points="513.64,-288.06 464,-300.5 414.36,-288.06 414.41,-267.94 513.59,-267.94 513.64,-288.06"/>
<text text-anchor="middle" x="464" y="-277.82" font-family="DejaVu Sans Mono" font-size="14.00">raise</text>
</g>
<!-- try&#45;&gt;raise -->
</g>
</svg>
