<?xml version="1.0" encoding="UTF-8" standalone="no"?>
<!DOCTYPE svg PUBLIC "-//W3C//DTD SVG 1.1//EN"
 "http://www.w3.org/Graphics/SVG/1.1/DTD/svg11.dtd">
<!-- Generated by graphviz version 9.0.0 (20230911.1827)
 -->
<!-- Title: cluster0loops&#45;09&#45;caesar&#45;for Pages: 1 -->
<svg width="1762pt" height="657pt"
 viewBox="0.00 0.00 1762.00 657.00" xmlns="http://www.w3.org/2000/svg" xmlns:xlink="http://www.w3.org/1999/xlink">
<g id="graph0" class="graph" transform="scale(1 1) rotate(0) translate(4 653)">
<title>cluster0loops&#45;09&#45;caesar&#45;for</title>
<polygon fill="white" stroke="none" points="-4,4 -4,-653 1758,-653 1758,4 -4,4"/>
<text text-anchor="middle" x="877" y="-7.95" font-family="DejaVu Sans Mono" font-size="14.00">loops&#45;09&#45;caesar&#45;for</text>
<g id="clust1" class="cluster">
<title>cluster_1</title>
<polygon fill="purple" stroke="purple" points="8,-293.5 8,-435.25 450,-435.25 450,-293.5 8,-293.5"/>
</g>
<g id="clust2" class="cluster">
<title>cluster_11</title>
<polygon fill="purple" stroke="purple" points="1136,-293.5 1136,-345.5 1210,-345.5 1210,-293.5 1136,-293.5"/>
</g>
<g id="clust3" class="cluster">
<title>cluster_13</title>
<polygon fill="purple" stroke="purple" points="683,-118.5 683,-247.75 904,-247.75 904,-118.5 683,-118.5"/>
</g>
<g id="clust4" class="cluster">
<title>cluster_20</title>
<polygon fill="purple" stroke="purple" points="1338,-33.25 1338,-85.25 1412,-85.25 1412,-33.25 1338,-33.25"/>
</g>
<g id="clust5" class="cluster">
<title>cluster_22</title>
<polygon fill="purple" stroke="purple" points="1023,-33.25 1023,-85.25 1097,-85.25 1097,-33.25 1023,-33.25"/>
</g>
<g id="clust6" class="cluster">
<title>cluster_14</title>
<polygon fill="purple" stroke="purple" points="549,-195.75 549,-247.75 623,-247.75 623,-195.75 549,-195.75"/>
</g>
<g id="clust7" class="cluster">
<title>cluster_KEY</title>
<polygon fill="none" stroke="black" points="1342,-293.5 1342,-610 1746,-610 1746,-293.5 1342,-293.5"/>
<text text-anchor="middle" x="1544" y="-592.7" font-family="DejaVu Sans Mono" font-size="14.00">KEY</text>
</g>
<!-- 1 -->
<g id="node1" class="node">
<title>1</title>
<polygon fill="#fffb81" stroke="black" points="479.25,-649 50.75,-649 50.75,-468.5 479.25,-468.5 479.25,-649"/>
<text text-anchor="start" x="58.75" y="-631.7" font-family="DejaVu Sans Mono" font-size="14.00">print(</text>
<text text-anchor="start" x="58.75" y="-614.45" font-family="DejaVu Sans Mono" font-size="14.00"> &#160;&#160;&#160;&#39;Enter your message l...&#39;</text>
<text text-anchor="start" x="58.75" y="-597.2" font-family="DejaVu Sans Mono" font-size="14.00"> &#160;&#160;&#160;)</text>
<text text-anchor="start" x="58.75" y="-579.95" font-family="DejaVu Sans Mono" font-size="14.00">length: int = int(input())</text>
<text text-anchor="start" x="58.75" y="-562.7" font-family="DejaVu Sans Mono" font-size="14.00">print(&quot;&quot;&quot;</text>
<text text-anchor="start" x="58.75" y="-545.45" font-family="DejaVu Sans Mono" font-size="14.00">Enter your Caesar key in numeric form (1&#45;25): &quot;&quot;&quot;)</text>
<text text-anchor="start" x="58.75" y="-528.2" font-family="DejaVu Sans Mono" font-size="14.00">key: int = int(input())</text>
<text text-anchor="start" x="58.75" y="-510.95" font-family="DejaVu Sans Mono" font-size="14.00">print(&quot;&quot;&quot;</text>
<text text-anchor="start" x="58.75" y="-493.7" font-family="DejaVu Sans Mono" font-size="14.00">Enter 1 for encryption, and 0 for decryption: &quot;&quot;&quot;)</text>
<text text-anchor="start" x="58.75" y="-476.45" font-family="DejaVu Sans Mono" font-size="14.00">mode: int = int(input())</text>
</g>
<!-- 2 -->
<g id="node2" class="node">
<title>2</title>
<polygon fill="#e552ff" stroke="#e552ff" points="293.62,-427.25 248.38,-427.25 248.38,-431.25 236.38,-431.25 236.38,-391.25 293.62,-391.25 293.62,-427.25"/>
<polyline fill="none" stroke="#e552ff" points="236.38,-427.25 248.38,-427.25"/>
<text text-anchor="middle" x="265" y="-404.57" font-family="DejaVu Sans Mono" font-size="14.00">print</text>
</g>
<!-- 1&#45;&gt;2 -->
<g id="edge1" class="edge">
<title>1&#45;&gt;2</title>
<path fill="none" stroke="black" stroke-dasharray="5,2" d="M265,-468.12C265,-457.63 265,-447.58 265,-438.89"/>
<polygon fill="black" stroke="black" points="268.5,-439.12 265,-429.12 261.5,-439.12 268.5,-439.12"/>
<text text-anchor="middle" x="285.62" y="-447.2" font-family="DejaVu Sans Mono" font-size="14.00">calls</text>
</g>
<!-- 3 -->
<g id="node3" class="node">
<title>3</title>
<polygon fill="#e552ff" stroke="#e552ff" points="366,-427.25 324,-427.25 324,-431.25 312,-431.25 312,-391.25 366,-391.25 366,-427.25"/>
<polyline fill="none" stroke="#e552ff" points="312,-427.25 324,-427.25"/>
<text text-anchor="middle" x="339" y="-404.57" font-family="DejaVu Sans Mono" font-size="14.00">int</text>
</g>
<!-- 1&#45;&gt;3 -->
<g id="edge2" class="edge">
<title>1&#45;&gt;3</title>
<path fill="none" stroke="black" stroke-dasharray="5,2" d="M309.97,-468.12C315.47,-457.14 320.73,-446.66 325.23,-437.7"/>
<polygon fill="black" stroke="black" points="328.26,-439.46 329.61,-428.96 322,-436.33 328.26,-439.46"/>
<text text-anchor="middle" x="341.62" y="-447.2" font-family="DejaVu Sans Mono" font-size="14.00">calls</text>
</g>
<!-- 5 -->
<g id="node4" class="node">
<title>5</title>
<polygon fill="#e552ff" stroke="#e552ff" points="441.62,-427.25 396.38,-427.25 396.38,-431.25 384.38,-431.25 384.38,-391.25 441.62,-391.25 441.62,-427.25"/>
<polyline fill="none" stroke="#e552ff" points="384.38,-427.25 396.38,-427.25"/>
<text text-anchor="middle" x="413" y="-404.57" font-family="DejaVu Sans Mono" font-size="14.00">print</text>
</g>
<!-- 1&#45;&gt;5 -->
<g id="edge3" class="edge">
<title>1&#45;&gt;5</title>
<path fill="none" stroke="black" stroke-dasharray="5,2" d="M358.45,-468.11C361,-465.55 363.52,-463.01 366,-460.5 373.76,-452.63 382.05,-443.88 389.47,-435.92"/>
<polygon fill="black" stroke="black" points="391.86,-438.49 396.09,-428.78 386.73,-433.73 391.86,-438.49"/>
<text text-anchor="middle" x="401.62" y="-447.2" font-family="DejaVu Sans Mono" font-size="14.00">calls</text>
</g>
<!-- 6 -->
<g id="node5" class="node">
<title>6</title>
<polygon fill="#e552ff" stroke="#e552ff" points="70,-427.25 28,-427.25 28,-431.25 16,-431.25 16,-391.25 70,-391.25 70,-427.25"/>
<polyline fill="none" stroke="#e552ff" points="16,-427.25 28,-427.25"/>
<text text-anchor="middle" x="43" y="-404.57" font-family="DejaVu Sans Mono" font-size="14.00">int</text>
</g>
<!-- 1&#45;&gt;6 -->
<g id="edge4" class="edge">
<title>1&#45;&gt;6</title>
<path fill="none" stroke="black" stroke-dasharray="5,2" d="M112.8,-468.27C109.06,-465.69 105.37,-463.1 101.75,-460.5 90.98,-452.77 79.78,-443.53 70.07,-435.09"/>
<polygon fill="black" stroke="black" points="72.59,-432.64 62.78,-428.63 67.95,-437.88 72.59,-432.64"/>
<text text-anchor="middle" x="121.62" y="-447.2" font-family="DejaVu Sans Mono" font-size="14.00">calls</text>
</g>
<!-- 8 -->
<g id="node6" class="node">
<title>8</title>
<polygon fill="#e552ff" stroke="#e552ff" points="145.62,-427.25 100.38,-427.25 100.38,-431.25 88.38,-431.25 88.38,-391.25 145.62,-391.25 145.62,-427.25"/>
<polyline fill="none" stroke="#e552ff" points="88.38,-427.25 100.38,-427.25"/>
<text text-anchor="middle" x="117" y="-404.57" font-family="DejaVu Sans Mono" font-size="14.00">print</text>
</g>
<!-- 1&#45;&gt;8 -->
<g id="edge5" class="edge">
<title>1&#45;&gt;8</title>
<path fill="none" stroke="black" stroke-dasharray="5,2" d="M170.33,-468.18C167.77,-465.6 165.23,-463.04 162.75,-460.5 155.2,-452.78 147.19,-444.16 140.03,-436.26"/>
<polygon fill="black" stroke="black" points="142.67,-433.96 133.38,-428.87 137.47,-438.64 142.67,-433.96"/>
<text text-anchor="middle" x="182.62" y="-447.2" font-family="DejaVu Sans Mono" font-size="14.00">calls</text>
</g>
<!-- 9 -->
<g id="node7" class="node">
<title>9</title>
<polygon fill="#e552ff" stroke="#e552ff" points="218,-427.25 176,-427.25 176,-431.25 164,-431.25 164,-391.25 218,-391.25 218,-427.25"/>
<polyline fill="none" stroke="#e552ff" points="164,-427.25 176,-427.25"/>
<text text-anchor="middle" x="191" y="-404.57" font-family="DejaVu Sans Mono" font-size="14.00">int</text>
</g>
<!-- 1&#45;&gt;9 -->
<g id="edge6" class="edge">
<title>1&#45;&gt;9</title>
<path fill="none" stroke="black" stroke-dasharray="5,2" d="M220.03,-468.12C214.53,-457.14 209.27,-446.66 204.77,-437.7"/>
<polygon fill="black" stroke="black" points="208,-436.33 200.39,-428.96 201.74,-439.46 208,-436.33"/>
<text text-anchor="middle" x="234.62" y="-447.2" font-family="DejaVu Sans Mono" font-size="14.00">calls</text>
</g>
<!-- 11 -->
<g id="node11" class="node">
<title>11</title>
<polygon fill="#ffbe52" stroke="black" points="1265.8,-409.25 1152.4,-427.25 925.6,-427.25 812.2,-409.25 925.6,-391.25 1152.4,-391.25 1265.8,-409.25"/>
<text text-anchor="start" x="885.34" y="-404.57" font-family="DejaVu Sans Mono" font-size="14.00">for counter in range(0, length):</text>
</g>
<!-- 1&#45;&gt;11 -->
<g id="edge25" class="edge">
<title>1&#45;&gt;11</title>
<path fill="none" stroke="black" d="M479.57,-516.86C628.56,-488.47 820.39,-451.91 936.32,-429.82"/>
<polygon fill="black" stroke="black" points="936.64,-433.32 945.81,-428.01 935.33,-426.44 936.64,-433.32"/>
</g>
<!-- 4 -->
<g id="node8" class="node">
<title>4</title>
<polygon fill="#e552ff" stroke="#e552ff" points="367.62,-337.5 322.38,-337.5 322.38,-341.5 310.38,-341.5 310.38,-301.5 367.62,-301.5 367.62,-337.5"/>
<polyline fill="none" stroke="#e552ff" points="310.38,-337.5 322.38,-337.5"/>
<text text-anchor="middle" x="339" y="-314.82" font-family="DejaVu Sans Mono" font-size="14.00">input</text>
</g>
<!-- 3&#45;&gt;4 -->
<g id="edge7" class="edge">
<title>3&#45;&gt;4</title>
<path fill="none" stroke="black" d="M339,-390.91C339,-379.02 339,-362.95 339,-349.16"/>
<polygon fill="black" stroke="black" points="342.5,-349.31 339,-339.31 335.5,-349.31 342.5,-349.31"/>
</g>
<!-- 7 -->
<g id="node9" class="node">
<title>7</title>
<polygon fill="#e552ff" stroke="#e552ff" points="73.62,-337.5 28.38,-337.5 28.38,-341.5 16.37,-341.5 16.37,-301.5 73.62,-301.5 73.62,-337.5"/>
<polyline fill="none" stroke="#e552ff" points="16.37,-337.5 28.38,-337.5"/>
<text text-anchor="middle" x="45" y="-314.82" font-family="DejaVu Sans Mono" font-size="14.00">input</text>
</g>
<!-- 6&#45;&gt;7 -->
<g id="edge8" class="edge">
<title>6&#45;&gt;7</title>
<path fill="none" stroke="black" d="M43.4,-390.91C43.67,-379.02 44.03,-362.95 44.35,-349.16"/>
<polygon fill="black" stroke="black" points="47.84,-349.39 44.57,-339.31 40.84,-349.23 47.84,-349.39"/>
</g>
<!-- 10 -->
<g id="node10" class="node">
<title>10</title>
<polygon fill="#e552ff" stroke="#e552ff" points="219.62,-337.5 174.38,-337.5 174.38,-341.5 162.38,-341.5 162.38,-301.5 219.62,-301.5 219.62,-337.5"/>
<polyline fill="none" stroke="#e552ff" points="162.38,-337.5 174.38,-337.5"/>
<text text-anchor="middle" x="191" y="-314.82" font-family="DejaVu Sans Mono" font-size="14.00">input</text>
</g>
<!-- 9&#45;&gt;10 -->
<g id="edge9" class="edge">
<title>9&#45;&gt;10</title>
<path fill="none" stroke="black" d="M191,-390.91C191,-379.02 191,-362.95 191,-349.16"/>
<polygon fill="black" stroke="black" points="194.5,-349.31 191,-339.31 187.5,-349.31 194.5,-349.31"/>
</g>
<!-- 12 -->
<g id="node12" class="node">
<title>12</title>
<polygon fill="#e552ff" stroke="#e552ff" points="1201.62,-337.5 1156.38,-337.5 1156.38,-341.5 1144.38,-341.5 1144.38,-301.5 1201.62,-301.5 1201.62,-337.5"/>
<polyline fill="none" stroke="#e552ff" points="1144.38,-337.5 1156.38,-337.5"/>
<text text-anchor="middle" x="1173" y="-314.82" font-family="DejaVu Sans Mono" font-size="14.00">range</text>
</g>
<!-- 11&#45;&gt;12 -->
<g id="edge10" class="edge">
<title>11&#45;&gt;12</title>
<path fill="none" stroke="black" stroke-dasharray="5,2" d="M1092.22,-390.85C1097.34,-388.54 1102.35,-386 1107,-383.25 1123.47,-373.5 1139.13,-358.94 1151.05,-346.3"/>
<polygon fill="black" stroke="black" points="1153.5,-348.8 1157.65,-339.05 1148.33,-344.09 1153.5,-348.8"/>
<text text-anchor="middle" x="1149.62" y="-369.95" font-family="DejaVu Sans Mono" font-size="14.00">calls</text>
</g>
<!-- 13 -->
<g id="node13" class="node">
<title>13</title>
<polygon fill="#fffb81" stroke="black" points="1126.75,-358 731.25,-358 731.25,-281 1126.75,-281 1126.75,-358"/>
<text text-anchor="start" x="739.25" y="-340.7" font-family="DejaVu Sans Mono" font-size="14.00">print(&quot;&quot;&quot;</text>
<text text-anchor="start" x="739.25" y="-323.45" font-family="DejaVu Sans Mono" font-size="14.00">Now type in your next character to decrypt&quot;&quot;&quot;)</text>
<text text-anchor="start" x="739.25" y="-306.2" font-family="DejaVu Sans Mono" font-size="14.00">character = int(input())</text>
<text text-anchor="start" x="739.25" y="-288.95" font-family="DejaVu Sans Mono" font-size="14.00">print(&#39;tYour letter transl...&#39;)</text>
</g>
<!-- 11&#45;&gt;13 -->
<g id="edge22" class="edge">
<title>11&#45;&gt;13</title>
<path fill="none" stroke="green" d="M986.95,-390.93C982.74,-388.64 978.69,-386.09 975,-383.25 969.03,-378.66 963.47,-373.09 958.44,-367.19"/>
<polygon fill="green" stroke="green" points="961.35,-365.22 952.39,-359.56 955.86,-369.57 961.35,-365.22"/>
<text text-anchor="middle" x="1041" y="-369.95" font-family="DejaVu Sans Mono" font-size="14.00">range(0, length)</text>
</g>
<!-- 14 -->
<g id="node23" class="node">
<title>14</title>
<polygon fill="#fffb81" stroke="black" points="713.62,-349.38 458.38,-349.38 458.38,-289.62 713.62,-289.62 713.62,-349.38"/>
<text text-anchor="start" x="466.38" y="-332.07" font-family="DejaVu Sans Mono" font-size="14.00">print(&quot;&quot;&quot;</text>
<text text-anchor="start" x="466.38" y="-314.82" font-family="DejaVu Sans Mono" font-size="14.00">end of Caesar encoded message</text>
<text text-anchor="start" x="466.38" y="-297.57" font-family="DejaVu Sans Mono" font-size="14.00">&quot;&quot;&quot;)</text>
</g>
<!-- 11&#45;&gt;14 -->
<g id="edge24" class="edge">
<title>11&#45;&gt;14</title>
<path fill="none" stroke="green" d="M916.85,-392.15C857.72,-383.52 785.86,-371.82 722,-358 714.35,-356.35 706.5,-354.52 698.6,-352.59"/>
<polygon fill="green" stroke="green" points="699.45,-349.2 688.9,-350.17 697.76,-355.99 699.45,-349.2"/>
</g>
<!-- 15 -->
<g id="node14" class="node">
<title>15</title>
<polygon fill="#e552ff" stroke="#e552ff" points="823.62,-239.75 778.38,-239.75 778.38,-243.75 766.38,-243.75 766.38,-203.75 823.62,-203.75 823.62,-239.75"/>
<polyline fill="none" stroke="#e552ff" points="766.38,-239.75 778.38,-239.75"/>
<text text-anchor="middle" x="795" y="-217.07" font-family="DejaVu Sans Mono" font-size="14.00">print</text>
</g>
<!-- 13&#45;&gt;15 -->
<g id="edge11" class="edge">
<title>13&#45;&gt;15</title>
<path fill="none" stroke="black" stroke-dasharray="5,2" d="M855.56,-280.59C851.84,-278.12 848.21,-275.59 844.75,-273 835.02,-265.71 825.38,-256.55 817.21,-248.05"/>
<polygon fill="black" stroke="black" points="819.99,-245.9 810.61,-240.97 814.87,-250.67 819.99,-245.9"/>
<text text-anchor="middle" x="864.62" y="-259.7" font-family="DejaVu Sans Mono" font-size="14.00">calls</text>
</g>
<!-- 16 -->
<g id="node15" class="node">
<title>16</title>
<polygon fill="#e552ff" stroke="#e552ff" points="896,-239.75 854,-239.75 854,-243.75 842,-243.75 842,-203.75 896,-203.75 896,-239.75"/>
<polyline fill="none" stroke="#e552ff" points="842,-239.75 854,-239.75"/>
<text text-anchor="middle" x="869" y="-217.07" font-family="DejaVu Sans Mono" font-size="14.00">int</text>
</g>
<!-- 13&#45;&gt;16 -->
<g id="edge12" class="edge">
<title>13&#45;&gt;16</title>
<path fill="none" stroke="black" stroke-dasharray="5,2" d="M905.29,-280.66C898.84,-270.37 891.99,-259.43 885.99,-249.87"/>
<polygon fill="black" stroke="black" points="888.97,-248.02 880.69,-241.41 883.04,-251.74 888.97,-248.02"/>
<text text-anchor="middle" x="919.62" y="-259.7" font-family="DejaVu Sans Mono" font-size="14.00">calls</text>
</g>
<!-- 18 -->
<g id="node16" class="node">
<title>18</title>
<polygon fill="#e552ff" stroke="#e552ff" points="748.62,-239.75 703.38,-239.75 703.38,-243.75 691.38,-243.75 691.38,-203.75 748.62,-203.75 748.62,-239.75"/>
<polyline fill="none" stroke="#e552ff" points="691.38,-239.75 703.38,-239.75"/>
<text text-anchor="middle" x="720" y="-217.07" font-family="DejaVu Sans Mono" font-size="14.00">print</text>
</g>
<!-- 13&#45;&gt;18 -->
<g id="edge13" class="edge">
<title>13&#45;&gt;18</title>
<path fill="none" stroke="black" stroke-dasharray="5,2" d="M794.86,-280.56C789.69,-278.17 784.63,-275.65 779.75,-273 767.41,-266.3 755.26,-256.78 745.18,-247.84"/>
<polygon fill="black" stroke="black" points="747.74,-245.43 738.01,-241.23 743,-250.58 747.74,-245.43"/>
<text text-anchor="middle" x="799.62" y="-259.7" font-family="DejaVu Sans Mono" font-size="14.00">calls</text>
</g>
<!-- 19 -->
<g id="node18" class="node">
<title>19</title>
<polygon fill="#ff6752" stroke="black" points="1036,-239.75 913.73,-221.75 1036,-203.75 1158.27,-221.75 1036,-239.75"/>
<text text-anchor="start" x="956.85" y="-217.07" font-family="DejaVu Sans Mono" font-size="14.00">if mode == 1:</text>
</g>
<!-- 13&#45;&gt;19 -->
<g id="edge21" class="edge">
<title>13&#45;&gt;19</title>
<path fill="none" stroke="black" d="M971.29,-280.66C984.7,-268.66 999.08,-255.78 1010.88,-245.23"/>
<polygon fill="black" stroke="black" points="1013.09,-247.94 1018.21,-238.67 1008.43,-242.73 1013.09,-247.94"/>
</g>
<!-- 17 -->
<g id="node17" class="node">
<title>17</title>
<polygon fill="#e552ff" stroke="#e552ff" points="893.62,-162.5 848.38,-162.5 848.38,-166.5 836.38,-166.5 836.38,-126.5 893.62,-126.5 893.62,-162.5"/>
<polyline fill="none" stroke="#e552ff" points="836.38,-162.5 848.38,-162.5"/>
<text text-anchor="middle" x="865" y="-139.82" font-family="DejaVu Sans Mono" font-size="14.00">input</text>
</g>
<!-- 16&#45;&gt;17 -->
<g id="edge14" class="edge">
<title>16&#45;&gt;17</title>
<path fill="none" stroke="black" d="M868.07,-203.3C867.61,-194.65 867.05,-184 866.53,-174.19"/>
<polygon fill="black" stroke="black" points="870.03,-174.17 866,-164.37 863.04,-174.54 870.03,-174.17"/>
</g>
<!-- 20 -->
<g id="node19" class="node">
<title>20</title>
<polygon fill="#fffb81" stroke="black" points="1523.25,-162.5 1226.75,-162.5 1226.75,-126.5 1523.25,-126.5 1523.25,-162.5"/>
<text text-anchor="start" x="1234.75" y="-139.82" font-family="DejaVu Sans Mono" font-size="14.00">print(&#39;t&#39;, (character + key) % 26)</text>
</g>
<!-- 19&#45;&gt;20 -->
<g id="edge17" class="edge">
<title>19&#45;&gt;20</title>
<path fill="none" stroke="green" d="M1077.51,-209.42C1117.77,-198.64 1180.69,-182.35 1235.75,-170.5 1244.19,-168.68 1252.94,-166.89 1261.75,-165.16"/>
<polygon fill="green" stroke="green" points="1262.3,-168.62 1271.45,-163.28 1260.96,-161.75 1262.3,-168.62"/>
<text text-anchor="middle" x="1272.12" y="-174.45" font-family="DejaVu Sans Mono" font-size="14.00">mode == 1</text>
</g>
<!-- 22 -->
<g id="node21" class="node">
<title>22</title>
<polygon fill="#fffb81" stroke="black" points="1208.25,-162.5 911.75,-162.5 911.75,-126.5 1208.25,-126.5 1208.25,-162.5"/>
<text text-anchor="start" x="919.75" y="-139.82" font-family="DejaVu Sans Mono" font-size="14.00">print(&#39;t&#39;, (character &#45; key) % 26)</text>
</g>
<!-- 19&#45;&gt;22 -->
<g id="edge20" class="edge">
<title>19&#45;&gt;22</title>
<path fill="none" stroke="red" d="M1032.01,-204.27C1030.7,-196.2 1030.05,-186.29 1034.48,-173.29"/>
<polygon fill="red" stroke="red" points="1037.68,-174.71 1038.35,-164.13 1031.23,-171.99 1037.68,-174.71"/>
<text text-anchor="middle" x="1079.38" y="-174.45" font-family="DejaVu Sans Mono" font-size="14.00">(mode != 1)</text>
</g>
<!-- 20&#45;&gt;11 -->
<g id="edge16" class="edge">
<title>20&#45;&gt;11</title>
<path fill="none" stroke="black" d="M1367.78,-162.72C1350.92,-201.35 1305.73,-296.41 1245,-358 1230.24,-372.97 1224.7,-375.92 1205,-383.25 1197.39,-386.08 1189.48,-388.59 1181.41,-390.82"/>
<polygon fill="black" stroke="black" points="1180.6,-387.41 1171.8,-393.3 1182.36,-394.19 1180.6,-387.41"/>
</g>
<!-- 24 -->
<g id="node20" class="node">
<title>24</title>
<polygon fill="#e552ff" stroke="#e552ff" points="1403.62,-77.25 1358.38,-77.25 1358.38,-81.25 1346.38,-81.25 1346.38,-41.25 1403.62,-41.25 1403.62,-77.25"/>
<polyline fill="none" stroke="#e552ff" points="1346.38,-77.25 1358.38,-77.25"/>
<text text-anchor="middle" x="1375" y="-54.58" font-family="DejaVu Sans Mono" font-size="14.00">print</text>
</g>
<!-- 20&#45;&gt;24 -->
<g id="edge15" class="edge">
<title>20&#45;&gt;24</title>
<path fill="none" stroke="black" stroke-dasharray="5,2" d="M1375,-126.25C1375,-115.42 1375,-101.2 1375,-88.73"/>
<polygon fill="black" stroke="black" points="1378.5,-88.99 1375,-78.99 1371.5,-88.99 1378.5,-88.99"/>
<text text-anchor="middle" x="1395.62" y="-97.2" font-family="DejaVu Sans Mono" font-size="14.00">calls</text>
</g>
<!-- 22&#45;&gt;11 -->
<g id="edge19" class="edge">
<title>22&#45;&gt;11</title>
<path fill="none" stroke="black" d="M1208.51,-161.61C1214.43,-164.15 1219.08,-167.1 1222,-170.5 1276.3,-233.82 1255.97,-285.92 1214,-358 1203.42,-376.17 1193.58,-375.59 1174,-383.25 1170.17,-384.75 1166.24,-386.16 1162.24,-387.49"/>
<polygon fill="black" stroke="black" points="1161.49,-384.06 1152.98,-390.36 1163.56,-390.74 1161.49,-384.06"/>
</g>
<!-- 23 -->
<g id="node22" class="node">
<title>23</title>
<polygon fill="#e552ff" stroke="#e552ff" points="1088.62,-77.25 1043.38,-77.25 1043.38,-81.25 1031.38,-81.25 1031.38,-41.25 1088.62,-41.25 1088.62,-77.25"/>
<polyline fill="none" stroke="#e552ff" points="1031.38,-77.25 1043.38,-77.25"/>
<text text-anchor="middle" x="1060" y="-54.58" font-family="DejaVu Sans Mono" font-size="14.00">print</text>
</g>
<!-- 22&#45;&gt;23 -->
<g id="edge18" class="edge">
<title>22&#45;&gt;23</title>
<path fill="none" stroke="black" stroke-dasharray="5,2" d="M1060,-126.25C1060,-115.42 1060,-101.2 1060,-88.73"/>
<polygon fill="black" stroke="black" points="1063.5,-88.99 1060,-78.99 1056.5,-88.99 1063.5,-88.99"/>
<text text-anchor="middle" x="1080.62" y="-97.2" font-family="DejaVu Sans Mono" font-size="14.00">calls</text>
</g>
<!-- 25 -->
<g id="node24" class="node">
<title>25</title>
<polygon fill="#e552ff" stroke="#e552ff" points="614.62,-239.75 569.38,-239.75 569.38,-243.75 557.38,-243.75 557.38,-203.75 614.62,-203.75 614.62,-239.75"/>
<polyline fill="none" stroke="#e552ff" points="557.38,-239.75 569.38,-239.75"/>
<text text-anchor="middle" x="586" y="-217.07" font-family="DejaVu Sans Mono" font-size="14.00">print</text>
</g>
<!-- 14&#45;&gt;25 -->
<g id="edge23" class="edge">
<title>14&#45;&gt;25</title>
<path fill="none" stroke="black" stroke-dasharray="5,2" d="M586,-289.25C586,-277.21 586,-263.3 586,-251.33"/>
<polygon fill="black" stroke="black" points="589.5,-251.65 586,-241.65 582.5,-251.65 589.5,-251.65"/>
<text text-anchor="middle" x="606.62" y="-259.7" font-family="DejaVu Sans Mono" font-size="14.00">calls</text>
</g>
<!-- input -->
<g id="node25" class="node">
<title>input</title>
<polygon fill="#afeeee" stroke="black" points="1737.88,-427.25 1644.21,-427.25 1620.12,-391.25 1713.79,-391.25 1737.88,-427.25"/>
<text text-anchor="middle" x="1679" y="-404.57" font-family="DejaVu Sans Mono" font-size="14.00">input</text>
</g>
<!-- call -->
<g id="node30" class="node">
<title>call</title>
<polygon fill="#e552ff" stroke="black" points="1706,-337.5 1664,-337.5 1664,-341.5 1652,-341.5 1652,-301.5 1706,-301.5 1706,-337.5"/>
<polyline fill="none" stroke="black" points="1652,-337.5 1664,-337.5"/>
<text text-anchor="middle" x="1679" y="-314.82" font-family="DejaVu Sans Mono" font-size="14.00">call</text>
</g>
<!-- input&#45;&gt;call -->
<!-- default -->
<g id="node26" class="node">
<title>default</title>
<polygon fill="#fffb81" stroke="black" points="1571.88,-337.5 1498.12,-337.5 1498.12,-301.5 1571.88,-301.5 1571.88,-337.5"/>
<text text-anchor="middle" x="1535" y="-314.82" font-family="DejaVu Sans Mono" font-size="14.00">default</text>
</g>
<!-- if -->
<g id="node27" class="node">
<title>if</title>
<polygon fill="#ff6752" stroke="black" points="1679,-576.75 1646.76,-558.75 1679,-540.75 1711.24,-558.75 1679,-576.75"/>
<text text-anchor="middle" x="1679" y="-554.08" font-family="DejaVu Sans Mono" font-size="14.00">if</text>
</g>
<!-- if&#45;&gt;input -->
<!-- for -->
<g id="node28" class="node">
<title>for</title>
<polygon fill="#ffbe52" stroke="black" points="1627.01,-558.75 1610.5,-576.75 1577.5,-576.75 1560.99,-558.75 1577.5,-540.75 1610.5,-540.75 1627.01,-558.75"/>
<text text-anchor="middle" x="1594" y="-554.08" font-family="DejaVu Sans Mono" font-size="14.00">for</text>
</g>
<!-- return -->
<g id="node31" class="node">
<title>return</title>
<polygon fill="#98fb98" stroke="black" points="1602.37,-427.25 1495.2,-427.25 1467.63,-391.25 1574.8,-391.25 1602.37,-427.25"/>
<text text-anchor="middle" x="1535" y="-404.57" font-family="DejaVu Sans Mono" font-size="14.00">return</text>
</g>
<!-- for&#45;&gt;return -->
<!-- while -->
<g id="node29" class="node">
<title>while</title>
<polygon fill="#ffbe52" stroke="black" points="1543.37,-558.75 1520.19,-576.75 1473.81,-576.75 1450.63,-558.75 1473.81,-540.75 1520.19,-540.75 1543.37,-558.75"/>
<text text-anchor="middle" x="1497" y="-554.08" font-family="DejaVu Sans Mono" font-size="14.00">while</text>
</g>
<!-- return&#45;&gt;default -->
<!-- try -->
<g id="node32" class="node">
<title>try</title>
<polygon fill="orange" stroke="black" points="1392,-576.75 1351.57,-558.75 1392,-540.75 1432.43,-558.75 1392,-576.75"/>
<polyline fill="none" stroke="black" points="1362.54,-563.63 1362.54,-553.87"/>
<polyline fill="none" stroke="black" points="1381.04,-545.63 1402.96,-545.63"/>
<polyline fill="none" stroke="black" points="1421.46,-553.87 1421.46,-563.63"/>
<polyline fill="none" stroke="black" points="1402.96,-571.87 1381.04,-571.87"/>
<text text-anchor="middle" x="1392" y="-554.08" font-family="DejaVu Sans Mono" font-size="14.00">try</text>
</g>
<!-- raise -->
<g id="node33" class="node">
<title>raise</title>
<polygon fill="#98fb98" stroke="black" points="1449.64,-414.81 1400,-427.25 1350.36,-414.81 1350.41,-394.69 1449.59,-394.69 1449.64,-414.81"/>
<text text-anchor="middle" x="1400" y="-404.57" font-family="DejaVu Sans Mono" font-size="14.00">raise</text>
</g>
<!-- try&#45;&gt;raise -->
</g>
</svg>
