<?xml version="1.0" encoding="UTF-8" standalone="no"?>
<!DOCTYPE svg PUBLIC "-//W3C//DTD SVG 1.1//EN"
 "http://www.w3.org/Graphics/SVG/1.1/DTD/svg11.dtd">
<!-- Generated by graphviz version 9.0.0 (20230911.1827)
 -->
<!-- Title: cluster0speed_sort Pages: 1 -->
<svg width="2732pt" height="829pt"
 viewBox="0.00 0.00 2731.75 829.25" xmlns="http://www.w3.org/2000/svg" xmlns:xlink="http://www.w3.org/1999/xlink">
<g id="graph0" class="graph" transform="scale(1 1) rotate(0) translate(4 825.25)">
<title>cluster0speed_sort</title>
<polygon fill="white" stroke="none" points="-4,4 -4,-825.25 2727.75,-825.25 2727.75,4 -4,4"/>
<text text-anchor="middle" x="1361.88" y="-7.95" font-family="DejaVu Sans Mono" font-size="14.00">speed_sort</text>
<g id="clust1" class="cluster">
<title>cluster0Sort</title>
<polygon fill="none" stroke="black" points="141.75,-33.25 141.75,-813.25 2303.75,-813.25 2303.75,-33.25 141.75,-33.25"/>
<text text-anchor="middle" x="1222.75" y="-795.95" font-family="DejaVu Sans Mono" font-size="14.00">Sort</text>
</g>
<g id="clust2" class="cluster">
<title>cluster0merge</title>
<polygon fill="none" stroke="black" points="1577.75,-41.25 1577.75,-780 2295.75,-780 2295.75,-41.25 1577.75,-41.25"/>
<text text-anchor="middle" x="1936.75" y="-762.7" font-family="DejaVu Sans Mono" font-size="14.00">merge</text>
</g>
<g id="clust3" class="cluster">
<title>cluster_5</title>
<polygon fill="purple" stroke="purple" points="1701.75,-584.5 1701.75,-636.5 1843.75,-636.5 1843.75,-584.5 1701.75,-584.5"/>
</g>
<g id="clust4" class="cluster">
<title>cluster_8</title>
<polygon fill="purple" stroke="purple" points="1689.75,-499.25 1689.75,-551.25 1763.75,-551.25 1763.75,-499.25 1689.75,-499.25"/>
</g>
<g id="clust5" class="cluster">
<title>cluster_10</title>
<polygon fill="purple" stroke="purple" points="1585.75,-410.12 1585.75,-462.12 1727.75,-462.12 1727.75,-410.12 1585.75,-410.12"/>
</g>
<g id="clust6" class="cluster">
<title>cluster_14</title>
<polygon fill="purple" stroke="purple" points="1585.75,-313 1585.75,-365 1655.75,-365 1655.75,-313 1585.75,-313"/>
</g>
<g id="clust7" class="cluster">
<title>cluster_16</title>
<polygon fill="purple" stroke="purple" points="1585.75,-227.75 1585.75,-279.75 1699.75,-279.75 1699.75,-227.75 1585.75,-227.75"/>
</g>
<g id="clust8" class="cluster">
<title>cluster_18</title>
<polygon fill="purple" stroke="purple" points="1707.75,-227.75 1707.75,-279.75 1777.75,-279.75 1777.75,-227.75 1707.75,-227.75"/>
</g>
<g id="clust9" class="cluster">
<title>cluster_20</title>
<polygon fill="purple" stroke="purple" points="1804.75,-142.5 1804.75,-194.5 1918.75,-194.5 1918.75,-142.5 1804.75,-142.5"/>
</g>
<g id="clust10" class="cluster">
<title>cluster_23</title>
<polygon fill="purple" stroke="purple" points="1978.75,-49.25 1978.75,-101.25 2092.75,-101.25 2092.75,-49.25 1978.75,-49.25"/>
</g>
<g id="clust11" class="cluster">
<title>cluster_25</title>
<polygon fill="purple" stroke="purple" points="2152.75,-49.25 2152.75,-101.25 2266.75,-101.25 2266.75,-49.25 2152.75,-49.25"/>
</g>
<g id="clust12" class="cluster">
<title>cluster0merge_sort</title>
<polygon fill="none" stroke="black" points="1127.75,-134.5 1127.75,-771.38 1569.75,-771.38 1569.75,-134.5 1127.75,-134.5"/>
<text text-anchor="middle" x="1348.75" y="-754.08" font-family="DejaVu Sans Mono" font-size="14.00">merge_sort</text>
</g>
<g id="clust13" class="cluster">
<title>cluster_33</title>
<polygon fill="purple" stroke="purple" points="1135.75,-584.5 1135.75,-636.5 1205.75,-636.5 1205.75,-584.5 1135.75,-584.5"/>
</g>
<g id="clust14" class="cluster">
<title>cluster_35</title>
<polygon fill="purple" stroke="purple" points="1140.75,-499.25 1140.75,-551.25 1210.75,-551.25 1210.75,-499.25 1140.75,-499.25"/>
</g>
<g id="clust15" class="cluster">
<title>cluster_37</title>
<polygon fill="purple" stroke="purple" points="1405.75,-410.12 1405.75,-462.12 1561.75,-462.12 1561.75,-410.12 1405.75,-410.12"/>
</g>
<g id="clust16" class="cluster">
<title>cluster_38</title>
<polygon fill="purple" stroke="purple" points="1140.75,-313 1140.75,-365 1210.75,-365 1210.75,-313 1140.75,-313"/>
</g>
<g id="clust17" class="cluster">
<title>cluster_41</title>
<polygon fill="purple" stroke="purple" points="1384.75,-227.75 1384.75,-279.75 1540.75,-279.75 1540.75,-227.75 1384.75,-227.75"/>
</g>
<g id="clust18" class="cluster">
<title>cluster_42</title>
<polygon fill="purple" stroke="purple" points="1144.75,-142.5 1144.75,-194.5 1258.75,-194.5 1258.75,-142.5 1144.75,-142.5"/>
</g>
<g id="clust19" class="cluster">
<title>cluster0insertion_sort</title>
<polygon fill="none" stroke="black" points="445.75,-398.25 445.75,-759.5 1119.75,-759.5 1119.75,-398.25 445.75,-398.25"/>
<text text-anchor="middle" x="782.75" y="-742.2" font-family="DejaVu Sans Mono" font-size="14.00">insertion_sort</text>
</g>
<g id="clust20" class="cluster">
<title>cluster_50</title>
<polygon fill="purple" stroke="purple" points="453.75,-410.12 453.75,-551.25 527.75,-551.25 527.75,-410.12 453.75,-410.12"/>
</g>
<g id="clust21" class="cluster">
<title>cluster_KEY</title>
<polygon fill="none" stroke="black" points="2311.75,-499.25 2311.75,-759.5 2715.75,-759.5 2715.75,-499.25 2311.75,-499.25"/>
<text text-anchor="middle" x="2513.75" y="-742.2" font-family="DejaVu Sans Mono" font-size="14.00">KEY</text>
</g>
<!-- 1 -->
<g id="node1" class="node">
<title>1</title>
<polygon fill="#fffb81" stroke="black" points="131.5,-726.25 0,-726.25 0,-690.25 131.5,-690.25 131.5,-726.25"/>
<text text-anchor="start" x="8" y="-703.58" font-family="DejaVu Sans Mono" font-size="14.00">class Sort:...</text>
</g>
<!-- 3 -->
<g id="node2" class="node">
<title>3</title>
<polygon fill="#fffb81" stroke="black" points="437.88,-738.12 149.62,-738.12 149.62,-678.38 437.88,-678.38 437.88,-738.12"/>
<text text-anchor="start" x="157.62" y="-720.83" font-family="DejaVu Sans Mono" font-size="14.00">def merge(self, l, r):...</text>
<text text-anchor="start" x="157.62" y="-703.58" font-family="DejaVu Sans Mono" font-size="14.00">def merge_sort(self, src):...</text>
<text text-anchor="start" x="157.62" y="-686.33" font-family="DejaVu Sans Mono" font-size="14.00">def insertion_sort(self, src):...</text>
</g>
<!-- 5 -->
<g id="node3" class="node">
<title>5</title>
<polygon fill="#fffb81" stroke="black" points="1907.5,-746.75 1710,-746.75 1710,-669.75 1907.5,-669.75 1907.5,-746.75"/>
<text text-anchor="start" x="1718" y="-729.45" font-family="DejaVu Sans Mono" font-size="14.00">i = 0</text>
<text text-anchor="start" x="1718" y="-712.2" font-family="DejaVu Sans Mono" font-size="14.00">j = 0</text>
<text text-anchor="start" x="1718" y="-694.95" font-family="DejaVu Sans Mono" font-size="14.00">arr = []</text>
<text text-anchor="start" x="1718" y="-677.7" font-family="DejaVu Sans Mono" font-size="14.00">size = len(l) + len(r)</text>
</g>
<!-- 6 -->
<g id="node4" class="node">
<title>6</title>
<polygon fill="#e552ff" stroke="#e552ff" points="1763.75,-628.5 1721.75,-628.5 1721.75,-632.5 1709.75,-632.5 1709.75,-592.5 1763.75,-592.5 1763.75,-628.5"/>
<polyline fill="none" stroke="#e552ff" points="1709.75,-628.5 1721.75,-628.5"/>
<text text-anchor="middle" x="1736.75" y="-605.83" font-family="DejaVu Sans Mono" font-size="14.00">len</text>
</g>
<!-- 5&#45;&gt;6 -->
<g id="edge1" class="edge">
<title>5&#45;&gt;6</title>
<path fill="none" stroke="black" stroke-dasharray="5,2" d="M1769.64,-669.5C1767.48,-666.94 1765.42,-664.35 1763.5,-661.75 1758.39,-654.83 1753.67,-646.81 1749.66,-639.24"/>
<polygon fill="black" stroke="black" points="1752.8,-637.7 1745.17,-630.34 1746.55,-640.85 1752.8,-637.7"/>
<text text-anchor="middle" x="1783.38" y="-648.45" font-family="DejaVu Sans Mono" font-size="14.00">calls</text>
</g>
<!-- 7 -->
<g id="node5" class="node">
<title>7</title>
<polygon fill="#e552ff" stroke="#e552ff" points="1835.75,-628.5 1793.75,-628.5 1793.75,-632.5 1781.75,-632.5 1781.75,-592.5 1835.75,-592.5 1835.75,-628.5"/>
<polyline fill="none" stroke="#e552ff" points="1781.75,-628.5 1793.75,-628.5"/>
<text text-anchor="middle" x="1808.75" y="-605.83" font-family="DejaVu Sans Mono" font-size="14.00">len</text>
</g>
<!-- 5&#45;&gt;7 -->
<g id="edge2" class="edge">
<title>5&#45;&gt;7</title>
<path fill="none" stroke="black" stroke-dasharray="5,2" d="M1808.75,-669.41C1808.75,-659.67 1808.75,-649.35 1808.75,-640.16"/>
<polygon fill="black" stroke="black" points="1812.25,-640.39 1808.75,-630.39 1805.25,-640.39 1812.25,-640.39"/>
<text text-anchor="middle" x="1829.38" y="-648.45" font-family="DejaVu Sans Mono" font-size="14.00">calls</text>
</g>
<!-- 8 -->
<g id="node6" class="node">
<title>8</title>
<polygon fill="#ffbe52" stroke="black" points="2200.09,-610.5 2113.42,-628.5 1940.08,-628.5 1853.41,-610.5 1940.08,-592.5 2113.42,-592.5 2200.09,-610.5"/>
<text text-anchor="start" x="1911.2" y="-605.83" font-family="DejaVu Sans Mono" font-size="14.00">for k in range(0, size):</text>
</g>
<!-- 5&#45;&gt;8 -->
<g id="edge25" class="edge">
<title>5&#45;&gt;8</title>
<path fill="none" stroke="black" d="M1895.22,-669.27C1922.87,-657.13 1952.54,-644.09 1976.69,-633.49"/>
<polygon fill="black" stroke="black" points="1977.89,-636.78 1985.64,-629.56 1975.08,-630.37 1977.89,-636.78"/>
</g>
<!-- 9 -->
<g id="node7" class="node">
<title>9</title>
<polygon fill="#e552ff" stroke="#e552ff" points="1755.38,-543.25 1710.12,-543.25 1710.12,-547.25 1698.12,-547.25 1698.12,-507.25 1755.38,-507.25 1755.38,-543.25"/>
<polyline fill="none" stroke="#e552ff" points="1698.12,-543.25 1710.12,-543.25"/>
<text text-anchor="middle" x="1726.75" y="-520.58" font-family="DejaVu Sans Mono" font-size="14.00">range</text>
</g>
<!-- 8&#45;&gt;9 -->
<g id="edge3" class="edge">
<title>8&#45;&gt;9</title>
<path fill="none" stroke="black" stroke-dasharray="5,2" d="M1923.71,-595.47C1893.75,-590.48 1861.12,-584.16 1831.5,-576.5 1798.77,-568.04 1789.52,-567.26 1759.75,-551.25 1758.86,-550.77 1757.98,-550.27 1757.09,-549.76"/>
<polygon fill="black" stroke="black" points="1759.31,-547.03 1749.02,-544.49 1755.49,-552.89 1759.31,-547.03"/>
<text text-anchor="middle" x="1851.38" y="-563.2" font-family="DejaVu Sans Mono" font-size="14.00">calls</text>
</g>
<!-- 10 -->
<g id="node8" class="node">
<title>10</title>
<polygon fill="#fffb81" stroke="black" points="1979.62,-546.5 1773.88,-546.5 1773.88,-504 1979.62,-504 1979.62,-546.5"/>
<text text-anchor="start" x="1781.88" y="-529.2" font-family="DejaVu Sans Mono" font-size="14.00">lSentinel = i == len(l)</text>
<text text-anchor="start" x="1781.88" y="-511.95" font-family="DejaVu Sans Mono" font-size="14.00">rSentinel = j == len(r)</text>
</g>
<!-- 8&#45;&gt;10 -->
<g id="edge23" class="edge">
<title>8&#45;&gt;10</title>
<path fill="none" stroke="green" d="M1928.66,-594.42C1909.5,-589.68 1893.18,-583.74 1886.25,-576.5 1881.45,-571.49 1878.7,-564.85 1877.19,-558.05"/>
<polygon fill="green" stroke="green" points="1880.67,-557.66 1875.88,-548.21 1873.73,-558.58 1880.67,-557.66"/>
<text text-anchor="middle" x="1943.5" y="-563.2" font-family="DejaVu Sans Mono" font-size="14.00">range(0, size)</text>
</g>
<!-- 11 -->
<g id="node24" class="node">
<title>11</title>
<polygon fill="#98fb98" stroke="black" points="2288.06,-543.25 2126.9,-543.25 2085.44,-507.25 2246.6,-507.25 2288.06,-543.25"/>
<text text-anchor="start" x="2125.1" y="-520.58" font-family="DejaVu Sans Mono" font-size="14.00">return arr</text>
</g>
<!-- 8&#45;&gt;11 -->
<g id="edge24" class="edge">
<title>8&#45;&gt;11</title>
<path fill="none" stroke="green" d="M2060.29,-592.05C2084.4,-579.5 2117.12,-562.48 2143.24,-548.89"/>
<polygon fill="green" stroke="green" points="2144.65,-552.1 2151.91,-544.38 2141.42,-545.89 2144.65,-552.1"/>
</g>
<!-- 12 -->
<g id="node9" class="node">
<title>12</title>
<polygon fill="#e552ff" stroke="#e552ff" points="1647.75,-454.12 1605.75,-454.12 1605.75,-458.12 1593.75,-458.12 1593.75,-418.12 1647.75,-418.12 1647.75,-454.12"/>
<polyline fill="none" stroke="#e552ff" points="1593.75,-454.12 1605.75,-454.12"/>
<text text-anchor="middle" x="1620.75" y="-431.45" font-family="DejaVu Sans Mono" font-size="14.00">len</text>
</g>
<!-- 10&#45;&gt;12 -->
<g id="edge4" class="edge">
<title>10&#45;&gt;12</title>
<path fill="none" stroke="black" stroke-dasharray="5,2" d="M1790.66,-503.54C1782.94,-501.97 1775.22,-500.52 1767.75,-499.25 1735.9,-493.85 1725.92,-502.14 1695.5,-491.25 1677.73,-484.89 1660.48,-472.92 1647.04,-461.85"/>
<polygon fill="black" stroke="black" points="1649.4,-459.26 1639.53,-455.4 1644.84,-464.57 1649.4,-459.26"/>
<text text-anchor="middle" x="1715.38" y="-477.95" font-family="DejaVu Sans Mono" font-size="14.00">calls</text>
</g>
<!-- 13 -->
<g id="node10" class="node">
<title>13</title>
<polygon fill="#e552ff" stroke="#e552ff" points="1719.75,-454.12 1677.75,-454.12 1677.75,-458.12 1665.75,-458.12 1665.75,-418.12 1719.75,-418.12 1719.75,-454.12"/>
<polyline fill="none" stroke="#e552ff" points="1665.75,-454.12 1677.75,-454.12"/>
<text text-anchor="middle" x="1692.75" y="-431.45" font-family="DejaVu Sans Mono" font-size="14.00">len</text>
</g>
<!-- 10&#45;&gt;13 -->
<g id="edge5" class="edge">
<title>10&#45;&gt;13</title>
<path fill="none" stroke="black" stroke-dasharray="5,2" d="M1815.44,-503.61C1780.16,-491.21 1739.74,-475.95 1723.75,-466 1721.67,-464.71 1719.61,-463.26 1717.59,-461.72"/>
<polygon fill="black" stroke="black" points="1720.2,-459.35 1710.31,-455.57 1715.69,-464.7 1720.2,-459.35"/>
<text text-anchor="middle" x="1798.38" y="-477.95" font-family="DejaVu Sans Mono" font-size="14.00">calls</text>
</g>
<!-- 14 -->
<g id="node11" class="node">
<title>14</title>
<polygon fill="#ff6752" stroke="black" points="1876.75,-454.12 1738.11,-436.12 1876.75,-418.12 2015.39,-436.12 1876.75,-454.12"/>
<text text-anchor="start" x="1785.93" y="-431.45" font-family="DejaVu Sans Mono" font-size="14.00">if i == len(l):</text>
</g>
<!-- 10&#45;&gt;14 -->
<g id="edge22" class="edge">
<title>10&#45;&gt;14</title>
<path fill="none" stroke="black" d="M1876.75,-503.6C1876.75,-492.24 1876.75,-477.97 1876.75,-465.56"/>
<polygon fill="black" stroke="black" points="1880.25,-465.91 1876.75,-455.91 1873.25,-465.91 1880.25,-465.91"/>
</g>
<!-- 15 -->
<g id="node12" class="node">
<title>15</title>
<polygon fill="#e552ff" stroke="#e552ff" points="1647.75,-357 1605.75,-357 1605.75,-361 1593.75,-361 1593.75,-321 1647.75,-321 1647.75,-357"/>
<polyline fill="none" stroke="#e552ff" points="1593.75,-357 1605.75,-357"/>
<text text-anchor="middle" x="1620.75" y="-334.32" font-family="DejaVu Sans Mono" font-size="14.00">len</text>
</g>
<!-- 14&#45;&gt;15 -->
<g id="edge6" class="edge">
<title>14&#45;&gt;15</title>
<path fill="none" stroke="black" stroke-dasharray="5,2" d="M1832.43,-423.44C1776.34,-408.29 1683.24,-381.81 1651.75,-365 1651,-364.6 1650.24,-364.17 1649.49,-363.74"/>
<polygon fill="black" stroke="black" points="1651.48,-360.86 1641.23,-358.17 1647.57,-366.66 1651.48,-360.86"/>
<text text-anchor="middle" x="1735.38" y="-376.95" font-family="DejaVu Sans Mono" font-size="14.00">calls</text>
</g>
<!-- 16 -->
<g id="node13" class="node">
<title>16</title>
<polygon fill="#fffb81" stroke="black" points="1813.75,-360.25 1665.75,-360.25 1665.75,-317.75 1813.75,-317.75 1813.75,-360.25"/>
<text text-anchor="start" x="1673.75" y="-342.95" font-family="DejaVu Sans Mono" font-size="14.00">arr.append(r[j])</text>
<text text-anchor="start" x="1673.75" y="-325.7" font-family="DejaVu Sans Mono" font-size="14.00">j += 1</text>
</g>
<!-- 14&#45;&gt;16 -->
<g id="edge9" class="edge">
<title>14&#45;&gt;16</title>
<path fill="none" stroke="green" d="M1855.64,-420.47C1835.21,-406.28 1803.74,-384.43 1778.75,-367.08"/>
<polygon fill="green" stroke="green" points="1780.98,-364.37 1770.77,-361.54 1776.99,-370.12 1780.98,-364.37"/>
<text text-anchor="middle" x="1853.12" y="-376.95" font-family="DejaVu Sans Mono" font-size="14.00">i == len(l)</text>
</g>
<!-- 18 -->
<g id="node15" class="node">
<title>18</title>
<polygon fill="#ff6752" stroke="black" points="1970.75,-357 1832.11,-339 1970.75,-321 2109.39,-339 1970.75,-357"/>
<text text-anchor="start" x="1879.93" y="-334.32" font-family="DejaVu Sans Mono" font-size="14.00">if j == len(r):</text>
</g>
<!-- 14&#45;&gt;18 -->
<g id="edge21" class="edge">
<title>14&#45;&gt;18</title>
<path fill="none" stroke="red" d="M1891.85,-419.84C1906.93,-404.59 1930.29,-380.94 1947.69,-363.34"/>
<polygon fill="red" stroke="red" points="1950.08,-365.9 1954.62,-356.32 1945.1,-360.98 1950.08,-365.9"/>
<text text-anchor="middle" x="1990.38" y="-376.95" font-family="DejaVu Sans Mono" font-size="14.00">(i != len(l))</text>
</g>
<!-- 16&#45;&gt;8 -->
<g id="edge8" class="edge">
<title>16&#45;&gt;8</title>
<path fill="none" stroke="black" d="M1802.34,-360.68C1809.17,-362.39 1816.07,-363.88 1822.75,-365 1834.1,-366.9 2021.77,-364.71 2029.75,-373 2035.07,-378.52 2030,-382.59 2029.75,-390.25 2028.64,-423.97 2027.38,-432.36 2024.75,-466 2023.59,-480.79 2022.42,-484.43 2021.75,-499.25 2020.21,-533.55 2019.17,-542.26 2021.75,-576.5 2021.86,-577.93 2021.99,-579.39 2022.14,-580.87"/>
<polygon fill="black" stroke="black" points="2018.65,-581.12 2023.42,-590.59 2025.59,-580.22 2018.65,-581.12"/>
</g>
<!-- 29 -->
<g id="node14" class="node">
<title>29</title>
<polygon fill="#e552ff" stroke="#e552ff" points="1692,-271.75 1605.5,-271.75 1605.5,-275.75 1593.5,-275.75 1593.5,-235.75 1692,-235.75 1692,-271.75"/>
<polyline fill="none" stroke="#e552ff" points="1593.5,-271.75 1605.5,-271.75"/>
<text text-anchor="middle" x="1642.75" y="-249.07" font-family="DejaVu Sans Mono" font-size="14.00">arr.append</text>
</g>
<!-- 16&#45;&gt;29 -->
<g id="edge7" class="edge">
<title>16&#45;&gt;29</title>
<path fill="none" stroke="black" stroke-dasharray="5,2" d="M1715.77,-317.42C1702.3,-305.86 1685.4,-291.35 1671.25,-279.21"/>
<polygon fill="black" stroke="black" points="1673.87,-276.85 1664,-272.99 1669.31,-282.16 1673.87,-276.85"/>
<text text-anchor="middle" x="1720.38" y="-291.7" font-family="DejaVu Sans Mono" font-size="14.00">calls</text>
</g>
<!-- 19 -->
<g id="node16" class="node">
<title>19</title>
<polygon fill="#e552ff" stroke="#e552ff" points="1769.75,-271.75 1727.75,-271.75 1727.75,-275.75 1715.75,-275.75 1715.75,-235.75 1769.75,-235.75 1769.75,-271.75"/>
<polyline fill="none" stroke="#e552ff" points="1715.75,-271.75 1727.75,-271.75"/>
<text text-anchor="middle" x="1742.75" y="-249.07" font-family="DejaVu Sans Mono" font-size="14.00">len</text>
</g>
<!-- 18&#45;&gt;19 -->
<g id="edge10" class="edge">
<title>18&#45;&gt;19</title>
<path fill="none" stroke="black" stroke-dasharray="5,2" d="M1910.2,-328.38C1869.47,-319.99 1815.75,-305.06 1773.75,-279.75 1773.18,-279.4 1772.6,-279.05 1772.03,-278.69"/>
<polygon fill="black" stroke="black" points="1774.29,-275.99 1764.09,-273.12 1770.27,-281.73 1774.29,-275.99"/>
<text text-anchor="middle" x="1844.38" y="-291.7" font-family="DejaVu Sans Mono" font-size="14.00">calls</text>
</g>
<!-- 20 -->
<g id="node17" class="node">
<title>20</title>
<polygon fill="#fffb81" stroke="black" points="1935.75,-275 1787.75,-275 1787.75,-232.5 1935.75,-232.5 1935.75,-275"/>
<text text-anchor="start" x="1795.75" y="-257.7" font-family="DejaVu Sans Mono" font-size="14.00">arr.append(l[i])</text>
<text text-anchor="start" x="1795.75" y="-240.45" font-family="DejaVu Sans Mono" font-size="14.00">i += 1</text>
</g>
<!-- 18&#45;&gt;20 -->
<g id="edge13" class="edge">
<title>18&#45;&gt;20</title>
<path fill="none" stroke="green" d="M1929.73,-326.01C1917.02,-320.94 1903.58,-314.06 1893,-305 1886.56,-299.49 1881.03,-292.31 1876.48,-285.11"/>
<polygon fill="green" stroke="green" points="1879.69,-283.67 1871.66,-276.75 1873.62,-287.16 1879.69,-283.67"/>
<text text-anchor="middle" x="1938.12" y="-291.7" font-family="DejaVu Sans Mono" font-size="14.00">j == len(r)</text>
</g>
<!-- 22 -->
<g id="node19" class="node">
<title>22</title>
<polygon fill="#ff6752" stroke="black" points="2100.75,-271.75 1953.93,-253.75 2100.75,-235.75 2247.57,-253.75 2100.75,-271.75"/>
<text text-anchor="start" x="2004.1" y="-249.07" font-family="DejaVu Sans Mono" font-size="14.00">if l[i] &lt;= r[j]:</text>
</g>
<!-- 18&#45;&gt;22 -->
<g id="edge20" class="edge">
<title>18&#45;&gt;22</title>
<path fill="none" stroke="red" d="M1993.39,-323.5C2014.15,-310.21 2045.1,-290.39 2068.44,-275.44"/>
<polygon fill="red" stroke="red" points="2070.12,-278.52 2076.65,-270.18 2066.35,-272.63 2070.12,-278.52"/>
<text text-anchor="middle" x="2100.38" y="-291.7" font-family="DejaVu Sans Mono" font-size="14.00">(j != len(r))</text>
</g>
<!-- 20&#45;&gt;8 -->
<g id="edge12" class="edge">
<title>20&#45;&gt;8</title>
<path fill="none" stroke="black" d="M1924.35,-275.39C1931.18,-277.1 1938.07,-278.61 1944.75,-279.75 1954.56,-281.42 2116.87,-280.56 2123.75,-287.75 2193.43,-360.61 2074.23,-403.81 2041.75,-499.25 2032.62,-526.07 2029.03,-558.34 2027.63,-581.01"/>
<polygon fill="black" stroke="black" points="2024.15,-580.55 2027.14,-590.71 2031.14,-580.9 2024.15,-580.55"/>
</g>
<!-- 28 -->
<g id="node18" class="node">
<title>28</title>
<polygon fill="#e552ff" stroke="#e552ff" points="1911,-186.5 1824.5,-186.5 1824.5,-190.5 1812.5,-190.5 1812.5,-150.5 1911,-150.5 1911,-186.5"/>
<polyline fill="none" stroke="#e552ff" points="1812.5,-186.5 1824.5,-186.5"/>
<text text-anchor="middle" x="1861.75" y="-163.82" font-family="DejaVu Sans Mono" font-size="14.00">arr.append</text>
</g>
<!-- 20&#45;&gt;28 -->
<g id="edge11" class="edge">
<title>20&#45;&gt;28</title>
<path fill="none" stroke="black" stroke-dasharray="5,2" d="M1861.75,-232.17C1861.75,-221.92 1861.75,-209.35 1861.75,-198.17"/>
<polygon fill="black" stroke="black" points="1865.25,-198.27 1861.75,-188.27 1858.25,-198.27 1865.25,-198.27"/>
<text text-anchor="middle" x="1882.38" y="-206.45" font-family="DejaVu Sans Mono" font-size="14.00">calls</text>
</g>
<!-- 23 -->
<g id="node20" class="node">
<title>23</title>
<polygon fill="#fffb81" stroke="black" points="2109.75,-189.75 1961.75,-189.75 1961.75,-147.25 2109.75,-147.25 2109.75,-189.75"/>
<text text-anchor="start" x="1969.75" y="-172.45" font-family="DejaVu Sans Mono" font-size="14.00">arr.append(l[i])</text>
<text text-anchor="start" x="1969.75" y="-155.2" font-family="DejaVu Sans Mono" font-size="14.00">i += 1</text>
</g>
<!-- 22&#45;&gt;23 -->
<g id="edge16" class="edge">
<title>22&#45;&gt;23</title>
<path fill="none" stroke="green" d="M2057.48,-240.55C2047.71,-235.69 2038.53,-228.98 2032.75,-219.75 2029.33,-214.29 2028.13,-207.8 2028.15,-201.34"/>
<polygon fill="green" stroke="green" points="2031.63,-201.75 2029.15,-191.45 2024.66,-201.05 2031.63,-201.75"/>
<text text-anchor="middle" x="2082.25" y="-206.45" font-family="DejaVu Sans Mono" font-size="14.00">l[i] &lt;= r[j]</text>
</g>
<!-- 25 -->
<g id="node22" class="node">
<title>25</title>
<polygon fill="#fffb81" stroke="black" points="2283.75,-189.75 2135.75,-189.75 2135.75,-147.25 2283.75,-147.25 2283.75,-189.75"/>
<text text-anchor="start" x="2143.75" y="-172.45" font-family="DejaVu Sans Mono" font-size="14.00">arr.append(r[j])</text>
<text text-anchor="start" x="2143.75" y="-155.2" font-family="DejaVu Sans Mono" font-size="14.00">j += 1</text>
</g>
<!-- 22&#45;&gt;25 -->
<g id="edge19" class="edge">
<title>22&#45;&gt;25</title>
<path fill="none" stroke="red" d="M2120.49,-237.67C2135.33,-226.34 2156.06,-210.5 2173.81,-196.95"/>
<polygon fill="red" stroke="red" points="2175.75,-199.87 2181.57,-191.02 2171.5,-194.31 2175.75,-199.87"/>
<text text-anchor="middle" x="2218.38" y="-206.45" font-family="DejaVu Sans Mono" font-size="14.00">(l[i] &gt; r[j])</text>
</g>
<!-- 23&#45;&gt;8 -->
<g id="edge15" class="edge">
<title>23&#45;&gt;8</title>
<path fill="none" stroke="black" d="M2105.47,-190.24C2112.62,-191.88 2119.8,-193.35 2126.75,-194.5 2141.58,-196.95 2251.44,-191.57 2261.75,-202.5 2285.35,-227.54 2270.57,-248.24 2256.75,-279.75 2228,-345.28 2195.18,-344.67 2147.75,-398.25 2142.87,-403.77 2065.32,-492.81 2061.75,-499.25 2053.91,-513.39 2042.09,-553.35 2034.39,-581.06"/>
<polygon fill="black" stroke="black" points="2031.04,-580.05 2031.77,-590.62 2037.79,-581.9 2031.04,-580.05"/>
</g>
<!-- 27 -->
<g id="node21" class="node">
<title>27</title>
<polygon fill="#e552ff" stroke="#e552ff" points="2085,-93.25 1998.5,-93.25 1998.5,-97.25 1986.5,-97.25 1986.5,-57.25 2085,-57.25 2085,-93.25"/>
<polyline fill="none" stroke="#e552ff" points="1986.5,-93.25 1998.5,-93.25"/>
<text text-anchor="middle" x="2035.75" y="-70.58" font-family="DejaVu Sans Mono" font-size="14.00">arr.append</text>
</g>
<!-- 23&#45;&gt;27 -->
<g id="edge14" class="edge">
<title>23&#45;&gt;27</title>
<path fill="none" stroke="black" stroke-dasharray="5,2" d="M2035.75,-146.79C2035.75,-134.35 2035.75,-118.34 2035.75,-104.71"/>
<polygon fill="black" stroke="black" points="2039.25,-105.02 2035.75,-95.02 2032.25,-105.02 2039.25,-105.02"/>
<text text-anchor="middle" x="2056.38" y="-113.2" font-family="DejaVu Sans Mono" font-size="14.00">calls</text>
</g>
<!-- 25&#45;&gt;8 -->
<g id="edge18" class="edge">
<title>25&#45;&gt;8</title>
<path fill="none" stroke="black" d="M2260.92,-190.21C2265.18,-193.73 2268.92,-197.8 2271.75,-202.5 2289.43,-231.94 2280,-246.97 2269.75,-279.75 2238.27,-380.4 2201.41,-395.76 2122.75,-466 2103.93,-482.8 2092.14,-479.26 2076.75,-499.25 2061.65,-518.87 2066.88,-528.65 2056.75,-551.25 2052.14,-561.54 2046.6,-572.6 2041.54,-582.28"/>
<polygon fill="black" stroke="black" points="2038.61,-580.34 2037.02,-590.82 2044.79,-583.62 2038.61,-580.34"/>
</g>
<!-- 26 -->
<g id="node23" class="node">
<title>26</title>
<polygon fill="#e552ff" stroke="#e552ff" points="2259,-93.25 2172.5,-93.25 2172.5,-97.25 2160.5,-97.25 2160.5,-57.25 2259,-57.25 2259,-93.25"/>
<polyline fill="none" stroke="#e552ff" points="2160.5,-93.25 2172.5,-93.25"/>
<text text-anchor="middle" x="2209.75" y="-70.58" font-family="DejaVu Sans Mono" font-size="14.00">arr.append</text>
</g>
<!-- 25&#45;&gt;26 -->
<g id="edge17" class="edge">
<title>25&#45;&gt;26</title>
<path fill="none" stroke="black" stroke-dasharray="5,2" d="M2209.75,-146.79C2209.75,-134.35 2209.75,-118.34 2209.75,-104.71"/>
<polygon fill="black" stroke="black" points="2213.25,-105.02 2209.75,-95.02 2206.25,-105.02 2213.25,-105.02"/>
<text text-anchor="middle" x="2230.38" y="-113.2" font-family="DejaVu Sans Mono" font-size="14.00">calls</text>
</g>
<!-- 33 -->
<g id="node25" class="node">
<title>33</title>
<polygon fill="#fffb81" stroke="black" points="1287.75,-738.12 1139.75,-738.12 1139.75,-678.38 1287.75,-678.38 1287.75,-738.12"/>
<text text-anchor="start" x="1147.75" y="-720.83" font-family="DejaVu Sans Mono" font-size="14.00">n = len(src) / 2</text>
<text text-anchor="start" x="1147.75" y="-703.58" font-family="DejaVu Sans Mono" font-size="14.00">l = src[0:n]</text>
<text text-anchor="start" x="1147.75" y="-686.33" font-family="DejaVu Sans Mono" font-size="14.00">r = src[n:]</text>
</g>
<!-- 34 -->
<g id="node26" class="node">
<title>34</title>
<polygon fill="#e552ff" stroke="#e552ff" points="1197.75,-628.5 1155.75,-628.5 1155.75,-632.5 1143.75,-632.5 1143.75,-592.5 1197.75,-592.5 1197.75,-628.5"/>
<polyline fill="none" stroke="#e552ff" points="1143.75,-628.5 1155.75,-628.5"/>
<text text-anchor="middle" x="1170.75" y="-605.83" font-family="DejaVu Sans Mono" font-size="14.00">len</text>
</g>
<!-- 33&#45;&gt;34 -->
<g id="edge26" class="edge">
<title>33&#45;&gt;34</title>
<path fill="none" stroke="black" stroke-dasharray="5,2" d="M1200.61,-678C1195.09,-665.71 1188.7,-651.47 1183.25,-639.33"/>
<polygon fill="black" stroke="black" points="1186.47,-637.96 1179.18,-630.27 1180.08,-640.83 1186.47,-637.96"/>
<text text-anchor="middle" x="1212.38" y="-648.45" font-family="DejaVu Sans Mono" font-size="14.00">calls</text>
</g>
<!-- 35 -->
<g id="node27" class="node">
<title>35</title>
<polygon fill="#ff6752" stroke="black" points="1345.75,-628.5 1215.3,-610.5 1345.75,-592.5 1476.2,-610.5 1345.75,-628.5"/>
<text text-anchor="start" x="1260.77" y="-605.83" font-family="DejaVu Sans Mono" font-size="14.00">if len(l) &gt; 1:</text>
</g>
<!-- 33&#45;&gt;35 -->
<g id="edge39" class="edge">
<title>33&#45;&gt;35</title>
<path fill="none" stroke="black" d="M1254.07,-678C1274.12,-663.46 1297.92,-646.19 1316.24,-632.9"/>
<polygon fill="black" stroke="black" points="1318.28,-635.75 1324.32,-627.05 1314.17,-630.09 1318.28,-635.75"/>
</g>
<!-- 36 -->
<g id="node28" class="node">
<title>36</title>
<polygon fill="#e552ff" stroke="#e552ff" points="1202.75,-543.25 1160.75,-543.25 1160.75,-547.25 1148.75,-547.25 1148.75,-507.25 1202.75,-507.25 1202.75,-543.25"/>
<polyline fill="none" stroke="#e552ff" points="1148.75,-543.25 1160.75,-543.25"/>
<text text-anchor="middle" x="1175.75" y="-520.58" font-family="DejaVu Sans Mono" font-size="14.00">len</text>
</g>
<!-- 35&#45;&gt;36 -->
<g id="edge27" class="edge">
<title>35&#45;&gt;36</title>
<path fill="none" stroke="black" stroke-dasharray="5,2" d="M1288.44,-599.98C1248.04,-592.8 1199.85,-583.08 1192.5,-576.5 1186.17,-570.83 1182.23,-562.7 1179.77,-554.63"/>
<polygon fill="black" stroke="black" points="1183.21,-553.95 1177.54,-545 1176.39,-555.53 1183.21,-553.95"/>
<text text-anchor="middle" x="1212.38" y="-563.2" font-family="DejaVu Sans Mono" font-size="14.00">calls</text>
</g>
<!-- 37 -->
<g id="node29" class="node">
<title>37</title>
<polygon fill="#fffb81" stroke="black" points="1561.5,-543.25 1364,-543.25 1364,-507.25 1561.5,-507.25 1561.5,-543.25"/>
<text text-anchor="start" x="1372" y="-520.58" font-family="DejaVu Sans Mono" font-size="14.00">l = self.merge_sort(l)</text>
</g>
<!-- 35&#45;&gt;37 -->
<g id="edge37" class="edge">
<title>35&#45;&gt;37</title>
<path fill="none" stroke="green" d="M1366.13,-595C1383.54,-582.61 1408.92,-564.55 1429.31,-550.05"/>
<polygon fill="green" stroke="green" points="1431.21,-552.99 1437.33,-544.34 1427.15,-547.28 1431.21,-552.99"/>
<text text-anchor="middle" x="1455" y="-563.2" font-family="DejaVu Sans Mono" font-size="14.00">len(l) &gt; 1</text>
</g>
<!-- 38 -->
<g id="node31" class="node">
<title>38</title>
<polygon fill="#ff6752" stroke="black" points="1265.75,-454.12 1135.3,-436.12 1265.75,-418.12 1396.2,-436.12 1265.75,-454.12"/>
<text text-anchor="start" x="1180.77" y="-431.45" font-family="DejaVu Sans Mono" font-size="14.00">if len(r) &gt; 1:</text>
</g>
<!-- 35&#45;&gt;38 -->
<g id="edge38" class="edge">
<title>35&#45;&gt;38</title>
<path fill="none" stroke="red" d="M1307.05,-597.34C1285.4,-588.32 1260.26,-573.65 1247.5,-551.25 1232,-524.04 1242.18,-487.58 1252.5,-463.27"/>
<polygon fill="red" stroke="red" points="1255.57,-464.96 1256.53,-454.41 1249.2,-462.06 1255.57,-464.96"/>
<text text-anchor="middle" x="1300.38" y="-520.58" font-family="DejaVu Sans Mono" font-size="14.00">(len(l) &lt;= 1)</text>
</g>
<!-- 39 -->
<g id="node30" class="node">
<title>39</title>
<polygon fill="#e552ff" stroke="#e552ff" points="1553.62,-454.12 1425.88,-454.12 1425.88,-458.12 1413.88,-458.12 1413.88,-418.12 1553.62,-418.12 1553.62,-454.12"/>
<polyline fill="none" stroke="#e552ff" points="1413.88,-454.12 1425.88,-454.12"/>
<text text-anchor="middle" x="1483.75" y="-431.45" font-family="DejaVu Sans Mono" font-size="14.00">self.merge_sort</text>
</g>
<!-- 37&#45;&gt;39 -->
<g id="edge28" class="edge">
<title>37&#45;&gt;39</title>
<path fill="none" stroke="black" stroke-dasharray="5,2" d="M1466.9,-507.04C1469.76,-495.18 1473.62,-479.16 1476.93,-465.44"/>
<polygon fill="black" stroke="black" points="1480.24,-466.61 1479.18,-456.07 1473.44,-464.97 1480.24,-466.61"/>
<text text-anchor="middle" x="1494.38" y="-477.95" font-family="DejaVu Sans Mono" font-size="14.00">calls</text>
</g>
<!-- 37&#45;&gt;38 -->
<g id="edge36" class="edge">
<title>37&#45;&gt;38</title>
<path fill="none" stroke="black" d="M1423.36,-506.83C1389.27,-491.75 1340.19,-470.05 1305.89,-454.88"/>
<polygon fill="black" stroke="black" points="1307.69,-451.85 1297.13,-451 1304.86,-458.25 1307.69,-451.85"/>
</g>
<!-- 40 -->
<g id="node32" class="node">
<title>40</title>
<polygon fill="#e552ff" stroke="#e552ff" points="1202.75,-357 1160.75,-357 1160.75,-361 1148.75,-361 1148.75,-321 1202.75,-321 1202.75,-357"/>
<polyline fill="none" stroke="#e552ff" points="1148.75,-357 1160.75,-357"/>
<text text-anchor="middle" x="1175.75" y="-334.32" font-family="DejaVu Sans Mono" font-size="14.00">len</text>
</g>
<!-- 38&#45;&gt;40 -->
<g id="edge29" class="edge">
<title>38&#45;&gt;40</title>
<path fill="none" stroke="black" stroke-dasharray="5,2" d="M1234.39,-422.07C1219.87,-414.64 1203.45,-404.03 1192.5,-390.25 1187.43,-383.86 1183.86,-375.87 1181.36,-368.15"/>
<polygon fill="black" stroke="black" points="1184.8,-367.46 1178.81,-358.72 1178.04,-369.29 1184.8,-367.46"/>
<text text-anchor="middle" x="1212.38" y="-376.95" font-family="DejaVu Sans Mono" font-size="14.00">calls</text>
</g>
<!-- 41 -->
<g id="node33" class="node">
<title>41</title>
<polygon fill="#fffb81" stroke="black" points="1561.5,-357 1364,-357 1364,-321 1561.5,-321 1561.5,-357"/>
<text text-anchor="start" x="1372" y="-334.32" font-family="DejaVu Sans Mono" font-size="14.00">r = self.merge_sort(r)</text>
</g>
<!-- 38&#45;&gt;41 -->
<g id="edge34" class="edge">
<title>38&#45;&gt;41</title>
<path fill="none" stroke="green" d="M1293.56,-421.7C1325.45,-406.3 1378.25,-380.8 1416.39,-362.39"/>
<polygon fill="green" stroke="green" points="1417.88,-365.55 1425.37,-358.05 1414.84,-359.25 1417.88,-365.55"/>
<text text-anchor="middle" x="1434" y="-376.95" font-family="DejaVu Sans Mono" font-size="14.00">len(r) &gt; 1</text>
</g>
<!-- 42 -->
<g id="node35" class="node">
<title>42</title>
<polygon fill="#fffb81" stroke="black" points="1353.5,-271.75 1156,-271.75 1156,-235.75 1353.5,-235.75 1353.5,-271.75"/>
<text text-anchor="start" x="1164" y="-249.07" font-family="DejaVu Sans Mono" font-size="14.00">src = self.merge(l, r)</text>
</g>
<!-- 38&#45;&gt;42 -->
<g id="edge35" class="edge">
<title>38&#45;&gt;42</title>
<path fill="none" stroke="red" d="M1260.19,-418.64C1255.75,-404.58 1249.9,-383.72 1247.5,-365 1244.57,-342.08 1246.07,-336.07 1247.5,-313 1248.1,-303.27 1249.27,-292.69 1250.49,-283.24"/>
<polygon fill="red" stroke="red" points="1253.93,-283.91 1251.82,-273.53 1246.99,-282.96 1253.93,-283.91"/>
<text text-anchor="middle" x="1300.38" y="-334.32" font-family="DejaVu Sans Mono" font-size="14.00">(len(r) &lt;= 1)</text>
</g>
<!-- 43 -->
<g id="node34" class="node">
<title>43</title>
<polygon fill="#e552ff" stroke="#e552ff" points="1532.62,-271.75 1404.88,-271.75 1404.88,-275.75 1392.88,-275.75 1392.88,-235.75 1532.62,-235.75 1532.62,-271.75"/>
<polyline fill="none" stroke="#e552ff" points="1392.88,-271.75 1404.88,-271.75"/>
<text text-anchor="middle" x="1462.75" y="-249.07" font-family="DejaVu Sans Mono" font-size="14.00">self.merge_sort</text>
</g>
<!-- 41&#45;&gt;43 -->
<g id="edge30" class="edge">
<title>41&#45;&gt;43</title>
<path fill="none" stroke="black" stroke-dasharray="5,2" d="M1462.75,-320.75C1462.75,-309.92 1462.75,-295.7 1462.75,-283.23"/>
<polygon fill="black" stroke="black" points="1466.25,-283.49 1462.75,-273.49 1459.25,-283.49 1466.25,-283.49"/>
<text text-anchor="middle" x="1483.38" y="-291.7" font-family="DejaVu Sans Mono" font-size="14.00">calls</text>
</g>
<!-- 41&#45;&gt;42 -->
<g id="edge33" class="edge">
<title>41&#45;&gt;42</title>
<path fill="none" stroke="black" d="M1419.15,-320.55C1386.98,-307.67 1343,-290.07 1308.63,-276.32"/>
<polygon fill="black" stroke="black" points="1310.29,-273.21 1299.7,-272.74 1307.68,-279.71 1310.29,-273.21"/>
</g>
<!-- 44 -->
<g id="node36" class="node">
<title>44</title>
<polygon fill="#e552ff" stroke="#e552ff" points="1251,-186.5 1164.5,-186.5 1164.5,-190.5 1152.5,-190.5 1152.5,-150.5 1251,-150.5 1251,-186.5"/>
<polyline fill="none" stroke="#e552ff" points="1152.5,-186.5 1164.5,-186.5"/>
<text text-anchor="middle" x="1201.75" y="-163.82" font-family="DejaVu Sans Mono" font-size="14.00">self.merge</text>
</g>
<!-- 42&#45;&gt;44 -->
<g id="edge31" class="edge">
<title>42&#45;&gt;44</title>
<path fill="none" stroke="black" stroke-dasharray="5,2" d="M1237,-235.46C1232.59,-230.62 1228.1,-225.2 1224.5,-219.75 1219.96,-212.88 1215.91,-204.95 1212.52,-197.46"/>
<polygon fill="black" stroke="black" points="1215.78,-196.18 1208.65,-188.35 1209.34,-198.92 1215.78,-196.18"/>
<text text-anchor="middle" x="1244.38" y="-206.45" font-family="DejaVu Sans Mono" font-size="14.00">calls</text>
</g>
<!-- 45 -->
<g id="node37" class="node">
<title>45</title>
<polygon fill="#98fb98" stroke="black" points="1472.06,-186.5 1310.9,-186.5 1269.44,-150.5 1430.6,-150.5 1472.06,-186.5"/>
<text text-anchor="start" x="1309.1" y="-163.82" font-family="DejaVu Sans Mono" font-size="14.00">return src</text>
</g>
<!-- 42&#45;&gt;45 -->
<g id="edge32" class="edge">
<title>42&#45;&gt;45</title>
<path fill="none" stroke="black" d="M1279.07,-235.3C1295.93,-223.2 1318.6,-206.93 1337.17,-193.6"/>
<polygon fill="black" stroke="black" points="1339.15,-196.49 1345.23,-187.81 1335.07,-190.8 1339.15,-196.49"/>
</g>
<!-- 49 -->
<g id="node38" class="node">
<title>49</title>
<polygon fill="#fffb81" stroke="black" points="842.38,-726.25 785.12,-726.25 785.12,-690.25 842.38,-690.25 842.38,-726.25"/>
<text text-anchor="start" x="793.12" y="-703.58" font-family="DejaVu Sans Mono" font-size="14.00">j = 1</text>
</g>
<!-- 50 -->
<g id="node39" class="node">
<title>50</title>
<polygon fill="#ffbe52" stroke="black" points="1013.82,-610.5 913.78,-628.5 713.72,-628.5 613.68,-610.5 713.72,-592.5 913.78,-592.5 1013.82,-610.5"/>
<text text-anchor="start" x="679.14" y="-605.83" font-family="DejaVu Sans Mono" font-size="14.00">for j in range(1, len(src)):</text>
</g>
<!-- 49&#45;&gt;50 -->
<g id="edge48" class="edge">
<title>49&#45;&gt;50</title>
<path fill="none" stroke="black" d="M813.75,-690.13C813.75,-676.19 813.75,-656.22 813.75,-639.9"/>
<polygon fill="black" stroke="black" points="817.25,-640.31 813.75,-630.31 810.25,-640.31 817.25,-640.31"/>
</g>
<!-- 51 -->
<g id="node40" class="node">
<title>51</title>
<polygon fill="#e552ff" stroke="#e552ff" points="519.38,-543.25 474.12,-543.25 474.12,-547.25 462.12,-547.25 462.12,-507.25 519.38,-507.25 519.38,-543.25"/>
<polyline fill="none" stroke="#e552ff" points="462.12,-543.25 474.12,-543.25"/>
<text text-anchor="middle" x="490.75" y="-520.58" font-family="DejaVu Sans Mono" font-size="14.00">range</text>
</g>
<!-- 50&#45;&gt;51 -->
<g id="edge40" class="edge">
<title>50&#45;&gt;51</title>
<path fill="none" stroke="black" stroke-dasharray="5,2" d="M687.54,-596.74C635.21,-588.28 574.9,-574.29 523.75,-551.25 522.64,-550.75 521.52,-550.2 520.42,-549.62"/>
<polygon fill="black" stroke="black" points="522.42,-546.74 512.08,-544.45 518.73,-552.69 522.42,-546.74"/>
<text text-anchor="middle" x="612.38" y="-563.2" font-family="DejaVu Sans Mono" font-size="14.00">calls</text>
</g>
<!-- 53 -->
<g id="node42" class="node">
<title>53</title>
<polygon fill="#fffb81" stroke="black" points="1111.25,-546.5 996.25,-546.5 996.25,-504 1111.25,-504 1111.25,-546.5"/>
<text text-anchor="start" x="1004.25" y="-529.2" font-family="DejaVu Sans Mono" font-size="14.00">i = j &#45; 1</text>
<text text-anchor="start" x="1004.25" y="-511.95" font-family="DejaVu Sans Mono" font-size="14.00">key = src[j]</text>
</g>
<!-- 50&#45;&gt;53 -->
<g id="edge43" class="edge">
<title>50&#45;&gt;53</title>
<path fill="none" stroke="green" d="M822.89,-592.32C830.04,-580.79 841.13,-566.43 855.25,-559.25 881.34,-545.98 958.11,-557.32 986.75,-551.25 988.5,-550.88 990.27,-550.47 992.05,-550.03"/>
<polygon fill="green" stroke="green" points="992.86,-553.43 1001.54,-547.37 990.97,-546.69 992.86,-553.43"/>
<text text-anchor="middle" x="929" y="-563.2" font-family="DejaVu Sans Mono" font-size="14.00">range(1, len(src))</text>
</g>
<!-- 54 -->
<g id="node43" class="node">
<title>54</title>
<polygon fill="#ffbe52" stroke="black" points="977.87,-525.25 867.81,-543.25 647.69,-543.25 537.63,-525.25 647.69,-507.25 867.81,-507.25 977.87,-525.25"/>
<text text-anchor="start" x="608.86" y="-520.58" font-family="DejaVu Sans Mono" font-size="14.00">while i &gt;= 0 and src[i] &gt;= key:</text>
</g>
<!-- 50&#45;&gt;54 -->
<g id="edge47" class="edge">
<title>50&#45;&gt;54</title>
<path fill="none" stroke="green" d="M802.15,-592.25C794.49,-580.86 784.3,-565.72 775.62,-552.81"/>
<polygon fill="green" stroke="green" points="778.67,-551.08 770.18,-544.73 772.86,-554.98 778.67,-551.08"/>
</g>
<!-- 52 -->
<g id="node41" class="node">
<title>52</title>
<polygon fill="#e552ff" stroke="#e552ff" points="517.75,-454.12 475.75,-454.12 475.75,-458.12 463.75,-458.12 463.75,-418.12 517.75,-418.12 517.75,-454.12"/>
<polyline fill="none" stroke="#e552ff" points="463.75,-454.12 475.75,-454.12"/>
<text text-anchor="middle" x="490.75" y="-431.45" font-family="DejaVu Sans Mono" font-size="14.00">len</text>
</g>
<!-- 51&#45;&gt;52 -->
<g id="edge41" class="edge">
<title>51&#45;&gt;52</title>
<path fill="none" stroke="black" d="M490.75,-507.04C490.75,-495.3 490.75,-479.48 490.75,-465.85"/>
<polygon fill="black" stroke="black" points="494.25,-466.11 490.75,-456.11 487.25,-466.11 494.25,-466.11"/>
</g>
<!-- 53&#45;&gt;50 -->
<g id="edge42" class="edge">
<title>53&#45;&gt;50</title>
<path fill="none" stroke="black" d="M1039.94,-546.95C1031.82,-557.47 1020.63,-569.48 1007.75,-576.5 992.92,-584.58 976.59,-590.77 959.89,-595.5"/>
<polygon fill="black" stroke="black" points="959.11,-592.09 950.33,-598.02 960.89,-598.85 959.11,-592.09"/>
</g>
<!-- 55 -->
<g id="node44" class="node">
<title>55</title>
<polygon fill="#fffb81" stroke="black" points="1020.12,-466 847.38,-466 847.38,-406.25 1020.12,-406.25 1020.12,-466"/>
<text text-anchor="start" x="855.38" y="-448.7" font-family="DejaVu Sans Mono" font-size="14.00">src[i + 1] = src[i]</text>
<text text-anchor="start" x="855.38" y="-431.45" font-family="DejaVu Sans Mono" font-size="14.00">i = i &#45; 1</text>
<text text-anchor="start" x="855.38" y="-414.2" font-family="DejaVu Sans Mono" font-size="14.00">src[i + 1] = key</text>
</g>
<!-- 54&#45;&gt;55 -->
<g id="edge45" class="edge">
<title>54&#45;&gt;55</title>
<path fill="none" stroke="green" d="M794.06,-506.86C802.73,-502.19 811.77,-496.86 819.75,-491.25 829.08,-484.69 829.05,-480 838.75,-474 839.98,-473.24 841.22,-472.49 842.48,-471.76"/>
<polygon fill="green" stroke="green" points="844,-474.92 851.1,-467.05 840.64,-468.77 844,-474.92"/>
<text text-anchor="middle" x="937.75" y="-477.95" font-family="DejaVu Sans Mono" font-size="14.00">i &gt;= 0 and src[i] &gt;= key</text>
</g>
<!-- 56 -->
<g id="node45" class="node">
<title>56</title>
<polygon fill="#98fb98" stroke="black" points="738.06,-454.12 576.9,-454.12 535.44,-418.12 696.6,-418.12 738.06,-454.12"/>
<text text-anchor="start" x="575.1" y="-431.45" font-family="DejaVu Sans Mono" font-size="14.00">return src</text>
</g>
<!-- 54&#45;&gt;56 -->
<g id="edge46" class="edge">
<title>54&#45;&gt;56</title>
<path fill="none" stroke="red" d="M609.29,-513.07C584.6,-508.2 564.24,-501.23 555.75,-491.25 545.23,-478.87 554.01,-468.16 569.09,-459.61"/>
<polygon fill="red" stroke="red" points="570.44,-462.85 577.82,-455.25 567.31,-456.59 570.44,-462.85"/>
<text text-anchor="middle" x="687.75" y="-477.95" font-family="DejaVu Sans Mono" font-size="14.00">(not (i &gt;= 0 and src[i] &gt;= key))</text>
</g>
<!-- 55&#45;&gt;54 -->
<g id="edge44" class="edge">
<title>55&#45;&gt;54</title>
<path fill="none" stroke="black" d="M1020.58,-455.86C1041.56,-464.27 1054.45,-475.86 1040.75,-491.25 1039.44,-492.72 969.05,-500.94 898.81,-508.8"/>
<polygon fill="black" stroke="black" points="898.6,-505.3 889.05,-509.89 899.38,-512.26 898.6,-505.3"/>
</g>
<!-- input -->
<g id="node46" class="node">
<title>input</title>
<polygon fill="#afeeee" stroke="black" points="2707.63,-628.5 2613.96,-628.5 2589.87,-592.5 2683.54,-592.5 2707.63,-628.5"/>
<text text-anchor="middle" x="2648.75" y="-605.83" font-family="DejaVu Sans Mono" font-size="14.00">input</text>
</g>
<!-- call -->
<g id="node51" class="node">
<title>call</title>
<polygon fill="#e552ff" stroke="black" points="2675.75,-543.25 2633.75,-543.25 2633.75,-547.25 2621.75,-547.25 2621.75,-507.25 2675.75,-507.25 2675.75,-543.25"/>
<polyline fill="none" stroke="black" points="2621.75,-543.25 2633.75,-543.25"/>
<text text-anchor="middle" x="2648.75" y="-520.58" font-family="DejaVu Sans Mono" font-size="14.00">call</text>
</g>
<!-- input&#45;&gt;call -->
<!-- default -->
<g id="node47" class="node">
<title>default</title>
<polygon fill="#fffb81" stroke="black" points="2541.62,-543.25 2467.88,-543.25 2467.88,-507.25 2541.62,-507.25 2541.62,-543.25"/>
<text text-anchor="middle" x="2504.75" y="-520.58" font-family="DejaVu Sans Mono" font-size="14.00">default</text>
</g>
<!-- if -->
<g id="node48" class="node">
<title>if</title>
<polygon fill="#ff6752" stroke="black" points="2648.75,-726.25 2616.51,-708.25 2648.75,-690.25 2680.99,-708.25 2648.75,-726.25"/>
<text text-anchor="middle" x="2648.75" y="-703.58" font-family="DejaVu Sans Mono" font-size="14.00">if</text>
</g>
<!-- if&#45;&gt;input -->
<!-- for -->
<g id="node49" class="node">
<title>for</title>
<polygon fill="#ffbe52" stroke="black" points="2596.76,-708.25 2580.25,-726.25 2547.25,-726.25 2530.74,-708.25 2547.25,-690.25 2580.25,-690.25 2596.76,-708.25"/>
<text text-anchor="middle" x="2563.75" y="-703.58" font-family="DejaVu Sans Mono" font-size="14.00">for</text>
</g>
<!-- return -->
<g id="node52" class="node">
<title>return</title>
<polygon fill="#98fb98" stroke="black" points="2572.12,-628.5 2464.95,-628.5 2437.38,-592.5 2544.55,-592.5 2572.12,-628.5"/>
<text text-anchor="middle" x="2504.75" y="-605.83" font-family="DejaVu Sans Mono" font-size="14.00">return</text>
</g>
<!-- for&#45;&gt;return -->
<!-- while -->
<g id="node50" class="node">
<title>while</title>
<polygon fill="#ffbe52" stroke="black" points="2513.12,-708.25 2489.94,-726.25 2443.56,-726.25 2420.38,-708.25 2443.56,-690.25 2489.94,-690.25 2513.12,-708.25"/>
<text text-anchor="middle" x="2466.75" y="-703.58" font-family="DejaVu Sans Mono" font-size="14.00">while</text>
</g>
<!-- return&#45;&gt;default -->
<!-- try -->
<g id="node53" class="node">
<title>try</title>
<polygon fill="orange" stroke="black" points="2361.75,-726.25 2321.32,-708.25 2361.75,-690.25 2402.18,-708.25 2361.75,-726.25"/>
<polyline fill="none" stroke="black" points="2332.29,-713.13 2332.29,-703.37"/>
<polyline fill="none" stroke="black" points="2350.79,-695.13 2372.71,-695.13"/>
<polyline fill="none" stroke="black" points="2391.21,-703.37 2391.21,-713.13"/>
<polyline fill="none" stroke="black" points="2372.71,-721.37 2350.79,-721.37"/>
<text text-anchor="middle" x="2361.75" y="-703.58" font-family="DejaVu Sans Mono" font-size="14.00">try</text>
</g>
<!-- raise -->
<g id="node54" class="node">
<title>raise</title>
<polygon fill="#98fb98" stroke="black" points="2419.39,-616.06 2369.75,-628.5 2320.11,-616.06 2320.16,-595.94 2419.34,-595.94 2419.39,-616.06"/>
<text text-anchor="middle" x="2369.75" y="-605.83" font-family="DejaVu Sans Mono" font-size="14.00">raise</text>
</g>
<!-- try&#45;&gt;raise -->
</g>
</svg>
