<?xml version="1.0" encoding="UTF-8" standalone="no"?>
<!DOCTYPE svg PUBLIC "-//W3C//DTD SVG 1.1//EN"
 "http://www.w3.org/Graphics/SVG/1.1/DTD/svg11.dtd">
<!-- Generated by graphviz version 9.0.0 (20230911.1827)
 -->
<!-- Title: cluster0super Pages: 1 -->
<svg width="1328pt" height="314pt"
 viewBox="0.00 0.00 1327.75 314.00" xmlns="http://www.w3.org/2000/svg" xmlns:xlink="http://www.w3.org/1999/xlink">
<g id="graph0" class="graph" transform="scale(1 1) rotate(0) translate(4 310)">
<title>cluster0super</title>
<polygon fill="white" stroke="none" points="-4,4 -4,-310 1323.75,-310 1323.75,4 -4,4"/>
<text text-anchor="middle" x="659.88" y="-7.95" font-family="DejaVu Sans Mono" font-size="14.00">super</text>
<g id="clust1" class="cluster">
<title>cluster0Base</title>
<polygon fill="none" stroke="black" points="141.75,-94.25 141.75,-298 487.75,-298 487.75,-94.25 141.75,-94.25"/>
<text text-anchor="middle" x="314.75" y="-280.7" font-family="DejaVu Sans Mono" font-size="14.00">Base</text>
</g>
<g id="clust2" class="cluster">
<title>cluster0__init__</title>
<polygon fill="none" stroke="black" points="357.75,-102.25 357.75,-264.75 479.75,-264.75 479.75,-102.25 357.75,-102.25"/>
<text text-anchor="middle" x="418.75" y="-247.45" font-family="DejaVu Sans Mono" font-size="14.00">__init__</text>
</g>
<g id="clust3" class="cluster">
<title>cluster_5</title>
<polygon fill="purple" stroke="purple" points="381.75,-110.25 381.75,-162.25 455.75,-162.25 455.75,-110.25 381.75,-110.25"/>
</g>
<g id="clust4" class="cluster">
<title>cluster0Derived</title>
<polygon fill="none" stroke="black" points="495.75,-94.25 495.75,-298 899.75,-298 899.75,-94.25 495.75,-94.25"/>
<text text-anchor="middle" x="697.75" y="-280.7" font-family="DejaVu Sans Mono" font-size="14.00">Derived</text>
</g>
<g id="clust5" class="cluster">
<title>cluster1__init__</title>
<polygon fill="none" stroke="black" points="711.75,-102.25 711.75,-264.75 891.75,-264.75 891.75,-102.25 711.75,-102.25"/>
<text text-anchor="middle" x="801.75" y="-247.45" font-family="DejaVu Sans Mono" font-size="14.00">__init__</text>
</g>
<g id="clust6" class="cluster">
<title>cluster_12</title>
<polygon fill="purple" stroke="purple" points="727.75,-110.25 727.75,-162.25 875.75,-162.25 875.75,-110.25 727.75,-110.25"/>
</g>
<g id="clust7" class="cluster">
<title>cluster_KEY</title>
<polygon fill="none" stroke="black" points="907.75,-33.25 907.75,-264.75 1311.75,-264.75 1311.75,-33.25 907.75,-33.25"/>
<text text-anchor="middle" x="1109.75" y="-247.45" font-family="DejaVu Sans Mono" font-size="14.00">KEY</text>
</g>
<!-- 1 -->
<g id="node1" class="node">
<title>1</title>
<polygon fill="#fffb81" stroke="black" points="131.5,-231.5 0,-231.5 0,-195.5 131.5,-195.5 131.5,-231.5"/>
<text text-anchor="start" x="8" y="-208.82" font-family="DejaVu Sans Mono" font-size="14.00">class Base:...</text>
</g>
<!-- 3 -->
<g id="node2" class="node">
<title>3</title>
<polygon fill="#fffb81" stroke="black" points="347.5,-231.5 150,-231.5 150,-195.5 347.5,-195.5 347.5,-231.5"/>
<text text-anchor="start" x="158" y="-208.82" font-family="DejaVu Sans Mono" font-size="14.00">def __init__(self):...</text>
</g>
<!-- 5 -->
<g id="node3" class="node">
<title>5</title>
<polygon fill="#fffb81" stroke="black" points="472.12,-231.5 365.38,-231.5 365.38,-195.5 472.12,-195.5 472.12,-231.5"/>
<text text-anchor="start" x="373.38" y="-208.82" font-family="DejaVu Sans Mono" font-size="14.00">print(self)</text>
</g>
<!-- 6 -->
<g id="node4" class="node">
<title>6</title>
<polygon fill="#e552ff" stroke="#e552ff" points="447.38,-154.25 402.12,-154.25 402.12,-158.25 390.12,-158.25 390.12,-118.25 447.38,-118.25 447.38,-154.25"/>
<polyline fill="none" stroke="#e552ff" points="390.12,-154.25 402.12,-154.25"/>
<text text-anchor="middle" x="418.75" y="-131.57" font-family="DejaVu Sans Mono" font-size="14.00">print</text>
</g>
<!-- 5&#45;&gt;6 -->
<g id="edge1" class="edge">
<title>5&#45;&gt;6</title>
<path fill="none" stroke="black" stroke-dasharray="5,2" d="M418.75,-195.05C418.75,-186.4 418.75,-175.75 418.75,-165.94"/>
<polygon fill="black" stroke="black" points="422.25,-166.12 418.75,-156.12 415.25,-166.12 422.25,-166.12"/>
<text text-anchor="middle" x="439.38" y="-174.2" font-family="DejaVu Sans Mono" font-size="14.00">calls</text>
</g>
<!-- 10 -->
<g id="node5" class="node">
<title>10</title>
<polygon fill="#fffb81" stroke="black" points="701.5,-231.5 504,-231.5 504,-195.5 701.5,-195.5 701.5,-231.5"/>
<text text-anchor="start" x="512" y="-208.82" font-family="DejaVu Sans Mono" font-size="14.00">def __init__(self):...</text>
</g>
<!-- 12 -->
<g id="node6" class="node">
<title>12</title>
<polygon fill="#fffb81" stroke="black" points="884,-231.5 719.5,-231.5 719.5,-195.5 884,-195.5 884,-231.5"/>
<text text-anchor="start" x="727.5" y="-208.82" font-family="DejaVu Sans Mono" font-size="14.00">super().__init__()</text>
</g>
<!-- 13 -->
<g id="node7" class="node">
<title>13</title>
<polygon fill="#e552ff" stroke="#e552ff" points="867.5,-154.25 748,-154.25 748,-158.25 736,-158.25 736,-118.25 867.5,-118.25 867.5,-154.25"/>
<polyline fill="none" stroke="#e552ff" points="736,-154.25 748,-154.25"/>
<text text-anchor="middle" x="801.75" y="-131.57" font-family="DejaVu Sans Mono" font-size="14.00">super.__init__</text>
</g>
<!-- 12&#45;&gt;13 -->
<g id="edge2" class="edge">
<title>12&#45;&gt;13</title>
<path fill="none" stroke="black" stroke-dasharray="5,2" d="M801.75,-195.05C801.75,-186.4 801.75,-175.75 801.75,-165.94"/>
<polygon fill="black" stroke="black" points="805.25,-166.12 801.75,-156.12 798.25,-166.12 805.25,-166.12"/>
<text text-anchor="middle" x="822.38" y="-174.2" font-family="DejaVu Sans Mono" font-size="14.00">calls</text>
</g>
<!-- input -->
<g id="node8" class="node">
<title>input</title>
<polygon fill="#afeeee" stroke="black" points="1303.63,-154.25 1209.96,-154.25 1185.87,-118.25 1279.54,-118.25 1303.63,-154.25"/>
<text text-anchor="middle" x="1244.75" y="-131.57" font-family="DejaVu Sans Mono" font-size="14.00">input</text>
</g>
<!-- call -->
<g id="node13" class="node">
<title>call</title>
<polygon fill="#e552ff" stroke="black" points="1271.75,-77.25 1229.75,-77.25 1229.75,-81.25 1217.75,-81.25 1217.75,-41.25 1271.75,-41.25 1271.75,-77.25"/>
<polyline fill="none" stroke="black" points="1217.75,-77.25 1229.75,-77.25"/>
<text text-anchor="middle" x="1244.75" y="-54.58" font-family="DejaVu Sans Mono" font-size="14.00">call</text>
</g>
<!-- input&#45;&gt;call -->
<!-- default -->
<g id="node9" class="node">
<title>default</title>
<polygon fill="#fffb81" stroke="black" points="1137.62,-77.25 1063.88,-77.25 1063.88,-41.25 1137.62,-41.25 1137.62,-77.25"/>
<text text-anchor="middle" x="1100.75" y="-54.58" font-family="DejaVu Sans Mono" font-size="14.00">default</text>
</g>
<!-- if -->
<g id="node10" class="node">
<title>if</title>
<polygon fill="#ff6752" stroke="black" points="1244.75,-231.5 1212.51,-213.5 1244.75,-195.5 1276.99,-213.5 1244.75,-231.5"/>
<text text-anchor="middle" x="1244.75" y="-208.82" font-family="DejaVu Sans Mono" font-size="14.00">if</text>
</g>
<!-- if&#45;&gt;input -->
<!-- for -->
<g id="node11" class="node">
<title>for</title>
<polygon fill="#ffbe52" stroke="black" points="1192.76,-213.5 1176.25,-231.5 1143.25,-231.5 1126.74,-213.5 1143.25,-195.5 1176.25,-195.5 1192.76,-213.5"/>
<text text-anchor="middle" x="1159.75" y="-208.82" font-family="DejaVu Sans Mono" font-size="14.00">for</text>
</g>
<!-- return -->
<g id="node14" class="node">
<title>return</title>
<polygon fill="#98fb98" stroke="black" points="1168.12,-154.25 1060.95,-154.25 1033.38,-118.25 1140.55,-118.25 1168.12,-154.25"/>
<text text-anchor="middle" x="1100.75" y="-131.57" font-family="DejaVu Sans Mono" font-size="14.00">return</text>
</g>
<!-- for&#45;&gt;return -->
<!-- while -->
<g id="node12" class="node">
<title>while</title>
<polygon fill="#ffbe52" stroke="black" points="1109.12,-213.5 1085.94,-231.5 1039.56,-231.5 1016.38,-213.5 1039.56,-195.5 1085.94,-195.5 1109.12,-213.5"/>
<text text-anchor="middle" x="1062.75" y="-208.82" font-family="DejaVu Sans Mono" font-size="14.00">while</text>
</g>
<!-- return&#45;&gt;default -->
<!-- try -->
<g id="node15" class="node">
<title>try</title>
<polygon fill="orange" stroke="black" points="957.75,-231.5 917.32,-213.5 957.75,-195.5 998.18,-213.5 957.75,-231.5"/>
<polyline fill="none" stroke="black" points="928.29,-218.38 928.29,-208.62"/>
<polyline fill="none" stroke="black" points="946.79,-200.38 968.71,-200.38"/>
<polyline fill="none" stroke="black" points="987.21,-208.62 987.21,-218.38"/>
<polyline fill="none" stroke="black" points="968.71,-226.62 946.79,-226.62"/>
<text text-anchor="middle" x="957.75" y="-208.82" font-family="DejaVu Sans Mono" font-size="14.00">try</text>
</g>
<!-- raise -->
<g id="node16" class="node">
<title>raise</title>
<polygon fill="#98fb98" stroke="black" points="1015.39,-141.81 965.75,-154.25 916.11,-141.81 916.16,-121.69 1015.34,-121.69 1015.39,-141.81"/>
<text text-anchor="middle" x="965.75" y="-131.57" font-family="DejaVu Sans Mono" font-size="14.00">raise</text>
</g>
<!-- try&#45;&gt;raise -->
</g>
</svg>
