<?xml version="1.0" encoding="UTF-8" standalone="no"?>
<!DOCTYPE svg PUBLIC "-//W3C//DTD SVG 1.1//EN"
 "http://www.w3.org/Graphics/SVG/1.1/DTD/svg11.dtd">
<!-- Generated by graphviz version 9.0.0 (20230911.1827)
 -->
<!-- Title: cluster0switch_case Pages: 1 -->
<svg width="1248pt" height="441pt"
 viewBox="0.00 0.00 1248.00 440.50" xmlns="http://www.w3.org/2000/svg" xmlns:xlink="http://www.w3.org/1999/xlink">
<g id="graph0" class="graph" transform="scale(1 1) rotate(0) translate(4 436.5)">
<title>cluster0switch_case</title>
<polygon fill="white" stroke="none" points="-4,4 -4,-436.5 1244,-436.5 1244,4 -4,4"/>
<text text-anchor="middle" x="620" y="-7.95" font-family="DejaVu Sans Mono" font-size="14.00">switch_case</text>
<g id="clust1" class="cluster">
<title>cluster0even_or_odd</title>
<polygon fill="none" stroke="black" points="222,-33.25 222,-424.5 532,-424.5 532,-33.25 222,-33.25"/>
<text text-anchor="middle" x="377" y="-407.2" font-family="DejaVu Sans Mono" font-size="14.00">even_or_odd</text>
</g>
<g id="clust2" class="cluster">
<title>cluster_5</title>
<polygon fill="purple" stroke="purple" points="240,-41.25 240,-93.25 310,-93.25 310,-41.25 240,-41.25"/>
</g>
<g id="clust3" class="cluster">
<title>cluster_7</title>
<polygon fill="purple" stroke="purple" points="362,-41.25 362,-93.25 432,-93.25 432,-41.25 362,-41.25"/>
</g>
<g id="clust4" class="cluster">
<title>cluster0even</title>
<polygon fill="none" stroke="black" points="540,-203.75 540,-395.38 680,-395.38 680,-203.75 540,-203.75"/>
<text text-anchor="middle" x="610" y="-378.07" font-family="DejaVu Sans Mono" font-size="14.00">even</text>
</g>
<g id="clust5" class="cluster">
<title>cluster_12</title>
<polygon fill="purple" stroke="purple" points="573,-211.75 573,-263.75 647,-263.75 647,-211.75 573,-211.75"/>
</g>
<g id="clust6" class="cluster">
<title>cluster0odd</title>
<polygon fill="none" stroke="black" points="688,-203.75 688,-395.38 820,-395.38 820,-203.75 688,-203.75"/>
<text text-anchor="middle" x="754" y="-378.07" font-family="DejaVu Sans Mono" font-size="14.00">odd</text>
</g>
<g id="clust7" class="cluster">
<title>cluster_16</title>
<polygon fill="purple" stroke="purple" points="717,-211.75 717,-263.75 791,-263.75 791,-211.75 717,-211.75"/>
</g>
<g id="clust8" class="cluster">
<title>cluster_KEY</title>
<polygon fill="none" stroke="black" points="828,-126.5 828,-395.38 1232,-395.38 1232,-126.5 828,-126.5"/>
<text text-anchor="middle" x="1030" y="-378.07" font-family="DejaVu Sans Mono" font-size="14.00">KEY</text>
</g>
<!-- 1 -->
<g id="node1" class="node">
<title>1</title>
<polygon fill="#fffb81" stroke="black" points="214,-374 0,-374 0,-314.25 214,-314.25 214,-374"/>
<text text-anchor="start" x="8" y="-356.7" font-family="DejaVu Sans Mono" font-size="14.00">def even_or_odd(num):...</text>
<text text-anchor="start" x="8" y="-339.45" font-family="DejaVu Sans Mono" font-size="14.00">def even():...</text>
<text text-anchor="start" x="8" y="-322.2" font-family="DejaVu Sans Mono" font-size="14.00">def odd():...</text>
</g>
<!-- 3 -->
<g id="node2" class="node">
<title>3</title>
<polygon fill="#fffb81" stroke="black" points="426.25,-391.25 327.75,-391.25 327.75,-297 426.25,-297 426.25,-391.25"/>
<text text-anchor="start" x="335.75" y="-373.95" font-family="DejaVu Sans Mono" font-size="14.00">&quot;&quot;&quot;</text>
<text text-anchor="start" x="335.75" y="-356.7" font-family="DejaVu Sans Mono" font-size="14.00"> &#160;&#160;&#160;multi</text>
<text text-anchor="start" x="335.75" y="-339.45" font-family="DejaVu Sans Mono" font-size="14.00"> &#160;&#160;&#160;line</text>
<text text-anchor="start" x="335.75" y="-322.2" font-family="DejaVu Sans Mono" font-size="14.00"> &#160;&#160;&#160;string</text>
<text text-anchor="start" x="335.75" y="-304.95" font-family="DejaVu Sans Mono" font-size="14.00"> &#160;&#160;&#160;&quot;&quot;&quot;</text>
</g>
<!-- 4 -->
<g id="node3" class="node">
<title>4</title>
<polygon fill="#ff6752" stroke="black" points="377,-255.75 230.18,-237.75 377,-219.75 523.82,-237.75 377,-255.75"/>
<text text-anchor="start" x="280.35" y="-233.07" font-family="DejaVu Sans Mono" font-size="14.00">if num % 2 == 0:</text>
</g>
<!-- 3&#45;&gt;4 -->
<g id="edge5" class="edge">
<title>3&#45;&gt;4</title>
<path fill="none" stroke="black" d="M377,-296.74C377,-286.78 377,-276.54 377,-267.49"/>
<polygon fill="black" stroke="black" points="380.5,-267.53 377,-257.53 373.5,-267.53 380.5,-267.53"/>
</g>
<!-- 5 -->
<g id="node4" class="node">
<title>5</title>
<polygon fill="#fffb81" stroke="black" points="307.75,-170.5 242.25,-170.5 242.25,-134.5 307.75,-134.5 307.75,-170.5"/>
<text text-anchor="start" x="250.25" y="-147.82" font-family="DejaVu Sans Mono" font-size="14.00">even()</text>
</g>
<!-- 4&#45;&gt;5 -->
<g id="edge2" class="edge">
<title>4&#45;&gt;5</title>
<path fill="none" stroke="green" d="M328.85,-225.25C312.43,-219.06 295.36,-209.71 284,-195.75 280.72,-191.71 278.55,-186.76 277.14,-181.69"/>
<polygon fill="green" stroke="green" points="280.64,-181.38 275.39,-172.18 273.76,-182.65 280.64,-181.38"/>
<text text-anchor="middle" x="333.5" y="-182.45" font-family="DejaVu Sans Mono" font-size="14.00">num % 2 == 0</text>
</g>
<!-- 7 -->
<g id="node6" class="node">
<title>7</title>
<polygon fill="#fffb81" stroke="black" points="425.62,-170.5 368.38,-170.5 368.38,-134.5 425.62,-134.5 425.62,-170.5"/>
<text text-anchor="start" x="376.38" y="-147.82" font-family="DejaVu Sans Mono" font-size="14.00">odd()</text>
</g>
<!-- 4&#45;&gt;7 -->
<g id="edge4" class="edge">
<title>4&#45;&gt;7</title>
<path fill="none" stroke="red" d="M381.05,-219.9C383.67,-208.99 387.15,-194.51 390.19,-181.85"/>
<polygon fill="red" stroke="red" points="393.53,-182.91 392.47,-172.37 386.73,-181.27 393.53,-182.91"/>
<text text-anchor="middle" x="447.75" y="-182.45" font-family="DejaVu Sans Mono" font-size="14.00">(num % 2 != 0)</text>
</g>
<!-- 9 -->
<g id="node5" class="node">
<title>9</title>
<polygon fill="#e552ff" stroke="#e552ff" points="302,-85.25 260,-85.25 260,-89.25 248,-89.25 248,-49.25 302,-49.25 302,-85.25"/>
<polyline fill="none" stroke="#e552ff" points="248,-85.25 260,-85.25"/>
<text text-anchor="middle" x="275" y="-62.58" font-family="DejaVu Sans Mono" font-size="14.00">even</text>
</g>
<!-- 5&#45;&gt;9 -->
<g id="edge1" class="edge">
<title>5&#45;&gt;9</title>
<path fill="none" stroke="black" stroke-dasharray="5,2" d="M275,-134.25C275,-123.42 275,-109.2 275,-96.73"/>
<polygon fill="black" stroke="black" points="278.5,-96.99 275,-86.99 271.5,-96.99 278.5,-96.99"/>
<text text-anchor="middle" x="295.62" y="-105.2" font-family="DejaVu Sans Mono" font-size="14.00">calls</text>
</g>
<!-- 8 -->
<g id="node7" class="node">
<title>8</title>
<polygon fill="#e552ff" stroke="#e552ff" points="424,-85.25 382,-85.25 382,-89.25 370,-89.25 370,-49.25 424,-49.25 424,-85.25"/>
<polyline fill="none" stroke="#e552ff" points="370,-85.25 382,-85.25"/>
<text text-anchor="middle" x="397" y="-62.58" font-family="DejaVu Sans Mono" font-size="14.00">odd</text>
</g>
<!-- 7&#45;&gt;8 -->
<g id="edge3" class="edge">
<title>7&#45;&gt;8</title>
<path fill="none" stroke="black" stroke-dasharray="5,2" d="M397,-134.25C397,-123.42 397,-109.2 397,-96.73"/>
<polygon fill="black" stroke="black" points="400.5,-96.99 397,-86.99 393.5,-96.99 400.5,-96.99"/>
<text text-anchor="middle" x="417.62" y="-105.2" font-family="DejaVu Sans Mono" font-size="14.00">calls</text>
</g>
<!-- 12 -->
<g id="node8" class="node">
<title>12</title>
<polygon fill="#fffb81" stroke="black" points="671.62,-362.12 548.38,-362.12 548.38,-326.12 671.62,-326.12 671.62,-362.12"/>
<text text-anchor="start" x="556.38" y="-339.45" font-family="DejaVu Sans Mono" font-size="14.00">print(&#39;even&#39;)</text>
</g>
<!-- 13 -->
<g id="node9" class="node">
<title>13</title>
<polygon fill="#e552ff" stroke="#e552ff" points="638.62,-255.75 593.38,-255.75 593.38,-259.75 581.38,-259.75 581.38,-219.75 638.62,-219.75 638.62,-255.75"/>
<polyline fill="none" stroke="#e552ff" points="581.38,-255.75 593.38,-255.75"/>
<text text-anchor="middle" x="610" y="-233.07" font-family="DejaVu Sans Mono" font-size="14.00">print</text>
</g>
<!-- 12&#45;&gt;13 -->
<g id="edge6" class="edge">
<title>12&#45;&gt;13</title>
<path fill="none" stroke="black" stroke-dasharray="5,2" d="M610,-325.89C610,-310.03 610,-286.19 610,-267.45"/>
<polygon fill="black" stroke="black" points="613.5,-267.52 610,-257.52 606.5,-267.52 613.5,-267.52"/>
<text text-anchor="middle" x="630.62" y="-275.7" font-family="DejaVu Sans Mono" font-size="14.00">calls</text>
</g>
<!-- 16 -->
<g id="node10" class="node">
<title>16</title>
<polygon fill="#fffb81" stroke="black" points="811.5,-362.12 696.5,-362.12 696.5,-326.12 811.5,-326.12 811.5,-362.12"/>
<text text-anchor="start" x="704.5" y="-339.45" font-family="DejaVu Sans Mono" font-size="14.00">print(&#39;odd&#39;)</text>
</g>
<!-- 17 -->
<g id="node11" class="node">
<title>17</title>
<polygon fill="#e552ff" stroke="#e552ff" points="782.62,-255.75 737.38,-255.75 737.38,-259.75 725.38,-259.75 725.38,-219.75 782.62,-219.75 782.62,-255.75"/>
<polyline fill="none" stroke="#e552ff" points="725.38,-255.75 737.38,-255.75"/>
<text text-anchor="middle" x="754" y="-233.07" font-family="DejaVu Sans Mono" font-size="14.00">print</text>
</g>
<!-- 16&#45;&gt;17 -->
<g id="edge7" class="edge">
<title>16&#45;&gt;17</title>
<path fill="none" stroke="black" stroke-dasharray="5,2" d="M754,-325.89C754,-310.03 754,-286.19 754,-267.45"/>
<polygon fill="black" stroke="black" points="757.5,-267.52 754,-257.52 750.5,-267.52 757.5,-267.52"/>
<text text-anchor="middle" x="774.62" y="-275.7" font-family="DejaVu Sans Mono" font-size="14.00">calls</text>
</g>
<!-- input -->
<g id="node12" class="node">
<title>input</title>
<polygon fill="#afeeee" stroke="black" points="1223.88,-255.75 1130.21,-255.75 1106.12,-219.75 1199.79,-219.75 1223.88,-255.75"/>
<text text-anchor="middle" x="1165" y="-233.07" font-family="DejaVu Sans Mono" font-size="14.00">input</text>
</g>
<!-- call -->
<g id="node17" class="node">
<title>call</title>
<polygon fill="#e552ff" stroke="black" points="1192,-170.5 1150,-170.5 1150,-174.5 1138,-174.5 1138,-134.5 1192,-134.5 1192,-170.5"/>
<polyline fill="none" stroke="black" points="1138,-170.5 1150,-170.5"/>
<text text-anchor="middle" x="1165" y="-147.82" font-family="DejaVu Sans Mono" font-size="14.00">call</text>
</g>
<!-- input&#45;&gt;call -->
<!-- default -->
<g id="node13" class="node">
<title>default</title>
<polygon fill="#fffb81" stroke="black" points="1057.88,-170.5 984.12,-170.5 984.12,-134.5 1057.88,-134.5 1057.88,-170.5"/>
<text text-anchor="middle" x="1021" y="-147.82" font-family="DejaVu Sans Mono" font-size="14.00">default</text>
</g>
<!-- if -->
<g id="node14" class="node">
<title>if</title>
<polygon fill="#ff6752" stroke="black" points="1165,-362.12 1132.76,-344.12 1165,-326.12 1197.24,-344.12 1165,-362.12"/>
<text text-anchor="middle" x="1165" y="-339.45" font-family="DejaVu Sans Mono" font-size="14.00">if</text>
</g>
<!-- if&#45;&gt;input -->
<!-- for -->
<g id="node15" class="node">
<title>for</title>
<polygon fill="#ffbe52" stroke="black" points="1113.01,-344.12 1096.5,-362.12 1063.5,-362.12 1046.99,-344.12 1063.5,-326.12 1096.5,-326.12 1113.01,-344.12"/>
<text text-anchor="middle" x="1080" y="-339.45" font-family="DejaVu Sans Mono" font-size="14.00">for</text>
</g>
<!-- return -->
<g id="node18" class="node">
<title>return</title>
<polygon fill="#98fb98" stroke="black" points="1088.37,-255.75 981.2,-255.75 953.63,-219.75 1060.8,-219.75 1088.37,-255.75"/>
<text text-anchor="middle" x="1021" y="-233.07" font-family="DejaVu Sans Mono" font-size="14.00">return</text>
</g>
<!-- for&#45;&gt;return -->
<!-- while -->
<g id="node16" class="node">
<title>while</title>
<polygon fill="#ffbe52" stroke="black" points="1029.37,-344.12 1006.19,-362.12 959.81,-362.12 936.63,-344.12 959.81,-326.12 1006.19,-326.12 1029.37,-344.12"/>
<text text-anchor="middle" x="983" y="-339.45" font-family="DejaVu Sans Mono" font-size="14.00">while</text>
</g>
<!-- return&#45;&gt;default -->
<!-- try -->
<g id="node19" class="node">
<title>try</title>
<polygon fill="orange" stroke="black" points="878,-362.12 837.57,-344.12 878,-326.12 918.43,-344.12 878,-362.12"/>
<polyline fill="none" stroke="black" points="848.54,-349.01 848.54,-339.24"/>
<polyline fill="none" stroke="black" points="867.04,-331.01 888.96,-331.01"/>
<polyline fill="none" stroke="black" points="907.46,-339.24 907.46,-349.01"/>
<polyline fill="none" stroke="black" points="888.96,-357.24 867.04,-357.24"/>
<text text-anchor="middle" x="878" y="-339.45" font-family="DejaVu Sans Mono" font-size="14.00">try</text>
</g>
<!-- raise -->
<g id="node20" class="node">
<title>raise</title>
<polygon fill="#98fb98" stroke="black" points="935.64,-243.31 886,-255.75 836.36,-243.31 836.41,-223.19 935.59,-223.19 935.64,-243.31"/>
<text text-anchor="middle" x="886" y="-233.07" font-family="DejaVu Sans Mono" font-size="14.00">raise</text>
</g>
<!-- try&#45;&gt;raise -->
</g>
</svg>
